<?xml version="1.0" standalone="no"?>
<!DOCTYPE svg PUBLIC "-//W3C//DTD SVG 1.1//EN" "http://www.w3.org/Graphics/SVG/1.1/DTD/svg11.dtd" >
<svg xmlns="http://www.w3.org/2000/svg" xmlns:xlink="http://www.w3.org/1999/xlink" version="1.1">
<metadata>
Created by FontForge 20170731 at Mon Jan 31 18:50:36 2022
 By Aleksey,,,
Copyright (c) 2016 by Lee, Hyun-Seung. All rights reserved.
</metadata>
<defs>
<font id="ArticoExpandedHeavy" horiz-adv-x="1011" >
  <font-face 
    font-family="Artico Expanded Heavy"
    font-weight="800"
    font-stretch="expanded"
    units-per-em="2048"
    panose-1="2 11 9 5 3 3 2 2 2 4"
    ascent="1638"
    descent="-410"
    x-height="1061"
    cap-height="1434"
    bbox="-1083 -573 2892 2073"
    underline-thickness="49"
    underline-position="-472"
    unicode-range="U+0008-FB04"
  />
<missing-glyph horiz-adv-x="1150" 
d="M997 0h-843v1536h843v-1536zM854 133v1270h-557v-1270h557z" />
    <glyph glyph-name="f_f" unicode="ff" horiz-adv-x="1921" 
d="M1909 1481v-283h-119q-112 0 -156.5 -24t-44.5 -80v-33h295v-309h-295v-752h-456v752h-449v-752h-459v752h-211v309h211v45q0 200 125.5 294.5t390.5 94.5q155 0 250 -12v-287q-23 2 -108 2q-112 0 -155.5 -23.5t-43.5 -80.5v-33h449v45q0 201 125 295t391 94
q120 0 260 -14z" />
    <glyph glyph-name="f_i" unicode="fi" horiz-adv-x="1736" 
d="M1135 0v752h-451v-752h-459v752h-211v309h211v45q0 201 125 295t391 94q139 0 195 -6v-291h-76q-95 0 -135.5 -24t-40.5 -80v-33h909v-1061h-458zM1135 1196v297h458v-297h-458z" />
    <glyph glyph-name="f_l" unicode="fl" horiz-adv-x="1728" 
d="M1130 0v1180q-108 18 -270 18q-93 0 -134.5 -25.5t-41.5 -78.5v-33h283v-309h-283v-752h-459v752h-211v309h211v45q0 203 114.5 295t373.5 92q95 0 212.5 -13t204.5 -34v49h459v-1495h-459z" />
    <glyph glyph-name="f_f_i" unicode="ffi" horiz-adv-x="2643" 
d="M2040 0v752h-451v-752h-456v752h-449v-752h-459v752h-211v309h211v45q0 201 125 295t391 94q155 0 250 -12v-287q-23 2 -108 2q-110 0 -154.5 -25.5t-44.5 -78.5v-33h449v45q0 201 124.5 295t391.5 94q139 0 194 -6v-291h-76q-94 0 -136 -25.5t-42 -78.5v-33h910v-1061
h-459zM2040 1214v279h459v-279h-459z" />
    <glyph glyph-name="f_f_l" unicode="ffl" horiz-adv-x="2635" 
d="M2036 0v1180q-105 18 -269 18q-94 0 -136 -25.5t-42 -78.5v-33h283v-309h-283v-752h-456v752h-449v-752h-459v752h-211v309h211v45q0 201 125 295t391 94q155 0 250 -12v-287q-23 2 -108 2q-110 0 -154.5 -25.5t-44.5 -78.5v-33h449v45q0 203 114 295t373 92
q95 0 213 -13t203 -34v49h458v-1495h-458z" />
    <glyph glyph-name=".notdef" horiz-adv-x="1150" 
d="M997 0h-843v1536h843v-1536zM854 133v1270h-557v-1270h557z" />
    <glyph glyph-name=".null" horiz-adv-x="0" 
 />
    <glyph glyph-name=".null" horiz-adv-x="0" 
 />
    <glyph glyph-name=".null" horiz-adv-x="0" 
 />
    <glyph glyph-name="nonmarkingreturn" horiz-adv-x="682" 
 />
    <glyph glyph-name="CR" unicode="&#x9;" horiz-adv-x="698" 
 />
    <glyph glyph-name="CR" unicode="&#xd;" horiz-adv-x="698" 
 />
    <glyph glyph-name="space" unicode=" " horiz-adv-x="737" 
 />
    <glyph glyph-name="exclam" unicode="!" horiz-adv-x="798" 
d="M215 440l-57 662v332h481v-332l-55 -662h-369zM180 0v311h438v-311h-438z" />
    <glyph glyph-name="quotedbl" unicode="&#x22;" horiz-adv-x="1333" 
d="M240 836l-43 598h368v-74q0 -124 -37.5 -274t-93.5 -250h-194zM811 836l-43 598h369v-74q0 -124 -37.5 -274t-93.5 -250h-195z" />
    <glyph glyph-name="numbersign" unicode="#" horiz-adv-x="1837" 
d="M164 858v285h295l57 291h387l-59 -291h317l58 291h387l-60 -291h234v-285h-291l-57 -283h239v-284h-297l-59 -291h-385l57 291h-315l-60 -291h-385l58 291h-230v284h287l59 283h-237zM786 858l-57 -283h315l60 283h-318z" />
    <glyph glyph-name="dollar" unicode="$" horiz-adv-x="1492" 
d="M1417 1008q-75 0 -224 -1t-222 -1q-15 56 -71.5 90t-135.5 34q-76 0 -120 -25t-44 -61q0 -44 55 -79.5t209 -75.5q112 -29 194.5 -59t154.5 -69.5t116.5 -87t70 -110t25.5 -139.5q0 -178 -144 -300.5t-396 -137.5v-199h-273v201l-71 12q-132 32 -254 107t-217 180
l192 170q123 -83 230.5 -119.5t242.5 -36.5q98 0 151.5 28.5t53.5 67.5q0 34 -26.5 58t-98 49.5t-215.5 62.5q-266 66 -375.5 180t-109.5 287q0 79 31.5 150t91 127.5t152 93t206.5 43.5v201h272v-199q228 -17 370.5 -140t178.5 -302z" />
    <glyph glyph-name="percent" unicode="%" horiz-adv-x="2179" 
d="M152 1083q0 152 122 258.5t295 106.5q174 0 296 -106.5t122 -258.5t-122 -258t-296 -106t-295.5 106t-121.5 258zM422 1083q0 -61 39 -98t108 -37q68 0 108 37t40 98q0 60 -40 98t-108 38q-69 0 -108 -38t-39 -98zM1688 1280l-1045 -1221l-151 93l1044 1220zM1194 350
q0 152 122 258.5t296 106.5q172 0 294 -106.5t122 -258.5t-122 -258t-294 -106q-174 0 -296 106t-122 258zM1464 350q0 -61 40 -98t108 -37q69 0 108 37t39 98q0 60 -39 97.5t-108 37.5q-68 0 -108 -37.5t-40 -97.5z" />
    <glyph glyph-name="ampersand" unicode="&#x26;" horiz-adv-x="1736" 
d="M1288 1196q-113 -79 -260 -186l-74 67q-47 44 -85 61t-91 17q-58 0 -95.5 -26.5t-37.5 -63.5q0 -41 70 -100l444 -373l195 137l272 -225l-194 -142l276 -239l-197 -150q-159 52 -344 174q-233 -172 -530 -172q-262 0 -407.5 115.5t-145.5 298.5q0 237 287 412
q-117 126 -117 260q0 82 34.5 153.5t98 126t161.5 86t218 31.5q265 0 444 -182zM662 276q57 0 108 22.5t117 68.5l-252 211q-160 -81 -160 -172q0 -62 48.5 -96t138.5 -34z" />
    <glyph glyph-name="quotesingle" unicode="'" horiz-adv-x="739" 
d="M221 836l-41 598h369v-74q0 -127 -37 -276.5t-94 -247.5h-197z" />
    <glyph glyph-name="parenleft" unicode="(" horiz-adv-x="948" 
d="M195 635q0 257 102.5 496t288.5 425l288 -120q-141 -176 -218.5 -379.5t-77.5 -421.5q0 -220 77.5 -423.5t218.5 -377.5l-288 -123q-186 186 -288.5 426t-102.5 498z" />
    <glyph glyph-name="parenright" unicode=")" horiz-adv-x="948" 
d="M754 635q0 -258 -103.5 -498t-290.5 -426l-286 123q295 365 295 801q0 433 -295 801l286 120q188 -186 291 -425t103 -496z" />
    <glyph glyph-name="asterisk" unicode="*" horiz-adv-x="1306" 
d="M809 219h-313l49 273l-275 -160l-129 248l260 100l-260 98l133 248l271 -160l-49 273h313l-47 -273l270 160l131 -248l-260 -98l260 -100l-131 -248l-270 160z" />
    <glyph glyph-name="plus" unicode="+" horiz-adv-x="1431" 
d="M543 158v387h-434v266h434v387h346v-387h434v-266h-434v-387h-346z" />
    <glyph glyph-name="comma" unicode="," horiz-adv-x="722" 
d="M203 -340l-189 115q100 103 138 193t38 222v144h340v-90q0 -199 -75.5 -341t-251.5 -243z" />
    <glyph glyph-name="hyphen" unicode="-" horiz-adv-x="913" 
d="M803 537h-694v284h694v-284z" />
    <glyph glyph-name="period" unicode="." horiz-adv-x="722" 
d="M190 2v332h340v-332h-340z" />
    <glyph glyph-name="slash" unicode="/" horiz-adv-x="1300" 
d="M1317 1423l-1026 -1695l-309 149l1028 1696z" />
    <glyph glyph-name="zero" unicode="0" horiz-adv-x="1525" 
d="M1440 717q0 -343 -174.5 -542.5t-503.5 -199.5q-219 0 -373 93t-229.5 258.5t-75.5 390.5t75.5 390t229.5 258t373 93q329 0 503.5 -199t174.5 -542zM973 717q0 213 -53 305t-158 92q-104 0 -157.5 -92.5t-53.5 -304.5q0 -213 53.5 -305.5t157.5 -92.5q105 0 158 92
t53 306z" />
    <glyph glyph-name="one" unicode="1" horiz-adv-x="1525" 
d="M373 778l-228 285l574 371h414v-1434h-463v969z" />
    <glyph glyph-name="two" unicode="2" horiz-adv-x="1525" 
d="M883 991q0 54 -43 86.5t-111 32.5q-83 0 -130 -47t-48 -145h-418q1 260 163 401t452 141q270 0 434 -120.5t164 -338.5q0 -85 -41 -177t-112.5 -178t-155.5 -163t-183 -149h518v-334h-1208v289q719 476 719 702z" />
    <glyph glyph-name="three" unicode="3" horiz-adv-x="1525" 
d="M897 1022q0 44 -45 72t-121 28q-84 0 -138.5 -35t-55.5 -96h-402q2 208 169.5 335.5t445.5 127.5q168 0 302.5 -49t211.5 -140.5t77 -209.5q0 -104 -58.5 -182t-166.5 -123q281 -96 281 -336q0 -191 -176 -314t-482 -123q-181 0 -355 85t-284 235l228 154
q75 -70 178 -108t199 -38q111 0 175 33.5t64 93.5q0 73 -78 109.5t-211 36.5h-129v313h127q108 0 176 36.5t68 94.5z" />
    <glyph glyph-name="four" unicode="4" horiz-adv-x="1525" 
d="M66 233v304l765 897h437v-887h207v-314h-207v-233h-451v233h-751zM817 926l-344 -379h344v379z" />
    <glyph glyph-name="five" unicode="5" horiz-adv-x="1525" 
d="M354 592l-121 59v783h1065v-328h-634v-174q48 14 174 14q110 0 209 -33t175.5 -93.5t121.5 -153.5t45 -205q0 -103 -44 -191.5t-125 -154t-204 -103t-273 -37.5q-182 0 -343 79t-279 233l217 147q140 -129 360 -129q106 0 167 45.5t61 118.5q0 85 -70 130.5t-182 45.5
q-182 0 -320 -53z" />
    <glyph glyph-name="six" unicode="6" horiz-adv-x="1525" 
d="M807 1122q-78 0 -139.5 -61t-77.5 -184q58 35 147.5 56t180.5 21q151 0 268.5 -56t186.5 -167t69 -262q0 -223 -173 -358.5t-458 -135.5q-330 0 -512 175.5t-182 519.5q0 388 177 588t503 200q253 0 414.5 -117.5t189.5 -308.5h-432q-12 41 -54 65.5t-108 24.5zM780 625
q-112 0 -194 -52q6 -145 58.5 -203.5t152.5 -58.5q86 0 134 42t48 116q0 156 -199 156z" />
    <glyph glyph-name="seven" unicode="7" horiz-adv-x="1525" 
d="M1374 1434v-316q-205 -297 -330.5 -553.5t-197.5 -564.5h-486q145 563 523 1085h-738v349h1229z" />
    <glyph glyph-name="eight" unicode="8" horiz-adv-x="1525" 
d="M84 399q0 111 65.5 194.5t186.5 133.5q-180 121 -180 320q0 185 165.5 298t430.5 113q280 0 446 -111t166 -282q0 -97 -46.5 -174.5t-137.5 -126.5q134 -66 196 -149.5t62 -198.5q0 -196 -180.5 -317.5t-495.5 -121.5q-306 0 -492 117t-186 305zM551 422q0 -64 62 -102.5
t161 -38.5q95 0 146 30t51 82q0 51 -58.5 87t-242.5 102q-56 -33 -87.5 -76t-31.5 -84zM946 1030q0 61 -49 96t-133 35q-76 0 -123 -29t-47 -75q0 -47 52 -83t194 -85q106 72 106 141z" />
    <glyph glyph-name="nine" unicode="9" horiz-adv-x="1525" 
d="M649 311q253 0 283 244q-56 -36 -145.5 -57t-180.5 -21q-230 0 -377 130.5t-147 355.5q0 223 173.5 359t459.5 136q329 0 510.5 -175.5t181.5 -516.5q0 -390 -183 -590.5t-517 -200.5q-156 0 -302.5 65.5t-265.5 186.5l199 174q148 -90 311 -90zM739 782q117 0 213 62
q-13 278 -221 278q-94 0 -146.5 -45t-52.5 -125q0 -79 55 -124.5t152 -45.5z" />
    <glyph glyph-name="colon" unicode=":" horiz-adv-x="722" 
d="M190 2v332h340v-332h-340zM190 727v334h340v-334h-340z" />
    <glyph glyph-name="semicolon" unicode=";" horiz-adv-x="722" 
d="M190 727v334h340v-334h-340zM203 -340l-189 115q100 103 138 193t38 222v144h340v-90q0 -199 -75.5 -341t-251.5 -243z" />
    <glyph glyph-name="less" unicode="&#x3c;" horiz-adv-x="1431" 
d="M215 539v274l227 115q296 149 639 252l103 -197l-561 -307l561 -307l-103 -199q-351 109 -637 254z" />
    <glyph glyph-name="equal" unicode="=" horiz-adv-x="1431" 
d="M1323 786h-1214v267h1214v-267zM1323 305h-1214v264h1214v-264z" />
    <glyph glyph-name="greater" unicode="&#x3e;" horiz-adv-x="1431" 
d="M1214 813v-274l-229 -115q-308 -152 -637 -254l-100 199l559 307l-559 307l100 197q357 -108 639 -252z" />
    <glyph glyph-name="question" unicode="?" horiz-adv-x="1349" 
d="M631 1458q265 0 420 -105.5t155 -289.5q0 -128 -71.5 -225t-225.5 -181q-72 -39 -98.5 -75.5t-26.5 -92.5v-49h-292q-72 75 -72 183q0 179 178 262q88 42 127 79.5t39 79.5q0 39 -39.5 61.5t-106.5 22.5q-154 0 -157 -124h-404q3 209 151 331.5t423 122.5zM416 0v311h436
v-311h-436z" />
    <glyph glyph-name="at" unicode="@" horiz-adv-x="2340" 
d="M586 555q0 138 79.5 250.5t211.5 174.5t288 62q257 0 398 -112.5t141 -335.5v-168q0 -135 137 -135q92 0 143.5 78.5t51.5 224.5q0 201 -110.5 363t-309 254t-447.5 92q-177 0 -335 -52.5t-275.5 -146.5t-186.5 -235t-69 -308q0 -219 116.5 -389.5t313 -261t436.5 -90.5
q340 0 531 133l108 -113q-129 -85 -294.5 -130.5t-344.5 -45.5q-224 0 -418.5 70t-329 190.5t-211.5 285.5t-77 351t76.5 351t210.5 285.5t328.5 190.5t420.5 70q234 0 431 -70t328 -188.5t203.5 -275t72.5 -330.5q0 -234 -124.5 -364t-359.5 -130q-252 0 -346 133
q-53 -61 -154 -98t-192 -37q-207 0 -324.5 122t-117.5 335zM1149 334q111 0 184 59v168q0 113 -44.5 164t-135.5 51q-195 0 -195 -221q0 -112 44 -166.5t147 -54.5z" />
    <glyph glyph-name="A" unicode="A" horiz-adv-x="1785" 
d="M1249 0l-78 238h-561l-75 -238h-515l553 1434h637l553 -1434h-514zM1067 571l-176 488l-174 -488h350z" />
    <glyph glyph-name="B" unicode="B" horiz-adv-x="1591" 
d="M152 0v1434h661q311 0 469 -105.5t158 -294.5q0 -97 -54 -173.5t-147 -110.5q127 -32 207 -117t80 -203q0 -95 -36.5 -171.5t-113.5 -135.5t-208.5 -91t-311.5 -32h-704zM1038 446q0 69 -52.5 101.5t-162.5 32.5h-198v-267h198q111 0 163 32t52 101zM991 999
q0 62 -49 90.5t-151 28.5h-166v-237h166q102 0 151 28.5t49 89.5z" />
    <glyph glyph-name="C" unicode="C" horiz-adv-x="1708" 
d="M1380 520l236 -139q-251 -404 -690 -404q-397 0 -623.5 201t-226.5 539q0 166 56 302.5t161 233.5t261.5 150t350.5 53q317 0 515 -161t233 -425h-449q-43 234 -299 234q-163 0 -253.5 -102t-90.5 -285q0 -182 102.5 -286.5t272.5 -104.5q151 0 256 50t188 144z" />
    <glyph glyph-name="D" unicode="D" horiz-adv-x="1724" 
d="M633 1083v-733h145q179 0 281 89t102 278q0 187 -102 276.5t-281 89.5h-145zM1649 717q0 -339 -232.5 -528t-642.5 -189h-622v1434h622q410 0 642.5 -190t232.5 -527z" />
    <glyph glyph-name="E" unicode="E" horiz-adv-x="1427" 
d="M152 0v1434h1171v-336h-688v-195h602v-336h-602v-231h711v-336h-1194z" />
    <glyph glyph-name="F" unicode="F" horiz-adv-x="1345" 
d="M152 0v1434h1171v-336h-688v-234h602v-336h-602v-528h-483z" />
    <glyph glyph-name="G" unicode="G" horiz-adv-x="1785" 
d="M1704 944l-490 -2q-27 78 -108.5 120t-185.5 42q-165 0 -262 -99.5t-97 -287.5q0 -187 102.5 -289t272.5 -102q131 0 217.5 52t101.5 148h-319v273h784v-117q0 -341 -209 -524t-569 -183q-263 0 -458.5 92.5t-299.5 260t-104 389.5q0 339 226.5 540t621.5 201
q299 0 507 -141.5t269 -372.5z" />
    <glyph glyph-name="H" unicode="H" horiz-adv-x="1789" 
d="M152 0v1434h481v-510h522v510h481v-1434h-481v573h-522v-573h-481z" />
    <glyph glyph-name="I" unicode="I" horiz-adv-x="804" 
d="M162 1434h481v-1434h-481v1434z" />
    <glyph glyph-name="J" unicode="J" horiz-adv-x="1525" 
d="M891 528v906h481v-902q0 -255 -174 -406t-477 -151q-196 0 -354 100t-256 273l237 131q55 -70 145 -110.5t179 -40.5q104 0 161.5 52t57.5 148z" />
    <glyph glyph-name="K" unicode="K" horiz-adv-x="1693" 
d="M1620 1434l-524 -590l600 -844h-545l-346 516l-172 -192v-324h-481v1434h481v-543l454 543h533z" />
    <glyph glyph-name="L" unicode="L" horiz-adv-x="1353" 
d="M152 0v1434h481v-1084h698v-350h-1179z" />
    <glyph glyph-name="M" unicode="M" horiz-adv-x="2164" 
d="M1223 260h-285l-320 475v-735h-466v1434h450l479 -744l480 744h450v-1434h-467v735z" />
    <glyph glyph-name="N" unicode="N" horiz-adv-x="1769" 
d="M152 0v1434h436l561 -744v744h469v-1434h-438l-562 743v-743h-466z" />
    <glyph glyph-name="O" unicode="O" horiz-adv-x="1806" 
d="M76 717q0 159 58 295.5t163 235t260.5 154.5t343.5 56t344.5 -56t262 -154.5t163.5 -235t58 -295.5q0 -160 -58 -296.5t-163.5 -235t-261.5 -154.5t-345 -56q-188 0 -343.5 56t-260.5 154.5t-163 235t-58 296.5zM561 717q0 -181 91.5 -285t248.5 -104q159 0 250.5 104
t91.5 285q0 180 -92 283.5t-250 103.5q-157 0 -248.5 -103.5t-91.5 -283.5z" />
    <glyph glyph-name="P" unicode="P" horiz-adv-x="1556" 
d="M1499 940q0 -164 -88.5 -275t-244 -162.5t-371.5 -51.5h-162v-451h-481v1434h643q329 0 516.5 -124t187.5 -370zM1014 940q0 86 -60 123t-176 37h-145v-318h145q236 0 236 158z" />
    <glyph glyph-name="Q" unicode="Q" horiz-adv-x="1806" 
d="M76 717q0 159 58 295.5t163 235t260.5 154.5t343.5 56t344.5 -56t262 -154.5t163.5 -235t58 -295.5q0 -256 -142 -443l203 -180l-295 -270l-233 213q-169 -62 -361 -62q-188 0 -343.5 56t-260.5 154.5t-163 235t-58 296.5zM561 717q0 -181 91.5 -285t248.5 -104
q159 0 250.5 104t91.5 285q0 180 -92 283.5t-250 103.5q-157 0 -248.5 -103.5t-91.5 -283.5z" />
    <glyph glyph-name="R" unicode="R" horiz-adv-x="1654" 
d="M633 500v-500h-481v1434h647q336 0 528.5 -118t192.5 -349q0 -143 -77 -244t-214 -154l405 -569h-520l-305 500h-176zM633 821h182q98 0 163.5 37.5t65.5 108.5q0 145 -229 145h-182v-291z" />
    <glyph glyph-name="S" unicode="S" horiz-adv-x="1492" 
d="M1417 1008q-75 0 -224 -1t-222 -1q-15 56 -71.5 90t-135.5 34q-76 0 -120 -25t-44 -61q0 -44 55 -79.5t209 -75.5q112 -29 194.5 -59t154.5 -69.5t116.5 -87t70 -110t25.5 -139.5q0 -205 -180.5 -327t-501.5 -122q-189 0 -365.5 84t-307.5 228l192 170
q123 -83 230.5 -119.5t242.5 -36.5q99 0 152 27t53 69q0 34 -26.5 58t-98 49.5t-215.5 62.5q-266 66 -375.5 180t-109.5 287q0 192 163 308t459 116q292 0 466 -121.5t214 -328.5z" />
    <glyph glyph-name="T" unicode="T" horiz-adv-x="1462" 
d="M492 0v1083h-469v351h1417v-351h-467v-1083h-481z" />
    <glyph glyph-name="U" unicode="U" horiz-adv-x="1822" 
d="M911 -25q-348 0 -553.5 163t-205.5 456v840h481v-861q0 -123 72 -183t206 -60t206.5 60t72.5 183v861h481v-840q0 -293 -206 -456t-554 -163z" />
    <glyph glyph-name="V" unicode="V" horiz-adv-x="1785" 
d="M891 455l358 979h514l-553 -1434h-637l-553 1434h515z" />
    <glyph glyph-name="W" unicode="W" horiz-adv-x="2537" 
d="M1040 1434h457l266 -940q17 71 130.5 468t131.5 472h488l-453 -1434h-555l-237 901l-238 -901h-555l-452 1434h489l262 -940z" />
    <glyph glyph-name="X" unicode="X" horiz-adv-x="1669" 
d="M1133 0l-297 465l-299 -465h-527l496 733q-77 116 -234.5 350.5t-234.5 350.5h526q46 -68 136.5 -207t136.5 -207l268 414h528l-469 -701l498 -733h-528z" />
    <glyph glyph-name="Y" unicode="Y" horiz-adv-x="1648" 
d="M535 1434l288 -539l289 539h526l-573 -875v-559h-481v559q-173 261 -574 875h525z" />
    <glyph glyph-name="Z" unicode="Z" horiz-adv-x="1452" 
d="M1362 1090l-694 -742h718v-348h-1320v342l692 741h-654v351h1258v-344z" />
    <glyph glyph-name="bracketleft" unicode="[" horiz-adv-x="1024" 
d="M236 -266v1802h765v-262h-387v-1280h387v-260h-765z" />
    <glyph glyph-name="backslash" unicode="\" horiz-adv-x="1300" 
d="M1010 -279l-1028 1696l307 162l1028 -1694z" />
    <glyph glyph-name="bracketright" unicode="]" horiz-adv-x="1024" 
d="M788 1536v-1802h-765v260h387v1280h-387v262h765z" />
    <glyph glyph-name="asciicircum" unicode="^" horiz-adv-x="1513" 
d="M631 1444h254l155 -176q70 -80 142 -192.5t121 -225.5l-232 -129l-313 330l-314 -330l-231 129q49 113 121 226.5t141 191.5z" />
    <glyph glyph-name="underscore" unicode="_" horiz-adv-x="1150" 
d="M-18 -348v139h1187v-139h-1187z" />
    <glyph glyph-name="grave" unicode="`" horiz-adv-x="862" 
d="M289 1284l-135 70l182 184l371 -248l-113 -125q-130 25 -305 119z" />
    <glyph glyph-name="a" unicode="a" horiz-adv-x="1411" 
d="M848 573v95q0 70 -45 109.5t-127 39.5q-57 0 -101 -22.5t-63 -61.5h-383q98 352 588 352q290 0 431.5 -120.5t141.5 -335.5v-346q0 -60 72 -60h43v-233q-69 -15 -172 -15q-137 0 -222 28t-132 99q-164 -127 -396 -127q-185 0 -305.5 92.5t-120.5 251.5q0 157 119 241.5
t307 84.5q86 0 185 -19t180 -53zM848 274v97q-58 55 -209 55q-77 0 -128.5 -28.5t-51.5 -78.5t51.5 -78t128.5 -28q65 0 123 16t86 45z" />
    <glyph glyph-name="b" unicode="b" horiz-adv-x="1560" 
d="M1483 530q0 -268 -142.5 -411.5t-373.5 -143.5q-102 0 -215.5 37.5t-184.5 100.5l-67 -113h-371v1495h459v-528q71 55 175 86.5t204 31.5q112 0 206 -35.5t163.5 -104t108 -174.5t38.5 -241zM788 772q-52 0 -109.5 -17t-90.5 -44v-363q33 -27 90 -43t110 -16
q111 0 171.5 60t60.5 181q0 120 -60.5 181t-171.5 61z" />
    <glyph glyph-name="c" unicode="c" horiz-adv-x="1343" 
d="M68 530q0 247 178 401t475 154q243 0 391.5 -121t177.5 -311h-418q-13 57 -50.5 88t-116.5 31t-128 -65.5t-49 -176.5q0 -115 57.5 -178t166.5 -63q189 0 307 125l221 -129q-88 -142 -231.5 -226t-331.5 -84q-299 0 -474 153t-175 402z" />
    <glyph glyph-name="d" unicode="d" horiz-adv-x="1560" 
d="M78 530q0 135 38.5 241t108 174.5t162.5 104t205 35.5q101 0 204.5 -31t176.5 -87v528h457v-1495h-369l-70 113q-71 -64 -183.5 -101t-215.5 -37q-112 0 -205 35.5t-162.5 103.5t-108 174.5t-38.5 241.5zM772 772q-111 0 -172 -61.5t-61 -180.5q0 -120 61 -180.5
t172 -60.5q53 0 110 16t91 43v363q-35 27 -92 44t-109 17z" />
    <glyph glyph-name="e" unicode="e" horiz-adv-x="1421" 
d="M1354 528q0 -50 -6 -96h-834q12 -74 80.5 -118t177.5 -44q93 0 165 23.5t150 77.5l201 -156q-230 -240 -545 -240q-309 0 -493 153.5t-184 401.5q0 245 178.5 400t466.5 155q286 0 464.5 -155t178.5 -402zM711 809q-87 0 -142 -45.5t-59 -126.5h399q-4 79 -58 125.5
t-140 46.5z" />
    <glyph glyph-name="f" unicode="f" horiz-adv-x="1015" 
d="M1001 1481v-285q-43 2 -118 2q-112 0 -155.5 -23.5t-43.5 -80.5v-33h293v-309h-293v-752h-459v752h-211v309h211v45q0 197 122.5 292t375.5 95h100q35 0 96 -5.5t82 -6.5z" />
    <glyph glyph-name="g" unicode="g" horiz-adv-x="1560" 
d="M76 539q0 260 143.5 403t372.5 143q97 0 213 -38t186 -101l68 115h371v-977q0 -255 -178 -399t-488 -144q-347 0 -582 219l168 160q149 -104 352 -104q127 0 198 52.5t71 149.5v93q-71 -55 -175 -86t-204 -31q-229 0 -372.5 142.5t-143.5 402.5zM770 305q52 0 110 17.5
t91 44.5v344q-33 27 -90.5 44t-110.5 17q-109 0 -170 -59.5t-61 -173.5q0 -115 61 -174.5t170 -59.5z" />
    <glyph glyph-name="h" unicode="h" horiz-adv-x="1548" 
d="M811 772q-61 0 -124.5 -22.5t-98.5 -53.5v-696h-459v1495h459v-549q76 61 190.5 100t229.5 39q193 0 305 -106t112 -311v-668h-458v643q0 62 -40.5 95.5t-115.5 33.5z" />
    <glyph glyph-name="i" unicode="i" horiz-adv-x="745" 
d="M143 0v1061h459v-1061h-459zM143 1198v295h459v-295h-459z" />
    <glyph glyph-name="j" unicode="j" horiz-adv-x="745" 
d="M143 1198v295h459v-295h-459zM102 -483l-211 178q139 100 195.5 175.5t56.5 174.5v1016h459v-985q0 -198 -134 -340t-366 -219z" />
    <glyph glyph-name="k" unicode="k" horiz-adv-x="1488" 
d="M1452 1061l-414 -389l463 -672h-502l-249 401l-162 -151v-250h-459v1495h459v-780l338 346h526z" />
    <glyph glyph-name="l" unicode="l" horiz-adv-x="743" 
d="M141 0v1495h459v-1495h-459z" />
    <glyph glyph-name="m" unicode="m" horiz-adv-x="2242" 
d="M498 1061l67 -135q72 69 195.5 113t224.5 44q209 0 307 -155q88 72 208 114.5t245 42.5q179 0 276 -105.5t97 -295.5v-684h-459v651q0 121 -133 121q-49 0 -97 -18.5t-75 -46.5v-707h-459v651q0 121 -135 121q-48 0 -95.5 -18t-76.5 -45v-709h-459v1061h369z" />
    <glyph glyph-name="n" unicode="n" horiz-adv-x="1548" 
d="M811 772q-59 0 -122 -23t-101 -53v-696h-459v1061h369l67 -135q76 68 201 113.5t242 45.5q192 0 304.5 -106t112.5 -311v-668h-458v643q0 63 -40.5 96t-115.5 33z" />
    <glyph glyph-name="o" unicode="o" horiz-adv-x="1449" 
d="M725 287q103 0 159 61t56 182q0 120 -56 181t-159 61q-104 0 -160.5 -61t-56.5 -181q0 -121 56 -182t161 -61zM725 1085q292 0 474.5 -153.5t182.5 -401.5q0 -165 -83 -291.5t-232 -195t-342 -68.5q-294 0 -476.5 152.5t-182.5 402.5q0 164 83 290.5t232.5 195.5
t343.5 69z" />
    <glyph glyph-name="p" unicode="p" horiz-adv-x="1560" 
d="M1483 530q0 -268 -142.5 -411.5t-373.5 -143.5q-100 0 -204 31t-175 86v-526h-459v1495h371l67 -115q71 63 184.5 101t215.5 38q112 0 206 -35.5t163.5 -104t108 -174.5t38.5 -241zM788 289q111 0 171.5 60t60.5 181q0 120 -60.5 181t-171.5 61q-52 0 -109.5 -17
t-90.5 -44v-363q33 -27 90 -43t110 -16z" />
    <glyph glyph-name="q" unicode="q" horiz-adv-x="1560" 
d="M80 530q0 135 38.5 241t108 174.5t162.5 104t205 35.5q101 0 214.5 -37.5t184.5 -101.5l70 115h369v-1495h-459v526q-71 -55 -175 -86t-204 -31q-112 0 -205 35.5t-162.5 103.5t-108 174.5t-38.5 241.5zM772 289q55 0 111.5 16t89.5 43v363q-33 27 -90 44t-111 17
q-109 0 -170 -61.5t-61 -180.5q0 -120 60.5 -180.5t170.5 -60.5z" />
    <glyph glyph-name="r" unicode="r" horiz-adv-x="1034" 
d="M1022 1083v-313q-4 0 -27 1t-41 1q-118 0 -215 -37.5t-151 -103.5v-631h-459v1061h369l67 -154q49 80 161 129t239 49q9 0 31.5 -1t25.5 -1z" />
    <glyph glyph-name="s" unicode="s" horiz-adv-x="1269" 
d="M113 760q0 149 140 237t390 88q468 0 553 -350h-367q-29 80 -143 80q-51 0 -81 -13t-30 -36q0 -24 48 -48t178 -61q213 -61 306 -138t93 -212q0 -144 -140 -238t-376 -94q-192 0 -337.5 67.5t-266.5 193.5l147 129q93 -63 179 -90t204 -27q127 0 127 47q0 25 -43.5 46
t-167.5 56q-214 61 -313.5 143.5t-99.5 219.5z" />
    <glyph glyph-name="t" unicode="t" horiz-adv-x="1032" 
d="M219 369v383h-205v270l205 39v246l459 65v-311h293v-309h-293v-320q0 -86 42.5 -115.5t166.5 -29.5h84v-246q-142 -64 -344 -64q-194 0 -301 98.5t-107 293.5z" />
    <glyph glyph-name="u" unicode="u" horiz-adv-x="1536" 
d="M768 -25q-309 0 -479 132t-170 374v580h459v-623q0 -71 52 -110t138 -39t138 39t52 110v623h459v-580q0 -242 -171 -374t-478 -132z" />
    <glyph glyph-name="v" unicode="v" horiz-adv-x="1425" 
d="M975 0h-524l-439 1061h475l224 -707l227 707h475z" />
    <glyph glyph-name="w" unicode="w" horiz-adv-x="2142" 
d="M870 1061h400l196 -662l199 662h465l-377 -1061h-504l-178 612l-180 -612h-502l-377 1061h465l197 -662z" />
    <glyph glyph-name="x" unicode="x" horiz-adv-x="1404" 
d="M887 1061h477l-317 -510l356 -551h-477l-226 356l-223 -356h-477l354 551l-315 510h477l184 -318z" />
    <glyph glyph-name="y" unicode="y" horiz-adv-x="1439" 
d="M483 -37l27 66l-498 1032h467l242 -563l242 563h464l-499 -1137q-90 -206 -237.5 -313t-389.5 -154l-143 203q136 60 210 132.5t115 170.5z" />
    <glyph glyph-name="z" unicode="z" horiz-adv-x="1140" 
d="M33 0v305l487 447h-459v309h1020v-307l-483 -445h508v-309h-1073z" />
    <glyph glyph-name="braceleft" unicode="{" horiz-adv-x="999" 
d="M115 502v260q95 0 155 55t60 154v223q0 66 17.5 118t46 87.5t72.5 61t88.5 40t104 22.5t108 10.5t110.5 2.5l55 -199l-107 -39q-118 -45 -118 -141v-196q0 -265 -248 -328q248 -66 248 -324v-200q0 -53 29.5 -85t90.5 -55l105 -39l-55 -200q-62 0 -111 2.5t-108 11
t-103.5 22.5t-88.5 39.5t-72.5 60t-46 85.5t-17.5 115v227q0 99 -60 154t-155 55z" />
    <glyph glyph-name="bar" unicode="|" horiz-adv-x="716" 
d="M215 -410v1985h287v-1985h-287z" />
    <glyph glyph-name="braceright" unicode="}" horiz-adv-x="999" 
d="M883 762v-260q-95 0 -155 -55t-60 -154v-223q0 -75 -22 -133t-64 -94t-90.5 -59.5t-116.5 -34.5t-125 -15t-131 -4l-53 200l104 39q61 23 91 55t30 85v194q0 133 60.5 214.5t187.5 115.5q-248 63 -248 328v196q0 96 -121 141l-104 39l53 199q63 0 113.5 -2.5t109.5 -11
t103.5 -23t88 -40.5t72 -60.5t45.5 -85.5t17 -115v-227q0 -99 60 -154t155 -55z" />
    <glyph glyph-name="asciitilde" unicode="~" horiz-adv-x="1431" 
d="M1016 877l358 -50q-26 -170 -133.5 -264t-265.5 -94q-70 0 -212.5 51t-203.5 51q-56 0 -93.5 -25t-49.5 -69l-359 49q26 171 133.5 264t266.5 93q71 0 210 -50.5t205 -50.5q115 0 144 95z" />
    <glyph glyph-name="uni00A0" unicode="&#xa0;" horiz-adv-x="737" 
 />
    <glyph glyph-name="exclamdown" unicode="&#xa1;" horiz-adv-x="798" 
d="M158 -41l57 659h369l55 -659v-332h-481v332zM180 748v313h438v-313h-438z" />
    <glyph glyph-name="cent" unicode="&#xa2;" horiz-adv-x="1343" 
d="M68 530q0 223 150.5 371t404.5 176v195h215v-197q189 -28 307.5 -144t144.5 -278h-418q-13 57 -50.5 88t-116.5 31t-128 -65.5t-49 -176.5q0 -115 57.5 -178t166.5 -63q189 0 307 125l221 -129q-73 -116 -186.5 -194.5t-255.5 -102.5v-199h-215v193q-256 26 -405.5 174.5
t-149.5 373.5z" />
    <glyph glyph-name="sterling" unicode="&#xa3;" horiz-adv-x="1484" 
d="M821 1458q162 0 287.5 -48.5t207.5 -154t99 -258.5h-424q-17 109 -139 109q-58 0 -93.5 -40.5t-35.5 -117.5v-137h422v-172h-422v-49q0 -74 -29 -138.5t-82 -101.5h828v-350h-1372v338q85 38 129.5 97.5t44.5 131.5v72h-174v172h174v168q0 234 150 356.5t429 122.5z" />
    <glyph glyph-name="currency" unicode="&#xa4;" horiz-adv-x="1763" 
d="M1618 1077l-223 -190q45 -80 45 -207q0 -129 -45 -209l223 -190l-238 -205l-225 190q-118 -45 -272 -45q-157 0 -275 45l-225 -190l-238 205l226 190q-49 88 -49 209q0 119 49 207l-226 190l238 205l225 -190q118 45 275 45q154 0 272 -45l225 190zM883 485q96 0 150 52
t54 143q0 90 -54 141t-150 51q-98 0 -153.5 -51.5t-55.5 -140.5q0 -91 55.5 -143t153.5 -52z" />
    <glyph glyph-name="yen" unicode="&#xa5;" horiz-adv-x="1648" 
d="M1499 686v-137h-434v-107h434v-137h-434v-305h-481v305h-437v137h437v107h-437v137h349l-486 748h525l288 -539l289 539h526l-489 -748h350z" />
    <glyph glyph-name="brokenbar" unicode="&#xa6;" horiz-adv-x="716" 
d="M215 721v702h287v-702h-287zM215 -221v700h287v-700h-287z" />
    <glyph glyph-name="section" unicode="&#xa7;" horiz-adv-x="1320" 
d="M141 580q0 189 205 264q-104 47 -155.5 117t-51.5 172q0 147 151 236t410 89q223 0 358.5 -96t164.5 -254h-363q-8 31 -50 56.5t-91 25.5q-52 0 -83.5 -16t-31.5 -39q0 -24 48 -47.5t175 -59.5q212 -61 303 -137t91 -211q0 -86 -62 -153t-170 -105q119 -46 175.5 -116.5
t56.5 -176.5q0 -147 -140.5 -240.5t-394.5 -93.5q-177 0 -334.5 76.5t-259.5 204.5l139 125q171 -135 404 -135q59 0 90 15t31 36q0 24 -45.5 47t-157.5 55q-211 59 -311.5 141t-100.5 220zM696 516q54 20 83.5 49.5t29.5 61.5q0 64 -145 116q-55 -20 -85 -49t-30 -61
q0 -65 147 -117z" />
    <glyph glyph-name="dieresis" unicode="&#xa8;" horiz-adv-x="862" 
d="M31 1182v274h284v-274h-284zM547 1182v274h287v-274h-287z" />
    <glyph glyph-name="copyright" unicode="&#xa9;" horiz-adv-x="1927" 
d="M1833 717q0 -151 -69 -288.5t-186 -237t-278 -158t-337 -58.5t-337 58.5t-277.5 158t-185.5 237t-69 288.5t69 288.5t185.5 236.5t277 157.5t337.5 58.5q236 0 436 -99t317 -269.5t117 -372.5zM1718 717q0 130 -58.5 247.5t-158 202.5t-240 135t-298.5 50
q-210 0 -384 -85t-273 -230.5t-99 -319.5t99 -319.5t273 -230.5t384 -85q158 0 298.5 50t240 135t158 202.5t58.5 247.5zM465 715q0 198 141.5 321t378.5 123q192 0 310 -97.5t141 -250.5h-326q-12 48 -42.5 73t-96.5 25q-64 0 -105 -52.5t-41 -141.5q0 -93 46 -144t137 -51
q151 0 245 101l174 -101q-72 -114 -185.5 -182t-262.5 -68q-238 0 -376 123.5t-138 321.5z" />
    <glyph glyph-name="ordfeminine" unicode="&#xaa;" horiz-adv-x="1097" 
d="M657 1085v64q0 51 -35 79.5t-98 28.5q-100 0 -125 -61h-276q74 254 432 254q210 0 314 -86.5t104 -241.5v-248q0 -40 59 -40h27v-168q-53 -11 -121 -11q-99 0 -163 21t-99 72q-60 -48 -139 -77.5t-156 -29.5q-131 0 -219 73.5t-88 188.5q0 113 85.5 173.5t221.5 60.5
q62 0 139 -14t137 -38zM657 862v72q-44 39 -161 39q-58 0 -97 -21t-39 -55q0 -36 38.5 -56t97.5 -20q114 0 161 41z" />
    <glyph glyph-name="guillemotleft" unicode="&#xab;" horiz-adv-x="1474" 
d="M86 557v164l141 82q195 112 387 180l105 -139l-328 -205l328 -207l-105 -139q-195 67 -387 180zM739 557v164l140 82q189 111 387 180l104 -139l-328 -205l328 -207l-104 -139q-208 73 -387 180z" />
    <glyph glyph-name="logicalnot" unicode="&#xac;" horiz-adv-x="1431" 
d="M96 666v266h1215v-621h-348v355h-867z" />
    <glyph glyph-name="uni00AD" unicode="&#xad;" horiz-adv-x="913" 
d="M803 537h-694v284h694v-284z" />
    <glyph glyph-name="registered" unicode="&#xae;" horiz-adv-x="1927" 
d="M1833 717q0 -151 -69 -288.5t-186 -237t-278 -158t-337 -58.5t-337 58.5t-277.5 158t-185.5 237t-69 288.5t69 288.5t185.5 236.5t277 157.5t337.5 58.5q236 0 436 -99t317 -269.5t117 -372.5zM1718 717q0 130 -58.5 247.5t-158 202.5t-240 135t-298.5 50
q-210 0 -384 -85t-273 -230.5t-99 -319.5t99 -319.5t273 -230.5t384 -85q158 0 298.5 50t240 135t158 202.5t58.5 247.5zM1212 616l269 -327h-338l-197 284h-115v-284h-264v854h432q187 0 293.5 -73t106.5 -208q0 -91 -49.5 -153.5t-137.5 -92.5zM1112 862q0 50 -37.5 72
t-109.5 22h-134v-186h134q147 0 147 92z" />
    <glyph glyph-name="macron" unicode="&#xaf;" horiz-adv-x="862" 
d="M59 1212v218h742v-218h-742z" />
    <glyph glyph-name="degree" unicode="&#xb0;" horiz-adv-x="905" 
d="M453 1458q139 0 235 -82.5t96 -201.5t-96 -202t-235 -83q-141 0 -237.5 83t-96.5 202t96.5 201.5t237.5 82.5zM453 1079q57 0 92 26.5t35 68.5q0 41 -35 67.5t-92 26.5q-58 0 -93.5 -26t-35.5 -68t35.5 -68.5t93.5 -26.5z" />
    <glyph glyph-name="plusminus" unicode="&#xb1;" horiz-adv-x="1431" 
d="M543 354v342h-434v267h434v342h346v-342h434v-267h-434v-342h-346zM1323 0h-1214v264h1214v-264z" />
    <glyph glyph-name="twosuperior" unicode="&#xb2;" 
d="M575 1122q0 38 -28 59t-82 21q-51 0 -84 -26t-37 -70h-266q10 168 121.5 256t294.5 88q186 0 294.5 -84t108.5 -215q0 -118 -75 -217t-236 -209h313v-240h-793v189q226 138 347.5 257t121.5 191z" />
    <glyph glyph-name="threesuperior" unicode="&#xb3;" 
d="M418 688q166 0 166 92q0 49 -54 76t-147 27h-82v190h80q89 0 133.5 24t44.5 66q0 29 -29.5 47.5t-78.5 18.5q-45 0 -77.5 -18.5t-39.5 -51.5h-250q20 138 120.5 214.5t264.5 76.5q190 0 299 -71.5t109 -192.5q0 -70 -40.5 -125.5t-113.5 -81.5q80 -28 128 -86t48 -141
q0 -125 -107.5 -204t-306.5 -79q-114 0 -220.5 50t-180.5 134l119 105q96 -70 215 -70z" />
    <glyph glyph-name="acute" unicode="&#xb4;" horiz-adv-x="862" 
d="M707 1354l-119 -64q-168 -91 -328 -116l-106 116l372 248z" />
    <glyph glyph-name="mu" unicode="&#xb5;" horiz-adv-x="1556" 
d="M743 287q60 0 124 23.5t100 54.5v696h458v-1061h-368l-68 133q-66 -60 -178 -98.5t-223 -46.5v-422h-459v1495h459v-645q0 -63 40.5 -96t114.5 -33z" />
    <glyph glyph-name="paragraph" unicode="&#xb6;" horiz-adv-x="1548" 
d="M647 545h-24q-160 0 -283 51.5t-194.5 153t-71.5 239.5t70 240t190.5 153.5t275.5 51.5h760v-1702h-289v1470h-137v-1470h-297v813z" />
    <glyph glyph-name="periodcentered" unicode="&#xb7;" horiz-adv-x="722" 
d="M190 512v332h340v-332h-340z" />
    <glyph glyph-name="cedilla" unicode="&#xb8;" horiz-adv-x="862" 
d="M254 -193l-25 27l99 166h270l-70 -111q75 -16 127 -64.5t52 -113.5q0 -87 -82.5 -142.5t-231.5 -55.5q-145 0 -272 96l102 104q37 -22 113 -22q46 0 74 12.5t28 32.5q0 29 -44.5 48.5t-139.5 22.5z" />
    <glyph glyph-name="onesuperior" unicode="&#xb9;" 
d="M760 485h-311v654l-197 -117l-143 174l372 240h279v-951z" />
    <glyph glyph-name="ordmasculine" unicode="&#xba;" horiz-adv-x="1097" 
d="M1034 1044q0 -177 -134 -290t-353 -113q-218 0 -353 113.5t-135 289.5q0 178 135 292t353 114q219 0 353 -113.5t134 -292.5zM696 1044q0 85 -39.5 130t-109.5 45q-69 0 -107.5 -45t-38.5 -130t38.5 -129.5t107.5 -44.5q70 0 109.5 44.5t39.5 129.5z" />
    <glyph glyph-name="guillemotright" unicode="&#xbb;" horiz-adv-x="1474" 
d="M1384 721v-164l-139 -84q-173 -105 -387 -180l-104 139l327 207l-327 205l104 139q208 -73 387 -180zM733 721v-164l-143 -84q-183 -107 -385 -180l-105 139l328 207l-328 205l105 139q190 -65 385 -180z" />
    <glyph glyph-name="onequarter" unicode="&#xbc;" horiz-adv-x="2627" 
d="M1679 1458l193 -94l-903 -1389l-193 93zM760 485h-311v654l-197 -117l-143 174l372 240h279v-951zM1655 166v244l430 540h364v-540h123v-244h-123v-166h-297v166h-497zM2152 700l-231 -290h231v290z" />
    <glyph glyph-name="onehalf" unicode="&#xbd;" horiz-adv-x="2627" 
d="M1679 1458l193 -94l-903 -1389l-193 93zM760 485h-311v654l-197 -117l-143 174l372 240h279v-951zM2189 637q0 38 -28 59t-82 21q-51 0 -84 -26t-37 -70h-266q10 168 121 256t294 88q186 0 295 -84t109 -215q0 -118 -75 -217t-236 -209h313v-240h-793v188
q225 138 347 257.5t122 191.5z" />
    <glyph glyph-name="threequarters" unicode="&#xbe;" horiz-adv-x="2627" 
d="M1679 1458l193 -94l-903 -1389l-193 93zM1655 166v244l430 540h364v-540h123v-244h-123v-166h-297v166h-497zM2152 700l-231 -290h231v290zM418 688q166 0 166 92q0 49 -54 76t-147 27h-82v190h80q89 0 133.5 24t44.5 66q0 29 -29.5 47.5t-78.5 18.5q-45 0 -77.5 -18.5
t-39.5 -51.5h-250q20 138 120.5 214.5t264.5 76.5q190 0 299 -71.5t109 -192.5q0 -70 -40.5 -125.5t-113.5 -81.5q80 -28 128 -86t48 -141q0 -125 -107.5 -204t-306.5 -79q-114 0 -220.5 50t-180.5 134l119 105q96 -70 215 -70z" />
    <glyph glyph-name="questiondown" unicode="&#xbf;" horiz-adv-x="1349" 
d="M707 -397q-266 0 -421 105t-155 288q0 129 71.5 225t225.5 180q71 39 98 76.5t27 93.5v47h293q72 -75 72 -182q0 -89 -42.5 -153t-136.5 -109q-166 -77 -166 -158q0 -40 40 -63t106 -23q155 0 158 125h403q-3 -208 -150.5 -330t-422.5 -122zM922 1061v-313h-437v313h437z
" />
    <glyph glyph-name="Agrave" unicode="&#xc0;" horiz-adv-x="1785" 
d="M1249 0l-78 238h-561l-75 -238h-515l553 1434h637l553 -1434h-514zM664 1681l-136 70l183 184l370 -247l-112 -125q-133 26 -305 118zM1067 571l-176 488l-174 -488h350z" />
    <glyph glyph-name="Aacute" unicode="&#xc1;" horiz-adv-x="1785" 
d="M1249 0l-78 238h-561l-75 -238h-515l553 1434h637l553 -1434h-514zM1067 571l-176 488l-174 -488h350zM1253 1751l-118 -63q-171 -93 -328 -117l-107 117l373 247z" />
    <glyph glyph-name="Acircumflex" unicode="&#xc2;" horiz-adv-x="1785" 
d="M1249 0l-78 238h-561l-75 -238h-515l553 1434h637l553 -1434h-514zM1067 571l-176 488l-174 -488h350zM797 1915h188l92 -76q118 -100 199 -219l-135 -88l-250 162l-250 -162l-135 88q86 122 201 219z" />
    <glyph glyph-name="Atilde" unicode="&#xc3;" horiz-adv-x="1785" 
d="M1249 0l-78 238h-561l-75 -238h-515l553 1434h637l553 -1434h-514zM1067 571l-176 488l-174 -488h350zM1063 1571q-61 0 -156 40t-133 40q-36 0 -58 -19t-22 -55l-221 20q10 139 76.5 212t171.5 73q59 0 153 -39t136 -39q77 0 80 74l221 -20q-10 -140 -76.5 -213.5
t-171.5 -73.5z" />
    <glyph glyph-name="Adieresis" unicode="&#xc4;" horiz-adv-x="1785" 
d="M1249 0l-78 238h-561l-75 -238h-515l553 1434h637l553 -1434h-514zM1067 571l-176 488l-174 -488h350zM492 1579v274h284v-274h-284zM1008 1579v274h286v-274h-286z" />
    <glyph glyph-name="Aring" unicode="&#xc5;" horiz-adv-x="1785" 
d="M1249 0l-78 238h-561l-75 -238h-515l553 1434h637l553 -1434h-514zM1067 571l-176 488l-174 -488h350zM1169 1729q0 -100 -80 -168t-198 -68t-198.5 68t-80.5 168t80.5 168.5t198.5 68.5t198 -68.5t80 -168.5zM987 1729q0 32 -26 51.5t-70 19.5t-70 -19.5t-26 -51.5
q0 -31 26 -50.5t70 -19.5t70 19.5t26 50.5z" />
    <glyph glyph-name="AE" unicode="&#xc6;" horiz-adv-x="2293" 
d="M1139 0v221h-486l-127 -221h-516l877 1434h1300v-336h-563v-195h477v-336h-477v-233h584v-334h-1069zM1139 553v487l-295 -487h295z" />
    <glyph glyph-name="Ccedilla" unicode="&#xc7;" horiz-adv-x="1708" 
d="M1380 520l236 -139q-188 -304 -492 -377l-71 -115q78 -18 126 -69.5t48 -106.5q0 -87 -83 -143.5t-231 -56.5q-162 0 -270 102l100 102q43 -26 113 -26q47 0 74.5 12t27.5 35q0 27 -45 46.5t-141 22.5q-3 4 -6.5 8.5t-8 9.5t-7.5 9l88 148q-354 25 -558 223t-204 512
q0 166 56 302.5t161 233.5t261.5 150t350.5 53q317 0 515 -161t233 -425h-449q-43 234 -299 234q-163 0 -253.5 -102t-90.5 -285q0 -182 102.5 -286.5t272.5 -104.5q151 0 256 50t188 144z" />
    <glyph glyph-name="Egrave" unicode="&#xc8;" horiz-adv-x="1427" 
d="M152 0v1434h1171v-336h-688v-195h602v-336h-602v-231h711v-336h-1194zM545 1681l-135 70l182 184l371 -247l-113 -125q-133 26 -305 118z" />
    <glyph glyph-name="Eacute" unicode="&#xc9;" horiz-adv-x="1427" 
d="M152 0v1434h1171v-336h-688v-195h602v-336h-602v-231h711v-336h-1194zM1034 1751l-119 -63q-171 -93 -327 -117l-107 117l373 247z" />
    <glyph glyph-name="Ecircumflex" unicode="&#xca;" horiz-adv-x="1427" 
d="M152 0v1434h1171v-336h-688v-195h602v-336h-602v-231h711v-336h-1194zM643 1915h188l93 -76q115 -98 198 -219l-135 -88l-250 162l-250 -162l-135 88q86 122 201 219z" />
    <glyph glyph-name="Edieresis" unicode="&#xcb;" horiz-adv-x="1427" 
d="M152 0v1434h1171v-336h-688v-195h602v-336h-602v-231h711v-336h-1194zM338 1579v274h285v-274h-285zM854 1579v274h287v-274h-287z" />
    <glyph glyph-name="Igrave" unicode="&#xcc;" horiz-adv-x="804" 
d="M162 1434h481v-1434h-481v1434zM164 1681l-135 70l182 184l371 -247l-113 -125q-133 26 -305 118z" />
    <glyph glyph-name="Iacute" unicode="&#xcd;" horiz-adv-x="804" 
d="M162 1434h481v-1434h-481v1434zM772 1751l-119 -63q-171 -93 -327 -117l-107 117l373 247z" />
    <glyph glyph-name="Icircumflex" unicode="&#xce;" horiz-adv-x="804" 
d="M162 1434h481v-1434h-481v1434zM307 1915h189l92 -76q115 -98 198 -219l-135 -88l-250 162l-249 -162l-136 88q86 122 201 219z" />
    <glyph glyph-name="Idieresis" unicode="&#xcf;" horiz-adv-x="804" 
d="M162 1434h481v-1434h-481v1434zM2 1579v274h285v-274h-285zM518 1579v274h287v-274h-287z" />
    <glyph glyph-name="Eth" unicode="&#xd0;" horiz-adv-x="1724" 
d="M1649 717q0 -339 -232.5 -528t-642.5 -189h-622v627h-172v178h172v629h622q410 0 642.5 -190t232.5 -527zM903 805v-178h-270v-279h145q179 0 281 90t102 279q0 187 -102 276.5t-281 89.5h-145v-278h270z" />
    <glyph glyph-name="Ntilde" unicode="&#xd1;" horiz-adv-x="1769" 
d="M152 0v1434h436l561 -744v744h469v-1434h-438l-562 743v-743h-466zM1055 1571q-61 0 -156 40t-133 40q-36 0 -58 -19t-22 -55l-221 20q10 139 76.5 212t171.5 73q59 0 152.5 -39t135.5 -39q77 0 80 74l222 -20q-10 -140 -76.5 -213.5t-171.5 -73.5z" />
    <glyph glyph-name="Ograve" unicode="&#xd2;" horiz-adv-x="1806" 
d="M76 717q0 159 58 295.5t163 235t260.5 154.5t343.5 56t344.5 -56t262 -154.5t163.5 -235t58 -295.5q0 -160 -58 -296.5t-163.5 -235t-261.5 -154.5t-345 -56q-188 0 -343.5 56t-260.5 154.5t-163 235t-58 296.5zM561 717q0 -181 91.5 -285t248.5 -104q159 0 250.5 104
t91.5 285q0 180 -92 283.5t-250 103.5q-157 0 -248.5 -103.5t-91.5 -283.5zM686 1681l-135 70l182 184l371 -247l-113 -125q-133 26 -305 118z" />
    <glyph glyph-name="Oacute" unicode="&#xd3;" horiz-adv-x="1806" 
d="M76 717q0 159 58 295.5t163 235t260.5 154.5t343.5 56t344.5 -56t262 -154.5t163.5 -235t58 -295.5q0 -160 -58 -296.5t-163.5 -235t-261.5 -154.5t-345 -56q-188 0 -343.5 56t-260.5 154.5t-163 235t-58 296.5zM561 717q0 -181 91.5 -285t248.5 -104q159 0 250.5 104
t91.5 285q0 180 -92 283.5t-250 103.5q-157 0 -248.5 -103.5t-91.5 -283.5zM1251 1751l-118 -63q-171 -93 -328 -117l-107 117l373 247z" />
    <glyph glyph-name="Ocircumflex" unicode="&#xd4;" horiz-adv-x="1806" 
d="M76 717q0 159 58 295.5t163 235t260.5 154.5t343.5 56t344.5 -56t262 -154.5t163.5 -235t58 -295.5q0 -160 -58 -296.5t-163.5 -235t-261.5 -154.5t-345 -56q-188 0 -343.5 56t-260.5 154.5t-163 235t-58 296.5zM561 717q0 -181 91.5 -285t248.5 -104q159 0 250.5 104
t91.5 285q0 180 -92 283.5t-250 103.5q-157 0 -248.5 -103.5t-91.5 -283.5zM807 1915h188l92 -76q118 -100 199 -219l-135 -88l-250 162l-250 -162l-135 88q86 122 201 219z" />
    <glyph glyph-name="Otilde" unicode="&#xd5;" horiz-adv-x="1806" 
d="M76 717q0 159 58 295.5t163 235t260.5 154.5t343.5 56t344.5 -56t262 -154.5t163.5 -235t58 -295.5q0 -160 -58 -296.5t-163.5 -235t-261.5 -154.5t-345 -56q-188 0 -343.5 56t-260.5 154.5t-163 235t-58 296.5zM561 717q0 -181 91.5 -285t248.5 -104q159 0 250.5 104
t91.5 285q0 180 -92 283.5t-250 103.5q-157 0 -248.5 -103.5t-91.5 -283.5zM1075 1571q-61 0 -156 40t-133 40q-36 0 -57.5 -19t-21.5 -55l-222 20q10 139 76.5 212t171.5 73q59 0 153 -39t136 -39q77 0 80 74l221 -20q-10 -140 -76.5 -213.5t-171.5 -73.5z" />
    <glyph glyph-name="Odieresis" unicode="&#xd6;" horiz-adv-x="1806" 
d="M76 717q0 159 58 295.5t163 235t260.5 154.5t343.5 56t344.5 -56t262 -154.5t163.5 -235t58 -295.5q0 -160 -58 -296.5t-163.5 -235t-261.5 -154.5t-345 -56q-188 0 -343.5 56t-260.5 154.5t-163 235t-58 296.5zM561 717q0 -181 91.5 -285t248.5 -104q159 0 250.5 104
t91.5 285q0 180 -92 283.5t-250 103.5q-157 0 -248.5 -103.5t-91.5 -283.5zM502 1579v274h284v-274h-284zM1018 1579v274h287v-274h-287z" />
    <glyph glyph-name="multiply" unicode="&#xd7;" horiz-adv-x="1431" 
d="M377 1165l338 -274l338 274l243 -204l-338 -281l338 -283l-243 -204l-338 274l-338 -274l-242 204l336 283l-336 281z" />
    <glyph glyph-name="Oslash" unicode="&#xd8;" horiz-adv-x="1806" 
d="M76 717q0 159 58 295.5t163 235t260.5 154.5t343.5 56q285 0 490 -125l174 185l100 -91l-166 -174q110 -101 170 -239t60 -297q0 -160 -58 -296.5t-163.5 -235t-261.5 -154.5t-345 -56q-289 0 -487 123l-174 -182l-101 88l166 174q-111 100 -170 238.5t-59 300.5z
M561 717q0 -123 47 -219l502 538q-84 68 -209 68q-157 0 -248.5 -103.5t-91.5 -283.5zM901 328q158 0 249 103.5t91 283.5q0 118 -47 217l-502 -539q83 -65 209 -65z" />
    <glyph glyph-name="Ugrave" unicode="&#xd9;" horiz-adv-x="1822" 
d="M911 -25q-348 0 -553.5 163t-205.5 456v840h481v-861q0 -123 72 -183t206 -60t206.5 60t72.5 183v861h481v-840q0 -293 -206 -456t-554 -163zM670 1681l-135 70l182 184l370 -247l-112 -125q-133 26 -305 118z" />
    <glyph glyph-name="Uacute" unicode="&#xda;" horiz-adv-x="1822" 
d="M911 -25q-348 0 -553.5 163t-205.5 456v840h481v-861q0 -123 72 -183t206 -60t206.5 60t72.5 183v861h481v-840q0 -293 -206 -456t-554 -163zM1286 1751l-119 -63q-171 -93 -327 -117l-107 117l373 247z" />
    <glyph glyph-name="Ucircumflex" unicode="&#xdb;" horiz-adv-x="1822" 
d="M911 -25q-348 0 -553.5 163t-205.5 456v840h481v-861q0 -123 72 -183t206 -60t206.5 60t72.5 183v861h481v-840q0 -293 -206 -456t-554 -163zM815 1915h189l92 -76q115 -98 198 -219l-135 -88l-250 162l-250 -162l-135 88q86 122 201 219z" />
    <glyph glyph-name="Udieresis" unicode="&#xdc;" horiz-adv-x="1822" 
d="M911 -25q-348 0 -553.5 163t-205.5 456v840h481v-861q0 -123 72 -183t206 -60t206.5 60t72.5 183v861h481v-840q0 -293 -206 -456t-554 -163zM510 1579v274h285v-274h-285zM1026 1579v274h287v-274h-287z" />
    <glyph glyph-name="Yacute" unicode="&#xdd;" horiz-adv-x="1648" 
d="M535 1434l288 -539l289 539h526l-573 -875v-559h-481v559q-173 261 -574 875h525zM1190 1751l-119 -63q-171 -93 -328 -117l-106 117l373 247z" />
    <glyph glyph-name="Thorn" unicode="&#xde;" horiz-adv-x="1556" 
d="M152 1434h481v-217h162q328 0 516 -123t188 -367q0 -165 -89 -277.5t-244.5 -164.5t-370.5 -52h-162v-233h-481v1434zM1014 727q0 84 -60 121t-176 37h-145v-318h145q115 0 175.5 37.5t60.5 122.5z" />
    <glyph glyph-name="germandbls" unicode="&#xdf;" horiz-adv-x="1550" 
d="M672 115l84 213q46 -23 121 -23q68 0 110.5 30t42.5 79q0 75 -72.5 118t-203.5 43v314q76 0 120 32.5t44 86.5t-43 85t-117 31q-84 0 -128 -37.5t-44 -107.5v-979h-445v958q0 242 162 371t455 129q275 0 442.5 -114.5t167.5 -288.5q0 -116 -66.5 -199t-189.5 -123
q187 -35 290 -132t103 -257q0 -170 -119.5 -269.5t-328.5 -99.5q-98 0 -206.5 38.5t-178.5 101.5z" />
    <glyph glyph-name="agrave" unicode="&#xe0;" horiz-adv-x="1411" 
d="M848 573v95q0 70 -45 109.5t-127 39.5q-57 0 -101 -22.5t-63 -61.5h-383q98 352 588 352q290 0 431.5 -120.5t141.5 -335.5v-346q0 -60 72 -60h43v-233q-69 -15 -172 -15q-137 0 -222 28t-132 99q-164 -127 -396 -127q-185 0 -305.5 92.5t-120.5 251.5q0 157 119 241.5
t307 84.5q86 0 185 -19t180 -53zM502 1325l-135 70l182 184l371 -248l-113 -125q-130 25 -305 119zM848 274v97q-58 55 -209 55q-77 0 -128.5 -28.5t-51.5 -78.5t51.5 -78t128.5 -28q65 0 123 16t86 45z" />
    <glyph glyph-name="aacute" unicode="&#xe1;" horiz-adv-x="1411" 
d="M848 573v95q0 70 -45 109.5t-127 39.5q-57 0 -101 -22.5t-63 -61.5h-383q98 352 588 352q290 0 431.5 -120.5t141.5 -335.5v-346q0 -60 72 -60h43v-233q-69 -15 -172 -15q-137 0 -222 28t-132 99q-164 -127 -396 -127q-185 0 -305.5 92.5t-120.5 251.5q0 157 119 241.5
t307 84.5q86 0 185 -19t180 -53zM848 274v97q-58 55 -209 55q-77 0 -128.5 -28.5t-51.5 -78.5t51.5 -78t128.5 -28q65 0 123 16t86 45zM1049 1395l-119 -64q-171 -93 -328 -117l-106 117l372 248z" />
    <glyph glyph-name="acircumflex" unicode="&#xe2;" horiz-adv-x="1411" 
d="M848 573v95q0 70 -45 109.5t-127 39.5q-57 0 -101 -22.5t-63 -61.5h-383q98 352 588 352q290 0 431.5 -120.5t141.5 -335.5v-346q0 -60 72 -60h43v-233q-69 -15 -172 -15q-137 0 -222 28t-132 99q-164 -127 -396 -127q-185 0 -305.5 92.5t-120.5 251.5q0 157 119 241.5
t307 84.5q86 0 185 -19t180 -53zM848 274v97q-58 55 -209 55q-77 0 -128.5 -28.5t-51.5 -78.5t51.5 -78t128.5 -28q65 0 123 16t86 45zM616 1559h189l92 -76q118 -100 199 -219l-135 -88l-250 161l-250 -161l-135 88q88 124 200 219z" />
    <glyph glyph-name="atilde" unicode="&#xe3;" horiz-adv-x="1411" 
d="M848 573v95q0 70 -45 109.5t-127 39.5q-57 0 -101 -22.5t-63 -61.5h-383q98 352 588 352q290 0 431.5 -120.5t141.5 -335.5v-346q0 -60 72 -60h43v-233q-69 -15 -172 -15q-137 0 -222 28t-132 99q-164 -127 -396 -127q-185 0 -305.5 92.5t-120.5 251.5q0 157 119 241.5
t307 84.5q86 0 185 -19t180 -53zM848 274v97q-58 55 -209 55q-77 0 -128.5 -28.5t-51.5 -78.5t51.5 -78t128.5 -28q65 0 123 16t86 45zM883 1214q-61 0 -156 40t-133 40q-37 0 -58.5 -18.5t-21.5 -54.5l-221 20q10 139 76.5 212t171.5 73q59 0 152.5 -39t135.5 -39
q77 0 80 74l221 -21q-10 -140 -76 -213.5t-171 -73.5z" />
    <glyph glyph-name="adieresis" unicode="&#xe4;" horiz-adv-x="1411" 
d="M848 573v95q0 70 -45 109.5t-127 39.5q-57 0 -101 -22.5t-63 -61.5h-383q98 352 588 352q290 0 431.5 -120.5t141.5 -335.5v-346q0 -60 72 -60h43v-233q-69 -15 -172 -15q-137 0 -222 28t-132 99q-164 -127 -396 -127q-185 0 -305.5 92.5t-120.5 251.5q0 157 119 241.5
t307 84.5q86 0 185 -19t180 -53zM848 274v97q-58 55 -209 55q-77 0 -128.5 -28.5t-51.5 -78.5t51.5 -78t128.5 -28q65 0 123 16t86 45zM315 1223v274h285v-274h-285zM831 1223v274h287v-274h-287z" />
    <glyph glyph-name="aring" unicode="&#xe5;" horiz-adv-x="1411" 
d="M848 573v95q0 70 -45 109.5t-127 39.5q-57 0 -101 -22.5t-63 -61.5h-383q98 352 588 352q290 0 431.5 -120.5t141.5 -335.5v-346q0 -60 72 -60h43v-233q-69 -15 -172 -15q-137 0 -222 28t-132 99q-164 -127 -396 -127q-185 0 -305.5 92.5t-120.5 251.5q0 157 119 241.5
t307 84.5q86 0 185 -19t180 -53zM848 274v97q-58 55 -209 55q-77 0 -128.5 -28.5t-51.5 -78.5t51.5 -78t128.5 -28q65 0 123 16t86 45zM991 1372q0 -100 -80 -167.5t-198 -67.5t-198.5 67.5t-80.5 167.5t80.5 169t198.5 69t198 -69t80 -169zM809 1372q0 32 -26 52t-70 20
t-70.5 -20t-26.5 -52q0 -31 26.5 -50t70.5 -19t70 19t26 50z" />
    <glyph glyph-name="ae" unicode="&#xe6;" horiz-adv-x="2201" 
d="M2134 528q0 -55 -8 -96h-834q12 -75 80.5 -118.5t179.5 -43.5q91 0 162.5 23t153.5 76l200 -154q-230 -240 -544 -240q-149 0 -274.5 38t-209.5 108q-96 -76 -225.5 -111t-310.5 -35q-123 0 -223 39.5t-162 119t-62 185.5q0 105 57 179.5t151.5 109.5t217.5 35
q197 0 365 -70v93q0 71 -44.5 111t-127.5 40q-124 0 -164 -84h-385q101 352 592 352q113 0 216 -34t177 -95q83 60 182.5 94.5t194.5 34.5q289 0 467 -155t178 -402zM899 295q-22 46 -31 76q-88 55 -227 55q-83 0 -132.5 -29t-49.5 -78q0 -48 48.5 -77t129.5 -29
q171 0 262 82zM1489 809q-86 0 -140.5 -45.5t-58.5 -126.5h398q-3 79 -57.5 125.5t-141.5 46.5z" />
    <glyph glyph-name="ccedilla" unicode="&#xe7;" horiz-adv-x="1343" 
d="M68 530q0 247 178 401t475 154q243 0 391.5 -121t177.5 -311h-418q-13 57 -50.5 88t-116.5 31t-128 -65.5t-49 -176.5q0 -115 57.5 -178t166.5 -63q192 0 307 125l223 -129q-65 -104 -164 -178t-221 -107l-66 -111q75 -18 126 -66t51 -112q0 -87 -82 -142.5t-232 -55.5
q-156 0 -272 98l102 102q34 -24 115 -24q46 0 74 12t28 35q0 28 -45.5 48t-140.5 21l-23 27l86 150q-252 28 -401 176t-149 372z" />
    <glyph glyph-name="egrave" unicode="&#xe8;" horiz-adv-x="1421" 
d="M1354 528q0 -50 -6 -96h-834q12 -74 80.5 -118t177.5 -44q93 0 165 23.5t150 77.5l201 -156q-230 -240 -545 -240q-309 0 -493 153.5t-184 401.5q0 245 178.5 400t466.5 155q286 0 464.5 -155t178.5 -402zM514 1325l-135 70l182 184l371 -248l-113 -125q-130 25 -305 119
zM711 809q-87 0 -142 -45.5t-59 -126.5h399q-4 79 -58 125.5t-140 46.5z" />
    <glyph glyph-name="eacute" unicode="&#xe9;" horiz-adv-x="1421" 
d="M1354 528q0 -50 -6 -96h-834q12 -74 80.5 -118t177.5 -44q93 0 165 23.5t150 77.5l201 -156q-230 -240 -545 -240q-309 0 -493 153.5t-184 401.5q0 245 178.5 400t466.5 155q286 0 464.5 -155t178.5 -402zM711 809q-87 0 -142 -45.5t-59 -126.5h399q-4 79 -58 125.5
t-140 46.5zM1057 1395l-119 -64q-171 -93 -328 -117l-106 117l373 248z" />
    <glyph glyph-name="ecircumflex" unicode="&#xea;" horiz-adv-x="1421" 
d="M1354 528q0 -50 -6 -96h-834q12 -74 80.5 -118t177.5 -44q93 0 165 23.5t150 77.5l201 -156q-230 -240 -545 -240q-309 0 -493 153.5t-184 401.5q0 245 178.5 400t466.5 155q286 0 464.5 -155t178.5 -402zM711 809q-87 0 -142 -45.5t-59 -126.5h399q-4 79 -58 125.5
t-140 46.5zM614 1559h189l92 -76q118 -100 199 -219l-136 -88l-249 161l-250 -161l-135 88q88 124 200 219z" />
    <glyph glyph-name="edieresis" unicode="&#xeb;" horiz-adv-x="1421" 
d="M1354 528q0 -50 -6 -96h-834q12 -74 80.5 -118t177.5 -44q93 0 165 23.5t150 77.5l201 -156q-230 -240 -545 -240q-309 0 -493 153.5t-184 401.5q0 245 178.5 400t466.5 155q286 0 464.5 -155t178.5 -402zM711 809q-87 0 -142 -45.5t-59 -126.5h399q-4 79 -58 125.5
t-140 46.5zM311 1223v274h285v-274h-285zM827 1223v274h287v-274h-287z" />
    <glyph glyph-name="igrave" unicode="&#xec;" horiz-adv-x="745" 
d="M143 0v1061h459v-1061h-459zM137 1325l-135 70l182 184l371 -248l-113 -125q-130 25 -305 119z" />
    <glyph glyph-name="iacute" unicode="&#xed;" horiz-adv-x="745" 
d="M743 1395l-118 -64q-171 -93 -328 -117l-107 117l373 248zM143 0v1061h459v-1061h-459z" />
    <glyph glyph-name="icircumflex" unicode="&#xee;" horiz-adv-x="745" 
d="M143 0v1061h459v-1061h-459zM279 1559h188l92 -76q118 -100 199 -219l-135 -88l-250 161l-250 -161l-135 88q88 124 200 219z" />
    <glyph glyph-name="idieresis" unicode="&#xef;" horiz-adv-x="745" 
d="M-27 1223v274h285v-274h-285zM489 1223v274h287v-274h-287zM143 0v1061h459v-1061h-459z" />
    <glyph glyph-name="eth" unicode="&#xf0;" horiz-adv-x="1433" 
d="M1245 1311l-145 -54q256 -207 256 -614q0 -310 -172 -489t-484 -179q-288 0 -456 142t-168 381q0 121 38 216t106 155t157.5 91t195.5 31q83 0 178.5 -26.5t153.5 -69.5q-9 61 -54 123t-103 100l-236 -90l-70 127l146 53q-86 29 -217 39l-11 248q364 -19 601 -139l217 82
zM717 287q107 0 158.5 80t54.5 249q-91 62 -209 62q-96 0 -151.5 -47t-55.5 -139q0 -94 55.5 -149.5t147.5 -55.5z" />
    <glyph glyph-name="ntilde" unicode="&#xf1;" horiz-adv-x="1548" 
d="M811 772q-59 0 -122 -23t-101 -53v-696h-459v1061h369l67 -135q76 68 201 113.5t242 45.5q192 0 304.5 -106t112.5 -311v-668h-458v643q0 63 -40.5 96t-115.5 33zM944 1214q-61 0 -156 40t-133 40q-37 0 -58.5 -18.5t-21.5 -54.5l-221 20q10 139 76.5 212t171.5 73
q59 0 153 -39t136 -39q77 0 80 74l221 -21q-10 -140 -76.5 -213.5t-171.5 -73.5z" />
    <glyph glyph-name="ograve" unicode="&#xf2;" horiz-adv-x="1449" 
d="M725 1085q292 0 474.5 -153.5t182.5 -401.5q0 -165 -83 -291.5t-232 -195t-342 -68.5q-294 0 -476.5 152.5t-182.5 402.5q0 164 83 290.5t232.5 195.5t343.5 69zM725 287q103 0 159 61t56 182q0 120 -56 181t-159 61q-104 0 -160.5 -61t-56.5 -181q0 -121 56 -182
t161 -61zM514 1325l-135 70l182 184l371 -248l-113 -125q-130 25 -305 119z" />
    <glyph glyph-name="oacute" unicode="&#xf3;" horiz-adv-x="1449" 
d="M725 287q103 0 159 61t56 182q0 120 -56 181t-159 61q-104 0 -160.5 -61t-56.5 -181q0 -121 56 -182t161 -61zM725 1085q292 0 474.5 -153.5t182.5 -401.5q0 -165 -83 -291.5t-232 -195t-342 -68.5q-294 0 -476.5 152.5t-182.5 402.5q0 164 83 290.5t232.5 195.5
t343.5 69zM1067 1395l-119 -64q-171 -93 -327 -117l-107 117l373 248z" />
    <glyph glyph-name="ocircumflex" unicode="&#xf4;" horiz-adv-x="1449" 
d="M725 287q103 0 159 61t56 182q0 120 -56 181t-159 61q-104 0 -160.5 -61t-56.5 -181q0 -121 56 -182t161 -61zM725 1085q292 0 474.5 -153.5t182.5 -401.5q0 -165 -83 -291.5t-232 -195t-342 -68.5q-294 0 -476.5 152.5t-182.5 402.5q0 164 83 290.5t232.5 195.5
t343.5 69zM631 1559h188l92 -76q118 -100 199 -219l-135 -88l-250 161l-250 -161l-135 88q86 122 201 219z" />
    <glyph glyph-name="otilde" unicode="&#xf5;" horiz-adv-x="1449" 
d="M725 287q103 0 159 61t56 182q0 120 -56 181t-159 61q-104 0 -160.5 -61t-56.5 -181q0 -121 56 -182t161 -61zM725 1085q292 0 474.5 -153.5t182.5 -401.5q0 -165 -83 -291.5t-232 -195t-342 -68.5q-294 0 -476.5 152.5t-182.5 402.5q0 164 83 290.5t232.5 195.5
t343.5 69zM897 1214q-61 0 -156 40t-133 40q-37 0 -58.5 -18.5t-21.5 -54.5l-221 20q10 139 76.5 212t171.5 73q59 0 153 -39t136 -39q77 0 80 74l221 -21q-10 -140 -76.5 -213.5t-171.5 -73.5z" />
    <glyph glyph-name="odieresis" unicode="&#xf6;" horiz-adv-x="1449" 
d="M725 287q103 0 159 61t56 182q0 120 -56 181t-159 61q-104 0 -160.5 -61t-56.5 -181q0 -121 56 -182t161 -61zM725 1085q292 0 474.5 -153.5t182.5 -401.5q0 -165 -83 -291.5t-232 -195t-342 -68.5q-294 0 -476.5 152.5t-182.5 402.5q0 164 83 290.5t232.5 195.5
t343.5 69zM326 1223v274h284v-274h-284zM842 1223v274h286v-274h-286z" />
    <glyph glyph-name="divide" unicode="&#xf7;" horiz-adv-x="1431" 
d="M109 811h1214v-266h-1214v266zM553 965v286h324v-286h-324zM553 102v287h324v-287h-324z" />
    <glyph glyph-name="oslash" unicode="&#xf8;" horiz-adv-x="1449" 
d="M725 1085q204 0 362 -79l136 141l100 -90l-121 -127q180 -153 180 -400q0 -165 -83 -291.5t-232 -195t-342 -68.5q-209 0 -365 78l-135 -139l-98 88l121 125q-182 158 -182 403q0 164 83 290.5t232.5 195.5t343.5 69zM508 530q0 -62 18 -112l312 327q-56 27 -113 27
q-104 0 -160.5 -61t-56.5 -181zM725 287q104 0 158.5 61.5t54.5 183.5q0 51 -18 107l-310 -328q50 -24 115 -24z" />
    <glyph glyph-name="ugrave" unicode="&#xf9;" horiz-adv-x="1536" 
d="M768 -25q-309 0 -479 132t-170 374v580h459v-623q0 -71 52 -110t138 -39t138 39t52 110v623h459v-580q0 -242 -171 -374t-478 -132zM559 1325l-135 70l182 184l371 -248l-113 -125q-130 25 -305 119z" />
    <glyph glyph-name="uacute" unicode="&#xfa;" horiz-adv-x="1536" 
d="M768 -25q-309 0 -479 132t-170 374v580h459v-623q0 -71 52 -110t138 -39t138 39t52 110v623h459v-580q0 -242 -171 -374t-478 -132zM1108 1395l-119 -64q-171 -93 -327 -117l-107 117l373 248z" />
    <glyph glyph-name="ucircumflex" unicode="&#xfb;" horiz-adv-x="1536" 
d="M768 -25q-309 0 -479 132t-170 374v580h459v-623q0 -71 52 -110t138 -39t138 39t52 110v623h459v-580q0 -242 -171 -374t-478 -132zM672 1559h188l92 -76q118 -100 199 -219l-135 -88l-250 161l-250 -161l-135 88q86 122 201 219z" />
    <glyph glyph-name="udieresis" unicode="&#xfc;" horiz-adv-x="1536" 
d="M768 -25q-309 0 -479 132t-170 374v580h459v-623q0 -71 52 -110t138 -39t138 39t52 110v623h459v-580q0 -242 -171 -374t-478 -132zM367 1223v274h284v-274h-284zM883 1223v274h286v-274h-286z" />
    <glyph glyph-name="yacute" unicode="&#xfd;" horiz-adv-x="1439" 
d="M483 -37l27 66l-498 1032h467l242 -563l242 563h464l-499 -1137q-90 -206 -237.5 -313t-389.5 -154l-143 203q136 60 210 132.5t115 170.5zM1067 1395l-119 -64q-171 -93 -327 -117l-107 117l373 248z" />
    <glyph glyph-name="thorn" unicode="&#xfe;" horiz-adv-x="1560" 
d="M1483 530q0 -135 -39 -241.5t-108.5 -174.5t-163 -103.5t-205.5 -35.5q-100 0 -204 31t-175 86v-526h-459v1929h459v-528q71 55 175 86.5t204 31.5q112 0 205.5 -35.5t163 -103.5t108.5 -174.5t39 -241.5zM786 287q112 0 173 61t61 182q0 120 -61 181t-173 61
q-51 0 -108 -17t-90 -44v-363q33 -27 90 -44t108 -17z" />
    <glyph glyph-name="ydieresis" unicode="&#xff;" horiz-adv-x="1439" 
d="M483 -37l27 66l-498 1032h467l242 -563l242 563h464l-499 -1137q-90 -206 -237.5 -313t-389.5 -154l-143 203q136 60 210 132.5t115 170.5zM322 1223v274h284v-274h-284zM838 1223v274h286v-274h-286z" />
    <glyph glyph-name="Amacron" unicode="&#x100;" horiz-adv-x="1785" 
d="M1249 0l-78 238h-561l-75 -238h-515l553 1434h637l553 -1434h-514zM1067 571l-176 488l-174 -488h350zM520 1610v217h742v-217h-742z" />
    <glyph glyph-name="amacron" unicode="&#x101;" horiz-adv-x="1411" 
d="M848 573v95q0 70 -45 109.5t-127 39.5q-57 0 -101 -22.5t-63 -61.5h-383q98 352 588 352q290 0 431.5 -120.5t141.5 -335.5v-346q0 -60 72 -60h43v-233q-69 -15 -172 -15q-137 0 -222 28t-132 99q-164 -127 -396 -127q-185 0 -305.5 92.5t-120.5 251.5q0 157 119 241.5
t307 84.5q86 0 185 -19t180 -53zM848 274v97q-58 55 -209 55q-77 0 -128.5 -28.5t-51.5 -78.5t51.5 -78t128.5 -28q65 0 123 16t86 45zM340 1253v217h741v-217h-741z" />
    <glyph glyph-name="Abreve" unicode="&#x102;" horiz-adv-x="1785" 
d="M1249 0l-78 238h-561l-75 -238h-515l553 1434h637l553 -1434h-514zM1067 571l-176 488l-174 -488h350zM891 1554q-165 0 -272.5 89t-124.5 237h249q10 -55 49.5 -84t98.5 -29q61 0 99.5 29t47.5 84h250q-15 -148 -123 -237t-274 -89z" />
    <glyph glyph-name="abreve" unicode="&#x103;" horiz-adv-x="1411" 
d="M848 573v95q0 70 -45 109.5t-127 39.5q-57 0 -101 -22.5t-63 -61.5h-383q98 352 588 352q290 0 431.5 -120.5t141.5 -335.5v-346q0 -60 72 -60h43v-233q-69 -15 -172 -15q-137 0 -222 28t-132 99q-164 -127 -396 -127q-185 0 -305.5 92.5t-120.5 251.5q0 157 119 241.5
t307 84.5q86 0 185 -19t180 -53zM848 274v97q-58 55 -209 55q-77 0 -128.5 -28.5t-51.5 -78.5t51.5 -78t128.5 -28q65 0 123 16t86 45zM711 1202q-165 0 -273 89t-125 237h250q10 -55 49.5 -84t98.5 -29q61 0 99.5 29t47.5 84h250q-15 -148 -123 -237t-274 -89z" />
    <glyph glyph-name="Aogonek" unicode="&#x104;" horiz-adv-x="1785" 
d="M1249 0l-78 238h-561l-75 -238h-515l553 1434h637l553 -1434q-74 -49 -109.5 -99t-35.5 -91q0 -28 26 -45t70 -17q66 0 92 23q13 -12 58 -53.5t69 -65.5q-119 -101 -309 -101q-118 0 -198 57.5t-80 145.5q0 73 42.5 137.5t114.5 108.5h-254zM1067 571l-176 488l-174 -488
h350z" />
    <glyph glyph-name="aogonek" unicode="&#x105;" horiz-adv-x="1411" 
d="M848 573v93q0 71 -44.5 111t-127.5 40q-124 0 -164 -84h-385q101 352 590 352q289 0 431 -120.5t142 -333.5v-350q0 -58 72 -58h43v-231q-63 -10 -98 -10q-41 0 -74.5 -24t-50.5 -56t-26 -57t-9 -35q0 -28 26 -45t70 -17q67 0 92 25l109 -107q-59 -59 -126 -87t-165 -28
q-117 0 -198 57.5t-81 145.5q0 73 41.5 137t114.5 107q-97 26 -153 104q-162 -125 -390 -125q-188 0 -309 90.5t-121 251.5q0 106 58 180.5t153 109t219 34.5q199 0 361 -70zM848 274v97q-61 55 -209 55q-78 0 -129 -28t-51 -79t50.5 -78.5t129.5 -27.5q65 0 122 15.5
t87 45.5z" />
    <glyph glyph-name="Cacute" unicode="&#x106;" horiz-adv-x="1708" 
d="M1380 520l236 -139q-251 -404 -690 -404q-397 0 -623.5 201t-226.5 539q0 166 56 302.5t161 233.5t261.5 150t350.5 53q317 0 515 -161t233 -425h-449q-43 234 -299 234q-163 0 -253.5 -102t-90.5 -285q0 -182 102.5 -286.5t272.5 -104.5q151 0 256 50t188 144z
M1235 1751l-119 -63q-171 -93 -328 -117l-106 117l373 247z" />
    <glyph glyph-name="cacute" unicode="&#x107;" horiz-adv-x="1343" 
d="M68 530q0 247 178 401t475 154q243 0 391.5 -121t177.5 -311h-418q-13 57 -50.5 88t-116.5 31t-128 -65.5t-49 -176.5q0 -115 57.5 -178t166.5 -63q189 0 307 125l221 -129q-88 -142 -231.5 -226t-331.5 -84q-299 0 -474 153t-175 402zM1030 1395l-119 -64
q-171 -93 -327 -117l-107 117l373 248z" />
    <glyph glyph-name="Ccircumflex" unicode="&#x108;" horiz-adv-x="1708" 
d="M1380 520l236 -139q-251 -404 -690 -404q-397 0 -623.5 201t-226.5 539q0 166 56 302.5t161 233.5t261.5 150t350.5 53q317 0 515 -161t233 -425h-449q-43 234 -299 234q-163 0 -253.5 -102t-90.5 -285q0 -182 102.5 -286.5t272.5 -104.5q151 0 256 50t188 144zM784 1915
h189l92 -76q118 -100 199 -219l-136 -88l-249 162l-250 -162l-135 88q88 124 200 219z" />
    <glyph glyph-name="ccircumflex" unicode="&#x109;" horiz-adv-x="1343" 
d="M68 530q0 247 178 401t475 154q243 0 391.5 -121t177.5 -311h-418q-13 57 -50.5 88t-116.5 31t-128 -65.5t-49 -176.5q0 -115 57.5 -178t166.5 -63q189 0 307 125l221 -129q-88 -142 -231.5 -226t-331.5 -84q-299 0 -474 153t-175 402zM602 1559h189l92 -76
q115 -98 198 -219l-135 -88l-250 161l-250 -161l-135 88q86 122 201 219z" />
    <glyph glyph-name="Cdotaccent" unicode="&#x10a;" horiz-adv-x="1708" 
d="M1380 520l236 -139q-251 -404 -690 -404q-397 0 -623.5 201t-226.5 539q0 166 56 302.5t161 233.5t261.5 150t350.5 53q317 0 515 -161t233 -425h-449q-43 234 -299 234q-163 0 -253.5 -102t-90.5 -285q0 -182 102.5 -286.5t272.5 -104.5q151 0 256 50t188 144zM735 1579
v274h287v-274h-287z" />
    <glyph glyph-name="cdotaccent" unicode="&#x10b;" horiz-adv-x="1343" 
d="M68 530q0 247 178 401t475 154q243 0 391.5 -121t177.5 -311h-418q-13 57 -50.5 88t-116.5 31t-128 -65.5t-49 -176.5q0 -115 57.5 -178t166.5 -63q189 0 307 125l221 -129q-88 -142 -231.5 -226t-331.5 -84q-299 0 -474 153t-175 402zM553 1223v274h287v-274h-287z" />
    <glyph glyph-name="Ccaron" unicode="&#x10c;" horiz-adv-x="1708" 
d="M1380 520l236 -139q-251 -404 -690 -404q-397 0 -623.5 201t-226.5 539q0 166 56 302.5t161 233.5t261.5 150t350.5 53q317 0 515 -161t233 -425h-449q-43 234 -299 234q-163 0 -253.5 -102t-90.5 -285q0 -182 102.5 -286.5t272.5 -104.5q151 0 256 50t188 144zM971 1550
h-189l-90 76q-113 96 -200 219q4 2 68 43.5t67 44.5l250 -161l249 161l136 -88q-91 -130 -199 -219z" />
    <glyph glyph-name="ccaron" unicode="&#x10d;" horiz-adv-x="1343" 
d="M68 530q0 247 178 401t475 154q243 0 391.5 -121t177.5 -311h-418q-13 57 -50.5 88t-116.5 31t-128 -65.5t-49 -176.5q0 -115 57.5 -178t166.5 -63q189 0 307 125l221 -129q-88 -142 -231.5 -226t-331.5 -84q-299 0 -474 153t-175 402zM793 1194h-189l-90 76
q-115 98 -201 219q4 2 68.5 43.5t67.5 44.5l249 -162l250 162l135 -88q-92 -132 -198 -219z" />
    <glyph glyph-name="Dcaron" unicode="&#x10e;" horiz-adv-x="1724" 
d="M1649 717q0 -339 -232.5 -528t-642.5 -189h-622v1434h622q410 0 642.5 -190t232.5 -527zM633 1083v-733h145q179 0 281 89t102 278q0 187 -102 276.5t-281 89.5h-145zM809 1550h-188l-91 76q-113 96 -200 219q4 2 68 43.5t67 44.5l250 -161l250 161l135 -88
q-91 -130 -199 -219z" />
    <glyph glyph-name="dcaron" unicode="&#x10f;" horiz-adv-x="1943" 
d="M78 530q0 135 38.5 241t108 174.5t162.5 104t205 35.5q101 0 204.5 -31t176.5 -87v528h457v-1495h-369l-70 113q-71 -64 -183.5 -101t-215.5 -37q-112 0 -205 35.5t-162.5 103.5t-108 174.5t-38.5 241.5zM772 772q-111 0 -172 -61.5t-61 -180.5q0 -120 61 -180.5
t172 -60.5q53 0 110 16t91 43v363q-35 27 -92 44t-109 17zM1550 981l183 532l268 -75l-76 -154q-112 -229 -221 -344z" />
    <glyph glyph-name="Dcroat" unicode="&#x110;" horiz-adv-x="1724" 
d="M1649 717q0 -339 -232.5 -528t-642.5 -189h-622v627h-172v178h172v629h622q410 0 642.5 -190t232.5 -527zM903 805v-178h-270v-279h145q179 0 281 90t102 279q0 187 -102 276.5t-281 89.5h-145v-278h270z" />
    <glyph glyph-name="dcroat" unicode="&#x111;" horiz-adv-x="1560" 
d="M78 530q0 135 38.5 241t108 174.5t162.5 104t205 35.5q100 0 204 -31t177 -87v229h-404v174h404v125h457v-125h149v-174h-149v-1196h-369l-70 113q-71 -63 -184 -100.5t-215 -37.5q-112 0 -205 35.5t-162.5 103.5t-108 174.5t-38.5 241.5zM770 772q-109 0 -170 -61.5
t-61 -180.5q0 -120 60.5 -180.5t170.5 -60.5q53 0 111 16t92 43v363q-34 27 -92.5 44t-110.5 17z" />
    <glyph glyph-name="Emacron" unicode="&#x112;" horiz-adv-x="1427" 
d="M152 0v1434h1171v-336h-688v-195h602v-336h-602v-231h711v-336h-1194zM367 1610v217h741v-217h-741z" />
    <glyph glyph-name="emacron" unicode="&#x113;" horiz-adv-x="1421" 
d="M1354 528q0 -50 -6 -96h-834q12 -74 80.5 -118t177.5 -44q93 0 165 23.5t150 77.5l201 -156q-230 -240 -545 -240q-309 0 -493 153.5t-184 401.5q0 245 178.5 400t466.5 155q286 0 464.5 -155t178.5 -402zM711 809q-87 0 -142 -45.5t-59 -126.5h399q-4 79 -58 125.5
t-140 46.5zM338 1253v217h741v-217h-741z" />
    <glyph glyph-name="Ebreve" unicode="&#x114;" horiz-adv-x="1427" 
d="M152 0v1434h1171v-336h-688v-195h602v-336h-602v-231h711v-336h-1194zM737 1554q-165 0 -272.5 89t-124.5 237h250q10 -55 49 -84t98 -29q61 0 100 29t48 84h250q-15 -148 -123.5 -237t-274.5 -89z" />
    <glyph glyph-name="ebreve" unicode="&#x115;" horiz-adv-x="1421" 
d="M1354 528q0 -50 -6 -96h-834q12 -74 80.5 -118t177.5 -44q93 0 165 23.5t150 77.5l201 -156q-230 -240 -545 -240q-309 0 -493 153.5t-184 401.5q0 245 178.5 400t466.5 155q286 0 464.5 -155t178.5 -402zM711 809q-87 0 -142 -45.5t-59 -126.5h399q-4 79 -58 125.5
t-140 46.5zM709 1202q-165 0 -273 89t-125 237h250q10 -55 49.5 -84t98.5 -29q61 0 99.5 29t47.5 84h250q-15 -148 -123 -237t-274 -89z" />
    <glyph glyph-name="Edotaccent" unicode="&#x116;" horiz-adv-x="1427" 
d="M152 0v1434h1171v-336h-688v-195h602v-336h-602v-231h711v-336h-1194zM596 1579v274h287v-274h-287z" />
    <glyph glyph-name="edotaccent" unicode="&#x117;" horiz-adv-x="1421" 
d="M1354 528q0 -50 -6 -96h-834q12 -74 80.5 -118t177.5 -44q93 0 165 23.5t150 77.5l201 -156q-230 -240 -545 -240q-309 0 -493 153.5t-184 401.5q0 245 178.5 400t466.5 155q286 0 464.5 -155t178.5 -402zM711 809q-87 0 -142 -45.5t-59 -126.5h399q-4 79 -58 125.5
t-140 46.5zM567 1223v274h287v-274h-287z" />
    <glyph glyph-name="Eogonek" unicode="&#x118;" horiz-adv-x="1427" 
d="M152 0v1434h1171v-336h-688v-195h602v-336h-602v-231h711v-336h-121q-77 -52 -113.5 -102.5t-36.5 -90.5q0 -28 25 -44.5t69 -16.5q71 0 93 25l106 -103q-60 -58 -126.5 -87.5t-162.5 -29.5q-117 0 -196.5 56.5t-79.5 144.5q0 75 42 138.5t116 109.5h-809z" />
    <glyph glyph-name="eogonek" unicode="&#x119;" horiz-adv-x="1421" 
d="M1354 528q0 -50 -6 -96h-834q12 -74 80.5 -118t177.5 -44q93 0 165 23.5t150 77.5l201 -156q-135 -145 -303 -201q-99 -52 -142.5 -106t-43.5 -98q0 -28 26 -45t70 -17q67 0 90 23l105 -97q-58 -61 -124 -92t-161 -31q-118 0 -198.5 57t-80.5 146q0 67 34.5 126t96.5 102
q-270 23 -430.5 171.5t-160.5 376.5q0 245 178.5 400t466.5 155q286 0 464.5 -155t178.5 -402zM711 809q-87 0 -142 -45.5t-59 -126.5h399q-4 79 -58 125.5t-140 46.5z" />
    <glyph glyph-name="Ecaron" unicode="&#x11a;" horiz-adv-x="1427" 
d="M152 0v1434h1171v-336h-688v-195h602v-336h-602v-231h711v-336h-1194zM831 1550h-188l-90 76q-115 98 -201 219q4 2 68 43.5t67 44.5l250 -161l250 161l135 -88q-92 -132 -198 -219z" />
    <glyph glyph-name="ecaron" unicode="&#x11b;" horiz-adv-x="1421" 
d="M1354 528q0 -50 -6 -96h-834q12 -74 80.5 -118t177.5 -44q93 0 165 23.5t150 77.5l201 -156q-230 -240 -545 -240q-309 0 -493 153.5t-184 401.5q0 245 178.5 400t466.5 155q286 0 464.5 -155t178.5 -402zM803 1194h-189l-90 76q-113 96 -200 219q4 2 68 43.5t67 44.5
l250 -162l249 162l136 -88q-91 -130 -199 -219zM711 809q-87 0 -142 -45.5t-59 -126.5h399q-4 79 -58 125.5t-140 46.5z" />
    <glyph glyph-name="Gcircumflex" unicode="&#x11c;" horiz-adv-x="1785" 
d="M1704 944l-490 -2q-27 78 -108.5 120t-185.5 42q-165 0 -262 -99.5t-97 -287.5q0 -187 102.5 -289t272.5 -102q131 0 217.5 52t101.5 148h-319v273h784v-117q0 -341 -209 -524t-569 -183q-263 0 -458.5 92.5t-299.5 260t-104 389.5q0 339 226.5 540t621.5 201
q299 0 507 -141.5t269 -372.5zM801 1915h188l92 -76q118 -100 199 -219l-135 -88l-250 162l-250 -162l-135 88q86 122 201 219z" />
    <glyph glyph-name="gcircumflex" unicode="&#x11d;" horiz-adv-x="1560" 
d="M76 539q0 260 143.5 403t372.5 143q97 0 213 -38t186 -101l68 115h371v-977q0 -255 -178 -399t-488 -144q-347 0 -582 219l168 160q149 -104 352 -104q127 0 198 52.5t71 149.5v93q-71 -55 -175 -86t-204 -31q-229 0 -372.5 142.5t-143.5 402.5zM770 305q52 0 110 17.5
t91 44.5v344q-33 27 -90.5 44t-110.5 17q-109 0 -170 -59.5t-61 -173.5q0 -115 61 -174.5t170 -59.5zM705 1559h188l92 -76q118 -100 199 -219l-135 -88l-250 161l-250 -161l-135 88q88 124 200 219z" />
    <glyph glyph-name="Gbreve" unicode="&#x11e;" horiz-adv-x="1785" 
d="M1704 944l-490 -2q-27 78 -108.5 120t-185.5 42q-165 0 -262 -99.5t-97 -287.5q0 -187 102.5 -289t272.5 -102q131 0 217.5 52t101.5 148h-319v273h784v-117q0 -341 -209 -524t-569 -183q-263 0 -458.5 92.5t-299.5 260t-104 389.5q0 339 226.5 540t621.5 201
q299 0 507 -141.5t269 -372.5zM895 1554q-165 0 -272.5 89t-124.5 237h250q10 -55 49 -84t98 -29q61 0 99.5 29t47.5 84h250q-15 -148 -123 -237t-274 -89z" />
    <glyph glyph-name="gbreve" unicode="&#x11f;" horiz-adv-x="1560" 
d="M76 539q0 260 143.5 403t372.5 143q97 0 213 -38t186 -101l68 115h371v-977q0 -255 -178 -399t-488 -144q-347 0 -582 219l168 160q149 -104 352 -104q127 0 198 52.5t71 149.5v93q-71 -55 -175 -86t-204 -31q-229 0 -372.5 142.5t-143.5 402.5zM770 305q52 0 110 17.5
t91 44.5v344q-33 27 -90.5 44t-110.5 17q-109 0 -170 -59.5t-61 -173.5q0 -115 61 -174.5t170 -59.5zM799 1202q-165 0 -273 89t-125 237h250q10 -55 49.5 -84t98.5 -29q61 0 99.5 29t47.5 84h250q-15 -148 -123 -237t-274 -89z" />
    <glyph glyph-name="Gdotaccent" unicode="&#x120;" horiz-adv-x="1785" 
d="M1704 944l-490 -2q-27 78 -108.5 120t-185.5 42q-165 0 -262 -99.5t-97 -287.5q0 -187 102.5 -289t272.5 -102q131 0 217.5 52t101.5 148h-319v273h784v-117q0 -341 -209 -524t-569 -183q-263 0 -458.5 92.5t-299.5 260t-104 389.5q0 339 226.5 540t621.5 201
q299 0 507 -141.5t269 -372.5zM754 1579v274h286v-274h-286z" />
    <glyph glyph-name="gdotaccent" unicode="&#x121;" horiz-adv-x="1560" 
d="M76 539q0 260 143.5 403t372.5 143q97 0 213 -38t186 -101l68 115h371v-977q0 -255 -178 -399t-488 -144q-347 0 -582 219l168 160q149 -104 352 -104q127 0 198 52.5t71 149.5v93q-71 -55 -175 -86t-204 -31q-229 0 -372.5 142.5t-143.5 402.5zM770 305q52 0 110 17.5
t91 44.5v344q-33 27 -90.5 44t-110.5 17q-109 0 -170 -59.5t-61 -173.5q0 -115 61 -174.5t170 -59.5zM657 1223v274h287v-274h-287z" />
    <glyph glyph-name="Gcommaaccent" unicode="&#x122;" horiz-adv-x="1785" 
d="M1704 944l-490 -2q-27 78 -108.5 120t-185.5 42q-165 0 -262 -99.5t-97 -287.5q0 -187 102.5 -289t272.5 -102q131 0 217.5 52t101.5 148h-319v273h784v-117q0 -341 -209 -524t-569 -183q-263 0 -458.5 92.5t-299.5 260t-104 389.5q0 339 226.5 540t621.5 201
q299 0 507 -141.5t269 -372.5zM739 -508l142 416l258 -74l-52 -106q-88 -182 -190 -281z" />
    <glyph glyph-name="gcommaaccent" unicode="&#x123;" horiz-adv-x="1560" 
d="M76 539q0 260 143.5 403t372.5 143q97 0 213 -38t186 -101l68 115h371v-977q0 -255 -178 -399t-488 -144q-347 0 -582 219l168 160q149 -104 352 -104q127 0 198 52.5t71 149.5v93q-71 -55 -175 -86t-204 -31q-229 0 -372.5 142.5t-143.5 402.5zM770 305q52 0 110 17.5
t91 44.5v344q-33 27 -90.5 44t-110.5 17q-109 0 -170 -59.5t-61 -173.5q0 -115 61 -174.5t170 -59.5zM1092 1608l-142 -416l-258 74l51 106q87 180 191 281z" />
    <glyph glyph-name="Hcircumflex" unicode="&#x124;" horiz-adv-x="1789" 
d="M152 0v1434h481v-510h522v510h481v-1434h-481v573h-522v-573h-481zM799 1915h188l92 -76q118 -100 199 -219l-135 -88l-250 162l-250 -162l-135 88q86 122 201 219z" />
    <glyph glyph-name="hcircumflex" unicode="&#x125;" horiz-adv-x="1548" 
d="M811 772q-61 0 -124.5 -22.5t-98.5 -53.5v-696h-459v1495h459v-549q76 61 190.5 100t229.5 39q193 0 305 -106t112 -311v-668h-458v643q0 62 -40.5 95.5t-115.5 33.5zM264 1915h189l92 -76q115 -98 198 -219l-135 -88l-250 162l-249 -162l-136 88q86 122 201 219z" />
    <glyph glyph-name="Hbar" unicode="&#x126;" horiz-adv-x="1789" 
d="M4 1253h148v181h481v-181h522v181h481v-181h148v-176h-148v-1077h-481v573h-522v-573h-481v1077h-148v176zM1155 924v153h-522v-153h522z" />
    <glyph glyph-name="hbar" unicode="&#x127;" horiz-adv-x="1548" 
d="M-18 1370h147v125h459v-125h401v-174h-401v-250q76 61 190.5 100t229.5 39q193 0 305 -106t112 -311v-668h-458v643q0 63 -40.5 96t-115.5 33q-61 0 -124.5 -22.5t-98.5 -53.5v-696h-459v1196h-147v174z" />
    <glyph glyph-name="Itilde" unicode="&#x128;" horiz-adv-x="804" 
d="M162 1434h481v-1434h-481v1434zM575 1571q-61 0 -155.5 40t-132.5 40q-36 0 -58 -19t-22 -55l-221 20q10 139 76 212t171 73q59 0 153 -39t136 -39q77 0 80 74l221 -20q-10 -140 -76.5 -213.5t-171.5 -73.5z" />
    <glyph glyph-name="itilde" unicode="&#x129;" horiz-adv-x="745" 
d="M545 1214q-61 0 -156 40t-133 40q-37 0 -58.5 -18.5t-21.5 -54.5l-221 20q10 139 76.5 212t171.5 73q59 0 153 -39t136 -39q76 0 79 74l222 -21q-10 -140 -76.5 -213.5t-171.5 -73.5zM143 0v1061h459v-1061h-459z" />
    <glyph glyph-name="Imacron" unicode="&#x12a;" horiz-adv-x="804" 
d="M162 1434h481v-1434h-481v1434zM31 1610v217h741v-217h-741z" />
    <glyph glyph-name="imacron" unicode="&#x12b;" horiz-adv-x="745" 
d="M2 1253v217h741v-217h-741zM143 0v1061h459v-1061h-459z" />
    <glyph glyph-name="Ibreve" unicode="&#x12c;" horiz-adv-x="804" 
d="M162 1434h481v-1434h-481v1434zM401 1554q-165 0 -272.5 89t-124.5 237h250q10 -55 49 -84t98 -29q61 0 100 29t48 84h250q-15 -148 -123.5 -237t-274.5 -89z" />
    <glyph glyph-name="ibreve" unicode="&#x12d;" horiz-adv-x="745" 
d="M373 1202q-165 0 -273 89t-125 237h250q10 -55 49.5 -84t98.5 -29q61 0 99.5 29t47.5 84h250q-15 -148 -123 -237t-274 -89zM143 0v1061h459v-1061h-459z" />
    <glyph glyph-name="Iogonek" unicode="&#x12e;" horiz-adv-x="804" 
d="M160 1434h483v-1434q-110 -25 -162.5 -80.5t-52.5 -109.5q0 -28 26 -45t70 -17q67 0 92 25l105 -99q-61 -61 -126.5 -92t-158.5 -31q-120 0 -200 57.5t-80 145.5q0 74 42 138.5t117 107.5h-155v1434z" />
    <glyph glyph-name="iogonek" unicode="&#x12f;" horiz-adv-x="745" 
d="M143 0v1061h459v-1061h-57q-77 -52 -113.5 -101.5t-36.5 -88.5q0 -28 26.5 -45t70.5 -17q67 0 90 23l106 -99q-61 -61 -126.5 -91t-160.5 -30q-118 0 -198 57t-80 146q0 73 42.5 136.5t115.5 109.5h-138zM143 1214v347h459v-347h-459z" />
    <glyph glyph-name="Idotaccent" unicode="&#x130;" horiz-adv-x="804" 
d="M162 1434h481v-1434h-481v1434zM260 1579v274h287v-274h-287z" />
    <glyph glyph-name="dotlessi" unicode="&#x131;" horiz-adv-x="745" 
d="M143 0v1061h459v-1061h-459z" />
    <glyph glyph-name="IJ" unicode="&#x132;" horiz-adv-x="2344" 
d="M162 1434h481v-1434h-481v1434zM1710 528v906h481v-902q0 -255 -174 -406t-477 -151q-196 0 -354 100t-256 273l237 131q55 -70 145 -110.5t179 -40.5q104 0 161.5 52t57.5 148z" />
    <glyph glyph-name="ij" unicode="&#x133;" horiz-adv-x="1550" 
d="M143 0v1061h459v-1061h-459zM143 1198v295h459v-295h-459zM946 1198v295h459v-295h-459zM905 -483l-211 178q139 100 195.5 175.5t56.5 174.5v1016h459v-985q0 -198 -134 -340t-366 -219z" />
    <glyph glyph-name="Jcircumflex" unicode="&#x134;" horiz-adv-x="1525" 
d="M891 528v906h481v-902q0 -255 -174 -406t-477 -151q-196 0 -354 100t-256 273l237 131q55 -70 145 -110.5t179 -40.5q104 0 161.5 52t57.5 148zM1038 1915h189l92 -76q118 -100 199 -219l-136 -88l-249 162l-250 -162l-135 88q88 124 200 219z" />
    <glyph glyph-name="jcircumflex" unicode="&#x135;" horiz-adv-x="745" 
d="M102 -483l-213 178q140 100 197 176t57 174v1016h459v-985q0 -198 -134 -340t-366 -219zM279 1559h188l92 -76q118 -100 199 -219l-135 -88l-250 161l-250 -161l-135 88q88 124 200 219z" />
    <glyph glyph-name="Kcommaaccent" unicode="&#x136;" horiz-adv-x="1693" 
d="M1620 1434l-524 -590l600 -844h-545l-346 516l-172 -192v-324h-481v1434h481v-543l454 543h533zM618 -508l142 416l258 -74l-51 -106q-87 -180 -191 -281z" />
    <glyph glyph-name="kcommaaccent" unicode="&#x137;" horiz-adv-x="1488" 
d="M1452 1061l-414 -389l463 -672h-502l-249 401l-162 -151v-250h-459v1495h459v-780l338 346h526zM518 -508l141 416l259 -74l-52 -106q-88 -182 -190 -281z" />
    <glyph glyph-name="kgreenlandic" unicode="&#x138;" horiz-adv-x="1488" 
d="M1452 1061l-416 -389l465 -672h-502l-251 399l-160 -149v-250h-459v1061h459v-346l338 346h526z" />
    <glyph glyph-name="Lacute" unicode="&#x139;" horiz-adv-x="1353" 
d="M152 0v1434h481v-1084h698v-350h-1179zM762 1751l-119 -63q-171 -93 -328 -117l-106 117l373 247z" />
    <glyph glyph-name="lacute" unicode="&#x13a;" horiz-adv-x="743" 
d="M141 0v1495h459v-1495h-459zM741 1751l-118 -63q-171 -93 -328 -117l-107 117l373 247z" />
    <glyph glyph-name="Lcommaaccent" unicode="&#x13b;" horiz-adv-x="1353" 
d="M152 0v1434h481v-1084h698v-350h-1179zM518 -508l141 416l259 -74l-52 -106q-88 -182 -190 -281z" />
    <glyph glyph-name="lcommaaccent" unicode="&#x13c;" horiz-adv-x="743" 
d="M141 0v1495h459v-1495h-459zM141 -508l142 416l258 -74l-52 -106q-88 -182 -190 -281z" />
    <glyph glyph-name="Lcaron" unicode="&#x13d;" horiz-adv-x="1353" 
d="M152 0v1434h481v-1084h698v-350h-1179zM838 981l182 532l268 -75l-76 -154q-112 -229 -221 -344z" />
    <glyph glyph-name="lcaron" unicode="&#x13e;" horiz-adv-x="1114" 
d="M141 0v1495h459v-1495h-459zM721 981l182 532l268 -75l-75 -154q-111 -227 -222 -344z" />
    <glyph glyph-name="Ldot" unicode="&#x13f;" horiz-adv-x="1353" 
d="M152 0v1434h481v-1084h698v-350h-1179zM903 629v274h287v-274h-287z" />
    <glyph glyph-name="ldot" unicode="&#x140;" horiz-adv-x="1185" 
d="M143 0v1495h459v-1495h-459zM844 629v274h286v-274h-286z" />
    <glyph glyph-name="Lslash" unicode="&#x141;" horiz-adv-x="1380" 
d="M657 1434v-494l490 250l74 -127l-564 -289v-426h699v-348h-1180v530l-180 -92l-74 129l254 129v738h481z" />
    <glyph glyph-name="lslash" unicode="&#x142;" horiz-adv-x="915" 
d="M686 1495v-512l211 109l70 -119l-281 -144v-829h-459v600l-213 -108l-65 118l278 142v743h459z" />
    <glyph glyph-name="Nacute" unicode="&#x143;" horiz-adv-x="1769" 
d="M152 0v1434h436l561 -744v744h469v-1434h-438l-562 743v-743h-466zM1280 1751l-119 -63q-171 -93 -327 -117l-107 117l373 247z" />
    <glyph glyph-name="nacute" unicode="&#x144;" horiz-adv-x="1548" 
d="M811 772q-59 0 -122 -23t-101 -53v-696h-459v1061h369l67 -135q76 68 201 113.5t242 45.5q192 0 304.5 -106t112.5 -311v-668h-458v643q0 63 -40.5 96t-115.5 33zM1102 1395l-119 -64q-171 -93 -328 -117l-106 117l373 248z" />
    <glyph glyph-name="Ncommaaccent" unicode="&#x145;" horiz-adv-x="1769" 
d="M152 0v1434h436l561 -744v744h469v-1434h-438l-562 743v-743h-466zM696 -508l142 416l258 -74l-52 -106q-88 -182 -190 -281z" />
    <glyph glyph-name="ncommaaccent" unicode="&#x146;" horiz-adv-x="1548" 
d="M811 772q-59 0 -122 -23t-101 -53v-696h-459v1061h369l67 -135q76 68 201 113.5t242 45.5q192 0 304.5 -106t112.5 -311v-668h-458v643q0 63 -40.5 96t-115.5 33zM547 -508l141 416l258 -74l-51 -106q-88 -182 -190 -281z" />
    <glyph glyph-name="Ncaron" unicode="&#x147;" horiz-adv-x="1769" 
d="M152 0v1434h436l561 -744v744h469v-1434h-438l-562 743v-743h-466zM977 1550h-189l-90 76q-113 96 -200 219q4 2 68 43.5t67 44.5l250 -161l250 161l135 -88q-91 -130 -199 -219z" />
    <glyph glyph-name="ncaron" unicode="&#x148;" horiz-adv-x="1548" 
d="M811 772q-59 0 -122 -23t-101 -53v-696h-459v1061h369l67 -135q76 68 201 113.5t242 45.5q192 0 304.5 -106t112.5 -311v-668h-458v643q0 63 -40.5 96t-115.5 33zM866 1194h-188l-90 76q-115 98 -201 219q4 2 68 43.5t67 44.5l250 -162l250 162l135 -88
q-91 -130 -199 -219z" />
    <glyph glyph-name="napostrophe" unicode="&#x149;" horiz-adv-x="1785" 
d="M1049 772q-59 0 -122.5 -23t-101.5 -53v-696h-458v1061h368l68 -135q76 68 200.5 113.5t241.5 45.5q192 0 305 -106t113 -311v-668h-459v643q0 63 -40 96t-115 33zM-59 981l182 532l268 -75l-76 -154q-112 -229 -221 -344z" />
    <glyph glyph-name="Eng" unicode="&#x14a;" horiz-adv-x="1769" 
d="M1114 -481l-211 178q132 86 190 161.5t58 168.5l-533 714v-741h-466v1434h471l526 -715v715h467v-1358q0 -199 -133 -341t-369 -216z" />
    <glyph glyph-name="eng" unicode="&#x14b;" horiz-adv-x="1548" 
d="M926 -481l-211 178q139 101 195.5 175.5t56.5 172.5v596q0 63 -40.5 97t-115.5 34q-60 0 -123.5 -23.5t-99.5 -54.5v-694h-459v1061h363l71 -133q76 72 200 114.5t245 42.5q192 0 304.5 -107t112.5 -312v-590q0 -198 -133.5 -340t-365.5 -217z" />
    <glyph glyph-name="Omacron" unicode="&#x14c;" horiz-adv-x="1806" 
d="M76 717q0 159 58 295.5t163 235t260.5 154.5t343.5 56t344.5 -56t262 -154.5t163.5 -235t58 -295.5q0 -160 -58 -296.5t-163.5 -235t-261.5 -154.5t-345 -56q-188 0 -343.5 56t-260.5 154.5t-163 235t-58 296.5zM561 717q0 -181 91.5 -285t248.5 -104q159 0 250.5 104
t91.5 285q0 180 -92 283.5t-250 103.5q-157 0 -248.5 -103.5t-91.5 -283.5zM551 1610v217h741v-217h-741z" />
    <glyph glyph-name="omacron" unicode="&#x14d;" horiz-adv-x="1449" 
d="M725 287q103 0 159 61t56 182q0 120 -56 181t-159 61q-104 0 -160.5 -61t-56.5 -181q0 -121 56 -182t161 -61zM725 1085q292 0 474.5 -153.5t182.5 -401.5q0 -165 -83 -291.5t-232 -195t-342 -68.5q-294 0 -476.5 152.5t-182.5 402.5q0 164 83 290.5t232.5 195.5
t343.5 69zM354 1253v217h742v-217h-742z" />
    <glyph glyph-name="Obreve" unicode="&#x14e;" horiz-adv-x="1806" 
d="M76 717q0 159 58 295.5t163 235t260.5 154.5t343.5 56t344.5 -56t262 -154.5t163.5 -235t58 -295.5q0 -160 -58 -296.5t-163.5 -235t-261.5 -154.5t-345 -56q-188 0 -343.5 56t-260.5 154.5t-163 235t-58 296.5zM561 717q0 -181 91.5 -285t248.5 -104q159 0 250.5 104
t91.5 285q0 180 -92 283.5t-250 103.5q-157 0 -248.5 -103.5t-91.5 -283.5zM901 1554q-165 0 -272.5 89t-124.5 237h250q10 -55 49 -84t98 -29q61 0 100 29t48 84h249q-15 -148 -123 -237t-274 -89z" />
    <glyph glyph-name="obreve" unicode="&#x14f;" horiz-adv-x="1449" 
d="M725 287q103 0 159 61t56 182q0 120 -56 181t-159 61q-104 0 -160.5 -61t-56.5 -181q0 -121 56 -182t161 -61zM725 1085q292 0 474.5 -153.5t182.5 -401.5q0 -165 -83 -291.5t-232 -195t-342 -68.5q-294 0 -476.5 152.5t-182.5 402.5q0 164 83 290.5t232.5 195.5
t343.5 69zM725 1202q-165 0 -272.5 89t-124.5 237h250q10 -55 49 -84t98 -29q61 0 99.5 29t47.5 84h250q-15 -148 -123 -237t-274 -89z" />
    <glyph glyph-name="Ohungarumlaut" unicode="&#x150;" horiz-adv-x="1806" 
d="M76 717q0 159 58 295.5t163 235t260.5 154.5t343.5 56t344.5 -56t262 -154.5t163.5 -235t58 -295.5q0 -160 -58 -296.5t-163.5 -235t-261.5 -154.5t-345 -56q-188 0 -343.5 56t-260.5 154.5t-163 235t-58 296.5zM561 717q0 -181 91.5 -285t248.5 -104q159 0 250.5 104
t91.5 285q0 180 -92 283.5t-250 103.5q-157 0 -248.5 -103.5t-91.5 -283.5zM995 1792l-110 -88q-138 -109 -269 -150l-122 88l282 293zM1485 1788l-111 -84q-145 -111 -270 -148l-123 93l289 288z" />
    <glyph glyph-name="ohungarumlaut" unicode="&#x151;" horiz-adv-x="1449" 
d="M725 287q103 0 159 61t56 182q0 120 -56 181t-159 61q-104 0 -160.5 -61t-56.5 -181q0 -121 56 -182t161 -61zM725 1085q292 0 474.5 -153.5t182.5 -401.5q0 -165 -83 -291.5t-232 -195t-342 -68.5q-294 0 -476.5 152.5t-182.5 402.5q0 164 83 290.5t232.5 195.5
t343.5 69zM768 1436l-111 -88q-139 -109 -268 -150l-123 88l283 293zM1257 1432l-110 -84q-145 -111 -270 -148l-123 92l288 289z" />
    <glyph glyph-name="OE" unicode="&#x152;" horiz-adv-x="2193" 
d="M905 1434h1184v-336h-563v-195h477v-336h-477v-231h583v-336h-1204q-382 0 -604.5 196t-222.5 521q0 324 222.5 520.5t604.5 196.5zM563 717q0 -179 91 -272t253 -93h135v727h-135q-162 0 -253 -91.5t-91 -270.5z" />
    <glyph glyph-name="oe" unicode="&#x153;" horiz-adv-x="2297" 
d="M2230 528q0 -50 -6 -96h-835q14 -75 82 -118.5t180 -43.5q88 0 159.5 23t153.5 76l201 -154q-230 -240 -545 -240q-144 0 -264.5 39t-196.5 105q-76 -68 -197 -106t-247 -38q-285 0 -467 153.5t-182 401.5q0 163 83.5 290t231 196t334.5 69q129 0 248 -37.5t196 -107.5
q74 68 188 106.5t240 38.5q288 0 465.5 -155t177.5 -402zM725 287q104 0 164.5 61.5t60.5 181.5q0 118 -60.5 180t-164.5 62q-106 0 -166.5 -61.5t-60.5 -180.5q0 -120 60.5 -181.5t166.5 -61.5zM1587 809q-87 0 -142 -45.5t-59 -126.5h402q-6 79 -60.5 125.5t-140.5 46.5z
" />
    <glyph glyph-name="Racute" unicode="&#x154;" horiz-adv-x="1654" 
d="M633 500v-500h-481v1434h647q336 0 528.5 -118t192.5 -349q0 -143 -77 -244t-214 -154l405 -569h-520l-305 500h-176zM633 821h182q98 0 163.5 37.5t65.5 108.5q0 145 -229 145h-182v-291zM1018 1751l-119 -63q-171 -93 -328 -117l-106 117l373 247z" />
    <glyph glyph-name="racute" unicode="&#x155;" horiz-adv-x="1034" 
d="M1022 1083v-313q-4 0 -27 1t-41 1q-118 0 -215 -37.5t-151 -103.5v-631h-459v1061h369l67 -154q49 80 161 129t239 49q9 0 31.5 -1t25.5 -1zM825 1395l-118 -64q-171 -93 -328 -117l-107 117l373 248z" />
    <glyph glyph-name="Rcommaaccent" unicode="&#x156;" horiz-adv-x="1654" 
d="M633 500v-500h-481v1434h647q336 0 528.5 -118t192.5 -349q0 -143 -77 -244t-214 -154l405 -569h-520l-305 500h-176zM633 821h182q98 0 163.5 37.5t65.5 108.5q0 145 -229 145h-182v-291zM600 -508l141 416l258 -74l-51 -106q-88 -182 -190 -281z" />
    <glyph glyph-name="rcommaaccent" unicode="&#x157;" horiz-adv-x="1034" 
d="M1022 1083v-313q-4 0 -27 1t-41 1q-118 0 -215 -37.5t-151 -103.5v-631h-459v1061h369l67 -154q49 80 161 129t239 49q9 0 31.5 -1t25.5 -1zM121 -508l141 416l258 -74l-51 -106q-88 -182 -190 -281z" />
    <glyph glyph-name="Rcaron" unicode="&#x158;" horiz-adv-x="1654" 
d="M633 500v-500h-481v1434h647q336 0 528.5 -118t192.5 -349q0 -143 -77 -244t-214 -154l405 -569h-520l-305 500h-176zM817 1550h-188l-90 76q-115 98 -201 219q4 2 68 43.5t67 44.5l250 -161l250 161l135 -88q-91 -130 -199 -219zM633 821h182q98 0 163.5 37.5
t65.5 108.5q0 145 -229 145h-182v-291z" />
    <glyph glyph-name="rcaron" unicode="&#x159;" horiz-adv-x="1034" 
d="M1022 1083v-313q-4 0 -27 1t-41 1q-118 0 -215 -37.5t-151 -103.5v-631h-459v1061h369l67 -154q49 80 161 129t239 49q9 0 31.5 -1t25.5 -1zM651 1194h-188l-90 76q-115 98 -201 219q4 2 68 43.5t67 44.5l250 -162l250 162l135 -88q-91 -130 -199 -219z" />
    <glyph glyph-name="Sacute" unicode="&#x15a;" horiz-adv-x="1492" 
d="M1417 1008q-75 0 -224 -1t-222 -1q-15 56 -71.5 90t-135.5 34q-76 0 -120 -25t-44 -61q0 -44 55 -79.5t209 -75.5q112 -29 194.5 -59t154.5 -69.5t116.5 -87t70 -110t25.5 -139.5q0 -205 -180.5 -327t-501.5 -122q-189 0 -365.5 84t-307.5 228l192 170
q123 -83 230.5 -119.5t242.5 -36.5q99 0 152 27t53 69q0 34 -26.5 58t-98 49.5t-215.5 62.5q-266 66 -375.5 180t-109.5 287q0 192 163 308t459 116q292 0 466 -121.5t214 -328.5zM1014 1751l-119 -63q-171 -93 -328 -117l-106 117l373 247z" />
    <glyph glyph-name="sacute" unicode="&#x15b;" horiz-adv-x="1269" 
d="M113 760q0 149 140 237t390 88q468 0 553 -350h-367q-29 80 -143 80q-51 0 -81 -13t-30 -36q0 -24 48 -48t178 -61q213 -61 306 -138t93 -212q0 -144 -140 -238t-376 -94q-192 0 -337.5 67.5t-266.5 193.5l147 129q93 -63 179 -90t204 -27q127 0 127 47q0 25 -43.5 46
t-167.5 56q-214 61 -313.5 143.5t-99.5 219.5zM924 1395l-119 -64q-171 -93 -328 -117l-106 117l372 248z" />
    <glyph glyph-name="Scircumflex" unicode="&#x15c;" horiz-adv-x="1492" 
d="M1417 1008q-75 0 -224 -1t-222 -1q-15 56 -71.5 90t-135.5 34q-76 0 -120 -25t-44 -61q0 -44 55 -79.5t209 -75.5q112 -29 194.5 -59t154.5 -69.5t116.5 -87t70 -110t25.5 -139.5q0 -205 -180.5 -327t-501.5 -122q-189 0 -365.5 84t-307.5 228l192 170
q123 -83 230.5 -119.5t242.5 -36.5q99 0 152 27t53 69q0 34 -26.5 58t-98 49.5t-215.5 62.5q-266 66 -375.5 180t-109.5 287q0 192 163 308t459 116q292 0 466 -121.5t214 -328.5zM635 1915h188l92 -76q118 -100 199 -219l-135 -88l-250 162l-250 -162l-135 88
q86 122 201 219z" />
    <glyph glyph-name="scircumflex" unicode="&#x15d;" horiz-adv-x="1269" 
d="M113 760q0 149 140 237t390 88q468 0 553 -350h-367q-29 80 -143 80q-51 0 -81 -13t-30 -36q0 -24 48 -48t178 -61q213 -61 306 -138t93 -212q0 -144 -140 -238t-376 -94q-192 0 -337.5 67.5t-266.5 193.5l147 129q93 -63 179 -90t204 -27q127 0 127 47q0 25 -43.5 46
t-167.5 56q-214 61 -313.5 143.5t-99.5 219.5zM524 1559h189l92 -76q118 -100 199 -219l-136 -88l-250 161l-249 -161l-136 88q86 122 201 219z" />
    <glyph glyph-name="Scedilla" unicode="&#x15e;" horiz-adv-x="1492" 
d="M1417 1008q-75 0 -224 -1t-222 -1q-15 56 -71.5 90t-135.5 34q-76 0 -120 -25t-44 -61q0 -44 55 -79.5t209 -75.5q112 -29 194.5 -59t154.5 -69.5t116.5 -87t70 -110t25.5 -139.5q0 -166 -126 -280t-347 -148l-63 -107q74 -16 125 -63.5t51 -112.5q0 -87 -82 -143.5
t-231 -56.5q-182 0 -295 77l125 125q34 -24 114 -24q46 0 74.5 12t28.5 35q0 27 -45.5 46.5t-141.5 22.5l-22 27q48 88 84 148q-167 15 -327.5 96t-276.5 209l194 170q123 -84 229.5 -120t241.5 -36q96 0 150.5 29.5t54.5 66.5q0 34 -26.5 58t-98 49.5t-215.5 62.5
q-266 66 -375.5 180t-109.5 287q0 192 163 308t459 116q292 0 466 -121.5t214 -328.5z" />
    <glyph glyph-name="scedilla" unicode="&#x15f;" horiz-adv-x="1269" 
d="M113 760q0 148 140.5 236.5t389.5 88.5q468 0 553 -350h-367q-29 80 -143 80q-50 0 -80.5 -14t-30.5 -35q0 -26 49 -50.5t187 -62.5q207 -59 298 -136.5t91 -209.5q0 -118 -101 -204.5t-270 -112.5l-61 -101q75 -16 125.5 -64.5t50.5 -113.5q0 -87 -81.5 -142.5
t-229.5 -55.5q-162 0 -273 100l103 100q33 -22 112 -22q47 0 76 12t29 35q0 27 -46.5 46.5t-141.5 22.5l-23 27l86 154q-279 36 -475 248l147 126q93 -62 178.5 -88t204.5 -26q127 0 127 47q0 25 -43.5 46t-167.5 56q-214 61 -313.5 143.5t-99.5 219.5z" />
    <glyph glyph-name="Scaron" unicode="&#x160;" horiz-adv-x="1492" 
d="M1417 1008q-75 0 -224 -1t-222 -1q-15 56 -71.5 90t-135.5 34q-76 0 -120 -25t-44 -61q0 -44 55 -79.5t209 -75.5q112 -29 194.5 -59t154.5 -69.5t116.5 -87t70 -110t25.5 -139.5q0 -205 -180.5 -327t-501.5 -122q-189 0 -365.5 84t-307.5 228l192 170
q123 -83 230.5 -119.5t242.5 -36.5q99 0 152 27t53 69q0 34 -26.5 58t-98 49.5t-215.5 62.5q-266 66 -375.5 180t-109.5 287q0 192 163 308t459 116q292 0 466 -121.5t214 -328.5zM821 1550h-188l-90 76q-115 98 -201 219q4 2 68 43.5t67 44.5l250 -161l250 161l135 -88
q-91 -130 -199 -219z" />
    <glyph glyph-name="scaron" unicode="&#x161;" horiz-adv-x="1269" 
d="M113 760q0 149 140 237t390 88q468 0 553 -350h-367q-29 80 -143 80q-51 0 -81 -13t-30 -36q0 -24 48 -48t178 -61q213 -61 306 -138t93 -212q0 -144 -140 -238t-376 -94q-192 0 -337.5 67.5t-266.5 193.5l147 129q93 -63 179 -90t204 -27q127 0 127 47q0 25 -43.5 46
t-167.5 56q-214 61 -313.5 143.5t-99.5 219.5zM713 1194h-189l-90 76q-115 98 -201 219q4 2 68.5 43.5t67.5 44.5l249 -162l250 162l136 -88q-91 -130 -199 -219z" />
    <glyph glyph-name="Tcommaaccent" unicode="&#x162;" horiz-adv-x="1462" 
d="M492 0v1083h-469v351h1417v-351h-467v-1083h-72l-70 -111q75 -18 126 -66t51 -112q0 -87 -82.5 -142.5t-229.5 -55.5q-145 0 -272 96l102 104q34 -24 113 -24q46 0 74 12t28 35q0 27 -46 47.5t-138 21.5l-27 27l99 168h-137z" />
    <glyph glyph-name="tcommaaccent" unicode="&#x163;" horiz-adv-x="1032" 
d="M420 -193l-23 27l95 162q-130 32 -201.5 128t-71.5 257v371h-205v270l205 39v246l459 65v-311h293v-309h-293v-320q0 -86 42.5 -115.5t166.5 -29.5h84v-246q-66 -31 -215 -53l-60 -99q74 -16 125 -63.5t51 -112.5q0 -87 -81.5 -143.5t-229.5 -56.5q-78 0 -149.5 26.5
t-122.5 73.5l102 102q31 -24 113 -24q45 0 74.5 13t29.5 34q0 27 -46.5 46.5t-141.5 22.5z" />
    <glyph glyph-name="Tcaron" unicode="&#x164;" horiz-adv-x="1458" 
d="M489 0v1083h-469v351h1418v-351h-467v-1083h-482zM823 1550h-188l-90 76q-115 98 -201 219q4 2 68 43.5t67 44.5l250 -161l250 161l135 -88q-91 -130 -199 -219z" />
    <glyph glyph-name="tcaron" unicode="&#x165;" horiz-adv-x="1445" 
d="M219 369v383h-205v270l205 39v246l459 65v-311h293v-309h-293v-320q0 -86 42.5 -115.5t166.5 -29.5h84v-246q-142 -64 -344 -64q-194 0 -301 98.5t-107 293.5zM1053 981l182 532l268 -75l-76 -154q-112 -229 -221 -344z" />
    <glyph glyph-name="Tbar" unicode="&#x166;" horiz-adv-x="1458" 
d="M174 788h315v295h-469v351h1418v-351h-467v-295h313v-176h-313v-612h-482v612h-315v176z" />
    <glyph glyph-name="tbar" unicode="&#x167;" horiz-adv-x="1032" 
d="M219 631v121h-205v270l205 39v246l459 65v-311h293v-309h-293v-121h248v-174h-248v-29q0 -84 42.5 -112.5t166.5 -28.5h84v-246q-142 -64 -342 -64q-195 0 -302.5 98t-107.5 294v88h-156v174h156z" />
    <glyph glyph-name="Utilde" unicode="&#x168;" horiz-adv-x="1822" 
d="M911 -25q-348 0 -553.5 163t-205.5 456v840h481v-861q0 -123 72 -183t206 -60t206.5 60t72.5 183v861h481v-840q0 -293 -206 -456t-554 -163zM1081 1571q-61 0 -155.5 40t-132.5 40q-36 0 -58 -19t-22 -55l-221 20q10 139 76 212t171 73q59 0 153 -39t136 -39q77 0 80 74
l221 -20q-10 -140 -76.5 -213.5t-171.5 -73.5z" />
    <glyph glyph-name="utilde" unicode="&#x169;" horiz-adv-x="1536" 
d="M768 -25q-309 0 -479 132t-170 374v580h459v-623q0 -71 52 -110t138 -39t138 39t52 110v623h459v-580q0 -242 -171 -374t-478 -132zM938 1214q-61 0 -156 40t-133 40q-37 0 -58.5 -18.5t-21.5 -54.5l-221 20q10 139 76.5 212t171.5 73q59 0 153 -39t136 -39q77 0 80 74
l221 -21q-10 -140 -76.5 -213.5t-171.5 -73.5z" />
    <glyph glyph-name="Umacron" unicode="&#x16a;" horiz-adv-x="1822" 
d="M911 -25q-348 0 -553.5 163t-205.5 456v840h481v-861q0 -123 72 -183t206 -60t206.5 60t72.5 183v861h481v-840q0 -293 -206 -456t-554 -163zM539 1610v217h741v-217h-741z" />
    <glyph glyph-name="umacron" unicode="&#x16b;" horiz-adv-x="1536" 
d="M768 -25q-309 0 -479 132t-170 374v580h459v-623q0 -71 52 -110t138 -39t138 39t52 110v623h459v-580q0 -242 -171 -374t-478 -132zM395 1253v217h742v-217h-742z" />
    <glyph glyph-name="Ubreve" unicode="&#x16c;" horiz-adv-x="1822" 
d="M911 -25q-348 0 -553.5 163t-205.5 456v840h481v-861q0 -123 72 -183t206 -60t206.5 60t72.5 183v861h481v-840q0 -293 -206 -456t-554 -163zM909 1554q-165 0 -272.5 89t-124.5 237h250q10 -55 49 -84t98 -29q61 0 100 29t48 84h250q-15 -148 -123.5 -237t-274.5 -89z
" />
    <glyph glyph-name="ubreve" unicode="&#x16d;" horiz-adv-x="1536" 
d="M768 -25q-309 0 -479 132t-170 374v580h459v-623q0 -71 52 -110t138 -39t138 39t52 110v623h459v-580q0 -242 -171 -374t-478 -132zM766 1202q-165 0 -272.5 89t-124.5 237h249q10 -55 49.5 -84t98.5 -29q61 0 99.5 29t47.5 84h250q-15 -148 -123 -237t-274 -89z" />
    <glyph glyph-name="Uring" unicode="&#x16e;" horiz-adv-x="1822" 
d="M911 -25q-348 0 -553.5 163t-205.5 456v840h481v-861q0 -123 72 -183t206 -60t206.5 60t72.5 183v861h481v-840q0 -293 -206 -456t-554 -163zM1188 1729q0 -100 -80.5 -168t-198.5 -68t-198 68t-80 168t80 168.5t198 68.5t198.5 -68.5t80.5 -168.5zM1006 1729
q0 32 -26.5 51.5t-70.5 19.5t-70 -19.5t-26 -51.5q0 -31 26 -50.5t70 -19.5t70.5 19.5t26.5 50.5z" />
    <glyph glyph-name="uring" unicode="&#x16f;" horiz-adv-x="1536" 
d="M768 -25q-309 0 -479 132t-170 374v580h459v-623q0 -71 52 -110t138 -39t138 39t52 110v623h459v-580q0 -242 -171 -374t-478 -132zM1044 1372q0 -100 -80 -167.5t-198 -67.5t-198.5 67.5t-80.5 167.5t80.5 169t198.5 69t198 -69t80 -169zM862 1372q0 32 -26 52t-70 20
t-70 -20t-26 -52q0 -31 26 -50t70 -19t70 19t26 50z" />
    <glyph glyph-name="Uhungarumlaut" unicode="&#x170;" horiz-adv-x="1822" 
d="M911 -25q-348 0 -553.5 163t-205.5 456v840h481v-861q0 -123 72 -183t206 -60t206.5 60t72.5 183v861h481v-840q0 -293 -206 -456t-554 -163zM983 1792l-111 -88q-139 -109 -268 -150l-123 88l283 293zM1473 1788l-111 -84q-145 -111 -270 -148l-123 93l288 288z" />
    <glyph glyph-name="uhungarumlaut" unicode="&#x171;" horiz-adv-x="1536" 
d="M768 -25q-309 0 -479 132t-170 374v580h459v-623q0 -71 52 -110t138 -39t138 39t52 110v623h459v-580q0 -242 -171 -374t-478 -132zM813 1436l-111 -88q-139 -109 -268 -150l-123 88l283 293zM1303 1432l-111 -84q-145 -111 -270 -148l-123 92l288 289z" />
    <glyph glyph-name="Uogonek" unicode="&#x172;" horiz-adv-x="1822" 
d="M1671 1434v-840q0 -247 -149 -402t-406 -196q-141 -100 -141 -186q0 -28 26 -45t70 -17q47 0 92 25q2 -2 109 -103q-62 -62 -127.5 -90.5t-161.5 -28.5q-119 0 -200 57.5t-81 145.5q0 132 129 226q-312 19 -495.5 179t-183.5 435v840h481v-777q0 -177 60.5 -253
t217.5 -76q279 0 279 258v848h481z" />
    <glyph glyph-name="uogonek" unicode="&#x173;" horiz-adv-x="1536" 
d="M1415 1061v-580q0 -198 -116.5 -323t-327.5 -162q-142 -97 -142 -186q0 -28 26.5 -45t70.5 -17q53 0 92 25l104 -99q-61 -62 -129 -92.5t-157 -30.5q-117 0 -198 57.5t-81 145.5q0 66 34.5 125t94.5 101q-269 19 -418 148.5t-149 352.5v580h459v-623q0 -68 53.5 -109.5
t136.5 -41.5q86 0 138 40t52 111v623h457z" />
    <glyph glyph-name="Wcircumflex" unicode="&#x174;" horiz-adv-x="2537" 
d="M1040 1434h457l266 -940q17 71 130.5 468t131.5 472h488l-453 -1434h-555l-237 901l-238 -901h-555l-452 1434h489l262 -940zM1171 1915h189l92 -76q118 -100 199 -219l-135 -88l-250 162l-250 -162l-135 88q88 124 200 219z" />
    <glyph glyph-name="wcircumflex" unicode="&#x175;" horiz-adv-x="2142" 
d="M870 1061h400l196 -662l199 662h465l-377 -1061h-504l-178 612l-180 -612h-502l-377 1061h465l197 -662zM975 1559h188l92 -76q118 -100 199 -219l-135 -88l-250 161l-250 -161l-135 88q86 122 201 219z" />
    <glyph glyph-name="Ycircumflex" unicode="&#x176;" horiz-adv-x="1648" 
d="M535 1434l288 -539l289 539h526l-573 -875v-559h-481v559q-173 261 -574 875h525zM729 1915h189l92 -76q115 -98 198 -219l-135 -88l-250 162l-250 -162l-135 88q86 122 201 219z" />
    <glyph glyph-name="ycircumflex" unicode="&#x177;" horiz-adv-x="1439" 
d="M483 -37l27 66l-498 1032h467l242 -563l242 563h464l-499 -1137q-90 -206 -237.5 -313t-389.5 -154l-143 203q136 60 210 132.5t115 170.5zM625 1559h188l92 -76q118 -100 199 -219l-135 -88l-250 161l-250 -161l-135 88q86 122 201 219z" />
    <glyph glyph-name="Ydieresis" unicode="&#x178;" horiz-adv-x="1648" 
d="M535 1434l288 -539l289 539h526l-573 -875v-559h-481v559q-173 261 -574 875h525zM424 1579v274h285v-274h-285zM940 1579v274h287v-274h-287z" />
    <glyph glyph-name="Zacute" unicode="&#x179;" horiz-adv-x="1452" 
d="M1362 1090l-694 -742h718v-348h-1320v342l692 741h-654v351h1258v-344zM1034 1751l-119 -63q-171 -93 -327 -117l-107 117l373 247z" />
    <glyph glyph-name="zacute" unicode="&#x17a;" horiz-adv-x="1140" 
d="M33 0v305l487 447h-459v309h1020v-307l-483 -445h508v-309h-1073zM879 1395l-119 -64q-171 -93 -328 -117l-106 117l372 248z" />
    <glyph glyph-name="Zdotaccent" unicode="&#x17b;" horiz-adv-x="1452" 
d="M1362 1090l-694 -742h718v-348h-1320v342l692 741h-654v351h1258v-344zM594 1579v274h287v-274h-287z" />
    <glyph glyph-name="zdotaccent" unicode="&#x17c;" horiz-adv-x="1140" 
d="M33 0v305l487 447h-459v309h1020v-307l-483 -445h508v-309h-1073zM438 1223v274h287v-274h-287z" />
    <glyph glyph-name="Zcaron" unicode="&#x17d;" horiz-adv-x="1452" 
d="M1362 1090l-694 -742h718v-348h-1320v342l692 741h-654v351h1258v-344zM831 1550h-188l-90 76q-115 98 -201 219q4 2 68 43.5t67 44.5l250 -161l250 161l135 -88q-92 -132 -198 -219z" />
    <glyph glyph-name="zcaron" unicode="&#x17e;" horiz-adv-x="1140" 
d="M33 0v305l487 447h-459v309h1020v-307l-483 -445h508v-309h-1073zM674 1194h-189l-90 76q-113 96 -200 219q4 2 68 43.5t67 44.5l250 -162l249 162l136 -88q-91 -130 -199 -219z" />
    <glyph glyph-name="longs" unicode="&#x17f;" horiz-adv-x="1015" 
d="M1001 1481v-285q-43 2 -118 2q-112 0 -155.5 -23.5t-43.5 -80.5v-1094h-459v752h-211v309h211v45q0 207 131.5 297t417.5 90q122 0 227 -12z" />
    <glyph glyph-name="uni0191" unicode="&#x191;" horiz-adv-x="1345" 
d="M635 528l-2 -452q-1 -135 -66 -247.5t-177 -189.5t-265 -122l-215 184q136 100 189 172.5t53 171.5v1389h1169v-336h-686v-234h600v-336h-600z" />
    <glyph glyph-name="florin" unicode="&#x192;" horiz-adv-x="1015" 
d="M174 -483l-203 178q134 95 194 173.5t60 176.5v707h-211v309h211v45q0 201 125 295t391 94q148 0 260 -14v-283q-6 2 -118 2q-111 0 -155 -24.5t-44 -81.5v-33h293v-309h-293v-676q0 -197 -138 -339t-372 -220z" />
    <glyph glyph-name="Aringacute" unicode="&#x1fa;" horiz-adv-x="1785" 
d="M1174 1495q0 -37 -21 -74h51l559 -1421h-514l-78 238h-561l-75 -238h-515l560 1421h47q-19 34 -19 74q0 100 82 168t201 68q120 0 201.5 -68t81.5 -168zM705 1868l319 205l152 -162l-99 -51q-97 -50 -272 -109zM717 571h350l-176 488zM991 1495q0 32 -27.5 51t-72.5 19
q-44 0 -72 -19t-28 -51t28.5 -52t71.5 -20q44 0 72 20t28 52z" />
    <glyph glyph-name="aringacute" unicode="&#x1fb;" horiz-adv-x="1411" 
d="M844 573v93q0 71 -44.5 111t-123.5 40q-57 0 -99 -22t-61 -62h-391q101 352 592 352q291 0 433 -120.5t142 -335.5v-348q0 -58 70 -58h47v-233l-74 -8q-41 -5 -102 -5q-140 0 -225.5 26.5t-133.5 96.5q-162 -125 -391 -125q-187 0 -308.5 92t-121.5 252q0 105 58.5 179.5
t154 109.5t219.5 35q201 0 359 -70zM995 1372q0 -100 -81 -167.5t-201 -67.5t-201.5 67.5t-81.5 167.5t81.5 169t201.5 69t201 -69t81 -169zM528 1747l320 205l151 -162l-102 -51q-163 -82 -268 -107zM844 274v97q-58 55 -205 55q-77 0 -127.5 -28t-50.5 -79q0 -50 50.5 -78
t127.5 -28q65 0 121 15.5t84 45.5zM813 1372q0 32 -28.5 52t-71.5 20t-72 -20t-29 -52q0 -30 29 -49.5t72 -19.5t71.5 19.5t28.5 49.5z" />
    <glyph glyph-name="AEacute" unicode="&#x1fc;" horiz-adv-x="2293" 
d="M1139 0v221h-486l-127 -221h-516l877 1434h1300v-336h-563v-195h477v-336h-477v-233h584v-334h-1069zM1139 553v487l-295 -487h295zM1706 1751l-119 -63q-171 -93 -327 -117l-107 117l373 247z" />
    <glyph glyph-name="aeacute" unicode="&#x1fd;" horiz-adv-x="2201" 
d="M2134 528q0 -55 -8 -96h-834q12 -75 80.5 -118.5t179.5 -43.5q91 0 162.5 23t153.5 76l200 -154q-230 -240 -544 -240q-149 0 -274.5 38t-209.5 108q-96 -76 -225.5 -111t-310.5 -35q-123 0 -223 39.5t-162 119t-62 185.5q0 105 57 179.5t151.5 109.5t217.5 35
q197 0 365 -70v93q0 71 -44.5 111t-127.5 40q-124 0 -164 -84h-385q101 352 592 352q113 0 216 -34t177 -95q83 60 182.5 94.5t194.5 34.5q289 0 467 -155t178 -402zM899 295q-22 46 -31 76q-88 55 -227 55q-83 0 -132.5 -29t-49.5 -78q0 -48 48.5 -77t129.5 -29
q171 0 262 82zM1489 809q-86 0 -140.5 -45.5t-58.5 -126.5h398q-3 79 -57.5 125.5t-141.5 46.5zM1425 1395l-118 -64q-171 -93 -328 -117l-107 117l373 248z" />
    <glyph glyph-name="Oslashacute" unicode="&#x1fe;" horiz-adv-x="1806" 
d="M1251 1751l-118 -63q-171 -93 -328 -117l-107 117l373 247zM76 717q0 159 58 295.5t163 235t260.5 154.5t343.5 56q285 0 490 -125l174 185l100 -91l-166 -174q110 -101 170 -239t60 -297q0 -160 -58 -296.5t-163.5 -235t-261.5 -154.5t-345 -56q-289 0 -487 123
l-174 -182l-101 88l166 174q-111 100 -170 238.5t-59 300.5zM561 717q0 -123 47 -219l502 538q-84 68 -209 68q-157 0 -248.5 -103.5t-91.5 -283.5zM901 328q158 0 249 103.5t91 283.5q0 118 -47 217l-502 -539q83 -65 209 -65z" />
    <glyph glyph-name="oslashacute" unicode="&#x1ff;" horiz-adv-x="1449" 
d="M1067 1395l-119 -64q-171 -93 -327 -117l-107 117l373 248zM725 1085q204 0 362 -79l136 141l100 -90l-121 -127q180 -153 180 -400q0 -165 -83 -291.5t-232 -195t-342 -68.5q-209 0 -365 78l-135 -139l-98 88l121 125q-182 158 -182 403q0 164 83 290.5t232.5 195.5
t343.5 69zM508 530q0 -62 18 -112l312 327q-56 27 -113 27q-104 0 -160.5 -61t-56.5 -181zM725 287q104 0 158.5 61.5t54.5 183.5q0 51 -18 107l-310 -328q50 -24 115 -24z" />
    <glyph glyph-name="Scommaaccent" unicode="&#x218;" horiz-adv-x="1492" 
d="M1417 1008q-75 0 -224 -1t-222 -1q-15 56 -71.5 90t-135.5 34q-76 0 -120 -25t-44 -61q0 -44 55 -79.5t209 -75.5q112 -29 194.5 -59t154.5 -69.5t116.5 -87t70 -110t25.5 -139.5q0 -205 -180.5 -327t-501.5 -122q-189 0 -365.5 84t-307.5 228l192 170
q123 -83 230.5 -119.5t242.5 -36.5q99 0 152 27t53 69q0 34 -26.5 58t-98 49.5t-215.5 62.5q-266 66 -375.5 180t-109.5 287q0 192 163 308t459 116q292 0 466 -121.5t214 -328.5zM592 -508l141 416l258 -74l-51 -106q-88 -182 -190 -281z" />
    <glyph glyph-name="scommaaccent" unicode="&#x219;" horiz-adv-x="1269" 
d="M113 760q0 149 140 237t390 88q468 0 553 -350h-367q-29 80 -143 80q-51 0 -81 -13t-30 -36q0 -24 48 -48t178 -61q213 -61 306 -138t93 -212q0 -144 -140 -238t-376 -94q-192 0 -337.5 67.5t-266.5 193.5l147 129q93 -63 179 -90t204 -27q127 0 127 47q0 25 -43.5 46
t-167.5 56q-214 61 -313.5 143.5t-99.5 219.5zM469 -508l141 416l258 -74l-51 -106q-88 -182 -190 -281z" />
    <glyph glyph-name="uni021A" unicode="&#x21a;" horiz-adv-x="1462" 
d="M492 0v1083h-469v351h1417v-351h-467v-1083h-481zM512 -508l141 416l258 -74l-51 -106q-88 -182 -190 -281z" />
    <glyph glyph-name="uni021B" unicode="&#x21b;" horiz-adv-x="1030" 
d="M219 369v383h-205v270l205 39v246l459 65v-311h293v-309h-293v-320q0 -86 42.5 -115.5t166.5 -29.5h84v-246q-142 -64 -344 -64q-194 0 -301 98.5t-107 293.5zM383 -508l141 416l258 -74l-51 -106q-88 -182 -190 -281z" />
    <glyph glyph-name="dotlessj" unicode="&#x237;" horiz-adv-x="745" 
d="M102 -483l-213 178q140 100 197 176t57 174v1016h459v-985q0 -198 -134 -340t-366 -219z" />
    <glyph glyph-name="apostrophe" unicode="&#x2bc;" horiz-adv-x="862" 
d="M205 997l182 533l268 -76l-75 -154q-111 -227 -222 -344z" />
    <glyph glyph-name="circumflex" unicode="&#x2c6;" horiz-adv-x="862" 
d="M336 1518h188l92 -76q118 -100 199 -219l-135 -88l-250 161l-250 -161l-135 88q86 122 201 219z" />
    <glyph glyph-name="caron" unicode="&#x2c7;" horiz-adv-x="862" 
d="M524 1153h-188l-90 76q-115 98 -201 219q4 2 68 43.5t67 44.5l250 -162l250 162l135 -88q-91 -130 -199 -219z" />
    <glyph glyph-name="uni02C9" unicode="&#x2c9;" horiz-adv-x="862" 
d="M59 1212v218h742v-218h-742z" />
    <glyph glyph-name="breve" unicode="&#x2d8;" horiz-adv-x="862" 
d="M430 1161q-165 0 -272.5 89t-124.5 237h250q10 -55 49 -84t98 -29q61 0 100 29t48 84h249q-15 -148 -123 -237t-274 -89z" />
    <glyph glyph-name="dotaccent" unicode="&#x2d9;" horiz-adv-x="862" 
d="M289 1182v274h286v-274h-286z" />
    <glyph glyph-name="ring" unicode="&#x2da;" horiz-adv-x="862" 
d="M709 1331q0 -100 -80.5 -167.5t-198.5 -67.5t-198 67.5t-80 167.5t80 169t198 69t198.5 -69t80.5 -169zM526 1331q0 32 -26 52t-70 20t-70 -20t-26 -52q0 -31 26 -50t70 -19t70 19t26 50z" />
    <glyph glyph-name="ogonek" unicode="&#x2db;" horiz-adv-x="862" 
d="M346 0h264q-77 -52 -113 -102.5t-36 -90.5q0 -28 25.5 -44.5t68.5 -16.5q67 0 92 25l105 -97q-58 -61 -124.5 -92t-162.5 -31q-117 0 -197 56.5t-80 144.5q0 75 42 138.5t116 109.5z" />
    <glyph glyph-name="tilde" unicode="&#x2dc;" horiz-adv-x="862" 
d="M600 1176q-61 0 -156 39.5t-133 39.5q-37 0 -58.5 -18.5t-21.5 -54.5l-221 20q10 139 76.5 212t171.5 73q59 0 153 -39t136 -39q77 0 80 74l221 -21q-10 -139 -76.5 -212.5t-171.5 -73.5z" />
    <glyph glyph-name="hungarumlaut" unicode="&#x2dd;" horiz-adv-x="862" 
d="M432 1395l-110 -88q-138 -109 -269 -150l-123 88l283 293zM922 1391l-111 -84q-145 -111 -270 -148l-123 92l289 289z" />
    <glyph glyph-name="gravecomb" unicode="&#x300;" horiz-adv-x="0" 
d="M-813 1284l-135 70l182 184l371 -248l-113 -125q-130 25 -305 119z" />
    <glyph glyph-name="acutecomb" unicode="&#x301;" horiz-adv-x="0" 
d="M-379 1354l-119 -64q-169 -91 -327 -116l-107 116l373 248z" />
    <glyph glyph-name="uni0302" unicode="&#x302;" horiz-adv-x="0" 
d="M-758 1518h189l92 -76q115 -98 198 -219l-135 -88l-250 161l-249 -161l-136 88q86 122 201 219z" />
    <glyph glyph-name="tildecomb" unicode="&#x303;" horiz-adv-x="0" 
d="M-494 1176q-61 0 -155.5 39.5t-132.5 39.5q-37 0 -58.5 -18.5t-21.5 -54.5l-221 20q10 139 76 212t171 73q59 0 153 -39t136 -39q77 0 80 74l221 -21q-10 -139 -76.5 -212.5t-171.5 -73.5z" />
    <glyph glyph-name="uni0304" unicode="&#x304;" horiz-adv-x="0" 
d="M-1032 1212v218h741v-218h-741z" />
    <glyph glyph-name="uni0306" unicode="&#x306;" horiz-adv-x="0" 
d="M-664 1161q-165 0 -272.5 89t-124.5 237h250q10 -55 49 -84t98 -29q61 0 100 29t48 84h250q-15 -148 -123.5 -237t-274.5 -89z" />
    <glyph glyph-name="uni0307" unicode="&#x307;" horiz-adv-x="0" 
d="M-805 1182v274h287v-274h-287z" />
    <glyph glyph-name="uni0308" unicode="&#x308;" horiz-adv-x="0" 
d="M-1063 1182v274h285v-274h-285zM-547 1182v274h287v-274h-287z" />
    <glyph glyph-name="uni030A" unicode="&#x30a;" horiz-adv-x="0" 
d="M-385 1331q0 -100 -80.5 -167.5t-198.5 -67.5t-198 67.5t-80 167.5t80 169t198 69t198.5 -69t80.5 -169zM-567 1331q0 32 -26.5 52t-70.5 20t-70 -20t-26 -52q0 -31 26 -50t70 -19t70.5 19t26.5 50z" />
    <glyph glyph-name="uni030C" unicode="&#x30c;" horiz-adv-x="0" 
d="M-569 1153h-189l-90 76q-115 98 -201 219q4 2 68.5 43.5t67.5 44.5l249 -162l250 162l135 -88q-92 -132 -198 -219z" />
    <glyph glyph-name="uni0327" unicode="&#x327;" horiz-adv-x="0" 
d="M-838 -193l-24 27l98 166h270l-69 -111q75 -16 126.5 -64.5t51.5 -113.5q0 -87 -82 -142.5t-231 -55.5q-146 0 -273 96l103 104q37 -22 112 -22q46 0 74.5 12.5t28.5 32.5q0 29 -45 48.5t-140 22.5z" />
    <glyph glyph-name="uni03A9" unicode="&#x3a9;" horiz-adv-x="1806" 
d="M901 1458q192 0 348.5 -48.5t261 -134.5t161.5 -205.5t57 -260.5q0 -144 -72.5 -280t-198.5 -220h254v-309h-719v301q248 169 248 432q0 170 -86.5 270.5t-253.5 100.5q-164 0 -250 -100.5t-86 -270.5q0 -263 248 -432v-301h-719v309h254q-126 84 -198 219.5t-72 280.5
q0 141 56.5 260.5t161 205.5t260 134.5t345.5 48.5z" />
    <glyph glyph-name="uni0400" unicode="&#x400;" horiz-adv-x="1427" 
d="M152 0v1434h1171v-336h-688v-195h602v-336h-602v-231h711v-336h-1194zM545 1681l-135 70l182 184l371 -247l-113 -125q-133 26 -305 118z" />
    <glyph glyph-name="afii10023" unicode="&#x401;" horiz-adv-x="1427" 
d="M152 0v1434h1171v-336h-688v-195h602v-336h-602v-231h711v-336h-1194zM338 1579v274h285v-274h-285zM854 1579v274h287v-274h-287z" />
    <glyph glyph-name="afii10051" unicode="&#x402;" horiz-adv-x="1937" 
d="M1389 461q0 63 -48 97t-139 34q-63 0 -128.5 -15t-100.5 -36v-541h-481v1083h-469v351h1417v-351h-467v-256q69 41 181.5 69t215.5 28q100 0 189 -29t158.5 -83.5t110 -141t40.5 -193.5q0 -118 -40 -210.5t-109 -150t-156 -87t-187 -29.5q-169 0 -309 82l72 256
q18 -6 80 -6q69 0 119.5 36.5t50.5 92.5z" />
    <glyph glyph-name="afii10052" unicode="&#x403;" horiz-adv-x="1370" 
d="M1044 1751l-118 -63q-171 -93 -328 -117l-106 117l372 247zM152 0v1434h1196v-351h-715v-1083h-481z" />
    <glyph glyph-name="afii10053" unicode="&#x404;" horiz-adv-x="1708" 
d="M1380 520l236 -139q-251 -404 -690 -404q-397 0 -623.5 201t-226.5 539q0 166 56 302.5t161 233.5t261.5 150t350.5 53q317 0 515 -161t233 -425h-449q-43 234 -299 234q-125 0 -205 -58.5t-112 -162.5h426v-334h-422q37 -106 127 -164.5t217 -58.5q151 0 256 50t188 144
z" />
    <glyph glyph-name="afii10054" unicode="&#x405;" horiz-adv-x="1492" 
d="M1417 1008q-75 0 -224 -1t-222 -1q-15 56 -71.5 90t-135.5 34q-76 0 -120 -25t-44 -61q0 -44 55 -79.5t209 -75.5q112 -29 194.5 -59t154.5 -69.5t116.5 -87t70 -110t25.5 -139.5q0 -205 -180.5 -327t-501.5 -122q-189 0 -365.5 84t-307.5 228l192 170
q123 -83 230.5 -119.5t242.5 -36.5q99 0 152 27t53 69q0 34 -26.5 58t-98 49.5t-215.5 62.5q-266 66 -375.5 180t-109.5 287q0 192 163 308t459 116q292 0 466 -121.5t214 -328.5z" />
    <glyph glyph-name="afii10055" unicode="&#x406;" horiz-adv-x="804" 
d="M162 1434h481v-1434h-481v1434z" />
    <glyph glyph-name="afii10056" unicode="&#x407;" horiz-adv-x="804" 
d="M162 1434h481v-1434h-481v1434zM2 1579v274h285v-274h-285zM518 1579v274h287v-274h-287z" />
    <glyph glyph-name="afii10057" unicode="&#x408;" horiz-adv-x="1525" 
d="M891 528v906h481v-902q0 -255 -174 -406t-477 -151q-196 0 -354 100t-256 273l237 131q55 -70 145 -110.5t179 -40.5q104 0 161.5 52t57.5 148z" />
    <glyph glyph-name="afii10058" unicode="&#x409;" horiz-adv-x="2480" 
d="M254 -20l-231 178q139 102 195 176.5t56 173.5v926h1344v-508h176q292 0 455.5 -122.5t163.5 -340.5q0 -219 -163.5 -341t-455.5 -122h-657v1083h-381v-544q0 -198 -135 -340t-367 -219zM1952 463q0 129 -203 129h-131v-260h131q203 0 203 131z" />
    <glyph glyph-name="afii10059" unicode="&#x40a;" horiz-adv-x="2428" 
d="M2361 463q0 -219 -163 -341t-455 -122h-658v573h-452v-573h-481v1434h481v-510h452v510h482v-508h176q292 0 455 -122.5t163 -340.5zM1901 463q0 129 -203 129h-131v-260h131q203 0 203 131z" />
    <glyph glyph-name="afii10060" unicode="&#x40b;" horiz-adv-x="1986" 
d="M492 0v1083h-469v351h1415v-351h-467v-256q72 40 185 68.5t216 28.5q241 0 367.5 -124t126.5 -378v-422h-480v367q0 113 -51 159.5t-155 46.5q-61 0 -118 -14.5t-91 -36.5v-522h-479z" />
    <glyph glyph-name="afii10061" unicode="&#x40c;" horiz-adv-x="1693" 
d="M1620 1434l-524 -590l600 -844h-545l-346 516l-172 -192v-324h-481v1434h481v-543l454 543h533zM1157 1751l-119 -63q-171 -93 -327 -117l-107 117l373 247z" />
    <glyph glyph-name="uni040D" unicode="&#x40d;" horiz-adv-x="1769" 
d="M1618 1434v-1434h-467v743l-563 -743h-436v1434h469v-744l561 744h436zM678 1681l-135 70l182 184l371 -247l-113 -125q-133 26 -305 118z" />
    <glyph glyph-name="afii10062" unicode="&#x40e;" horiz-adv-x="1617" 
d="M807 1554q-165 0 -272.5 89t-124.5 237h249q10 -55 49.5 -84t98.5 -29q61 0 99.5 29t47.5 84h250q-15 -148 -123 -237t-274 -89zM352 0l238 446l-557 988h491l285 -557l305 557h492l-756 -1434h-498z" />
    <glyph glyph-name="afii10145" unicode="&#x40f;" horiz-adv-x="1779" 
d="M152 0v1434h481v-1086h512v1086h481v-1434h-498v-246h-481v246h-495z" />
    <glyph glyph-name="afii10017" unicode="&#x410;" horiz-adv-x="1785" 
d="M1249 0l-78 238h-561l-75 -238h-515l553 1434h637l553 -1434h-514zM1067 571l-176 488l-174 -488h350z" />
    <glyph glyph-name="afii10018" unicode="&#x411;" horiz-adv-x="1497" 
d="M1270 1100h-637v-178h176q289 0 455 -124t166 -337q0 -214 -165.5 -337.5t-455.5 -123.5h-657v1434h1118v-334zM969 461q0 127 -207 127h-129v-256h129q207 0 207 129z" />
    <glyph glyph-name="afii10019" unicode="&#x412;" horiz-adv-x="1591" 
d="M152 0v1434h661q311 0 469 -105.5t158 -294.5q0 -97 -54 -173.5t-147 -110.5q127 -32 207 -117t80 -203q0 -95 -36.5 -171.5t-113.5 -135.5t-208.5 -91t-311.5 -32h-704zM1038 446q0 69 -52.5 101.5t-162.5 32.5h-198v-267h198q111 0 163 32t52 101zM991 999
q0 62 -49 90.5t-151 28.5h-166v-237h166q102 0 151 28.5t49 89.5z" />
    <glyph glyph-name="afii10020" unicode="&#x413;" horiz-adv-x="1370" 
d="M152 0v1434h1196v-351h-715v-1083h-481z" />
    <glyph glyph-name="afii10021" unicode="&#x414;" horiz-adv-x="1656" 
d="M1626 332v-578h-481v246h-651v-246h-482v578h158q55 177 83 408t28 444v250h1153v-1102h192zM975 332v770h-236q0 -180 -25.5 -396t-72.5 -374h334z" />
    <glyph glyph-name="afii10022" unicode="&#x415;" horiz-adv-x="1427" 
d="M152 0v1434h1171v-336h-688v-195h602v-336h-602v-231h711v-336h-1194z" />
    <glyph glyph-name="afii10024" unicode="&#x416;" horiz-adv-x="2490" 
d="M1653 524l-166 -196v-328h-481v328l-166 196l-301 -524h-539l547 870l-473 564h530l402 -519v519h481v-519l401 519h531l-473 -564l546 -870h-538z" />
    <glyph glyph-name="afii10025" unicode="&#x417;" horiz-adv-x="1406" 
d="M399 567v330h160q126 0 196 33.5t70 89.5q0 49 -47 75.5t-125 26.5q-72 0 -124.5 -31.5t-61.5 -91.5h-404q12 143 91.5 247.5t208.5 158t292 53.5q188 0 335.5 -45.5t234 -136.5t86.5 -215q0 -104 -67.5 -188.5t-182.5 -127.5q124 -34 197 -132t73 -212
q0 -192 -171.5 -309t-454.5 -117q-175 0 -340 68.5t-295 192.5l202 180q152 -107 361 -107q91 0 151 32t60 81q0 145 -314 145h-131z" />
    <glyph glyph-name="afii10026" unicode="&#x418;" horiz-adv-x="1769" 
d="M1618 1434v-1434h-467v743l-563 -743h-436v1434h469v-744l561 744h436z" />
    <glyph glyph-name="afii10027" unicode="&#x419;" horiz-adv-x="1769" 
d="M883 1554q-165 0 -273 89t-125 237h250q10 -55 49.5 -84t98.5 -29q61 0 99.5 29t47.5 84h250q-15 -148 -123 -237t-274 -89zM1618 1434v-1434h-467v743l-563 -743h-436v1434h469v-744l561 744h436z" />
    <glyph glyph-name="afii10028" unicode="&#x41a;" horiz-adv-x="1693" 
d="M1620 1434l-524 -590l600 -844h-545l-346 516l-172 -192v-324h-481v1434h481v-543l454 543h533z" />
    <glyph glyph-name="afii10029" unicode="&#x41b;" horiz-adv-x="1828" 
d="M1677 1434v-1434h-481v1083h-440v-544q0 -207 -134 -348t-374 -211l-225 178q139 102 195 176.5t56 173.5v926h1403z" />
    <glyph glyph-name="afii10030" unicode="&#x41c;" horiz-adv-x="2164" 
d="M1223 260h-285l-320 475v-735h-466v1434h450l479 -744l480 744h450v-1434h-467v735z" />
    <glyph glyph-name="afii10031" unicode="&#x41d;" horiz-adv-x="1789" 
d="M152 0v1434h481v-510h522v510h481v-1434h-481v573h-522v-573h-481z" />
    <glyph glyph-name="afii10032" unicode="&#x41e;" horiz-adv-x="1806" 
d="M76 717q0 159 58 295.5t163 235t260.5 154.5t343.5 56t344.5 -56t262 -154.5t163.5 -235t58 -295.5q0 -160 -58 -296.5t-163.5 -235t-261.5 -154.5t-345 -56q-188 0 -343.5 56t-260.5 154.5t-163 235t-58 296.5zM561 717q0 -181 91.5 -285t248.5 -104q159 0 250.5 104
t91.5 285q0 180 -92 283.5t-250 103.5q-157 0 -248.5 -103.5t-91.5 -283.5z" />
    <glyph glyph-name="afii10033" unicode="&#x41f;" horiz-adv-x="1781" 
d="M1628 1434v-1434h-481v1083h-514v-1083h-481v1434h1476z" />
    <glyph glyph-name="afii10034" unicode="&#x420;" horiz-adv-x="1556" 
d="M1499 940q0 -164 -88.5 -275t-244 -162.5t-371.5 -51.5h-162v-451h-481v1434h643q329 0 516.5 -124t187.5 -370zM1014 940q0 86 -60 123t-176 37h-145v-318h145q236 0 236 158z" />
    <glyph glyph-name="afii10035" unicode="&#x421;" horiz-adv-x="1708" 
d="M1380 520l236 -139q-251 -404 -690 -404q-397 0 -623.5 201t-226.5 539q0 166 56 302.5t161 233.5t261.5 150t350.5 53q317 0 515 -161t233 -425h-449q-43 234 -299 234q-163 0 -253.5 -102t-90.5 -285q0 -182 102.5 -286.5t272.5 -104.5q151 0 256 50t188 144z" />
    <glyph glyph-name="afii10036" unicode="&#x422;" horiz-adv-x="1462" 
d="M492 0v1083h-469v351h1417v-351h-467v-1083h-481z" />
    <glyph glyph-name="afii10037" unicode="&#x423;" horiz-adv-x="1617" 
d="M352 0l238 446l-557 988h491l285 -557l305 557h492l-756 -1434h-498z" />
    <glyph glyph-name="afii10038" unicode="&#x424;" horiz-adv-x="1923" 
d="M1192 1434v-193h18q294 0 472 -146t178 -378q0 -235 -177.5 -381t-472.5 -146h-18v-190h-461v190h-18q-296 0 -474 146.5t-178 380.5t177.5 379t474.5 145h18v193h461zM731 518v395h-22q-91 0 -149 -53t-58 -143q0 -92 58 -145.5t149 -53.5h22zM1192 913v-395h12
q89 0 152 52t63 147v10q-27 186 -209 186h-18z" />
    <glyph glyph-name="afii10039" unicode="&#x425;" horiz-adv-x="1669" 
d="M1133 0l-297 465l-299 -465h-527l496 733q-77 116 -234.5 350.5t-234.5 350.5h526q46 -68 136.5 -207t136.5 -207l268 414h528l-469 -701l498 -733h-528z" />
    <glyph glyph-name="afii10040" unicode="&#x426;" horiz-adv-x="1851" 
d="M152 0v1434h481v-1086h512v1086h481v-1086h195v-594h-482v246h-1187z" />
    <glyph glyph-name="afii10041" unicode="&#x427;" horiz-adv-x="1638" 
d="M1487 1434v-1434h-481v586q-72 -40 -185 -67t-217 -27q-241 0 -368 123.5t-127 375.5v443h479v-387q0 -113 51 -160t158 -47q126 0 209 51v543h481z" />
    <glyph glyph-name="afii10042" unicode="&#x428;" horiz-adv-x="2334" 
d="M152 0v1434h481v-1086h291v1086h483v-1086h293v1086h481v-1434h-2029z" />
    <glyph glyph-name="afii10043" unicode="&#x429;" horiz-adv-x="2406" 
d="M152 0v1434h481v-1084h293v1084h481v-1084h295v1084h481v-1084h193v-596h-480v246h-1744z" />
    <glyph glyph-name="afii10044" unicode="&#x42a;" horiz-adv-x="1755" 
d="M1688 463q0 -219 -165 -341t-456 -122h-657v1083h-387v351h868v-512h176q291 0 456 -121t165 -338zM1227 463q0 125 -205 125h-131v-256h131q205 0 205 131z" />
    <glyph glyph-name="afii10045" unicode="&#x42b;" horiz-adv-x="2238" 
d="M1604 1434h481v-1434h-481v1434zM1430 463q0 -219 -165 -341t-456 -122h-657v1434h481v-508h176q291 0 456 -122.5t165 -340.5zM969 463q0 129 -205 129h-131v-260h131q205 0 205 131z" />
    <glyph glyph-name="afii10046" unicode="&#x42c;" horiz-adv-x="1497" 
d="M1430 463q0 -219 -165 -341t-456 -122h-657v1434h481v-508h176q291 0 456 -122.5t165 -340.5zM969 463q0 129 -205 129h-131v-260h131q205 0 205 131z" />
    <glyph glyph-name="afii10047" unicode="&#x42d;" horiz-adv-x="1708" 
d="M88 379l238 141q83 -93 188.5 -143.5t253.5 -50.5q126 0 219 59.5t127 163.5h-420v334h424q-31 106 -113 163.5t-204 57.5q-121 0 -200 -59.5t-97 -174.5h-449q35 264 232.5 425t513.5 161q194 0 350.5 -53t261.5 -150t161 -233.5t56 -302.5q0 -338 -226.5 -539
t-625.5 -201q-224 0 -397.5 105t-292.5 297z" />
    <glyph glyph-name="afii10048" unicode="&#x42e;" horiz-adv-x="2310" 
d="M152 1434h481v-543h246q19 129 65.5 230t125.5 178t199.5 118t276.5 41q147 0 263 -36.5t194 -101.5t129 -158.5t73.5 -203.5t22.5 -241q0 -132 -22.5 -242t-73.5 -204t-129 -158.5t-194 -101t-263 -36.5q-584 0 -667 566h-246v-541h-481v1434zM1354 717q0 -217 43 -302
t149 -85q73 0 115 36t62 120t20 231q0 216 -44.5 301.5t-152.5 85.5q-105 0 -148.5 -85.5t-43.5 -301.5z" />
    <glyph glyph-name="afii10049" unicode="&#x42f;" horiz-adv-x="1654" 
d="M1022 500h-178l-305 -500h-521l406 569q-138 54 -214.5 155t-76.5 243q0 231 192.5 349t528.5 118h649v-1434h-481v500zM840 821h182v291h-182q-232 0 -232 -145q0 -146 232 -146z" />
    <glyph glyph-name="afii10065" unicode="&#x430;" horiz-adv-x="1411" 
d="M848 573v95q0 70 -45 109.5t-127 39.5q-57 0 -101 -22.5t-63 -61.5h-383q98 352 588 352q290 0 431.5 -120.5t141.5 -335.5v-346q0 -60 72 -60h43v-233q-69 -15 -172 -15q-137 0 -222 28t-132 99q-164 -127 -396 -127q-185 0 -305.5 92.5t-120.5 251.5q0 157 119 241.5
t307 84.5q86 0 185 -19t180 -53zM848 274v97q-58 55 -209 55q-77 0 -128.5 -28.5t-51.5 -78.5t51.5 -78t128.5 -28q65 0 123 16t86 45z" />
    <glyph glyph-name="afii10066" unicode="&#x431;" horiz-adv-x="1417" 
d="M1237 1212q-533 -8 -653 -268q56 42 145.5 66t169.5 24q209 0 330 -136t121 -380q0 -246 -161.5 -394.5t-461.5 -148.5q-313 0 -479 178t-166 490q0 296 124 486t391.5 287.5t694.5 101.5zM729 725q-117 0 -186 -66q0 -144 23 -227.5t62.5 -114t102.5 -30.5q76 0 118 56
t42 167q0 114 -41 164.5t-121 50.5z" />
    <glyph glyph-name="afii10067" unicode="&#x432;" horiz-adv-x="1370" 
d="M758 0h-629v1061h602q506 0 506 -293q0 -73 -39 -126t-104 -77q94 -28 151.5 -93t57.5 -163q0 -309 -545 -309zM860 334q0 94 -147 94h-168v-188h168q147 0 147 94zM838 737q0 47 -36.5 65.5t-103.5 18.5h-153v-168h153q140 0 140 84z" />
    <glyph glyph-name="afii10068" unicode="&#x433;" horiz-adv-x="1146" 
d="M129 0v1061h993v-309h-534v-752h-459z" />
    <glyph glyph-name="afii10069" unicode="&#x434;" horiz-adv-x="1462" 
d="M1432 307v-532h-459v225h-492v-225h-458v532h141q76 273 76 563v191h1032v-754h160zM854 307v445h-209q-3 -236 -63 -445h272z" />
    <glyph glyph-name="afii10070" unicode="&#x435;" horiz-adv-x="1421" 
d="M1354 528q0 -50 -6 -96h-834q12 -74 80.5 -118t177.5 -44q93 0 165 23.5t150 77.5l201 -156q-230 -240 -545 -240q-309 0 -493 153.5t-184 401.5q0 245 178.5 400t466.5 155q286 0 464.5 -155t178.5 -402zM711 809q-87 0 -142 -45.5t-59 -126.5h399q-4 79 -58 125.5
t-140 46.5z" />
    <glyph glyph-name="afii10072" unicode="&#x436;" horiz-adv-x="2156" 
d="M1450 381l-143 -148v-233h-459v233l-143 148l-207 -381h-508l428 672l-383 389h524l289 -342v342h459v-342l286 342h525l-383 -389l430 -672h-508z" />
    <glyph glyph-name="afii10073" unicode="&#x437;" horiz-adv-x="1273" 
d="M557 803q-124 0 -145 -74h-351q36 176 179 266t370 90q265 0 406 -84t141 -223q0 -161 -160 -231q96 -29 152.5 -92.5t56.5 -153.5q0 -146 -152 -236t-429 -90q-314 0 -564 224l146 143q93 -50 172.5 -67t183.5 -17q78 0 131.5 21t53.5 55q0 80 -170 80h-185v248h125
q180 0 180 75q0 66 -141 66z" />
    <glyph glyph-name="afii10074" unicode="&#x438;" horiz-adv-x="1540" 
d="M1411 0h-459v528l-395 -528h-428v1061h459v-531l395 531h428v-1061z" />
    <glyph glyph-name="afii10075" unicode="&#x439;" horiz-adv-x="1540" 
d="M768 1202q-165 0 -272.5 89t-124.5 237h250q10 -55 49 -84t98 -29q61 0 99.5 29t47.5 84h250q-15 -148 -123 -237t-274 -89zM1411 0h-459v528l-395 -528h-428v1061h459v-531l395 531h428v-1061z" />
    <glyph glyph-name="afii10076" unicode="&#x43a;" horiz-adv-x="1488" 
d="M1452 1061l-416 -389l465 -672h-502l-251 399l-160 -149v-250h-459v1061h459v-346l338 346h526z" />
    <glyph glyph-name="afii10077" unicode="&#x43b;" horiz-adv-x="1603" 
d="M274 1061h1199v-1061h-459v752h-281v-254q0 -209 -139 -342t-381 -179l-190 183q135 78 193 144t58 163v594z" />
    <glyph glyph-name="afii10078" unicode="&#x43c;" horiz-adv-x="1845" 
d="M854 221l-266 318v-539h-459v1061h430l373 -481l352 481h430v-1061h-459v539l-247 -318h-154z" />
    <glyph glyph-name="afii10079" unicode="&#x43d;" horiz-adv-x="1546" 
d="M958 731v330h459v-1061h-459v422h-370v-422h-459v1061h459v-330h370z" />
    <glyph glyph-name="afii10080" unicode="&#x43e;" horiz-adv-x="1449" 
d="M725 287q103 0 159 61t56 182q0 120 -56 181t-159 61q-104 0 -160.5 -61t-56.5 -181q0 -121 56 -182t161 -61zM725 1085q292 0 474.5 -153.5t182.5 -401.5q0 -165 -83 -291.5t-232 -195t-342 -68.5q-294 0 -476.5 152.5t-182.5 402.5q0 164 83 290.5t232.5 195.5
t343.5 69z" />
    <glyph glyph-name="afii10081" unicode="&#x43f;" horiz-adv-x="1515" 
d="M129 0v1061h1255v-1061h-456v752h-340v-752h-459z" />
    <glyph glyph-name="afii10082" unicode="&#x440;" horiz-adv-x="1560" 
d="M1483 530q0 -268 -142.5 -411.5t-373.5 -143.5q-100 0 -204 31t-175 86v-526h-459v1495h371l67 -115q71 63 184.5 101t215.5 38q112 0 206 -35.5t163.5 -104t108 -174.5t38.5 -241zM788 289q111 0 171.5 60t60.5 181q0 120 -60.5 181t-171.5 61q-52 0 -109.5 -17
t-90.5 -44v-363q33 -27 90 -43t110 -16z" />
    <glyph glyph-name="afii10083" unicode="&#x441;" horiz-adv-x="1343" 
d="M68 530q0 247 178 401t475 154q243 0 391.5 -121t177.5 -311h-418q-13 57 -50.5 88t-116.5 31t-128 -65.5t-49 -176.5q0 -115 57.5 -178t166.5 -63q189 0 307 125l221 -129q-88 -142 -231.5 -226t-331.5 -84q-299 0 -474 153t-175 402z" />
    <glyph glyph-name="afii10084" unicode="&#x442;" horiz-adv-x="1302" 
d="M879 752v-752h-457v752h-389v309h1237v-309h-391z" />
    <glyph glyph-name="afii10085" unicode="&#x443;" horiz-adv-x="1439" 
d="M483 -37l27 66l-498 1032h467l242 -563l242 563h464l-499 -1137q-90 -206 -237.5 -313t-389.5 -154l-143 203q136 60 210 132.5t115 170.5z" />
    <glyph glyph-name="afii10086" unicode="&#x444;" horiz-adv-x="2387" 
d="M76 530q0 267 141.5 411t370.5 144q100 0 202.5 -31t174.5 -87v528h458v-528q70 55 172.5 86.5t202.5 31.5q229 0 370.5 -144t141.5 -411q0 -268 -141 -411.5t-371 -143.5q-100 0 -201.5 31t-173.5 86v-526h-458v526q-71 -55 -174 -86t-203 -31q-230 0 -371 143.5
t-141 411.5zM1618 287q111 0 170 61t59 182q0 120 -59.5 181t-169.5 61q-52 0 -107.5 -17t-87.5 -44v-363q31 -27 87.5 -44t107.5 -17zM768 772q-110 0 -169.5 -61t-59.5 -181q0 -121 59 -182t168 -61q52 0 109 17t90 44v363q-33 27 -89.5 44t-107.5 17z" />
    <glyph glyph-name="afii10087" unicode="&#x445;" horiz-adv-x="1404" 
d="M887 1061h477l-317 -510l356 -551h-477l-226 356l-223 -356h-477l354 551l-315 510h477l184 -318z" />
    <glyph glyph-name="afii10088" unicode="&#x446;" horiz-adv-x="1579" 
d="M1548 309v-534h-458v225h-961v1061h459v-752h340v752h458v-752h162z" />
    <glyph glyph-name="afii10089" unicode="&#x447;" horiz-adv-x="1443" 
d="M715 582q98 0 143 36v443h457v-1061h-457v406q-48 -35 -133.5 -56.5t-165.5 -21.5q-221 0 -344 112t-123 342v279h457v-256q0 -123 38.5 -173t127.5 -50z" />
    <glyph glyph-name="afii10090" unicode="&#x448;" horiz-adv-x="2039" 
d="M788 307v754h459v-754h205v754h457v-1061h-1780v1061h459v-754h200z" />
    <glyph glyph-name="afii10091" unicode="&#x449;" horiz-adv-x="2103" 
d="M2071 307v-532h-457v225h-1485v1061h459v-754h200v754h459v-754h205v754h457v-754h162z" />
    <glyph glyph-name="afii10092" unicode="&#x44a;" horiz-adv-x="1544" 
d="M788 723h132q273 0 424 -91t151 -272q0 -179 -151 -269.5t-424 -90.5h-590v752h-312v309h770v-338zM1036 358q0 55 -39 79t-118 24h-88v-201h88q79 0 118 23t39 75z" />
    <glyph glyph-name="afii10093" unicode="&#x44b;" horiz-adv-x="2035" 
d="M1905 0h-457v1061h457v-1061zM717 0h-588v1061h459v-338h129q275 0 426 -91t151 -272q0 -179 -151 -269.5t-426 -90.5zM836 358q0 54 -38.5 78.5t-115.5 24.5h-92v-201h92q154 0 154 98z" />
    <glyph glyph-name="afii10094" unicode="&#x44c;" horiz-adv-x="1341" 
d="M717 0h-588v1061h459v-338h129q275 0 426 -91t151 -272q0 -179 -151 -269.5t-426 -90.5zM836 358q0 54 -38.5 78.5t-115.5 24.5h-92v-201h92q154 0 154 98z" />
    <glyph glyph-name="afii10095" unicode="&#x44d;" horiz-adv-x="1343" 
d="M1276 530q0 -250 -174.5 -402.5t-476.5 -152.5q-188 0 -332 84t-232 226l207 114q54 -59 141 -94t181 -35q182 0 237 131h-282v258h284q-24 61 -74 95t-118 34q-157 0 -209 -120h-379q29 174 188 295.5t384 121.5q298 0 476.5 -154t178.5 -401z" />
    <glyph glyph-name="afii10096" unicode="&#x44e;" horiz-adv-x="1996" 
d="M1335 1085q286 0 441 -150t155 -405q0 -256 -155 -405.5t-441 -149.5q-238 0 -387 105.5t-194 292.5h-166v-373h-459v1061h459v-379h166q44 189 193 296t388 107zM1335 289q80 0 117 57t37 184q0 125 -37.5 183.5t-116.5 58.5q-83 0 -119 -57.5t-36 -184.5
q0 -129 35.5 -185t119.5 -56z" />
    <glyph glyph-name="afii10097" unicode="&#x44f;" horiz-adv-x="1417" 
d="M1284 0h-457v336h-131l-227 -336h-471l301 401q-195 98 -195 304q0 165 131 260.5t373 95.5h676v-1061zM827 606v195h-98q-77 0 -122.5 -26.5t-45.5 -69.5q0 -45 43 -72t119 -27h104z" />
    <glyph glyph-name="uni0450" unicode="&#x450;" horiz-adv-x="1421" 
d="M1354 528q0 -50 -6 -96h-834q12 -74 80.5 -118t177.5 -44q93 0 165 23.5t150 77.5l201 -156q-230 -240 -545 -240q-309 0 -493 153.5t-184 401.5q0 245 178.5 400t466.5 155q286 0 464.5 -155t178.5 -402zM516 1325l-135 70l182 184l371 -248l-113 -125q-130 25 -305 119
zM711 809q-87 0 -142 -45.5t-59 -126.5h399q-4 79 -58 125.5t-140 46.5z" />
    <glyph glyph-name="afii10071" unicode="&#x451;" horiz-adv-x="1421" 
d="M1354 528q0 -50 -6 -96h-834q12 -74 80.5 -118t177.5 -44q93 0 165 23.5t150 77.5l201 -156q-230 -240 -545 -240q-309 0 -493 153.5t-184 401.5q0 245 178.5 400t466.5 155q286 0 464.5 -155t178.5 -402zM711 809q-87 0 -142 -45.5t-59 -126.5h399q-4 79 -58 125.5
t-140 46.5zM311 1223v274h285v-274h-285zM827 1223v274h287v-274h-287z" />
    <glyph glyph-name="afii10099" unicode="&#x452;" horiz-adv-x="1548" 
d="M926 -483l-211 180q139 99 195.5 174.5t56.5 173.5v596q0 63 -40.5 97t-115.5 34q-60 0 -123.5 -23.5t-99.5 -54.5v-694h-459v1196h-147v174h147v125h459v-125h399v-174h-399v-250q76 61 190.5 100t229.5 39q192 0 304.5 -107t112.5 -312v-590q0 -199 -133.5 -340.5
t-365.5 -218.5z" />
    <glyph glyph-name="afii10100" unicode="&#x453;" horiz-adv-x="1146" 
d="M926 1395l-119 -64q-171 -93 -328 -117l-106 117l372 248zM129 0v1061h993v-309h-534v-752h-459z" />
    <glyph glyph-name="afii10101" unicode="&#x454;" horiz-adv-x="1343" 
d="M68 530q0 247 178.5 401t476.5 154q224 0 382 -121.5t187 -295.5h-379q-21 55 -74.5 87.5t-131.5 32.5q-68 0 -119 -34t-74 -95h283v-258h-279q51 -131 234 -131q96 0 182 35t141 94l205 -114q-88 -142 -231.5 -226t-331.5 -84q-299 0 -474 153t-175 402z" />
    <glyph glyph-name="afii10102" unicode="&#x455;" horiz-adv-x="1269" 
d="M113 760q0 149 140 237t390 88q468 0 553 -350h-367q-29 80 -143 80q-51 0 -81 -13t-30 -36q0 -24 48 -48t178 -61q213 -61 306 -138t93 -212q0 -144 -140 -238t-376 -94q-192 0 -337.5 67.5t-266.5 193.5l147 129q93 -63 179 -90t204 -27q127 0 127 47q0 25 -43.5 46
t-167.5 56q-214 61 -313.5 143.5t-99.5 219.5z" />
    <glyph glyph-name="afii10103" unicode="&#x456;" horiz-adv-x="745" 
d="M143 0v1061h459v-1061h-459zM143 1198v295h459v-295h-459z" />
    <glyph glyph-name="afii10104" unicode="&#x457;" horiz-adv-x="745" 
d="M-27 1223v274h285v-274h-285zM489 1223v274h287v-274h-287zM143 0v1061h459v-1061h-459z" />
    <glyph glyph-name="afii10105" unicode="&#x458;" horiz-adv-x="745" 
d="M143 1198v295h459v-295h-459zM102 -483l-211 178q139 100 195.5 175.5t56.5 174.5v1016h459v-985q0 -198 -134 -340t-366 -219z" />
    <glyph glyph-name="afii10106" unicode="&#x459;" horiz-adv-x="2183" 
d="M733 752v-254q0 -209 -139 -342t-381 -179l-190 183q133 75 192 141.5t59 165.5v594h1156v-338h131q274 0 425.5 -91t151.5 -272q0 -179 -151.5 -269.5t-425.5 -90.5h-590v752h-238zM1679 358q0 103 -155 103h-92v-201h92q155 0 155 98z" />
    <glyph glyph-name="afii10107" unicode="&#x45a;" horiz-adv-x="2117" 
d="M905 731v330h459v-338h129q274 0 427 -91.5t153 -271.5q0 -179 -153 -269.5t-427 -90.5h-588v422h-317v-422h-459v1061h459v-330h317zM1614 358q0 103 -156 103h-92v-201h92q156 0 156 98z" />
    <glyph glyph-name="afii10108" unicode="&#x45b;" horiz-adv-x="1548" 
d="M-18 1370h147v125h459v-125h401v-174h-401v-250q76 61 190.5 100t229.5 39q193 0 305 -106t112 -311v-668h-458v643q0 63 -40.5 96t-115.5 33q-61 0 -124.5 -22.5t-98.5 -53.5v-696h-459v1196h-147v174z" />
    <glyph glyph-name="afii10109" unicode="&#x45c;" horiz-adv-x="1488" 
d="M1051 1395l-119 -64q-171 -93 -328 -117l-106 117l372 248zM1452 1061l-416 -389l465 -672h-502l-251 399l-160 -149v-250h-459v1061h459v-346l338 346h526z" />
    <glyph glyph-name="uni045D" unicode="&#x45d;" horiz-adv-x="1540" 
d="M1411 0h-459v528l-395 -528h-428v1061h459v-531l395 531h428v-1061zM584 1325l-135 70l182 184l370 -248l-112 -125q-130 25 -305 119z" />
    <glyph glyph-name="afii10110" unicode="&#x45e;" horiz-adv-x="1439" 
d="M483 -37l27 66l-498 1032h467l242 -563l242 563h464l-499 -1137q-90 -206 -237.5 -313t-389.5 -154l-143 203q136 60 210 132.5t115 170.5zM719 1202q-165 0 -272.5 89t-124.5 237h249q10 -55 49.5 -84t98.5 -29q61 0 99.5 29t47.5 84h250q-15 -148 -123 -237t-274 -89z
" />
    <glyph glyph-name="afii10193" unicode="&#x45f;" horiz-adv-x="1515" 
d="M985 -225h-457v225h-399v1061h459v-754h340v754h456v-1061h-399v-225z" />
    <glyph glyph-name="afii10050" unicode="&#x490;" horiz-adv-x="1370" 
d="M152 0v1434h712v252h482v-603h-713v-1083h-481z" />
    <glyph glyph-name="afii10098" unicode="&#x491;" horiz-adv-x="1146" 
d="M129 0v1061h535v270h458v-579h-534v-752h-459z" />
    <glyph glyph-name="Wgrave" unicode="&#x1e80;" horiz-adv-x="2537" 
d="M1040 1434h457l266 -940q17 71 130.5 468t131.5 472h488l-453 -1434h-555l-237 901l-238 -901h-555l-452 1434h489l262 -940zM1022 1681l-135 70l182 184l371 -247l-113 -125q-133 26 -305 118z" />
    <glyph glyph-name="wgrave" unicode="&#x1e81;" horiz-adv-x="2142" 
d="M870 1061h400l196 -662l199 662h465l-377 -1061h-504l-178 612l-180 -612h-502l-377 1061h465l197 -662zM846 1325l-135 70l182 184l371 -248l-113 -125q-130 25 -305 119z" />
    <glyph glyph-name="Wacute" unicode="&#x1e82;" horiz-adv-x="2537" 
d="M1040 1434h457l266 -940q17 71 130.5 468t131.5 472h488l-453 -1434h-555l-237 901l-238 -901h-555l-452 1434h489l262 -940zM1642 1751l-118 -63q-171 -93 -328 -117l-106 117l372 247z" />
    <glyph glyph-name="wacute" unicode="&#x1e83;" horiz-adv-x="2142" 
d="M870 1061h400l196 -662l199 662h465l-377 -1061h-504l-178 612l-180 -612h-502l-377 1061h465l197 -662zM1427 1395l-118 -64q-171 -93 -328 -117l-107 117l373 248z" />
    <glyph glyph-name="Wdieresis" unicode="&#x1e84;" horiz-adv-x="2537" 
d="M1040 1434h457l266 -940q17 71 130.5 468t131.5 472h488l-453 -1434h-555l-237 901l-238 -901h-555l-452 1434h489l262 -940zM868 1579v274h285v-274h-285zM1384 1579v274h287v-274h-287z" />
    <glyph glyph-name="wdieresis" unicode="&#x1e85;" horiz-adv-x="2142" 
d="M870 1061h400l196 -662l199 662h465l-377 -1061h-504l-178 612l-180 -612h-502l-377 1061h465l197 -662zM672 1223v274h284v-274h-284zM1188 1223v274h287v-274h-287z" />
    <glyph glyph-name="Ygrave" unicode="&#x1ef2;" horiz-adv-x="1648" 
d="M535 1434l288 -539l289 539h526l-573 -875v-559h-481v559q-173 261 -574 875h525zM608 1681l-135 70l182 184l371 -247l-113 -125q-133 26 -305 118z" />
    <glyph glyph-name="ygrave" unicode="&#x1ef3;" horiz-adv-x="1439" 
d="M483 -37l27 66l-498 1032h467l242 -563l242 563h464l-499 -1137q-90 -206 -237.5 -313t-389.5 -154l-143 203q136 60 210 132.5t115 170.5zM502 1325l-135 70l182 184l371 -248l-113 -125q-130 25 -305 119z" />
    <glyph glyph-name="thinspace" unicode="&#x2009;" horiz-adv-x="491" 
 />
    <glyph glyph-name="uni2010" unicode="&#x2010;" horiz-adv-x="913" 
d="M803 537h-694v284h694v-284z" />
    <glyph glyph-name="figuredash" unicode="&#x2012;" horiz-adv-x="1511" 
d="M1432 545h-1352v266h1352v-266z" />
    <glyph glyph-name="endash" unicode="&#x2013;" horiz-adv-x="1150" 
d="M1169 545h-1187v266h1187v-266z" />
    <glyph glyph-name="emdash" unicode="&#x2014;" horiz-adv-x="2379" 
d="M2398 545h-2416v266h2416v-266z" />
    <glyph glyph-name="afii00208" unicode="&#x2015;" horiz-adv-x="2379" 
d="M2169 545h-1960v266h1960v-266z" />
    <glyph glyph-name="uni2016" unicode="&#x2016;" horiz-adv-x="1185" 
d="M199 -266v1800h286v-1800h-286zM698 -266v1800h289v-1800h-289z" />
    <glyph glyph-name="underscoredbl" unicode="&#x2017;" horiz-adv-x="1427" 
d="M1341 -266h-1255v227h1255v-227zM1341 -573h-1255v227h1255v-227z" />
    <glyph glyph-name="quoteleft" unicode="&#x2018;" horiz-adv-x="722" 
d="M580 1626l188 -115q-100 -103 -138 -193t-38 -222v-144h-340v90q0 199 76 341t252 243z" />
    <glyph glyph-name="quoteright" unicode="&#x2019;" horiz-adv-x="722" 
d="M203 883l-189 114q100 103 138 193.5t38 222.5v143h340v-90q0 -199 -75.5 -340.5t-251.5 -242.5z" />
    <glyph glyph-name="quotesinglbase" unicode="&#x201a;" horiz-adv-x="722" 
d="M203 -340l-189 115q100 103 138 193t38 222v144h340v-90q0 -199 -75.5 -341t-251.5 -243z" />
    <glyph glyph-name="quotereversed" unicode="&#x201b;" horiz-adv-x="722" 
d="M449 1587l217 -631l-193 -49q-132 144 -274 432l-76 154z" />
    <glyph glyph-name="quotedblleft" unicode="&#x201c;" horiz-adv-x="1267" 
d="M967 1626l188 -115q-100 -103 -138 -193t-38 -222v-144h-340v90q0 199 76 341t252 243zM506 1626l188 -115q-100 -103 -138 -193t-38 -222v-144h-340v90q0 199 76 341t252 243z" />
    <glyph glyph-name="quotedblright" unicode="&#x201d;" horiz-adv-x="1267" 
d="M748 883l-189 114q100 103 138 193.5t38 222.5v143h340v-90q0 -199 -75.5 -340.5t-251.5 -242.5zM291 883l-189 114q100 103 138.5 193.5t38.5 222.5v143h339v-90q0 -199 -75.5 -340.5t-251.5 -242.5z" />
    <glyph glyph-name="quotedblbase" unicode="&#x201e;" horiz-adv-x="1267" 
d="M754 -340l-189 115q100 103 138 193t38 222v144h340v-90q0 -199 -75.5 -341t-251.5 -243zM299 -340l-188 115q100 103 138 193t38 222v144h340v-90q0 -199 -76 -341t-252 -243z" />
    <glyph glyph-name="uni201F" unicode="&#x201f;" horiz-adv-x="1267" 
d="M907 1587l217 -631l-192 -49q-134 146 -275 432l-75 154zM453 1587l217 -631l-193 -49q-132 144 -274 432l-76 154z" />
    <glyph glyph-name="dagger" unicode="&#x2020;" horiz-adv-x="1431" 
d="M1278 1188v-332h-334v-1124h-457v1124h-335v332h335v344h457v-344h334z" />
    <glyph glyph-name="daggerdbl" unicode="&#x2021;" horiz-adv-x="1431" 
d="M1278 406v-330h-334v-344h-457v344h-335v330h335v450h-335v332h335v344h457v-344h334v-332h-334v-450h334z" />
    <glyph glyph-name="bullet" unicode="&#x2022;" horiz-adv-x="1030" 
d="M182 680q0 140 87.5 220.5t244.5 80.5q159 0 246.5 -80t87.5 -221q0 -142 -87.5 -222.5t-246.5 -80.5q-157 0 -244.5 80.5t-87.5 222.5z" />
    <glyph glyph-name="onedotenleader" unicode="&#x2024;" horiz-adv-x="722" 
d="M190 2v332h340v-332h-340z" />
    <glyph glyph-name="twodotenleader" unicode="&#x2025;" horiz-adv-x="1525" 
d="M903 2v332h340v-332h-340zM276 2v332h340v-332h-340z" />
    <glyph glyph-name="ellipsis" unicode="&#x2026;" horiz-adv-x="2326" 
d="M1677 2v332h340v-332h-340zM993 2v332h340v-332h-340zM307 2v332h340v-332h-340z" />
    <glyph glyph-name="perthousand" unicode="&#x2030;" horiz-adv-x="3035" 
d="M152 1083q0 152 121 258.5t294 106.5t294.5 -106.5t121.5 -258.5t-121.5 -258t-294.5 -106t-294 106t-121 258zM412 1083q0 -60 42.5 -97.5t112.5 -37.5q69 0 111.5 37.5t42.5 97.5q0 59 -43 97.5t-111 38.5q-70 0 -112.5 -38.5t-42.5 -97.5zM1642 1272l-1044 -1221
l-137 109l1044 1220zM1120 350q0 151 121 258t293 107q173 0 294.5 -107t121.5 -258q0 -152 -121.5 -258t-294.5 -106q-172 0 -293 106t-121 258zM1380 350q0 -61 43 -98t111 -37q71 0 113.5 37t42.5 98q0 59 -43 96t-113 37q-68 0 -111 -37.5t-43 -95.5zM2062 350
q0 151 121 258t293 107q173 0 294.5 -107t121.5 -258q0 -152 -121.5 -258t-294.5 -106q-172 0 -293 106t-121 258zM2324 350q0 -61 42 -98t110 -37q71 0 113.5 37t42.5 98q0 59 -43 96t-113 37q-67 0 -109.5 -37t-42.5 -96z" />
    <glyph glyph-name="minute" unicode="&#x2032;" horiz-adv-x="804" 
d="M145 889l162 553l355 -86l-76 -154q-117 -236 -242 -358z" />
    <glyph glyph-name="second" unicode="&#x2033;" horiz-adv-x="1378" 
d="M145 889l162 553l355 -86l-76 -154q-117 -236 -242 -358zM719 889l162 553l354 -86l-76 -154q-118 -238 -241 -358z" />
    <glyph glyph-name="guilsinglleft" unicode="&#x2039;" horiz-adv-x="819" 
d="M86 557v164l141 82q208 119 387 180l105 -139l-328 -205l328 -207l-105 -139q-195 67 -387 180z" />
    <glyph glyph-name="guilsinglright" unicode="&#x203a;" horiz-adv-x="819" 
d="M731 721v-164l-141 -84q-175 -105 -387 -180l-105 139l330 207q-6 3 -165 102.5t-165 102.5l105 139q195 -67 387 -180z" />
    <glyph glyph-name="exclamdbl" unicode="&#x203c;" horiz-adv-x="1519" 
d="M856 440l-57 662v332h481v-332l-55 -662h-369zM821 0v311h439v-311h-439zM295 440l-57 662v332h481v-332l-55 -662h-369zM260 0v311h438v-311h-438z" />
    <glyph glyph-name="uni203E" unicode="&#x203e;" horiz-adv-x="862" 
d="M59 1212v218h742v-218h-742z" />
    <glyph glyph-name="fraction" unicode="&#x2044;" horiz-adv-x="436" 
d="M573 1458l193 -94l-903 -1389l-193 93z" />
    <glyph glyph-name="zerosuperior" unicode="&#x2070;" 
d="M961 963q0 -232 -117.5 -361t-337.5 -129q-222 0 -339.5 129t-117.5 361t117.5 360.5t339.5 128.5q220 0 337.5 -129t117.5 -360zM373 963q0 -129 31.5 -186.5t101.5 -57.5q69 0 100 57.5t31 186.5q0 128 -31 184.5t-100 56.5q-71 0 -102 -56t-31 -185z" />
    <glyph glyph-name="uni2071" unicode="&#x2071;" 
d="M356 485v674h299v-674h-299zM356 1249v209h299v-209h-299z" />
    <glyph glyph-name="foursuperior" unicode="&#x2074;" 
d="M45 651v244l430 541h365v-541h123v-244h-123v-166h-297v166h-498zM543 1186l-232 -291h232v291z" />
    <glyph glyph-name="fivesuperior" unicode="&#x2075;" 
d="M260 862l-104 49v525h718v-236h-421v-119q57 13 139 13q146 0 242 -81.5t96 -215.5q0 -155 -114 -241.5t-322 -86.5q-232 0 -404 164l129 125q95 -56 234 -56q68 0 107.5 21.5t39.5 58.5q0 97 -201 97q-73 0 -139 -17z" />
    <glyph glyph-name="sixsuperior" unicode="&#x2076;" 
d="M549 1237q-72 0 -117 -47t-51 -131q37 28 104 45.5t131 17.5q145 0 236.5 -82.5t91.5 -236.5q0 -150 -115 -242t-309 -92q-210 0 -328 121t-118 328q0 270 125 402t340 132q152 0 254.5 -76t130.5 -200h-246q-22 61 -129 61zM510 891q-76 0 -127 -33q16 -153 133 -153
q55 0 87 25.5t32 70.5q0 43 -33 66.5t-92 23.5z" />
    <glyph glyph-name="sevensuperior" unicode="&#x2077;" 
d="M897 1436v-248q-122 -186 -190.5 -350.5t-108.5 -352.5h-348q80 329 315 699h-456v252h788z" />
    <glyph glyph-name="eightsuperior" unicode="&#x2078;" 
d="M63 750q0 74 42.5 130.5t117.5 84.5q-114 76 -114 211q0 125 107 199.5t280 74.5q184 0 292.5 -73.5t108.5 -190.5q0 -132 -117 -197q87 -42 125.5 -97t38.5 -132q0 -131 -116.5 -212t-321.5 -81q-201 0 -322 78t-121 205zM365 766q0 -42 41.5 -68t107.5 -26q61 0 96 21
t35 55q0 30 -38 51.5t-161 66.5q-38 -19 -59.5 -47t-21.5 -53zM625 1167q0 39 -31.5 60.5t-89.5 21.5q-52 0 -83.5 -18t-31.5 -47q0 -31 35 -55t129 -56q72 51 72 94z" />
    <glyph glyph-name="ninesuperior" unicode="&#x2079;" 
d="M430 690q90 0 137 37t58 115q-36 -22 -96.5 -34.5t-114.5 -12.5q-148 0 -248 83.5t-100 235.5q0 151 114.5 244.5t306.5 93.5q210 0 328.5 -122.5t118.5 -330.5q0 -137 -33 -240.5t-93 -166t-139 -93t-177 -30.5q-214 0 -375 158l88 116q94 -53 225 -53zM498 1026
q85 0 127 33q-13 155 -131 155q-55 0 -87 -26t-32 -70t32.5 -68t90.5 -24z" />
    <glyph glyph-name="uni207A" unicode="&#x207a;" 
d="M381 621v247h-281v191h281v248h244v-248h282v-191h-282v-247h-244z" />
    <glyph glyph-name="uni207B" unicode="&#x207b;" 
d="M907 868h-807v191h807v-191z" />
    <glyph glyph-name="uni207C" unicode="&#x207c;" 
d="M907 1020h-807v192h807v-192zM907 713h-807v192h807v-192z" />
    <glyph glyph-name="uni207D" unicode="&#x207d;" 
d="M295 961q0 325 229 587l207 -80q-182 -248 -182 -507q0 -263 182 -508l-207 -80q-229 262 -229 588z" />
    <glyph glyph-name="uni207E" unicode="&#x207e;" 
d="M715 961q0 -327 -228 -588l-206 80q182 249 182 508q0 255 -182 507l206 80q228 -261 228 -587z" />
    <glyph glyph-name="uni207F" unicode="&#x207f;" 
d="M514 979q-24 0 -52 -8.5t-38 -18.5v-467h-307v680h245l46 -78q42 42 119.5 68.5t148.5 26.5q100 0 158.5 -62t58.5 -172v-463h-307v441q0 53 -72 53z" />
    <glyph glyph-name="zeroinferior" unicode="&#x2080;" 
d="M961 219q0 -231 -117.5 -360t-337.5 -129q-222 0 -339.5 128.5t-117.5 360.5t117.5 361t339.5 129q220 0 337.5 -129t117.5 -361zM373 219q0 -129 31.5 -186.5t101.5 -57.5q69 0 100 57.5t31 186.5t-31 185.5t-100 56.5q-71 0 -102 -56.5t-31 -185.5z" />
    <glyph glyph-name="oneinferior" unicode="&#x2081;" 
d="M760 -258h-311v653l-197 -116l-143 174l372 239h279v-950z" />
    <glyph glyph-name="twoinferior" unicode="&#x2082;" 
d="M575 379q0 38 -28 59t-82 21q-51 0 -83.5 -26.5t-37.5 -70.5h-266q10 168 121.5 256.5t294.5 88.5q186 0 294.5 -84t108.5 -215q0 -118 -75 -217t-236 -209h313v-240h-793v188q225 138 347 257.5t122 191.5z" />
    <glyph glyph-name="threeinferior" unicode="&#x2083;" 
d="M418 -55q166 0 166 92q0 49 -53.5 75.5t-147.5 26.5h-82v191h80q89 0 133.5 24t44.5 66q0 29 -29.5 47t-78.5 18q-46 0 -78 -18t-39 -51h-250q20 138 120.5 214.5t264.5 76.5q190 0 299 -72t109 -193q0 -70 -40.5 -125t-113.5 -81q80 -27 128 -86t48 -142
q0 -125 -107.5 -203.5t-306.5 -78.5q-114 0 -220.5 50t-180.5 134l119 104q95 -69 215 -69z" />
    <glyph glyph-name="fourinferior" unicode="&#x2084;" 
d="M45 -92v244l430 540h365v-540h123v-244h-123v-166h-297v166h-498zM543 442l-232 -290h232v290z" />
    <glyph glyph-name="fiveinferior" unicode="&#x2085;" 
d="M260 119l-104 49v524h718v-235h-421v-119q53 12 139 12q146 0 242 -81.5t96 -215.5q0 -155 -114 -241t-322 -86q-233 0 -404 163l129 125q94 -55 234 -55q68 0 107.5 21.5t39.5 58.5q0 96 -201 96q-77 0 -139 -16z" />
    <glyph glyph-name="sixinferior" unicode="&#x2086;" 
d="M549 494q-72 0 -117 -47.5t-51 -131.5q37 29 104.5 46.5t130.5 17.5q144 0 236 -83t92 -237q0 -150 -115 -241.5t-309 -91.5q-210 0 -328 120.5t-118 327.5q0 270 125.5 402.5t339.5 132.5q152 0 254.5 -76.5t130.5 -200.5h-246q-22 62 -129 62zM510 147q-77 0 -127 -32
q16 -154 133 -154q55 0 87 25.5t32 70.5q0 43 -33 66.5t-92 23.5z" />
    <glyph glyph-name="seveninferior" unicode="&#x2087;" 
d="M897 692v-248q-122 -186 -190.5 -350t-108.5 -352h-348q79 327 315 698h-456v252h788z" />
    <glyph glyph-name="eightinferior" unicode="&#x2088;" 
d="M63 6q0 74 42.5 130.5t117.5 84.5q-114 76 -114 211q0 125 107 200t280 75q183 0 292 -74t109 -191q0 -132 -117 -196q87 -42 125.5 -97.5t38.5 -132.5q0 -130 -116.5 -211t-321.5 -81q-201 0 -322 77.5t-121 204.5zM365 23q0 -43 41.5 -69t107.5 -26q61 0 96 21t35 55
q0 30 -38.5 52.5t-160.5 66.5q-38 -19 -59.5 -47t-21.5 -53zM625 424q0 39 -31.5 60.5t-89.5 21.5q-52 0 -83.5 -18.5t-31.5 -47.5q0 -31 34.5 -54.5t129.5 -55.5q72 51 72 94z" />
    <glyph glyph-name="nineinferior" unicode="&#x2089;" 
d="M430 -53q91 0 137.5 36.5t57.5 114.5q-36 -22 -96.5 -34.5t-114.5 -12.5q-96 0 -173 34.5t-126 108.5t-49 177q0 151 114.5 244.5t306.5 93.5q210 0 328.5 -122.5t118.5 -330.5q0 -137 -33 -240.5t-93 -166t-139 -93t-177 -30.5q-215 0 -375 157l88 117q94 -53 225 -53z
M498 283q87 0 127 32q-14 156 -131 156q-55 0 -87 -26t-32 -70t32.5 -68t90.5 -24z" />
    <glyph glyph-name="uni208A" unicode="&#x208a;" 
d="M381 -123v248h-281v190h281v248h244v-248h282v-190h-282v-248h-244z" />
    <glyph glyph-name="uni208B" unicode="&#x208b;" 
d="M907 125h-807v190h807v-190z" />
    <glyph glyph-name="uni208C" unicode="&#x208c;" 
d="M907 276h-807v193h807v-193zM907 -31h-807v193h807v-193z" />
    <glyph glyph-name="uni208D" unicode="&#x208d;" 
d="M295 217q0 326 229 588l207 -80q-182 -248 -182 -508q0 -263 182 -508l-207 -80q-229 262 -229 588z" />
    <glyph glyph-name="uni208E" unicode="&#x208e;" 
d="M715 217q0 -327 -228 -588l-206 80q182 249 182 508q0 256 -182 508l206 80q228 -261 228 -588z" />
    <glyph glyph-name="uni2090" unicode="&#x2090;" 
d="M604 133v55q0 47 -32.5 74t-86.5 27q-85 0 -112 -56h-262q35 112 130 174t275 62q195 0 295 -80t100 -223v-229q0 -39 58 -39h28v-158q-48 -10 -120 -10q-98 0 -158 19t-94 67q-105 -99 -273 -99q-125 0 -199.5 68t-74.5 178q0 105 73 161t201 56t252 -47zM604 -76v68
q-43 35 -147 35q-56 0 -89.5 -19t-33.5 -51q0 -34 33 -53t90 -19q102 0 147 39z" />
    <glyph glyph-name="uni2091" unicode="&#x2091;" 
d="M930 92q0 -9 -2 -32t-2 -31h-541q8 -47 56 -74t132 -27q99 0 181 49l135 -96q-80 -78 -165 -115.5t-198 -37.5q-204 0 -326 101t-122 265q0 161 119.5 264t306.5 103q188 0 307 -103t119 -266zM504 258q-53 0 -84.5 -23.5t-34.5 -68.5h238q-6 92 -119 92z" />
    <glyph glyph-name="uni2092" unicode="&#x2092;" 
d="M504 -61q63 0 99 39t36 114q0 76 -36 116t-99 40q-62 0 -97.5 -40t-35.5 -116q0 -75 35.5 -114t97.5 -39zM504 461q207 0 327.5 -101.5t120.5 -267.5q0 -165 -120.5 -264.5t-327.5 -99.5q-204 0 -325.5 100t-121.5 264q0 166 121.5 267.5t325.5 101.5z" />
    <glyph glyph-name="uni2093" unicode="&#x2093;" 
d="M643 -256l-137 201l-139 -201h-340l268 358l-252 342h332l131 -186l131 186h330l-250 -342l268 -358h-342z" />
    <glyph glyph-name="uni2094" unicode="&#x2094;" 
d="M78 94q0 24 4 64h541q-8 48 -56.5 75t-134.5 27q-101 0 -178 -49l-133 96q79 79 162.5 116.5t197.5 37.5q205 0 327 -101.5t122 -265.5q0 -162 -118.5 -264t-305.5 -102q-190 0 -309 101.5t-119 264.5zM506 -72q52 0 83 24t34 68h-240q3 -44 34.5 -68t88.5 -24z" />
    <glyph glyph-name="uni20A0" unicode="&#x20a0;" horiz-adv-x="1867" 
d="M66 938q0 244 165.5 382t446.5 138q210 0 355.5 -90.5t199.5 -232.5h-352q-26 31 -76 49t-109 18q-122 0 -199 -70t-77 -194q0 -123 80 -192.5t207 -69.5q68 0 129 19t98 53v256h848v-226h-498v-157h455v-226h-455v-172h514v-223h-864v479q-47 -28 -129.5 -43.5
t-159.5 -15.5q-258 0 -418.5 141.5t-160.5 376.5z" />
    <glyph glyph-name="colonmonetary" unicode="&#x20a1;" horiz-adv-x="1708" 
d="M666 -109l36 107q-44 4 -114 27l-56 -162l-106 28l59 170q-197 90 -303 259t-106 397q0 333 214.5 532t596.5 205q53 0 78 -2l55 158l108 -29l-49 -141q29 -4 113 -27l68 197l108 -29l-72 -209q150 -74 242 -204.5t115 -297.5h-449q-11 56 -45 109l-225 -651
q152 0 256.5 48.5t189.5 143.5q80 -45 236 -139q-251 -404 -690 -404q-52 0 -113 7l-41 -121zM963 1102l-248 -715q53 -34 106 -47l252 727q-47 26 -110 35zM561 717q0 -141 66 -242l219 625q-135 -19 -210 -119t-75 -264z" />
    <glyph glyph-name="uni20A2" unicode="&#x20a2;" horiz-adv-x="1708" 
d="M1380 520l236 -139q-251 -404 -690 -404q-397 0 -623.5 201t-226.5 539q0 166 56 302.5t161 233.5t261.5 150t350.5 53q158 0 290.5 -42.5t225.5 -119t152 -179.5t80 -226h-449q-57 215 -299 215q-163 0 -253.5 -102t-90.5 -285q0 -130 53 -222t150 -135v455h227
q41 -93 47 -110q36 58 117.5 93.5t173.5 35.5h35v-213h-43q-86 0 -156.5 -27t-107.5 -74v-182q187 33 323 182z" />
    <glyph glyph-name="franc" unicode="&#x20a3;" horiz-adv-x="1357" 
d="M23 889h141v545h1171v-336h-688v-209h551v-135h-551v-111h551v-135h-551v-508h-483v508h-141v135h141v111h-141v135z" />
    <glyph glyph-name="lira" unicode="&#x20a4;" horiz-adv-x="1486" 
d="M66 899h178v80q0 235 153.5 357t446.5 122q256 0 411 -120.5t177 -319.5h-431q-22 86 -133 86q-143 0 -143 -156v-49h408v-137h-408v-109h408v-137h-420q-27 -116 -99 -168h828v-348h-1372v336q140 64 163 180h-167v137h178v109h-178v137z" />
    <glyph glyph-name="uni20A6" unicode="&#x20a6;" horiz-adv-x="1828" 
d="M0 797v137h152v500h436l377 -500h184v500h469v-500h213v-137h-213v-160h213v-137h-213v-500h-438l-377 500h-185v-500h-466v500h-152v137h152v160h-152zM1067 797l82 -107v107h-82zM618 743v-106h80z" />
    <glyph glyph-name="peseta" unicode="&#x20a7;" horiz-adv-x="1556" 
d="M1556 868h-63q-27 -209 -211 -313t-487 -104h-162v-451h-481v868h-129v136h129v430h643q305 0 489.5 -108t210.5 -322h61v-136zM633 1100v-96h368q-37 96 -223 96h-145zM778 782q172 0 219 86h-364v-86h145z" />
    <glyph glyph-name="uni20A8" unicode="&#x20a8;" horiz-adv-x="2711" 
d="M633 508v-508h-481v1434h593q211 0 366 -49t245 -155t90 -261q0 -251 -246 -371l365 -598h-521l-260 508h-151zM1522 760q0 148 150 236.5t415 88.5q504 0 586 -350h-430q-14 37 -43 58.5t-70 21.5q-35 0 -55.5 -13t-20.5 -36q0 -28 44.5 -52t162.5 -59
q219 -65 318.5 -142t99.5 -206q0 -145 -149.5 -238.5t-401.5 -93.5q-377 0 -629 261l156 137q182 -125 399 -125q92 0 92 47q0 29 -37 50.5t-147 51.5q-229 62 -334.5 145.5t-105.5 217.5zM633 829h129q87 0 148 35t61 105q0 73 -55 108t-154 35h-129v-283z" />
    <glyph glyph-name="uni20A9" unicode="&#x20a9;" horiz-adv-x="2537" 
d="M1040 1434h457l154 -541h223q22 80 59 210t60 212.5t32 118.5h488l-172 -541h201v-137h-244l-37 -119h281v-137h-324l-158 -500h-555l-133 500h-211l-131 -500h-555l-158 500h-317v137h274l-38 119h-236v137h193l-170 541h489l150 -541h225zM700 756l74 -262l74 262h-148
zM1763 494q6 27 72 262h-145zM1268 901l-70 -264h139z" />
    <glyph glyph-name="afii57636" unicode="&#x20aa;" horiz-adv-x="2226" 
d="M152 0v1434h780q288 0 455 -150t167 -436v-344h-354v319q0 102 -21.5 171t-66.5 109t-107.5 56.5t-152.5 16.5h-348v-1176h-352zM2075 1434v-1434h-781q-288 0 -455 150t-167 436v342h354v-320q0 -102 21 -170.5t66.5 -108t107 -55.5t151.5 -16h350v1176h353z" />
    <glyph glyph-name="dong" unicode="&#x20ab;" horiz-adv-x="1570" 
d="M76 500q0 132 38.5 234t108 164.5t161 94t202.5 31.5q102 0 207.5 -30.5t177.5 -86.5v228h-402v174h402v180h459v-180h149v-174h-149v-1135h-371l-68 113q-70 -63 -183.5 -100.5t-213.5 -37.5q-113 0 -205.5 30.5t-163.5 92.5t-110 164t-39 238zM338 -330v176h1077v-176
h-1077zM770 711q-114 0 -172.5 -47.5t-58.5 -163.5q0 -117 58.5 -165t172.5 -48q53 0 110.5 17t90.5 44v301q-32 28 -90 45t-111 17z" />
    <glyph glyph-name="Euro" unicode="&#x20ac;" horiz-adv-x="1789" 
d="M1464 520l236 -139q-120 -193 -293.5 -298.5t-396.5 -105.5q-333 0 -549.5 144t-278.5 397h-159v137h139q-4 18 -4 62v57h-135v137h157q61 255 270.5 400t536.5 145q317 0 515 -161t233 -425h-449q-40 234 -299 234q-234 0 -307 -193h455l-48 -137h-440q-4 -36 -4 -55
q0 -28 4 -64h402l-50 -137h-315q41 -92 128 -142t208 -50q149 0 254 50t190 144z" />
    <glyph glyph-name="Ruble" unicode="&#x20bd;" horiz-adv-x="1556" 
d="M983 213h-350v-213h-481v213h-129v156h129v82h-129v331h129v652h643q329 0 516.5 -124t187.5 -370q0 -164 -88.5 -275t-244 -162.5t-371.5 -51.5h-162v-82h350v-156zM1014 940q0 86 -60 123t-176 37h-145v-318h145q236 0 236 158z" />
    <glyph glyph-name="afii61248" unicode="&#x2105;" horiz-adv-x="2650" 
d="M2046 236q82 0 127 50.5t45 153.5q0 104 -45 155.5t-127 51.5q-81 0 -126.5 -51.5t-45.5 -155.5q0 -103 45.5 -153.5t126.5 -50.5zM2046 903q254 0 406.5 -125.5t152.5 -337.5q0 -210 -152.5 -335t-406.5 -125t-406.5 125t-152.5 335q0 212 152.5 337.5t406.5 125.5z
M752 66q205 312 905 1390l192 -90l-903 -1389zM45 987q0 203 152 333t399 130q204 0 331.5 -101t151.5 -257h-348q-20 84 -106 84q-89 0 -142 -48t-53 -141q0 -95 51.5 -152t143.5 -57q160 0 262 105l184 -105q-76 -117 -199 -186.5t-280 -69.5q-249 0 -398 130t-149 335z
" />
    <glyph glyph-name="uni2109" unicode="&#x2109;" horiz-adv-x="2029" 
d="M836 0v1434h1171v-336h-688v-234h602v-336h-602v-528h-483zM334 1458q139 0 235.5 -82.5t96.5 -201.5t-96.5 -202t-235.5 -83q-141 0 -237.5 83t-96.5 202t96.5 201.5t237.5 82.5zM334 1079q57 0 92 26.5t35 68.5q0 41 -35 67.5t-92 26.5q-58 0 -93.5 -26t-35.5 -68
t35.5 -68.5t93.5 -26.5z" />
    <glyph glyph-name="afii61289" unicode="&#x2113;" horiz-adv-x="1523" 
d="M1339 952q0 -219 -105.5 -395t-293.5 -278q27 -17 78 -17q47 0 93.5 18t76.5 50l246 -197q-83 -76 -205 -117t-271 -41q-112 0 -221.5 34.5t-199.5 96.5q-165 -52 -377 -77l-94 329q134 19 227 41q-111 208 -111 459q0 281 158.5 439.5t445.5 158.5q260 0 406.5 -142
t146.5 -362zM623 844q0 -166 55 -285q111 85 167 188t56 240q0 85 -31.5 123.5t-83.5 38.5q-74 0 -118.5 -74t-44.5 -231z" />
    <glyph glyph-name="afii61352" unicode="&#x2116;" horiz-adv-x="2480" 
d="M152 0v1434h409l393 -813v813h389v-1434h-409l-393 811v-811h-389zM1491 700q0 192 121 307t330 115q211 0 332.5 -115t121.5 -307q0 -193 -121.5 -307t-332.5 -114q-210 0 -330.5 114t-120.5 307zM2413 217v-217h-930v217h930zM1804 700q0 -84 36.5 -127t101.5 -43
q139 0 139 170q0 168 -139 168q-65 0 -101.5 -42t-36.5 -126z" />
    <glyph glyph-name="uni2117" unicode="&#x2117;" horiz-adv-x="1927" 
d="M1454 836q0 -153 -114.5 -230.5t-321.5 -77.5h-113v-262h-295v875h408q207 0 321.5 -77t114.5 -228zM1176 836q0 62 -37.5 91t-114.5 29h-119v-245h119q152 0 152 125zM1833 717q0 -151 -69 -288.5t-186 -237t-278 -158t-337 -58.5t-337 58.5t-277.5 158t-185.5 237
t-69 288.5t69 288.5t185.5 236.5t277 157.5t337.5 58.5q236 0 436 -99t317 -269.5t117 -372.5zM1718 717q0 130 -58.5 247.5t-158 202.5t-240 135t-298.5 50q-210 0 -384 -85t-273 -230.5t-99 -319.5t99 -319.5t273 -230.5t384 -85q158 0 298.5 50t240 135t158 202.5
t58.5 247.5z" />
    <glyph glyph-name="uni2120" unicode="&#x2120;" horiz-adv-x="1759" 
d="M49 887l84 82q79 -54 186 -54q46 0 71.5 9.5t25.5 25.5t-30.5 32t-121.5 42q-205 55 -205 213q0 94 78 149.5t211 55.5q110 0 183 -58.5t81 -152.5h-174q-3 22 -24.5 34.5t-55.5 12.5q-32 0 -50.5 -10t-18.5 -25q0 -19 29.5 -33.5t123.5 -42.5q201 -60 201 -211
q0 -96 -80 -152t-209 -56q-81 0 -161.5 35.5t-143.5 103.5zM1012 758h-295v676h317l176 -322l176 322h318v-676h-295v280l-92 -166h-213l-92 166v-280z" />
    <glyph glyph-name="uni2121" unicode="&#x2121;" horiz-adv-x="2875" 
d="M360 0v1094h-325v340h1098v-340h-326v-1094h-447zM2140 528q0 -34 -8 -92h-690q6 -78 63.5 -126t153.5 -48q159 0 276 88l158 -162q-184 -213 -463 -213q-285 0 -442.5 154t-157.5 401q0 250 147.5 402.5t407.5 152.5q261 0 408 -153t147 -404zM2300 0v1495h424v-1495
h-424zM1585 817q-140 0 -143 -182h284q-6 182 -141 182z" />
    <glyph glyph-name="trademark" unicode="&#x2122;" horiz-adv-x="1738" 
d="M1116 868l-155 244v-354h-228v676h254l205 -351l205 351h254v-676h-226v354l-155 -244h-154zM203 758v510h-201v166h629v-166h-201v-510h-227z" />
    <glyph glyph-name="Omega" unicode="&#x2126;" horiz-adv-x="1806" 
d="M901 1458q192 0 348.5 -48.5t261 -134.5t161.5 -205.5t57 -260.5q0 -144 -72.5 -280t-198.5 -220h254v-309h-719v301q248 169 248 432q0 170 -86.5 270.5t-253.5 100.5q-164 0 -250 -100.5t-86 -270.5q0 -263 248 -432v-301h-719v309h254q-126 84 -198 219.5t-72 280.5
q0 141 56.5 260.5t161 205.5t260 134.5t345.5 48.5z" />
    <glyph glyph-name="estimated" unicode="&#x212e;" horiz-adv-x="1724" 
d="M938 104q144 0 269 30t208 85l121 -82q-118 -77 -272.5 -119.5t-323.5 -42.5q-218 0 -384.5 55.5t-270 155.5t-155.5 234t-52 297q0 122 33.5 233t101 203.5t162 160.5t224 106t280.5 38q180 0 327 -58.5t242.5 -160.5t147 -238.5t51.5 -293.5v-62h-1096v-465
q146 -76 387 -76zM868 1327q-190 0 -317 -67v-484h635v484q-131 67 -318 67z" />
    <glyph glyph-name="onethird" unicode="&#x2153;" horiz-adv-x="2627" 
d="M1679 1458l193 -94l-903 -1389l-193 93zM760 485h-311v654l-197 -117l-143 174l372 240h279v-951zM2032 203q166 0 166 92q0 49 -53.5 75.5t-147.5 26.5h-82v191h80q89 0 133.5 24t44.5 66q0 29 -30 47t-79 18q-45 0 -77 -18t-39 -51h-250q20 138 120.5 214.5t264.5 76.5
q190 0 298.5 -72t108.5 -193q0 -70 -40 -125t-113 -81q80 -27 128 -86t48 -142q0 -125 -107.5 -203.5t-306.5 -78.5q-114 0 -220.5 50t-180.5 134l119 104q95 -69 215 -69z" />
    <glyph glyph-name="twothirds" unicode="&#x2154;" horiz-adv-x="2627" 
d="M1679 1458l193 -94l-903 -1389l-193 93zM575 1122q0 38 -28 59t-82 21q-51 0 -84 -26t-37 -70h-266q10 168 121.5 256t294.5 88q186 0 294.5 -84t108.5 -215q0 -118 -75 -217t-236 -209h313v-240h-793v189q226 138 347.5 257t121.5 191zM2032 203q166 0 166 92
q0 49 -53.5 75.5t-147.5 26.5h-82v191h80q89 0 133.5 24t44.5 66q0 29 -30 47t-79 18q-45 0 -77 -18t-39 -51h-250q20 138 120.5 214.5t264.5 76.5q190 0 298.5 -72t108.5 -193q0 -70 -40 -125t-113 -81q80 -27 128 -86t48 -142q0 -125 -107.5 -203.5t-306.5 -78.5
q-114 0 -220.5 50t-180.5 134l119 104q95 -69 215 -69z" />
    <glyph glyph-name="onefifth" unicode="&#x2155;" horiz-adv-x="2627" 
d="M1679 1458l193 -94l-903 -1389l-193 93zM760 485h-311v654l-197 -117l-143 174l372 240h279v-951zM1872 377l-105 49v524h719v-235h-422v-119q52 12 140 12q146 0 242 -81.5t96 -215.5q0 -154 -114.5 -240.5t-322.5 -86.5q-232 0 -403 163l129 125q94 -55 233 -55
q68 0 108 21.5t40 58.5q0 96 -201 96q-77 0 -139 -16z" />
    <glyph glyph-name="twofifths" unicode="&#x2156;" horiz-adv-x="2627" 
d="M1679 1458l193 -94l-903 -1389l-193 93zM575 1122q0 38 -28 59t-82 21q-51 0 -84 -26t-37 -70h-266q10 168 121.5 256t294.5 88q186 0 294.5 -84t108.5 -215q0 -118 -75 -217t-236 -209h313v-240h-793v189q226 138 347.5 257t121.5 191zM1872 377l-105 49v524h719v-235
h-422v-119q52 12 140 12q146 0 242 -81.5t96 -215.5q0 -154 -114.5 -240.5t-322.5 -86.5q-232 0 -403 163l129 125q94 -55 233 -55q68 0 108 21.5t40 58.5q0 96 -201 96q-77 0 -139 -16z" />
    <glyph glyph-name="threefifths" unicode="&#x2157;" horiz-adv-x="2627" 
d="M1679 1458l193 -94l-903 -1389l-193 93zM1872 377l-105 49v524h719v-235h-422v-119q52 12 140 12q146 0 242 -81.5t96 -215.5q0 -154 -114.5 -240.5t-322.5 -86.5q-232 0 -403 163l129 125q94 -55 233 -55q68 0 108 21.5t40 58.5q0 96 -201 96q-77 0 -139 -16zM418 688
q166 0 166 92q0 49 -54 76t-147 27h-82v190h80q89 0 133.5 24t44.5 66q0 29 -29.5 47.5t-78.5 18.5q-45 0 -77.5 -18.5t-39.5 -51.5h-250q20 138 120.5 214.5t264.5 76.5q190 0 299 -71.5t109 -192.5q0 -70 -40.5 -125.5t-113.5 -81.5q80 -28 128 -86t48 -141
q0 -125 -107.5 -204t-306.5 -79q-114 0 -220.5 50t-180.5 134l119 105q96 -70 215 -70z" />
    <glyph glyph-name="fourfifths" unicode="&#x2158;" horiz-adv-x="2627" 
d="M1679 1458l193 -94l-903 -1389l-193 93zM1872 377l-105 49v524h719v-235h-422v-119q52 12 140 12q146 0 242 -81.5t96 -215.5q0 -154 -114.5 -240.5t-322.5 -86.5q-232 0 -403 163l129 125q94 -55 233 -55q68 0 108 21.5t40 58.5q0 96 -201 96q-77 0 -139 -16zM45 651
v244l430 541h365v-541h123v-244h-123v-166h-297v166h-498zM543 1186l-232 -291h232v291z" />
    <glyph glyph-name="onesixth" unicode="&#x2159;" horiz-adv-x="2627" 
d="M1679 1458l193 -94l-903 -1389l-193 93zM760 485h-311v654l-197 -117l-143 174l372 240h279v-951zM2161 752q-72 0 -117 -47.5t-51 -131.5q37 29 104.5 46.5t130.5 17.5q144 0 236 -83t92 -237q0 -150 -115 -241.5t-309 -91.5q-210 0 -328 120.5t-118 327.5
q0 270 125 402.5t339 132.5q152 0 254.5 -76.5t130.5 -200.5h-245q-22 62 -129 62zM2122 406q-76 0 -127 -33q16 -154 133 -154q55 0 87 25.5t32 70.5q0 43 -33 67t-92 24z" />
    <glyph glyph-name="fivesixths" unicode="&#x215a;" horiz-adv-x="2627" 
d="M1679 1458l193 -94l-903 -1389l-193 93zM2161 752q-72 0 -117 -47.5t-51 -131.5q37 29 104.5 46.5t130.5 17.5q144 0 236 -83t92 -237q0 -150 -115 -241.5t-309 -91.5q-210 0 -328 120.5t-118 327.5q0 270 125 402.5t339 132.5q152 0 254.5 -76.5t130.5 -200.5h-245
q-22 62 -129 62zM2122 406q-76 0 -127 -33q16 -154 133 -154q55 0 87 25.5t32 70.5q0 43 -33 67t-92 24zM260 862l-104 49v525h718v-236h-421v-119q57 13 139 13q146 0 242 -81.5t96 -215.5q0 -155 -114 -241.5t-322 -86.5q-232 0 -404 164l129 125q95 -56 234 -56
q68 0 107.5 21.5t39.5 58.5q0 97 -201 97q-73 0 -139 -17z" />
    <glyph glyph-name="oneeighth" unicode="&#x215b;" horiz-adv-x="2627" 
d="M1679 1458l193 -94l-903 -1389l-193 93zM760 485h-311v654l-197 -117l-143 174l372 240h279v-951zM1673 264q0 74 42.5 130.5t117.5 84.5q-115 76 -115 211q0 125 107 200t280 75q183 0 292.5 -74t109.5 -191q0 -132 -117 -196q87 -42 125.5 -97.5t38.5 -132.5
q0 -130 -116.5 -211t-321.5 -81q-201 0 -322 77.5t-121 204.5zM1974 281q0 -43 42 -69t108 -26q61 0 96 21t35 55q0 30 -38.5 52.5t-160.5 66.5q-38 -19 -60 -47.5t-22 -52.5zM2234 682q0 39 -31 60.5t-89 21.5q-52 0 -83.5 -18.5t-31.5 -47.5q0 -31 34.5 -54.5t129.5 -55.5
q71 50 71 94z" />
    <glyph glyph-name="threeeighths" unicode="&#x215c;" horiz-adv-x="2627" 
d="M1679 1458l193 -94l-903 -1389l-193 93zM1673 264q0 74 42.5 130.5t117.5 84.5q-115 76 -115 211q0 125 107 200t280 75q183 0 292.5 -74t109.5 -191q0 -132 -117 -196q87 -42 125.5 -97.5t38.5 -132.5q0 -130 -116.5 -211t-321.5 -81q-201 0 -322 77.5t-121 204.5z
M1974 281q0 -43 42 -69t108 -26q61 0 96 21t35 55q0 30 -38.5 52.5t-160.5 66.5q-38 -19 -60 -47.5t-22 -52.5zM2234 682q0 39 -31 60.5t-89 21.5q-52 0 -83.5 -18.5t-31.5 -47.5q0 -31 34.5 -54.5t129.5 -55.5q71 50 71 94zM418 688q166 0 166 92q0 49 -54 76t-147 27h-82
v190h80q89 0 133.5 24t44.5 66q0 29 -29.5 47.5t-78.5 18.5q-45 0 -77.5 -18.5t-39.5 -51.5h-250q20 138 120.5 214.5t264.5 76.5q190 0 299 -71.5t109 -192.5q0 -70 -40.5 -125.5t-113.5 -81.5q80 -28 128 -86t48 -141q0 -125 -107.5 -204t-306.5 -79q-114 0 -220.5 50
t-180.5 134l119 105q96 -70 215 -70z" />
    <glyph glyph-name="fiveeighths" unicode="&#x215d;" horiz-adv-x="2627" 
d="M1679 1458l193 -94l-903 -1389l-193 93zM260 862l-104 49v525h718v-236h-421v-119q57 13 139 13q146 0 242 -81.5t96 -215.5q0 -155 -114 -241.5t-322 -86.5q-232 0 -404 164l129 125q95 -56 234 -56q68 0 107.5 21.5t39.5 58.5q0 97 -201 97q-73 0 -139 -17zM1673 264
q0 74 42.5 130.5t117.5 84.5q-115 76 -115 211q0 125 107 200t280 75q183 0 292.5 -74t109.5 -191q0 -132 -117 -196q87 -42 125.5 -97.5t38.5 -132.5q0 -130 -116.5 -211t-321.5 -81q-201 0 -322 77.5t-121 204.5zM1974 281q0 -43 42 -69t108 -26q61 0 96 21t35 55
q0 30 -38.5 52.5t-160.5 66.5q-38 -19 -60 -47.5t-22 -52.5zM2234 682q0 39 -31 60.5t-89 21.5q-52 0 -83.5 -18.5t-31.5 -47.5q0 -31 34.5 -54.5t129.5 -55.5q71 50 71 94z" />
    <glyph glyph-name="seveneighths" unicode="&#x215e;" horiz-adv-x="2627" 
d="M1679 1458l193 -94l-903 -1389l-193 93zM1673 264q0 74 42.5 130.5t117.5 84.5q-115 76 -115 211q0 125 107 200t280 75q183 0 292.5 -74t109.5 -191q0 -132 -117 -196q87 -42 125.5 -97.5t38.5 -132.5q0 -130 -116.5 -211t-321.5 -81q-201 0 -322 77.5t-121 204.5z
M1974 281q0 -43 42 -69t108 -26q61 0 96 21t35 55q0 30 -38.5 52.5t-160.5 66.5q-38 -19 -60 -47.5t-22 -52.5zM2234 682q0 39 -31 60.5t-89 21.5q-52 0 -83.5 -18.5t-31.5 -47.5q0 -31 34.5 -54.5t129.5 -55.5q71 50 71 94zM897 1436v-248q-122 -186 -190.5 -350.5
t-108.5 -352.5h-348q80 329 315 699h-456v252h788z" />
    <glyph glyph-name="uni215F" unicode="&#x215f;" horiz-adv-x="2627" 
d="M1679 1458l193 -94l-903 -1389l-193 93zM760 485h-311v654l-197 -117l-143 174l372 240h279v-951z" />
    <glyph glyph-name="arrowleft" unicode="&#x2190;" horiz-adv-x="2035" 
d="M61 680l601 459l-66 -281h1370v-360h-1370l66 -281z" />
    <glyph glyph-name="arrowup" unicode="&#x2191;" horiz-adv-x="2035" 
d="M1018 1522l567 -518l-375 57v-1139h-389v1139l-375 -57z" />
    <glyph glyph-name="arrowright" unicode="&#x2192;" horiz-adv-x="2035" 
d="M1372 1139l602 -459l-602 -463l66 281h-1368v360h1368q-5 26 -33 141t-33 140z" />
    <glyph glyph-name="arrowdown" unicode="&#x2193;" horiz-adv-x="2035" 
d="M1585 453l-567 -519l-572 519l375 -60v1143h389v-1143z" />
    <glyph glyph-name="arrowboth" unicode="&#x2194;" horiz-adv-x="2035" 
d="M1372 1139l602 -459l-602 -463l66 281h-842q5 -25 33 -140t33 -141l-601 463l601 459l-66 -281h842q-5 26 -33 141t-33 140z" />
    <glyph glyph-name="arrowupdn" unicode="&#x2195;" horiz-adv-x="2035" 
d="M1585 451l-567 -519l-572 519l375 -58v668l-375 -60l572 521l567 -521l-375 60v-668z" />
    <glyph glyph-name="arrowupdnbse" unicode="&#x21a8;" horiz-adv-x="2035" 
d="M1585 451l-467 -426h422v-205h-1048v205h421l-467 426l375 -58v668l-375 -60l572 521l567 -521l-375 60v-668z" />
    <glyph glyph-name="partialdiff" unicode="&#x2202;" horiz-adv-x="1464" 
d="M580 932q85 0 177 -24.5t150 -71.5q-14 161 -87.5 238t-184.5 77q-153 0 -229 -96l-295 143q88 121 237.5 190.5t333.5 69.5q156 0 282 -46t218 -138t142 -237.5t50 -336.5q0 -351 -182 -538t-508 -187q-172 0 -310.5 58.5t-222 176t-83.5 275.5q0 198 142.5 322.5
t369.5 124.5zM705 311q176 0 200 226q-82 57 -200 57q-87 0 -133 -37t-46 -102q0 -70 48.5 -107t130.5 -37z" />
    <glyph glyph-name="Delta" unicode="&#x2206;" horiz-adv-x="1630" 
d="M729 1436h170l709 -1317l-95 -119h-1398l-95 119zM547 332h534l-266 504z" />
    <glyph glyph-name="product" unicode="&#x220f;" horiz-adv-x="1820" 
d="M1669 1516v-1743h-483v1388h-551v-1388h-483v1743h1517z" />
    <glyph glyph-name="summation" unicode="&#x2211;" horiz-adv-x="1474" 
d="M68 98l415 572l-415 520v326h1362v-332h-828l373 -461v-105l-363 -514h818v-331h-1362v325z" />
    <glyph glyph-name="minus" unicode="&#x2212;" horiz-adv-x="1431" 
d="M1323 545h-1214v266h1214v-266z" />
    <glyph glyph-name="uni2215" unicode="&#x2215;" horiz-adv-x="436" 
d="M571 1458l193 -94l-903 -1389l-193 93z" />
    <glyph glyph-name="uni2219" unicode="&#x2219;" horiz-adv-x="720" 
d="M188 512v332h340v-332h-340z" />
    <glyph glyph-name="radical" unicode="&#x221a;" horiz-adv-x="1572" 
d="M195 776h352l268 -379l383 1180h315l-505 -1577h-258l-383 561h-172v215z" />
    <glyph glyph-name="infinity" unicode="&#x221e;" horiz-adv-x="1921" 
d="M961 492q-200 -156 -435 -156q-197 0 -307 93.5t-110 244.5q0 149 110 242.5t307 93.5q237 0 435 -160q198 160 434 160q197 0 307 -93.5t110 -242.5q0 -151 -110 -244.5t-307 -93.5q-234 0 -434 156zM1362 772q-121 0 -250 -100q128 -99 250 -99q67 0 102 27t35 74
t-34.5 72.5t-102.5 25.5zM559 772q-68 0 -102.5 -25.5t-34.5 -72.5t35 -74t102 -27q119 0 250 99q-132 100 -250 100z" />
    <glyph glyph-name="orthogonal" unicode="&#x221f;" horiz-adv-x="1583" 
d="M1559 311v-311h-1364v1178h456v-867h908z" />
    <glyph glyph-name="intersection" unicode="&#x2229;" horiz-adv-x="1839" 
d="M920 1264q177 0 316 -46.5t228 -131t135 -199t46 -252.5v-635h-443v623q0 327 -282 327q-281 0 -281 -327v-623h-444v635q0 138 46.5 252.5t135.5 198.5t228 131t315 47z" />
    <glyph glyph-name="integral" unicode="&#x222b;" horiz-adv-x="1124" 
d="M14 -438v284q43 -2 119 -2q112 0 155.5 24.5t43.5 82.5v1196q0 201 126 295t392 94q148 0 260 -14v-285q-45 2 -119 2q-111 0 -155.5 -24t-44.5 -80v-1196q0 -201 -126 -295.5t-393 -94.5q-128 0 -258 13z" />
    <glyph glyph-name="approxequal" unicode="&#x2248;" horiz-adv-x="1431" 
d="M1016 1120l358 -49q-26 -170 -133.5 -264t-265.5 -94q-70 0 -212.5 51t-203.5 51q-56 0 -93.5 -25t-49.5 -69l-359 49q26 170 133 263t267 93q71 0 210 -50t205 -50q115 0 144 94zM1016 639l358 -49q-26 -171 -133.5 -265t-265.5 -94q-70 0 -212.5 51.5t-203.5 51.5
q-56 0 -93.5 -25t-49.5 -69l-359 49q26 170 133 263t267 93q71 0 210 -50t205 -50q115 0 144 94z" />
    <glyph glyph-name="notequal" unicode="&#x2260;" horiz-adv-x="1431" 
d="M1323 303h-772l-201 -285l-155 78l149 207h-235v266h423l154 217h-577v267h770l202 282l154 -78l-148 -204h236v-267h-426l-154 -217h580v-266z" />
    <glyph glyph-name="equivalence" unicode="&#x2261;" horiz-adv-x="1431" 
d="M1323 926h-1214v266h1214v-266zM1323 545h-1214v266h1214v-266zM1323 166h-1214v264h1214v-264z" />
    <glyph glyph-name="lessequal" unicode="&#x2264;" horiz-adv-x="1431" 
d="M1288 1012l-725 -203l725 -205l-47 -215q-336 32 -897 184l-235 64v342l235 63q571 154 897 185zM1329 0h-1227v264h1227v-264z" />
    <glyph glyph-name="greaterequal" unicode="&#x2265;" horiz-adv-x="1431" 
d="M1329 0h-1227v264h1227v-264zM866 809l-725 203l47 215q326 -31 897 -185l236 -63v-342l-236 -64q-561 -152 -897 -184l-47 215z" />
    <glyph glyph-name="house" unicode="&#x2302;" horiz-adv-x="1619" 
d="M809 1251l616 -573v-678h-1230v678zM809 829l-274 -247v-361h546v361z" />
    <glyph glyph-name="revlogicalnot" unicode="&#x2310;" horiz-adv-x="1431" 
d="M1335 932v-266h-866v-355h-348v621h1214z" />
    <glyph glyph-name="uni2318" unicode="&#x2318;" horiz-adv-x="2191" 
d="M1497 766v-172h86q184 0 298 -80.5t114 -222.5q0 -134 -101.5 -218.5t-283.5 -84.5q-183 0 -283 89t-100 240v50h-264v-50q0 -151 -100.5 -240t-284.5 -89q-181 0 -282 85t-101 218q0 142 113.5 222.5t297.5 80.5h86v172h-86q-184 0 -297.5 80.5t-113.5 222.5
q0 135 101 220t282 85q184 0 284.5 -90t100.5 -242v-49h264v49q0 152 100 242t283 90q182 0 283.5 -85t101.5 -220q0 -142 -114 -222.5t-298 -80.5h-86zM963 766v-172h264v172h-264zM1710 1071q0 29 -28.5 49.5t-71.5 20.5q-56 0 -85.5 -26t-29.5 -75v-49h78q70 0 103.5 19
t33.5 61zM475 291q0 -30 29 -51t74 -21q114 0 114 103v47h-78q-139 0 -139 -78zM1714 291q0 78 -141 78h-78v-47q0 -103 115 -103q45 0 74.5 21t29.5 51zM475 1071q0 -80 139 -80h78v49q0 101 -114 101q-45 0 -74 -20.5t-29 -49.5z" />
    <glyph glyph-name="lozenge" unicode="&#x25ca;" horiz-adv-x="1267" 
d="M631 -295l-582 913l582 914l583 -914zM631 145l305 473l-305 467l-301 -467z" />
    <glyph glyph-name="H18533" unicode="&#x25cf;" horiz-adv-x="2379" 
d="M379 668q0 187 109 346.5t296 252.5t406 93t406 -93t296 -252.5t109 -346.5q0 -140 -64.5 -268.5t-173 -221.5t-259 -148t-314.5 -55t-314.5 55t-259 148t-173 221.5t-64.5 268.5z" />
    <glyph glyph-name="fi" horiz-adv-x="1736" 
d="M1135 0v752h-451v-752h-459v752h-211v309h211v45q0 201 125 295t391 94q139 0 195 -6v-291h-76q-95 0 -135.5 -24t-40.5 -80v-33h909v-1061h-458zM1135 1196v297h458v-297h-458z" />
    <glyph glyph-name="fl" horiz-adv-x="1728" 
d="M1130 0v1180q-108 18 -270 18q-93 0 -134.5 -25.5t-41.5 -78.5v-33h283v-309h-283v-752h-459v752h-211v309h211v45q0 203 114.5 295t373.5 92q95 0 212.5 -13t204.5 -34v49h459v-1495h-459z" />
    <glyph glyph-name="commaaccent" horiz-adv-x="862" 
d="M231 -508l142 416l258 -74l-51 -106q-87 -180 -191 -281z" />
    <glyph glyph-name="zero.tnum" horiz-adv-x="1525" 
d="M1454 717q0 -343 -174.5 -542.5t-503.5 -199.5q-219 0 -373 93t-229.5 258.5t-75.5 390.5t75.5 390t229.5 258t373 93q329 0 503.5 -199t174.5 -542zM987 717q0 213 -53 305t-158 92q-104 0 -157.5 -92.5t-53.5 -304.5q0 -213 53.5 -305.5t157.5 -92.5q105 0 158 92
t53 306z" />
    <glyph glyph-name="one.tnum" horiz-adv-x="1239" 
d="M254 778l-227 285l573 371h414v-1434h-463v969z" />
    <glyph glyph-name="two.tnum" horiz-adv-x="1406" 
d="M846 991q0 54 -43 86.5t-111 32.5q-83 0 -130 -47t-48 -145h-418q1 260 163 401t452 141q270 0 434 -120.5t164 -338.5q0 -85 -41 -177t-112.5 -178t-155.5 -163t-183 -149h518v-334h-1208v289q719 476 719 702z" />
    <glyph glyph-name="three.tnum" horiz-adv-x="1425" 
d="M836 1022q0 44 -45 72t-121 28q-84 0 -139 -35t-56 -96h-401q2 208 169 335.5t445 127.5q168 0 302.5 -49t212 -140.5t77.5 -209.5q0 -104 -58.5 -182t-166.5 -123q280 -96 280 -336q0 -192 -175.5 -314.5t-481.5 -122.5q-181 0 -355 85t-284 235l227 154
q75 -70 178 -108t199 -38q111 0 175.5 33.5t64.5 93.5q0 73 -78 109.5t-211 36.5h-129v313h127q108 0 176 36.5t68 94.5z" />
    <glyph glyph-name="four.tnum" horiz-adv-x="1468" 
d="M49 233v304l766 897h436v-887h207v-314h-207v-233h-450v233h-752zM801 926l-344 -379h344v379z" />
    <glyph glyph-name="five.tnum" horiz-adv-x="1400" 
d="M295 592l-121 59v783h1065v-328h-635v-174q48 14 174 14q110 0 209 -33t175.5 -93.5t121.5 -153.5t45 -205q0 -212 -173 -349t-472 -137q-182 0 -343.5 79t-279.5 233l218 147q140 -129 360 -129q105 0 166 45.5t61 118.5q0 85 -70 130.5t-182 45.5q-181 0 -319 -53z" />
    <glyph glyph-name="six.tnum" horiz-adv-x="1505" 
d="M801 1122q-78 0 -139.5 -61t-77.5 -184q58 35 147 56t180 21q151 0 268.5 -56t187 -167t69.5 -262q0 -223 -173 -358.5t-458 -135.5q-330 0 -512 175.5t-182 519.5q0 388 177 588t503 200q253 0 414.5 -117.5t189.5 -308.5h-432q-12 41 -54 65.5t-108 24.5zM774 625
q-112 0 -194 -52q6 -145 58.5 -203.5t152.5 -58.5q86 0 134 42t48 116q0 156 -199 156z" />
    <glyph glyph-name="seven.tnum" horiz-adv-x="1368" 
d="M1313 1434v-316q-206 -298 -331.5 -554t-197.5 -564h-485q145 565 522 1085h-737v349h1229z" />
    <glyph glyph-name="eight.tnum" horiz-adv-x="1527" 
d="M100 399q0 111 65.5 194.5t186.5 133.5q-180 121 -180 320q0 185 165.5 298t430.5 113q280 0 446 -111t166 -282q0 -97 -46.5 -174.5t-137.5 -126.5q134 -66 196 -149.5t62 -198.5q0 -196 -180.5 -317.5t-495.5 -121.5q-306 0 -492 117t-186 305zM567 422
q0 -64 62.5 -102.5t161.5 -38.5q95 0 145.5 30t50.5 82q0 51 -58.5 87t-242.5 102q-56 -33 -87.5 -76t-31.5 -84zM963 1030q0 61 -49.5 96t-133.5 35q-76 0 -123 -29t-47 -75q0 -47 52 -83t194 -85q107 73 107 141z" />
    <glyph glyph-name="nine.tnum" horiz-adv-x="1488" 
d="M647 311q253 0 283 244q-56 -36 -145.5 -57t-180.5 -21q-230 0 -377 130.5t-147 355.5q0 223 173.5 359t459.5 136q329 0 510.5 -175.5t181.5 -516.5q0 -390 -183 -590.5t-517 -200.5q-156 0 -302.5 65.5t-265.5 186.5l199 174q148 -90 311 -90zM737 782q117 0 213 62
q-13 278 -221 278q-94 0 -146.5 -45t-52.5 -125q0 -79 55 -124.5t152 -45.5z" />
    <glyph glyph-name="parenleft.case" horiz-adv-x="948" 
d="M195 717q0 257 102.5 496t288.5 425l288 -120q-141 -176 -218.5 -379.5t-77.5 -421.5q0 -220 77.5 -423.5t218.5 -377.5l-288 -123q-186 186 -288.5 426t-102.5 498z" />
    <glyph glyph-name="parenright.case" horiz-adv-x="948" 
d="M754 717q0 -258 -103.5 -498t-290.5 -426l-286 123q295 365 295 801q0 433 -295 801l286 120q188 -186 291 -425t103 -496z" />
    <glyph glyph-name="hyphen.case" horiz-adv-x="913" 
d="M803 573h-694v285h694v-285z" />
    <glyph glyph-name="at.case" horiz-adv-x="2340" 
d="M586 711q0 138 79.5 250.5t211.5 174.5t288 62q257 0 398 -112.5t141 -335.5v-168q0 -136 137 -136q92 0 143.5 79t51.5 225q0 201 -110.5 362.5t-309 253.5t-447.5 92q-177 0 -334.5 -52t-275.5 -146t-187 -235t-69 -308q0 -165 68 -305t184.5 -235t275.5 -148.5
t338 -53.5q339 0 531 134l108 -113q-129 -85 -294.5 -130.5t-344.5 -45.5q-224 0 -418.5 70t-329 190.5t-211.5 285.5t-77 351t76.5 351t210.5 285.5t328.5 190.5t420.5 70q234 0 431 -70t328 -188.5t203.5 -275t72.5 -330.5q0 -234 -124.5 -364t-359.5 -130
q-252 0 -346 133q-53 -61 -154 -98t-192 -37q-207 0 -324.5 122t-117.5 335zM1149 489q109 0 184 60v168q0 113 -44.5 164t-135.5 51q-195 0 -195 -221q0 -112 44 -167t147 -55z" />
    <glyph glyph-name="bracketleft.case" horiz-adv-x="1024" 
d="M236 -184v1802h765v-262h-387v-1280h387v-260h-765z" />
    <glyph glyph-name="bracketright.case" horiz-adv-x="1024" 
d="M788 1618v-1802h-765v260h387v1280h-387v262h765z" />
    <glyph glyph-name="braceleft.case" horiz-adv-x="999" 
d="M115 584v260q95 0 155 55t60 154v223q0 66 17.5 118t46 87.5t72.5 61t88.5 40t104 22.5t108 10.5t110.5 2.5l55 -199l-107 -39q-118 -45 -118 -141v-197q0 -133 -60.5 -214t-187.5 -113q248 -66 248 -324v-201q0 -53 29.5 -84.5t90.5 -54.5l105 -39l-55 -200
q-62 0 -111 2.5t-108 11t-103.5 22.5t-88.5 39.5t-72.5 60t-46 85t-17.5 114.5v228q0 99 -60 154t-155 55z" />
    <glyph glyph-name="braceright.case" horiz-adv-x="999" 
d="M883 844v-260q-95 0 -155 -55t-60 -154v-223q0 -75 -22 -133t-64 -94t-90.5 -59.5t-116.5 -34.5t-125 -15t-131 -4l-53 200l104 39q61 23 91 54.5t30 84.5v195q0 133 60.5 214.5t187.5 115.5q-127 32 -187.5 113t-60.5 214v197q0 96 -121 141l-104 39l53 199
q63 0 113.5 -2.5t109.5 -11t103.5 -23t88 -40.5t72 -60.5t45.5 -85.5t17 -115v-227q0 -99 60 -154t155 -55z" />
    <glyph glyph-name="exclamdown.case" horiz-adv-x="798" 
d="M158 332l57 661h369l55 -661v-332h-481v332zM180 1122v312h438v-312h-438z" />
    <glyph glyph-name="guillemotleft.case" horiz-adv-x="1474" 
d="M86 635v164l141 82q195 112 387 180l105 -139l-328 -205l328 -207l-105 -139q-195 67 -387 180zM739 635v164l140 82q189 111 387 180l104 -139l-328 -205l328 -207l-104 -139q-208 73 -387 180z" />
    <glyph glyph-name="periodcentered.case" horiz-adv-x="722" 
d="M190 547v332h340v-332h-340z" />
    <glyph glyph-name="guillemotright.case" horiz-adv-x="1474" 
d="M1384 799v-164l-139 -84q-173 -105 -387 -180l-104 139l327 207l-327 205l104 139q208 -73 387 -180zM733 799v-164l-143 -84q-183 -107 -385 -180l-105 139l328 207l-328 205l105 139q190 -65 385 -180z" />
    <glyph glyph-name="questiondown.case" horiz-adv-x="1349" 
d="M680 -27q-265 0 -420.5 106t-155.5 290q0 128 71.5 224.5t225.5 180.5q72 39 98.5 75.5t26.5 92.5v49h293q72 -75 72 -182q0 -179 -178 -262q-88 -42 -127 -80t-39 -80q0 -39 39 -61.5t106 -22.5q155 0 158 125h403q-3 -209 -150.5 -332t-422.5 -123zM895 1432v-312h-436
v312h436z" />
    <glyph glyph-name="endash.case" horiz-adv-x="1150" 
d="M1169 582h-1187v266h1187v-266z" />
    <glyph glyph-name="emdash.case" horiz-adv-x="2379" 
d="M2398 582h-2416v266h2416v-266z" />
    <glyph glyph-name="bullet.case" horiz-adv-x="1030" 
d="M182 717q0 140 87.5 220.5t244.5 80.5q159 0 246.5 -80t87.5 -221q0 -142 -87.5 -222.5t-246.5 -80.5q-157 0 -244.5 80.5t-87.5 222.5z" />
    <glyph glyph-name="guilsinglleft.case" horiz-adv-x="819" 
d="M86 635v164l141 82q208 119 387 180l105 -139l-328 -205l328 -207l-105 -139q-195 67 -387 180z" />
    <glyph glyph-name="guilsinglright.case" horiz-adv-x="819" 
d="M731 799v-164l-141 -84q-175 -105 -387 -180l-105 139l330 207q-6 3 -165 102.5t-165 102.5l105 139q195 -67 387 -180z" />
    <glyph glyph-name="zero.numerator" 
d="M961 963q0 -232 -117.5 -361t-337.5 -129q-222 0 -339.5 129t-117.5 361t117.5 360.5t339.5 128.5q220 0 337.5 -129t117.5 -360zM373 963q0 -129 31.5 -186.5t101.5 -57.5q69 0 100 57.5t31 186.5q0 128 -31 184.5t-100 56.5q-71 0 -102 -56t-31 -185z" />
    <glyph glyph-name="one.numerator" 
d="M760 485h-311v654l-197 -117l-143 174l372 240h279v-951z" />
    <glyph glyph-name="two.numerator" 
d="M575 1122q0 38 -28 59t-82 21q-51 0 -84 -26t-37 -70h-266q10 168 121.5 256t294.5 88q186 0 294.5 -84t108.5 -215q0 -118 -75 -217t-236 -209h313v-240h-793v189q226 138 347.5 257t121.5 191z" />
    <glyph glyph-name="three.numerator" 
d="M418 688q166 0 166 92q0 49 -54 76t-147 27h-82v190h80q89 0 133.5 24t44.5 66q0 29 -29.5 47.5t-78.5 18.5q-45 0 -77.5 -18.5t-39.5 -51.5h-250q20 138 120.5 214.5t264.5 76.5q190 0 299 -71.5t109 -192.5q0 -70 -40.5 -125.5t-113.5 -81.5q80 -28 128 -86t48 -141
q0 -125 -107.5 -204t-306.5 -79q-114 0 -220.5 50t-180.5 134l119 105q96 -70 215 -70z" />
    <glyph glyph-name="four.numerator" 
d="M45 651v244l430 541h365v-541h123v-244h-123v-166h-297v166h-498zM543 1186l-232 -291h232v291z" />
    <glyph glyph-name="five.numerator" 
d="M260 862l-104 49v525h718v-236h-421v-119q57 13 139 13q146 0 242 -81.5t96 -215.5q0 -155 -114 -241.5t-322 -86.5q-232 0 -404 164l129 125q95 -56 234 -56q68 0 107.5 21.5t39.5 58.5q0 97 -201 97q-73 0 -139 -17z" />
    <glyph glyph-name="six.numerator" 
d="M549 1237q-72 0 -117 -47t-51 -131q37 28 104 45.5t131 17.5q145 0 236.5 -82.5t91.5 -236.5q0 -150 -115 -242t-309 -92q-210 0 -328 121t-118 328q0 270 125 402t340 132q152 0 254.5 -76t130.5 -200h-246q-22 61 -129 61zM510 891q-76 0 -127 -33q16 -153 133 -153
q55 0 87 25.5t32 70.5q0 43 -33 66.5t-92 23.5z" />
    <glyph glyph-name="seven.numerator" 
d="M897 1436v-248q-122 -186 -190.5 -350.5t-108.5 -352.5h-348q80 329 315 699h-456v252h788z" />
    <glyph glyph-name="eight.numerator" 
d="M63 750q0 74 42.5 130.5t117.5 84.5q-114 76 -114 211q0 125 107 199.5t280 74.5q184 0 292.5 -73.5t108.5 -190.5q0 -132 -117 -197q87 -42 125.5 -97t38.5 -132q0 -131 -116.5 -212t-321.5 -81q-201 0 -322 78t-121 205zM365 766q0 -42 41.5 -68t107.5 -26q61 0 96 21
t35 55q0 30 -38 51.5t-161 66.5q-38 -19 -59.5 -47t-21.5 -53zM625 1167q0 39 -31.5 60.5t-89.5 21.5q-52 0 -83.5 -18t-31.5 -47q0 -31 35 -55t129 -56q72 51 72 94z" />
    <glyph glyph-name="nine.numerator" 
d="M430 690q90 0 137 37t58 115q-36 -22 -96.5 -34.5t-114.5 -12.5q-148 0 -248 83.5t-100 235.5q0 151 114.5 244.5t306.5 93.5q210 0 328.5 -122.5t118.5 -330.5q0 -137 -33 -240.5t-93 -166t-139 -93t-177 -30.5q-214 0 -375 158l88 116q94 -53 225 -53zM498 1026
q85 0 127 33q-13 155 -131 155q-55 0 -87 -26t-32 -70t32.5 -68t90.5 -24z" />
    <glyph glyph-name="zero.denominator" 
d="M961 477q0 -231 -117.5 -360t-337.5 -129q-222 0 -339.5 128.5t-117.5 360.5t117.5 361t339.5 129q220 0 337.5 -129t117.5 -361zM373 477q0 -129 31.5 -186.5t101.5 -57.5q69 0 100 57.5t31 186.5t-31 185.5t-100 56.5q-71 0 -102 -56.5t-31 -185.5z" />
    <glyph glyph-name="one.denominator" 
d="M760 0h-311v653l-197 -116l-143 174l372 239h279v-950z" />
    <glyph glyph-name="two.denominator" 
d="M575 637q0 38 -28 59t-82 21q-51 0 -84 -26t-37 -70h-266q10 168 121.5 256t294.5 88q186 0 294.5 -84t108.5 -215q0 -118 -75 -217t-236 -209h313v-240h-793v188q225 138 347 257.5t122 191.5z" />
    <glyph glyph-name="three.denominator" 
d="M418 203q166 0 166 92q0 49 -53.5 75.5t-147.5 26.5h-82v191h80q89 0 133.5 24t44.5 66q0 29 -29.5 47t-78.5 18q-46 0 -78 -18t-39 -51h-250q20 138 120.5 214.5t264.5 76.5q190 0 299 -72t109 -193q0 -70 -40.5 -125t-113.5 -81q80 -27 128 -86t48 -142
q0 -125 -107.5 -203.5t-306.5 -78.5q-114 0 -220.5 50t-180.5 134l119 104q95 -69 215 -69z" />
    <glyph glyph-name="four.denominator" 
d="M45 166v244l430 540h365v-540h123v-244h-123v-166h-297v166h-498zM543 700l-232 -290h232v290z" />
    <glyph glyph-name="five.denominator" 
d="M260 377l-104 49v524h718v-235h-421v-119q53 12 139 12q146 0 242 -81.5t96 -215.5q0 -155 -114 -241t-322 -86q-233 0 -404 163l129 125q94 -55 234 -55q68 0 107.5 21.5t39.5 58.5q0 96 -201 96q-77 0 -139 -16z" />
    <glyph glyph-name="six.denominator" 
d="M549 752q-72 0 -117 -47.5t-51 -131.5q37 29 104.5 46.5t130.5 17.5q144 0 236 -83t92 -237q0 -150 -115 -241.5t-309 -91.5q-210 0 -328 120.5t-118 327.5q0 270 125.5 402.5t339.5 132.5q152 0 254.5 -76.5t130.5 -200.5h-246q-22 62 -129 62zM510 406q-76 0 -127 -33
q16 -154 133 -154q55 0 87 25.5t32 70.5q0 43 -33 67t-92 24z" />
    <glyph glyph-name="seven.denominator" 
d="M897 950v-248q-122 -186 -190.5 -350t-108.5 -352h-348q79 327 315 698h-456v252h788z" />
    <glyph glyph-name="eight.denominator" 
d="M63 264q0 74 42.5 130.5t117.5 84.5q-114 76 -114 211q0 125 107 200t280 75q183 0 292 -74t109 -191q0 -132 -117 -196q87 -42 125.5 -97.5t38.5 -132.5q0 -130 -116.5 -211t-321.5 -81q-201 0 -322 77.5t-121 204.5zM365 281q0 -43 41.5 -69t107.5 -26q61 0 96 21
t35 55q0 30 -38.5 52.5t-160.5 66.5q-38 -19 -59.5 -47t-21.5 -53zM625 682q0 39 -31.5 60.5t-89.5 21.5q-52 0 -83.5 -18.5t-31.5 -47.5q0 -31 34.5 -54.5t129.5 -55.5q72 51 72 94z" />
    <glyph glyph-name="nine.denominator" 
d="M430 205q91 0 137.5 36.5t57.5 114.5q-36 -22 -96.5 -34.5t-114.5 -12.5q-96 0 -173 34.5t-126 108.5t-49 177q0 151 114.5 244.5t306.5 93.5q210 0 328.5 -122.5t118.5 -330.5q0 -137 -33 -240.5t-93 -166t-139 -93t-177 -30.5q-215 0 -375 157l88 117q94 -53 225 -53z
M498 541q87 0 127 32q-14 156 -131 156q-55 0 -87 -26t-32 -70t32.5 -68t90.5 -24z" />
    </font>
</defs>
</svg>
