<?xml version="1.0" standalone="no"?>
<!DOCTYPE svg PUBLIC "-//W3C//DTD SVG 1.1//EN" "http://www.w3.org/Graphics/SVG/1.1/DTD/svg11.dtd" >
<svg xmlns="http://www.w3.org/2000/svg" xmlns:xlink="http://www.w3.org/1999/xlink" version="1.1">
<metadata>
Created by FontForge 20170731 at Mon Jan 31 18:50:36 2022
 By Aleksey,,,
Copyright (c) 2016 by Hyun-Seung Lee. All rights reserved.
</metadata>
<defs>
<font id="ArticoExpandedBlack" horiz-adv-x="1024" >
  <font-face 
    font-family="Artico Expanded Black"
    font-weight="900"
    font-stretch="expanded"
    units-per-em="2048"
    panose-1="2 11 10 5 3 3 2 2 2 4"
    ascent="1638"
    descent="-410"
    x-height="1061"
    cap-height="1434"
    bbox="-1085 -582 2953 2077"
    underline-thickness="49"
    underline-position="-472"
    unicode-range="U+0008-FB04"
  />
<missing-glyph horiz-adv-x="1150" 
d="M997 0h-843v1536h843v-1536zM854 133v1270h-557v-1270h557z" />
    <glyph glyph-name="f_f" unicode="ff" horiz-adv-x="1984" 
d="M1972 1481v-303q-45 2 -121 2q-109 0 -151.5 -21.5t-42.5 -73.5v-24h291v-332h-291v-729h-500v729h-434v-729h-500v729h-209v332h209v37q0 205 129.5 301t405.5 96q166 0 268 -12v-305q-20 2 -108 2q-109 0 -152 -21.5t-43 -73.5v-24h434v37q0 205 129.5 301t405.5 96
q157 0 280 -14z" />
    <glyph glyph-name="f_i" unicode="fi" horiz-adv-x="1798" 
d="M1157 0v729h-434v-729h-500v729h-209v332h209v37q0 205 129.5 301t405.5 96q149 0 207 -6v-309h-72q-91 0 -130.5 -22t-39.5 -73v-24h934v-1061h-500zM1157 1188v307h500v-307h-500z" />
    <glyph glyph-name="f_l" unicode="fl" horiz-adv-x="1794" 
d="M1157 0v1161q-108 19 -264 19q-91 0 -130.5 -22t-39.5 -73v-24h278v-332h-278v-729h-500v729h-209v332h209v37q0 207 116.5 302t381.5 95q102 0 224.5 -14t211.5 -37v51h500v-1495h-500z" />
    <glyph glyph-name="f_f_i" unicode="ffi" horiz-adv-x="2732" 
d="M2091 0v729h-434v-729h-500v729h-434v-729h-500v729h-209v332h209v37q0 205 129.5 301t405.5 96q166 0 268 -12v-305q-20 2 -108 2q-109 0 -152 -21.5t-43 -73.5v-24h434v37q0 205 129.5 301t405.5 96q148 0 206 -6v-309h-71q-91 0 -130.5 -22t-39.5 -73v-24h934v-1061
h-500zM2091 1208v287h500v-287h-500z" />
    <glyph glyph-name="f_f_l" unicode="ffl" horiz-adv-x="2727" 
d="M2091 0v1161q-108 19 -264 19q-91 0 -130.5 -22t-39.5 -73v-24h278v-332h-278v-729h-500v729h-434v-729h-500v729h-209v332h209v37q0 205 129.5 301t405.5 96q166 0 268 -12v-305q-20 2 -108 2q-109 0 -152 -21.5t-43 -73.5v-24h434v37q0 207 116.5 302t381.5 95
q102 0 224.5 -14t211.5 -37v51h500v-1495h-500z" />
    <glyph glyph-name=".notdef" horiz-adv-x="1150" 
d="M997 0h-843v1536h843v-1536zM854 133v1270h-557v-1270h557z" />
    <glyph glyph-name=".null" horiz-adv-x="0" 
 />
    <glyph glyph-name=".null" horiz-adv-x="0" 
 />
    <glyph glyph-name=".null" horiz-adv-x="0" 
 />
    <glyph glyph-name="nonmarkingreturn" horiz-adv-x="682" 
 />
    <glyph glyph-name="CR" unicode="&#x9;" horiz-adv-x="698" 
 />
    <glyph glyph-name="CR" unicode="&#xd;" horiz-adv-x="698" 
 />
    <glyph glyph-name="space" unicode=" " horiz-adv-x="737" 
 />
    <glyph glyph-name="exclam" unicode="!" horiz-adv-x="827" 
d="M211 455l-57 653v326h520v-326l-58 -653h-405zM178 0v326h471v-326h-471z" />
    <glyph glyph-name="quotedbl" unicode="&#x22;" horiz-adv-x="1363" 
d="M238 831l-45 603h391v-74q0 -126 -40.5 -279t-99.5 -250h-206zM825 831l-45 603h391v-74q0 -126 -40 -279t-99 -250h-207z" />
    <glyph glyph-name="numbersign" unicode="#" horiz-adv-x="1871" 
d="M166 850v303h293l55 281h418l-58 -281h297l56 281h418l-58 -281h230v-303h-291l-53 -264h233v-303h-295l-57 -283h-416l55 283h-295l-57 -283h-416l56 283h-226v303h287l55 264h-231zM813 850l-53 -264h295l55 264h-297z" />
    <glyph glyph-name="dollar" unicode="$" horiz-adv-x="1507" 
d="M1442 1006l-481 -2q-15 46 -66.5 76t-118.5 30q-63 0 -100 -20.5t-37 -49.5q0 -38 49 -69.5t195 -69.5q110 -28 192 -58t154 -70.5t117.5 -88.5t71.5 -111.5t26 -140.5q0 -179 -133.5 -295.5t-378.5 -148.5h-19v-201h-313v205h-16q-144 27 -278.5 105t-239.5 190l204 182
q127 -79 230.5 -112t236.5 -33q88 0 133 21t45 58q0 28 -24.5 48t-92.5 44.5t-204 59.5q-137 35 -231.5 82t-148.5 107.5t-77.5 129t-23.5 154.5q0 164 114.5 275t329.5 143h18v203h314v-199h18q225 -30 362 -147.5t173 -296.5z" />
    <glyph glyph-name="percent" unicode="%" horiz-adv-x="2191" 
d="M150 1079q0 154 123 261.5t298 107.5t298.5 -107.5t123.5 -261.5q0 -153 -123.5 -260.5t-298.5 -107.5t-298 107t-123 261zM428 1079q0 -60 37.5 -95.5t105.5 -35.5q67 0 104.5 36t37.5 95q0 58 -38 94.5t-104 36.5q-67 0 -105 -36t-38 -95zM1696 1282l-1043 -1221
l-157 91l1044 1220zM1200 354q0 154 123.5 261.5t298.5 107.5t298.5 -107.5t123.5 -261.5q0 -153 -123.5 -260.5t-298.5 -107.5t-298.5 107.5t-123.5 260.5zM1481 354q0 -60 37.5 -95.5t103.5 -35.5q68 0 105.5 35.5t37.5 95.5q0 59 -38 95t-105 36q-66 0 -103.5 -36.5
t-37.5 -94.5z" />
    <glyph glyph-name="ampersand" unicode="&#x26;" horiz-adv-x="1775" 
d="M1319 1190l-283 -197l-80 74q-45 42 -76 56t-83 14t-85.5 -23t-33.5 -57q0 -36 61 -86l428 -355l199 132l297 -238l-201 -141l273 -234l-217 -164q-173 62 -340 168q-239 -164 -527 -164q-270 0 -418.5 117.5t-148.5 304.5q0 232 276 406q-106 115 -106 250
q0 174 141.5 289.5t386.5 115.5q131 0 248 -46.5t203 -133.5zM678 297q88 0 196 76l-229 190q-139 -72 -139 -149q0 -56 43.5 -86.5t128.5 -30.5z" />
    <glyph glyph-name="quotesingle" unicode="'" horiz-adv-x="753" 
d="M219 831l-43 603h391v-74q0 -129 -40 -282t-99 -247h-209z" />
    <glyph glyph-name="parenleft" unicode="(" horiz-adv-x="968" 
d="M190 635q0 257 104 498.5t292 427.5l311 -131q-138 -172 -215.5 -374.5t-77.5 -420.5t77.5 -420.5t215.5 -374.5l-311 -131q-188 186 -292 427.5t-104 498.5z" />
    <glyph glyph-name="parenright" unicode=")" horiz-adv-x="968" 
d="M778 635q0 -258 -104 -499t-291 -427l-311 131q138 172 215.5 374.5t77.5 420.5t-77.5 420.5t-215.5 374.5l311 131q187 -186 291 -427t104 -499z" />
    <glyph glyph-name="asterisk" unicode="*" horiz-adv-x="1312" 
d="M489 219l54 262l-262 -155l-140 262l248 92l-248 92l140 262l262 -155q-8 43 -27 131t-27 131h334l-51 -262l260 155l139 -262l-247 -92l247 -92l-139 -262l-260 155l51 -262h-334z" />
    <glyph glyph-name="plus" unicode="+" horiz-adv-x="1431" 
d="M530 156v383h-424v280h424v381h371v-381h424v-280h-424v-383h-371z" />
    <glyph glyph-name="comma" unicode="," horiz-adv-x="733" 
d="M209 -340l-199 117q100 105 139 197.5t39 228.5v149h357v-92q0 -207 -77 -352.5t-259 -247.5z" />
    <glyph glyph-name="hyphen" unicode="-" horiz-adv-x="913" 
d="M805 528h-699v301h699v-301z" />
    <glyph glyph-name="period" unicode="." horiz-adv-x="733" 
d="M188 2v350h357v-350h-357z" />
    <glyph glyph-name="slash" unicode="/" horiz-adv-x="1320" 
d="M1337 1417l-1024 -1691l-331 159l1026 1692z" />
    <glyph glyph-name="zero" unicode="0" horiz-adv-x="1544" 
d="M1460 717q0 -345 -177.5 -543.5t-510.5 -198.5t-510.5 198.5t-177.5 543.5t177 543t511 198t511 -198t177 -543zM954 717q0 205 -45.5 289t-136.5 84t-136.5 -84t-45.5 -289t45.5 -289t136.5 -84t136.5 84t45.5 289z" />
    <glyph glyph-name="one" unicode="1" horiz-adv-x="1544" 
d="M383 743l-250 308l590 383h451v-1434h-504v932z" />
    <glyph glyph-name="two" unicode="2" horiz-adv-x="1544" 
d="M866 985q0 45 -36 72.5t-91 27.5q-77 0 -116 -41t-39 -135h-451q0 265 164.5 408t460.5 143q276 0 443 -122t167 -343q0 -156 -128 -322.5t-329 -314.5h482v-358h-1229v307q702 459 702 678z" />
    <glyph glyph-name="three" unicode="3" horiz-adv-x="1544" 
d="M883 1016q0 36 -39.5 60t-106.5 24q-75 0 -123.5 -31t-48.5 -86h-434q0 211 171 341t456 130q171 0 308.5 -50.5t216.5 -143t79 -211.5q0 -203 -215 -299q270 -93 270 -330q0 -193 -179 -318t-490 -125q-182 0 -363 89.5t-291 242.5l246 162q75 -68 176.5 -104.5
t194.5 -36.5q102 0 159.5 28t57.5 80q0 65 -70.5 96t-193.5 31h-127v336h125q98 0 159.5 32t61.5 83z" />
    <glyph glyph-name="four" unicode="4" horiz-adv-x="1544" 
d="M66 221v326l755 887h473v-877h205v-336h-205v-221h-487v221h-741zM807 893l-309 -336h309v336z" />
    <glyph glyph-name="five" unicode="5" horiz-adv-x="1544" 
d="M367 580l-138 67v787h1088v-351h-623v-139q44 12 160 12q108 0 207.5 -33.5t176.5 -94t123 -154.5t46 -207q0 -215 -175.5 -353.5t-481.5 -138.5q-186 0 -352 82.5t-283 239.5l235 156q131 -123 348 -123q97 0 152 40t55 107q0 76 -63 117t-164 41q-178 0 -311 -55z" />
    <glyph glyph-name="six" unicode="6" horiz-adv-x="1544" 
d="M817 1098q-64 0 -118 -52t-70 -157q55 32 140 50.5t173 18.5q149 0 266 -55t186.5 -166.5t69.5 -263.5q0 -225 -175.5 -361.5t-465.5 -136.5q-337 0 -522.5 176t-185.5 517q0 387 180 588.5t510 201.5q259 0 422.5 -119.5t191.5 -312.5h-469q-11 33 -45 52.5t-88 19.5z
M788 606q-93 0 -163 -39q4 -129 49 -180t135 -51q71 0 111.5 36.5t40.5 100.5q0 133 -173 133z" />
    <glyph glyph-name="seven" unicode="7" horiz-adv-x="1544" 
d="M1395 1434v-334q-133 -192 -224 -350t-169 -348.5t-128 -401.5h-524q144 554 514 1059h-719v375h1250z" />
    <glyph glyph-name="eight" unicode="8" horiz-adv-x="1544" 
d="M82 401q0 108 65.5 190t184.5 130q-176 120 -176 321q0 189 168 303.5t436 114.5q286 0 456 -111.5t170 -283.5q0 -200 -178 -297q131 -64 191.5 -147.5t60.5 -196.5q0 -200 -182.5 -323.5t-505.5 -123.5q-311 0 -500.5 118t-189.5 306zM590 428q0 -57 54 -92t142 -35
q83 0 125.5 26.5t42.5 71.5q0 42 -57 79.5t-209 86.5q-46 -30 -72 -67t-26 -70zM936 1028q0 55 -44 86t-118 31q-66 0 -106.5 -25t-40.5 -65q0 -43 46 -76t171 -76q92 64 92 125z" />
    <glyph glyph-name="nine" unicode="9" horiz-adv-x="1544" 
d="M651 336q113 0 179 48t83 159q-55 -32 -139 -50t-172 -18q-149 0 -266 55.5t-186.5 167t-69.5 263.5q0 224 175.5 360.5t465.5 136.5q337 0 523 -176t186 -516q0 -388 -184.5 -589.5t-524.5 -201.5q-162 0 -313 68.5t-277 194.5l217 184q77 -44 146 -65t157 -21zM750 799
q103 0 186 49q-13 252 -197 252q-80 0 -126 -41t-46 -111q0 -69 48.5 -109t134.5 -40z" />
    <glyph glyph-name="colon" unicode=":" horiz-adv-x="733" 
d="M188 2v350h357v-350h-357zM188 711v350h357v-350h-357z" />
    <glyph glyph-name="semicolon" unicode=";" horiz-adv-x="733" 
d="M188 711v350h357v-350h-357zM209 -340l-199 117q100 105 139 197.5t39 228.5v149h357v-92q0 -207 -77 -352.5t-259 -247.5z" />
    <glyph glyph-name="less" unicode="&#x3c;" horiz-adv-x="1431" 
d="M213 528v295l233 119q265 133 629 240l109 -211l-537 -295l537 -295l-109 -211q-363 107 -626 240z" />
    <glyph glyph-name="equal" unicode="=" horiz-adv-x="1431" 
d="M1325 780h-1219v281h1219v-281zM1325 297h-1219v281h1219v-281z" />
    <glyph glyph-name="greater" unicode="&#x3e;" horiz-adv-x="1431" 
d="M1217 823v-295l-236 -118q-262 -133 -627 -240l-108 211l536 295l-536 295l108 211q364 -107 629 -240z" />
    <glyph glyph-name="question" unicode="?" horiz-adv-x="1368" 
d="M633 1458q270 0 429 -106.5t159 -292.5q0 -128 -72 -226.5t-227 -181.5q-68 -36 -92.5 -68.5t-24.5 -82.5v-45h-320q-75 65 -75 176q0 92 42 156.5t136 107.5q84 38 119.5 73t35.5 72q0 32 -33 50t-89 18q-140 0 -140 -113h-434q0 214 151 338.5t435 124.5zM403 0v326
h471v-326h-471z" />
    <glyph glyph-name="at" unicode="@" horiz-adv-x="2351" 
d="M582 555q0 139 82 252t216 174t289 61q262 0 406.5 -110t144.5 -334v-166q0 -68 31.5 -101.5t103.5 -33.5q87 0 138 76.5t51 220.5q0 149 -64.5 279t-178 223.5t-275.5 147.5t-350 54q-177 0 -334.5 -51.5t-276.5 -145t-188.5 -233.5t-69.5 -307q0 -164 68.5 -303
t185.5 -233.5t276.5 -147.5t338.5 -53q337 0 526 131l117 -113q-130 -86 -297 -132t-346 -46q-225 0 -420.5 70t-332 190.5t-214.5 285.5t-78 351t77.5 351t213.5 285.5t332 190.5t422 70q237 0 435.5 -70t330 -189.5t204 -276t72.5 -330.5q0 -237 -129 -365.5t-371 -128.5
q-257 0 -356 135q-50 -61 -150 -98t-190 -37q-205 0 -322.5 121.5t-117.5 335.5zM1157 344q99 0 162 47v172q0 108 -41 155.5t-121 47.5q-93 0 -133.5 -52t-40.5 -159t40.5 -159t133.5 -52z" />
    <glyph glyph-name="A" unicode="A" horiz-adv-x="1814" 
d="M1237 0l-68 221h-526l-65 -221h-558l537 1434h700l537 -1434h-557zM907 1028l-153 -450h307z" />
    <glyph glyph-name="B" unicode="B" horiz-adv-x="1609" 
d="M150 0v1434h673q319 0 478 -105t159 -297q0 -96 -52 -172t-142 -110q124 -34 202 -117t78 -199q0 -76 -21.5 -139.5t-72 -118.5t-127.5 -93.5t-193.5 -60.5t-265.5 -22h-716zM1016 453q0 61 -43.5 88.5t-136.5 27.5h-172v-233h172q93 0 136.5 28t43.5 89zM975 993
q0 55 -42 80t-132 25h-137v-209h137q90 0 132 24.5t42 79.5z" />
    <glyph glyph-name="C" unicode="C" horiz-adv-x="1730" 
d="M1380 539l250 -150q-120 -195 -294.5 -303.5t-399.5 -108.5q-404 0 -632 200.5t-228 539.5q0 167 55.5 303.5t160.5 233t263 149.5t356 53q321 0 522.5 -163.5t235.5 -434.5h-485q-36 221 -273 221q-149 0 -228 -95.5t-79 -266.5q0 -168 92.5 -265.5t251.5 -97.5
q146 0 246 48t186 137z" />
    <glyph glyph-name="D" unicode="D" horiz-adv-x="1742" 
d="M674 1057v-680h114q164 0 257.5 81.5t93.5 258.5t-93.5 258.5t-257.5 81.5h-114zM1669 717q0 -340 -236 -528.5t-653 -188.5h-630v1434h630q417 0 653 -188.5t236 -528.5z" />
    <glyph glyph-name="E" unicode="E" horiz-adv-x="1445" 
d="M150 0v1434h1189v-361h-663v-158h577v-360h-577v-195h686v-360h-1212z" />
    <glyph glyph-name="F" unicode="F" horiz-adv-x="1361" 
d="M150 0v1434h1189v-361h-663v-196h577v-361h-577v-516h-526z" />
    <glyph glyph-name="G" unicode="G" horiz-adv-x="1804" 
d="M1733 944l-535 -2q-22 66 -96.5 101.5t-167.5 35.5q-156 0 -243 -91t-87 -269t91.5 -271.5t250.5 -93.5q121 0 200 42t97 126h-299v287h805v-117q0 -345 -212.5 -531t-582.5 -186q-404 0 -639 202.5t-235 541.5q0 340 229.5 540.5t634.5 200.5q302 0 514.5 -142
t274.5 -374z" />
    <glyph glyph-name="H" unicode="H" horiz-adv-x="1810" 
d="M150 0v1434h524v-498h463v498h524v-1434h-524v559h-463v-559h-524z" />
    <glyph glyph-name="I" unicode="I" horiz-adv-x="841" 
d="M158 1434h524v-1434h-524v1434z" />
    <glyph glyph-name="J" unicode="J" horiz-adv-x="1556" 
d="M883 535v899h524v-895q0 -258 -180.5 -411t-489.5 -153q-201 0 -363 103.5t-261 279.5l254 140q53 -66 142 -104t175 -38q92 0 145.5 46.5t53.5 132.5z" />
    <glyph glyph-name="K" unicode="K" horiz-adv-x="1732" 
d="M1657 1434l-518 -590l596 -844h-590l-320 487l-151 -172v-315h-524v1434h524v-508l407 508h576z" />
    <glyph glyph-name="L" unicode="L" horiz-adv-x="1372" 
d="M150 0v1434h524v-1057h676v-377h-1200z" />
    <glyph glyph-name="M" unicode="M" horiz-adv-x="2187" 
d="M938 260l-281 424v-684h-507v1434h491l453 -713l452 713h494v-1434h-510v684l-281 -424h-311z" />
    <glyph glyph-name="N" unicode="N" horiz-adv-x="1785" 
d="M150 0v1434h475l501 -686v686h510v-1434h-477l-502 686v-686h-507z" />
    <glyph glyph-name="O" unicode="O" horiz-adv-x="1824" 
d="M76 717q0 160 58.5 296.5t165 235t264 154t347.5 55.5t348 -55.5t265 -154t166 -235t59 -296.5t-59 -296.5t-166 -235t-265 -154.5t-348 -56t-347.5 56t-264 154.5t-165 235t-58.5 296.5zM604 717q0 -168 82 -264.5t225 -96.5q145 0 227.5 96t82.5 265t-82.5 264.5
t-227.5 95.5q-143 0 -225 -96t-82 -264z" />
    <glyph glyph-name="P" unicode="P" horiz-adv-x="1583" 
d="M1528 936q0 -126 -51.5 -222t-147 -156t-225.5 -90t-293 -30h-137v-438h-524v1434h661q163 0 293 -30t225.5 -90t147 -156t51.5 -222zM999 936q0 76 -52.5 108.5t-151.5 32.5h-121v-282h121q204 0 204 141z" />
    <glyph glyph-name="Q" unicode="Q" horiz-adv-x="1824" 
d="M76 717q0 160 58.5 296.5t165 235t264 154t347.5 55.5t348 -55.5t265 -154t166 -235t59 -296.5q0 -260 -152 -451l197 -176l-295 -268l-233 211q-163 -58 -355 -58q-190 0 -347.5 56t-264 154.5t-165 235t-58.5 296.5zM604 717q0 -168 82 -264.5t225 -96.5
q145 0 227.5 96t82.5 265t-82.5 264.5t-227.5 95.5q-143 0 -225 -96t-82 -264z" />
    <glyph glyph-name="R" unicode="R" horiz-adv-x="1681" 
d="M674 496v-496h-524v1434h659q169 0 303 -28t232.5 -84.5t151 -147t52.5 -209.5q0 -141 -73.5 -240t-204.5 -154l393 -571h-563l-283 496h-143zM674 840h155q201 0 201 125t-201 125h-155v-250z" />
    <glyph glyph-name="S" unicode="S" horiz-adv-x="1507" 
d="M1442 1006l-481 -2q-15 46 -66.5 76t-118.5 30q-63 0 -100 -20.5t-37 -49.5q0 -38 49 -69.5t195 -69.5q110 -28 192 -58t154 -70.5t117.5 -88.5t71.5 -111.5t26 -140.5q0 -208 -185 -332.5t-514 -124.5q-187 0 -366.5 85t-312.5 227l204 182q127 -79 230.5 -112
t236.5 -33q88 0 133 21t45 58q0 28 -24.5 48t-92.5 44.5t-204 59.5q-137 35 -231.5 82t-148.5 107.5t-77.5 129t-23.5 154.5q0 196 166 314t471 118q294 0 472.5 -123t219.5 -331z" />
    <glyph glyph-name="T" unicode="T" horiz-adv-x="1484" 
d="M481 0v1057h-458v377h1439v-377h-456v-1057h-525z" />
    <glyph glyph-name="U" unicode="U" horiz-adv-x="1843" 
d="M922 -25q-354 0 -563 165t-209 460v834h524v-859q0 -112 65.5 -165.5t182.5 -53.5t183 53.5t66 165.5v859h525v-834q0 -196 -97 -338t-270.5 -214.5t-406.5 -72.5z" />
    <glyph glyph-name="V" unicode="V" horiz-adv-x="1814" 
d="M907 494l328 940h559l-537 -1434h-700l-537 1434h560z" />
    <glyph glyph-name="W" unicode="W" horiz-adv-x="2562" 
d="M1036 1434h490l250 -899q35 146 116.5 449.5t116.5 449.5h528l-442 -1434h-598l-217 860l-217 -860h-598l-442 1434h530l233 -899z" />
    <glyph glyph-name="X" unicode="X" horiz-adv-x="1705" 
d="M854 446l-274 -446h-570l484 733q-74 113 -230 350.5t-229 350.5h569l250 -396l248 396h571l-461 -701l486 -733h-572z" />
    <glyph glyph-name="Y" unicode="Y" horiz-adv-x="1681" 
d="M842 918l260 516h571l-569 -875v-559h-524v559l-570 875h570z" />
    <glyph glyph-name="Z" unicode="Z" horiz-adv-x="1474" 
d="M1382 1063l-657 -686h682v-377h-1339v371l657 686h-621v377h1278v-371z" />
    <glyph glyph-name="bracketleft" unicode="[" horiz-adv-x="1040" 
d="M231 -266v1802h787v-279h-379v-1245h379v-278h-787z" />
    <glyph glyph-name="backslash" unicode="\" horiz-adv-x="1320" 
d="M1008 -283l-1026 1692l331 176l1024 -1691z" />
    <glyph glyph-name="bracketright" unicode="]" horiz-adv-x="1040" 
d="M809 1536v-1802h-786v278h378v1245h-378v279h786z" />
    <glyph glyph-name="asciicircum" unicode="^" horiz-adv-x="1523" 
d="M631 1446h266l160 -178q66 -72 136.5 -184t119.5 -228l-248 -137l-301 309l-301 -309l-248 137q49 115 120 228t136 184z" />
    <glyph glyph-name="underscore" unicode="_" horiz-adv-x="1150" 
d="M-18 -348v139h1187v-139h-1187z" />
    <glyph glyph-name="grave" unicode="`" horiz-adv-x="856" 
d="M285 1278l-140 70l187 194l379 -242l-119 -133q-131 22 -307 111z" />
    <glyph glyph-name="a" unicode="a" horiz-adv-x="1431" 
d="M834 575v93q0 64 -41 100.5t-109 36.5q-108 0 -147 -76h-412q25 82 69 144.5t115.5 111.5t177.5 74.5t244 25.5q290 0 437 -120.5t147 -333.5v-336q0 -30 16.5 -43.5t52.5 -13.5h41v-248q-73 -15 -186 -15q-148 0 -237 27.5t-140 97.5q-162 -125 -387 -125
q-183 0 -301.5 93t-118.5 254q0 106 56.5 180t149.5 108.5t214 34.5q81 0 179.5 -18t179.5 -52zM834 276v91q-23 26 -75 39.5t-112 13.5q-68 0 -115 -26.5t-47 -71.5t47 -72t115 -27q60 0 112 13.5t75 39.5z" />
    <glyph glyph-name="b" unicode="b" horiz-adv-x="1589" 
d="M1513 530q0 -136 -39.5 -243.5t-109 -174.5t-162 -102t-201.5 -35q-100 0 -212 37.5t-183 100.5l-74 -113h-405v1495h500v-526q71 55 173 85.5t201 30.5q109 0 201.5 -35t162 -102t109 -174.5t39.5 -243.5zM801 750q-44 0 -95 -14.5t-79 -37.5v-336q28 -22 78.5 -36.5
t95.5 -14.5q99 0 154 54t55 165t-55 165.5t-154 54.5z" />
    <glyph glyph-name="c" unicode="c" horiz-adv-x="1355" 
d="M66 530q0 248 182 401.5t487 153.5q124 0 227 -34t173.5 -94t114 -138.5t57.5 -171.5h-453q-12 51 -41.5 77t-99.5 26q-64 0 -104 -59.5t-40 -160.5q0 -105 48.5 -162t144.5 -57q185 0 299 117l237 -139q-89 -142 -235.5 -228t-339.5 -86q-304 0 -480.5 153t-176.5 402z
" />
    <glyph glyph-name="d" unicode="d" horiz-adv-x="1589" 
d="M76 530q0 136 39.5 243.5t109 174.5t162 102t201.5 35q99 0 201.5 -30.5t173.5 -85.5v526h499v-1495h-405l-74 113q-71 -63 -183 -100.5t-212 -37.5q-109 0 -201.5 35t-162 102t-109 174.5t-39.5 243.5zM788 750q-98 0 -153 -54.5t-55 -165.5t54.5 -165t153.5 -54
q45 0 96 14.5t79 36.5v336q-28 23 -79.5 37.5t-95.5 14.5z" />
    <glyph glyph-name="e" unicode="e" horiz-adv-x="1435" 
d="M1370 530q0 -52 -6 -98h-813q11 -65 72 -103t161 -38q91 0 159 21t149 71l215 -168q-236 -240 -555 -240q-316 0 -501 153t-185 402q0 247 180.5 401t472.5 154q291 0 471 -154t180 -401zM719 795q-75 0 -122 -41t-50 -113h342q-5 71 -50 112.5t-120 41.5z" />
    <glyph glyph-name="f" unicode="f" horiz-adv-x="1050" 
d="M1038 1481v-303q-45 2 -120 2q-109 0 -152 -21.5t-43 -73.5v-24h291v-332h-291v-729h-500v729h-209v332h209v37q0 205 129.5 301t405.5 96q157 0 280 -14z" />
    <glyph glyph-name="g" unicode="g" horiz-adv-x="1589" 
d="M76 541q0 132 39.5 237t109 171.5t162 101t201.5 34.5q101 0 213 -37t182 -100l74 113h405v-969q0 -258 -182.5 -404.5t-499.5 -146.5q-357 0 -594 217l181 170q145 -96 342 -96q121 0 187.5 49.5t66.5 138.5v93q-71 -55 -173.5 -86t-201.5 -31q-146 0 -260 59.5
t-183 184.5t-69 301zM786 332q45 0 97 14.5t80 36.5v315q-28 23 -80.5 37.5t-96.5 14.5q-96 0 -151 -53t-55 -156t55 -156t151 -53z" />
    <glyph glyph-name="h" unicode="h" horiz-adv-x="1576" 
d="M823 750q-52 0 -108 -19t-88 -45v-686h-500v1495h500v-547q76 60 188 98.5t225 38.5q192 0 304 -106.5t112 -314.5v-664h-500v641q0 53 -34.5 81t-98.5 28z" />
    <glyph glyph-name="i" unicode="i" horiz-adv-x="782" 
d="M141 0v1061h500v-1061h-500zM141 1188v307h500v-307h-500z" />
    <glyph glyph-name="j" unicode="j" horiz-adv-x="782" 
d="M141 1188v307h500v-307h-500zM104 -483l-225 190q143 99 202.5 173.5t59.5 164.5v1016h500v-985q0 -132 -71 -245t-190 -190.5t-276 -123.5z" />
    <glyph glyph-name="k" unicode="k" horiz-adv-x="1529" 
d="M1497 1061l-410 -383l455 -678h-543l-227 383l-145 -137v-246h-500v1495h500v-750l301 316h569z" />
    <glyph glyph-name="l" unicode="l" horiz-adv-x="778" 
d="M139 0v1495h500v-1495h-500z" />
    <glyph glyph-name="m" unicode="m" horiz-adv-x="2265" 
d="M530 1061l74 -135q69 69 192.5 114t219.5 45q211 0 309 -155q88 72 207.5 113.5t243.5 41.5q177 0 272.5 -105.5t95.5 -295.5v-684h-499v651q0 99 -113 99q-40 0 -81 -15t-65 -37v-698h-499v651q0 99 -115 99q-40 0 -80.5 -15t-64.5 -37v-698h-500v1061h403z" />
    <glyph glyph-name="n" unicode="n" horiz-adv-x="1576" 
d="M823 750q-52 0 -108 -19t-88 -45v-686h-500v1061h403l74 -133q74 68 198 112.5t238 44.5q192 0 304 -106.5t112 -314.5v-664h-500v641q0 53 -34.5 81t-98.5 28z" />
    <glyph glyph-name="o" unicode="o" horiz-adv-x="1466" 
d="M733 311q187 0 187 219q0 220 -187 220q-188 0 -188 -220q0 -219 188 -219zM733 1085q296 0 482 -153t186 -402t-186 -402t-482 -153t-481.5 153t-185.5 402t185.5 402t481.5 153z" />
    <glyph glyph-name="p" unicode="p" horiz-adv-x="1589" 
d="M1513 530q0 -136 -39.5 -243.5t-109 -174.5t-162 -102t-201.5 -35q-99 0 -201 31t-173 86v-526h-500v1495h405l74 -113q70 63 182 100t213 37q109 0 201.5 -35t162 -102t109 -174.5t39.5 -243.5zM801 311q99 0 154 54t55 165t-55 165.5t-154 54.5q-44 0 -95 -14.5
t-79 -37.5v-336q28 -22 78.5 -36.5t95.5 -14.5z" />
    <glyph glyph-name="q" unicode="q" horiz-adv-x="1589" 
d="M78 530q0 136 39.5 243.5t109 174.5t162 102t201.5 35q101 0 213 -37t182 -100l74 113h405v-1495h-499v526q-71 -55 -173.5 -86t-201.5 -31q-109 0 -201.5 35t-162 102t-109 174.5t-39.5 243.5zM788 311q47 0 97.5 14t79.5 37v336q-29 23 -79.5 37.5t-97.5 14.5
q-97 0 -151.5 -54.5t-54.5 -165.5t54.5 -165t151.5 -54z" />
    <glyph glyph-name="r" unicode="r" horiz-adv-x="1067" 
d="M1055 1083v-335q-2 0 -25 1t-41 1q-118 0 -213 -36.5t-149 -101.5v-612h-500v1061h403l74 -156q45 81 156 130.5t237 49.5q10 0 32.5 -1t25.5 -1z" />
    <glyph glyph-name="s" unicode="s" horiz-adv-x="1288" 
d="M113 756q0 151 144.5 240t399.5 89q479 0 564 -352h-392q-11 31 -42.5 49.5t-77.5 18.5q-43 0 -68 -11t-25 -30q0 -22 53.5 -44.5t219.5 -72.5q176 -53 254 -129t78 -203q0 -146 -143 -241t-380 -95q-198 0 -345.5 68.5t-270.5 194.5l154 137q94 -61 176.5 -86t201.5 -25
q103 0 103 35q0 19 -40 38t-153 52q-213 62 -312 144t-99 223z" />
    <glyph glyph-name="t" unicode="t" horiz-adv-x="1069" 
d="M217 373v356h-203v293l203 39v246l500 67v-313h289v-332h-289v-278q0 -85 41 -112.5t166 -27.5h82v-264q-160 -72 -353 -72q-208 0 -322 98.5t-114 299.5z" />
    <glyph glyph-name="u" unicode="u" horiz-adv-x="1564" 
d="M782 -25q-318 0 -491.5 134.5t-173.5 379.5v572h499v-623q0 -59 45 -93t121 -34t121 34t45 93v623h500v-572q0 -244 -174.5 -379t-491.5 -135z" />
    <glyph glyph-name="v" unicode="v" horiz-adv-x="1456" 
d="M1014 0h-572l-430 1061h516l199 -680l201 680h516z" />
    <glyph glyph-name="w" unicode="w" horiz-adv-x="2183" 
d="M1309 1061l178 -635l180 635h504l-369 -1061h-551l-159 586q-23 -94 -80 -293t-80 -293h-551l-369 1061h504l180 -635q26 102 89.5 317t88.5 318h435z" />
    <glyph glyph-name="x" unicode="x" horiz-adv-x="1441" 
d="M1401 1061l-301 -510l340 -551h-516l-205 348l-203 -348h-516l338 551l-299 510h516l164 -307l166 307h516z" />
    <glyph glyph-name="y" unicode="y" horiz-adv-x="1474" 
d="M481 -35l27 68l-496 1028h508l217 -520l221 520h506l-499 -1137q-92 -208 -242.5 -315t-400.5 -154l-158 213q131 60 205 133t112 164z" />
    <glyph glyph-name="z" unicode="z" horiz-adv-x="1150" 
d="M33 0v330l450 399h-424v332h1035v-330l-449 -399h473v-332h-1085z" />
    <glyph glyph-name="braceleft" unicode="{" horiz-adv-x="1017" 
d="M113 496v274q93 0 152 55t59 156v223q0 123 52 190.5t152 104.5q60 22 170.5 32.5t204.5 10.5l55 -211l-106 -39q-123 -46 -123 -141v-193q0 -258 -252 -325q252 -68 252 -326v-192q0 -96 125 -142l104 -39l-55 -210q-94 0 -204.5 10.5t-170.5 32.5q-100 37 -152 104
t-52 190v224q0 101 -59 156t-152 55z" />
    <glyph glyph-name="bar" unicode="|" horiz-adv-x="729" 
d="M211 -410v1985h307v-1985h-307z" />
    <glyph glyph-name="braceright" unicode="}" horiz-adv-x="1017" 
d="M905 770v-274q-93 0 -152 -55t-59 -156v-224q0 -123 -52 -190t-153 -104q-61 -22 -170.5 -32.5t-203.5 -10.5l-56 210l105 39q125 46 125 142v192q0 258 252 326q-252 67 -252 325v193q0 95 -123 141l-107 39l56 211q94 0 203.5 -10.5t170.5 -32.5q100 -37 152.5 -104.5
t52.5 -190.5v-223q0 -101 59 -156t152 -55z" />
    <glyph glyph-name="asciitilde" unicode="~" horiz-adv-x="1431" 
d="M989 889l389 -53q-26 -177 -135.5 -272t-271.5 -95q-106 0 -228 49q-102 41 -165 41q-113 0 -136 -88l-389 53q26 178 135 272.5t273 94.5q105 0 227 -49q99 -41 166 -41q112 0 135 88z" />
    <glyph glyph-name="uni00A0" unicode="&#xa0;" horiz-adv-x="737" 
 />
    <glyph glyph-name="exclamdown" unicode="&#xa1;" horiz-adv-x="827" 
d="M154 -47l57 653h405l58 -653v-326h-520v326zM178 735v326h471v-326h-471z" />
    <glyph glyph-name="cent" unicode="&#xa2;" horiz-adv-x="1355" 
d="M66 530q0 221 155 369.5t412 177.5v195h215v-197q191 -30 313 -147.5t146 -280.5h-453q-12 51 -41.5 77t-99.5 26q-64 0 -104 -59.5t-40 -160.5q0 -105 48.5 -162t144.5 -57q185 0 299 117l235 -137q-71 -115 -188 -195t-260 -106v-201h-215v193q-259 28 -413 175.5
t-154 372.5z" />
    <glyph glyph-name="sterling" unicode="&#xa3;" horiz-adv-x="1503" 
d="M831 1458q254 0 418.5 -117t192.5 -354h-457q-8 45 -34.5 68.5t-82.5 23.5q-46 0 -76 -36.5t-30 -106.5v-123h409v-180h-409v-31q0 -67 -27.5 -127t-77.5 -98h803v-377h-1392v365q83 34 126.5 91.5t43.5 125.5v51h-172v180h172v160q0 238 153.5 361.5t439.5 123.5z" />
    <glyph glyph-name="currency" unicode="&#xa4;" horiz-adv-x="1779" 
d="M1413 883q43 -79 43 -203t-43 -203l225 -192l-252 -217l-229 194q-112 -41 -266 -41q-156 0 -268 41l-230 -194l-250 217l226 192q-45 83 -45 203t45 203l-226 192l250 217l230 -194q112 41 268 41q154 0 266 -41l229 194l252 -217zM891 500q89 0 137.5 47.5t48.5 132.5
t-48.5 132.5t-137.5 47.5q-90 0 -139.5 -47.5t-49.5 -132.5t49.5 -132.5t139.5 -47.5z" />
    <glyph glyph-name="yen" unicode="&#xa5;" horiz-adv-x="1681" 
d="M1528 686v-139h-424v-103h424v-139h-424v-305h-524v305h-426v139h426v103h-426v139h338l-482 748h570l262 -516l260 516h571l-485 -748h340z" />
    <glyph glyph-name="brokenbar" unicode="&#xa6;" horiz-adv-x="729" 
d="M211 719v708h307v-708h-307zM211 -223v706h307v-706h-307z" />
    <glyph glyph-name="section" unicode="&#xa7;" horiz-adv-x="1349" 
d="M143 575q0 189 203 263q-103 47 -153 116.5t-50 173.5q0 150 156 240t426 90q228 0 365.5 -96.5t166.5 -255.5h-387q-6 25 -45.5 46.5t-79.5 21.5q-45 0 -70.5 -11t-25.5 -30q0 -22 53.5 -44.5t219.5 -72.5q175 -52 253 -128t78 -204q0 -85 -62 -151t-171 -105
q122 -48 177.5 -117.5t55.5 -179.5q0 -148 -143.5 -242t-402.5 -94q-186 0 -350.5 80.5t-266.5 214.5l146 129q90 -71 188.5 -103t222.5 -32q101 0 101 35q0 17 -43 37.5t-148 52.5q-105 31 -177.5 63t-128 75t-82 99t-26.5 129zM717 526q92 44 92 99q0 50 -131 106
q-94 -45 -94 -98q0 -50 133 -107z" />
    <glyph glyph-name="dieresis" unicode="&#xa8;" horiz-adv-x="856" 
d="M18 1178v282h301v-282h-301zM539 1178v282h301v-282h-301z" />
    <glyph glyph-name="copyright" unicode="&#xa9;" horiz-adv-x="1923" 
d="M1831 717q0 -151 -69 -288.5t-186 -237t-278 -158t-337 -58.5t-337 58.5t-277.5 158t-185.5 237t-69 288.5t69 288.5t185.5 236.5t277 157.5t337.5 58.5q236 0 436 -99t317 -269.5t117 -372.5zM1714 717q0 130 -58 247.5t-157.5 202.5t-239.5 135t-298 50
q-209 0 -382 -85t-271.5 -230.5t-98.5 -319.5t98.5 -319.5t271.5 -230.5t382 -85q158 0 298 50t239.5 135t157.5 202.5t58 247.5zM457 717q0 199 144 321.5t388 122.5q193 0 311.5 -98t141.5 -252h-355q-11 41 -34 61.5t-82 20.5q-52 0 -85.5 -47.5t-33.5 -128.5
q0 -176 158 -176q150 0 239 92l187 -109q-72 -114 -188.5 -183t-268.5 -69q-242 0 -382 122.5t-140 322.5z" />
    <glyph glyph-name="ordfeminine" unicode="&#xaa;" horiz-adv-x="1112" 
d="M647 1085v66q0 45 -32 71.5t-85 26.5q-85 0 -112 -55h-293q77 256 440 256q211 0 317.5 -86t106.5 -240v-239q0 -41 55 -41h27v-178q-57 -11 -131 -11q-108 0 -173.5 20t-100.5 70q-61 -48 -138 -77t-151 -29q-130 0 -217.5 73.5t-87.5 190.5q0 114 85 173t220 59
q59 0 134.5 -13t135.5 -37zM647 862v66q-37 37 -145 37q-50 0 -86.5 -19t-36.5 -51t36.5 -51t86.5 -19q108 0 145 37z" />
    <glyph glyph-name="guillemotleft" unicode="&#xab;" horiz-adv-x="1490" 
d="M84 551v176l143 84q179 105 383 176l113 -147l-320 -201l320 -201l-113 -147q-193 65 -383 176zM754 551v176l141 84q181 107 383 176l113 -147l-320 -201l320 -201l-113 -147q-206 71 -383 176z" />
    <glyph glyph-name="logicalnot" unicode="&#xac;" horiz-adv-x="1431" 
d="M94 655v281h1219v-627h-373v346h-846z" />
    <glyph glyph-name="uni00AD" unicode="&#xad;" horiz-adv-x="913" 
d="M805 528h-699v301h699v-301z" />
    <glyph glyph-name="registered" unicode="&#xae;" horiz-adv-x="1923" 
d="M1831 717q0 -151 -69 -288.5t-186 -237t-278 -158t-337 -58.5t-337 58.5t-277.5 158t-185.5 237t-69 288.5t69 288.5t185.5 236.5t277 157.5t337.5 58.5q236 0 436 -99t317 -269.5t117 -372.5zM1714 717q0 130 -58 247.5t-157.5 202.5t-239.5 135t-298 50
q-209 0 -382 -85t-271.5 -230.5t-98.5 -319.5t98.5 -319.5t271.5 -230.5t382 -85q158 0 298 50t239.5 135t157.5 202.5t58 247.5zM1225 612l268 -323h-365l-190 276h-96v-276h-285v854h447q189 0 296 -73.5t107 -209.5q0 -93 -48 -155.5t-134 -92.5zM1098 860q0 88 -119 88
h-137v-176h137q119 0 119 88z" />
    <glyph glyph-name="macron" unicode="&#xaf;" horiz-adv-x="856" 
d="M53 1206v228h750v-228h-750z" />
    <glyph glyph-name="degree" unicode="&#xb0;" horiz-adv-x="905" 
d="M453 1458q141 0 238 -82.5t97 -201.5t-97 -202t-238 -83t-238.5 83t-97.5 202t97.5 201.5t238.5 82.5zM453 1087q55 0 88.5 24t33.5 63q0 38 -33.5 62t-88.5 24t-89 -24t-34 -62t34 -62.5t89 -24.5z" />
    <glyph glyph-name="plusminus" unicode="&#xb1;" horiz-adv-x="1431" 
d="M530 371v329h-424v281h424v330h371v-330h424v-281h-424v-329h-371zM1325 0h-1219v281h1219v-281z" />
    <glyph glyph-name="twosuperior" unicode="&#xb2;" 
d="M569 1116q0 72 -104 72q-40 0 -70 -23.5t-33 -60.5h-286q10 170 124.5 258t301.5 88q191 0 302 -86t111 -215q0 -118 -65.5 -209t-226.5 -199h292v-256h-806v197q230 139 345 253t115 181z" />
    <glyph glyph-name="threesuperior" unicode="&#xb3;" 
d="M416 700q157 0 157 86q0 43 -51.5 69t-140.5 26h-78v196h78q170 0 170 84q0 26 -27.5 42t-70.5 16q-38 0 -66 -15.5t-37 -44.5h-266q23 140 123 215.5t266 75.5q197 0 307.5 -71.5t110.5 -192.5q0 -69 -39.5 -124.5t-112.5 -82.5q79 -26 126.5 -84t47.5 -141
q0 -126 -108.5 -205.5t-310.5 -79.5q-115 0 -225 52t-183 134l123 109q94 -64 207 -64z" />
    <glyph glyph-name="acute" unicode="&#xb4;" horiz-adv-x="856" 
d="M711 1346l-121 -60q-179 -89 -334 -110l-111 124l379 242z" />
    <glyph glyph-name="mu" unicode="&#xb5;" horiz-adv-x="1583" 
d="M760 311q52 0 108 19t88 45v686h500v-1061h-403l-74 133q-57 -52 -157.5 -92t-194.5 -55v-420h-500v1495h500v-641q0 -53 34.5 -81t98.5 -28z" />
    <glyph glyph-name="paragraph" unicode="&#xb6;" horiz-adv-x="1581" 
d="M643 545h-20q-247 0 -399 118t-152 326q0 207 150 326t388 119h797v-1702h-311v1460h-135v-1460h-318v813z" />
    <glyph glyph-name="periodcentered" unicode="&#xb7;" horiz-adv-x="733" 
d="M188 502v350h357v-350h-357z" />
    <glyph glyph-name="cedilla" unicode="&#xb8;" horiz-adv-x="856" 
d="M246 -197l-25 29l98 168h289l-71 -115q73 -16 123.5 -63.5t50.5 -110.5q0 -88 -83.5 -143t-234.5 -55q-147 0 -280 96l108 110q33 -22 109 -22q96 0 96 41q0 16 -15.5 29t-57.5 23.5t-107 12.5z" />
    <glyph glyph-name="onesuperior" unicode="&#xb9;" 
d="M786 485h-335v637l-197 -116l-154 184l385 246h301v-951z" />
    <glyph glyph-name="ordmasculine" unicode="&#xba;" horiz-adv-x="1112" 
d="M1051 1044q0 -179 -136 -292t-360 -113q-222 0 -359 113.5t-137 291.5q0 179 137 292.5t359 113.5q224 0 360 -113.5t136 -292.5zM684 1044q0 80 -34 121t-95 41q-60 0 -93.5 -41t-33.5 -121t33.5 -120.5t93.5 -40.5q61 0 95 40.5t34 120.5z" />
    <glyph glyph-name="guillemotright" unicode="&#xbb;" horiz-adv-x="1490" 
d="M1403 727v-176l-141 -84q-181 -107 -383 -176l-113 147l319 201l-319 201l113 147q206 -71 383 -176zM735 727v-176l-143 -84q-179 -105 -383 -176l-113 147l320 201l-320 201l113 147q193 -65 383 -176z" />
    <glyph glyph-name="onequarter" unicode="&#xbc;" horiz-adv-x="2670" 
d="M1698 1456l203 -94l-902 -1385l-204 95zM786 485h-335v637l-197 -116l-154 184l385 246h301v-951zM1692 162v260l413 528h400v-530h118v-258h-118v-162h-320v162h-493zM2185 698l-217 -278h217v278z" />
    <glyph glyph-name="onehalf" unicode="&#xbd;" horiz-adv-x="2670" 
d="M2216 631q0 71 -105 71q-39 0 -69 -23.5t-33 -60.5h-287q10 170 124.5 258.5t301.5 88.5q191 0 302.5 -86t111.5 -215q0 -118 -66 -209t-227 -199h293v-256h-807v197q230 139 345.5 253t115.5 181zM1698 1456l203 -94l-902 -1385l-204 95zM786 485h-335v637l-197 -116
l-154 184l385 246h301v-951z" />
    <glyph glyph-name="threequarters" unicode="&#xbe;" horiz-adv-x="2670" 
d="M1698 1456l203 -94l-902 -1385l-204 95zM1692 162v260l413 528h400v-530h118v-258h-118v-162h-320v162h-493zM2185 698l-217 -278h217v278zM416 700q157 0 157 86q0 43 -51.5 69t-140.5 26h-78v196h78q170 0 170 84q0 26 -27.5 42t-70.5 16q-38 0 -66 -15.5t-37 -44.5
h-266q23 140 123 215.5t266 75.5q197 0 307.5 -71.5t110.5 -192.5q0 -69 -39.5 -124.5t-112.5 -82.5q79 -26 126.5 -84t47.5 -141q0 -126 -108.5 -205.5t-310.5 -79.5q-115 0 -225 52t-183 134l123 109q94 -64 207 -64z" />
    <glyph glyph-name="questiondown" unicode="&#xbf;" horiz-adv-x="1368" 
d="M719 -397q-272 0 -431 106.5t-159 292.5q0 128 72 226.5t227 181.5q68 36 92.5 68.5t24.5 82.5v45h319q76 -70 76 -176q0 -92 -42 -156.5t-136 -107.5q-84 -38 -120 -73.5t-36 -72.5q0 -32 34 -49.5t91 -17.5q137 0 137 113h435q0 -214 -150.5 -338.5t-433.5 -124.5z
M946 1061v-326h-471v326h471z" />
    <glyph glyph-name="Agrave" unicode="&#xc0;" horiz-adv-x="1814" 
d="M1237 0l-68 221h-526l-65 -221h-558l537 1434h700l537 -1434h-557zM907 1028l-153 -450h307zM678 1675l-139 70l186 194l379 -241l-119 -133q-134 23 -307 110z" />
    <glyph glyph-name="Aacute" unicode="&#xc1;" horiz-adv-x="1814" 
d="M1237 0l-68 221h-526l-65 -221h-558l537 1434h700l537 -1434h-557zM907 1028l-153 -450h307zM1276 1743l-121 -60q-179 -89 -334 -110l-110 125l379 241z" />
    <glyph glyph-name="Acircumflex" unicode="&#xc2;" horiz-adv-x="1814" 
d="M1237 0l-68 221h-526l-65 -221h-558l537 1434h700l537 -1434h-557zM907 1028l-153 -450h307zM809 1919h197l94 -78q110 -93 198 -215l-145 -94l-246 156l-245 -156l-146 94q86 119 199 215z" />
    <glyph glyph-name="Atilde" unicode="&#xc3;" horiz-adv-x="1814" 
d="M1237 0l-68 221h-526l-65 -221h-558l537 1434h700l537 -1434h-557zM907 1028l-153 -450h307zM1081 1569q-19 0 -37 2t-40 8.5t-32.5 9.5t-37.5 13t-33 12q-10 3 -26.5 9t-26.5 9.5t-24 6.5t-27 3q-76 0 -76 -69l-236 20q7 144 74 219.5t176 75.5q19 0 37 -2t40 -8.5
t32.5 -9.5t37.5 -13t33 -12q9 -3 26 -9t27 -9.5t24.5 -6.5t27.5 -3q74 0 74 69l237 -20q-7 -144 -74.5 -219.5t-175.5 -75.5z" />
    <glyph glyph-name="Adieresis" unicode="&#xc4;" horiz-adv-x="1814" 
d="M1237 0l-68 221h-526l-65 -221h-558l537 1434h700l537 -1434h-557zM907 1028l-153 -450h307zM498 1575v283h301v-283h-301zM1018 1575v283h301v-283h-301z" />
    <glyph glyph-name="Aring" unicode="&#xc5;" horiz-adv-x="1814" 
d="M1237 0l-68 221h-526l-65 -221h-558l537 1434h700l537 -1434h-557zM907 1028l-153 -450h307zM1192 1731q0 -101 -82.5 -170.5t-202.5 -69.5t-202 69.5t-82 170.5t82 170t202 69t202.5 -69t82.5 -170zM1010 1731q0 30 -29 48.5t-74 18.5t-73.5 -18.5t-28.5 -48.5t28.5 -49
t73.5 -19t74 19t29 49z" />
    <glyph glyph-name="AE" unicode="&#xc6;" horiz-adv-x="2328" 
d="M1153 0v201h-471l-113 -201h-561l877 1434h1337v-361h-541v-158h455v-360h-455v-195h562v-360h-1090zM1153 1006l-268 -449h268v449z" />
    <glyph glyph-name="Ccedilla" unicode="&#xc7;" horiz-adv-x="1730" 
d="M1380 539l250 -150q-89 -145 -211.5 -243.5t-267.5 -137.5l-80 -123h12q69 -15 113.5 -62.5t44.5 -111.5q0 -88 -83 -143t-234 -55q-166 0 -277 102l105 104q33 -22 108 -22q96 0 96 41q0 16 -15.5 29t-57.5 23.5t-107 12.5l-24 29l90 150q-357 28 -561.5 225t-204.5 510
q0 167 55.5 303.5t160.5 233t263 149.5t356 53q321 0 522.5 -163.5t235.5 -434.5h-485q-36 221 -273 221q-149 0 -228 -95.5t-79 -266.5q0 -168 92.5 -265.5t251.5 -97.5q146 0 246 48t186 137z" />
    <glyph glyph-name="Egrave" unicode="&#xc8;" horiz-adv-x="1445" 
d="M150 0v1434h1189v-361h-663v-158h577v-360h-577v-195h686v-360h-1212zM551 1675l-139 70l186 194l379 -241l-119 -133q-134 23 -307 110z" />
    <glyph glyph-name="Eacute" unicode="&#xc9;" horiz-adv-x="1445" 
d="M150 0v1434h1189v-361h-663v-158h577v-360h-577v-195h686v-360h-1212zM1042 1743l-120 -60q-179 -89 -334 -110l-111 125l379 241z" />
    <glyph glyph-name="Ecircumflex" unicode="&#xca;" horiz-adv-x="1445" 
d="M150 0v1434h1189v-361h-663v-158h577v-360h-577v-195h686v-360h-1212zM645 1919h197l94 -78q113 -96 199 -215l-146 -94l-246 156l-245 -156l-146 94q86 119 199 215z" />
    <glyph glyph-name="Edieresis" unicode="&#xcb;" horiz-adv-x="1445" 
d="M150 0v1434h1189v-361h-663v-158h577v-360h-577v-195h686v-360h-1212zM334 1575v283h301v-283h-301zM854 1575v283h301v-283h-301z" />
    <glyph glyph-name="Igrave" unicode="&#xcc;" horiz-adv-x="841" 
d="M158 1434h524v-1434h-524v1434zM190 1675l-139 70l187 194l378 -241l-118 -133q-136 23 -308 110z" />
    <glyph glyph-name="Iacute" unicode="&#xcd;" horiz-adv-x="841" 
d="M158 1434h524v-1434h-524v1434zM788 1743l-120 -60q-179 -89 -334 -110l-111 125l379 241z" />
    <glyph glyph-name="Icircumflex" unicode="&#xce;" horiz-adv-x="841" 
d="M158 1434h524v-1434h-524v1434zM322 1919h196l94 -78q113 -96 199 -215l-145 -94l-246 156l-246 -156l-145 94q88 122 198 215z" />
    <glyph glyph-name="Idieresis" unicode="&#xcf;" horiz-adv-x="841" 
d="M158 1434h524v-1434h-524v1434zM10 1575v283h301v-283h-301zM530 1575v283h301v-283h-301z" />
    <glyph glyph-name="Eth" unicode="&#xd0;" horiz-adv-x="1742" 
d="M1669 717q0 -340 -236 -528.5t-653 -188.5h-630v627h-173v180h173v627h630q417 0 653 -188.5t236 -528.5zM924 807v-180h-250v-250h114q164 0 257.5 81.5t93.5 258.5t-93.5 258.5t-257.5 81.5h-114v-250h250z" />
    <glyph glyph-name="Ntilde" unicode="&#xd1;" horiz-adv-x="1785" 
d="M150 0v1434h475l501 -686v686h510v-1434h-477l-502 686v-686h-507zM1067 1569q-19 0 -37 2t-40 8.5t-32.5 9.5t-37.5 13t-33 12q-9 3 -26 9t-27 9.5t-24.5 6.5t-27.5 3q-75 0 -75 -69l-236 20q7 144 74 219.5t176 75.5q19 0 37 -2t40 -8.5t32.5 -9.5t37.5 -13t33 -12
q9 -3 26 -9t27 -9.5t24.5 -6.5t27.5 -3q73 0 73 69l238 -20q-7 -144 -74.5 -219.5t-175.5 -75.5z" />
    <glyph glyph-name="Ograve" unicode="&#xd2;" horiz-adv-x="1824" 
d="M76 717q0 -160 58.5 -296.5t165 -235t264 -154.5t347.5 -56t348 56t265 154.5t166 235t59 296.5t-59 296.5t-166 235t-265 154t-348 55.5t-347.5 -55.5t-264 -154t-165 -235t-58.5 -296.5zM604 717q0 168 82 264t225 96q145 0 227.5 -95.5t82.5 -264.5t-82.5 -265
t-227.5 -96q-143 0 -225 96.5t-82 264.5zM694 1675l-139 70l186 194l379 -241l-119 -133q-134 23 -307 110z" />
    <glyph glyph-name="Oacute" unicode="&#xd3;" horiz-adv-x="1824" 
d="M76 717q0 -160 58.5 -296.5t165 -235t264 -154.5t347.5 -56t348 56t265 154.5t166 235t59 296.5t-59 296.5t-166 235t-265 154t-348 55.5t-347.5 -55.5t-264 -154t-165 -235t-58.5 -296.5zM604 717q0 168 82 264t225 96q145 0 227.5 -95.5t82.5 -264.5t-82.5 -265
t-227.5 -96q-143 0 -225 96.5t-82 264.5zM1268 1743l-121 -60q-179 -89 -334 -110l-111 125l379 241z" />
    <glyph glyph-name="Ocircumflex" unicode="&#xd4;" horiz-adv-x="1824" 
d="M76 717q0 -160 58.5 -296.5t165 -235t264 -154.5t347.5 -56t348 56t265 154.5t166 235t59 296.5t-59 296.5t-166 235t-265 154t-348 55.5t-347.5 -55.5t-264 -154t-165 -235t-58.5 -296.5zM604 717q0 168 82 264t225 96q145 0 227.5 -95.5t82.5 -264.5t-82.5 -265
t-227.5 -96q-143 0 -225 96.5t-82 264.5zM813 1919h197l94 -78q113 -96 199 -215l-146 -94l-246 156l-245 -156l-146 94q86 119 199 215z" />
    <glyph glyph-name="Otilde" unicode="&#xd5;" horiz-adv-x="1824" 
d="M76 717q0 -160 58.5 -296.5t165 -235t264 -154.5t347.5 -56t348 56t265 154.5t166 235t59 296.5t-59 296.5t-166 235t-265 154t-348 55.5t-347.5 -55.5t-264 -154t-165 -235t-58.5 -296.5zM604 717q0 168 82 264t225 96q145 0 227.5 -95.5t82.5 -264.5t-82.5 -265
t-227.5 -96q-143 0 -225 96.5t-82 264.5zM1087 1569q-19 0 -37 2t-40 8.5t-32.5 9.5t-37.5 13t-33 12q-10 3 -26.5 9t-26.5 9.5t-24 6.5t-27 3q-76 0 -76 -69l-235 20q7 144 73.5 219.5t175.5 75.5q19 0 37 -2t40.5 -8.5t32.5 -9.5t38.5 -13.5t32.5 -11.5q10 -3 26.5 -9
t26.5 -9.5t24 -6.5t27 -3q74 0 74 69l237 -20q-7 -144 -74.5 -219.5t-175.5 -75.5z" />
    <glyph glyph-name="Odieresis" unicode="&#xd6;" horiz-adv-x="1824" 
d="M76 717q0 -160 58.5 -296.5t165 -235t264 -154.5t347.5 -56t348 56t265 154.5t166 235t59 296.5t-59 296.5t-166 235t-265 154t-348 55.5t-347.5 -55.5t-264 -154t-165 -235t-58.5 -296.5zM604 717q0 168 82 264t225 96q145 0 227.5 -95.5t82.5 -264.5t-82.5 -265
t-227.5 -96q-143 0 -225 96.5t-82 264.5zM502 1575v283h301v-283h-301zM1022 1575v283h301v-283h-301z" />
    <glyph glyph-name="multiply" unicode="&#xd7;" horiz-adv-x="1431" 
d="M383 1174l332 -267l332 267l262 -218l-332 -276l332 -277l-262 -217l-332 267l-332 -267l-260 217l332 277l-332 276z" />
    <glyph glyph-name="Oslash" unicode="&#xd8;" horiz-adv-x="1824" 
d="M76 717q0 160 58.5 296.5t165 235t264 154t347.5 55.5q290 0 498 -125l178 187l99 -90l-168 -177q111 -101 171 -238t60 -298q0 -160 -59 -296.5t-166 -235t-265 -154.5t-348 -56q-290 0 -495 125l-178 -186l-99 90l168 174q-113 100 -172 238t-59 301zM604 717
q0 -110 35 -191l465 488q-75 63 -193 63q-143 0 -225 -96t-82 -264zM911 356q145 0 227.5 96t82.5 265q0 103 -37 188l-465 -487q77 -62 192 -62z" />
    <glyph glyph-name="Ugrave" unicode="&#xd9;" horiz-adv-x="1843" 
d="M922 -25q-354 0 -563 165t-209 460v834h524v-859q0 -112 65.5 -165.5t182.5 -53.5t183 53.5t66 165.5v859h525v-834q0 -196 -97 -338t-270.5 -214.5t-406.5 -72.5zM682 1675l-139 70l186 194l379 -241l-119 -133q-134 23 -307 110z" />
    <glyph glyph-name="Uacute" unicode="&#xda;" horiz-adv-x="1843" 
d="M922 -25q-354 0 -563 165t-209 460v834h524v-859q0 -112 65.5 -165.5t182.5 -53.5t183 53.5t66 165.5v859h525v-834q0 -196 -97 -338t-270.5 -214.5t-406.5 -72.5zM1300 1743l-120 -60q-179 -89 -334 -110l-111 125l379 241z" />
    <glyph glyph-name="Ucircumflex" unicode="&#xdb;" horiz-adv-x="1843" 
d="M922 -25q-354 0 -563 165t-209 460v834h524v-859q0 -112 65.5 -165.5t182.5 -53.5t183 53.5t66 165.5v859h525v-834q0 -196 -97 -338t-270.5 -214.5t-406.5 -72.5zM823 1919h197l94 -78q113 -96 199 -215l-146 -94l-245 156l-246 -156l-146 94q86 119 199 215z" />
    <glyph glyph-name="Udieresis" unicode="&#xdc;" horiz-adv-x="1843" 
d="M922 -25q-354 0 -563 165t-209 460v834h524v-859q0 -112 65.5 -165.5t182.5 -53.5t183 53.5t66 165.5v859h525v-834q0 -196 -97 -338t-270.5 -214.5t-406.5 -72.5zM512 1575v283h301v-283h-301zM1032 1575v283h301v-283h-301z" />
    <glyph glyph-name="Yacute" unicode="&#xdd;" horiz-adv-x="1681" 
d="M1102 1434l-260 -516l-262 516h-570l570 -875v-559h524v559l569 875h-571zM1204 1743l-121 -60q-179 -89 -333 -110l-111 125l379 241z" />
    <glyph glyph-name="Thorn" unicode="&#xde;" horiz-adv-x="1583" 
d="M150 1434h524v-209h137q163 0 293 -30t225.5 -90t147 -156t51.5 -222t-51.5 -222t-147 -156t-225.5 -90t-293 -30h-137v-229h-524v1434zM999 727q0 76 -52.5 108.5t-151.5 32.5h-121v-282h121q204 0 204 141z" />
    <glyph glyph-name="germandbls" unicode="&#xdf;" horiz-adv-x="1583" 
d="M698 121l86 229q11 -7 45.5 -13.5t63.5 -6.5q59 0 95 23.5t36 64.5q0 67 -65.5 105t-188.5 38v334q68 0 108 28t40 74q0 49 -38.5 77t-103.5 28q-76 0 -115.5 -32.5t-39.5 -94.5v-975h-482v956q0 243 167.5 372.5t467.5 129.5q285 0 458 -115t173 -292q0 -116 -68 -199
t-192 -123q395 -75 395 -391q0 -165 -119 -264t-329 -99q-97 0 -210 40.5t-184 105.5z" />
    <glyph glyph-name="agrave" unicode="&#xe0;" horiz-adv-x="1431" 
d="M834 575v93q0 64 -41 100.5t-109 36.5q-108 0 -147 -76h-412q25 82 69 144.5t115.5 111.5t177.5 74.5t244 25.5q290 0 437 -120.5t147 -333.5v-336q0 -30 16.5 -43.5t52.5 -13.5h41v-248q-73 -15 -186 -15q-148 0 -237 27.5t-140 97.5q-162 -125 -387 -125
q-183 0 -301.5 93t-118.5 254q0 106 56.5 180t149.5 108.5t214 34.5q81 0 179.5 -18t179.5 -52zM834 276v91q-23 26 -75 39.5t-112 13.5q-68 0 -115 -26.5t-47 -71.5t47 -72t115 -27q60 0 112 13.5t75 39.5zM516 1319l-139 70l186 194l379 -242l-119 -133q-131 22 -307 111z
" />
    <glyph glyph-name="aacute" unicode="&#xe1;" horiz-adv-x="1431" 
d="M834 575v93q0 64 -41 100.5t-109 36.5q-108 0 -147 -76h-412q25 82 69 144.5t115.5 111.5t177.5 74.5t244 25.5q290 0 437 -120.5t147 -333.5v-336q0 -30 16.5 -43.5t52.5 -13.5h41v-248q-73 -15 -186 -15q-148 0 -237 27.5t-140 97.5q-162 -125 -387 -125
q-183 0 -301.5 93t-118.5 254q0 106 56.5 180t149.5 108.5t214 34.5q81 0 179.5 -18t179.5 -52zM834 276v91q-23 26 -75 39.5t-112 13.5q-68 0 -115 -26.5t-47 -71.5t47 -72t115 -27q60 0 112 13.5t75 39.5zM1063 1386l-121 -59q-179 -89 -334 -110l-110 124l379 242z" />
    <glyph glyph-name="acircumflex" unicode="&#xe2;" horiz-adv-x="1431" 
d="M834 575v93q0 64 -41 100.5t-109 36.5q-108 0 -147 -76h-412q25 82 69 144.5t115.5 111.5t177.5 74.5t244 25.5q290 0 437 -120.5t147 -333.5v-336q0 -30 16.5 -43.5t52.5 -13.5h41v-248q-73 -15 -186 -15q-148 0 -237 27.5t-140 97.5q-162 -125 -387 -125
q-183 0 -301.5 93t-118.5 254q0 106 56.5 180t149.5 108.5t214 34.5q81 0 179.5 -18t179.5 -52zM834 276v91q-23 26 -75 39.5t-112 13.5q-68 0 -115 -26.5t-47 -71.5t47 -72t115 -27q60 0 112 13.5t75 39.5zM625 1563h196l94 -78q113 -96 199 -215l-145 -94l-246 155
l-246 -155l-145 94q88 122 198 215z" />
    <glyph glyph-name="atilde" unicode="&#xe3;" horiz-adv-x="1431" 
d="M834 575v93q0 64 -41 100.5t-109 36.5q-108 0 -147 -76h-412q25 82 69 144.5t115.5 111.5t177.5 74.5t244 25.5q290 0 437 -120.5t147 -333.5v-336q0 -30 16.5 -43.5t52.5 -13.5h41v-248q-73 -15 -186 -15q-148 0 -237 27.5t-140 97.5q-162 -125 -387 -125
q-183 0 -301.5 93t-118.5 254q0 106 56.5 180t149.5 108.5t214 34.5q81 0 179.5 -18t179.5 -52zM834 276v91q-23 26 -75 39.5t-112 13.5q-68 0 -115 -26.5t-47 -71.5t47 -72t115 -27q60 0 112 13.5t75 39.5zM897 1212q-19 0 -37 2t-40 8.5t-32.5 9.5t-37.5 13t-33 12
q-9 3 -32.5 12t-39.5 13t-33 4q-75 0 -75 -69l-236 20q7 144 74 219.5t176 75.5q19 0 37 -2t40 -8.5t32.5 -9.5t37.5 -13t33 -12q9 -3 32.5 -12t39.5 -13t33 -4q73 0 73 70l238 -21q-7 -144 -74.5 -219.5t-175.5 -75.5z" />
    <glyph glyph-name="adieresis" unicode="&#xe4;" horiz-adv-x="1431" 
d="M834 575v93q0 64 -41 100.5t-109 36.5q-108 0 -147 -76h-412q25 82 69 144.5t115.5 111.5t177.5 74.5t244 25.5q290 0 437 -120.5t147 -333.5v-336q0 -30 16.5 -43.5t52.5 -13.5h41v-248q-73 -15 -186 -15q-148 0 -237 27.5t-140 97.5q-162 -125 -387 -125
q-183 0 -301.5 93t-118.5 254q0 106 56.5 180t149.5 108.5t214 34.5q81 0 179.5 -18t179.5 -52zM834 276v91q-23 26 -75 39.5t-112 13.5q-68 0 -115 -26.5t-47 -71.5t47 -72t115 -27q60 0 112 13.5t75 39.5zM313 1219v282h301v-282h-301zM834 1219v282h301v-282h-301z" />
    <glyph glyph-name="aring" unicode="&#xe5;" horiz-adv-x="1431" 
d="M834 575v93q0 64 -41 100.5t-109 36.5q-108 0 -147 -76h-412q25 82 69 144.5t115.5 111.5t177.5 74.5t244 25.5q290 0 437 -120.5t147 -333.5v-336q0 -30 16.5 -43.5t52.5 -13.5h41v-248q-73 -15 -186 -15q-148 0 -237 27.5t-140 97.5q-162 -125 -387 -125
q-183 0 -301.5 93t-118.5 254q0 106 56.5 180t149.5 108.5t214 34.5q81 0 179.5 -18t179.5 -52zM834 276v91q-23 26 -75 39.5t-112 13.5q-68 0 -115 -26.5t-47 -71.5t47 -72t115 -27q60 0 112 13.5t75 39.5zM1008 1374q0 -101 -82.5 -170t-202.5 -69t-202.5 69t-82.5 170
t82.5 170.5t202.5 69.5t202.5 -69.5t82.5 -170.5zM825 1374q0 30 -28.5 49t-73.5 19t-73.5 -19t-28.5 -49t28.5 -48.5t73.5 -18.5t73.5 18.5t28.5 48.5z" />
    <glyph glyph-name="ae" unicode="&#xe6;" horiz-adv-x="2203" 
d="M2138 530q0 -57 -8 -98h-813q11 -65 72 -103t161 -38q90 0 157 20.5t153 71.5l213 -168q-236 -240 -553 -240q-309 0 -484 142q-93 -75 -221.5 -108.5t-314.5 -33.5q-121 0 -221 40t-162 120t-62 187q0 106 56.5 180t149.5 108.5t214 34.5q81 0 179.5 -18t179.5 -52v93
q0 64 -41 100.5t-109 36.5q-108 0 -147 -76h-412q25 82 69 144.5t115.5 111.5t177.5 74.5t244 25.5q109 0 211.5 -33t175.5 -91q83 58 179.5 91t187.5 33q292 0 472.5 -154t180.5 -401zM887 297q-21 39 -31 72q-77 51 -211 51q-71 0 -115.5 -28t-44.5 -70t44.5 -70.5
t115.5 -28.5q156 0 242 74zM1485 795q-75 0 -122 -41t-48 -113h340q-3 71 -49 112.5t-121 41.5z" />
    <glyph glyph-name="ccedilla" unicode="&#xe7;" horiz-adv-x="1355" 
d="M66 530q0 248 182 401.5t487 153.5q124 0 227 -34t173.5 -94t114 -138.5t57.5 -171.5h-453q-12 51 -41.5 77t-99.5 26q-64 0 -104 -59.5t-40 -160.5q0 -105 48.5 -162t144.5 -57q185 0 299 117l237 -139q-64 -101 -162 -175.5t-218 -109.5l-70 -119q71 -16 121.5 -63.5
t50.5 -110.5q0 -88 -83.5 -143t-234.5 -55q-159 0 -280 100l108 106q33 -22 109 -22q96 0 96 41q0 16 -15.5 29t-57.5 23.5t-107 12.5l-25 29l88 152q-252 28 -402 176t-150 370z" />
    <glyph glyph-name="egrave" unicode="&#xe8;" horiz-adv-x="1435" 
d="M1370 530q0 -52 -6 -98h-813q11 -65 72 -103t161 -38q91 0 159 21t149 71l215 -168q-236 -240 -555 -240q-316 0 -501 153t-185 402q0 247 180.5 401t472.5 154q291 0 471 -154t180 -401zM719 795q-75 0 -122 -41t-50 -113h342q-5 71 -50 112.5t-120 41.5zM520 1319
l-139 70l186 194l379 -242l-119 -133q-131 22 -307 111z" />
    <glyph glyph-name="eacute" unicode="&#xe9;" horiz-adv-x="1435" 
d="M1370 530q0 -52 -6 -98h-813q11 -65 72 -103t161 -38q91 0 159 21t149 71l215 -168q-236 -240 -555 -240q-316 0 -501 153t-185 402q0 247 180.5 401t472.5 154q291 0 471 -154t180 -401zM719 795q-75 0 -122 -41t-50 -113h342q-5 71 -50 112.5t-120 41.5zM1069 1386
l-121 -59q-179 -89 -334 -110l-110 124l379 242z" />
    <glyph glyph-name="ecircumflex" unicode="&#xea;" horiz-adv-x="1435" 
d="M1370 530q0 -52 -6 -98h-813q11 -65 72 -103t161 -38q91 0 159 21t149 71l215 -168q-236 -240 -555 -240q-316 0 -501 153t-185 402q0 247 180.5 401t472.5 154q291 0 471 -154t180 -401zM719 795q-75 0 -122 -41t-50 -113h342q-5 71 -50 112.5t-120 41.5zM621 1563h196
l94 -78q113 -96 199 -215l-145 -94l-246 155l-246 -155l-145 94q88 122 198 215z" />
    <glyph glyph-name="edieresis" unicode="&#xeb;" horiz-adv-x="1435" 
d="M1370 530q0 -52 -6 -98h-813q11 -65 72 -103t161 -38q91 0 159 21t149 71l215 -168q-236 -240 -555 -240q-316 0 -501 153t-185 402q0 247 180.5 401t472.5 154q291 0 471 -154t180 -401zM719 795q-75 0 -122 -41t-50 -113h342q-5 71 -50 112.5t-120 41.5zM309 1219v282
h301v-282h-301zM829 1219v282h301v-282h-301z" />
    <glyph glyph-name="igrave" unicode="&#xec;" horiz-adv-x="782" 
d="M141 0v1061h500v-1061h-500zM162 1319l-139 70l186 194l379 -242l-119 -133q-131 22 -307 111z" />
    <glyph glyph-name="iacute" unicode="&#xed;" horiz-adv-x="782" 
d="M141 0v1061h500v-1061h-500zM760 1386l-121 -59q-179 -89 -334 -110l-110 124l378 242z" />
    <glyph glyph-name="icircumflex" unicode="&#xee;" horiz-adv-x="782" 
d="M141 0v1061h500v-1061h-500zM293 1563h196l95 -78q110 -93 198 -215l-145 -94l-246 155l-246 -155l-145 94q86 119 199 215z" />
    <glyph glyph-name="idieresis" unicode="&#xef;" horiz-adv-x="782" 
d="M141 0v1061h500v-1061h-500zM-18 1219v282h301v-282h-301zM502 1219v282h301v-282h-301z" />
    <glyph glyph-name="eth" unicode="&#xf0;" horiz-adv-x="1454" 
d="M1243 1313l-127 -51q262 -208 262 -621q0 -308 -175 -487t-490 -179q-295 0 -466 143.5t-171 381.5q0 120 38 214.5t105.5 153.5t156 90t191.5 31q81 0 174.5 -26t149.5 -68q-6 57 -50 118t-100 97q-39 -15 -106.5 -43.5t-106.5 -44.5l-71 127l129 51q-99 29 -219 35
l-15 262q373 -16 625 -137l194 80zM731 311q94 0 137.5 71.5t46.5 221.5q-81 49 -180 49q-86 0 -135 -39t-49 -122q0 -84 49.5 -132.5t130.5 -48.5z" />
    <glyph glyph-name="ntilde" unicode="&#xf1;" horiz-adv-x="1576" 
d="M823 750q-52 0 -108 -19t-88 -45v-686h-500v1061h403l74 -133q74 68 198 112.5t238 44.5q192 0 304 -106.5t112 -314.5v-664h-500v641q0 53 -34.5 81t-98.5 28zM961 1212q-19 0 -37 2t-40.5 8.5t-32.5 9.5t-38.5 13.5t-32.5 11.5q-9 3 -32.5 12t-39 13t-32.5 4
q-76 0 -76 -69l-235 20q7 144 73.5 219.5t175.5 75.5q19 0 37 -2t40.5 -8.5t32.5 -9.5t38.5 -13.5t32.5 -11.5q9 -3 32.5 -12t39 -13t32.5 -4q74 0 74 70l237 -21q-7 -144 -74.5 -219.5t-174.5 -75.5z" />
    <glyph glyph-name="ograve" unicode="&#xf2;" horiz-adv-x="1466" 
d="M733 311q187 0 187 219q0 220 -187 220q-188 0 -188 -220q0 -219 188 -219zM733 1085q296 0 482 -153t186 -402t-186 -402t-482 -153t-481.5 153t-185.5 402t185.5 402t481.5 153zM520 1319l-139 70l186 194l379 -242l-119 -133q-131 22 -307 111z" />
    <glyph glyph-name="oacute" unicode="&#xf3;" horiz-adv-x="1466" 
d="M733 311q187 0 187 219q0 220 -187 220q-188 0 -188 -220q0 -219 188 -219zM733 1085q296 0 482 -153t186 -402t-186 -402t-482 -153t-481.5 153t-185.5 402t185.5 402t481.5 153zM1083 1386l-120 -59q-179 -89 -334 -110l-111 124l379 242z" />
    <glyph glyph-name="ocircumflex" unicode="&#xf4;" horiz-adv-x="1466" 
d="M733 311q187 0 187 219q0 220 -187 220q-188 0 -188 -220q0 -219 188 -219zM733 1085q296 0 482 -153t186 -402t-186 -402t-482 -153t-481.5 153t-185.5 402t185.5 402t481.5 153zM635 1563h196l95 -78q110 -93 198 -215l-145 -94l-246 155l-246 -155l-145 94
q86 119 199 215z" />
    <glyph glyph-name="otilde" unicode="&#xf5;" horiz-adv-x="1466" 
d="M733 311q187 0 187 219q0 220 -187 220q-188 0 -188 -220q0 -219 188 -219zM733 1085q296 0 482 -153t186 -402t-186 -402t-482 -153t-481.5 153t-185.5 402t185.5 402t481.5 153zM907 1212q-19 0 -37 2t-40 8.5t-32.5 9.5t-37.5 13t-33 12q-9 3 -32.5 12t-39 13t-32.5 4
q-76 0 -76 -69l-236 20q7 144 74 219.5t176 75.5q19 0 37 -2t40 -8.5t32.5 -9.5t37.5 -13t33 -12q9 -3 32.5 -12t39.5 -13t33 -4q74 0 74 70l237 -21q-7 -144 -74.5 -219.5t-175.5 -75.5z" />
    <glyph glyph-name="odieresis" unicode="&#xf6;" horiz-adv-x="1466" 
d="M733 311q187 0 187 219q0 220 -187 220q-188 0 -188 -220q0 -219 188 -219zM733 1085q296 0 482 -153t186 -402t-186 -402t-482 -153t-481.5 153t-185.5 402t185.5 402t481.5 153zM324 1219v282h301v-282h-301zM844 1219v282h301v-282h-301z" />
    <glyph glyph-name="divide" unicode="&#xf7;" horiz-adv-x="1431" 
d="M106 819h1219v-280h-1219v280zM545 965v297h342v-297h-342zM545 94v297h342v-297h-342z" />
    <glyph glyph-name="oslash" unicode="&#xf8;" horiz-adv-x="1466" 
d="M733 1085q208 0 369 -79l139 143l98 -92l-122 -127q184 -151 184 -400t-186 -402t-482 -153q-208 0 -371 80l-137 -141l-98 90l123 125q-184 154 -184 401q0 249 185.5 402t481.5 153zM545 530q0 -52 8 -88l278 285q-48 23 -98 23q-188 0 -188 -220zM733 311
q187 0 187 219q0 40 -11 86l-276 -284q43 -21 100 -21z" />
    <glyph glyph-name="ugrave" unicode="&#xf9;" horiz-adv-x="1564" 
d="M782 -25q-318 0 -491.5 134.5t-173.5 379.5v572h499v-623q0 -59 45 -93t121 -34t121 34t45 93v623h500v-572q0 -244 -174.5 -379t-491.5 -135zM580 1319l-140 70l187 194l379 -242l-119 -133q-131 22 -307 111z" />
    <glyph glyph-name="uacute" unicode="&#xfa;" horiz-adv-x="1564" 
d="M782 -25q-318 0 -491.5 134.5t-173.5 379.5v572h499v-623q0 -59 45 -93t121 -34t121 34t45 93v623h500v-572q0 -244 -174.5 -379t-491.5 -135zM1124 1386l-120 -59q-179 -89 -334 -110l-111 124l379 242z" />
    <glyph glyph-name="ucircumflex" unicode="&#xfb;" horiz-adv-x="1564" 
d="M782 -25q-318 0 -491.5 134.5t-173.5 379.5v572h499v-623q0 -59 45 -93t121 -34t121 34t45 93v623h500v-572q0 -244 -174.5 -379t-491.5 -135zM684 1563h197l94 -78q113 -96 199 -215l-146 -94l-246 155l-245 -155l-146 94q86 119 199 215z" />
    <glyph glyph-name="udieresis" unicode="&#xfc;" horiz-adv-x="1564" 
d="M782 -25q-318 0 -491.5 134.5t-173.5 379.5v572h499v-623q0 -59 45 -93t121 -34t121 34t45 93v623h500v-572q0 -244 -174.5 -379t-491.5 -135zM373 1219v282h301v-282h-301zM893 1219v282h301v-282h-301z" />
    <glyph glyph-name="yacute" unicode="&#xfd;" horiz-adv-x="1474" 
d="M481 -35l27 68l-496 1028h508l217 -520l221 520h506l-499 -1137q-92 -208 -242.5 -315t-400.5 -154l-158 213q131 60 205 133t112 164zM1090 1386l-121 -59q-179 -89 -334 -110l-111 124l379 242z" />
    <glyph glyph-name="thorn" unicode="&#xfe;" horiz-adv-x="1589" 
d="M1513 530q0 -136 -39.5 -243.5t-109 -174.5t-162 -102t-201.5 -35q-99 0 -201 31t-173 86v-526h-500v1929h500v-526q71 55 173 85.5t201 30.5q109 0 201.5 -35t162 -102t109 -174.5t39.5 -243.5zM801 311q99 0 154 54t55 165t-55 165.5t-154 54.5q-44 0 -95 -14.5
t-79 -37.5v-336q28 -22 78.5 -36.5t95.5 -14.5z" />
    <glyph glyph-name="ydieresis" unicode="&#xff;" horiz-adv-x="1474" 
d="M481 -35l27 68l-496 1028h508l217 -520l221 520h506l-499 -1137q-92 -208 -242.5 -315t-400.5 -154l-158 213q131 60 205 133t112 164zM330 1219v282h301v-282h-301zM850 1219v282h301v-282h-301z" />
    <glyph glyph-name="Amacron" unicode="&#x100;" horiz-adv-x="1814" 
d="M1237 0l-68 221h-526l-65 -221h-558l537 1434h700l537 -1434h-557zM907 1028l-153 -450h307zM532 1604v227h750v-227h-750z" />
    <glyph glyph-name="amacron" unicode="&#x101;" horiz-adv-x="1431" 
d="M834 575v93q0 64 -41 100.5t-109 36.5q-108 0 -147 -76h-412q25 82 69 144.5t115.5 111.5t177.5 74.5t244 25.5q290 0 437 -120.5t147 -333.5v-336q0 -30 16.5 -43.5t52.5 -13.5h41v-248q-73 -15 -186 -15q-148 0 -237 27.5t-140 97.5q-162 -125 -387 -125
q-183 0 -301.5 93t-118.5 254q0 106 56.5 180t149.5 108.5t214 34.5q81 0 179.5 -18t179.5 -52zM834 276v91q-23 26 -75 39.5t-112 13.5q-68 0 -115 -26.5t-47 -71.5t47 -72t115 -27q60 0 112 13.5t75 39.5zM348 1247v228h750v-228h-750z" />
    <glyph glyph-name="Abreve" unicode="&#x102;" horiz-adv-x="1814" 
d="M1237 0l-68 221h-526l-65 -221h-558l537 1434h700l537 -1434h-557zM907 1028l-153 -450h307zM907 1552q-169 0 -278.5 89.5t-122.5 240.5h266q6 -50 41.5 -77t93.5 -27t93.5 27t41.5 77h267q-13 -150 -123 -240t-279 -90z" />
    <glyph glyph-name="abreve" unicode="&#x103;" horiz-adv-x="1431" 
d="M834 575v93q0 64 -41 100.5t-109 36.5q-108 0 -147 -76h-412q25 82 69 144.5t115.5 111.5t177.5 74.5t244 25.5q290 0 437 -120.5t147 -333.5v-336q0 -30 16.5 -43.5t52.5 -13.5h41v-248q-73 -15 -186 -15q-148 0 -237 27.5t-140 97.5q-162 -125 -387 -125
q-183 0 -301.5 93t-118.5 254q0 106 56.5 180t149.5 108.5t214 34.5q81 0 179.5 -18t179.5 -52zM834 276v91q-23 26 -75 39.5t-112 13.5q-68 0 -115 -26.5t-47 -71.5t47 -72t115 -27q60 0 112 13.5t75 39.5zM723 1200q-169 0 -278.5 89.5t-122.5 240.5h266q6 -50 41.5 -77.5
t93.5 -27.5t93.5 27.5t41.5 77.5h266q-13 -151 -122.5 -240.5t-278.5 -89.5z" />
    <glyph glyph-name="Aogonek" unicode="&#x104;" horiz-adv-x="1814" 
d="M1237 0l-68 221h-526l-65 -221h-558l537 1434h700l537 -1434q-74 -50 -108.5 -100t-34.5 -88q0 -25 24 -40.5t66 -15.5q65 0 88 23l137 -127q-122 -101 -324 -101q-119 0 -200.5 56t-81.5 145q0 74 43 138t117 110h-283zM907 1028l-153 -450h307z" />
    <glyph glyph-name="aogonek" unicode="&#x105;" horiz-adv-x="1431" 
d="M834 575v93q0 64 -41 100.5t-109 36.5q-108 0 -147 -76h-412q25 82 69 144.5t115.5 111.5t177.5 74.5t244 25.5q290 0 437 -120.5t147 -333.5v-336q0 -30 16.5 -43.5t52.5 -13.5h41v-246q-65 -12 -137 -15q-114 -90 -114 -165q0 -25 24 -40.5t66 -15.5q65 0 88 23
l114 -111q-61 -61 -130 -89t-171 -28q-118 0 -200 56t-82 145q0 74 39.5 136t109.5 106q-112 26 -170 106q-162 -125 -387 -125q-183 0 -301.5 93t-118.5 254q0 106 56.5 180t149.5 108.5t214 34.5q81 0 179.5 -18t179.5 -52zM834 276v91q-23 26 -75 39.5t-112 13.5
q-68 0 -115 -26.5t-47 -71.5t47 -72t115 -27q60 0 112 13.5t75 39.5z" />
    <glyph glyph-name="Cacute" unicode="&#x106;" horiz-adv-x="1730" 
d="M1380 539l250 -150q-120 -195 -294.5 -303.5t-399.5 -108.5q-404 0 -632 200.5t-228 539.5q0 167 55.5 303.5t160.5 233t263 149.5t356 53q321 0 522.5 -163.5t235.5 -434.5h-485q-36 221 -273 221q-149 0 -228 -95.5t-79 -266.5q0 -168 92.5 -265.5t251.5 -97.5
q146 0 246 48t186 137zM1243 1743l-121 -60q-179 -89 -334 -110l-110 125l379 241z" />
    <glyph glyph-name="cacute" unicode="&#x107;" horiz-adv-x="1355" 
d="M66 530q0 248 182 401.5t487 153.5q124 0 227 -34t173.5 -94t114 -138.5t57.5 -171.5h-453q-12 51 -41.5 77t-99.5 26q-64 0 -104 -59.5t-40 -160.5q0 -105 48.5 -162t144.5 -57q185 0 299 117l237 -139q-89 -142 -235.5 -228t-339.5 -86q-304 0 -480.5 153t-176.5 402z
M1047 1386l-121 -59q-179 -89 -334 -110l-111 124l379 242z" />
    <glyph glyph-name="Ccircumflex" unicode="&#x108;" horiz-adv-x="1730" 
d="M1380 539l250 -150q-120 -195 -294.5 -303.5t-399.5 -108.5q-404 0 -632 200.5t-228 539.5q0 167 55.5 303.5t160.5 233t263 149.5t356 53q321 0 522.5 -163.5t235.5 -434.5h-485q-36 221 -273 221q-149 0 -228 -95.5t-79 -266.5q0 -168 92.5 -265.5t251.5 -97.5
q146 0 246 48t186 137zM782 1919h197l94 -78q113 -96 199 -215l-146 -94l-245 156l-246 -156l-146 94q86 119 199 215z" />
    <glyph glyph-name="ccircumflex" unicode="&#x109;" horiz-adv-x="1355" 
d="M66 530q0 248 182 401.5t487 153.5q124 0 227 -34t173.5 -94t114 -138.5t57.5 -171.5h-453q-12 51 -41.5 77t-99.5 26q-64 0 -104 -59.5t-40 -160.5q0 -105 48.5 -162t144.5 -57q185 0 299 117l237 -139q-89 -142 -235.5 -228t-339.5 -86q-304 0 -480.5 153t-176.5 402z
M604 1563h197l94 -78q113 -96 199 -215l-146 -94l-246 155l-245 -155l-146 94q86 119 199 215z" />
    <glyph glyph-name="Cdotaccent" unicode="&#x10a;" horiz-adv-x="1730" 
d="M1380 539l250 -150q-120 -195 -294.5 -303.5t-399.5 -108.5q-404 0 -632 200.5t-228 539.5q0 167 55.5 303.5t160.5 233t263 149.5t356 53q321 0 522.5 -163.5t235.5 -434.5h-485q-36 221 -273 221q-149 0 -228 -95.5t-79 -266.5q0 -168 92.5 -265.5t251.5 -97.5
q146 0 246 48t186 137zM731 1575v283h301v-283h-301z" />
    <glyph glyph-name="cdotaccent" unicode="&#x10b;" horiz-adv-x="1355" 
d="M66 530q0 248 182 401.5t487 153.5q124 0 227 -34t173.5 -94t114 -138.5t57.5 -171.5h-453q-12 51 -41.5 77t-99.5 26q-64 0 -104 -59.5t-40 -160.5q0 -105 48.5 -162t144.5 -57q185 0 299 117l237 -139q-89 -142 -235.5 -228t-339.5 -86q-304 0 -480.5 153t-176.5 402z
M553 1219v282h301v-282h-301z" />
    <glyph glyph-name="Ccaron" unicode="&#x10c;" horiz-adv-x="1730" 
d="M1380 539l250 -150q-120 -195 -294.5 -303.5t-399.5 -108.5q-404 0 -632 200.5t-228 539.5q0 167 55.5 303.5t160.5 233t263 149.5t356 53q321 0 522.5 -163.5t235.5 -434.5h-485q-36 221 -273 221q-149 0 -228 -95.5t-79 -266.5q0 -168 92.5 -265.5t251.5 -97.5
q146 0 246 48t186 137zM979 1550h-197l-94 78q-113 96 -199 215l146 94l246 -155l245 155l146 -94q-86 -119 -199 -215z" />
    <glyph glyph-name="ccaron" unicode="&#x10d;" horiz-adv-x="1355" 
d="M66 530q0 248 182 401.5t487 153.5q124 0 227 -34t173.5 -94t114 -138.5t57.5 -171.5h-453q-12 51 -41.5 77t-99.5 26q-64 0 -104 -59.5t-40 -160.5q0 -105 48.5 -162t144.5 -57q185 0 299 117l237 -139q-89 -142 -235.5 -228t-339.5 -86q-304 0 -480.5 153t-176.5 402z
M801 1194h-197l-94 78q-113 96 -199 215l146 94l245 -156l246 156l146 -94q-86 -119 -199 -215z" />
    <glyph glyph-name="Dcaron" unicode="&#x10e;" horiz-adv-x="1742" 
d="M674 377v680h114q164 0 257.5 -81.5t93.5 -258.5t-93.5 -258.5t-257.5 -81.5h-114zM1669 717q0 340 -236 528.5t-653 188.5h-630v-1434h630q417 0 653 188.5t236 528.5zM821 1550h-196l-95 78q-110 93 -198 215l145 94l246 -155l246 155l145 -94q-86 -119 -199 -215z" />
    <glyph glyph-name="dcaron" unicode="&#x10f;" horiz-adv-x="1990" 
d="M76 530q0 136 39.5 243.5t109 174.5t162 102t201.5 35q99 0 201.5 -30.5t173.5 -85.5v526h499v-1495h-405l-74 113q-71 -63 -183 -100.5t-212 -37.5q-109 0 -201.5 35t-162 102t-109 174.5t-39.5 243.5zM788 750q-98 0 -153 -54.5t-55 -165.5t54.5 -165t153.5 -54
q45 0 96 14.5t79 36.5v336q-28 23 -79.5 37.5t-95.5 14.5zM1583 973l184 540l283 -79l-80 -164q-112 -229 -223 -340z" />
    <glyph glyph-name="Dcroat" unicode="&#x110;" horiz-adv-x="1742" 
d="M1669 717q0 -340 -236 -528.5t-653 -188.5h-630v627h-173v180h173v627h630q417 0 653 -188.5t236 -528.5zM924 807v-180h-250v-250h114q164 0 257.5 81.5t93.5 258.5t-93.5 258.5t-257.5 81.5h-114v-250h250z" />
    <glyph glyph-name="dcroat" unicode="&#x111;" horiz-adv-x="1589" 
d="M76 530q0 136 39.5 243.5t109 174.5t162 102t201.5 35q99 0 201.5 -30.5t173.5 -85.5v225h-388v180h388v121h499v-121h148v-180h-148v-1194h-405l-74 113q-71 -63 -183 -100.5t-212 -37.5q-109 0 -201.5 35t-162 102t-109 174.5t-39.5 243.5zM786 750q-97 0 -151.5 -54.5
t-54.5 -165.5t54.5 -165t151.5 -54q45 0 97 14.5t80 36.5v336q-28 23 -80.5 37.5t-96.5 14.5z" />
    <glyph glyph-name="Emacron" unicode="&#x112;" horiz-adv-x="1445" 
d="M150 0v1434h1189v-361h-663v-158h577v-360h-577v-195h686v-360h-1212zM369 1604v227h749v-227h-749z" />
    <glyph glyph-name="emacron" unicode="&#x113;" horiz-adv-x="1435" 
d="M1370 530q0 -52 -6 -98h-813q11 -65 72 -103t161 -38q91 0 159 21t149 71l215 -168q-236 -240 -555 -240q-316 0 -501 153t-185 402q0 247 180.5 401t472.5 154q291 0 471 -154t180 -401zM719 795q-75 0 -122 -41t-50 -113h342q-5 71 -50 112.5t-120 41.5zM344 1247v228
h750v-228h-750z" />
    <glyph glyph-name="Ebreve" unicode="&#x114;" horiz-adv-x="1445" 
d="M150 0v1434h1189v-361h-663v-158h577v-360h-577v-195h686v-360h-1212zM743 1552q-169 0 -278.5 89.5t-122.5 240.5h266q6 -50 41.5 -77t93.5 -27t94 27t42 77h266q-13 -150 -123 -240t-279 -90z" />
    <glyph glyph-name="ebreve" unicode="&#x115;" horiz-adv-x="1435" 
d="M1370 530q0 -52 -6 -98h-813q11 -65 72 -103t161 -38q91 0 159 21t149 71l215 -168q-236 -240 -555 -240q-316 0 -501 153t-185 402q0 247 180.5 401t472.5 154q291 0 471 -154t180 -401zM719 795q-75 0 -122 -41t-50 -113h342q-5 71 -50 112.5t-120 41.5zM719 1200
q-169 0 -279 90t-123 240h267q6 -50 41.5 -77.5t93.5 -27.5t93.5 27.5t41.5 77.5h266q-13 -151 -122.5 -240.5t-278.5 -89.5z" />
    <glyph glyph-name="Edotaccent" unicode="&#x116;" horiz-adv-x="1445" 
d="M150 0v1434h1189v-361h-663v-158h577v-360h-577v-195h686v-360h-1212zM594 1575v283h301v-283h-301z" />
    <glyph glyph-name="edotaccent" unicode="&#x117;" horiz-adv-x="1435" 
d="M1370 530q0 -52 -6 -98h-813q11 -65 72 -103t161 -38q91 0 159 21t149 71l215 -168q-236 -240 -555 -240q-316 0 -501 153t-185 402q0 247 180.5 401t472.5 154q291 0 471 -154t180 -401zM719 795q-75 0 -122 -41t-50 -113h342q-5 71 -50 112.5t-120 41.5zM569 1219v282
h301v-282h-301z" />
    <glyph glyph-name="Eogonek" unicode="&#x118;" horiz-adv-x="1445" 
d="M150 0v1434h1189v-361h-663v-158h577v-360h-577v-195h686v-360h-121q-76 -52 -111.5 -101t-35.5 -87q0 -25 23.5 -40.5t64.5 -15.5q67 0 90 23l112 -107q-62 -60 -131.5 -90.5t-169.5 -30.5q-118 0 -199 56t-81 145q0 75 42.5 139t117.5 109h-813z" />
    <glyph glyph-name="eogonek" unicode="&#x119;" horiz-adv-x="1435" 
d="M1370 530q0 -52 -6 -98h-813q11 -65 72 -103t161 -38q91 0 159 21t149 71l215 -168q-144 -148 -316 -203q-174 -103 -174 -200q0 -25 24 -40.5t66 -15.5q65 0 88 23l109 -101q-58 -63 -127 -95t-168 -32q-118 0 -200.5 56t-82.5 145q0 68 35 127t98 103q-273 25 -433 173
t-160 375q0 247 180.5 401t472.5 154q291 0 471 -154t180 -401zM719 795q-75 0 -122 -41t-50 -113h342q-5 71 -50 112.5t-120 41.5z" />
    <glyph glyph-name="Ecaron" unicode="&#x11a;" horiz-adv-x="1445" 
d="M150 0v1434h1189v-361h-663v-158h577v-360h-577v-195h686v-360h-1212zM842 1550h-197l-94 78q-113 96 -199 215l146 94l245 -155l246 155l146 -94q-86 -119 -199 -215z" />
    <glyph glyph-name="ecaron" unicode="&#x11b;" horiz-adv-x="1435" 
d="M1370 530q0 -52 -6 -98h-813q11 -65 72 -103t161 -38q91 0 159 21t149 71l215 -168q-236 -240 -555 -240q-316 0 -501 153t-185 402q0 247 180.5 401t472.5 154q291 0 471 -154t180 -401zM719 795q-75 0 -122 -41t-50 -113h342q-5 71 -50 112.5t-120 41.5zM817 1194h-196
l-95 78q-110 93 -198 215l145 94l246 -156l246 156l145 -94q-86 -119 -199 -215z" />
    <glyph glyph-name="Gcircumflex" unicode="&#x11c;" horiz-adv-x="1804" 
d="M1733 944l-535 -2q-22 66 -96.5 101.5t-167.5 35.5q-156 0 -243 -91t-87 -269t91.5 -271.5t250.5 -93.5q121 0 200 42t97 126h-299v287h805v-117q0 -345 -212.5 -531t-582.5 -186q-404 0 -639 202.5t-235 541.5q0 340 229.5 540.5t634.5 200.5q302 0 514.5 -142
t274.5 -374zM805 1919h196l95 -78q110 -93 198 -215l-145 -94l-246 156l-246 -156l-145 94q86 119 199 215z" />
    <glyph glyph-name="gcircumflex" unicode="&#x11d;" horiz-adv-x="1589" 
d="M76 541q0 132 39.5 237t109 171.5t162 101t201.5 34.5q101 0 213 -37t182 -100l74 113h405v-969q0 -258 -182.5 -404.5t-499.5 -146.5q-357 0 -594 217l181 170q145 -96 342 -96q121 0 187.5 49.5t66.5 138.5v93q-71 -55 -173.5 -86t-201.5 -31q-146 0 -260 59.5
t-183 184.5t-69 301zM786 332q45 0 97 14.5t80 36.5v315q-28 23 -80.5 37.5t-96.5 14.5q-96 0 -151 -53t-55 -156t55 -156t151 -53zM721 1563h197l94 -78q110 -93 198 -215l-145 -94l-246 155l-246 -155l-145 94q86 119 199 215z" />
    <glyph glyph-name="Gbreve" unicode="&#x11e;" horiz-adv-x="1804" 
d="M1733 944l-535 -2q-22 66 -96.5 101.5t-167.5 35.5q-156 0 -243 -91t-87 -269t91.5 -271.5t250.5 -93.5q121 0 200 42t97 126h-299v287h805v-117q0 -345 -212.5 -531t-582.5 -186q-404 0 -639 202.5t-235 541.5q0 340 229.5 540.5t634.5 200.5q302 0 514.5 -142
t274.5 -374zM903 1552q-169 0 -278.5 89.5t-122.5 240.5h266q6 -50 41.5 -77t93.5 -27t93.5 27t41.5 77h267q-13 -150 -123 -240t-279 -90z" />
    <glyph glyph-name="gbreve" unicode="&#x11f;" horiz-adv-x="1589" 
d="M76 541q0 132 39.5 237t109 171.5t162 101t201.5 34.5q101 0 213 -37t182 -100l74 113h405v-969q0 -258 -182.5 -404.5t-499.5 -146.5q-357 0 -594 217l181 170q145 -96 342 -96q121 0 187.5 49.5t66.5 138.5v93q-71 -55 -173.5 -86t-201.5 -31q-146 0 -260 59.5
t-183 184.5t-69 301zM786 332q45 0 97 14.5t80 36.5v315q-28 23 -80.5 37.5t-96.5 14.5q-96 0 -151 -53t-55 -156t55 -156t151 -53zM819 1200q-169 0 -278.5 89.5t-122.5 240.5h266q6 -50 41.5 -77.5t93.5 -27.5t93.5 27.5t41.5 77.5h267q-13 -150 -123 -240t-279 -90z" />
    <glyph glyph-name="Gdotaccent" unicode="&#x120;" horiz-adv-x="1804" 
d="M1733 944l-535 -2q-22 66 -96.5 101.5t-167.5 35.5q-156 0 -243 -91t-87 -269t91.5 -271.5t250.5 -93.5q121 0 200 42t97 126h-299v287h805v-117q0 -345 -212.5 -531t-582.5 -186q-404 0 -639 202.5t-235 541.5q0 340 229.5 540.5t634.5 200.5q302 0 514.5 -142
t274.5 -374zM754 1575v283h301v-283h-301z" />
    <glyph glyph-name="gdotaccent" unicode="&#x121;" horiz-adv-x="1589" 
d="M76 541q0 132 39.5 237t109 171.5t162 101t201.5 34.5q101 0 213 -37t182 -100l74 113h405v-969q0 -258 -182.5 -404.5t-499.5 -146.5q-357 0 -594 217l181 170q145 -96 342 -96q121 0 187.5 49.5t66.5 138.5v93q-71 -55 -173.5 -86t-201.5 -31q-146 0 -260 59.5
t-183 184.5t-69 301zM786 332q45 0 97 14.5t80 36.5v315q-28 23 -80.5 37.5t-96.5 14.5q-96 0 -151 -53t-55 -156t55 -156t151 -53zM670 1219v282h301v-282h-301z" />
    <glyph glyph-name="Gcommaaccent" unicode="&#x122;" horiz-adv-x="1804" 
d="M1733 944l-535 -2q-22 66 -96.5 101.5t-167.5 35.5q-156 0 -243 -91t-87 -269t91.5 -271.5t250.5 -93.5q121 0 200 42t97 126h-299v287h805v-117q0 -345 -212.5 -531t-582.5 -186q-404 0 -639 202.5t-235 541.5q0 340 229.5 540.5t634.5 200.5q302 0 514.5 -142
t274.5 -374zM739 -508l142 416l274 -78l-53 -109q-88 -179 -193 -278z" />
    <glyph glyph-name="gcommaaccent" unicode="&#x123;" horiz-adv-x="1589" 
d="M76 541q0 132 39.5 237t109 171.5t162 101t201.5 34.5q101 0 213 -37t182 -100l74 113h405v-969q0 -258 -182.5 -404.5t-499.5 -146.5q-357 0 -594 217l181 170q145 -96 342 -96q121 0 187.5 49.5t66.5 138.5v93q-71 -55 -173.5 -86t-201.5 -31q-146 0 -260 59.5
t-183 184.5t-69 301zM786 332q45 0 97 14.5t80 36.5v315q-28 23 -80.5 37.5t-96.5 14.5q-96 0 -151 -53t-55 -156t55 -156t151 -53zM1116 1608l-141 -416l-275 78l54 108q90 183 192 279z" />
    <glyph glyph-name="Hcircumflex" unicode="&#x124;" horiz-adv-x="1810" 
d="M150 0v1434h524v-498h463v498h524v-1434h-524v559h-463v-559h-524zM807 1919h197l94 -78q110 -93 198 -215l-145 -94l-246 156l-246 -156l-145 94q86 119 199 215z" />
    <glyph glyph-name="hcircumflex" unicode="&#x125;" horiz-adv-x="1576" 
d="M823 750q-52 0 -108 -19t-88 -45v-686h-500v1495h500v-547q76 60 188 98.5t225 38.5q192 0 304 -106.5t112 -314.5v-664h-500v641q0 53 -34.5 81t-98.5 28zM279 1919h196l94 -78q113 -96 199 -215l-145 -94l-246 156l-246 -156l-145 94q88 122 198 215z" />
    <glyph glyph-name="Hbar" unicode="&#x126;" horiz-adv-x="1810" 
d="M2 1255h148v179h524v-179h463v179h524v-179h147v-180h-147v-1075h-524v559h-463v-559h-524v1075h-148v180zM1137 936v139h-463v-139h463z" />
    <glyph glyph-name="hbar" unicode="&#x127;" horiz-adv-x="1576" 
d="M-20 1374h147v121h500v-121h385v-180h-385v-246q76 60 188 98.5t225 38.5q192 0 304 -106.5t112 -314.5v-664h-500v641q0 53 -34.5 81t-98.5 28q-52 0 -108 -19t-88 -45v-686h-500v1194h-147v180z" />
    <glyph glyph-name="Itilde" unicode="&#x128;" horiz-adv-x="841" 
d="M158 1434h524v-1434h-524v1434zM596 1569q-19 0 -37 2t-40 8.5t-32.5 9.5t-37.5 13t-33 12q-9 3 -26 9t-27 9.5t-24.5 6.5t-27.5 3q-75 0 -75 -69l-236 20q7 144 74 219.5t176 75.5q19 0 37 -2t40 -8.5t32.5 -9.5t37.5 -13t33 -12q9 -3 26 -9t27 -9.5t24.5 -6.5t27.5 -3
q73 0 73 69l238 -20q-7 -144 -74.5 -219.5t-175.5 -75.5z" />
    <glyph glyph-name="itilde" unicode="&#x129;" horiz-adv-x="782" 
d="M141 0v1061h500v-1061h-500zM565 1212q-19 0 -37 2t-40 8.5t-32.5 9.5t-37.5 13t-33 12q-9 3 -32.5 12t-39 13t-32.5 4q-76 0 -76 -69l-236 20q7 144 74 219.5t176 75.5q19 0 37 -2t40 -8.5t32.5 -9.5t37.5 -13t33 -12q9 -3 32.5 -12t39.5 -13t33 -4q74 0 74 70l237 -21
q-7 -144 -74.5 -219.5t-175.5 -75.5z" />
    <glyph glyph-name="Imacron" unicode="&#x12a;" horiz-adv-x="841" 
d="M158 1434h524v-1434h-524v1434zM45 1604v227h750v-227h-750z" />
    <glyph glyph-name="imacron" unicode="&#x12b;" horiz-adv-x="782" 
d="M141 0v1061h500v-1061h-500zM16 1247v228h750v-228h-750z" />
    <glyph glyph-name="Ibreve" unicode="&#x12c;" horiz-adv-x="841" 
d="M158 1434h524v-1434h-524v1434zM420 1552q-169 0 -279 90t-123 240h267q6 -50 41.5 -77t93.5 -27t93.5 27t41.5 77h266q-13 -151 -122.5 -240.5t-278.5 -89.5z" />
    <glyph glyph-name="ibreve" unicode="&#x12d;" horiz-adv-x="782" 
d="M141 0v1061h500v-1061h-500zM391 1200q-169 0 -278.5 89.5t-122.5 240.5h266q6 -50 41.5 -77.5t93.5 -27.5t93.5 27.5t41.5 77.5h267q-13 -150 -123 -240t-279 -90z" />
    <glyph glyph-name="Iogonek" unicode="&#x12e;" horiz-adv-x="841" 
d="M158 1434h524v-1434h-78q-76 -52 -111.5 -101t-35.5 -87q0 -25 24 -40.5t66 -15.5q65 0 88 23l110 -103q-62 -62 -130 -93.5t-166 -31.5q-120 0 -201.5 56t-81.5 145q0 75 42.5 139t117.5 109h-168v1434z" />
    <glyph glyph-name="iogonek" unicode="&#x12f;" horiz-adv-x="782" 
d="M141 0v1061h500v-1061h-68q-77 -52 -113 -101t-36 -87q0 -25 24 -40.5t66 -15.5q65 0 88 23l111 -103q-62 -62 -130.5 -93.5t-166.5 -31.5q-118 0 -200.5 56t-82.5 145q0 74 43 138t117 110h-152zM141 1208v369h500v-369h-500z" />
    <glyph glyph-name="Idotaccent" unicode="&#x130;" horiz-adv-x="841" 
d="M158 1434h524v-1434h-524v1434zM270 1575v283h301v-283h-301z" />
    <glyph glyph-name="dotlessi" unicode="&#x131;" horiz-adv-x="782" 
d="M141 0v1061h500v-1061h-500z" />
    <glyph glyph-name="IJ" unicode="&#x132;" horiz-adv-x="2402" 
d="M158 1434h524v-1434h-524v1434zM1729 535v899h524v-895q0 -258 -180.5 -411t-489.5 -153q-201 0 -364 103.5t-261 279.5l254 140q53 -66 142.5 -104t175.5 -38q92 0 145.5 46.5t53.5 132.5z" />
    <glyph glyph-name="ij" unicode="&#x133;" horiz-adv-x="1617" 
d="M141 0v1061h500v-1061h-500zM141 1188v307h500v-307h-500zM977 1188v307h500v-307h-500zM940 -483l-225 190q143 99 202.5 173.5t59.5 164.5v1016h500v-985q0 -132 -71 -245t-190 -190.5t-276 -123.5z" />
    <glyph glyph-name="Jcircumflex" unicode="&#x134;" horiz-adv-x="1556" 
d="M883 535v899h524v-895q0 -258 -180.5 -411t-489.5 -153q-201 0 -363 103.5t-261 279.5l254 140q53 -66 142 -104t175 -38q92 0 145.5 46.5t53.5 132.5zM1047 1919h196l94 -78q113 -96 199 -215l-145 -94l-246 156l-246 -156l-145 94q88 122 198 215z" />
    <glyph glyph-name="jcircumflex" unicode="&#x135;" horiz-adv-x="782" 
d="M104 -483l-225 190q143 99 202.5 173.5t59.5 164.5v1016h500v-985q0 -132 -71 -245t-190 -190.5t-276 -123.5zM293 1563h196l95 -78q110 -93 198 -215l-145 -94l-246 155l-246 -155l-145 94q86 119 199 215z" />
    <glyph glyph-name="Kcommaaccent" unicode="&#x136;" horiz-adv-x="1732" 
d="M1657 1434l-518 -590l596 -844h-590l-320 487l-151 -172v-315h-524v1434h524v-508l407 508h576zM625 -508l141 416l274 -78l-53 -109q-89 -181 -192 -278z" />
    <glyph glyph-name="kcommaaccent" unicode="&#x137;" horiz-adv-x="1529" 
d="M1497 1061l-410 -383l455 -678h-543l-227 383l-145 -137v-246h-500v1495h500v-750l301 316h569zM526 -508l142 416l274 -78l-53 -109q-88 -179 -193 -278z" />
    <glyph glyph-name="kgreenlandic" unicode="&#x138;" horiz-adv-x="1529" 
d="M1497 1061l-412 -385l457 -676h-543l-229 381l-143 -135v-246h-500v1061h500v-316l301 316h569z" />
    <glyph glyph-name="Lacute" unicode="&#x139;" horiz-adv-x="1372" 
d="M150 0v1434h524v-1057h676v-377h-1200zM780 1743l-121 -60q-179 -89 -333 -110l-111 125l379 241z" />
    <glyph glyph-name="lacute" unicode="&#x13a;" horiz-adv-x="778" 
d="M139 0v1495h500v-1495h-500zM758 1743l-121 -60q-179 -89 -334 -110l-110 125l378 241z" />
    <glyph glyph-name="Lcommaaccent" unicode="&#x13b;" horiz-adv-x="1372" 
d="M150 0v1434h524v-1057h676v-377h-1200zM518 -508l141 416l275 -78l-53 -109q-88 -179 -193 -278z" />
    <glyph glyph-name="lcommaaccent" unicode="&#x13c;" horiz-adv-x="778" 
d="M139 0v1495h500v-1495h-500zM156 -508l141 416l274 -78l-53 -109q-89 -181 -192 -278z" />
    <glyph glyph-name="Lcaron" unicode="&#x13d;" horiz-adv-x="1372" 
d="M150 0v1434h524v-1057h676v-377h-1200zM850 973l184 540l283 -79l-80 -164q-112 -229 -223 -340z" />
    <glyph glyph-name="lcaron" unicode="&#x13e;" horiz-adv-x="1167" 
d="M139 0v1495h500v-1495h-500zM760 973l184 540l283 -79l-80 -164q-112 -229 -223 -340z" />
    <glyph glyph-name="Ldot" unicode="&#x13f;" horiz-adv-x="1372" 
d="M150 0v1434h524v-1057h676v-377h-1200zM922 625v282h301v-282h-301z" />
    <glyph glyph-name="ldot" unicode="&#x140;" horiz-adv-x="1216" 
d="M139 0v1495h500v-1495h-500zM864 625v282h301v-282h-301z" />
    <glyph glyph-name="Lslash" unicode="&#x141;" horiz-adv-x="1396" 
d="M698 1434v-476l463 234l74 -127l-537 -270v-418h676v-377h-1200v530l-180 -90l-74 127l254 127v740h524z" />
    <glyph glyph-name="lslash" unicode="&#x142;" horiz-adv-x="925" 
d="M713 1495v-504l198 101l66 -117l-264 -133v-842h-500v594l-201 -100l-63 116l264 131v754h500z" />
    <glyph glyph-name="Nacute" unicode="&#x143;" horiz-adv-x="1785" 
d="M150 0v1434h475l501 -686v686h510v-1434h-477l-502 686v-686h-507zM1292 1743l-121 -60q-179 -89 -333 -110l-111 125l379 241z" />
    <glyph glyph-name="nacute" unicode="&#x144;" horiz-adv-x="1576" 
d="M1118 1386l-121 -59q-179 -89 -333 -110l-111 124l379 242zM823 750q-52 0 -108 -19t-88 -45v-686h-500v1061h403l74 -133q74 68 198 112.5t238 44.5q192 0 304 -106.5t112 -314.5v-664h-500v641q0 53 -34.5 81t-98.5 28z" />
    <glyph glyph-name="Ncommaaccent" unicode="&#x145;" horiz-adv-x="1785" 
d="M150 0v1434h475l501 -686v686h510v-1434h-477l-502 686v-686h-507zM698 -508l142 416l274 -78l-53 -109q-88 -179 -193 -278z" />
    <glyph glyph-name="ncommaaccent" unicode="&#x146;" horiz-adv-x="1576" 
d="M823 750q-52 0 -108 -19t-88 -45v-686h-500v1061h403l74 -133q74 68 198 112.5t238 44.5q192 0 304 -106.5t112 -314.5v-664h-500v641q0 53 -34.5 81t-98.5 28zM555 -508l141 416l275 -78l-53 -109q-88 -179 -193 -278z" />
    <glyph glyph-name="Ncaron" unicode="&#x147;" horiz-adv-x="1785" 
d="M150 0v1434h475l501 -686v686h510v-1434h-477l-502 686v-686h-507zM991 1550h-196l-95 78q-110 93 -198 215l145 94l246 -155l246 155l145 -94q-86 -119 -199 -215z" />
    <glyph glyph-name="ncaron" unicode="&#x148;" horiz-adv-x="1576" 
d="M823 750q-52 0 -108 -19t-88 -45v-686h-500v1061h403l74 -133q74 68 198 112.5t238 44.5q192 0 304 -106.5t112 -314.5v-664h-500v641q0 53 -34.5 81t-98.5 28zM885 1194h-197l-94 78q-113 96 -199 215l146 94l245 -156l246 156l146 -94q-86 -119 -199 -215z" />
    <glyph glyph-name="napostrophe" unicode="&#x149;" horiz-adv-x="1828" 
d="M-59 973l184 540l283 -79l-80 -164q-111 -227 -224 -340zM1077 750q-52 0 -108 -19t-88 -45v-686h-500v1061h403l74 -133q74 68 198 112.5t238 44.5q192 0 304 -106.5t112 -314.5v-664h-500v641q0 53 -34.5 81t-98.5 28z" />
    <glyph glyph-name="Eng" unicode="&#x14a;" horiz-adv-x="1785" 
d="M1098 -483l-226 190q146 103 201 167t55 151v8l-471 653v-686h-507v1434h518l458 -650v650h510v-1358q0 -196 -148.5 -342t-389.5 -217z" />
    <glyph glyph-name="eng" unicode="&#x14b;" horiz-adv-x="1576" 
d="M823 750q-52 0 -108 -19t-88 -45v-686h-500v1061h403l74 -133q74 68 198 112.5t238 44.5q192 0 304 -106.5t112 -314.5v-588q0 -197 -147 -343t-389 -216l-224 190q141 100 200.5 174t59.5 164v596q0 53 -34.5 81t-98.5 28z" />
    <glyph glyph-name="Omacron" unicode="&#x14c;" horiz-adv-x="1824" 
d="M76 717q0 -160 58.5 -296.5t165 -235t264 -154.5t347.5 -56t348 56t265 154.5t166 235t59 296.5t-59 296.5t-166 235t-265 154t-348 55.5t-347.5 -55.5t-264 -154t-165 -235t-58.5 -296.5zM604 717q0 168 82 264t225 96q145 0 227.5 -95.5t82.5 -264.5t-82.5 -265
t-227.5 -96q-143 0 -225 96.5t-82 264.5zM561 1604v227h750v-227h-750z" />
    <glyph glyph-name="omacron" unicode="&#x14d;" horiz-adv-x="1466" 
d="M733 311q187 0 187 219q0 220 -187 220q-188 0 -188 -220q0 -219 188 -219zM733 1085q296 0 482 -153t186 -402t-186 -402t-482 -153t-481.5 153t-185.5 402t185.5 402t481.5 153zM358 1247v228h750v-228h-750z" />
    <glyph glyph-name="Obreve" unicode="&#x14e;" horiz-adv-x="1824" 
d="M76 717q0 160 58.5 296.5t165 235t264 154t347.5 55.5t348 -55.5t265 -154t166 -235t59 -296.5t-59 -296.5t-166 -235t-265 -154.5t-348 -56t-347.5 56t-264 154.5t-165 235t-58.5 296.5zM604 717q0 -168 82 -264.5t225 -96.5q145 0 227.5 96t82.5 265t-82.5 264.5
t-227.5 95.5q-143 0 -225 -96t-82 -264zM911 1552q-169 0 -278.5 89.5t-122.5 240.5h266q6 -50 41.5 -77t93.5 -27t94 27t42 77h266q-13 -150 -123 -240t-279 -90z" />
    <glyph glyph-name="obreve" unicode="&#x14f;" horiz-adv-x="1466" 
d="M733 311q187 0 187 219q0 220 -187 220q-188 0 -188 -220q0 -219 188 -219zM733 1085q296 0 482 -153t186 -402t-186 -402t-482 -153t-481.5 153t-185.5 402t185.5 402t481.5 153zM733 1200q-169 0 -278.5 89.5t-122.5 240.5h266q6 -50 41.5 -77.5t93.5 -27.5t93.5 27.5
t41.5 77.5h267q-13 -150 -123 -240t-279 -90z" />
    <glyph glyph-name="Ohungarumlaut" unicode="&#x150;" horiz-adv-x="1824" 
d="M76 717q0 -160 58.5 -296.5t165 -235t264 -154.5t347.5 -56t348 56t265 154.5t166 235t59 296.5t-59 296.5t-166 235t-265 154t-348 55.5t-347.5 -55.5t-264 -154t-165 -235t-58.5 -296.5zM604 717q0 168 82 264t225 96q145 0 227.5 -95.5t82.5 -264.5t-82.5 -265
t-227.5 -96q-143 0 -225 96.5t-82 264.5zM999 1790l-104 -84q-137 -107 -272 -150l-134 91l279 292zM1501 1786l-104 -80q-139 -106 -275 -147l-131 96l283 287z" />
    <glyph glyph-name="ohungarumlaut" unicode="&#x151;" horiz-adv-x="1466" 
d="M733 311q187 0 187 219q0 220 -187 220q-188 0 -188 -220q0 -219 188 -219zM733 1085q296 0 482 -153t186 -402t-186 -402t-482 -153t-481.5 153t-185.5 402t185.5 402t481.5 153zM770 1434l-104 -84q-137 -107 -273 -150l-133 90l279 293zM1272 1430l-105 -80
q-142 -108 -274 -148l-131 96l282 287z" />
    <glyph glyph-name="OE" unicode="&#x152;" horiz-adv-x="2224" 
d="M911 1434h1207v-361h-541v-158h455v-360h-455v-195h563v-360h-1229q-254 0 -444 90t-290.5 252t-100.5 375t100.5 375t290.5 252t444 90zM604 717q0 -166 81 -251t226 -85h140v672h-140q-145 0 -226 -85t-81 -251z" />
    <glyph glyph-name="oe" unicode="&#x153;" horiz-adv-x="2291" 
d="M2228 530q0 -52 -6 -98h-815q12 -66 73 -103.5t162 -37.5q89 0 155.5 20.5t152.5 71.5l213 -168q-236 -240 -553 -240q-141 0 -259.5 36.5t-193.5 97.5q-76 -63 -195 -98.5t-241 -35.5q-188 0 -336.5 68.5t-233.5 195.5t-85 291t85 291t233.5 195.5t336.5 68.5
q127 0 243 -34t193 -99q73 62 185 97.5t233 35.5q292 0 472.5 -154t180.5 -401zM733 311q92 0 145.5 54.5t53.5 164.5t-53.5 165t-145.5 55q-93 0 -147 -55t-54 -165t54 -164.5t147 -54.5zM1575 795q-75 0 -122 -41t-48 -113h342q-5 71 -50.5 112.5t-121.5 41.5z" />
    <glyph glyph-name="Racute" unicode="&#x154;" horiz-adv-x="1681" 
d="M674 0v496h143l283 -496h563l-393 571q131 55 204.5 154t73.5 240q0 119 -52.5 209.5t-151 147t-232.5 84.5t-303 28h-659v-1434h524zM829 840h-155v250h155q201 0 201 -125t-201 -125zM1032 1743l-121 -60q-179 -89 -333 -110l-111 125l379 241z" />
    <glyph glyph-name="racute" unicode="&#x155;" horiz-adv-x="1067" 
d="M1055 1083v-335q-2 0 -25 1t-41 1q-118 0 -213 -36.5t-149 -101.5v-612h-500v1061h403l74 -156q45 81 156 130.5t237 49.5q10 0 32.5 -1t25.5 -1zM842 1386l-121 -59q-179 -89 -334 -110l-111 124l379 242z" />
    <glyph glyph-name="Rcommaaccent" unicode="&#x156;" horiz-adv-x="1681" 
d="M674 496v-496h-524v1434h659q169 0 303 -28t232.5 -84.5t151 -147t52.5 -209.5q0 -141 -73.5 -240t-204.5 -154l393 -571h-563l-283 496h-143zM674 840h155q201 0 201 125t-201 125h-155v-250zM600 -508l141 416l275 -78l-53 -109q-88 -179 -193 -278z" />
    <glyph glyph-name="rcommaaccent" unicode="&#x157;" horiz-adv-x="1067" 
d="M1055 1083v-335q-2 0 -25 1t-41 1q-118 0 -213 -36.5t-149 -101.5v-612h-500v1061h403l74 -156q45 81 156 130.5t237 49.5q10 0 32.5 -1t25.5 -1zM135 -508l141 416l275 -78l-53 -109q-88 -179 -193 -278z" />
    <glyph glyph-name="Rcaron" unicode="&#x158;" horiz-adv-x="1681" 
d="M674 0v496h143l283 -496h563l-393 571q131 55 204.5 154t73.5 240q0 119 -52.5 209.5t-151 147t-232.5 84.5t-303 28h-659v-1434h524zM829 840h-155v250h155q201 0 201 -125t-201 -125zM834 1550h-197l-94 78q-113 96 -199 215l145 94l246 -155l246 155l145 -94
q-88 -122 -198 -215z" />
    <glyph glyph-name="rcaron" unicode="&#x159;" horiz-adv-x="1067" 
d="M1055 1083v-335q-2 0 -25 1t-41 1q-118 0 -213 -36.5t-149 -101.5v-612h-500v1061h403l74 -156q45 81 156 130.5t237 49.5q10 0 32.5 -1t25.5 -1zM674 1194h-197l-94 78q-113 96 -199 215l146 94l245 -156l246 156l146 -94q-86 -119 -199 -215z" />
    <glyph glyph-name="Sacute" unicode="&#x15a;" horiz-adv-x="1507" 
d="M1442 1006l-481 -2q-15 46 -66.5 76t-118.5 30q-63 0 -100 -20.5t-37 -49.5q0 -38 49 -69.5t195 -69.5q110 -28 192 -58t154 -70.5t117.5 -88.5t71.5 -111.5t26 -140.5q0 -208 -185 -332.5t-514 -124.5q-187 0 -366.5 85t-312.5 227l204 182q127 -79 230.5 -112
t236.5 -33q88 0 133 21t45 58q0 28 -24.5 48t-92.5 44.5t-204 59.5q-137 35 -231.5 82t-148.5 107.5t-77.5 129t-23.5 154.5q0 196 166 314t471 118q294 0 472.5 -123t219.5 -331zM1018 1743l-121 -60q-179 -89 -334 -110l-110 125l378 241z" />
    <glyph glyph-name="sacute" unicode="&#x15b;" horiz-adv-x="1288" 
d="M113 756q0 151 144.5 240t399.5 89q479 0 564 -352h-392q-11 31 -42.5 49.5t-77.5 18.5q-43 0 -68 -11t-25 -30q0 -22 53.5 -44.5t219.5 -72.5q176 -53 254 -129t78 -203q0 -146 -143 -241t-380 -95q-198 0 -345.5 68.5t-270.5 194.5l154 137q94 -61 176.5 -86t201.5 -25
q103 0 103 35q0 19 -40 38t-153 52q-213 62 -312 144t-99 223zM936 1386l-121 -59q-179 -89 -334 -110l-110 124l379 242z" />
    <glyph glyph-name="Scircumflex" unicode="&#x15c;" horiz-adv-x="1507" 
d="M1442 1006l-481 -2q-15 46 -66.5 76t-118.5 30q-63 0 -100 -20.5t-37 -49.5q0 -38 49 -69.5t195 -69.5q110 -28 192 -58t154 -70.5t117.5 -88.5t71.5 -111.5t26 -140.5q0 -208 -185 -332.5t-514 -124.5q-187 0 -366.5 85t-312.5 227l204 182q127 -79 230.5 -112
t236.5 -33q88 0 133 21t45 58q0 28 -24.5 48t-92.5 44.5t-204 59.5q-137 35 -231.5 82t-148.5 107.5t-77.5 129t-23.5 154.5q0 196 166 314t471 118q294 0 472.5 -123t219.5 -331zM637 1919h197l94 -78q110 -93 198 -215l-145 -94l-246 156l-246 -156l-145 94
q86 119 199 215z" />
    <glyph glyph-name="scircumflex" unicode="&#x15d;" horiz-adv-x="1288" 
d="M113 756q0 151 144.5 240t399.5 89q479 0 564 -352h-392q-11 31 -42.5 49.5t-77.5 18.5q-43 0 -68 -11t-25 -30q0 -22 53.5 -44.5t219.5 -72.5q176 -53 254 -129t78 -203q0 -146 -143 -241t-380 -95q-198 0 -345.5 68.5t-270.5 194.5l154 137q94 -61 176.5 -86t201.5 -25
q103 0 103 35q0 19 -40 38t-153 52q-213 62 -312 144t-99 223zM530 1563h197l94 -78q113 -96 199 -215l-146 -94l-245 155l-246 -155l-145 94q88 122 198 215z" />
    <glyph glyph-name="Scedilla" unicode="&#x15e;" horiz-adv-x="1507" 
d="M1442 1006l-481 -2q-15 46 -66.5 76t-118.5 30q-63 0 -100 -20.5t-37 -49.5q0 -38 49 -69.5t195 -69.5q110 -28 192 -58t154 -70.5t117.5 -88.5t71.5 -111.5t26 -140.5q0 -165 -124 -280.5t-343 -153.5l-68 -113q71 -16 121.5 -63.5t50.5 -110.5q0 -88 -83 -143t-234 -55
q-189 0 -307 73l135 133q33 -22 108 -22q44 0 70.5 10.5t26.5 30.5q0 16 -16 29t-58 23.5t-107 12.5l-24 29l86 150q-167 17 -331 99t-281 206l204 182q127 -79 230.5 -112t236.5 -33q88 0 133 21t45 58q0 28 -24.5 48t-92.5 44.5t-204 59.5q-137 35 -231.5 82t-148.5 107.5
t-77.5 129t-23.5 154.5q0 196 166 314t471 118q294 0 472.5 -123t219.5 -331z" />
    <glyph glyph-name="scedilla" unicode="&#x15f;" horiz-adv-x="1288" 
d="M113 756q0 151 144.5 240t399.5 89q479 0 564 -352h-392q-11 31 -42.5 49.5t-77.5 18.5q-43 0 -68 -11t-25 -30q0 -22 53.5 -44.5t219.5 -72.5q176 -53 254 -129t78 -203q0 -118 -101 -205t-268 -116l-64 -105q72 -16 122.5 -63.5t50.5 -110.5q0 -88 -83.5 -143
t-232.5 -55q-169 0 -280 100l106 106q33 -22 109 -22q44 0 71 10.5t27 30.5q0 25 -44 43.5t-138 21.5l-25 29l88 156q-278 41 -477 250l154 137q94 -61 176.5 -86t201.5 -25q103 0 103 35q0 19 -40 38t-153 52q-213 62 -312 144t-99 223z" />
    <glyph glyph-name="Scaron" unicode="&#x160;" horiz-adv-x="1507" 
d="M1442 1006l-481 -2q-15 46 -66.5 76t-118.5 30q-63 0 -100 -20.5t-37 -49.5q0 -38 49 -69.5t195 -69.5q110 -28 192 -58t154 -70.5t117.5 -88.5t71.5 -111.5t26 -140.5q0 -208 -185 -332.5t-514 -124.5q-187 0 -366.5 85t-312.5 227l204 182q127 -79 230.5 -112
t236.5 -33q88 0 133 21t45 58q0 28 -24.5 48t-92.5 44.5t-204 59.5q-137 35 -231.5 82t-148.5 107.5t-77.5 129t-23.5 154.5q0 196 166 314t471 118q294 0 472.5 -123t219.5 -331zM834 1550h-197l-94 78q-113 96 -199 215l145 94l246 -155l246 155l145 -94
q-88 -122 -198 -215z" />
    <glyph glyph-name="scaron" unicode="&#x161;" horiz-adv-x="1288" 
d="M113 756q0 151 144.5 240t399.5 89q479 0 564 -352h-392q-11 31 -42.5 49.5t-77.5 18.5q-43 0 -68 -11t-25 -30q0 -22 53.5 -44.5t219.5 -72.5q176 -53 254 -129t78 -203q0 -146 -143 -241t-380 -95q-198 0 -345.5 68.5t-270.5 194.5l154 137q94 -61 176.5 -86t201.5 -25
q103 0 103 35q0 19 -40 38t-153 52q-213 62 -312 144t-99 223zM727 1194h-197l-94 78q-110 93 -198 215l145 94l246 -156l245 156l146 -94q-86 -119 -199 -215z" />
    <glyph glyph-name="Tcommaaccent" unicode="&#x162;" horiz-adv-x="1484" 
d="M481 0v1057h-458v377h1439v-377h-456v-1057h-80l-72 -115q71 -16 121.5 -63.5t50.5 -110.5q0 -88 -83 -143t-232 -55q-148 0 -281 96l109 110q33 -22 108 -22q43 0 69.5 10.5t26.5 30.5q0 25 -44 43.5t-136 21.5l-26 29l98 168h-154z" />
    <glyph glyph-name="tcommaaccent" unicode="&#x163;" horiz-adv-x="1069" 
d="M434 -197l-24 29l94 162q-134 32 -210.5 127t-76.5 252v356h-203v293l187 39h16v246l500 67v-313h289v-332h-289v-278q0 -85 41 -112.5t166 -27.5h82v-264q-82 -37 -215 -57l-64 -105q71 -16 121.5 -63.5t50.5 -110.5q0 -88 -83 -143t-232 -55q-82 0 -156 26.5t-125 73.5
l107 106q33 -22 108 -22q44 0 71 10.5t27 30.5q0 25 -44 43.5t-138 21.5z" />
    <glyph glyph-name="Tcaron" unicode="&#x164;" horiz-adv-x="1484" 
d="M481 0v1057h-458v377h1439v-377h-456v-1057h-525zM842 1550h-197l-94 78q-113 96 -199 215l146 94l245 -155l246 155l146 -94q-86 -119 -199 -215z" />
    <glyph glyph-name="tcaron" unicode="&#x165;" horiz-adv-x="1497" 
d="M217 729v-356q0 -201 114 -299.5t322 -98.5q193 0 353 72v264h-82q-125 0 -166 27.5t-41 112.5v278h289v332h-289v313l-500 -67v-246l-203 -39v-293h203zM1090 973l184 540l282 -79l-79 -164q-111 -227 -224 -340z" />
    <glyph glyph-name="Tbar" unicode="&#x166;" horiz-adv-x="1484" 
d="M174 788h307v269h-458v377h1439v-377h-456v-269h307v-180h-307v-608h-525v608h-307v180z" />
    <glyph glyph-name="tbar" unicode="&#x167;" horiz-adv-x="1069" 
d="M217 627v102h-203v293l203 39v246l500 67v-313h289v-332h-289v-102h244v-181h-244q0 -82 41.5 -108.5t165.5 -26.5h82v-264q-160 -72 -353 -72q-208 0 -322 98.5t-114 299.5v73h-151v181h151z" />
    <glyph glyph-name="Utilde" unicode="&#x168;" horiz-adv-x="1843" 
d="M922 -25q-354 0 -563 165t-209 460v834h524v-859q0 -112 65.5 -165.5t182.5 -53.5t183 53.5t66 165.5v859h525v-834q0 -196 -97 -338t-270.5 -214.5t-406.5 -72.5zM1096 1569q-19 0 -37 2t-40.5 8.5t-32.5 9.5t-38.5 13.5t-32.5 11.5q-10 3 -26.5 9t-26.5 9.5t-24 6.5
t-27 3q-76 0 -76 -69l-235 20q7 144 74 219.5t176 75.5q19 0 37 -2t40 -8.5t32.5 -9.5t37.5 -13t33 -12q10 -3 26.5 -9t26.5 -9.5t24 -6.5t27 -3q74 0 74 69l238 -20q-7 -144 -74.5 -219.5t-175.5 -75.5z" />
    <glyph glyph-name="utilde" unicode="&#x169;" horiz-adv-x="1564" 
d="M782 -25q-318 0 -491.5 134.5t-173.5 379.5v572h499v-623q0 -59 45 -93t121 -34t121 34t45 93v623h500v-572q0 -244 -174.5 -379t-491.5 -135zM956 1212q-19 0 -37 2t-40 8.5t-32.5 9.5t-37.5 13t-33 12q-9 3 -32.5 12t-39 13t-32.5 4q-76 0 -76 -69l-236 20
q7 144 74 219.5t176 75.5q19 0 37 -2t40.5 -8.5t32.5 -9.5t38.5 -13.5t32.5 -11.5q9 -3 32.5 -12t39 -13t32.5 -4q74 0 74 70l237 -21q-7 -144 -74.5 -219.5t-175.5 -75.5z" />
    <glyph glyph-name="Umacron" unicode="&#x16a;" horiz-adv-x="1843" 
d="M922 -25q-354 0 -563 165t-209 460v834h524v-859q0 -112 65.5 -165.5t182.5 -53.5t183 53.5t66 165.5v859h525v-834q0 -196 -97 -338t-270.5 -214.5t-406.5 -72.5zM547 1604v227h749v-227h-749z" />
    <glyph glyph-name="umacron" unicode="&#x16b;" horiz-adv-x="1564" 
d="M782 -25q-318 0 -491.5 134.5t-173.5 379.5v572h499v-623q0 -59 45 -93t121 -34t121 34t45 93v623h500v-572q0 -244 -174.5 -379t-491.5 -135zM408 1247v228h749v-228h-749z" />
    <glyph glyph-name="Ubreve" unicode="&#x16c;" horiz-adv-x="1843" 
d="M922 -25q-354 0 -563 165t-209 460v834h524v-859q0 -112 65.5 -165.5t182.5 -53.5t183 53.5t66 165.5v859h525v-834q0 -196 -97 -338t-270.5 -214.5t-406.5 -72.5zM922 1552q-169 0 -279 90t-123 240h266q6 -50 42 -77t94 -27t93.5 27t41.5 77h266
q-13 -151 -122.5 -240.5t-278.5 -89.5z" />
    <glyph glyph-name="ubreve" unicode="&#x16d;" horiz-adv-x="1564" 
d="M782 -25q-318 0 -491.5 134.5t-173.5 379.5v572h499v-623q0 -59 45 -93t121 -34t121 34t45 93v623h500v-572q0 -244 -174.5 -379t-491.5 -135zM782 1200q-169 0 -278.5 89.5t-122.5 240.5h266q6 -50 41.5 -77.5t93.5 -27.5t94 27.5t42 77.5h266q-13 -150 -123 -240
t-279 -90z" />
    <glyph glyph-name="Uring" unicode="&#x16e;" horiz-adv-x="1843" 
d="M922 -25q-354 0 -563 165t-209 460v834h524v-859q0 -112 65.5 -165.5t182.5 -53.5t183 53.5t66 165.5v859h525v-834q0 -196 -97 -338t-270.5 -214.5t-406.5 -72.5zM1206 1731q0 -101 -82 -170.5t-202 -69.5t-202.5 69.5t-82.5 170.5t82.5 170t202.5 69t202 -69t82 -170z
M1024 1731q0 30 -28.5 48.5t-73.5 18.5t-74 -18.5t-29 -48.5t29 -49t74 -19t73.5 19t28.5 49z" />
    <glyph glyph-name="uring" unicode="&#x16f;" horiz-adv-x="1564" 
d="M782 -25q-318 0 -491.5 134.5t-173.5 379.5v572h499v-623q0 -59 45 -93t121 -34t121 34t45 93v623h500v-572q0 -244 -174.5 -379t-491.5 -135zM1067 1374q0 -101 -82.5 -170t-202.5 -69t-202 69t-82 170t82 170.5t202 69.5t202.5 -69.5t82.5 -170.5zM885 1374
q0 30 -29 49t-74 19t-73.5 -19t-28.5 -49t28.5 -48.5t73.5 -18.5t74 18.5t29 48.5z" />
    <glyph glyph-name="Uhungarumlaut" unicode="&#x170;" horiz-adv-x="1843" 
d="M922 -25q-354 0 -563 165t-209 460v834h524v-859q0 -112 65.5 -165.5t182.5 -53.5t183 53.5t66 165.5v859h525v-834q0 -196 -97 -338t-270.5 -214.5t-406.5 -72.5zM983 1790l-104 -84q-137 -107 -273 -150l-133 91l279 292zM1485 1786l-105 -80q-140 -106 -274 -147
l-131 96l282 287z" />
    <glyph glyph-name="uhungarumlaut" unicode="&#x171;" horiz-adv-x="1564" 
d="M782 -25q-318 0 -491.5 134.5t-173.5 379.5v572h499v-623q0 -59 45 -93t121 -34t121 34t45 93v623h500v-572q0 -244 -174.5 -379t-491.5 -135zM819 1434l-104 -84q-137 -107 -273 -150l-133 90l279 293zM1321 1430l-104 -80q-141 -108 -275 -148l-131 96l283 287z" />
    <glyph glyph-name="Uogonek" unicode="&#x172;" horiz-adv-x="1843" 
d="M1696 600q0 -244 -148.5 -400.5t-404.5 -203.5q-142 -98 -142 -184q0 -25 24.5 -40.5t66.5 -15.5q47 0 88 23l116 -107q-63 -63 -132 -92t-171 -29q-118 0 -200 56t-82 145q0 135 131 228q-318 21 -505 183t-187 437v834h524v-859q0 -112 65.5 -165.5t182.5 -53.5
t183 53.5t66 165.5v859h525v-834z" />
    <glyph glyph-name="uogonek" unicode="&#x173;" horiz-adv-x="1564" 
d="M1448 489q0 -198 -118.5 -325.5t-334.5 -167.5q-141 -98 -141 -184q0 -25 24 -40.5t66 -15.5q47 0 88 23l111 -103q-122 -125 -297 -125q-118 0 -200.5 56t-82.5 145q0 135 131 228q-273 20 -425 152.5t-152 356.5v572h499v-623q0 -59 45 -93t121 -34t121 34t45 93v623
h500v-572z" />
    <glyph glyph-name="Wcircumflex" unicode="&#x174;" horiz-adv-x="2562" 
d="M1036 1434h490l250 -899q35 146 116.5 449.5t116.5 449.5h528l-442 -1434h-598l-217 860l-217 -860h-598l-442 1434h530l233 -899zM1182 1919h196l95 -78q110 -93 198 -215l-145 -94l-246 156l-246 -156l-145 94q88 122 198 215z" />
    <glyph glyph-name="wcircumflex" unicode="&#x175;" horiz-adv-x="2183" 
d="M1487 426l-178 635h-435q-25 -103 -88.5 -318t-89.5 -317l-180 635h-504l369 -1061h551q23 94 80 293t80 293l159 -586h551l369 1061h-504zM993 1563h197l94 -78q113 -96 199 -215l-146 -94l-245 155l-246 -155l-146 94q86 119 199 215z" />
    <glyph glyph-name="Ycircumflex" unicode="&#x176;" horiz-adv-x="1681" 
d="M1102 1434l-260 -516l-262 516h-570l570 -875v-559h524v559l569 875h-571zM743 1919h197l94 -78q113 -96 199 -215l-146 -94l-245 156l-246 -156l-145 94q88 122 198 215z" />
    <glyph glyph-name="ycircumflex" unicode="&#x177;" horiz-adv-x="1474" 
d="M481 -35l27 68l-496 1028h508l217 -520l221 520h506l-499 -1137q-92 -208 -242.5 -315t-400.5 -154l-158 213q131 60 205 133t112 164zM639 1563h197l94 -78q110 -93 198 -215l-145 -94l-246 155l-245 -155l-146 94q86 119 199 215z" />
    <glyph glyph-name="Ydieresis" unicode="&#x178;" horiz-adv-x="1681" 
d="M1102 1434l-260 -516l-262 516h-570l570 -875v-559h524v559l569 875h-571zM432 1575v283h301v-283h-301zM952 1575v283h301v-283h-301z" />
    <glyph glyph-name="Zacute" unicode="&#x179;" horiz-adv-x="1474" 
d="M1382 1063l-657 -686h682v-377h-1339v371l657 686h-621v377h1278v-371zM1044 1743l-120 -60q-179 -89 -334 -110l-111 125l379 241z" />
    <glyph glyph-name="zacute" unicode="&#x17a;" horiz-adv-x="1150" 
d="M33 0v330l450 399h-424v332h1035v-330l-449 -399h473v-332h-1085zM883 1386l-121 -59q-179 -89 -334 -110l-111 124l379 242z" />
    <glyph glyph-name="Zdotaccent" unicode="&#x17b;" horiz-adv-x="1474" 
d="M1382 1063l-657 -686h682v-377h-1339v371l657 686h-621v377h1278v-371zM600 1575v283h301v-283h-301z" />
    <glyph glyph-name="zdotaccent" unicode="&#x17c;" horiz-adv-x="1150" 
d="M33 0v330l450 399h-424v332h1035v-330l-449 -399h473v-332h-1085zM438 1219v282h301v-282h-301z" />
    <glyph glyph-name="Zcaron" unicode="&#x17d;" horiz-adv-x="1474" 
d="M1382 1063l-657 -686h682v-377h-1339v371l657 686h-621v377h1278v-371zM848 1550h-197l-94 78q-113 96 -199 215l146 94l246 -155l245 155l146 -94q-86 -119 -199 -215z" />
    <glyph glyph-name="zcaron" unicode="&#x17e;" horiz-adv-x="1150" 
d="M33 0v330l450 399h-424v332h1035v-330l-449 -399h473v-332h-1085zM686 1194h-197l-94 78q-110 93 -198 215l145 94l246 -156l246 156l145 -94q-86 -119 -199 -215z" />
    <glyph glyph-name="longs" unicode="&#x17f;" horiz-adv-x="1050" 
d="M1038 1481v-303q-45 2 -120 2q-109 0 -152 -21.5t-43 -73.5v-1085h-500v729h-209v332h209v37q0 205 129.5 301t405.5 96q157 0 280 -14z" />
    <glyph glyph-name="uni0191" unicode="&#x191;" horiz-adv-x="1361" 
d="M676 516l-2 -440q-1 -132 -72 -245t-190 -190.5t-277 -123.5l-248 190q143 101 203 174.5t60 163.5v1389h1189v-361h-663v-196h577v-361h-577z" />
    <glyph glyph-name="florin" unicode="&#x192;" horiz-adv-x="1050" 
d="M186 -483l-225 190q142 100 202 174t60 164v684h-209v332h209v37q0 205 129.5 301t405.5 96q157 0 280 -14v-301h-120q-109 0 -152 -21.5t-43 -73.5v-24h291v-332h-291v-653q0 -132 -71 -245t-190 -190.5t-276 -123.5z" />
    <glyph glyph-name="Aringacute" unicode="&#x1fa;" horiz-adv-x="1814" 
d="M1192 1491q0 -28 -10 -57h75l537 -1434h-557l-68 221h-526q-10 -37 -32.5 -110.5t-32.5 -110.5h-558l537 1434h72q-6 21 -6 57q0 101 82 170.5t202 69.5t202.5 -69.5t82.5 -170.5zM713 1872l321 205l158 -168l-100 -51q-166 -81 -273 -109zM907 1028l-153 -450h307
q-22 71 -77.5 225t-76.5 225zM1010 1491q0 30 -29 49t-74 19t-73.5 -19t-28.5 -49t28.5 -49t73.5 -19t74 19t29 49z" />
    <glyph glyph-name="aringacute" unicode="&#x1fb;" horiz-adv-x="1431" 
d="M834 575v93q0 64 -41 100.5t-109 36.5q-108 0 -147 -76h-412q25 82 69 144.5t115.5 111.5t177.5 74.5t244 25.5q290 0 437 -120.5t147 -333.5v-336q0 -30 16.5 -43.5t52.5 -13.5h41v-248q-73 -15 -186 -15q-148 0 -237 27.5t-140 97.5q-162 -125 -387 -125
q-183 0 -301.5 93t-118.5 254q0 106 56.5 180t149.5 108.5t214 34.5q81 0 179.5 -18t179.5 -52zM1008 1374q0 -101 -82.5 -170t-202.5 -69t-202.5 69t-82.5 170t82.5 170.5t202.5 69.5t202.5 -69.5t82.5 -170.5zM530 1755l322 205l158 -168l-103 -51q-154 -77 -270 -109z
M834 276v91q-23 26 -75 39.5t-112 13.5q-68 0 -115 -26.5t-47 -71.5t47 -72t115 -27q60 0 112 13.5t75 39.5zM825 1374q0 30 -28.5 49t-73.5 19t-73.5 -19t-28.5 -49t28.5 -48.5t73.5 -18.5t73.5 18.5t28.5 48.5z" />
    <glyph glyph-name="AEacute" unicode="&#x1fc;" horiz-adv-x="2328" 
d="M1153 0v201h-471l-113 -201h-561l877 1434h1337v-361h-541v-158h455v-360h-455v-195h562v-360h-1090zM1153 1006l-268 -449h268v449zM1722 1743l-120 -60q-179 -89 -334 -110l-111 125l379 241z" />
    <glyph glyph-name="aeacute" unicode="&#x1fd;" horiz-adv-x="2203" 
d="M2138 530q0 -57 -8 -98h-813q11 -65 72 -103t161 -38q90 0 157 20.5t153 71.5l213 -168q-236 -240 -553 -240q-309 0 -484 142q-93 -75 -221.5 -108.5t-314.5 -33.5q-121 0 -221 40t-162 120t-62 187q0 106 56.5 180t149.5 108.5t214 34.5q81 0 179.5 -18t179.5 -52v93
q0 64 -41 100.5t-109 36.5q-108 0 -147 -76h-412q25 82 69 144.5t115.5 111.5t177.5 74.5t244 25.5q109 0 211.5 -33t175.5 -91q83 58 179.5 91t187.5 33q292 0 472.5 -154t180.5 -401zM887 297q-21 39 -31 72q-77 51 -211 51q-71 0 -115.5 -28t-44.5 -70t44.5 -70.5
t115.5 -28.5q156 0 242 74zM1485 795q-75 0 -122 -41t-48 -113h340q-3 71 -49 112.5t-121 41.5zM1427 1386l-120 -59q-179 -89 -334 -110l-111 124l379 242z" />
    <glyph glyph-name="Oslashacute" unicode="&#x1fe;" horiz-adv-x="1824" 
d="M76 717q0 -163 59 -301t172 -238l-168 -174l99 -90l178 186q205 -125 495 -125q190 0 348 56t265 154.5t166 235t59 296.5q0 161 -60 298t-171 238l168 177l-99 90l-178 -187q-208 125 -498 125q-190 0 -347.5 -55.5t-264 -154t-165 -235t-58.5 -296.5zM604 717
q0 168 82 264t225 96q118 0 193 -63l-465 -488q-35 81 -35 191zM911 356q-115 0 -192 62l465 487q37 -85 37 -188q0 -169 -82.5 -265t-227.5 -96zM1268 1743l-121 -60q-179 -89 -334 -110l-111 125l379 241z" />
    <glyph glyph-name="oslashacute" unicode="&#x1ff;" horiz-adv-x="1466" 
d="M733 1085q208 0 369 -79l139 143l98 -92l-122 -127q184 -151 184 -400t-186 -402t-482 -153q-208 0 -371 80l-137 -141l-98 90l123 125q-184 154 -184 401q0 249 185.5 402t481.5 153zM545 530q0 -52 8 -88l278 285q-48 23 -98 23q-188 0 -188 -220zM733 311
q187 0 187 219q0 40 -11 86l-276 -284q43 -21 100 -21zM1083 1386l-120 -59q-179 -89 -334 -110l-111 124l379 242z" />
    <glyph glyph-name="Scommaaccent" unicode="&#x218;" horiz-adv-x="1507" 
d="M1442 1006l-481 -2q-15 46 -66.5 76t-118.5 30q-63 0 -100 -20.5t-37 -49.5q0 -38 49 -69.5t195 -69.5q110 -28 192 -58t154 -70.5t117.5 -88.5t71.5 -111.5t26 -140.5q0 -208 -185 -332.5t-514 -124.5q-187 0 -366.5 85t-312.5 227l204 182q127 -79 230.5 -112
t236.5 -33q88 0 133 21t45 58q0 28 -24.5 48t-92.5 44.5t-204 59.5q-137 35 -231.5 82t-148.5 107.5t-77.5 129t-23.5 154.5q0 196 166 314t471 118q294 0 472.5 -123t219.5 -331zM600 -508l141 416l275 -78l-53 -109q-88 -179 -193 -278z" />
    <glyph glyph-name="scommaaccent" unicode="&#x219;" horiz-adv-x="1288" 
d="M113 756q0 151 144.5 240t399.5 89q479 0 564 -352h-392q-11 31 -42.5 49.5t-77.5 18.5q-43 0 -68 -11t-25 -30q0 -22 53.5 -44.5t219.5 -72.5q176 -53 254 -129t78 -203q0 -146 -143 -241t-380 -95q-198 0 -345.5 68.5t-270.5 194.5l154 137q94 -61 176.5 -86t201.5 -25
q103 0 103 35q0 19 -40 38t-153 52q-213 62 -312 144t-99 223zM475 -508l141 416l275 -78l-53 -109q-88 -179 -193 -278z" />
    <glyph glyph-name="uni021A" unicode="&#x21a;" horiz-adv-x="1484" 
d="M481 0v1057h-458v377h1439v-377h-456v-1057h-525zM524 -508l142 416l274 -78l-53 -109q-88 -179 -193 -278z" />
    <glyph glyph-name="uni021B" unicode="&#x21b;" horiz-adv-x="1069" 
d="M217 373v356h-203v293l203 39v246l500 67v-313h289v-332h-289v-278q0 -85 41 -112.5t166 -27.5h82v-264q-160 -72 -353 -72q-208 0 -322 98.5t-114 299.5zM395 -508l142 416l274 -78l-53 -109q-88 -179 -193 -278z" />
    <glyph glyph-name="dotlessj" unicode="&#x237;" horiz-adv-x="782" 
d="M104 -483l-225 190q143 99 202.5 173.5t59.5 164.5v1016h500v-985q0 -132 -71 -245t-190 -190.5t-276 -123.5z" />
    <glyph glyph-name="apostrophe" unicode="&#x2bc;" horiz-adv-x="856" 
d="M195 989l184 541l283 -80l-80 -164q-111 -227 -224 -340z" />
    <glyph glyph-name="circumflex" unicode="&#x2c6;" horiz-adv-x="856" 
d="M330 1522h196l95 -78q110 -93 198 -215l-145 -94l-246 155l-246 -155l-145 94q86 119 199 215z" />
    <glyph glyph-name="caron" unicode="&#x2c7;" horiz-adv-x="856" 
d="M526 1153h-196l-94 78q-113 96 -199 215l145 94l246 -156l246 156l145 -94q-88 -122 -198 -215z" />
    <glyph glyph-name="uni02C9" unicode="&#x2c9;" horiz-adv-x="856" 
d="M53 1206v228h750v-228h-750z" />
    <glyph glyph-name="breve" unicode="&#x2d8;" horiz-adv-x="856" 
d="M428 1159q-169 0 -278.5 89.5t-122.5 240.5h266q6 -50 41.5 -77.5t93.5 -27.5t93.5 27.5t41.5 77.5h266q-13 -151 -122.5 -240.5t-278.5 -89.5z" />
    <glyph glyph-name="dotaccent" unicode="&#x2d9;" horiz-adv-x="856" 
d="M279 1178v282h301v-282h-301z" />
    <glyph glyph-name="ring" unicode="&#x2da;" horiz-adv-x="856" 
d="M713 1333q0 -101 -82.5 -170t-202.5 -69t-202.5 69t-82.5 170t82.5 170.5t202.5 69.5t202.5 -69.5t82.5 -170.5zM530 1333q0 30 -28.5 49t-73.5 19t-73.5 -19t-28.5 -49t28.5 -48.5t73.5 -18.5t73.5 18.5t28.5 48.5z" />
    <glyph glyph-name="ogonek" unicode="&#x2db;" horiz-adv-x="856" 
d="M336 0h278q-76 -52 -111.5 -101t-35.5 -87q0 -25 23.5 -40.5t64.5 -15.5q67 0 90 23l109 -101q-58 -63 -127.5 -95t-169.5 -32q-118 0 -199.5 56t-81.5 145q0 75 42.5 139t117.5 109z" />
    <glyph glyph-name="tilde" unicode="&#x2dc;" horiz-adv-x="856" 
d="M600 1174q-19 0 -37 2t-40 8.5t-32.5 9.5t-37.5 13t-33 12q-9 3 -26 9t-27 9.5t-24.5 6.5t-27.5 3q-75 0 -75 -69l-236 20q7 144 74 219.5t176 75.5q19 0 37 -2t40 -8.5t32.5 -9.5t37.5 -13t33 -12q9 -3 32.5 -12t39.5 -13t33 -4q73 0 73 70l238 -21q-7 -144 -74.5 -219
t-175.5 -75z" />
    <glyph glyph-name="hungarumlaut" unicode="&#x2dd;" horiz-adv-x="856" 
d="M426 1393l-104 -84q-137 -107 -273 -150l-133 90l279 293zM928 1389l-105 -80q-142 -108 -274 -148l-131 96l282 287z" />
    <glyph glyph-name="gravecomb" unicode="&#x300;" horiz-adv-x="0" 
d="M-805 1278l-139 70l186 194l379 -242l-119 -133q-131 22 -307 111z" />
    <glyph glyph-name="acutecomb" unicode="&#x301;" horiz-adv-x="0" 
d="M-379 1346l-121 -60q-179 -89 -334 -110l-110 124l379 242z" />
    <glyph glyph-name="uni0302" unicode="&#x302;" horiz-adv-x="0" 
d="M-760 1522h197l94 -78q113 -96 199 -215l-146 -94l-246 155l-245 -155l-146 94q86 119 199 215z" />
    <glyph glyph-name="tildecomb" unicode="&#x303;" horiz-adv-x="0" 
d="M-489 1174q-19 0 -37 2t-40.5 8.5t-32.5 9.5t-38.5 13.5t-32.5 11.5q-10 3 -26.5 9t-26.5 9.5t-24 6.5t-27 3q-76 0 -76 -69l-235 20q7 144 73.5 219.5t175.5 75.5q19 0 37 -2t40.5 -8.5t32.5 -9.5t38.5 -13.5t32.5 -11.5q9 -3 32.5 -12t39 -13t32.5 -4q74 0 74 70
l237 -21q-7 -144 -74 -219t-175 -75z" />
    <glyph glyph-name="uni0304" unicode="&#x304;" horiz-adv-x="0" 
d="M-1036 1206v228h749v-228h-749z" />
    <glyph glyph-name="uni0306" unicode="&#x306;" horiz-adv-x="0" 
d="M-662 1159q-169 0 -278.5 89.5t-122.5 240.5h266q6 -50 41.5 -77.5t93.5 -27.5t94 27.5t42 77.5h266q-13 -150 -123 -240t-279 -90z" />
    <glyph glyph-name="uni0307" unicode="&#x307;" horiz-adv-x="0" 
d="M-811 1178v282h301v-282h-301z" />
    <glyph glyph-name="uni0308" unicode="&#x308;" horiz-adv-x="0" 
d="M-1071 1178v282h301v-282h-301zM-551 1178v282h301v-282h-301z" />
    <glyph glyph-name="uni030A" unicode="&#x30a;" horiz-adv-x="0" 
d="M-377 1333q0 -101 -82.5 -170t-202.5 -69t-202 69t-82 170t82 170.5t202 69.5t202.5 -69.5t82.5 -170.5zM-559 1333q0 30 -29 49t-74 19t-73.5 -19t-28.5 -49t28.5 -48.5t73.5 -18.5t74 18.5t29 48.5z" />
    <glyph glyph-name="uni030C" unicode="&#x30c;" horiz-adv-x="0" 
d="M-563 1153h-197l-94 78q-113 96 -199 215l146 94l245 -156l246 156l146 -94q-86 -119 -199 -215z" />
    <glyph glyph-name="uni0327" unicode="&#x327;" horiz-adv-x="0" 
d="M-844 -197l-24 29l98 168h289l-72 -115q73 -16 123.5 -63.5t50.5 -110.5q0 -88 -83 -143t-234 -55q-148 0 -281 96l109 110q33 -22 108 -22q96 0 96 41q0 16 -15.5 29t-57.5 23.5t-107 12.5z" />
    <glyph glyph-name="uni03A9" unicode="&#x3a9;" horiz-adv-x="1824" 
d="M911 1458q193 0 351.5 -47.5t264.5 -132.5t164 -203t58 -258q0 -137 -70 -271.5t-192 -215.5h246v-330h-742v319q228 161 228 412q0 162 -77.5 254t-230.5 92q-151 0 -228 -92t-77 -254q0 -251 228 -412v-319h-742v330h246q-122 81 -192 215.5t-70 271.5q0 140 57.5 258
t163.5 203t264 132.5t350 47.5z" />
    <glyph glyph-name="uni0400" unicode="&#x400;" horiz-adv-x="1445" 
d="M150 0v1434h1189v-361h-663v-158h577v-360h-577v-195h686v-360h-1212zM551 1675l-139 70l186 194l379 -241l-119 -133q-134 23 -307 110z" />
    <glyph glyph-name="afii10023" unicode="&#x401;" horiz-adv-x="1445" 
d="M150 0v1434h1189v-361h-663v-158h577v-360h-577v-195h686v-360h-1212zM334 1575v283h301v-283h-301zM854 1575v283h301v-283h-301z" />
    <glyph glyph-name="afii10051" unicode="&#x402;" horiz-adv-x="1961" 
d="M1372 461q0 104 -158 104q-54 0 -114.5 -13.5t-93.5 -29.5v-522h-525v1057h-458v377h1439v-377h-456v-230q70 40 182 67.5t215 27.5q77 0 148.5 -17.5t134 -53.5t109 -88t73 -125.5t26.5 -160.5q0 -97 -27 -177.5t-73 -135t-108.5 -92.5t-133.5 -55t-149 -17
q-170 0 -316 82l72 278q16 -4 72 -4q54 0 97.5 30t43.5 75z" />
    <glyph glyph-name="afii10052" unicode="&#x403;" horiz-adv-x="1388" 
d="M1053 1743l-121 -60q-179 -89 -334 -110l-111 125l379 241zM150 0v1434h1216v-377h-692v-1057h-524z" />
    <glyph glyph-name="afii10053" unicode="&#x404;" horiz-adv-x="1730" 
d="M1380 539l250 -150q-120 -195 -294.5 -303.5t-399.5 -108.5q-404 0 -632 200.5t-228 539.5q0 167 55.5 303.5t160.5 233t263 149.5t356 53q321 0 522.5 -163.5t235.5 -434.5h-485q-36 221 -273 221q-210 0 -278 -184h364v-356h-358q37 -89 116.5 -137t192.5 -48
q146 0 246 48t186 137z" />
    <glyph glyph-name="afii10054" unicode="&#x405;" horiz-adv-x="1507" 
d="M1442 1006l-481 -2q-15 46 -66.5 76t-118.5 30q-63 0 -100 -20.5t-37 -49.5q0 -38 49 -69.5t195 -69.5q110 -28 192 -58t154 -70.5t117.5 -88.5t71.5 -111.5t26 -140.5q0 -208 -185 -332.5t-514 -124.5q-187 0 -366.5 85t-312.5 227l204 182q127 -79 230.5 -112
t236.5 -33q88 0 133 21t45 58q0 28 -24.5 48t-92.5 44.5t-204 59.5q-137 35 -231.5 82t-148.5 107.5t-77.5 129t-23.5 154.5q0 196 166 314t471 118q294 0 472.5 -123t219.5 -331z" />
    <glyph glyph-name="afii10055" unicode="&#x406;" horiz-adv-x="841" 
d="M158 1434h524v-1434h-524v1434z" />
    <glyph glyph-name="afii10056" unicode="&#x407;" horiz-adv-x="841" 
d="M158 1434h524v-1434h-524v1434zM10 1575v283h301v-283h-301zM530 1575v283h301v-283h-301z" />
    <glyph glyph-name="afii10057" unicode="&#x408;" horiz-adv-x="1556" 
d="M883 535v899h524v-895q0 -258 -180.5 -411t-489.5 -153q-201 0 -363 103.5t-261 279.5l254 140q53 -66 142 -104t175 -38q92 0 145.5 46.5t53.5 132.5z" />
    <glyph glyph-name="afii10058" unicode="&#x409;" horiz-adv-x="2504" 
d="M272 -20l-249 190q142 100 202 174t60 164v926h1376v-496h151q295 0 461 -123.5t166 -345.5t-166 -345.5t-461 -123.5h-675v1057h-328v-518q0 -132 -71 -245t-190 -190.5t-276 -123.5zM1939 469q0 113 -174 113h-104v-226h104q174 0 174 113z" />
    <glyph glyph-name="afii10059" unicode="&#x40a;" horiz-adv-x="2430" 
d="M2365 469q0 -222 -165.5 -345.5t-460.5 -123.5h-676v559h-389v-559h-524v1434h524v-498h389v498h524v-496h152q295 0 460.5 -123.5t165.5 -345.5zM1866 469q0 113 -174 113h-105v-226h105q174 0 174 113z" />
    <glyph glyph-name="afii10060" unicode="&#x40b;" horiz-adv-x="2011" 
d="M481 0v1057h-458v377h1439v-377h-456v-230q70 40 182 67.5t215 27.5q491 0 491 -504v-418h-522v356q0 104 -45.5 146.5t-138.5 42.5q-102 0 -182 -43v-502h-525z" />
    <glyph glyph-name="afii10061" unicode="&#x40c;" horiz-adv-x="1732" 
d="M1657 1434l-518 -590l596 -844h-590l-320 487l-151 -172v-315h-524v1434h524v-508l407 508h576zM1174 1743l-121 -60q-179 -89 -334 -110l-111 125l379 241z" />
    <glyph glyph-name="uni040D" unicode="&#x40d;" horiz-adv-x="1785" 
d="M1636 1434v-1434h-508v686l-501 -686h-477v1434h509v-686l502 686h475zM688 1675l-139 70l186 194l379 -241l-119 -133q-134 23 -307 110z" />
    <glyph glyph-name="afii10062" unicode="&#x40e;" horiz-adv-x="1646" 
d="M348 0l236 451l-547 983h532l252 -516l281 516h534l-749 -1434h-539zM823 1552q-169 0 -278.5 89.5t-122.5 240.5h266q6 -50 41.5 -77t93.5 -27t93.5 27t41.5 77h267q-13 -150 -123 -240t-279 -90z" />
    <glyph glyph-name="afii10145" unicode="&#x40f;" horiz-adv-x="1800" 
d="M150 0v1434h524v-1057h452v1057h525v-1434h-490v-246h-524v246h-487z" />
    <glyph glyph-name="afii10017" unicode="&#x410;" horiz-adv-x="1814" 
d="M1237 0l-68 221h-526l-65 -221h-558l537 1434h700l537 -1434h-557zM907 1028l-153 -450h307z" />
    <glyph glyph-name="afii10018" unicode="&#x411;" horiz-adv-x="1517" 
d="M1290 1077h-616v-143h149q294 0 461.5 -125.5t167.5 -341.5t-167.5 -341.5t-461.5 -125.5h-673v1434h1140v-357zM952 467q0 111 -178 111h-100v-222h100q178 0 178 111z" />
    <glyph glyph-name="afii10019" unicode="&#x412;" horiz-adv-x="1609" 
d="M150 0v1434h673q319 0 478 -105t159 -297q0 -96 -52 -172t-142 -110q124 -34 202 -117t78 -199q0 -76 -21.5 -139.5t-72 -118.5t-127.5 -93.5t-193.5 -60.5t-265.5 -22h-716zM1016 453q0 61 -43.5 88.5t-136.5 27.5h-172v-233h172q93 0 136.5 28t43.5 89zM975 993
q0 55 -42 80t-132 25h-137v-209h137q90 0 132 24.5t42 79.5z" />
    <glyph glyph-name="afii10020" unicode="&#x413;" horiz-adv-x="1388" 
d="M150 0v1434h1216v-377h-692v-1057h-524z" />
    <glyph glyph-name="afii10021" unicode="&#x414;" horiz-adv-x="1683" 
d="M1653 356v-602h-525v246h-593v-246h-525v602h160q51 173 77.5 402t26.5 436v240h1186v-1078h193zM961 356v721h-187q-2 -161 -27 -368.5t-67 -352.5h281z" />
    <glyph glyph-name="afii10022" unicode="&#x415;" horiz-adv-x="1445" 
d="M150 0v1434h1189v-361h-663v-158h577v-360h-577v-195h686v-360h-1212z" />
    <glyph glyph-name="afii10024" unicode="&#x416;" horiz-adv-x="2541" 
d="M1010 971v463h524v-463h37l321 463h576l-471 -566l549 -868h-588l-248 481h-35l-137 -166h-4v-315h-524v315h-4q-22 28 -69.5 83.5t-70.5 82.5h-35l-247 -481h-586l545 868q-76 92 -234.5 283t-234.5 283h575l324 -463h37z" />
    <glyph glyph-name="afii10025" unicode="&#x417;" horiz-adv-x="1425" 
d="M399 553v356h162q120 0 183 28t63 77q0 42 -40 64t-108 22q-65 0 -110 -25.5t-53 -79.5h-437q12 144 93 249.5t211 159.5t294 54q196 0 348 -45t242 -137t90 -219q0 -99 -64 -183t-177 -129h2q123 -44 188.5 -133.5t65.5 -205.5q0 -194 -174.5 -312.5t-458.5 -118.5
q-176 0 -345 68.5t-302 192.5l215 196q78 -50 159.5 -73t190.5 -23q85 0 134.5 24.5t49.5 67.5q0 125 -293 125h-129z" />
    <glyph glyph-name="afii10026" unicode="&#x418;" horiz-adv-x="1785" 
d="M1636 1434v-1434h-508v686l-501 -686h-477v1434h509v-686l502 686h475z" />
    <glyph glyph-name="afii10027" unicode="&#x419;" horiz-adv-x="1785" 
d="M1636 1434v-1434h-508v686l-501 -686h-477v1434h509v-686l502 686h475zM893 1552q-169 0 -278.5 89.5t-122.5 240.5h266q6 -50 41.5 -77t93.5 -27t93.5 27t41.5 77h266q-13 -151 -122.5 -240.5t-278.5 -89.5z" />
    <glyph glyph-name="afii10028" unicode="&#x41a;" horiz-adv-x="1732" 
d="M1657 1434l-518 -590l596 -844h-590l-320 487l-151 -172v-315h-524v1434h524v-508l407 508h576z" />
    <glyph glyph-name="afii10029" unicode="&#x41b;" horiz-adv-x="1871" 
d="M1722 1434v-1434h-524v1057h-389v-518q0 -197 -148.5 -342.5t-390.5 -216.5l-247 190q142 100 202 174t60 164v926h1437z" />
    <glyph glyph-name="afii10030" unicode="&#x41c;" horiz-adv-x="2187" 
d="M938 260l-281 424v-684h-507v1434h491l453 -713l452 713h494v-1434h-510v684l-281 -424h-311z" />
    <glyph glyph-name="afii10031" unicode="&#x41d;" horiz-adv-x="1810" 
d="M150 0v1434h524v-498h463v498h524v-1434h-524v559h-463v-559h-524z" />
    <glyph glyph-name="afii10032" unicode="&#x41e;" horiz-adv-x="1824" 
d="M76 717q0 160 58.5 296.5t165 235t264 154t347.5 55.5t348 -55.5t265 -154t166 -235t59 -296.5t-59 -296.5t-166 -235t-265 -154.5t-348 -56t-347.5 56t-264 154.5t-165 235t-58.5 296.5zM604 717q0 -168 82 -264.5t225 -96.5q145 0 227.5 96t82.5 265t-82.5 264.5
t-227.5 95.5q-143 0 -225 -96t-82 -264z" />
    <glyph glyph-name="afii10033" unicode="&#x41f;" horiz-adv-x="1800" 
d="M1651 1434v-1434h-525v1057h-452v-1057h-524v1434h1501z" />
    <glyph glyph-name="afii10034" unicode="&#x420;" horiz-adv-x="1583" 
d="M1528 936q0 -126 -51.5 -222t-147 -156t-225.5 -90t-293 -30h-137v-438h-524v1434h661q163 0 293 -30t225.5 -90t147 -156t51.5 -222zM999 936q0 76 -52.5 108.5t-151.5 32.5h-121v-282h121q204 0 204 141z" />
    <glyph glyph-name="afii10035" unicode="&#x421;" horiz-adv-x="1730" 
d="M1380 539l250 -150q-120 -195 -294.5 -303.5t-399.5 -108.5q-404 0 -632 200.5t-228 539.5q0 167 55.5 303.5t160.5 233t263 149.5t356 53q321 0 522.5 -163.5t235.5 -434.5h-485q-36 221 -273 221q-149 0 -228 -95.5t-79 -266.5q0 -168 92.5 -265.5t251.5 -97.5
q146 0 246 48t186 137z" />
    <glyph glyph-name="afii10036" unicode="&#x422;" horiz-adv-x="1484" 
d="M481 0v1057h-458v377h1439v-377h-456v-1057h-525z" />
    <glyph glyph-name="afii10037" unicode="&#x423;" horiz-adv-x="1646" 
d="M348 0l236 451l-547 983h532l252 -516l281 516h534l-749 -1434h-539z" />
    <glyph glyph-name="afii10038" unicode="&#x424;" horiz-adv-x="1957" 
d="M1229 1434v-189h18q295 0 472 -146.5t177 -381.5q0 -236 -177 -382.5t-472 -146.5h-18v-188h-500v188h-18q-296 0 -474 146.5t-178 382.5q0 235 177.5 381.5t474.5 146.5h18v189h500zM729 539v356h-22q-74 0 -123 -48t-49 -130t49 -130t123 -48h22zM1229 895v-356h22
q74 0 122 47.5t48 130.5t-48 130.5t-122 47.5h-22z" />
    <glyph glyph-name="afii10039" unicode="&#x425;" horiz-adv-x="1705" 
d="M854 446l-274 -446h-570l484 733q-74 113 -230 350.5t-229 350.5h569l250 -396l248 396h571l-461 -701l486 -733h-572z" />
    <glyph glyph-name="afii10040" unicode="&#x426;" horiz-adv-x="1875" 
d="M150 0v1434h524v-1057h452v1057h525v-1057h194v-623h-524v246h-1171z" />
    <glyph glyph-name="afii10041" unicode="&#x427;" horiz-adv-x="1669" 
d="M1522 1434v-1434h-525v586q-70 -40 -183 -67t-216 -27q-492 0 -492 503v439h523v-377q0 -104 45.5 -146.5t138.5 -42.5q107 0 184 43v523h525z" />
    <glyph glyph-name="afii10042" unicode="&#x428;" horiz-adv-x="2387" 
d="M150 0v1434h524v-1057h256v1057h526v-1057h258v1057h524v-1434h-2088z" />
    <glyph glyph-name="afii10043" unicode="&#x429;" horiz-adv-x="2463" 
d="M150 0v1434h524v-1057h256v1057h526v-1057h258v1057h524v-1057h195v-623h-524v246h-1759z" />
    <glyph glyph-name="afii10044" unicode="&#x42a;" horiz-adv-x="1775" 
d="M1710 469q0 -222 -166.5 -345.5t-462.5 -123.5h-673v1057h-385v377h909v-500h149q296 0 462.5 -121.5t166.5 -343.5zM1210 469q0 109 -176 109h-102v-222h102q176 0 176 113z" />
    <glyph glyph-name="afii10045" unicode="&#x42b;" horiz-adv-x="2289" 
d="M1616 1434h524v-1434h-524v1434zM1452 469q0 -222 -166.5 -345.5t-462.5 -123.5h-673v1434h524v-496h149q296 0 462.5 -123.5t166.5 -345.5zM952 469q0 113 -176 113h-102v-226h102q176 0 176 113z" />
    <glyph glyph-name="afii10046" unicode="&#x42c;" horiz-adv-x="1517" 
d="M1452 469q0 -222 -166.5 -345.5t-462.5 -123.5h-673v1434h524v-496h149q296 0 462.5 -123.5t166.5 -345.5zM952 469q0 113 -176 113h-102v-226h102q176 0 176 113z" />
    <glyph glyph-name="afii10047" unicode="&#x42d;" horiz-adv-x="1730" 
d="M96 387l254 152q84 -89 184.5 -137t245.5 -48q114 0 194.5 48t117.5 137h-359v356h363q-31 89 -102 136.5t-177 47.5q-234 0 -270 -221h-486q34 271 235 434.5t521 163.5q397 0 617.5 -199.5t220.5 -539.5q0 -339 -228.5 -539.5t-633.5 -200.5q-225 0 -401 108t-296 302z
" />
    <glyph glyph-name="afii10048" unicode="&#x42e;" horiz-adv-x="2357" 
d="M150 1434h524v-529h237q86 553 676 553q151 0 269 -36.5t196.5 -101t129.5 -158.5t73 -203.5t22 -241.5t-22 -241.5t-73 -204t-129.5 -159t-196.5 -101t-269 -36.5q-591 0 -676 553h-237v-528h-524v1434zM1427 717q0 -210 34 -285.5t126 -75.5q63 0 97 32t49.5 109
t15.5 220t-15.5 220t-49.5 108.5t-97 31.5q-62 0 -96 -31.5t-49 -108.5t-15 -220z" />
    <glyph glyph-name="afii10049" unicode="&#x42f;" horiz-adv-x="1681" 
d="M864 496l-282 -496h-564l394 571q-132 56 -205.5 155t-73.5 239q0 119 52.5 209.5t151 147t232.5 84.5t303 28h662v-1434h-524v496h-146zM854 840h156v250h-156q-203 0 -203 -125t203 -125z" />
    <glyph glyph-name="afii10065" unicode="&#x430;" horiz-adv-x="1431" 
d="M834 575v93q0 64 -41 100.5t-109 36.5q-108 0 -147 -76h-412q25 82 69 144.5t115.5 111.5t177.5 74.5t244 25.5q290 0 437 -120.5t147 -333.5v-336q0 -30 16.5 -43.5t52.5 -13.5h41v-248q-73 -15 -186 -15q-148 0 -237 27.5t-140 97.5q-162 -125 -387 -125
q-183 0 -301.5 93t-118.5 254q0 106 56.5 180t149.5 108.5t214 34.5q81 0 179.5 -18t179.5 -52zM834 276v91q-23 26 -75 39.5t-112 13.5q-68 0 -115 -26.5t-47 -71.5t47 -72t115 -27q60 0 112 13.5t75 39.5z" />
    <glyph glyph-name="afii10066" unicode="&#x431;" horiz-adv-x="1435" 
d="M1247 1192q-495 -6 -620 -238q56 39 141 63.5t160 24.5q205 0 323.5 -137.5t118.5 -382.5q0 -119 -40 -218.5t-117.5 -173t-200 -114.5t-279.5 -41q-317 0 -485 177.5t-168 488.5q0 301 128 493t399.5 288t701.5 96zM735 707q-92 0 -153 -54q1 -135 20.5 -212
t51.5 -103.5t85 -26.5q131 0 131 203q0 106 -33.5 149.5t-101.5 43.5z" />
    <glyph glyph-name="afii10067" unicode="&#x432;" horiz-adv-x="1394" 
d="M776 0h-649v1061h623q516 0 516 -295q0 -71 -39.5 -123t-104.5 -78q93 -28 150 -92.5t57 -161.5q0 -153 -134 -232t-419 -79zM850 336q0 86 -127 86h-145v-172h145q127 0 127 86zM834 735q0 78 -121 78h-135v-156h135q121 0 121 78z" />
    <glyph glyph-name="afii10068" unicode="&#x433;" horiz-adv-x="1165" 
d="M127 0v1061h1014v-332h-514v-729h-500z" />
    <glyph glyph-name="afii10069" unicode="&#x434;" horiz-adv-x="1482" 
d="M1452 332v-557h-500v225h-430v-225h-499v557h139q67 268 67 551v178h1067v-729h156zM846 332v397h-178q-3 -194 -56 -397h234z" />
    <glyph glyph-name="afii10070" unicode="&#x435;" horiz-adv-x="1435" 
d="M1370 530q0 -52 -6 -98h-813q11 -65 72 -103t161 -38q91 0 159 21t149 71l215 -168q-236 -240 -555 -240q-316 0 -501 153t-185 402q0 247 180.5 401t472.5 154q291 0 471 -154t180 -401zM719 795q-75 0 -122 -41t-50 -113h342q-5 71 -50 112.5t-120 41.5z" />
    <glyph glyph-name="afii10072" unicode="&#x436;" horiz-adv-x="2209" 
d="M1485 358l-131 -133v-225h-500v225l-131 133l-180 -358h-553l422 676l-379 385h567l254 -316v316h500v-316l254 316h567l-379 -385l422 -676h-553z" />
    <glyph glyph-name="afii10073" unicode="&#x437;" horiz-adv-x="1296" 
d="M563 784q-110 0 -127 -59h-370q34 180 181 270t378 90q273 0 415 -85t142 -224q0 -159 -152 -229q92 -29 146.5 -92t54.5 -152q0 -146 -155.5 -237t-438.5 -91q-319 0 -571 228l151 153q95 -50 170.5 -65t177.5 -15q67 0 116.5 18t49.5 46q0 32 -29 47.5t-106 15.5h-195
v263h127q154 0 154 65q0 53 -119 53z" />
    <glyph glyph-name="afii10074" unicode="&#x438;" horiz-adv-x="1560" 
d="M1436 0h-500v494l-340 -494h-469v1061h500v-494l340 494h469v-1061z" />
    <glyph glyph-name="afii10075" unicode="&#x439;" horiz-adv-x="1560" 
d="M1436 0h-500v494l-340 -494h-469v1061h500v-494l340 494h469v-1061zM780 1200q-169 0 -278.5 89.5t-122.5 240.5h266q6 -50 41.5 -77.5t93.5 -27.5t93.5 27.5t41.5 77.5h267q-13 -150 -123 -240t-279 -90z" />
    <glyph glyph-name="afii10076" unicode="&#x43a;" horiz-adv-x="1529" 
d="M1497 1061l-412 -385l457 -676h-543l-229 381l-143 -135v-246h-500v1061h500v-316l301 316h569z" />
    <glyph glyph-name="afii10077" unicode="&#x43b;" horiz-adv-x="1654" 
d="M285 1061h1243v-1061h-500v729h-244v-231q0 -216 -152.5 -351t-408.5 -170l-200 195q139 74 200.5 137.5t61.5 157.5v594z" />
    <glyph glyph-name="afii10078" unicode="&#x43c;" horiz-adv-x="1873" 
d="M866 221l-239 291v-512h-500v1061h475l346 -459l324 459h475v-1061h-500v512l-219 -291h-162z" />
    <glyph glyph-name="afii10079" unicode="&#x43d;" horiz-adv-x="1572" 
d="M948 743v318h500v-1061h-500v412h-321v-412h-500v1061h500v-318h321z" />
    <glyph glyph-name="afii10080" unicode="&#x43e;" horiz-adv-x="1466" 
d="M733 311q187 0 187 219q0 220 -187 220q-188 0 -188 -220q0 -219 188 -219zM733 1085q296 0 482 -153t186 -402t-186 -402t-482 -153t-481.5 153t-185.5 402t185.5 402t481.5 153z" />
    <glyph glyph-name="afii10081" unicode="&#x43f;" horiz-adv-x="1546" 
d="M127 0v1061h1292v-1061h-499v729h-293v-729h-500z" />
    <glyph glyph-name="afii10082" unicode="&#x440;" horiz-adv-x="1589" 
d="M1513 530q0 -136 -39.5 -243.5t-109 -174.5t-162 -102t-201.5 -35q-99 0 -201 31t-173 86v-526h-500v1495h405l74 -113q70 63 182 100t213 37q109 0 201.5 -35t162 -102t109 -174.5t39.5 -243.5zM801 311q99 0 154 54t55 165t-55 165.5t-154 54.5q-44 0 -95 -14.5
t-79 -37.5v-336q28 -22 78.5 -36.5t95.5 -14.5z" />
    <glyph glyph-name="afii10083" unicode="&#x441;" horiz-adv-x="1355" 
d="M66 530q0 248 182 401.5t487 153.5q124 0 227 -34t173.5 -94t114 -138.5t57.5 -171.5h-453q-12 51 -41.5 77t-99.5 26q-64 0 -104 -59.5t-40 -160.5q0 -105 48.5 -162t144.5 -57q185 0 299 117l237 -139q-89 -142 -235.5 -228t-339.5 -86q-304 0 -480.5 153t-176.5 402z
" />
    <glyph glyph-name="afii10084" unicode="&#x442;" horiz-adv-x="1327" 
d="M913 729v-729h-499v729h-379v332h1257v-332h-379z" />
    <glyph glyph-name="afii10085" unicode="&#x443;" horiz-adv-x="1474" 
d="M481 -35l27 68l-496 1028h508l217 -520l221 520h506l-499 -1137q-92 -208 -242.5 -315t-400.5 -154l-158 213q131 60 205 133t112 164z" />
    <glyph glyph-name="afii10086" unicode="&#x444;" horiz-adv-x="2424" 
d="M76 530q0 136 39.5 243.5t109 174.5t162 102t201.5 35q99 0 201.5 -30.5t173.5 -85.5v526h499v-526q71 55 173.5 85.5t201.5 30.5q109 0 201.5 -35t162 -102t109 -174.5t39.5 -243.5t-39.5 -243.5t-109 -174.5t-162 -102t-201.5 -35q-99 0 -201.5 31t-173.5 86v-526h-499
v526q-71 -55 -173.5 -86t-201.5 -31q-109 0 -201.5 35t-162 102t-109 174.5t-39.5 243.5zM1636 311q99 0 154 54t55 165t-55 165.5t-154 54.5q-44 0 -95 -14.5t-79 -37.5v-336q28 -22 78.5 -36.5t95.5 -14.5zM786 750q-97 0 -151.5 -54.5t-54.5 -165.5t54.5 -165t151.5 -54
q45 0 97 14.5t80 36.5v336q-28 23 -80.5 37.5t-96.5 14.5z" />
    <glyph glyph-name="afii10087" unicode="&#x445;" horiz-adv-x="1441" 
d="M1401 1061l-301 -510l340 -551h-516l-205 348l-203 -348h-516l338 551l-299 510h516l164 -307l166 307h516z" />
    <glyph glyph-name="afii10088" unicode="&#x446;" horiz-adv-x="1605" 
d="M1575 332v-557h-500v225h-948v1061h500v-729h293v729h499v-729h156z" />
    <glyph glyph-name="afii10089" unicode="&#x447;" horiz-adv-x="1474" 
d="M733 592q79 0 119 29v440h498v-1061h-498v397q-44 -33 -128.5 -53t-162.5 -20q-222 0 -345.5 113.5t-123.5 348.5v275h498v-252q0 -120 33 -168.5t110 -48.5z" />
    <glyph glyph-name="afii10090" unicode="&#x448;" horiz-adv-x="2095" 
d="M797 332v729h499v-729h172v729h500v-1061h-1841v1061h500v-729h170z" />
    <glyph glyph-name="afii10091" unicode="&#x449;" horiz-adv-x="2154" 
d="M2124 332v-557h-500v225h-1497v1061h500v-729h170v729h499v-729h172v729h500v-729h156z" />
    <glyph glyph-name="afii10092" unicode="&#x44a;" horiz-adv-x="1576" 
d="M827 733h113q278 0 434 -91.5t156 -274.5t-156 -275t-434 -92h-612v729h-305v332h804v-328zM1030 365q0 94 -133 94h-68v-185h68q133 0 133 91z" />
    <glyph glyph-name="afii10093" unicode="&#x44b;" horiz-adv-x="2093" 
d="M1966 0h-500v1061h500v-1061zM737 0h-610v1061h500v-328h110q280 0 436 -91.5t156 -274.5t-156.5 -275t-435.5 -92zM829 365q0 94 -133 94h-67v-185h67q133 0 133 91z" />
    <glyph glyph-name="afii10094" unicode="&#x44c;" horiz-adv-x="1374" 
d="M737 0h-610v1061h500v-328h110q280 0 436 -91.5t156 -274.5t-156.5 -275t-435.5 -92zM829 365q0 94 -133 94h-67v-185h67q133 0 133 91z" />
    <glyph glyph-name="afii10095" unicode="&#x44d;" horiz-adv-x="1355" 
d="M1284 530q0 -250 -176 -402.5t-481 -152.5q-193 0 -340 86t-236 228l219 123q53 -54 139.5 -87.5t178.5 -33.5q157 0 211 104h-242v271h244q-23 50 -66 77t-98 27q-134 0 -188 -102h-406q29 173 189 295t382 122q306 0 488 -153.5t182 -401.5z" />
    <glyph glyph-name="afii10096" unicode="&#x44e;" horiz-adv-x="2039" 
d="M1370 1085q292 0 449 -149.5t157 -405.5q0 -257 -157 -406t-449 -149q-240 0 -390 101.5t-198 285.5h-155v-362h-500v1061h500v-367h155q47 184 197 287.5t391 103.5zM1370 311q69 0 97 50t28 169q0 118 -28.5 169t-96.5 51q-71 0 -99 -50.5t-28 -169.5q0 -120 28 -169.5
t99 -49.5z" />
    <glyph glyph-name="afii10097" unicode="&#x44f;" horiz-adv-x="1443" 
d="M1315 0h-500v326h-96q-35 -55 -106.5 -163t-106.5 -163h-508l295 397q-189 103 -189 303q0 168 133 264.5t377 96.5h701v-1061zM815 610v178h-67q-67 0 -105.5 -24t-38.5 -64q0 -41 38.5 -65.5t105.5 -24.5h67z" />
    <glyph glyph-name="uni0450" unicode="&#x450;" horiz-adv-x="1435" 
d="M1370 530q0 -52 -6 -98h-813q11 -65 72 -103t161 -38q91 0 159 21t149 71l215 -168q-236 -240 -555 -240q-316 0 -501 153t-185 402q0 247 180.5 401t472.5 154q291 0 471 -154t180 -401zM719 795q-75 0 -122 -41t-50 -113h342q-5 71 -50 112.5t-120 41.5zM520 1319
l-139 70l186 194l379 -242l-119 -133q-131 22 -307 111z" />
    <glyph glyph-name="afii10071" unicode="&#x451;" horiz-adv-x="1435" 
d="M1370 530q0 -52 -6 -98h-813q11 -65 72 -103t161 -38q91 0 159 21t149 71l215 -168q-236 -240 -555 -240q-316 0 -501 153t-185 402q0 247 180.5 401t472.5 154q291 0 471 -154t180 -401zM719 795q-75 0 -122 -41t-50 -113h342q-5 71 -50 112.5t-120 41.5zM309 1219v282
h301v-282h-301zM829 1219v282h301v-282h-301z" />
    <glyph glyph-name="afii10099" unicode="&#x452;" horiz-adv-x="1576" 
d="M920 -483l-224 190q141 100 200.5 174t59.5 164v596q0 53 -34.5 81t-98.5 28q-52 0 -108 -19t-88 -45v-686h-500v1194h-147v180h147v121h500v-121h385v-180h-385v-246q76 60 188 98.5t225 38.5q192 0 304 -106.5t112 -314.5v-588q0 -197 -147 -343t-389 -216z" />
    <glyph glyph-name="afii10100" unicode="&#x453;" horiz-adv-x="1165" 
d="M127 0v1061h1014v-332h-514v-729h-500zM936 1386l-121 -59q-179 -89 -334 -110l-110 124l379 242z" />
    <glyph glyph-name="afii10101" unicode="&#x454;" horiz-adv-x="1355" 
d="M66 530q0 248 182 401.5t487 153.5q148 0 274 -58t202.5 -152.5t95.5 -206.5h-406q-23 47 -71 74.5t-117 27.5q-55 0 -98 -27t-66 -77h244v-271h-240q50 -104 209 -104q93 0 179.5 33t139.5 88l217 -123q-89 -142 -235.5 -228t-339.5 -86q-304 0 -480.5 153t-176.5 402z
" />
    <glyph glyph-name="afii10102" unicode="&#x455;" horiz-adv-x="1288" 
d="M113 756q0 151 144.5 240t399.5 89q479 0 564 -352h-392q-11 31 -42.5 49.5t-77.5 18.5q-43 0 -68 -11t-25 -30q0 -22 53.5 -44.5t219.5 -72.5q176 -53 254 -129t78 -203q0 -146 -143 -241t-380 -95q-198 0 -345.5 68.5t-270.5 194.5l154 137q94 -61 176.5 -86t201.5 -25
q103 0 103 35q0 19 -40 38t-153 52q-213 62 -312 144t-99 223z" />
    <glyph glyph-name="afii10103" unicode="&#x456;" horiz-adv-x="782" 
d="M141 0v1061h500v-1061h-500zM141 1188v307h500v-307h-500z" />
    <glyph glyph-name="afii10104" unicode="&#x457;" horiz-adv-x="782" 
d="M141 0v1061h500v-1061h-500zM-18 1219v282h301v-282h-301zM502 1219v282h301v-282h-301z" />
    <glyph glyph-name="afii10105" unicode="&#x458;" horiz-adv-x="782" 
d="M141 1188v307h500v-307h-500zM104 -483l-225 190q143 99 202.5 173.5t59.5 164.5v1016h500v-985q0 -132 -71 -245t-190 -190.5t-276 -123.5z" />
    <glyph glyph-name="afii10106" unicode="&#x459;" horiz-adv-x="2224" 
d="M784 729v-231q0 -216 -152.5 -351t-408.5 -170l-200 195q139 74 200.5 137.5t61.5 157.5v594h1194v-328h112q278 0 434 -91.5t156 -274.5t-156 -275t-434 -92h-612v729h-195zM1681 365q0 94 -133 94h-67v-185h67q133 0 133 91z" />
    <glyph glyph-name="afii10107" unicode="&#x45a;" horiz-adv-x="2144" 
d="M899 743v318h500v-328h110q278 0 435 -91.5t157 -274.5t-157 -275t-435 -92h-610v412h-272v-412h-500v1061h500v-318h272zM1602 365q0 94 -134 94h-67v-185h67q134 0 134 91z" />
    <glyph glyph-name="afii10108" unicode="&#x45b;" horiz-adv-x="1576" 
d="M-20 1374h147v121h500v-121h385v-180h-385v-246q76 60 188 98.5t225 38.5q192 0 304 -106.5t112 -314.5v-664h-500v641q0 53 -34.5 81t-98.5 28q-52 0 -108 -19t-88 -45v-686h-500v1194h-147v180z" />
    <glyph glyph-name="afii10109" unicode="&#x45c;" horiz-adv-x="1529" 
d="M1497 1061l-412 -385l457 -676h-543l-229 381l-143 -135v-246h-500v1061h500v-316l301 316h569zM1071 1386l-121 -59q-179 -89 -334 -110l-110 124l379 242z" />
    <glyph glyph-name="uni045D" unicode="&#x45d;" horiz-adv-x="1560" 
d="M1436 0h-500v494l-340 -494h-469v1061h500v-494l340 494h469v-1061zM600 1319l-139 70l186 194l379 -242l-119 -133q-131 22 -307 111z" />
    <glyph glyph-name="afii10110" unicode="&#x45e;" horiz-adv-x="1474" 
d="M481 -35l27 68l-496 1028h508l217 -520l221 520h506l-499 -1137q-92 -208 -242.5 -315t-400.5 -154l-158 213q131 60 205 133t112 164zM737 1200q-169 0 -278.5 89.5t-122.5 240.5h266q6 -50 41.5 -77.5t93.5 -27.5t93.5 27.5t41.5 77.5h267q-13 -150 -123 -240t-279 -90
z" />
    <glyph glyph-name="afii10193" unicode="&#x45f;" horiz-adv-x="1546" 
d="M1022 -225h-498v225h-397v1061h500v-729h293v729h499v-1061h-397v-225z" />
    <glyph glyph-name="afii10050" unicode="&#x490;" horiz-adv-x="1388" 
d="M150 0v1434h692v252h524v-629h-692v-1057h-524z" />
    <glyph glyph-name="afii10098" unicode="&#x491;" horiz-adv-x="1165" 
d="M127 0v1061h514v270h500v-602h-514v-729h-500z" />
    <glyph glyph-name="Wgrave" unicode="&#x1e80;" horiz-adv-x="2562" 
d="M1036 1434h490l250 -899q35 146 116.5 449.5t116.5 449.5h528l-442 -1434h-598l-217 860l-217 -860h-598l-442 1434h530l233 -899zM1038 1675l-139 70l186 194l379 -241l-118 -133q-136 23 -308 110z" />
    <glyph glyph-name="wgrave" unicode="&#x1e81;" horiz-adv-x="2183" 
d="M1487 426l-178 635h-435q-25 -103 -88.5 -318t-89.5 -317l-180 635h-504l369 -1061h551q23 94 80 293t80 293l159 -586h551l369 1061h-504zM874 1319l-139 70l187 194l378 -242l-118 -133q-133 23 -308 111z" />
    <glyph glyph-name="Wacute" unicode="&#x1e82;" horiz-adv-x="2562" 
d="M1036 1434h490l250 -899q35 146 116.5 449.5t116.5 449.5h528l-442 -1434h-598l-217 860l-217 -860h-598l-442 1434h530l233 -899zM1661 1743l-121 -60q-179 -89 -334 -110l-110 125l379 241z" />
    <glyph glyph-name="wacute" unicode="&#x1e83;" horiz-adv-x="2183" 
d="M1487 426l-178 635h-435q-25 -103 -88.5 -318t-89.5 -317l-180 635h-504l369 -1061h551q23 94 80 293t80 293l159 -586h551l369 1061h-504zM1448 1386l-121 -59q-179 -89 -334 -110l-110 124l379 242z" />
    <glyph glyph-name="Wdieresis" unicode="&#x1e84;" horiz-adv-x="2562" 
d="M1036 1434h490l250 -899q35 146 116.5 449.5t116.5 449.5h528l-442 -1434h-598l-217 860l-217 -860h-598l-442 1434h530l233 -899zM870 1575v283h301v-283h-301zM1391 1575v283h301v-283h-301z" />
    <glyph glyph-name="wdieresis" unicode="&#x1e85;" horiz-adv-x="2183" 
d="M1487 426l-178 635h-435q-25 -103 -88.5 -318t-89.5 -317l-180 635h-504l369 -1061h551q23 94 80 293t80 293l159 -586h551l369 1061h-504zM682 1219v282h301v-282h-301zM1202 1219v282h301v-282h-301z" />
    <glyph glyph-name="Ygrave" unicode="&#x1ef2;" horiz-adv-x="1681" 
d="M1102 1434l-260 -516l-262 516h-570l570 -875v-559h524v559l569 875h-571zM616 1675l-139 70l187 194l378 -241l-118 -133q-136 23 -308 110z" />
    <glyph glyph-name="ygrave" unicode="&#x1ef3;" horiz-adv-x="1474" 
d="M481 -35l27 68l-496 1028h508l217 -520l221 520h506l-499 -1137q-92 -208 -242.5 -315t-400.5 -154l-158 213q131 60 205 133t112 164zM520 1319l-139 70l186 194l379 -242l-119 -133q-131 22 -307 111z" />
    <glyph glyph-name="thinspace" unicode="&#x2009;" horiz-adv-x="491" 
 />
    <glyph glyph-name="uni2010" unicode="&#x2010;" horiz-adv-x="913" 
d="M805 528h-699v301h699v-301z" />
    <glyph glyph-name="figuredash" unicode="&#x2012;" horiz-adv-x="1533" 
d="M1454 539h-1374v280h1374v-280z" />
    <glyph glyph-name="endash" unicode="&#x2013;" horiz-adv-x="1150" 
d="M1169 539h-1187v280h1187v-280z" />
    <glyph glyph-name="emdash" unicode="&#x2014;" horiz-adv-x="2379" 
d="M2398 539h-2416v280h2416v-280z" />
    <glyph glyph-name="afii00208" unicode="&#x2015;" horiz-adv-x="2379" 
d="M2173 539h-1966v280h1966v-280z" />
    <glyph glyph-name="uni2016" unicode="&#x2016;" horiz-adv-x="1214" 
d="M195 -266v1800h309v-1800h-309zM711 -266v1800h309v-1800h-309z" />
    <glyph glyph-name="underscoredbl" unicode="&#x2017;" horiz-adv-x="1433" 
d="M1350 -276h-1266v239h1266v-239zM1350 -582h-1266v240h1266v-240z" />
    <glyph glyph-name="quoteleft" unicode="&#x2018;" horiz-adv-x="733" 
d="M627 1626l198 -117q-100 -105 -139 -197.5t-39 -228.5v-149h-356v92q0 207 77 352.5t259 247.5z" />
    <glyph glyph-name="quoteright" unicode="&#x2019;" horiz-adv-x="733" 
d="M209 864l-199 117q100 105 139 197.5t39 228.5v149h357v-92q0 -207 -77 -352.5t-259 -247.5z" />
    <glyph glyph-name="quotesinglbase" unicode="&#x201a;" horiz-adv-x="733" 
d="M209 -340l-199 117q100 105 139 197.5t39 228.5v149h357v-92q0 -207 -77 -352.5t-259 -247.5z" />
    <glyph glyph-name="quotereversed" unicode="&#x201b;" horiz-adv-x="733" 
d="M461 1606l223 -652l-207 -51q-147 160 -284 440l-80 164z" />
    <glyph glyph-name="quotedblleft" unicode="&#x201c;" horiz-adv-x="1296" 
d="M627 1626l198 -117q-100 -105 -139 -197.5t-39 -228.5v-149h-356v92q0 207 77 352.5t259 247.5zM1190 1626l199 -117q-100 -105 -139.5 -197.5t-39.5 -228.5v-149h-356v92q0 207 77 352.5t259 247.5z" />
    <glyph glyph-name="quotedblright" unicode="&#x201d;" horiz-adv-x="1296" 
d="M209 864l-199 117q100 105 139 197.5t39 228.5v149h357v-92q0 -207 -77 -352.5t-259 -247.5zM772 864l-199 117q100 105 139.5 197.5t39.5 228.5v149h356v-92q0 -207 -77 -352.5t-259 -247.5z" />
    <glyph glyph-name="quotedblbase" unicode="&#x201e;" horiz-adv-x="1296" 
d="M209 -340l-199 117q100 105 139 197.5t39 228.5v149h357v-92q0 -207 -77 -352.5t-259 -247.5zM772 -340l-199 117q100 105 139.5 197.5t39.5 228.5v149h356v-92q0 -207 -77 -352.5t-259 -247.5z" />
    <glyph glyph-name="uni201F" unicode="&#x201f;" horiz-adv-x="1296" 
d="M461 1606l223 -652l-207 -51q-147 160 -284 440l-80 164zM1024 1606l223 -652l-207 -51q-147 160 -284 440l-80 164z" />
    <glyph glyph-name="dagger" unicode="&#x2020;" horiz-adv-x="1445" 
d="M1296 1188v-357h-323v-1099h-498v1099h-325v357h325v344h498v-344h323z" />
    <glyph glyph-name="daggerdbl" unicode="&#x2021;" horiz-adv-x="1445" 
d="M1296 432v-356h-323v-344h-498v344h-325v356h325v399h-325v357h325v344h498v-344h323v-357h-323v-399h323z" />
    <glyph glyph-name="bullet" unicode="&#x2022;" horiz-adv-x="1032" 
d="M178 680q0 146 87.5 226.5t250.5 80.5t250.5 -80.5t87.5 -226.5t-87.5 -226.5t-250.5 -80.5t-250.5 80.5t-87.5 226.5z" />
    <glyph glyph-name="onedotenleader" unicode="&#x2024;" horiz-adv-x="733" 
d="M188 2v350h357v-350h-357z" />
    <glyph glyph-name="twodotenleader" unicode="&#x2025;" horiz-adv-x="1544" 
d="M188 2v350h357v-350h-357zM999 2v350h357v-350h-357z" />
    <glyph glyph-name="ellipsis" unicode="&#x2026;" horiz-adv-x="2355" 
d="M188 2v350h357v-350h-357zM999 2v350h357v-350h-357zM1810 2v350h357v-350h-357z" />
    <glyph glyph-name="perthousand" unicode="&#x2030;" horiz-adv-x="3094" 
d="M150 1079q0 154 123 261.5t298 107.5t298.5 -107.5t123.5 -261.5q0 -153 -123.5 -260.5t-298.5 -107.5t-298 107t-123 261zM418 1079q0 -59 42 -95t111 -36q68 0 110 36.5t42 94.5q0 57 -42.5 94t-109.5 37q-68 0 -110.5 -37t-42.5 -94zM1663 1272l-1042 -1221l-140 111
l1045 1220zM1151 354q0 154 123.5 261.5t298.5 107.5t298.5 -107.5t123.5 -261.5q0 -153 -123.5 -260.5t-298.5 -107.5t-298.5 107.5t-123.5 260.5zM1421 354q0 -58 42 -94.5t110 -36.5q69 0 111 36t42 95q0 57 -42.5 94t-110.5 37q-67 0 -109.5 -37t-42.5 -94zM2109 354
q0 154 123.5 261.5t298.5 107.5t298.5 -107.5t123.5 -261.5q0 -153 -123.5 -260.5t-298.5 -107.5t-298.5 107.5t-123.5 260.5zM2380 354q0 -59 42 -95t109 -36q69 0 111.5 36t42.5 95q0 57 -42.5 94t-111.5 37q-67 0 -109 -37t-42 -94z" />
    <glyph glyph-name="minute" unicode="&#x2032;" horiz-adv-x="819" 
d="M141 885l158 559l383 -90l-80 -162q-119 -242 -246 -354z" />
    <glyph glyph-name="second" unicode="&#x2033;" horiz-adv-x="1409" 
d="M141 885l158 559l383 -90l-80 -162q-119 -242 -246 -354zM731 885l158 559l383 -90l-80 -162q-119 -242 -246 -354z" />
    <glyph glyph-name="guilsinglleft" unicode="&#x2039;" horiz-adv-x="819" 
d="M84 551v176l143 84q179 105 383 176l113 -147l-320 -201l320 -201l-113 -147q-193 65 -383 176z" />
    <glyph glyph-name="guilsinglright" unicode="&#x203a;" horiz-adv-x="819" 
d="M735 727v-176l-143 -84q-179 -105 -383 -176l-113 147l320 201l-320 201l113 147q193 -65 383 -176z" />
    <glyph glyph-name="exclamdbl" unicode="&#x203c;" horiz-adv-x="1583" 
d="M211 455l-57 653v326h520v-326l-58 -653h-405zM178 0v326h471v-326h-471zM969 455l-58 653v326h521v-326l-58 -653h-405zM936 0v326h471v-326h-471z" />
    <glyph glyph-name="uni203E" unicode="&#x203e;" horiz-adv-x="856" 
d="M53 1206v228h750v-228h-750z" />
    <glyph glyph-name="fraction" unicode="&#x2044;" horiz-adv-x="442" 
d="M571 1456l203 -94l-901 -1385l-205 95z" />
    <glyph glyph-name="zerosuperior" unicode="&#x2070;" 
d="M975 963q0 -234 -119.5 -362t-343.5 -128q-225 0 -345 128t-120 362t119.5 361.5t345.5 127.5q224 0 343.5 -128t119.5 -361zM397 963q0 -124 26.5 -176t88.5 -52q60 0 86.5 52t26.5 176q0 123 -26 175t-87 52q-62 0 -88.5 -51.5t-26.5 -175.5z" />
    <glyph glyph-name="uni2071" unicode="&#x2071;" 
d="M352 485v674h322v-674h-322zM352 1245v215h322v-215h-322z" />
    <glyph glyph-name="foursuperior" unicode="&#x2074;" 
d="M45 647v260l414 529h399v-531h119v-258h-119v-162h-319v162h-494zM539 1184l-217 -279h217v279z" />
    <glyph glyph-name="fivesuperior" unicode="&#x2075;" 
d="M270 854l-116 55v527h735v-248h-416v-105q57 13 137 13q144 0 239 -80.5t95 -214.5q0 -158 -116 -245t-330 -87q-234 0 -412 164l137 135q89 -51 228 -51q64 0 100.5 17.5t36.5 49.5q0 84 -195 84q-62 0 -123 -14z" />
    <glyph glyph-name="sixsuperior" unicode="&#x2076;" 
d="M559 1227q-68 0 -111 -44t-49 -120q36 27 103.5 44t130.5 17q143 0 234 -80.5t91 -236.5q0 -152 -117 -245t-315 -93q-215 0 -334.5 122t-119.5 324q0 274 127.5 405.5t347.5 131.5q152 0 255 -75t134 -201h-260q-19 51 -117 51zM514 881q-65 0 -111 -27
q16 -135 119 -135q46 0 74.5 22.5t28.5 61.5q0 37 -29.5 57.5t-81.5 20.5z" />
    <glyph glyph-name="sevensuperior" unicode="&#x2077;" 
d="M909 1436v-262q-119 -184 -182.5 -344t-101.5 -345h-377q73 308 305 682h-449v269h805z" />
    <glyph glyph-name="eightsuperior" unicode="&#x2078;" 
d="M59 750q0 74 43.5 129t118.5 82q-112 77 -112 213q0 126 109.5 202t285.5 76q187 0 298 -74t111 -190q0 -132 -114 -195q86 -42 124 -97t38 -132q0 -132 -119 -214.5t-330 -82.5q-205 0 -329 78.5t-124 204.5zM383 768q0 -38 38.5 -62t100.5 -24q55 0 87 18.5t32 49.5
q0 25 -39.5 50t-142.5 58q-35 -18 -55.5 -43.5t-20.5 -46.5zM625 1165q0 37 -29.5 57.5t-81.5 20.5q-47 0 -76.5 -16.5t-29.5 -44.5t31 -49.5t118 -51.5q68 50 68 84z" />
    <glyph glyph-name="ninesuperior" unicode="&#x2079;" 
d="M430 702q88 0 132.5 33.5t53.5 102.5q-34 -20 -92.5 -31.5t-109.5 -11.5q-71 0 -133 19.5t-111.5 57t-78 99.5t-28.5 141q0 152 117.5 246t313.5 94q215 0 334.5 -122.5t119.5 -325.5q0 -139 -34 -243.5t-96 -167.5t-141.5 -93.5t-176.5 -30.5q-116 0 -207.5 40
t-177.5 122l88 123q97 -52 227 -52zM506 1038q72 0 110 27q-13 137 -116 137q-46 0 -75.5 -23.5t-29.5 -62.5q0 -37 30 -57.5t81 -20.5z" />
    <glyph glyph-name="uni207A" unicode="&#x207a;" 
d="M379 618v246h-275v199h275v246h260v-246h276v-199h-276v-246h-260z" />
    <glyph glyph-name="uni207B" unicode="&#x207b;" 
d="M915 864h-811v199h811v-199z" />
    <glyph glyph-name="uni207C" unicode="&#x207c;" 
d="M915 1020h-811v201h811v-201zM915 707h-811v200h811v-200z" />
    <glyph glyph-name="uni207D" unicode="&#x207d;" 
d="M293 961q0 326 231 587l221 -86q-180 -242 -180 -501q0 -260 180 -502l-221 -86q-231 261 -231 588z" />
    <glyph glyph-name="uni207E" unicode="&#x207e;" 
d="M729 961q0 -329 -229 -588l-221 86q180 246 180 502q0 255 -180 501l221 86q229 -259 229 -587z" />
    <glyph glyph-name="uni207F" unicode="&#x207f;" 
d="M516 971q-18 0 -40.5 -6t-31.5 -13v-467h-329v680h264l49 -75q40 40 117.5 66t148.5 26q99 0 156 -60.5t57 -167.5v-469h-332v447q0 39 -59 39z" />
    <glyph glyph-name="zeroinferior" unicode="&#x2080;" 
d="M975 219q0 -233 -119.5 -361t-343.5 -128q-226 0 -345.5 127.5t-119.5 361.5t120 362t345 128q224 0 343.5 -128t119.5 -362zM397 219q0 -124 26.5 -175.5t88.5 -51.5q61 0 87 52t26 175t-26 175t-87 52q-62 0 -88.5 -51.5t-26.5 -175.5z" />
    <glyph glyph-name="oneinferior" unicode="&#x2081;" 
d="M786 -258h-335v637l-197 -117l-154 184l385 246h301v-950z" />
    <glyph glyph-name="twoinferior" unicode="&#x2082;" 
d="M569 373q0 71 -104 71q-40 0 -70 -23.5t-33 -60.5h-286q10 170 124.5 258.5t301.5 88.5q191 0 302 -86t111 -215q0 -118 -65.5 -209t-226.5 -199h292v-256h-806v197q230 139 345 253t115 181z" />
    <glyph glyph-name="threeinferior" unicode="&#x2083;" 
d="M416 -43q157 0 157 86q0 43 -51.5 68.5t-140.5 25.5h-78v197h78q170 0 170 84q0 26 -27.5 41.5t-70.5 15.5q-38 0 -66 -15.5t-37 -43.5h-266q23 140 123 215.5t266 75.5q197 0 307.5 -71.5t110.5 -193.5q0 -69 -39.5 -124t-112.5 -82q79 -26 126.5 -84.5t47.5 -141.5
q0 -125 -108.5 -204.5t-310.5 -79.5q-115 0 -225 52t-183 134l123 108q92 -63 207 -63z" />
    <glyph glyph-name="fourinferior" unicode="&#x2084;" 
d="M45 -96v260l414 528h399v-530h119v-258h-119v-162h-319v162h-494zM539 440l-217 -278h217v278z" />
    <glyph glyph-name="fiveinferior" unicode="&#x2085;" 
d="M270 111l-116 55v526h735v-248h-416v-104q53 12 137 12q144 0 239 -80.5t95 -214.5q0 -157 -116 -244t-330 -87q-236 0 -412 163l137 136q91 -52 228 -52q63 0 100 18t37 50q0 84 -195 84q-62 0 -123 -14z" />
    <glyph glyph-name="sixinferior" unicode="&#x2086;" 
d="M559 483q-68 0 -111 -44t-49 -120q36 27 103.5 44.5t130.5 17.5q143 0 234 -81t91 -237q0 -152 -117 -244.5t-315 -92.5q-215 0 -334.5 122t-119.5 324q0 274 127.5 405.5t347.5 131.5q152 0 255 -75.5t134 -201.5h-260q-19 51 -117 51zM514 137q-67 0 -111 -26
q16 -136 119 -136q46 0 74.5 22.5t28.5 61.5q0 37 -29.5 57.5t-81.5 20.5z" />
    <glyph glyph-name="seveninferior" unicode="&#x2087;" 
d="M909 692v-262q-119 -184 -182.5 -344t-101.5 -344h-377q73 308 305 682h-449v268h805z" />
    <glyph glyph-name="eightinferior" unicode="&#x2088;" 
d="M59 6q0 74 43.5 129t118.5 82q-112 77 -112 213q0 127 109.5 203t285.5 76q187 0 298 -74.5t111 -190.5q0 -131 -114 -194q86 -42 124 -97.5t38 -132.5q0 -132 -119 -214t-330 -82q-205 0 -329 78t-124 204zM383 25q0 -38 38.5 -62t100.5 -24q55 0 87 18t32 49
q0 25 -39.5 50.5t-142.5 58.5q-35 -18 -55.5 -43.5t-20.5 -46.5zM625 422q0 37 -29.5 57.5t-81.5 20.5q-47 0 -76.5 -17t-29.5 -45t31 -48.5t118 -51.5q68 50 68 84z" />
    <glyph glyph-name="nineinferior" unicode="&#x2089;" 
d="M430 -41q88 0 132.5 33t53.5 102q-34 -20 -92.5 -31.5t-109.5 -11.5q-71 0 -133 19.5t-111.5 57.5t-78 100t-28.5 141q0 152 117.5 246t313.5 94q215 0 334.5 -123t119.5 -326q0 -139 -34 -243.5t-96 -167t-141.5 -93t-176.5 -30.5q-117 0 -208 39.5t-177 121.5l88 123
q56 -30 107.5 -40.5t119.5 -10.5zM506 295q72 0 110 27q-13 137 -116 137q-46 0 -75.5 -23.5t-29.5 -62.5q0 -37 30 -57.5t81 -20.5z" />
    <glyph glyph-name="uni208A" unicode="&#x208a;" 
d="M379 -125v246h-275v198h275v246h260v-246h276v-198h-276v-246h-260z" />
    <glyph glyph-name="uni208B" unicode="&#x208b;" 
d="M915 121h-811v198h811v-198z" />
    <glyph glyph-name="uni208C" unicode="&#x208c;" 
d="M915 276h-811v201h811v-201zM915 -37h-811v201h811v-201z" />
    <glyph glyph-name="uni208D" unicode="&#x208d;" 
d="M293 217q0 327 231 588l221 -86q-180 -242 -180 -502t180 -502l-221 -86q-231 261 -231 588z" />
    <glyph glyph-name="uni208E" unicode="&#x208e;" 
d="M729 217q0 -329 -229 -588l-221 86q180 246 180 502t-180 502l221 86q229 -259 229 -588z" />
    <glyph glyph-name="uni2090" unicode="&#x2090;" 
d="M594 135v58q0 42 -29 66t-76 24q-72 0 -102 -52h-283q19 55 49 96.5t79 75t122.5 51t169.5 17.5q201 0 302.5 -81t101.5 -224v-219q0 -39 55 -39h27v-166q-52 -10 -131 -10q-105 0 -167.5 19t-99.5 67q-101 -101 -266 -101q-125 0 -197.5 68t-72.5 180q0 107 70.5 161
t199.5 54q126 0 248 -45zM594 -74v62q-38 35 -133 35q-51 0 -82 -17.5t-31 -48.5q0 -32 30.5 -49t82.5 -17q95 0 133 35z" />
    <glyph glyph-name="uni2091" unicode="&#x2091;" 
d="M944 94q0 -19 -4 -47q0 -2 -1 -9t-1 -9h-530q17 -92 182 -92q91 0 168 45l143 -103q-83 -78 -167.5 -114.5t-198.5 -36.5q-209 0 -333 101t-124 265q0 163 120.5 265t311.5 102t312.5 -102.5t121.5 -264.5zM510 250q-45 0 -73 -21.5t-29 -60.5h204q-3 82 -102 82z" />
    <glyph glyph-name="uni2092" unicode="&#x2092;" 
d="M510 -49q119 0 119 141q0 146 -119 146q-54 0 -84.5 -36.5t-30.5 -109.5q0 -141 115 -141zM510 461q210 0 332.5 -101t122.5 -268q0 -164 -122.5 -264t-332.5 -100q-208 0 -330.5 100t-122.5 264q0 167 122.5 268t330.5 101z" />
    <glyph glyph-name="uni2093" unicode="&#x2093;" 
d="M635 -256l-123 195l-125 -195h-362l260 358l-244 342h354l117 -178l117 178h352l-242 -342l260 -358h-364z" />
    <glyph glyph-name="uni2094" unicode="&#x2094;" 
d="M78 94q0 26 4 66h530q-6 43 -52 67.5t-130 24.5q-91 0 -168 -45l-141 102q82 78 166 115t200 37q209 0 333 -101.5t124 -265.5q0 -162 -121 -264t-311 -102q-192 0 -313 101.5t-121 264.5zM512 -61q45 0 72 21t28 60h-204q3 -81 104 -81z" />
    <glyph glyph-name="uni20A0" unicode="&#x20a0;" horiz-adv-x="1873" 
d="M66 940q0 246 167 382t453 136q211 0 357.5 -90.5t201.5 -232.5h-373q-55 55 -165 55q-115 0 -189 -66t-74 -184t76.5 -184t198.5 -66q140 0 211 68v246h862v-234h-485v-145h442v-234h-442v-158h501v-233h-878v477q-43 -26 -124 -40.5t-157 -14.5q-261 0 -422 139.5
t-161 378.5z" />
    <glyph glyph-name="colonmonetary" unicode="&#x20a1;" horiz-adv-x="1730" 
d="M676 -111l37 107q-54 8 -109 24l-53 -157l-107 28l58 164q-206 88 -316 259t-110 403q0 167 55.5 303.5t160.5 233t263 149.5t356 53q26 0 72 -4l55 158l109 -29l-49 -141q22 -4 104 -27l68 197l108 -29l-71 -209q153 -74 246 -207.5t116 -306.5h-485q-8 46 -27 88
l-205 -592q144 0 243 47.5t185 137.5l250 -150q-120 -195 -294.5 -303.5t-399.5 -108.5q-26 0 -113 5l-41 -119zM741 412q43 -30 99 -45l233 673q-41 26 -102 35zM604 717q0 -125 51 -213l199 571q-122 -19 -186 -111.5t-64 -246.5z" />
    <glyph glyph-name="uni20A2" unicode="&#x20a2;" horiz-adv-x="1730" 
d="M1380 539l250 -150q-120 -195 -294.5 -303.5t-399.5 -108.5q-404 0 -632 200.5t-228 539.5q0 167 55.5 303.5t160.5 233t263 149.5t356 53q160 0 294 -43t228.5 -120.5t154.5 -182.5t81 -231h-485q-27 100 -92.5 150t-180.5 50q-149 0 -228 -95.5t-79 -266.5
q0 -118 45.5 -202.5t130.5 -125.5v426h244l49 -108q30 55 106.5 89.5t163.5 34.5h31v-221h-35q-82 0 -147 -23.5t-100 -66.5v-151q155 33 288 170z" />
    <glyph glyph-name="franc" unicode="&#x20a3;" horiz-adv-x="1376" 
d="M23 883h141v551h1190v-361h-664v-190h527v-140h-527v-102h527v-139h-527v-502h-526v502h-141v139h141v102h-141v140z" />
    <glyph glyph-name="lira" unicode="&#x20a4;" horiz-adv-x="1505" 
d="M66 903h174v70q0 238 158 361.5t460 123.5q263 0 421.5 -121.5t182.5 -322.5h-463q-21 65 -112 65q-123 0 -123 -143v-33h395v-139h-395v-102h395v-140h-407q-30 -100 -93 -145h803v-377h-1392v365q129 53 159 157h-163v140h174v102h-174v139z" />
    <glyph glyph-name="uni20A6" unicode="&#x20a6;" horiz-adv-x="1853" 
d="M23 907h159v527h518l422 -686h39v686h510v-527h160v-139h-160v-102h160v-140h-160v-526h-518l-424 686h-37v-686h-510v526h-159v140h159v102h-159v139z" />
    <glyph glyph-name="peseta" unicode="&#x20a7;" horiz-adv-x="1583" 
d="M1583 866h-59q-18 -144 -113.5 -241.5t-246 -142t-353.5 -44.5h-137v-438h-524v866h-127v140h127v428h661q308 0 497 -107.5t216 -320.5h59v-140zM674 1077v-71h309q-39 71 -188 71h-121zM674 795h121q146 0 188 71h-309v-71z" />
    <glyph glyph-name="uni20A8" unicode="&#x20a8;" horiz-adv-x="2750" 
d="M674 496v-496h-524v1434h610q215 0 372.5 -48.5t250 -155.5t92.5 -265q0 -246 -228 -369l352 -596h-561l-239 496h-125zM1536 756q0 151 156 240t430 89q519 0 604 -352h-469q-11 31 -33 49.5t-51 18.5q-51 0 -51 -41q0 -27 50.5 -51t192.5 -66q185 -55 273 -133.5
t88 -198.5q0 -145 -154 -240.5t-409 -95.5q-382 0 -645 263l163 147q183 -121 398 -121q61 0 61 35q0 24 -32.5 43t-129.5 47q-231 66 -336.5 148t-105.5 219zM674 840h106q81 0 128.5 30.5t47.5 94.5q0 63 -47.5 94t-128.5 31h-106v-250z" />
    <glyph glyph-name="uni20A9" unicode="&#x20a9;" horiz-adv-x="2562" 
d="M33 879h160l-170 555h530l135 -555h203l145 555h490l143 -555h205l135 555h528l-172 -555h164v-140h-205l-32 -102h237v-139h-280l-154 -498h-598l-117 498h-200l-117 -498h-598l-154 498h-278v139h235l-30 102h-205v140zM1260 840l-50 -203h138l-48 203h-40zM1706 739
l49 -184h41l43 184h-133zM723 739l43 -184h41l47 184h-131z" />
    <glyph glyph-name="afii57636" unicode="&#x20aa;" horiz-adv-x="2254" 
d="M150 0v1434h804q288 0 456.5 -150t168.5 -436v-348h-379v325q0 98 -20 163.5t-63.5 103.5t-104.5 53.5t-150 15.5h-336v-1161h-376zM2105 1434v-1434h-805q-288 0 -457 150t-169 436v348h381v-326q0 -98 20 -163.5t63.5 -103.5t103.5 -53.5t149 -15.5h338v1162h376z" />
    <glyph glyph-name="dong" unicode="&#x20ab;" horiz-adv-x="1601" 
d="M76 500q0 136 39 239t109.5 164.5t162 92t201.5 30.5q99 0 201.5 -31t173.5 -86v224h-388v180h388v182h499v-182h148v-180h-148v-1133h-405l-74 113q-71 -63 -183 -100.5t-212 -37.5q-111 0 -202 30t-161.5 92t-109.5 164.5t-39 238.5zM342 -332v180h1112v-180h-1112z
M786 690q-102 0 -154 -41.5t-52 -148.5t52 -148t154 -41q45 0 97 14.5t80 36.5v277q-28 22 -80 36.5t-97 14.5z" />
    <glyph glyph-name="Euro" unicode="&#x20ac;" horiz-adv-x="1806" 
d="M1464 539l250 -150q-120 -195 -295 -303.5t-399 -108.5q-338 0 -556 143.5t-282 397.5h-159v139h139q-4 18 -4 60v57h-135v139h157q61 255 271.5 399t543.5 144q321 0 522 -163.5t234 -434.5h-483q-36 221 -273 221q-203 0 -270 -166h418l-47 -139h-406q-2 -18 -2 -57
q0 -42 2 -60h367l-49 -139h-277q39 -79 116 -121.5t185 -42.5q146 0 246 48t186 137z" />
    <glyph glyph-name="Ruble" unicode="&#x20bd;" horiz-adv-x="1583" 
d="M1030 172h-356v-172h-524v172h-127v180h127v86h-127v353h127v643h661q163 0 293 -30t225.5 -90t147 -156t51.5 -222t-51.5 -222t-147 -156t-225.5 -90t-293 -30h-137v-86h356v-180zM999 936q0 76 -52.5 108.5t-151.5 32.5h-121v-282h121q204 0 204 141z" />
    <glyph glyph-name="afii61248" unicode="&#x2105;" horiz-adv-x="2678" 
d="M2066 250q152 0 152 192q0 193 -152 193q-149 0 -149 -193q0 -192 149 -192zM2066 905q259 0 414.5 -125t155.5 -338t-155.5 -337.5t-414.5 -124.5t-414 124.5t-155 337.5t155 338t414 125zM1665 1456l203 -94l-901 -1385l-205 95zM45 987q0 204 155 333.5t408 129.5
q205 0 332.5 -101t151.5 -259h-373q-10 42 -36 64t-87 22q-60 0 -97.5 -52t-37.5 -137q0 -86 46 -139t126 -53q76 0 144 27t114 73l194 -113q-76 -117 -201.5 -187.5t-285.5 -70.5q-252 0 -402.5 129t-150.5 334z" />
    <glyph glyph-name="uni2109" unicode="&#x2109;" horiz-adv-x="2050" 
d="M838 0v1434h1190v-361h-664v-196h578v-361h-578v-516h-526zM338 1458q141 0 238.5 -82.5t97.5 -201.5t-97.5 -202t-238.5 -83t-238.5 83t-97.5 202t97.5 201.5t238.5 82.5zM338 1087q55 0 89 24.5t34 62.5t-34 62t-89 24t-89 -24t-34 -62t34 -62.5t89 -24.5z" />
    <glyph glyph-name="afii61289" unicode="&#x2113;" horiz-adv-x="1581" 
d="M1391 946q0 -216 -105 -387t-287 -270q20 -8 60 -8q45 0 91.5 18.5t76.5 50.5l268 -207q-87 -80 -216.5 -124t-287.5 -44q-112 0 -224.5 33.5t-205.5 93.5q-187 -56 -399 -79l-96 354q119 17 231 39q-115 212 -115 450q0 277 163 433.5t462 156.5q139 0 251 -40t184 -109
t110.5 -161.5t38.5 -199.5zM662 848q0 -154 51 -262q102 80 152 176t50 225q0 72 -29.5 106.5t-76.5 34.5q-147 0 -147 -280z" />
    <glyph glyph-name="afii61352" unicode="&#x2116;" horiz-adv-x="2512" 
d="M150 0v1434h440l371 -772v772h419v-1434h-440l-371 772v-772h-419zM1522 707q0 193 121.5 307t332.5 114q212 0 334.5 -114t122.5 -307t-122.5 -307.5t-334.5 -114.5q-211 0 -332.5 114.5t-121.5 307.5zM2447 229v-229h-929v229h929zM1855 707q0 -156 121 -156
q123 0 123 156q0 155 -123 155q-121 0 -121 -155z" />
    <glyph glyph-name="uni2117" unicode="&#x2117;" horiz-adv-x="1923" 
d="M1464 834q0 -155 -117.5 -232.5t-328.5 -77.5h-98v-258h-320v875h418q211 0 328.5 -77t117.5 -230zM1165 834q0 60 -34 87t-105 27h-106v-231h106q70 0 104.5 28t34.5 89zM1831 717q0 -151 -69 -288.5t-186 -237t-278 -158t-337 -58.5t-337 58.5t-277.5 158t-185.5 237
t-69 288.5t69 288.5t185.5 236.5t277 157.5t337.5 58.5q236 0 436 -99t317 -269.5t117 -372.5zM1714 717q0 130 -58 247.5t-157.5 202.5t-239.5 135t-298 50q-209 0 -382 -85t-271.5 -230.5t-98.5 -319.5t98.5 -319.5t271.5 -230.5t382 -85q158 0 298 50t239.5 135
t157.5 202.5t58 247.5z" />
    <glyph glyph-name="uni2120" unicode="&#x2120;" horiz-adv-x="1785" 
d="M49 885l88 88q79 -49 182 -49q89 0 89 26q0 10 -9.5 18t-42.5 21t-96 31q-201 56 -201 213q0 97 79 153t214 56q110 0 184 -59.5t80 -151.5h-182q-1 18 -20 28.5t-49 10.5q-27 0 -43.5 -8.5t-16.5 -20.5q0 -15 30.5 -30t121.5 -42q194 -60 194 -211q0 -97 -82 -155
t-211 -58q-80 0 -162.5 36.5t-146.5 103.5zM1040 758h-325v676h354l158 -310l157 310h355v-676h-326v250l-67 -140h-238l-68 140v-250z" />
    <glyph glyph-name="uni2121" unicode="&#x2121;" horiz-adv-x="2967" 
d="M336 0v1057h-313v377h1126v-377h-313v-1057h-500zM2210 530q0 -36 -8 -98h-693q6 -66 58 -103.5t147 -37.5q162 0 279 76l168 -179q-198 -213 -482 -213q-302 0 -465 151t-163 404q0 252 151 403.5t428 151.5t428.5 -151.5t151.5 -403.5zM2355 0v1495h475v-1495h-475z
M1630 795q-60 0 -90 -35t-31 -119h242q-3 84 -32 119t-89 35z" />
    <glyph glyph-name="trademark" unicode="&#x2122;" horiz-adv-x="1767" 
d="M1130 868l-145 232v-342h-244v676h275l196 -342l195 342h276v-676h-243v342l-146 -232h-164zM199 758v502h-197v174h637v-174h-197v-502h-243z" />
    <glyph glyph-name="Omega" unicode="&#x2126;" horiz-adv-x="1824" 
d="M911 1458q193 0 351.5 -47.5t264.5 -132.5t164 -203t58 -258q0 -137 -70 -271.5t-192 -215.5h246v-330h-742v319q228 161 228 412q0 162 -77.5 254t-230.5 92q-151 0 -228 -92t-77 -254q0 -251 228 -412v-319h-742v330h246q-122 81 -192 215.5t-70 271.5q0 140 57.5 258
t163.5 203t264 132.5t350 47.5z" />
    <glyph glyph-name="estimated" unicode="&#x212e;" horiz-adv-x="1724" 
d="M936 109q146 0 272 29t207 83l127 -84q-118 -77 -275 -119.5t-327 -42.5q-216 0 -382.5 55t-271 155t-157.5 234.5t-53 297.5q0 153 53.5 287t153.5 235.5t253.5 160t342.5 58.5q180 0 327 -58t243 -159.5t148 -238t52 -293.5v-66h-1080v-465q141 -69 367 -69zM868 1323
q-178 0 -299 -57v-488h596v488q-124 57 -297 57z" />
    <glyph glyph-name="onethird" unicode="&#x2153;" horiz-adv-x="2670" 
d="M2062 215q158 0 158 86q0 43 -51.5 68.5t-140.5 25.5h-78v197h78q170 0 170 84q0 26 -28 41.5t-71 15.5q-38 0 -65.5 -15.5t-36.5 -43.5h-266q23 140 123 215.5t266 75.5q197 0 307 -71.5t110 -193.5q0 -69 -39 -124t-112 -82q79 -26 126.5 -84.5t47.5 -141.5
q0 -125 -109 -204.5t-311 -79.5q-115 0 -224.5 52t-182.5 134l122 109q94 -64 207 -64zM1698 1456l203 -94l-902 -1385l-204 95zM786 485h-335v637l-197 -116l-154 184l385 246h301v-951z" />
    <glyph glyph-name="twothirds" unicode="&#x2154;" horiz-adv-x="2670" 
d="M1698 1456l203 -94l-902 -1385l-204 95zM569 1116q0 72 -104 72q-40 0 -70 -23.5t-33 -60.5h-286q10 170 124.5 258t301.5 88q191 0 302 -86t111 -215q0 -118 -65.5 -209t-226.5 -199h292v-256h-806v197q230 139 345 253t115 181zM2062 215q158 0 158 86q0 43 -51.5 68.5
t-140.5 25.5h-78v197h78q170 0 170 84q0 26 -28 41.5t-71 15.5q-38 0 -65.5 -15.5t-36.5 -43.5h-266q23 140 123 215.5t266 75.5q197 0 307 -71.5t110 -193.5q0 -69 -39 -124t-112 -82q79 -26 126.5 -84.5t47.5 -141.5q0 -125 -109 -204.5t-311 -79.5q-115 0 -224.5 52
t-182.5 134l122 109q94 -64 207 -64z" />
    <glyph glyph-name="onefifth" unicode="&#x2155;" horiz-adv-x="2670" 
d="M1698 1456l203 -94l-902 -1385l-204 95zM1917 369l-117 55v526h735v-248h-415v-104q52 12 137 12q144 0 239 -80.5t95 -214.5q0 -157 -116.5 -244t-330.5 -87q-235 0 -411 163l137 136q91 -52 227 -52q63 0 100 18t37 50q0 84 -194 84q-62 0 -123 -14zM786 485h-335v637
l-197 -116l-154 184l385 246h301v-951z" />
    <glyph glyph-name="twofifths" unicode="&#x2156;" horiz-adv-x="2670" 
d="M1698 1456l203 -94l-902 -1385l-204 95zM1917 369l-117 55v526h735v-248h-415v-104q52 12 137 12q144 0 239 -80.5t95 -214.5q0 -157 -116.5 -244t-330.5 -87q-235 0 -411 163l137 136q91 -52 227 -52q63 0 100 18t37 50q0 84 -194 84q-62 0 -123 -14zM569 1116
q0 72 -104 72q-40 0 -70 -23.5t-33 -60.5h-286q10 170 124.5 258t301.5 88q191 0 302 -86t111 -215q0 -118 -65.5 -209t-226.5 -199h292v-256h-806v197q230 139 345 253t115 181z" />
    <glyph glyph-name="threefifths" unicode="&#x2157;" horiz-adv-x="2670" 
d="M1698 1456l203 -94l-902 -1385l-204 95zM1917 369l-117 55v526h735v-248h-415v-104q52 12 137 12q144 0 239 -80.5t95 -214.5q0 -157 -116.5 -244t-330.5 -87q-235 0 -411 163l137 136q91 -52 227 -52q63 0 100 18t37 50q0 84 -194 84q-62 0 -123 -14zM416 700
q157 0 157 86q0 43 -51.5 69t-140.5 26h-78v196h78q170 0 170 84q0 26 -27.5 42t-70.5 16q-38 0 -66 -15.5t-37 -44.5h-266q23 140 123 215.5t266 75.5q197 0 307.5 -71.5t110.5 -192.5q0 -69 -39.5 -124.5t-112.5 -82.5q79 -26 126.5 -84t47.5 -141q0 -126 -108.5 -205.5
t-310.5 -79.5q-115 0 -225 52t-183 134l123 109q94 -64 207 -64z" />
    <glyph glyph-name="fourfifths" unicode="&#x2158;" horiz-adv-x="2670" 
d="M1917 369l-117 55v526h735v-248h-415v-104q52 12 137 12q144 0 239 -80.5t95 -214.5q0 -157 -116.5 -244t-330.5 -87q-235 0 -411 163l137 136q91 -52 227 -52q63 0 100 18t37 50q0 84 -194 84q-62 0 -123 -14zM1698 1456l203 -94l-902 -1385l-204 95zM45 647v260
l414 529h399v-531h119v-258h-119v-162h-319v162h-494zM539 1184l-217 -279h217v279z" />
    <glyph glyph-name="onesixth" unicode="&#x2159;" horiz-adv-x="2670" 
d="M1698 1456l203 -94l-902 -1385l-204 95zM2206 741q-68 0 -111 -43.5t-49 -119.5q36 27 103 44t130 17q143 0 234.5 -80.5t91.5 -236.5q0 -152 -117 -245t-315 -93q-216 0 -335.5 122t-119.5 324q0 274 127.5 405.5t347.5 131.5q152 0 255.5 -75.5t134.5 -201.5h-261
q-19 51 -116 51zM2161 395q-67 0 -111 -26q16 -136 119 -136q46 0 74 22.5t28 61.5q0 37 -29 57.5t-81 20.5zM786 485h-335v637l-197 -116l-154 184l385 246h301v-951z" />
    <glyph glyph-name="fivesixths" unicode="&#x215a;" horiz-adv-x="2670" 
d="M2206 741q-68 0 -111 -43.5t-49 -119.5q36 27 103 44t130 17q143 0 234.5 -80.5t91.5 -236.5q0 -152 -117 -245t-315 -93q-216 0 -335.5 122t-119.5 324q0 274 127.5 405.5t347.5 131.5q152 0 255.5 -75.5t134.5 -201.5h-261q-19 51 -116 51zM2161 395q-67 0 -111 -26
q16 -136 119 -136q46 0 74 22.5t28 61.5q0 37 -29 57.5t-81 20.5zM1698 1456l203 -94l-902 -1385l-204 95zM270 854l-116 55v527h735v-248h-416v-105q57 13 137 13q144 0 239 -80.5t95 -214.5q0 -158 -116 -245t-330 -87q-234 0 -412 164l137 135q89 -51 228 -51
q64 0 100.5 17.5t36.5 49.5q0 84 -195 84q-62 0 -123 -14z" />
    <glyph glyph-name="oneeighth" unicode="&#x215b;" horiz-adv-x="2670" 
d="M1706 264q0 -126 124 -204t329 -78q210 0 329 82.5t119 214.5q0 77 -38 132t-124 97q115 63 115 194q0 116 -111.5 190.5t-298.5 74.5q-176 0 -285.5 -76t-109.5 -203q0 -135 113 -213q-75 -27 -118.5 -82t-43.5 -129zM2030 283q0 22 20 47t55 43q103 -33 143 -58.5
t40 -50.5q0 -31 -32 -49t-87 -18q-62 0 -100.5 24t-38.5 62zM2271 680q0 -35 -67 -84q-88 31 -119 51.5t-31 48.5t30 45t77 17q52 0 81 -20.5t29 -57.5zM1698 1456l203 -94l-902 -1385l-204 95zM786 485h-335v637l-197 -116l-154 184l385 246h301v-951z" />
    <glyph glyph-name="threeeighths" unicode="&#x215c;" horiz-adv-x="2670" 
d="M1706 264q0 -126 124 -204t329 -78q210 0 329 82.5t119 214.5q0 77 -38 132t-124 97q115 63 115 194q0 116 -111.5 190.5t-298.5 74.5q-176 0 -285.5 -76t-109.5 -203q0 -135 113 -213q-75 -27 -118.5 -82t-43.5 -129zM2030 283q0 22 20 47t55 43q103 -33 143 -58.5
t40 -50.5q0 -31 -32 -49t-87 -18q-62 0 -100.5 24t-38.5 62zM2271 680q0 -35 -67 -84q-88 31 -119 51.5t-31 48.5t30 45t77 17q52 0 81 -20.5t29 -57.5zM1698 1456l203 -94l-902 -1385l-204 95zM416 700q157 0 157 86q0 43 -51.5 69t-140.5 26h-78v196h78q170 0 170 84
q0 26 -27.5 42t-70.5 16q-38 0 -66 -15.5t-37 -44.5h-266q23 140 123 215.5t266 75.5q197 0 307.5 -71.5t110.5 -192.5q0 -69 -39.5 -124.5t-112.5 -82.5q79 -26 126.5 -84t47.5 -141q0 -126 -108.5 -205.5t-310.5 -79.5q-115 0 -225 52t-183 134l123 109q94 -64 207 -64z
" />
    <glyph glyph-name="fiveeighths" unicode="&#x215d;" horiz-adv-x="2670" 
d="M1706 264q0 -126 124 -204t329 -78q210 0 329 82.5t119 214.5q0 77 -38 132t-124 97q115 63 115 194q0 116 -111.5 190.5t-298.5 74.5q-176 0 -285.5 -76t-109.5 -203q0 -135 113 -213q-75 -27 -118.5 -82t-43.5 -129zM2030 283q0 22 20 47t55 43q103 -33 143 -58.5
t40 -50.5q0 -31 -32 -49t-87 -18q-62 0 -100.5 24t-38.5 62zM2271 680q0 -35 -67 -84q-88 31 -119 51.5t-31 48.5t30 45t77 17q52 0 81 -20.5t29 -57.5zM1698 1456l203 -94l-902 -1385l-204 95zM270 854l-116 55v527h735v-248h-416v-105q57 13 137 13q144 0 239 -80.5
t95 -214.5q0 -158 -116 -245t-330 -87q-234 0 -412 164l137 135q89 -51 228 -51q64 0 100.5 17.5t36.5 49.5q0 84 -195 84q-62 0 -123 -14z" />
    <glyph glyph-name="seveneighths" unicode="&#x215e;" horiz-adv-x="2670" 
d="M1706 264q0 -126 124 -204t329 -78q210 0 329 82.5t119 214.5q0 77 -38 132t-124 97q115 63 115 194q0 116 -111.5 190.5t-298.5 74.5q-176 0 -285.5 -76t-109.5 -203q0 -135 113 -213q-75 -27 -118.5 -82t-43.5 -129zM2030 283q0 22 20 47t55 43q103 -33 143 -58.5
t40 -50.5q0 -31 -32 -49t-87 -18q-62 0 -100.5 24t-38.5 62zM2271 680q0 -35 -67 -84q-88 31 -119 51.5t-31 48.5t30 45t77 17q52 0 81 -20.5t29 -57.5zM1698 1456l203 -94l-902 -1385l-204 95zM909 1436v-262q-119 -184 -182.5 -344t-101.5 -345h-377q73 308 305 682h-449
v269h805z" />
    <glyph glyph-name="uni215F" unicode="&#x215f;" horiz-adv-x="2670" 
d="M1698 1456l203 -94l-902 -1385l-204 95zM786 485h-335v637l-197 -116l-154 184l385 246h301v-951z" />
    <glyph glyph-name="arrowleft" unicode="&#x2190;" horiz-adv-x="2035" 
d="M61 680l615 473l-60 -279h1350v-391h-1350l60 -278z" />
    <glyph glyph-name="arrowup" unicode="&#x2191;" horiz-adv-x="2035" 
d="M1018 1524l586 -531l-373 54v-1125h-428v1125l-373 -54z" />
    <glyph glyph-name="arrowright" unicode="&#x2192;" horiz-adv-x="2035" 
d="M1360 1153l614 -473l-614 -475l59 278h-1349v391h1349q-10 51 -29.5 139.5t-29.5 139.5z" />
    <glyph glyph-name="arrowdown" unicode="&#x2193;" horiz-adv-x="2035" 
d="M1604 465l-586 -531l-588 531l373 -53v1124h428v-1124z" />
    <glyph glyph-name="arrowboth" unicode="&#x2194;" horiz-adv-x="2035" 
d="M1360 1153l614 -473l-614 -475l59 278h-803q10 -51 30 -139t30 -139l-615 475l615 473l-60 -279h803q-10 51 -29.5 139.5t-29.5 139.5z" />
    <glyph glyph-name="arrowupdn" unicode="&#x2195;" horiz-adv-x="2035" 
d="M1604 463l-586 -531l-588 531l373 -53v634l-373 -53l588 531l586 -531l-373 53v-634z" />
    <glyph glyph-name="arrowupdnbse" unicode="&#x21a8;" horiz-adv-x="2035" 
d="M1604 463l-474 -426h420v-217h-1067v217h418l-471 426l373 -53v634l-373 -53l588 531l586 -531l-373 53v-634z" />
    <glyph glyph-name="partialdiff" unicode="&#x2202;" horiz-adv-x="1480" 
d="M575 932q82 0 170 -23t144 -67q-14 147 -82.5 217.5t-171.5 70.5q-135 0 -211 -79l-313 159q94 115 245.5 181.5t333.5 66.5q159 0 286.5 -46.5t221 -138t144.5 -237t51 -334.5q0 -348 -185.5 -537.5t-517.5 -189.5q-173 0 -312.5 59t-225.5 178t-86 280q0 196 142 318
t367 122zM715 336q145 0 172 188q-71 47 -174 47q-72 0 -110 -30.5t-38 -85.5q0 -58 41.5 -88.5t108.5 -30.5z" />
    <glyph glyph-name="Delta" unicode="&#x2206;" horiz-adv-x="1642" 
d="M725 1434h193l704 -1301l-104 -133h-1393l-105 133zM584 356h475l-238 445z" />
    <glyph glyph-name="product" unicode="&#x220f;" horiz-adv-x="1851" 
d="M1702 1516v-1743h-526v1362h-500v-1362h-526v1743h1552z" />
    <glyph glyph-name="summation" unicode="&#x2211;" horiz-adv-x="1484" 
d="M66 123l395 547q-362 456 -395 497v349h1376v-357h-795l350 -434v-109l-340 -487h785v-356h-1376v350z" />
    <glyph glyph-name="minus" unicode="&#x2212;" horiz-adv-x="1431" 
d="M1325 539h-1219v280h1219v-280z" />
    <glyph glyph-name="uni2215" unicode="&#x2215;" horiz-adv-x="442" 
d="M571 1456l203 -94l-901 -1385l-205 95z" />
    <glyph glyph-name="uni2219" unicode="&#x2219;" horiz-adv-x="733" 
d="M188 502v350h357v-350h-357z" />
    <glyph glyph-name="radical" unicode="&#x221a;" horiz-adv-x="1597" 
d="M190 778h371l258 -356q58 185 189 573.5t192 581.5h342l-512 -1577h-287l-381 551h-172v227z" />
    <glyph glyph-name="infinity" unicode="&#x221e;" horiz-adv-x="1937" 
d="M969 481q-195 -151 -434 -151q-203 0 -316 95.5t-113 248.5q0 151 113 246.5t316 95.5q240 0 434 -156q194 156 434 156q203 0 315.5 -95.5t112.5 -246.5q0 -153 -112.5 -248.5t-315.5 -95.5q-239 0 -434 151zM1366 766q-107 0 -238 -94q125 -90 238 -90q63 0 96 24
t33 68t-33 68t-96 24zM571 766q-63 0 -96 -24t-33 -68t33 -68t96 -24q113 0 238 90q-131 94 -238 94z" />
    <glyph glyph-name="orthogonal" unicode="&#x221f;" horiz-adv-x="1595" 
d="M1573 336v-336h-1383v1178h498v-842h885z" />
    <glyph glyph-name="intersection" unicode="&#x2229;" horiz-adv-x="1843" 
d="M922 1264q177 0 317 -46t230 -128.5t137 -194t47 -246.5v-649h-482v643q0 285 -249 285q-248 0 -248 -285v-643h-484v649q0 134 47.5 246t137.5 194.5t230 128.5t317 46z" />
    <glyph glyph-name="integral" unicode="&#x222b;" horiz-adv-x="1161" 
d="M14 -436v303q45 -2 121 -2q109 0 152 21t43 73v1180q0 205 130 301t406 96q158 0 281 -14v-303q-47 2 -121 2q-108 0 -152.5 -22t-44.5 -73v-1179q0 -205 -129.5 -301.5t-404.5 -96.5q-149 0 -281 15z" />
    <glyph glyph-name="approxequal" unicode="&#x2248;" horiz-adv-x="1431" 
d="M989 1137l389 -54q-26 -177 -135 -271.5t-272 -94.5q-106 0 -228 49q-102 41 -165 41q-113 0 -136 -88l-389 53q26 178 135 272.5t273 94.5q105 0 227 -49q99 -41 166 -41q112 0 135 88zM989 643l389 -53q-26 -177 -135.5 -272t-271.5 -95q-106 0 -228 49
q-102 41 -165 41q-113 0 -136 -88l-389 54q26 177 135 271.5t273 94.5q105 0 227 -49q99 -41 166 -41q112 0 135 88z" />
    <glyph glyph-name="notequal" unicode="&#x2260;" horiz-adv-x="1431" 
d="M1325 297h-776l-197 -279l-159 80l141 199h-228v281h426l146 202h-572v281h773l200 278l160 -79l-143 -199h229v-281h-430l-143 -202h573v-281z" />
    <glyph glyph-name="equivalence" unicode="&#x2261;" horiz-adv-x="1431" 
d="M1325 922h-1219v280h1219v-280zM1325 539h-1219v280h1219v-280zM1325 156h-1219v280h1219v-280z" />
    <glyph glyph-name="lessequal" unicode="&#x2264;" horiz-adv-x="1431" 
d="M586 815l739 -182l-84 -230q-400 33 -893 162l-242 64v372l242 64q493 129 893 162l84 -230zM1325 0h-1219v281h1219v-281z" />
    <glyph glyph-name="greaterequal" unicode="&#x2265;" horiz-adv-x="1431" 
d="M104 633l742 182l-742 182l86 230q383 -31 891 -162l244 -64v-372l-244 -64q-508 -131 -891 -162zM1325 0h-1219v281h1219v-281z" />
    <glyph glyph-name="house" unicode="&#x2302;" horiz-adv-x="1613" 
d="M807 1253l616 -575v-678h-1233v678zM807 805l-250 -225v-347h498v347z" />
    <glyph glyph-name="revlogicalnot" unicode="&#x2310;" horiz-adv-x="1431" 
d="M1337 936v-281h-845v-346h-373v627h1218z" />
    <glyph glyph-name="uni2318" unicode="&#x2318;" horiz-adv-x="2193" 
d="M1509 764v-160h76q186 0 302 -82.5t116 -224.5q0 -137 -103 -223t-288 -86q-186 0 -287.5 91t-101.5 245v41h-252v-41q0 -154 -102 -245t-289 -91q-184 0 -287 86.5t-103 222.5q0 142 116 224.5t302 82.5h76v160h-76q-186 0 -302 82.5t-116 224.5q0 136 103 222.5
t287 86.5q187 0 289 -91t102 -245v-40h252v40q0 154 101.5 245t287.5 91q185 0 288 -86t103 -223q0 -142 -116 -224.5t-302 -82.5h-76zM971 764v-160h252v160h-252zM1704 1073q0 25 -26 43.5t-66 18.5q-107 0 -107 -93v-41h70q129 0 129 72zM489 295q0 -25 26 -43.5
t65 -18.5q106 0 106 93v41h-70q-127 0 -127 -72zM1704 295q0 72 -129 72h-70v-41q0 -93 107 -93q40 0 66 18.5t26 43.5zM489 1073q0 -72 127 -72h70v41q0 93 -106 93q-39 0 -65 -18.5t-26 -43.5z" />
    <glyph glyph-name="lozenge" unicode="&#x25ca;" horiz-adv-x="1261" 
d="M629 -295l-582 913l582 914l583 -914zM922 618l-293 451l-291 -451l291 -454z" />
    <glyph glyph-name="H18533" unicode="&#x25cf;" horiz-adv-x="2379" 
d="M379 668q0 187 109 346.5t296 252.5t406 93t406 -93t296 -252.5t109 -346.5q0 -140 -64.5 -268.5t-173 -221.5t-259 -148t-314.5 -55t-314.5 55t-259 148t-173 221.5t-64.5 268.5z" />
    <glyph glyph-name="fi" horiz-adv-x="1798" 
d="M1157 0v729h-434v-729h-500v729h-209v332h209v37q0 205 129.5 301t405.5 96q149 0 207 -6v-309h-72q-91 0 -130.5 -22t-39.5 -73v-24h934v-1061h-500zM1157 1188v307h500v-307h-500z" />
    <glyph glyph-name="fl" horiz-adv-x="1794" 
d="M1157 0v1161q-108 19 -264 19q-91 0 -130.5 -22t-39.5 -73v-24h278v-332h-278v-729h-500v729h-209v332h209v37q0 207 116.5 302t381.5 95q102 0 224.5 -14t211.5 -37v51h500v-1495h-500z" />
    <glyph glyph-name="commaaccent" horiz-adv-x="856" 
d="M221 -508l141 416l275 -78l-53 -109q-88 -179 -193 -278z" />
    <glyph glyph-name="zero.tnum" horiz-adv-x="1544" 
d="M1477 717q0 -227 -77 -392.5t-233 -257.5t-379 -92q-333 0 -510.5 198.5t-177.5 543.5t177 543t511 198t511.5 -198t177.5 -543zM971 717q0 205 -46 289t-137 84t-136.5 -84t-45.5 -289t45.5 -289t136.5 -84t137 84t46 289z" />
    <glyph glyph-name="one.tnum" horiz-adv-x="1288" 
d="M283 743l-250 308l590 383h450v-1434h-504v932z" />
    <glyph glyph-name="two.tnum" horiz-adv-x="1431" 
d="M838 985q0 45 -36 72.5t-91 27.5q-77 0 -116.5 -41.5t-39.5 -134.5h-451q0 265 164.5 408t460.5 143q276 0 443 -122t167 -343q0 -81 -36.5 -167.5t-101.5 -168.5t-144 -156.5t-174 -144.5h481v-358h-1229v307q703 459 703 678z" />
    <glyph glyph-name="three.tnum" horiz-adv-x="1443" 
d="M825 1016q0 36 -39 60t-106 24q-75 0 -123.5 -31t-48.5 -86h-434q0 211 170.5 341t455.5 130q261 0 433 -113t172 -292q0 -203 -215 -299q270 -93 270 -330q0 -193 -179.5 -318t-490.5 -125q-182 0 -362.5 89.5t-290.5 242.5l246 162q75 -68 176 -104.5t194 -36.5
q102 0 159.5 28t57.5 80q0 65 -70.5 96t-193.5 31h-127v336h125q98 0 159.5 32t61.5 83z" />
    <glyph glyph-name="four.tnum" horiz-adv-x="1492" 
d="M51 221v326l756 887h473v-877h205v-336h-205v-221h-487v221h-742zM793 893l-310 -336h310v336z" />
    <glyph glyph-name="five.tnum" horiz-adv-x="1413" 
d="M305 580l-137 67v787h1087v-351h-622v-139q44 12 160 12q108 0 207.5 -33.5t176.5 -94t123 -154.5t46 -207q0 -215 -176 -353.5t-482 -138.5q-186 0 -352 82.5t-283 239.5l236 156q131 -123 348 -123q97 0 152 40t55 107q0 75 -63.5 116.5t-164.5 41.5q-178 0 -311 -55z
" />
    <glyph glyph-name="six.tnum" horiz-adv-x="1531" 
d="M817 1098q-64 0 -118 -52t-70 -157q55 32 140 50.5t173 18.5q149 0 266 -55t186.5 -166.5t69.5 -263.5q0 -225 -175.5 -361.5t-465.5 -136.5q-337 0 -522.5 176t-185.5 517q0 387 180 588.5t510 201.5q259 0 422.5 -119.5t191.5 -312.5h-469q-11 33 -45 52.5t-88 19.5z
M788 606q-93 0 -163 -39q4 -129 49 -180t135 -51q71 0 111.5 36.5t40.5 100.5q0 133 -173 133z" />
    <glyph glyph-name="seven.tnum" horiz-adv-x="1386" 
d="M1335 1434v-334q-201 -290 -323.5 -541t-196.5 -559h-524q144 554 514 1059h-719v375h1249z" />
    <glyph glyph-name="eight.tnum" horiz-adv-x="1546" 
d="M102 401q0 108 65.5 190t184.5 130q-176 120 -176 321q0 189 168 303.5t436 114.5q286 0 456.5 -111.5t170.5 -283.5q0 -200 -178 -297q131 -64 191.5 -147.5t60.5 -196.5q0 -200 -182.5 -323.5t-505.5 -123.5q-311 0 -501 118t-190 306zM610 428q0 -57 54.5 -92
t142.5 -35q83 0 125.5 26.5t42.5 71.5q0 42 -57 79.5t-209 86.5q-46 -30 -72.5 -67t-26.5 -70zM956 1028q0 55 -43.5 86t-117.5 31q-66 0 -107 -25t-41 -65q0 -43 46 -76t171 -76q92 64 92 125z" />
    <glyph glyph-name="nine.tnum" horiz-adv-x="1511" 
d="M653 336q113 0 179 48t83 159q-55 -32 -139 -50t-172 -18q-149 0 -266 55.5t-186.5 167t-69.5 263.5q0 224 175.5 360.5t465.5 136.5q337 0 523 -176t186 -516q0 -388 -184.5 -589.5t-524.5 -201.5q-162 0 -313 68.5t-277 194.5l217 184q77 -44 146 -65t157 -21zM752 799
q103 0 186 49q-13 252 -197 252q-80 0 -126 -41t-46 -111q0 -69 48.5 -109t134.5 -40z" />
    <glyph glyph-name="parenleft.case" horiz-adv-x="968" 
d="M190 717q0 257 104 498t292 427l311 -131q-138 -172 -215.5 -374.5t-77.5 -419.5q0 -218 77.5 -420.5t215.5 -374.5l-311 -131q-188 186 -292 427.5t-104 498.5z" />
    <glyph glyph-name="parenright.case" horiz-adv-x="968" 
d="M778 717q0 -258 -104 -499t-291 -427l-311 131q138 172 215.5 374.5t77.5 420.5q0 217 -77.5 419.5t-215.5 374.5l311 131q188 -186 291.5 -427t103.5 -498z" />
    <glyph glyph-name="hyphen.case" horiz-adv-x="913" 
d="M805 565h-699v301h699v-301z" />
    <glyph glyph-name="at.case" horiz-adv-x="2351" 
d="M582 711q0 139 82 252t216 174t289 61q262 0 406.5 -110t144.5 -334v-166q0 -68 31.5 -101.5t103.5 -33.5q87 0 138 76.5t51 220.5q0 149 -64.5 279t-178 223.5t-275.5 147.5t-350 54q-177 0 -334.5 -51.5t-276.5 -145t-188.5 -233.5t-69.5 -307q0 -164 68.5 -303
t185.5 -233.5t276.5 -147.5t338.5 -53q337 0 526 131l117 -113q-130 -86 -297 -132t-346 -46q-225 0 -420.5 70t-332 190.5t-214.5 285.5t-78 351t77.5 351t213.5 285.5t332 190.5t422 70q237 0 435.5 -70t330 -189.5t204 -276t72.5 -330.5q0 -237 -129 -365.5t-371 -128.5
q-257 0 -356 135q-50 -61 -150 -98t-190 -37q-205 0 -322.5 121.5t-117.5 335.5zM1157 500q99 0 162 47v172q0 108 -41 155.5t-121 47.5q-93 0 -133.5 -52t-40.5 -159t40.5 -159t133.5 -52z" />
    <glyph glyph-name="bracketleft.case" horiz-adv-x="1040" 
d="M231 -184v1802h787v-279h-379v-1245h379v-278h-787z" />
    <glyph glyph-name="bracketright.case" horiz-adv-x="1040" 
d="M809 1618v-1802h-786v278h378v1245h-378v279h786z" />
    <glyph glyph-name="braceleft.case" horiz-adv-x="1017" 
d="M113 578v274q93 0 152 55t59 156v223q0 123 52 190.5t152 104.5q60 22 170.5 32.5t204.5 10.5l55 -211l-106 -39q-123 -46 -123 -141v-193q0 -258 -252 -325q252 -67 252 -326v-192q0 -96 125 -142l104 -39l-55 -211q-94 0 -204.5 10.5t-170.5 32.5q-100 37 -152 104.5
t-52 190.5v224q0 101 -59 156t-152 55z" />
    <glyph glyph-name="braceright.case" horiz-adv-x="1017" 
d="M905 852v-274q-93 0 -152 -55t-59 -156v-224q0 -123 -52.5 -190.5t-152.5 -104.5q-61 -22 -170.5 -32.5t-203.5 -10.5l-56 211l105 39q125 46 125 142v192q0 259 252 326q-252 67 -252 325v193q0 95 -123 141l-107 39l56 211q94 0 203.5 -10.5t170.5 -32.5
q100 -37 152.5 -104.5t52.5 -190.5v-223q0 -101 59 -156t152 -55z" />
    <glyph glyph-name="exclamdown.case" horiz-adv-x="827" 
d="M154 326l57 653h405l58 -653v-326h-520v326zM178 1108v326h471v-326h-471z" />
    <glyph glyph-name="guillemotleft.case" horiz-adv-x="1490" 
d="M84 629v176l143 84q179 105 383 176l113 -147l-320 -201l320 -201l-113 -147q-193 65 -383 176zM754 629v176l141 84q181 107 383 176l113 -147l-320 -201l320 -201l-113 -147q-206 71 -383 176z" />
    <glyph glyph-name="periodcentered.case" horiz-adv-x="733" 
d="M188 539v350h357v-350h-357z" />
    <glyph glyph-name="guillemotright.case" horiz-adv-x="1490" 
d="M1403 805v-176l-141 -84q-181 -107 -383 -176l-113 147l319 201l-319 201l113 147q206 -71 383 -176zM735 805v-176l-143 -84q-179 -105 -383 -176l-113 147l320 201l-320 201l113 147q193 -65 383 -176z" />
    <glyph glyph-name="questiondown.case" horiz-adv-x="1368" 
d="M813 -25q-270 0 -429 107t-159 293q0 128 72 226t227 181q68 36 92.5 69t24.5 83v45h320q75 -65 75 -176q0 -92 -42 -156.5t-136 -107.5q-84 -38 -120 -73.5t-36 -72.5q0 -32 33.5 -49.5t89.5 -17.5q140 0 140 112h434q0 -214 -151 -338.5t-435 -124.5zM1042 1434v-326
h-471v326h471z" />
    <glyph glyph-name="endash.case" horiz-adv-x="1150" 
d="M1169 575h-1187v281h1187v-281z" />
    <glyph glyph-name="emdash.case" horiz-adv-x="2379" 
d="M2398 575h-2416v281h2416v-281z" />
    <glyph glyph-name="bullet.case" horiz-adv-x="1032" 
d="M178 717q0 146 87.5 226.5t250.5 80.5t250.5 -80.5t87.5 -226.5t-87.5 -226.5t-250.5 -80.5t-250.5 80.5t-87.5 226.5z" />
    <glyph glyph-name="guilsinglleft.case" horiz-adv-x="819" 
d="M84 629v176l143 84q179 105 383 176l113 -147l-320 -201l320 -201l-113 -147q-193 65 -383 176z" />
    <glyph glyph-name="guilsinglright.case" horiz-adv-x="819" 
d="M735 805v-176l-143 -84q-179 -105 -383 -176l-113 147l320 201l-320 201l113 147q193 -65 383 -176z" />
    <glyph glyph-name="zero.numerator" 
d="M975 963q0 -234 -119.5 -362t-343.5 -128q-225 0 -345 128t-120 362t119.5 361.5t345.5 127.5q224 0 343.5 -128t119.5 -361zM397 963q0 -124 26.5 -176t88.5 -52q60 0 86.5 52t26.5 176q0 123 -26 175t-87 52q-62 0 -88.5 -51.5t-26.5 -175.5z" />
    <glyph glyph-name="one.numerator" 
d="M786 485h-335v637l-197 -116l-154 184l385 246h301v-951z" />
    <glyph glyph-name="two.numerator" 
d="M569 1116q0 72 -104 72q-40 0 -70 -23.5t-33 -60.5h-286q10 170 124.5 258t301.5 88q191 0 302 -86t111 -215q0 -118 -65.5 -209t-226.5 -199h292v-256h-806v197q230 139 345 253t115 181z" />
    <glyph glyph-name="three.numerator" 
d="M416 700q157 0 157 86q0 43 -51.5 69t-140.5 26h-78v196h78q170 0 170 84q0 26 -27.5 42t-70.5 16q-38 0 -66 -15.5t-37 -44.5h-266q23 140 123 215.5t266 75.5q197 0 307.5 -71.5t110.5 -192.5q0 -69 -39.5 -124.5t-112.5 -82.5q79 -26 126.5 -84t47.5 -141
q0 -126 -108.5 -205.5t-310.5 -79.5q-115 0 -225 52t-183 134l123 109q94 -64 207 -64z" />
    <glyph glyph-name="four.numerator" 
d="M45 647v260l414 529h399v-531h119v-258h-119v-162h-319v162h-494zM539 1184l-217 -279h217v279z" />
    <glyph glyph-name="five.numerator" 
d="M270 854l-116 55v527h735v-248h-416v-105q57 13 137 13q144 0 239 -80.5t95 -214.5q0 -158 -116 -245t-330 -87q-234 0 -412 164l137 135q89 -51 228 -51q64 0 100.5 17.5t36.5 49.5q0 84 -195 84q-62 0 -123 -14z" />
    <glyph glyph-name="six.numerator" 
d="M559 1227q-68 0 -111 -44t-49 -120q36 27 103.5 44t130.5 17q143 0 234 -80.5t91 -236.5q0 -152 -117 -245t-315 -93q-215 0 -334.5 122t-119.5 324q0 274 127.5 405.5t347.5 131.5q152 0 255 -75t134 -201h-260q-19 51 -117 51zM514 881q-65 0 -111 -27
q16 -135 119 -135q46 0 74.5 22.5t28.5 61.5q0 37 -29.5 57.5t-81.5 20.5z" />
    <glyph glyph-name="seven.numerator" 
d="M909 1436v-262q-119 -184 -182.5 -344t-101.5 -345h-377q73 308 305 682h-449v269h805z" />
    <glyph glyph-name="eight.numerator" 
d="M59 750q0 74 43.5 129t118.5 82q-112 77 -112 213q0 126 109.5 202t285.5 76q187 0 298 -74t111 -190q0 -132 -114 -195q86 -42 124 -97t38 -132q0 -132 -119 -214.5t-330 -82.5q-205 0 -329 78.5t-124 204.5zM383 768q0 -38 38.5 -62t100.5 -24q55 0 87 18.5t32 49.5
q0 25 -39.5 50t-142.5 58q-35 -18 -55.5 -43.5t-20.5 -46.5zM625 1165q0 37 -29.5 57.5t-81.5 20.5q-47 0 -76.5 -16.5t-29.5 -44.5t31 -49.5t118 -51.5q68 50 68 84z" />
    <glyph glyph-name="nine.numerator" 
d="M430 702q88 0 132.5 33.5t53.5 102.5q-34 -20 -92.5 -31.5t-109.5 -11.5q-71 0 -133 19.5t-111.5 57t-78 99.5t-28.5 141q0 152 117.5 246t313.5 94q215 0 334.5 -122.5t119.5 -325.5q0 -139 -34 -243.5t-96 -167.5t-141.5 -93.5t-176.5 -30.5q-116 0 -207.5 40
t-177.5 122l88 123q97 -52 227 -52zM506 1038q72 0 110 27q-13 137 -116 137q-46 0 -75.5 -23.5t-29.5 -62.5q0 -37 30 -57.5t81 -20.5z" />
    <glyph glyph-name="zero.denominator" 
d="M975 477q0 -233 -119.5 -361t-343.5 -128q-226 0 -345.5 127.5t-119.5 361.5t120 362t345 128q224 0 343.5 -128t119.5 -362zM397 477q0 -124 26.5 -175.5t88.5 -51.5q61 0 87 52t26 175q0 124 -26.5 176t-86.5 52q-62 0 -88.5 -52t-26.5 -176z" />
    <glyph glyph-name="one.denominator" 
d="M786 0h-335v637l-197 -117l-154 185l385 245h301v-950z" />
    <glyph glyph-name="two.denominator" 
d="M569 631q0 71 -104 71q-40 0 -70 -23.5t-33 -60.5h-286q10 170 124.5 258.5t301.5 88.5q191 0 302 -86t111 -215q0 -118 -65.5 -209t-226.5 -199h292v-256h-806v197q230 139 345 253t115 181z" />
    <glyph glyph-name="three.denominator" 
d="M416 215q157 0 157 86q0 43 -51.5 68.5t-140.5 25.5h-78v197h78q170 0 170 84q0 26 -27.5 41.5t-70.5 15.5q-38 0 -66 -15.5t-37 -43.5h-266q23 140 123 215.5t266 75.5q197 0 307.5 -71.5t110.5 -193.5q0 -69 -39.5 -124t-112.5 -82q79 -26 126.5 -84.5t47.5 -141.5
q0 -125 -108.5 -204.5t-310.5 -79.5q-115 0 -225 52t-183 134l123 109q94 -64 207 -64z" />
    <glyph glyph-name="four.denominator" 
d="M45 162v260l414 528h399v-530h119v-258h-119v-162h-319v162h-494zM539 698l-217 -278h217v278z" />
    <glyph glyph-name="five.denominator" 
d="M270 369l-116 55v526h735v-248h-416v-104q53 12 137 12q144 0 239 -80.5t95 -214.5q0 -157 -116 -244t-330 -87q-236 0 -412 163l137 136q91 -52 228 -52q63 0 100 18t37 50q0 84 -195 84q-62 0 -123 -14z" />
    <glyph glyph-name="six.denominator" 
d="M559 741q-68 0 -111 -43.5t-49 -119.5q36 27 103.5 44t130.5 17q143 0 234 -80.5t91 -236.5q0 -152 -117 -245t-315 -93q-215 0 -334.5 122t-119.5 324q0 274 127.5 405.5t347.5 131.5q152 0 255 -75.5t134 -201.5h-260q-19 51 -117 51zM514 395q-67 0 -111 -26
q16 -136 119 -136q46 0 74.5 22.5t28.5 61.5q0 37 -29.5 57.5t-81.5 20.5z" />
    <glyph glyph-name="seven.denominator" 
d="M909 950v-262q-119 -184 -182.5 -344t-101.5 -344h-377q73 308 305 682h-449v268h805z" />
    <glyph glyph-name="eight.denominator" 
d="M59 264q0 74 43.5 129t118.5 82q-112 77 -112 213q0 127 109.5 203t285.5 76q187 0 298 -74.5t111 -190.5q0 -131 -114 -194q86 -42 124 -97t38 -132q0 -132 -119 -214.5t-330 -82.5q-205 0 -329 78t-124 204zM383 283q0 -38 38.5 -62t100.5 -24q55 0 87 18t32 49
q0 25 -39.5 50.5t-142.5 58.5q-35 -18 -55.5 -43.5t-20.5 -46.5zM625 680q0 37 -29.5 57.5t-81.5 20.5q-47 0 -76.5 -17t-29.5 -45t31 -48.5t118 -51.5q68 50 68 84z" />
    <glyph glyph-name="nine.denominator" 
d="M430 217q88 0 132.5 33t53.5 102q-34 -20 -92.5 -31.5t-109.5 -11.5q-71 0 -133 19.5t-111.5 57.5t-78 100t-28.5 141q0 152 117.5 246t313.5 94q215 0 334.5 -123t119.5 -326q0 -139 -34 -243.5t-96 -167t-141.5 -93t-176.5 -30.5q-117 0 -208 39.5t-177 121.5l88 123
q56 -30 107.5 -40.5t119.5 -10.5zM506 553q72 0 110 27q-13 137 -116 137q-46 0 -75.5 -23.5t-29.5 -62.5q0 -37 30 -57.5t81 -20.5z" />
    </font>
</defs>
</svg>
