<?xml version="1.0" standalone="no"?>
<!DOCTYPE svg PUBLIC "-//W3C//DTD SVG 1.1//EN" "http://www.w3.org/Graphics/SVG/1.1/DTD/svg11.dtd" >
<svg xmlns="http://www.w3.org/2000/svg" xmlns:xlink="http://www.w3.org/1999/xlink" version="1.1">
<metadata>
Created by FontForge 20170731 at Mon Jan 31 18:50:36 2022
 By Aleksey,,,
Copyright (c) 2016 by Lee, Hyun-Seung. All rights reserved.
</metadata>
<defs>
<font id="ArticoExpandedMedium" horiz-adv-x="954" >
  <font-face 
    font-family="Artico Expanded Medium"
    font-weight="500"
    font-stretch="expanded"
    units-per-em="2048"
    panose-1="2 11 6 5 3 3 2 2 2 4"
    ascent="1638"
    descent="-410"
    x-height="1061"
    cap-height="1434"
    bbox="-1059 -530 2583 2054"
    underline-thickness="49"
    underline-position="-472"
    unicode-range="U+0008-FB04"
  />
<missing-glyph horiz-adv-x="1150" 
d="M997 0h-843v1536h843v-1536zM854 133v1270h-557v-1270h557z" />
    <glyph glyph-name="f_f" unicode="ff" horiz-adv-x="1605" 
d="M1436 1495q71 0 153 -8v-184h-108q-120 0 -172 -40t-52 -122v-80h308v-195h-308v-866h-247v866h-521v-866h-247v866h-226v195h226v92q0 177 102.5 259.5t323.5 82.5q38 0 149 -6v-191q-63 5 -104 5q-125 0 -174.5 -39t-49.5 -123v-80h521v92q0 177 102.5 259.5
t323.5 82.5z" />
    <glyph glyph-name="f_i" unicode="fi" horiz-adv-x="1433" 
d="M668 1495q81 0 135 -4v-193q-78 5 -96 5q-121 0 -169.5 -39.5t-48.5 -122.5v-80h785v-1061h-250v866h-535v-866h-247v866h-226v195h226v92q0 177 102 259.5t324 82.5zM1024 1249v236h250v-236h-250z" />
    <glyph glyph-name="f_l" unicode="fl" horiz-adv-x="1404" 
d="M657 1495q167 0 342 -35v35h248v-1495h-248v1280q-148 23 -292 23q-121 0 -169.5 -39.5t-48.5 -122.5v-80h304v-195h-304v-866h-247v866h-226v195h226v92q0 178 98.5 260t316.5 82z" />
    <glyph glyph-name="f_f_i" unicode="ffi" horiz-adv-x="2201" 
d="M1436 1495q81 0 135 -4v-193q-82 5 -96 5q-121 0 -169.5 -39.5t-48.5 -122.5v-80h785v-1061h-250v866h-535v-866h-247v866h-521v-866h-247v866h-226v195h226v92q0 177 102.5 259.5t323.5 82.5q38 0 149 -6v-191q-63 5 -104 5q-125 0 -174.5 -39t-49.5 -123v-80h521v92
q0 177 102 259.5t324 82.5zM1792 1249v236h250v-236h-250z" />
    <glyph glyph-name="f_f_l" unicode="ffl" horiz-adv-x="2172" 
d="M1425 1495q167 0 342 -35v35h248v-1495h-248v1280q-148 23 -292 23q-121 0 -169.5 -39.5t-48.5 -122.5v-80h304v-195h-304v-866h-247v866h-521v-866h-247v866h-226v195h226v92q0 177 102.5 259.5t323.5 82.5q38 0 149 -6v-191q-63 5 -104 5q-125 0 -174.5 -39t-49.5 -123
v-80h521v92q0 178 98.5 260t316.5 82z" />
    <glyph glyph-name=".notdef" horiz-adv-x="1150" 
d="M997 0h-843v1536h843v-1536zM854 133v1270h-557v-1270h557z" />
    <glyph glyph-name=".null" horiz-adv-x="0" 
 />
    <glyph glyph-name=".null" horiz-adv-x="0" 
 />
    <glyph glyph-name=".null" horiz-adv-x="0" 
 />
    <glyph glyph-name="nonmarkingreturn" horiz-adv-x="682" 
 />
    <glyph glyph-name="CR" unicode="&#x9;" horiz-adv-x="698" 
 />
    <glyph glyph-name="CR" unicode="&#xd;" horiz-adv-x="698" 
 />
    <glyph glyph-name="space" unicode=" " horiz-adv-x="737" 
 />
    <glyph glyph-name="exclam" unicode="!" horiz-adv-x="661" 
d="M188 1434h285v-361l-53 -700h-178l-54 700v361zM199 0v246h266v-246h-266z" />
    <glyph glyph-name="quotedbl" unicode="&#x22;" horiz-adv-x="1183" 
d="M254 864l-35 570h258v-66q0 -122 -25.5 -258.5t-68.5 -245.5h-129zM743 864l-36 570h258v-66q0 -124 -25.5 -260t-69.5 -244h-127z" />
    <glyph glyph-name="numbersign" unicode="#" horiz-adv-x="1658" 
d="M1114 1096l70 338h231l-69 -338h249v-191h-290l-76 -370h266v-191h-305l-70 -344h-231l69 344h-413l-70 -344h-231l69 344h-250v191h291l76 370h-266v191h305l70 338h231l-70 -338h414zM662 905l-76 -370h411l76 370h-411z" />
    <glyph glyph-name="dollar" unicode="$" horiz-adv-x="1425" 
d="M657 -201v181q-330 26 -561 315l135 100q178 -181 426 -205v437l-14 4q-268 60 -387 172t-119 268q0 168 138 274.5t382 112.5v180h125v-184q233 -21 359 -133.5t155 -298.5h-270q-12 89 -74.5 145.5t-169.5 71.5v-408q150 -37 248.5 -74t172 -88.5t106 -119t32.5 -158.5
q0 -180 -149 -292.5t-410 -121.5v-178h-125zM1073 375q0 82 -61.5 129.5t-229.5 91.5v-408q137 9 214 60t77 127zM406 1077q0 -129 251 -211v377q-124 -7 -187.5 -51.5t-63.5 -114.5z" />
    <glyph glyph-name="percent" unicode="%" horiz-adv-x="2121" 
d="M170 1104q0 142 115 243t278 101q161 0 276 -101t115 -243t-115 -243t-276 -101q-163 0 -278 101t-115 243zM389 1104q0 -69 48 -111.5t126 -42.5q77 0 125.5 42.5t48.5 111.5t-48.5 111t-125.5 42q-78 0 -126 -42t-48 -111zM1645 1276l-1049 -1225l-119 105l1043 1220z
M1167 330q0 142 115.5 243t278.5 101q161 0 276 -101t115 -243t-115 -243t-276 -101q-163 0 -278.5 101t-115.5 243zM1386 330q0 -69 49 -111.5t126 -42.5q78 0 126 42.5t48 111.5t-48 111t-126 42q-77 0 -126 -42t-49 -111z" />
    <glyph glyph-name="ampersand" unicode="&#x26;" horiz-adv-x="1546" 
d="M1137 1233q-9 -8 -65 -56t-85 -75l-39 35q-70 62 -132 92.5t-130 30.5q-96 0 -145 -40t-49 -110q0 -40 24 -78t82 -90l524 -463l172 158l156 -154l-170 -149l299 -266l-96 -88q-135 45 -365 215q-118 -118 -249 -169t-296 -51q-224 0 -351.5 108t-127.5 275
q0 126 79.5 234t260.5 207q-92 93 -135 161t-43 146q0 151 116 251.5t316 100.5q113 0 211.5 -43t200.5 -145zM584 174q90 0 166 29t157 96l49 41l-368 317q-131 -62 -194.5 -136t-63.5 -148q0 -90 70 -144.5t184 -54.5z" />
    <glyph glyph-name="quotesingle" unicode="'" horiz-adv-x="667" 
d="M240 864l-35 570h258v-66q0 -122 -25.5 -258.5t-68.5 -245.5h-129z" />
    <glyph glyph-name="parenleft" unicode="(" horiz-adv-x="843" 
d="M217 635q0 257 95.5 487.5t277.5 419.5l172 -76q-316 -388 -316 -831q0 -447 316 -832l-172 -75q-182 188 -277.5 418t-95.5 489z" />
    <glyph glyph-name="parenright" unicode=")" horiz-adv-x="843" 
d="M627 635q0 -259 -95.5 -489t-277.5 -418l-172 75q315 384 315 832q0 444 -315 831l172 76q182 -189 277.5 -419.5t95.5 -487.5z" />
    <glyph glyph-name="asterisk" unicode="*" horiz-adv-x="1273" 
d="M1133 813l-328 -133l328 -135l-101 -174l-315 174l24 -320h-209l25 320l-330 -174l-86 174l328 135l-328 133l103 174l313 -174l-25 322h209l-24 -322l315 174z" />
    <glyph glyph-name="plus" unicode="+" horiz-adv-x="1437" 
d="M604 168v416h-481v190h481v414h230v-414h481v-190h-481v-416h-230z" />
    <glyph glyph-name="comma" unicode="," horiz-adv-x="675" 
d="M170 -332l-135 94q100 94 137 175t37 200v113h258v-86q0 -324 -297 -496z" />
    <glyph glyph-name="hyphen" unicode="-" horiz-adv-x="917" 
d="M795 575h-672v207h672v-207z" />
    <glyph glyph-name="period" unicode="." horiz-adv-x="675" 
d="M209 0v250h258v-250h-258z" />
    <glyph glyph-name="slash" unicode="/" horiz-adv-x="1193" 
d="M1212 1456l-1038 -1712l-192 100l1038 1712z" />
    <glyph glyph-name="zero" unicode="0" horiz-adv-x="1431" 
d="M1337 717q0 -129 -24 -241t-74 -204.5t-122.5 -158t-175 -102t-226.5 -36.5q-154 0 -274 55.5t-195.5 156t-114.5 234.5t-39 296t39 296t114.5 234t195.5 155.5t274 55.5q124 0 226.5 -36t175 -102t122.5 -158.5t74 -204t24 -240.5zM1067 717q0 256 -89 389t-263 133
t-263.5 -133t-89.5 -389t89.5 -390t263.5 -134t263 134t89 390z" />
    <glyph glyph-name="one" unicode="1" horiz-adv-x="1431" 
d="M676 0v1165l-352 -204l-111 167l487 306h234v-1434h-258z" />
    <glyph glyph-name="two" unicode="2" horiz-adv-x="1431" 
d="M967 1030q0 93 -77 149t-208 56q-121 0 -205 -75.5t-88 -201.5h-250q9 232 154.5 366t400.5 134q247 0 396 -112t149 -314q0 -83 -42.5 -176.5t-109 -177.5t-158.5 -171.5t-180.5 -157t-185.5 -136.5h703v-213h-1102v197q110 78 195.5 141.5t183.5 142t169 147.5
t131.5 140t92 137.5t31.5 124.5z" />
    <glyph glyph-name="three" unicode="3" horiz-adv-x="1431" 
d="M973 1059q0 84 -73.5 135t-201.5 51q-130 0 -212 -57t-91 -156h-241q17 201 166.5 313.5t392.5 112.5q229 0 376.5 -102t147.5 -271q0 -124 -79.5 -214t-194.5 -123q153 -41 242 -133t89 -224q0 -185 -157 -300.5t-432 -115.5q-346 0 -570 269l129 106
q80 -79 188.5 -122.5t227.5 -43.5q157 0 250.5 58.5t93.5 158.5q0 121 -113 181.5t-293 60.5h-143v203h141q159 0 258 57.5t99 155.5z" />
    <glyph glyph-name="four" unicode="4" horiz-adv-x="1431" 
d="M66 293v196l823 945h241v-938h222v-203h-222v-293h-253v293h-811zM877 1092l-523 -596h523v596z" />
    <glyph glyph-name="five" unicode="5" horiz-adv-x="1431" 
d="M297 651l-45 23v760h960v-209h-706v-346q108 24 250 24q238 0 391 -129t153 -346q0 -196 -156 -324.5t-423 -128.5q-333 0 -563 258l125 113q172 -160 422 -160q145 0 237 71.5t92 176.5q0 125 -105 193.5t-272 68.5q-202 0 -360 -45z" />
    <glyph glyph-name="six" unicode="6" horiz-adv-x="1431" 
d="M764 1245q-157 0 -253.5 -104.5t-113.5 -325.5q73 53 185.5 87t218.5 34q237 0 384.5 -134.5t147.5 -348.5t-159.5 -346t-421.5 -132q-296 0 -458.5 172.5t-162.5 536.5q0 388 162 581t461 193q233 0 381.5 -107.5t175.5 -287.5h-242q-19 83 -100.5 132.5t-204.5 49.5z
M739 725q-201 0 -346 -117q19 -420 350 -420q158 0 243 71t85 198q0 126 -87 197t-245 71z" />
    <glyph glyph-name="seven" unicode="7" horiz-adv-x="1431" 
d="M1272 1434v-217q-222 -323 -362 -610t-212 -607h-288q89 342 229.5 638.5t343.5 580.5h-840v215h1129z" />
    <glyph glyph-name="eight" unicode="8" horiz-adv-x="1431" 
d="M168 1071q0 170 146 278.5t397 108.5q250 0 399.5 -109.5t149.5 -275.5q0 -102 -57.5 -188t-160.5 -140q151 -66 220 -155t69 -207q0 -183 -169.5 -294.5t-446.5 -111.5q-281 0 -450 113t-169 309q0 121 68.5 216.5t197.5 154.5q-194 117 -194 301zM365 399
q0 -101 97 -159t255 -58q157 0 252.5 51t95.5 140q0 86 -93 143t-372 150l-20 6q-99 -50 -157 -123t-58 -150zM1001 1053q0 90 -77.5 144t-208.5 54q-130 0 -207.5 -50.5t-77.5 -129.5q0 -65 85.5 -118.5t303.5 -125.5q82 43 132 102.5t50 123.5z" />
    <glyph glyph-name="nine" unicode="9" horiz-adv-x="1431" 
d="M639 188q59 0 110.5 12t100.5 42.5t85.5 78t62.5 122t34 171.5q-72 -52 -183 -85t-216 -33q-238 0 -385.5 134.5t-147.5 348.5q0 216 160 347.5t424 131.5q141 0 253 -41t194 -124.5t125.5 -217t43.5 -311.5q0 -204 -48.5 -357.5t-137.5 -247t-208 -139t-267 -45.5
q-119 0 -245 55t-216 148l111 119q68 -48 160.5 -78.5t189.5 -30.5zM692 707q201 0 344 116q-4 119 -31.5 203t-75.5 131t-107 67.5t-134 20.5q-159 0 -243.5 -71t-84.5 -199q0 -126 87 -197t245 -71z" />
    <glyph glyph-name="colon" unicode=":" horiz-adv-x="675" 
d="M209 0v250h258v-250h-258zM209 807v252h258v-252h-258z" />
    <glyph glyph-name="semicolon" unicode=";" horiz-adv-x="675" 
d="M209 807v252h258v-252h-258zM170 -332l-131 94q99 93 134.5 174t35.5 201v113h258v-86q0 -324 -297 -496z" />
    <glyph glyph-name="less" unicode="&#x3c;" horiz-adv-x="1437" 
d="M231 596v166l197 102q371 192 692 314l62 -134l-680 -366l680 -367l-62 -133q-353 137 -692 316z" />
    <glyph glyph-name="equal" unicode="=" horiz-adv-x="1437" 
d="M1315 823h-1192v189h1192v-189zM1315 346h-1192v189h1192v-189z" />
    <glyph glyph-name="greater" unicode="&#x3e;" horiz-adv-x="1437" 
d="M1206 762v-166l-196 -102q-357 -185 -693 -316l-61 133l680 367l-680 366l61 134q336 -129 693 -314z" />
    <glyph glyph-name="question" unicode="?" horiz-adv-x="1265" 
d="M629 1458q233 0 369.5 -99.5t136.5 -271.5q0 -133 -67 -220.5t-216 -174.5q-95 -54 -130.5 -110.5t-35.5 -143.5v-65h-160q-47 99 -47 213q0 162 170 252q111 60 165 112.5t54 114.5q0 83 -66.5 128.5t-185.5 45.5q-117 0 -179.5 -49.5t-71.5 -136.5h-248
q11 180 144 292.5t368 112.5zM479 0v246h266v-246h-266z" />
    <glyph glyph-name="at" unicode="@" horiz-adv-x="2289" 
d="M614 555q0 205 149 345t386 140q241 0 360 -121.5t119 -345.5v-172q0 -64 43 -99.5t107 -35.5q221 0 221 336q0 207 -113.5 373t-308.5 258t-432 92q-179 0 -336.5 -55.5t-272 -154.5t-181 -242.5t-66.5 -311.5q0 -167 66 -310.5t180.5 -242.5t272 -155t337.5 -56
q153 0 298.5 38.5t246.5 105.5l73 -105q-125 -82 -285.5 -127t-332.5 -45q-223 0 -411 70t-315 191t-198 285t-71 351t70.5 351t197.5 285t315 191t412 70q220 0 407.5 -67.5t315 -183.5t199 -272.5t71.5 -332.5q0 -104 -23 -190.5t-70.5 -155t-127.5 -107t-186 -38.5
q-208 0 -291 127q-65 -63 -172 -101.5t-201 -38.5q-221 0 -337 126t-116 331zM1114 287q177 0 297 114v156q0 137 -63 208t-207 71q-129 0 -219.5 -81.5t-90.5 -199.5q0 -136 62.5 -202t220.5 -66z" />
    <glyph glyph-name="A" unicode="A" horiz-adv-x="1638" 
d="M981 1434l633 -1434h-291l-137 332h-731l-138 -332h-290l630 1434h324zM819 1217l-282 -676h565z" />
    <glyph glyph-name="B" unicode="B" horiz-adv-x="1495" 
d="M170 0v1434h596q274 0 421.5 -104.5t147.5 -280.5q0 -104 -61 -184t-168 -109q148 -29 230.5 -120t82.5 -220q0 -196 -155.5 -306t-460.5 -110h-633zM1155 422q0 217 -385 217h-340v-436h340q385 0 385 219zM1083 1038q0 191 -344 191h-309v-389h309q166 0 255 52t89 146
z" />
    <glyph glyph-name="C" unicode="C" horiz-adv-x="1648" 
d="M86 717q0 333 217 537t576 204q149 0 273.5 -40t210 -110.5t139.5 -163.5t73 -202h-266q-29 135 -145.5 216t-284.5 81q-111 0 -206 -34.5t-166.5 -98.5t-112 -164.5t-40.5 -224.5q0 -166 72.5 -286.5t191 -179t267.5 -58.5q329 0 506 245l161 -90q-116 -186 -279 -279.5
t-388 -93.5q-238 0 -419.5 93t-280.5 261.5t-99 387.5z" />
    <glyph glyph-name="D" unicode="D" horiz-adv-x="1640" 
d="M434 1219v-1006h295q262 0 408.5 130t146.5 374q0 243 -147 372.5t-408 129.5h-295zM1550 717q0 -330 -214.5 -523.5t-590.5 -193.5h-575v1434h575q375 0 590 -194.5t215 -522.5z" />
    <glyph glyph-name="E" unicode="E" horiz-adv-x="1343" 
d="M170 0v1434h1069v-211h-805v-381h719v-209h-719v-424h828v-209h-1092z" />
    <glyph glyph-name="F" unicode="F" horiz-adv-x="1269" 
d="M170 0v1434h1069v-211h-805v-420h719v-211h-719v-592h-264z" />
    <glyph glyph-name="G" unicode="G" horiz-adv-x="1691" 
d="M86 717q0 219 96 387.5t270.5 261t401.5 92.5q283 0 470.5 -140.5t238.5 -367.5h-265q-42 137 -163.5 213t-280.5 76q-102 0 -192 -34.5t-159 -98.5t-109 -164.5t-40 -224.5q0 -163 72 -283.5t191.5 -180.5t267.5 -60q192 0 317 102t125 262h-432v197h686v-119
q0 -163 -52.5 -290.5t-147 -207.5t-220 -121t-276.5 -41q-176 0 -325 55t-253 152.5t-162.5 235t-58.5 299.5z" />
    <glyph glyph-name="H" unicode="H" horiz-adv-x="1687" 
d="M170 0v1434h264v-570h819v570h263v-1434h-263v651h-819v-651h-264z" />
    <glyph glyph-name="I" unicode="I" horiz-adv-x="626" 
d="M182 1434h264v-1434h-264v1434z" />
    <glyph glyph-name="J" unicode="J" horiz-adv-x="1376" 
d="M621 193q158 0 240.5 82t82.5 225v934h262v-928q0 -246 -146.5 -388.5t-416.5 -142.5q-167 0 -306 86t-231 246l156 90q146 -204 359 -204z" />
    <glyph glyph-name="K" unicode="K" horiz-adv-x="1505" 
d="M1432 1434l-553 -590l626 -844h-319l-477 664l-275 -293v-371h-264v1434h264v-721l682 721h316z" />
    <glyph glyph-name="L" unicode="L" horiz-adv-x="1269" 
d="M170 0v1434h264v-1221h807v-213h-1071z" />
    <glyph glyph-name="M" unicode="M" horiz-adv-x="2048" 
d="M1100 260h-154l-524 746v-1006h-252v1434h236l618 -893l616 893h236v-1434h-252v1006z" />
    <glyph glyph-name="N" unicode="N" horiz-adv-x="1693" 
d="M170 0v1434h229l871 -1035v1035h252v-1434h-230l-870 1032v-1032h-252z" />
    <glyph glyph-name="O" unicode="O" horiz-adv-x="1714" 
d="M1628 717q0 -158 -53 -293.5t-149.5 -235t-243 -156.5t-324.5 -57q-179 0 -325.5 57t-243.5 156.5t-150 235t-53 293.5q0 157 53 292t150 235t243.5 157t325.5 57q178 0 324.5 -57t243 -157t149.5 -235t53 -292zM354 717q0 -241 136.5 -382.5t367.5 -141.5
q229 0 365.5 141.5t136.5 382.5t-136 381.5t-366 140.5q-231 0 -367.5 -140.5t-136.5 -381.5z" />
    <glyph glyph-name="P" unicode="P" horiz-adv-x="1429" 
d="M1366 973q0 -225 -170 -342t-477 -117h-285v-514h-264v1434h549q307 0 477 -117t170 -344zM1098 973q0 129 -98 190.5t-298 61.5h-268v-502h268q200 0 298 61t98 189z" />
    <glyph glyph-name="Q" unicode="Q" horiz-adv-x="1714" 
d="M1628 717q0 -300 -180 -502l215 -192l-166 -160l-231 209q-180 -97 -408 -97q-179 0 -325.5 57t-243.5 156.5t-150 235t-53 293.5q0 157 53 292t150 235t243.5 157t325.5 57q178 0 324.5 -57t243 -157t149.5 -235t53 -292zM354 717q0 -241 136.5 -382.5t367.5 -141.5
q130 0 221 45l-231 211l166 159l248 -223q98 135 98 332q0 241 -136 381.5t-366 140.5q-231 0 -367.5 -140.5t-136.5 -381.5z" />
    <glyph glyph-name="R" unicode="R" horiz-adv-x="1519" 
d="M1384 981q0 -152 -94.5 -261.5t-257.5 -154.5l465 -565h-303l-420 530h-340v-530h-264v1434h580q295 0 464.5 -120t169.5 -333zM1120 981q0 116 -95.5 181t-281.5 65h-309v-490h309q186 0 281.5 64t95.5 180z" />
    <glyph glyph-name="S" unicode="S" horiz-adv-x="1425" 
d="M727 188q162 0 254 51.5t92 135.5q0 96 -87 147.5t-343 108.5q-268 60 -387 172t-119 268q0 173 145.5 280t399.5 107q282 0 432 -115t182 -321h-270q-14 105 -96.5 164t-227.5 59q-146 0 -221 -45.5t-75 -122.5q0 -76 87 -135.5t281 -107.5q152 -37 252 -74.5t174.5 -89
t107.5 -119.5t33 -160q0 -188 -162 -302t-444 -114q-385 0 -639 320l135 100q204 -207 496 -207z" />
    <glyph glyph-name="T" unicode="T" horiz-adv-x="1351" 
d="M545 0v1219h-516v215h1294v-215h-516v-1219h-262z" />
    <glyph glyph-name="U" unicode="U" horiz-adv-x="1720" 
d="M860 -25q-123 0 -228.5 23.5t-190.5 72t-145.5 118.5t-93 166.5t-32.5 213.5v865h264v-865q0 -376 426 -376t426 376v865h262v-865q0 -290 -183 -442t-505 -152z" />
    <glyph glyph-name="V" unicode="V" horiz-adv-x="1638" 
d="M981 0h-324l-630 1434h286l506 -1168l508 1168h287z" />
    <glyph glyph-name="W" unicode="W" horiz-adv-x="2416" 
d="M1065 1434h285l354 -1147l405 1147h281l-508 -1434h-338l-336 1110l-336 -1110h-340l-505 1434h278l406 -1147z" />
    <glyph glyph-name="X" unicode="X" horiz-adv-x="1488" 
d="M1477 0h-308l-426 559l-424 -559h-307l559 743l-516 691h307l381 -504l383 504h308l-519 -691z" />
    <glyph glyph-name="Y" unicode="Y" horiz-adv-x="1482" 
d="M1174 1434h296l-598 -869v-565h-264v565l-596 869h295l434 -650z" />
    <glyph glyph-name="Z" unicode="Z" horiz-adv-x="1343" 
d="M57 0v207l873 1012h-826v215h1158v-209l-873 -1012h897v-213h-1229z" />
    <glyph glyph-name="bracketleft" unicode="[" horiz-adv-x="948" 
d="M264 -266v1802h656v-178h-426v-1448h426v-176h-656z" />
    <glyph glyph-name="backslash" unicode="\" horiz-adv-x="1193" 
d="M1024 -256l-1040 1712l186 100l1040 -1712z" />
    <glyph glyph-name="bracketright" unicode="]" horiz-adv-x="948" 
d="M684 1536v-1802h-655v176h426v1448h-426v178h655z" />
    <glyph glyph-name="asciicircum" unicode="^" horiz-adv-x="1462" 
d="M635 1438h190l131 -164q176 -222 301 -457l-149 -82l-379 439l-377 -439l-149 82q115 219 301 457z" />
    <glyph glyph-name="underscore" unicode="_" horiz-adv-x="1150" 
d="M-18 -348v139h1187v-139h-1187z" />
    <glyph glyph-name="grave" unicode="`" horiz-adv-x="892" 
d="M311 1315l-110 74l155 133l332 -283l-84 -84q-116 40 -293 160z" />
    <glyph glyph-name="a" unicode="a" horiz-adv-x="1304" 
d="M926 565v101q0 221 -287 221q-77 0 -153.5 -37.5t-90.5 -91.5h-248q30 148 153.5 237.5t348.5 89.5q119 0 209.5 -22t149 -60.5t95 -97.5t51.5 -126.5t15 -153.5v-406q0 -67 86 -67h52v-164q-34 -11 -105 -11q-179 0 -241 140q-86 -71 -199 -106.5t-232 -35.5
q-200 0 -328 93.5t-128 244.5t127.5 240.5t328.5 89.5q240 0 396 -78zM926 268v129q-117 68 -320 68q-131 0 -204.5 -38.5t-73.5 -113.5q0 -74 74 -112.5t204 -38.5q90 0 175 29t145 77z" />
    <glyph glyph-name="b" unicode="b" horiz-adv-x="1417" 
d="M1329 530q0 -258 -139.5 -406.5t-390.5 -148.5q-107 0 -228.5 39t-193.5 99l-41 -113h-191v1495h250v-537q72 57 185 92t219 35q251 0 390.5 -148.5t139.5 -406.5zM725 887q-90 0 -182.5 -30.5t-147.5 -82.5v-489q56 -51 148.5 -82t181.5 -31q177 0 263.5 93t86.5 265
q0 171 -86.5 264t-263.5 93z" />
    <glyph glyph-name="c" unicode="c" horiz-adv-x="1263" 
d="M76 530q0 244 158 399.5t419 155.5q236 0 382 -112.5t173 -290.5h-243q-19 91 -97.5 148t-195.5 57q-161 0 -251.5 -96.5t-90.5 -260.5q0 -166 99.5 -262t279.5 -96q204 0 344 178l141 -88q-86 -139 -213.5 -213t-290.5 -74q-279 0 -446.5 155t-167.5 400z" />
    <glyph glyph-name="d" unicode="d" horiz-adv-x="1417" 
d="M86 530q0 257 140.5 406t391.5 149q112 0 220.5 -34t183.5 -93v537h248v-1495h-189l-43 111q-75 -60 -191.5 -98t-228.5 -38q-251 0 -391.5 149t-140.5 406zM692 887q-177 0 -264.5 -93.5t-87.5 -263.5q0 -172 87.5 -265t264.5 -93q88 0 180.5 31t149.5 82v489
q-57 52 -149 82.5t-181 30.5z" />
    <glyph glyph-name="e" unicode="e" horiz-adv-x="1347" 
d="M1077 317l125 -90q-185 -252 -495 -252q-135 0 -252 41t-200.5 114t-131 176.5t-47.5 223.5q0 243 166 399t434 156q265 0 430.5 -156.5t165.5 -404.5q0 -57 -2 -80h-940q19 -123 124.5 -197.5t266.5 -74.5q103 0 197.5 39t158.5 106zM676 887q-145 0 -237 -69.5
t-111 -192.5h694q-10 120 -107 191t-239 71z" />
    <glyph glyph-name="f" unicode="f" horiz-adv-x="837" 
d="M668 1495q98 0 153 -6v-191q-49 5 -108 5q-125 0 -174.5 -39t-49.5 -123v-80h308v-195h-308v-866h-247v866h-226v195h226v92q0 177 102.5 259.5t323.5 82.5z" />
    <glyph glyph-name="g" unicode="g" horiz-adv-x="1417" 
d="M1038 944l43 117h189v-1016q0 -245 -151 -374.5t-433 -129.5q-296 0 -524 228l108 106q184 -147 404 -147q162 0 255 71.5t93 212.5v92q-74 -56 -186 -90t-218 -34q-251 0 -391.5 148t-140.5 404t140.5 404.5t391.5 148.5q110 0 229 -38t191 -103zM692 176q88 0 180.5 31
t149.5 82v485q-57 52 -149 82.5t-181 30.5q-177 0 -264.5 -93t-87.5 -262q0 -170 87.5 -263t264.5 -93z" />
    <glyph glyph-name="h" unicode="h" horiz-adv-x="1411" 
d="M758 887q-108 0 -206.5 -42t-156.5 -100v-745h-250v1495h250v-557q78 64 199.5 105.5t249.5 41.5q196 0 313 -103.5t117 -293.5v-688h-250v651q0 109 -69.5 172.5t-196.5 63.5z" />
    <glyph glyph-name="i" unicode="i" horiz-adv-x="567" 
d="M160 0v1061h248v-1061h-248zM160 1257v226h248v-226h-248z" />
    <glyph glyph-name="j" unicode="j" horiz-adv-x="567" 
d="M160 1257v226h248v-226h-248zM92 -479l-135 119q121 98 162 182.5t41 222.5v1016h248v-985q0 -211 -70 -332t-246 -223z" />
    <glyph glyph-name="k" unicode="k" horiz-adv-x="1282" 
d="M1229 1061l-434 -412l497 -649h-286l-371 500l-240 -226v-274h-250v1495h250v-934l525 500h309z" />
    <glyph glyph-name="l" unicode="l" horiz-adv-x="565" 
d="M158 0v1495h250v-1495h-250z" />
    <glyph glyph-name="m" unicode="m" horiz-adv-x="2127" 
d="M395 766v-766h-250v1061h191l43 -123q79 65 198.5 106t227.5 41q235 0 332 -157q90 70 209 113.5t251 43.5q189 0 291.5 -101.5t102.5 -291.5v-692h-248v653q0 117 -55.5 175.5t-182.5 58.5q-89 0 -177 -37t-138 -94q4 -31 4 -94v-662h-248v653q0 118 -53.5 176
t-183.5 58q-89 0 -175.5 -34t-138.5 -87z" />
    <glyph glyph-name="n" unicode="n" horiz-adv-x="1411" 
d="M756 887q-102 0 -198 -42t-163 -100v-745h-250v1061h189l43 -137q84 70 207 115.5t256 45.5q198 0 316 -103.5t118 -293.5v-688h-250v651q0 114 -68 175t-200 61z" />
    <glyph glyph-name="o" unicode="o" horiz-adv-x="1376" 
d="M1300 530q0 -246 -167.5 -400.5t-444.5 -154.5q-278 0 -445 154.5t-167 400.5q0 245 167 400t445 155q277 0 444.5 -155.5t167.5 -399.5zM1047 530q0 166 -95.5 261.5t-263.5 95.5q-169 0 -263.5 -95t-94.5 -262q0 -168 94 -263t264 -95q168 0 263.5 95t95.5 263z" />
    <glyph glyph-name="p" unicode="p" horiz-adv-x="1417" 
d="M1329 530q0 -258 -139.5 -406.5t-390.5 -148.5q-106 0 -219 34.5t-185 90.5v-534h-250v1495h191l43 -117q71 64 191 102.5t229 38.5q251 0 390.5 -148.5t139.5 -406.5zM725 172q177 0 263.5 93t86.5 265q0 171 -86.5 264t-263.5 93q-90 0 -182.5 -30.5t-147.5 -82.5v-489
q56 -51 148.5 -82t181.5 -31z" />
    <glyph glyph-name="q" unicode="q" horiz-adv-x="1417" 
d="M88 530q0 257 140 406t390 149q109 0 229 -38.5t191 -102.5l43 117h191v-1495h-250v534q-72 -56 -185 -90.5t-219 -34.5q-250 0 -390 149t-140 406zM692 172q89 0 181.5 31t148.5 82v489q-55 52 -147.5 82.5t-182.5 30.5q-177 0 -263.5 -93t-86.5 -264q0 -172 86.5 -265
t263.5 -93z" />
    <glyph glyph-name="r" unicode="r" horiz-adv-x="876" 
d="M860 1083v-200q-29 2 -82 2q-119 0 -223 -44t-160 -116v-725h-250v1061h189l43 -143q63 77 181 122t243 45q7 0 32 -1t27 -1z" />
    <glyph glyph-name="s" unicode="s" horiz-adv-x="1181" 
d="M584 895q-94 0 -151.5 -25.5t-57.5 -70.5q0 -49 68.5 -89t252.5 -83q207 -51 307.5 -129.5t100.5 -206.5q0 -142 -124 -229t-359 -87q-318 0 -543 252l108 95q183 -156 412 -156q121 0 186.5 34t65.5 79q0 54 -67 89.5t-240 77.5q-225 56 -323.5 138.5t-98.5 206.5
q0 130 118.5 212t340.5 82q201 0 328 -84.5t165 -242.5h-244q-45 137 -245 137z" />
    <glyph glyph-name="t" unicode="t" horiz-adv-x="843" 
d="M586 -25q-346 0 -346 379v512h-224v156l224 39v258l247 53v-311h308v-195h-308v-520q0 -98 48 -136t174 -38h86v-162q-84 -35 -209 -35z" />
    <glyph glyph-name="u" unicode="u" horiz-adv-x="1396" 
d="M698 -25q-263 0 -413 119t-150 352v615h248v-617q0 -133 87 -202.5t228 -69.5t227.5 69.5t86.5 202.5v617h250v-615q0 -233 -151 -352t-413 -119z" />
    <glyph glyph-name="v" unicode="v" horiz-adv-x="1277" 
d="M780 0h-282l-484 1061h269l356 -832l356 832h269z" />
    <glyph glyph-name="w" unicode="w" horiz-adv-x="1939" 
d="M281 1061l290 -785l287 785h221l287 -787l291 787h268l-420 -1061h-258l-278 756l-279 -756h-258l-418 1061h267z" />
    <glyph glyph-name="x" unicode="x" horiz-adv-x="1224" 
d="M45 1061h277l290 -365l289 365h279l-398 -508l441 -553h-281l-330 410l-329 -410h-281l440 553z" />
    <glyph glyph-name="y" unicode="y" horiz-adv-x="1265" 
d="M207 -530l-70 151q156 57 234 130t135 206l22 53l-514 1051h260l371 -770l350 770h256l-510 -1139q-89 -200 -209.5 -303.5t-324.5 -148.5z" />
    <glyph glyph-name="z" unicode="z" horiz-adv-x="1093" 
d="M41 0v188l666 680h-627v193h948v-191l-668 -677h693v-193h-1012z" />
    <glyph glyph-name="braceleft" unicode="{" horiz-adv-x="905" 
d="M127 723q108 3 176 60t68 147v215q0 88 22 154.5t57.5 106t87 64t103 33t113.5 8.5l53 -141l-105 -39q-53 -20 -77.5 -53.5t-24.5 -87.5v-211q0 -157 -49 -235.5t-174 -110.5q119 -29 171 -102.5t52 -206.5v-246q0 -54 25 -87t77 -52l105 -39l-53 -144q-77 0 -142 16.5
t-121 52.5t-88 103.5t-32 161.5v248q0 92 -68 149.5t-176 57.5v178z" />
    <glyph glyph-name="bar" unicode="|" horiz-adv-x="661" 
d="M242 -410v1985h178v-1985h-178z" />
    <glyph glyph-name="braceright" unicode="}" horiz-adv-x="905" 
d="M535 1178v-248q0 -90 67 -147t176 -60v-178q-107 0 -175 -57.5t-68 -149.5v-215q0 -88 -22 -154.5t-57 -106t-86.5 -64t-103 -33.5t-114.5 -9l-54 144l105 39q52 19 77 52t25 87v211q0 159 47.5 235t175.5 109q-125 32 -174 110.5t-49 235.5v211q0 53 -25 86.5t-77 54.5
l-105 39l54 141q61 0 114 -9.5t103.5 -33t86.5 -60.5t57.5 -96t21.5 -134z" />
    <glyph glyph-name="asciitilde" unicode="~" horiz-adv-x="1437" 
d="M1151 817q29 -3 203 -29q-25 -135 -123 -221t-234 -86q-132 0 -262 68l-78 39q-108 53 -188 53q-138 0 -184 -127q-29 3 -203 29q27 136 123.5 221.5t232.5 85.5q120 0 262 -68l80 -39q57 -28 96.5 -40.5t90.5 -12.5q141 0 184 127z" />
    <glyph glyph-name="uni00A0" unicode="&#xa0;" horiz-adv-x="737" 
 />
    <glyph glyph-name="exclamdown" unicode="&#xa1;" horiz-adv-x="661" 
d="M473 -371h-285v359l50 700h186l49 -700v-359zM199 815v246h266v-246h-266z" />
    <glyph glyph-name="cent" unicode="&#xa2;" horiz-adv-x="1263" 
d="M76 530q0 156 67.5 280t194.5 197t293 78v177h123v-183q193 -24 313.5 -132.5t144.5 -264.5h-243q-15 72 -72 124t-143 71v-703q184 21 303 176l141 -88q-155 -258 -444 -285v-178h-123v178q-254 19 -404.5 170.5t-150.5 382.5zM330 530q0 -147 78 -239.5t223 -112.5v707
q-143 -12 -222 -106.5t-79 -248.5z" />
    <glyph glyph-name="sterling" unicode="&#xa3;" horiz-adv-x="1394" 
d="M772 1458q222 0 359.5 -112t152.5 -297h-260q-11 88 -75 139t-171 51q-250 0 -250 -225v-207h486v-133h-486v-146q0 -105 -36.5 -187t-102.5 -128h952v-213h-1265v203q190 114 190 295v176h-190v133h190v211q0 218 132 329t374 111z" />
    <glyph glyph-name="currency" unicode="&#xa4;" horiz-adv-x="1687" 
d="M1366 680q0 -143 -63 -231l221 -185l-168 -145l-211 176q-60 -30 -142 -47t-159 -17q-78 0 -160.5 17t-142.5 47l-209 -176l-170 145l221 185q-61 94 -61 231q0 141 63 229l-223 187l170 145l209 -178q60 32 142.5 49.5t160.5 17.5q77 0 159 -18t142 -49l211 178
l168 -145l-221 -187q63 -92 63 -229zM1151 680q0 117 -85 188.5t-222 71.5q-138 0 -222.5 -71.5t-84.5 -188.5t84.5 -187.5t222.5 -70.5q137 0 222 71t85 187z" />
    <glyph glyph-name="yen" unicode="&#xa5;" horiz-adv-x="1482" 
d="M1174 1434h296l-516 -748h408v-125h-490v-127h490v-123h-490v-311h-264v311h-489v123h489v127h-489v125h405l-512 748h295l434 -650z" />
    <glyph glyph-name="brokenbar" unicode="&#xa6;" horiz-adv-x="661" 
d="M242 459h178v-668h-178v668zM242 1413h178v-670h-178v670z" />
    <glyph glyph-name="section" unicode="&#xa7;" horiz-adv-x="1175" 
d="M590 1276q-93 0 -149 -34.5t-56 -88.5q0 -50 71.5 -87.5t235.5 -78.5q196 -49 282.5 -127.5t86.5 -200.5q0 -90 -59 -161t-156 -107q97 -39 158 -109t61 -159q0 -147 -123 -237.5t-354 -90.5q-266 0 -482 219l115 99q166 -136 352 -136q111 0 172.5 40t61.5 94
q0 56 -59 94t-211 71q-204 43 -304 125t-100 211q0 97 57.5 168t157.5 107q-103 40 -161 107.5t-58 160.5q0 135 123.5 219t331.5 84q197 0 317.5 -88t153.5 -248h-242q-14 67 -72.5 110.5t-150.5 43.5zM598 465q98 19 158.5 65.5t60.5 108.5q0 67 -55 109.5t-168 64.5
q-98 -18 -158.5 -64.5t-60.5 -109.5q0 -67 54.5 -109.5t168.5 -64.5z" />
    <glyph glyph-name="dieresis" unicode="&#xa8;" horiz-adv-x="892" 
d="M90 1210v224h213v-224h-213zM590 1210v224h211v-224h-211z" />
    <glyph glyph-name="copyright" unicode="&#xa9;" horiz-adv-x="1951" 
d="M106 717q0 151 69 288.5t185.5 236.5t277 157.5t337.5 58.5q236 0 436 -99t317 -269.5t117 -372.5q0 -151 -69 -288.5t-186 -237t-278 -158t-337 -58.5t-337 58.5t-277.5 158t-185.5 237t-69 288.5zM1747 717q0 130 -61 247.5t-164 202.5t-246 135t-301 50t-301 -50
t-246 -135t-164 -202.5t-61 -247.5t61 -247.5t164 -202.5t246 -135t301 -50t301 50t246 135t164 202.5t61 247.5zM508 715q0 192 127 316t332 124q188 0 306.5 -92.5t139.5 -239.5h-184q-15 78 -82.5 126t-163.5 48q-131 0 -208 -76t-77 -206q0 -132 82.5 -209.5
t227.5 -77.5q168 0 274 135l109 -61q-144 -232 -400 -232q-218 0 -350.5 125t-132.5 320z" />
    <glyph glyph-name="ordfeminine" unicode="&#xaa;" horiz-adv-x="1030" 
d="M707 1083v56q0 78 -48.5 119.5t-162.5 41.5q-79 0 -129 -26t-60 -60h-186q22 104 118.5 170t264.5 66q211 0 303 -87.5t92 -244.5v-293q0 -21 20 -32t50 -11h35v-116q-32 -7 -74 -7q-55 0 -111.5 21.5t-85.5 75.5q-60 -49 -147.5 -73t-175.5 -24q-142 0 -235 70.5
t-93 177.5q0 108 90.5 176t237.5 68q84 0 164.5 -18t132.5 -50zM707 870v97q-85 49 -242 49q-97 0 -147 -29t-50 -80q0 -47 50 -75.5t147 -28.5q154 0 242 67z" />
    <glyph glyph-name="guillemotleft" unicode="&#xab;" horiz-adv-x="1390" 
d="M100 586v104l131 80q193 118 408 201l63 -99l-372 -233l372 -236l-63 -98q-196 76 -408 201zM674 586v104l131 80q213 129 407 201l62 -99l-373 -233l373 -236l-62 -98q-194 72 -407 201z" />
    <glyph glyph-name="logicalnot" unicode="&#xac;" horiz-adv-x="1437" 
d="M111 725v190h1192v-587h-228v397h-964z" />
    <glyph glyph-name="uni00AD" unicode="&#xad;" horiz-adv-x="917" 
d="M795 575h-672v207h672v-207z" />
    <glyph glyph-name="registered" unicode="&#xae;" horiz-adv-x="1951" 
d="M106 717q0 151 69 288.5t185.5 236.5t277 157.5t337.5 58.5q236 0 436 -99t317 -269.5t117 -372.5q0 -151 -69 -288.5t-186 -237t-278 -158t-337 -58.5t-337 58.5t-277.5 158t-185.5 237t-69 288.5zM203 717q0 -130 61 -247.5t164 -202.5t246 -135t301 -50t301 50
t246 135t164 202.5t61 247.5t-61 247.5t-164 202.5t-246 135t-301 50t-301 -50t-246 -135t-164 -202.5t-61 -247.5zM1360 885q0 -87 -55.5 -149t-149.5 -87l266 -360h-200l-232 336h-198v-336h-168v854h364q173 0 273 -67.5t100 -190.5zM1190 885q0 62 -51 92.5t-164 30.5
h-184v-244h184q215 0 215 121z" />
    <glyph glyph-name="macron" unicode="&#xaf;" horiz-adv-x="892" 
d="M98 1243v164h695v-164h-695z" />
    <glyph glyph-name="degree" unicode="&#xb0;" horiz-adv-x="905" 
d="M135 1180q0 116 92.5 197t225.5 81q132 0 224.5 -81t92.5 -197q0 -117 -92.5 -198t-224.5 -81q-133 0 -225.5 81t-92.5 198zM299 1180q0 -59 41 -96t113 -37t112.5 37t40.5 96q0 58 -41 94.5t-112 36.5q-72 0 -113 -36.5t-41 -94.5z" />
    <glyph glyph-name="plusminus" unicode="&#xb1;" horiz-adv-x="1437" 
d="M1315 0h-1192v188h1192v-188zM604 279v401h-481v190h481v402h230v-402h481v-190h-481v-401h-230z" />
    <glyph glyph-name="twosuperior" unicode="&#xb2;" 
d="M610 1161q0 119 -176 119q-160 0 -176 -162h-170q9 156 105.5 244t261.5 88q161 0 257.5 -74.5t96.5 -208.5q0 -210 -406 -518h412v-164h-713v148q104 73 182.5 134.5t158.5 134.5t123.5 139t43.5 120z" />
    <glyph glyph-name="threesuperior" unicode="&#xb3;" 
d="M612 1178q0 51 -45 79.5t-125 28.5t-133 -31t-57 -88h-164q9 127 111 205t252 78q156 0 256 -68.5t100 -185.5q0 -75 -47 -133.5t-115 -83.5q87 -27 140 -87t53 -142q0 -122 -103 -201.5t-282 -79.5q-222 0 -373 182l94 78q104 -98 266 -98q94 0 149.5 37.5t55.5 87.5
q0 74 -66.5 109.5t-183.5 35.5h-94v152h92q100 0 159.5 33.5t59.5 91.5z" />
    <glyph glyph-name="acute" unicode="&#xb4;" horiz-adv-x="892" 
d="M684 1395l-106 -82q-143 -110 -295 -152l-80 78l334 283z" />
    <glyph glyph-name="mu" unicode="&#xb5;" horiz-adv-x="1419" 
d="M662 174q107 0 204.5 42t157.5 99v746h250v-1061h-189l-43 137q-78 -67 -208.5 -113.5t-258.5 -46.5q-100 0 -180 25v-436h-250v1495h250v-658q0 -110 68 -169.5t199 -59.5z" />
    <glyph glyph-name="paragraph" unicode="&#xb6;" horiz-adv-x="1390" 
d="M672 545h-47q-152 0 -273.5 51.5t-194.5 154t-73 240.5q0 205 147 324t379 119h582v-1702h-182v1525h-148v-1525h-190v813z" />
    <glyph glyph-name="periodcentered" unicode="&#xb7;" horiz-adv-x="675" 
d="M209 559v250h258v-250h-258z" />
    <glyph glyph-name="cedilla" unicode="&#xb8;" horiz-adv-x="892" 
d="M377 -344q61 0 98 19.5t37 54.5q0 43 -57.5 67.5t-157.5 26.5l-16 16l92 160h176l-55 -92q86 -18 141 -69.5t55 -121.5q0 -85 -75.5 -144.5t-217.5 -59.5q-130 0 -229 96l74 76q44 -29 135 -29z" />
    <glyph glyph-name="onesuperior" unicode="&#xb9;" 
d="M449 1227l-199 -119l-96 127l311 201h172v-951h-188v742z" />
    <glyph glyph-name="ordmasculine" unicode="&#xba;" horiz-adv-x="1030" 
d="M958 1055q0 -173 -123 -284.5t-321 -111.5q-197 0 -319.5 111.5t-122.5 284.5q0 172 123 283.5t319 111.5q198 0 321 -111.5t123 -283.5zM268 1055q0 -112 66.5 -176t179.5 -64q115 0 181.5 64t66.5 176q0 110 -67 173.5t-181 63.5q-113 0 -179.5 -63.5t-66.5 -173.5z
" />
    <glyph glyph-name="guillemotright" unicode="&#xbb;" horiz-adv-x="1390" 
d="M1292 690v-104l-131 -80q-213 -129 -407 -201l-64 98l373 236l-373 233l64 99q194 -72 407 -201zM721 690v-104l-133 -80q-213 -128 -406 -201l-63 98l373 236l-373 233l63 99q193 -73 406 -201z" />
    <glyph glyph-name="onequarter" unicode="&#xbc;" horiz-adv-x="2414" 
d="M1591 1466l138 -88l-912 -1411l-137 86zM449 1227l-199 -119l-96 127l311 201h172v-951h-188v742zM1479 193v159l510 596h196v-590h135v-165h-135v-193h-184v193h-522zM2001 717l-307 -359h307v359z" />
    <glyph glyph-name="onehalf" unicode="&#xbd;" horiz-adv-x="2414" 
d="M1591 1466l138 -88l-912 -1411l-137 86zM449 1227l-199 -119l-96 127l311 201h172v-951h-188v742zM2060 676q0 119 -176 119q-160 0 -176 -162h-170q9 156 105.5 244t261.5 88q161 0 257.5 -74.5t96.5 -208.5q0 -210 -406 -518h412v-164h-713v147q81 57 145.5 105.5
t135.5 109.5t118 112t78 105t31 97z" />
    <glyph glyph-name="threequarters" unicode="&#xbe;" horiz-adv-x="2414" 
d="M1591 1466l138 -88l-912 -1411l-137 86zM1479 193v159l510 596h196v-590h135v-165h-135v-193h-184v193h-522zM2001 717l-307 -359h307v359zM612 1178q0 51 -45 79.5t-125 28.5t-133 -31t-57 -88h-164q9 127 111 205t252 78q156 0 256 -68.5t100 -185.5q0 -75 -47 -133.5
t-115 -83.5q87 -27 140 -87t53 -142q0 -122 -103 -201.5t-282 -79.5q-222 0 -373 182l94 78q104 -98 266 -98q94 0 149.5 37.5t55.5 87.5q0 74 -66.5 109.5t-183.5 35.5h-94v152h92q100 0 159.5 33.5t59.5 91.5z" />
    <glyph glyph-name="questiondown" unicode="&#xbf;" horiz-adv-x="1265" 
d="M653 -397q-234 0 -371 99t-137 271q0 90 34.5 160.5t93.5 123t157 110.5q90 54 128 113t38 143v65h158q49 -106 49 -215q0 -157 -174 -252q-109 -57 -162 -109t-53 -118q0 -82 67.5 -128t184.5 -46q114 0 177.5 50t74.5 138h245q-11 -181 -145 -293t-365 -112zM801 1061
v-246h-264v246h264z" />
    <glyph glyph-name="Agrave" unicode="&#xc0;" horiz-adv-x="1638" 
d="M981 1434l633 -1434h-291l-137 332h-731l-138 -332h-290l630 1434h324zM819 1217l-282 -676h565zM598 1712l-111 74l156 133l332 -283q-13 -12 -26.5 -26t-30.5 -31l-27 -27q-116 40 -293 160z" />
    <glyph glyph-name="Aacute" unicode="&#xc1;" horiz-adv-x="1638" 
d="M981 1434l633 -1434h-291l-137 332h-731l-138 -332h-290l630 1434h324zM819 1217l-282 -676h565zM1143 1792l-107 -82q-141 -109 -295 -151l-79 77l333 283z" />
    <glyph glyph-name="Acircumflex" unicode="&#xc2;" horiz-adv-x="1638" 
d="M981 1434l633 -1434h-291l-137 332h-731l-138 -332h-290l630 1434h324zM819 1217l-282 -676h565zM748 1896h143l76 -67q131 -117 209 -232l-86 -57l-271 193l-272 -193l-84 57q85 128 207 232z" />
    <glyph glyph-name="Atilde" unicode="&#xc3;" horiz-adv-x="1638" 
d="M981 1434l633 -1434h-291l-137 332h-731l-138 -332h-290l630 1434h324zM819 1217l-282 -676h565zM1075 1847l142 -16q-23 -115 -84.5 -176.5t-153.5 -61.5q-51 0 -105.5 26.5t-105.5 52.5t-94 26t-71.5 -23.5t-37.5 -66.5l-141 16q23 116 84.5 177t153.5 61
q39 0 81.5 -16.5t74 -36t72.5 -36t77 -16.5q43 0 71 23.5t37 66.5z" />
    <glyph glyph-name="Adieresis" unicode="&#xc4;" horiz-adv-x="1638" 
d="M981 1434l633 -1434h-291l-137 332h-731l-138 -332h-290l630 1434h324zM819 1217l-282 -676h565zM465 1608v223h213v-223h-213zM965 1608v223h211v-223h-211z" />
    <glyph glyph-name="Aring" unicode="&#xc5;" horiz-adv-x="1638" 
d="M981 1434l633 -1434h-291l-137 332h-731l-138 -332h-290l630 1434h324zM819 1217l-282 -676h565zM719 1726q0 -37 28 -61.5t72 -24.5t72.5 24.5t28.5 61.5q0 38 -28.5 62t-72.5 24t-72 -24t-28 -62zM567 1726q0 92 73 156t179 64t178 -64t72 -156t-72 -155.5t-178 -63.5
t-179 63.5t-73 155.5z" />
    <glyph glyph-name="AE" unicode="&#xc6;" horiz-adv-x="2115" 
d="M516 328l-199 -328h-294l886 1434h1102v-211h-676v-381h590v-209h-590v-424h699v-209h-961v328h-557zM1073 537v688l-436 -688h436z" />
    <glyph glyph-name="Ccedilla" unicode="&#xc7;" horiz-adv-x="1648" 
d="M86 717q0 333 217 537t576 204q149 0 273.5 -40t210 -110.5t139.5 -163.5t73 -202h-266q-29 135 -145.5 216t-284.5 81q-111 0 -206 -34.5t-166.5 -98.5t-112 -164.5t-40.5 -224.5q0 -166 72.5 -286.5t191 -179t267.5 -58.5q329 0 506 245l161 -90q-203 -323 -551 -364
l-40 -76q88 -18 141 -69t53 -122q0 -85 -75 -144.5t-218 -59.5q-136 0 -229 96l80 88q57 -41 131 -41q60 0 97.5 19.5t37.5 54.5q0 42 -58.5 67t-158.5 27l-14 16l77 137q-336 17 -537.5 219.5t-201.5 520.5z" />
    <glyph glyph-name="Egrave" unicode="&#xc8;" horiz-adv-x="1343" 
d="M170 0v1434h1069v-211h-805v-381h719v-209h-719v-424h828v-209h-1092zM518 1712l-110 74l155 133l332 -283q-13 -12 -26.5 -26t-30.5 -31l-27 -27q-116 40 -293 160z" />
    <glyph glyph-name="Eacute" unicode="&#xc9;" horiz-adv-x="1343" 
d="M170 0v1434h1069v-211h-805v-381h719v-209h-719v-424h828v-209h-1092zM999 1792l-106 -82q-141 -109 -295 -151l-80 77l334 283z" />
    <glyph glyph-name="Ecircumflex" unicode="&#xca;" horiz-adv-x="1343" 
d="M170 0v1434h1069v-211h-805v-381h719v-209h-719v-424h828v-209h-1092zM643 1896h143l76 -67q131 -117 209 -232l-86 -57l-270 193l-273 -193l-84 57q85 128 207 232z" />
    <glyph glyph-name="Edieresis" unicode="&#xcb;" horiz-adv-x="1343" 
d="M170 0v1434h1069v-211h-805v-381h719v-209h-719v-424h828v-209h-1092zM358 1608v223h213v-223h-213zM858 1608v223h211v-223h-211z" />
    <glyph glyph-name="Igrave" unicode="&#xcc;" horiz-adv-x="626" 
d="M182 1434h264v-1434h-264v1434zM39 1712l-111 74l156 133l332 -283q-13 -12 -26.5 -26t-30.5 -31l-27 -27q-116 40 -293 160z" />
    <glyph glyph-name="Iacute" unicode="&#xcd;" horiz-adv-x="626" 
d="M182 1434h264v-1434h-264v1434zM690 1792l-106 -82q-141 -109 -295 -151l-80 77l334 283z" />
    <glyph glyph-name="Icircumflex" unicode="&#xce;" horiz-adv-x="626" 
d="M182 1434h264v-1434h-264v1434zM242 1896h143l76 -67q131 -117 209 -232l-86 -57l-271 193l-272 -193l-84 57q85 128 207 232z" />
    <glyph glyph-name="Idieresis" unicode="&#xcf;" horiz-adv-x="626" 
d="M182 1434h264v-1434h-264v1434zM-41 1608v223h213v-223h-213zM459 1608v223h211v-223h-211z" />
    <glyph glyph-name="Eth" unicode="&#xd0;" horiz-adv-x="1640" 
d="M1550 717q0 -330 -214.5 -523.5t-590.5 -193.5h-575v639h-180v156h180v639h575q375 0 590 -194.5t215 -522.5zM801 639h-367v-426h295q262 0 408.5 130t146.5 374q0 243 -147 372.5t-408 129.5h-295v-424h367v-156z" />
    <glyph glyph-name="Ntilde" unicode="&#xd1;" horiz-adv-x="1693" 
d="M170 0v1434h229l871 -1035v1035h252v-1434h-230l-870 1032v-1032h-252zM1100 1847l141 -16q-23 -116 -84 -177t-153 -61q-41 0 -84.5 16.5t-75 36t-72 36t-74.5 16.5q-43 0 -71 -23.5t-37 -66.5l-141 16q23 116 84 177t153 61q39 0 81.5 -16.5t74 -36t72.5 -36t77 -16.5
q43 0 71.5 23.5t37.5 66.5z" />
    <glyph glyph-name="Ograve" unicode="&#xd2;" horiz-adv-x="1714" 
d="M1628 717q0 -158 -53 -293.5t-149.5 -235t-243 -156.5t-324.5 -57q-179 0 -325.5 57t-243.5 156.5t-150 235t-53 293.5q0 157 53 292t150 235t243.5 157t325.5 57q178 0 324.5 -57t243 -157t149.5 -235t53 -292zM354 717q0 -241 136.5 -382.5t367.5 -141.5
q229 0 365.5 141.5t136.5 382.5t-136 381.5t-366 140.5q-231 0 -367.5 -140.5t-136.5 -381.5zM649 1712l-110 74l155 133l332 -283q-13 -12 -26.5 -26t-30.5 -31l-27 -27q-116 40 -293 160z" />
    <glyph glyph-name="Oacute" unicode="&#xd3;" horiz-adv-x="1714" 
d="M1628 717q0 -158 -53 -293.5t-149.5 -235t-243 -156.5t-324.5 -57q-179 0 -325.5 57t-243.5 156.5t-150 235t-53 293.5q0 157 53 292t150 235t243.5 157t325.5 57q178 0 324.5 -57t243 -157t149.5 -235t53 -292zM354 717q0 -241 136.5 -382.5t367.5 -141.5
q229 0 365.5 141.5t136.5 382.5t-136 381.5t-366 140.5q-231 0 -367.5 -140.5t-136.5 -381.5zM1167 1792l-106 -82q-141 -109 -295 -151l-80 77l334 283z" />
    <glyph glyph-name="Ocircumflex" unicode="&#xd4;" horiz-adv-x="1714" 
d="M1628 717q0 -158 -53 -293.5t-149.5 -235t-243 -156.5t-324.5 -57q-179 0 -325.5 57t-243.5 156.5t-150 235t-53 293.5q0 157 53 292t150 235t243.5 157t325.5 57q178 0 324.5 -57t243 -157t149.5 -235t53 -292zM354 717q0 -241 136.5 -382.5t367.5 -141.5
q229 0 365.5 141.5t136.5 382.5t-136 381.5t-366 140.5q-231 0 -367.5 -140.5t-136.5 -381.5zM784 1896h144l76 -67q129 -115 208 -232l-86 -57l-270 193l-272 -193l-84 57q85 128 207 232z" />
    <glyph glyph-name="Otilde" unicode="&#xd5;" horiz-adv-x="1714" 
d="M1628 717q0 -158 -53 -293.5t-149.5 -235t-243 -156.5t-324.5 -57q-179 0 -325.5 57t-243.5 156.5t-150 235t-53 293.5q0 157 53 292t150 235t243.5 157t325.5 57q178 0 324.5 -57t243 -157t149.5 -235t53 -292zM354 717q0 -241 136.5 -382.5t367.5 -141.5
q229 0 365.5 141.5t136.5 382.5t-136 381.5t-366 140.5q-231 0 -367.5 -140.5t-136.5 -381.5zM1112 1847l141 -16q-23 -116 -84 -177t-153 -61q-51 0 -105.5 26.5t-105.5 52.5t-94 26t-71.5 -23.5t-37.5 -66.5l-141 16q23 116 84 177t153 61q39 0 82 -16.5t74.5 -36
t72.5 -36t77 -16.5q43 0 71 23.5t37 66.5z" />
    <glyph glyph-name="Odieresis" unicode="&#xd6;" horiz-adv-x="1714" 
d="M1628 717q0 -158 -53 -293.5t-149.5 -235t-243 -156.5t-324.5 -57q-179 0 -325.5 57t-243.5 156.5t-150 235t-53 293.5q0 157 53 292t150 235t243.5 157t325.5 57q178 0 324.5 -57t243 -157t149.5 -235t53 -292zM354 717q0 -241 136.5 -382.5t367.5 -141.5
q229 0 365.5 141.5t136.5 382.5t-136 381.5t-366 140.5q-231 0 -367.5 -140.5t-136.5 -381.5zM504 1608v223h213v-223h-213zM1004 1608v223h210v-223h-210z" />
    <glyph glyph-name="multiply" unicode="&#xd7;" horiz-adv-x="1437" 
d="M1090 225l-371 320l-371 -320l-147 142l362 313l-362 313l147 140l371 -320l371 320l147 -140l-365 -313l365 -313z" />
    <glyph glyph-name="Oslash" unicode="&#xd8;" horiz-adv-x="1714" 
d="M1628 717q0 -158 -53 -293.5t-149.5 -235t-243 -156.5t-324.5 -57q-267 0 -455 121l-151 -172l-100 86l147 170q-103 100 -158 238t-55 299q0 157 53 292t150 235t243.5 157t325.5 57q260 0 451 -123l153 174l101 -86l-148 -170q103 -100 158 -238t55 -298zM1360 717
q0 214 -111 350l-688 -793q122 -81 297 -81q229 0 365.5 141.5t136.5 382.5zM354 717q0 -212 109 -352l688 792q-121 82 -293 82q-231 0 -367.5 -140.5t-136.5 -381.5z" />
    <glyph glyph-name="Ugrave" unicode="&#xd9;" horiz-adv-x="1720" 
d="M860 -25q-123 0 -228.5 23.5t-190.5 72t-145.5 118.5t-93 166.5t-32.5 213.5v865h264v-865q0 -376 426 -376t426 376v865h262v-865q0 -290 -183 -442t-505 -152zM610 1712l-110 74l155 133l332 -283q-13 -12 -26.5 -26t-30.5 -31l-27 -27q-116 40 -293 160z" />
    <glyph glyph-name="Uacute" unicode="&#xda;" horiz-adv-x="1720" 
d="M860 -25q-123 0 -228.5 23.5t-190.5 72t-145.5 118.5t-93 166.5t-32.5 213.5v865h264v-865q0 -376 426 -376t426 376v865h262v-865q0 -290 -183 -442t-505 -152zM1212 1792l-106 -82q-141 -109 -295 -151l-80 77l334 283z" />
    <glyph glyph-name="Ucircumflex" unicode="&#xdb;" horiz-adv-x="1720" 
d="M860 -25q-123 0 -228.5 23.5t-190.5 72t-145.5 118.5t-93 166.5t-32.5 213.5v865h264v-865q0 -376 426 -376t426 376v865h262v-865q0 -290 -183 -442t-505 -152zM786 1896h144l76 -67q129 -115 208 -232l-86 -57l-270 193l-272 -193l-84 57q85 128 207 232z" />
    <glyph glyph-name="Udieresis" unicode="&#xdc;" horiz-adv-x="1720" 
d="M860 -25q-123 0 -228.5 23.5t-190.5 72t-145.5 118.5t-93 166.5t-32.5 213.5v865h264v-865q0 -376 426 -376t426 376v865h262v-865q0 -290 -183 -442t-505 -152zM506 1608v223h213v-223h-213zM1006 1608v223h211v-223h-211z" />
    <glyph glyph-name="Yacute" unicode="&#xdd;" horiz-adv-x="1482" 
d="M1174 1434h296l-598 -869v-565h-264v565l-596 869h295l434 -650zM1114 1792l-106 -82q-141 -109 -295 -151l-80 77l334 283z" />
    <glyph glyph-name="Thorn" unicode="&#xde;" horiz-adv-x="1429" 
d="M1366 727q0 -225 -172.5 -343t-474.5 -118h-285v-266h-264v1434h264v-248h285q302 0 474.5 -117.5t172.5 -341.5zM1098 727q0 126 -98 185t-298 59h-268v-490h268q200 0 298 59.5t98 186.5z" />
    <glyph glyph-name="germandbls" unicode="&#xdf;" horiz-adv-x="1388" 
d="M674 657v207q117 0 180.5 53.5t63.5 147.5q0 79 -63.5 129.5t-178.5 50.5q-128 0 -191 -62.5t-63 -178.5v-1004h-264v975q0 233 134 358t388 125q221 0 362.5 -111t141.5 -266q0 -115 -59.5 -196.5t-176.5 -120.5q176 -34 281.5 -132.5t105.5 -254.5q0 -194 -121 -298
t-333 -104q-94 0 -183.5 31t-152.5 82l76 137q73 -39 178 -39q125 0 196.5 53t71.5 154q0 122 -107.5 192t-285.5 72z" />
    <glyph glyph-name="agrave" unicode="&#xe0;" horiz-adv-x="1304" 
d="M926 565v101q0 221 -287 221q-77 0 -153.5 -37.5t-90.5 -91.5h-248q30 148 153.5 237.5t348.5 89.5q119 0 209.5 -22t149 -60.5t95 -97.5t51.5 -126.5t15 -153.5v-406q0 -67 86 -67h52v-164q-34 -11 -105 -11q-179 0 -241 140q-86 -71 -199 -106.5t-232 -35.5
q-200 0 -328 93.5t-128 244.5t127.5 240.5t328.5 89.5q240 0 396 -78zM926 268v129q-117 68 -320 68q-131 0 -204.5 -38.5t-73.5 -113.5q0 -74 74 -112.5t204 -38.5q90 0 175 29t145 77zM440 1356l-110 74l155 133l332 -283q-13 -12 -26.5 -26t-30.5 -31l-27 -27
q-116 40 -293 160z" />
    <glyph glyph-name="aacute" unicode="&#xe1;" horiz-adv-x="1304" 
d="M926 565v101q0 221 -287 221q-77 0 -153.5 -37.5t-90.5 -91.5h-248q30 148 153.5 237.5t348.5 89.5q119 0 209.5 -22t149 -60.5t95 -97.5t51.5 -126.5t15 -153.5v-406q0 -67 86 -67h52v-164q-34 -11 -105 -11q-179 0 -241 140q-86 -71 -199 -106.5t-232 -35.5
q-200 0 -328 93.5t-128 244.5t127.5 240.5t328.5 89.5q240 0 396 -78zM926 268v129q-117 68 -320 68q-131 0 -204.5 -38.5t-73.5 -113.5q0 -74 74 -112.5t204 -38.5q90 0 175 29t145 77zM973 1436l-107 -82q-143 -110 -295 -152l-79 78l333 283z" />
    <glyph glyph-name="acircumflex" unicode="&#xe2;" horiz-adv-x="1304" 
d="M926 565v101q0 221 -287 221q-77 0 -153.5 -37.5t-90.5 -91.5h-248q30 148 153.5 237.5t348.5 89.5q119 0 209.5 -22t149 -60.5t95 -97.5t51.5 -126.5t15 -153.5v-406q0 -67 86 -67h52v-164q-34 -11 -105 -11q-179 0 -241 140q-86 -71 -199 -106.5t-232 -35.5
q-200 0 -328 93.5t-128 244.5t127.5 240.5t328.5 89.5q240 0 396 -78zM926 268v129q-117 68 -320 68q-131 0 -204.5 -38.5t-73.5 -113.5q0 -74 74 -112.5t204 -38.5q90 0 175 29t145 77zM592 1540h143l76 -67q131 -117 209 -232l-86 -57l-270 192l-273 -192l-84 57
q85 128 207 232z" />
    <glyph glyph-name="atilde" unicode="&#xe3;" horiz-adv-x="1304" 
d="M926 565v101q0 221 -287 221q-77 0 -153.5 -37.5t-90.5 -91.5h-248q30 148 153.5 237.5t348.5 89.5q119 0 209.5 -22t149 -60.5t95 -97.5t51.5 -126.5t15 -153.5v-406q0 -67 86 -67h52v-164q-34 -11 -105 -11q-179 0 -241 140q-86 -71 -199 -106.5t-232 -35.5
q-200 0 -328 93.5t-128 244.5t127.5 240.5t328.5 89.5q240 0 396 -78zM926 268v129q-117 68 -320 68q-131 0 -204.5 -38.5t-73.5 -113.5q0 -74 74 -112.5t204 -38.5q90 0 175 29t145 77zM909 1491l142 -16q-23 -115 -84.5 -176.5t-153.5 -61.5q-51 0 -105.5 26t-105.5 52
t-94 26t-71.5 -23.5t-37.5 -66.5l-141 17q23 115 84.5 176t153.5 61q49 0 102.5 -26t105.5 -52t97 -26q43 0 71 23.5t37 66.5z" />
    <glyph glyph-name="adieresis" unicode="&#xe4;" horiz-adv-x="1304" 
d="M926 565v101q0 221 -287 221q-77 0 -153.5 -37.5t-90.5 -91.5h-248q30 148 153.5 237.5t348.5 89.5q119 0 209.5 -22t149 -60.5t95 -97.5t51.5 -126.5t15 -153.5v-406q0 -67 86 -67h52v-164q-34 -11 -105 -11q-179 0 -241 140q-86 -71 -199 -106.5t-232 -35.5
q-200 0 -328 93.5t-128 244.5t127.5 240.5t328.5 89.5q240 0 396 -78zM926 268v129q-117 68 -320 68q-131 0 -204.5 -38.5t-73.5 -113.5q0 -74 74 -112.5t204 -38.5q90 0 175 29t145 77zM322 1251v224h213v-224h-213zM821 1251v224h211v-224h-211z" />
    <glyph glyph-name="aring" unicode="&#xe5;" horiz-adv-x="1304" 
d="M926 565v101q0 221 -287 221q-77 0 -153.5 -37.5t-90.5 -91.5h-248q30 148 153.5 237.5t348.5 89.5q119 0 209.5 -22t149 -60.5t95 -97.5t51.5 -126.5t15 -153.5v-406q0 -67 86 -67h52v-164q-34 -11 -105 -11q-179 0 -241 140q-86 -71 -199 -106.5t-232 -35.5
q-200 0 -328 93.5t-128 244.5t127.5 240.5t328.5 89.5q240 0 396 -78zM926 268v129q-117 68 -320 68q-131 0 -204.5 -38.5t-73.5 -113.5q0 -74 74 -112.5t204 -38.5q90 0 175 29t145 77zM567 1370q0 -37 28.5 -61.5t72.5 -24.5t72 24.5t28 61.5q0 38 -28 62t-72 24
t-72.5 -24t-28.5 -62zM416 1370q0 92 73 155.5t179 63.5t178 -63.5t72 -155.5t-72 -155.5t-178 -63.5t-179 63.5t-73 155.5z" />
    <glyph glyph-name="ae" unicode="&#xe6;" horiz-adv-x="2193" 
d="M922 567q0 28 4 74v25q0 221 -287 221q-209 0 -244 -129h-248q30 148 153.5 237.5t348.5 89.5q146 0 259 -38.5t177 -108.5q82 70 196.5 108.5t240.5 38.5q265 0 430.5 -156.5t165.5 -404.5q0 -53 -7 -80h-940q20 -123 126.5 -197.5t267.5 -74.5q219 0 348 135l135 -80
q-185 -252 -498 -252q-144 0 -272 46.5t-215 130.5q-222 -177 -533 -177q-200 0 -328 93.5t-128 244.5t127.5 240.5t328.5 89.5q237 0 392 -76zM973 289q-25 63 -35 98q-125 78 -301 78q-309 0 -309 -152q0 -74 74 -112.5t204 -38.5q110 0 208.5 36t158.5 91zM1522 887
q-146 0 -238.5 -69.5t-112.5 -192.5h695q-10 119 -106.5 190.5t-237.5 71.5z" />
    <glyph glyph-name="ccedilla" unicode="&#xe7;" horiz-adv-x="1263" 
d="M76 530q0 244 158 399.5t419 155.5q236 0 384 -113t175 -290h-243q-19 91 -99 148t-198 57q-161 0 -251.5 -96.5t-90.5 -260.5q0 -166 99.5 -262t279.5 -96q105 0 195 48.5t153 129.5l141 -88q-143 -235 -399 -278l-43 -76q88 -18 141 -69t53 -122q0 -85 -75.5 -144.5
t-217.5 -59.5q-132 0 -231 96l76 76q40 -29 135 -29q61 0 98 19.5t37 54.5q0 43 -57.5 67.5t-157.5 26.5l-14 16l75 140q-248 20 -395 171t-147 379z" />
    <glyph glyph-name="egrave" unicode="&#xe8;" horiz-adv-x="1347" 
d="M1077 317l125 -90q-185 -252 -495 -252q-135 0 -252 41t-200.5 114t-131 176.5t-47.5 223.5q0 243 166 399t434 156q265 0 430.5 -156.5t165.5 -404.5q0 -57 -2 -80h-940q19 -123 124.5 -197.5t266.5 -74.5q103 0 197.5 39t158.5 106zM676 887q-145 0 -237 -69.5
t-111 -192.5h694q-10 120 -107 191t-239 71zM487 1356l-110 74l155 133l332 -283q-13 -12 -26.5 -26t-30.5 -31l-27 -27q-116 40 -293 160z" />
    <glyph glyph-name="eacute" unicode="&#xe9;" horiz-adv-x="1347" 
d="M1077 317l125 -90q-185 -252 -495 -252q-135 0 -252 41t-200.5 114t-131 176.5t-47.5 223.5q0 243 166 399t434 156q265 0 430.5 -156.5t165.5 -404.5q0 -57 -2 -80h-940q19 -123 124.5 -197.5t266.5 -74.5q103 0 197.5 39t158.5 106zM676 887q-145 0 -237 -69.5
t-111 -192.5h694q-10 120 -107 191t-239 71zM991 1436l-106 -82q-143 -110 -295 -152l-80 78l334 283z" />
    <glyph glyph-name="ecircumflex" unicode="&#xea;" horiz-adv-x="1347" 
d="M1077 317l125 -90q-185 -252 -495 -252q-135 0 -252 41t-200.5 114t-131 176.5t-47.5 223.5q0 243 166 399t434 156q265 0 430.5 -156.5t165.5 -404.5q0 -57 -2 -80h-940q19 -123 124.5 -197.5t266.5 -74.5q103 0 197.5 39t158.5 106zM676 887q-145 0 -237 -69.5
t-111 -192.5h694q-10 120 -107 191t-239 71zM598 1540h143l76 -67q131 -117 209 -232l-86 -57l-270 192l-273 -192l-84 57q85 128 207 232z" />
    <glyph glyph-name="edieresis" unicode="&#xeb;" horiz-adv-x="1347" 
d="M1077 317l125 -90q-185 -252 -495 -252q-135 0 -252 41t-200.5 114t-131 176.5t-47.5 223.5q0 243 166 399t434 156q265 0 430.5 -156.5t165.5 -404.5q0 -57 -2 -80h-940q19 -123 124.5 -197.5t266.5 -74.5q103 0 197.5 39t158.5 106zM676 887q-145 0 -237 -69.5
t-111 -192.5h694q-10 120 -107 191t-239 71zM317 1251v224h213v-224h-213zM817 1251v224h211v-224h-211z" />
    <glyph glyph-name="igrave" unicode="&#xec;" horiz-adv-x="567" 
d="M12 1356l-110 74l155 133l332 -283q-13 -12 -26.5 -26t-30.5 -31l-27 -27q-116 40 -293 160zM160 0v1061h248v-1061h-248z" />
    <glyph glyph-name="iacute" unicode="&#xed;" horiz-adv-x="567" 
d="M657 1436l-106 -82q-143 -110 -295 -152l-80 78l334 283zM160 0v1061h248v-1061h-248z" />
    <glyph glyph-name="icircumflex" unicode="&#xee;" horiz-adv-x="567" 
d="M160 0v1061h248v-1061h-248zM211 1540h143l76 -67q131 -117 209 -232l-86 -57l-270 192l-273 -192l-84 57q85 128 207 232z" />
    <glyph glyph-name="idieresis" unicode="&#xef;" horiz-adv-x="567" 
d="M-72 1251v224h213v-224h-213zM428 1251v224h211v-224h-211zM160 0v1061h248v-1061h-248z" />
    <glyph glyph-name="eth" unicode="&#xf0;" horiz-adv-x="1335" 
d="M434 1071l-57 127l229 64q-94 35 -209 51l9 178q281 -31 481 -145l323 90l58 -129l-244 -66q225 -209 225 -584q0 -318 -157 -500t-449 -182q-162 0 -287.5 61t-197.5 180t-72 280q0 244 142.5 378t379.5 134q95 0 200.5 -30t170.5 -77q-36 147 -193 266zM649 811
q-146 0 -230.5 -84.5t-84.5 -232.5q0 -147 85 -234.5t230 -87.5q176 0 267.5 120.5t91.5 389.5q-65 62 -160 95.5t-199 33.5z" />
    <glyph glyph-name="ntilde" unicode="&#xf1;" horiz-adv-x="1411" 
d="M756 887q-102 0 -198 -42t-163 -100v-745h-250v1061h189l43 -137q84 70 207 115.5t256 45.5q198 0 316 -103.5t118 -293.5v-688h-250v651q0 114 -68 175t-200 61zM961 1491l141 -16q-23 -115 -84.5 -176.5t-153.5 -61.5q-51 0 -105.5 26t-105.5 52t-94 26t-71 -23.5
t-37 -66.5l-142 17q23 115 84.5 176t153.5 61q49 0 102.5 -26t105.5 -52t97 -26q43 0 71.5 23.5t37.5 66.5z" />
    <glyph glyph-name="ograve" unicode="&#xf2;" horiz-adv-x="1376" 
d="M1300 530q0 -246 -167.5 -400.5t-444.5 -154.5q-278 0 -445 154.5t-167 400.5q0 245 167 400t445 155q277 0 444.5 -155.5t167.5 -399.5zM1047 530q0 166 -95.5 261.5t-263.5 95.5q-169 0 -263.5 -95t-94.5 -262q0 -168 94 -263t264 -95q168 0 263.5 95t95.5 263z
M487 1356l-110 74l155 133l332 -283q-13 -12 -26.5 -26t-30.5 -31l-27 -27q-116 40 -293 160z" />
    <glyph glyph-name="oacute" unicode="&#xf3;" horiz-adv-x="1376" 
d="M1300 530q0 -246 -167.5 -400.5t-444.5 -154.5q-278 0 -445 154.5t-167 400.5q0 245 167 400t445 155q277 0 444.5 -155.5t167.5 -399.5zM1047 530q0 166 -95.5 261.5t-263.5 95.5q-169 0 -263.5 -95t-94.5 -262q0 -168 94 -263t264 -95q168 0 263.5 95t95.5 263z
M991 1436l-106 -82q-143 -110 -295 -152l-80 78l334 283z" />
    <glyph glyph-name="ocircumflex" unicode="&#xf4;" horiz-adv-x="1376" 
d="M1300 530q0 -246 -167.5 -400.5t-444.5 -154.5q-278 0 -445 154.5t-167 400.5q0 245 167 400t445 155q277 0 444.5 -155.5t167.5 -399.5zM1047 530q0 166 -95.5 261.5t-263.5 95.5q-169 0 -263.5 -95t-94.5 -262q0 -168 94 -263t264 -95q168 0 263.5 95t95.5 263z
M616 1540h144l76 -67q129 -115 208 -232l-86 -57l-270 192l-272 -192l-84 57q85 128 207 232z" />
    <glyph glyph-name="otilde" unicode="&#xf5;" horiz-adv-x="1376" 
d="M1300 530q0 -246 -167.5 -400.5t-444.5 -154.5q-278 0 -445 154.5t-167 400.5q0 245 167 400t445 155q277 0 444.5 -155.5t167.5 -399.5zM1047 530q0 166 -95.5 261.5t-263.5 95.5q-169 0 -263.5 -95t-94.5 -262q0 -168 94 -263t264 -95q168 0 263.5 95t95.5 263z
M944 1491l141 -16q-23 -116 -84 -177t-153 -61q-51 0 -105.5 26t-105.5 52t-94 26t-71.5 -23.5t-37.5 -66.5l-141 17q23 116 84 176.5t153 60.5q49 0 102.5 -26t106 -52t97.5 -26q43 0 71 23.5t37 66.5z" />
    <glyph glyph-name="odieresis" unicode="&#xf6;" horiz-adv-x="1376" 
d="M1300 530q0 -246 -167.5 -400.5t-444.5 -154.5q-278 0 -445 154.5t-167 400.5q0 245 167 400t445 155q277 0 444.5 -155.5t167.5 -399.5zM1047 530q0 166 -95.5 261.5t-263.5 95.5q-169 0 -263.5 -95t-94.5 -262q0 -168 94 -263t264 -95q168 0 263.5 95t95.5 263z
M334 1251v224h213v-224h-213zM834 1251v224h210v-224h-210z" />
    <glyph glyph-name="divide" unicode="&#xf7;" horiz-adv-x="1437" 
d="M1315 584h-1192v190h1192v-190zM602 969v237h234v-237h-234zM602 152v237h234v-237h-234z" />
    <glyph glyph-name="oslash" unicode="&#xf8;" horiz-adv-x="1376" 
d="M1300 530q0 -246 -167.5 -400.5t-444.5 -154.5q-191 0 -334 76l-118 -135l-103 86l113 125q-170 156 -170 403q0 245 167 400t445 155q187 0 332 -77l121 137l102 -86l-113 -127q170 -156 170 -402zM330 530q0 -143 67 -231l480 547q-80 41 -189 41q-169 0 -263.5 -95
t-94.5 -262zM1047 530q0 138 -70 230l-479 -547q80 -41 190 -41q168 0 263.5 95t95.5 263z" />
    <glyph glyph-name="ugrave" unicode="&#xf9;" horiz-adv-x="1396" 
d="M698 -25q-263 0 -413 119t-150 352v615h248v-617q0 -133 87 -202.5t228 -69.5t227.5 69.5t86.5 202.5v617h250v-615q0 -233 -151 -352t-413 -119zM465 1356l-111 74l156 133l332 -283q-13 -12 -26.5 -26t-30.5 -31l-27 -27q-116 40 -293 160z" />
    <glyph glyph-name="uacute" unicode="&#xfa;" horiz-adv-x="1396" 
d="M698 -25q-263 0 -413 119t-150 352v615h248v-617q0 -133 87 -202.5t228 -69.5t227.5 69.5t86.5 202.5v617h250v-615q0 -233 -151 -352t-413 -119zM1024 1436l-106 -82q-143 -110 -295 -152l-80 78l334 283z" />
    <glyph glyph-name="ucircumflex" unicode="&#xfb;" horiz-adv-x="1396" 
d="M698 -25q-263 0 -413 119t-150 352v615h248v-617q0 -133 87 -202.5t228 -69.5t227.5 69.5t86.5 202.5v617h250v-615q0 -233 -151 -352t-413 -119zM627 1540h143l76 -67q131 -117 209 -232l-86 -57l-271 192l-272 -192l-84 57q85 128 207 232z" />
    <glyph glyph-name="udieresis" unicode="&#xfc;" horiz-adv-x="1396" 
d="M698 -25q-263 0 -413 119t-150 352v615h248v-617q0 -133 87 -202.5t228 -69.5t227.5 69.5t86.5 202.5v617h250v-615q0 -233 -151 -352t-413 -119zM342 1251v224h213v-224h-213zM842 1251v224h211v-224h-211z" />
    <glyph glyph-name="yacute" unicode="&#xfd;" horiz-adv-x="1265" 
d="M207 -530l-70 151q156 57 234 130t135 206l22 53l-514 1051h260l371 -770l350 770h256l-510 -1139q-89 -200 -209.5 -303.5t-324.5 -148.5zM956 1436l-106 -82q-143 -110 -295 -152l-80 78l334 283z" />
    <glyph glyph-name="thorn" unicode="&#xfe;" horiz-adv-x="1417" 
d="M1329 530q0 -258 -139.5 -406.5t-390.5 -148.5q-106 0 -219 34.5t-185 90.5v-534h-250v1929h250v-537q72 57 185 92t219 35q251 0 390.5 -148.5t139.5 -406.5zM725 887q-90 0 -182.5 -30.5t-147.5 -82.5v-489q56 -51 148.5 -82t181.5 -31q177 0 263.5 93t86.5 265
q0 171 -86.5 264t-263.5 93z" />
    <glyph glyph-name="ydieresis" unicode="&#xff;" horiz-adv-x="1265" 
d="M207 -530l-70 151q156 57 234 130t135 206l22 53l-514 1051h260l371 -770l350 770h256l-510 -1139q-89 -200 -209.5 -303.5t-324.5 -148.5zM283 1251v224h213v-224h-213zM782 1251v224h211v-224h-211z" />
    <glyph glyph-name="Amacron" unicode="&#x100;" horiz-adv-x="1638" 
d="M981 1434l633 -1434h-291l-137 332h-731l-138 -332h-290l630 1434h324zM819 1217l-282 -676h565zM471 1640v164h694v-164h-694z" />
    <glyph glyph-name="amacron" unicode="&#x101;" horiz-adv-x="1304" 
d="M926 565v101q0 221 -287 221q-77 0 -153.5 -37.5t-90.5 -91.5h-248q30 148 153.5 237.5t348.5 89.5q119 0 209.5 -22t149 -60.5t95 -97.5t51.5 -126.5t15 -153.5v-406q0 -67 86 -67h52v-164q-34 -11 -105 -11q-179 0 -241 140q-86 -71 -199 -106.5t-232 -35.5
q-200 0 -328 93.5t-128 244.5t127.5 240.5t328.5 89.5q240 0 396 -78zM926 268v129q-117 68 -320 68q-131 0 -204.5 -38.5t-73.5 -113.5q0 -74 74 -112.5t204 -38.5q90 0 175 29t145 77zM307 1284v164h694v-164h-694z" />
    <glyph glyph-name="Abreve" unicode="&#x102;" horiz-adv-x="1638" 
d="M981 1434l633 -1434h-291l-137 332h-731l-138 -332h-290l630 1434h324zM819 1217l-282 -676h565zM819 1563q-149 0 -248 85t-133 224h170q60 -154 211 -154q72 0 126 39.5t83 114.5h170q-32 -138 -131.5 -223.5t-247.5 -85.5z" />
    <glyph glyph-name="abreve" unicode="&#x103;" horiz-adv-x="1304" 
d="M926 565v101q0 221 -287 221q-77 0 -153.5 -37.5t-90.5 -91.5h-248q30 148 153.5 237.5t348.5 89.5q119 0 209.5 -22t149 -60.5t95 -97.5t51.5 -126.5t15 -153.5v-406q0 -67 86 -67h52v-164q-34 -11 -105 -11q-179 0 -241 140q-86 -71 -199 -106.5t-232 -35.5
q-200 0 -328 93.5t-128 244.5t127.5 240.5t328.5 89.5q240 0 396 -78zM926 268v129q-117 68 -320 68q-131 0 -204.5 -38.5t-73.5 -113.5q0 -74 74 -112.5t204 -38.5q90 0 175 29t145 77zM662 1210q-149 0 -248 85.5t-133 224.5h170q60 -154 211 -154q148 0 208 154h170
q-32 -139 -131 -224.5t-247 -85.5z" />
    <glyph glyph-name="Aogonek" unicode="&#x104;" horiz-adv-x="1638" 
d="M981 1434l633 -1434q-154 -103 -154 -205q0 -43 35.5 -67.5t91.5 -24.5q82 0 107 25l86 -84q-59 -48 -111.5 -70.5t-128.5 -22.5q-117 0 -188.5 61t-71.5 150q0 68 40 132t107 106h-104l-137 332h-731l-138 -332h-290l630 1434h324zM819 1217l-282 -676h565z" />
    <glyph glyph-name="aogonek" unicode="&#x105;" horiz-adv-x="1304" 
d="M926 565v101q0 221 -287 221q-209 0 -244 -129h-248q30 148 153.5 237.5t348.5 89.5q117 0 207 -22t148.5 -60.5t96 -96.5t53 -125t15.5 -150v-422q0 -28 23.5 -42.5t62.5 -14.5h52v-164q-34 -11 -105 -11q-32 0 -55 5q-127 -95 -127 -187q0 -43 35 -67.5t92 -24.5
q76 0 106 27l78 -76q-103 -103 -231 -103q-117 0 -188.5 61t-71.5 150q0 68 49.5 140.5t140.5 122.5q-44 29 -69 92q-86 -71 -199 -106.5t-232 -35.5q-200 0 -328 93.5t-128 244.5t127.5 240.5t328.5 89.5q240 0 396 -78zM926 268v129q-117 68 -320 68q-131 0 -204.5 -38.5
t-73.5 -113.5q0 -74 74 -112.5t204 -38.5q90 0 175 29t145 77z" />
    <glyph glyph-name="Cacute" unicode="&#x106;" horiz-adv-x="1648" 
d="M86 717q0 333 217 537t576 204q149 0 273.5 -40t210 -110.5t139.5 -163.5t73 -202h-266q-29 135 -145.5 216t-284.5 81q-111 0 -206 -34.5t-166.5 -98.5t-112 -164.5t-40.5 -224.5q0 -166 72.5 -286.5t191 -179t267.5 -58.5q329 0 506 245l161 -90q-116 -186 -279 -279.5
t-388 -93.5q-238 0 -419.5 93t-280.5 261.5t-99 387.5zM1192 1792l-107 -82q-141 -109 -294 -151l-80 77l333 283z" />
    <glyph glyph-name="cacute" unicode="&#x107;" horiz-adv-x="1263" 
d="M76 530q0 244 158 399.5t419 155.5q236 0 382 -112.5t173 -290.5h-243q-19 91 -97.5 148t-195.5 57q-161 0 -251.5 -96.5t-90.5 -260.5q0 -166 99.5 -262t279.5 -96q204 0 344 178l141 -88q-86 -139 -213.5 -213t-290.5 -74q-279 0 -446.5 155t-167.5 400zM950 1436
l-106 -82q-143 -110 -295 -152l-80 78l334 283z" />
    <glyph glyph-name="Ccircumflex" unicode="&#x108;" horiz-adv-x="1648" 
d="M86 717q0 333 217 537t576 204q149 0 273.5 -40t210 -110.5t139.5 -163.5t73 -202h-266q-29 135 -145.5 216t-284.5 81q-111 0 -206 -34.5t-166.5 -98.5t-112 -164.5t-40.5 -224.5q0 -166 72.5 -286.5t191 -179t267.5 -58.5q329 0 506 245l161 -90q-116 -186 -279 -279.5
t-388 -93.5q-238 0 -419.5 93t-280.5 261.5t-99 387.5zM809 1896h143l76 -67q131 -117 209 -232l-86 -57l-270 193l-273 -193l-84 57q85 128 207 232z" />
    <glyph glyph-name="ccircumflex" unicode="&#x109;" horiz-adv-x="1263" 
d="M76 530q0 244 158 399.5t419 155.5q236 0 382 -112.5t173 -290.5h-243q-19 91 -97.5 148t-195.5 57q-161 0 -251.5 -96.5t-90.5 -260.5q0 -166 99.5 -262t279.5 -96q204 0 344 178l141 -88q-86 -139 -213.5 -213t-290.5 -74q-279 0 -446.5 155t-167.5 400zM606 1540h144
l75 -67q131 -117 209 -232l-86 -57l-270 192l-272 -192l-84 57q86 130 206 232z" />
    <glyph glyph-name="Cdotaccent" unicode="&#x10a;" horiz-adv-x="1648" 
d="M86 717q0 333 217 537t576 204q149 0 273.5 -40t210 -110.5t139.5 -163.5t73 -202h-266q-29 135 -145.5 216t-284.5 81q-111 0 -206 -34.5t-166.5 -98.5t-112 -164.5t-40.5 -224.5q0 -166 72.5 -286.5t191 -179t267.5 -58.5q329 0 506 245l161 -90q-116 -186 -279 -279.5
t-388 -93.5q-238 0 -419.5 93t-280.5 261.5t-99 387.5zM754 1608v223h213v-223h-213z" />
    <glyph glyph-name="cdotaccent" unicode="&#x10b;" horiz-adv-x="1263" 
d="M76 530q0 244 158 399.5t419 155.5q236 0 382 -112.5t173 -290.5h-243q-19 91 -97.5 148t-195.5 57q-161 0 -251.5 -96.5t-90.5 -260.5q0 -166 99.5 -262t279.5 -96q204 0 344 178l141 -88q-86 -139 -213.5 -213t-290.5 -74q-279 0 -446.5 155t-167.5 400zM561 1251v224
h213v-224h-213z" />
    <glyph glyph-name="Ccaron" unicode="&#x10c;" horiz-adv-x="1648" 
d="M86 717q0 333 217 537t576 204q149 0 273.5 -40t210 -110.5t139.5 -163.5t73 -202h-266q-29 135 -145.5 216t-284.5 81q-111 0 -206 -34.5t-166.5 -98.5t-112 -164.5t-40.5 -224.5q0 -166 72.5 -286.5t191 -179t267.5 -58.5q329 0 506 245l161 -90q-116 -186 -279 -279.5
t-388 -93.5q-238 0 -419.5 93t-280.5 261.5t-99 387.5zM942 1556h-143l-78 68q-129 113 -207 234q71 47 84 57l272 -197l271 197q53 -36 86 -57q-79 -117 -209 -234z" />
    <glyph glyph-name="ccaron" unicode="&#x10d;" horiz-adv-x="1263" 
d="M76 530q0 244 158 399.5t419 155.5q236 0 382 -112.5t173 -290.5h-243q-19 91 -97.5 148t-195.5 57q-161 0 -251.5 -96.5t-90.5 -260.5q0 -166 99.5 -262t279.5 -96q204 0 344 178l141 -88q-86 -139 -213.5 -213t-290.5 -74q-279 0 -446.5 155t-167.5 400zM758 1200h-144
l-77 68q-130 114 -207 233q57 38 84 58l272 -197l270 197q67 -46 86 -58q-79 -117 -208 -233z" />
    <glyph glyph-name="Dcaron" unicode="&#x10e;" horiz-adv-x="1640" 
d="M434 1219v-1006h295q262 0 408.5 130t146.5 374q0 243 -147 372.5t-408 129.5h-295zM1550 717q0 -330 -214.5 -523.5t-590.5 -193.5h-575v1434h575q375 0 590 -194.5t215 -522.5zM758 1556h-144l-77 68q-129 113 -207 234q70 47 84 57l272 -197l270 197q52 -36 86 -57
q-81 -119 -208 -234z" />
    <glyph glyph-name="dcaron" unicode="&#x10f;" horiz-adv-x="1712" 
d="M86 530q0 257 140.5 406t391.5 149q112 0 220.5 -34t183.5 -93v537h248v-1495h-189l-43 111q-75 -60 -191.5 -98t-228.5 -38q-251 0 -391.5 149t-140.5 406zM692 887q-177 0 -264.5 -93.5t-87.5 -263.5q0 -172 87.5 -265t264.5 -93q88 0 180.5 31t149.5 82v489
q-57 52 -149 82.5t-181 30.5zM1401 1020l166 493l194 -55l-47 -102q-100 -221 -219 -361z" />
    <glyph glyph-name="Dcroat" unicode="&#x110;" horiz-adv-x="1640" 
d="M1550 717q0 -330 -214.5 -523.5t-590.5 -193.5h-575v639h-180v156h180v639h575q375 0 590 -194.5t215 -522.5zM801 639h-367v-426h295q262 0 408.5 130t146.5 374q0 243 -147 372.5t-408 129.5h-295v-424h367v-156z" />
    <glyph glyph-name="dcroat" unicode="&#x111;" horiz-adv-x="1417" 
d="M86 530q0 257 140.5 406t391.5 149q105 0 217 -35t187 -92v250h-479v150h479v137h248v-137h155v-150h-155v-1208h-189l-43 113q-74 -60 -194 -99t-226 -39q-251 0 -391.5 149t-140.5 406zM692 887q-177 0 -264.5 -93.5t-87.5 -263.5q0 -172 87.5 -265t264.5 -93
q88 0 180.5 31t149.5 82v489q-57 52 -149 82.5t-181 30.5z" />
    <glyph glyph-name="Emacron" unicode="&#x112;" horiz-adv-x="1343" 
d="M170 0v1434h1069v-211h-805v-381h719v-209h-719v-424h828v-209h-1092zM367 1640v164h694v-164h-694z" />
    <glyph glyph-name="emacron" unicode="&#x113;" horiz-adv-x="1347" 
d="M1077 317l125 -90q-185 -252 -495 -252q-135 0 -252 41t-200.5 114t-131 176.5t-47.5 223.5q0 243 166 399t434 156q265 0 430.5 -156.5t165.5 -404.5q0 -57 -2 -80h-940q19 -123 124.5 -197.5t266.5 -74.5q103 0 197.5 39t158.5 106zM676 887q-145 0 -237 -69.5
t-111 -192.5h694q-10 120 -107 191t-239 71zM319 1284v164h695v-164h-695z" />
    <glyph glyph-name="Ebreve" unicode="&#x114;" horiz-adv-x="1343" 
d="M170 0v1434h1069v-211h-805v-381h719v-209h-719v-424h828v-209h-1092zM715 1563q-149 0 -248 85t-133 224h170q60 -154 211 -154q72 0 126 39.5t83 114.5h170q-32 -138 -131.5 -223.5t-247.5 -85.5z" />
    <glyph glyph-name="ebreve" unicode="&#x115;" horiz-adv-x="1347" 
d="M1077 317l125 -90q-185 -252 -495 -252q-135 0 -252 41t-200.5 114t-131 176.5t-47.5 223.5q0 243 166 399t434 156q265 0 430.5 -156.5t165.5 -404.5q0 -57 -2 -80h-940q19 -123 124.5 -197.5t266.5 -74.5q103 0 197.5 39t158.5 106zM676 887q-145 0 -237 -69.5
t-111 -192.5h694q-10 120 -107 191t-239 71zM668 1210q-149 0 -248 85.5t-133 224.5h170q60 -154 211 -154q72 0 126 39.5t83 114.5h170q-32 -138 -131.5 -224t-247.5 -86z" />
    <glyph glyph-name="Edotaccent" unicode="&#x116;" horiz-adv-x="1343" 
d="M170 0v1434h1069v-211h-805v-381h719v-209h-719v-424h828v-209h-1092zM608 1608v223h213v-223h-213z" />
    <glyph glyph-name="edotaccent" unicode="&#x117;" horiz-adv-x="1347" 
d="M1077 317l125 -90q-185 -252 -495 -252q-135 0 -252 41t-200.5 114t-131 176.5t-47.5 223.5q0 243 166 399t434 156q265 0 430.5 -156.5t165.5 -404.5q0 -57 -2 -80h-940q19 -123 124.5 -197.5t266.5 -74.5q103 0 197.5 39t158.5 106zM676 887q-145 0 -237 -69.5
t-111 -192.5h694q-10 120 -107 191t-239 71zM561 1251v224h213v-224h-213z" />
    <glyph glyph-name="Eogonek" unicode="&#x118;" horiz-adv-x="1343" 
d="M170 0v1434h1069v-211h-805v-381h719v-209h-719v-424h828v-209h-119q-160 -106 -160 -207q0 -42 35.5 -67t91.5 -25q73 0 107 27l77 -76q-104 -101 -231 -101q-117 0 -188.5 60t-71.5 149q0 70 40.5 134t108.5 106h-782z" />
    <glyph glyph-name="eogonek" unicode="&#x119;" horiz-adv-x="1347" 
d="M1073 311l129 -84q-137 -187 -346 -233q-71 -46 -108 -98t-37 -101q0 -43 35.5 -67.5t91.5 -24.5q74 0 104 27l78 -76q-55 -53 -105.5 -78t-123.5 -25q-117 0 -189 61t-72 150q0 61 31.5 118.5t85.5 99.5q-251 17 -411 168.5t-160 381.5q0 243 166 399t434 156
q265 0 430.5 -156.5t165.5 -404.5q0 -57 -2 -80h-940q19 -123 124.5 -197.5t266.5 -74.5q104 0 196.5 36.5t155.5 102.5zM676 887q-145 0 -237 -69.5t-111 -192.5h694q-10 120 -107 191t-239 71z" />
    <glyph glyph-name="Ecaron" unicode="&#x11a;" horiz-adv-x="1343" 
d="M170 0v1434h1069v-211h-805v-381h719v-209h-719v-424h828v-209h-1092zM786 1556h-143l-78 68q-129 113 -207 234q70 47 84 57l273 -197l270 197q52 -36 86 -57q-79 -117 -209 -234z" />
    <glyph glyph-name="ecaron" unicode="&#x11b;" horiz-adv-x="1347" 
d="M1077 317l125 -90q-185 -252 -495 -252q-135 0 -252 41t-200.5 114t-131 176.5t-47.5 223.5q0 243 166 399t434 156q265 0 430.5 -156.5t165.5 -404.5q0 -57 -2 -80h-940q19 -123 124.5 -197.5t266.5 -74.5q103 0 197.5 39t158.5 106zM676 887q-145 0 -237 -69.5
t-111 -192.5h694q-10 120 -107 191t-239 71zM739 1200h-143l-78 68q-130 114 -207 233q57 38 84 58l273 -197l270 197q67 -46 86 -58q-78 -115 -209 -233z" />
    <glyph glyph-name="Gcircumflex" unicode="&#x11c;" horiz-adv-x="1691" 
d="M86 717q0 219 96 387.5t270.5 261t401.5 92.5q283 0 470.5 -140.5t238.5 -367.5h-265q-42 137 -163.5 213t-280.5 76q-102 0 -192 -34.5t-159 -98.5t-109 -164.5t-40 -224.5q0 -163 72 -283.5t191.5 -180.5t267.5 -60q192 0 317 102t125 262h-432v197h686v-119
q0 -163 -52.5 -290.5t-147 -207.5t-220 -121t-276.5 -41q-176 0 -325 55t-253 152.5t-162.5 235t-58.5 299.5zM788 1896h144l76 -67q131 -117 209 -232l-87 -57l-270 193l-272 -193l-84 57q85 128 207 232z" />
    <glyph glyph-name="gcircumflex" unicode="&#x11d;" horiz-adv-x="1417" 
d="M1038 944l43 117h189v-1016q0 -245 -151 -374.5t-433 -129.5q-296 0 -524 228l108 106q184 -147 404 -147q162 0 255 71.5t93 212.5v92q-74 -56 -186 -90t-218 -34q-251 0 -391.5 148t-140.5 404t140.5 404.5t391.5 148.5q110 0 229 -38t191 -103zM692 176q88 0 180.5 31
t149.5 82v485q-57 52 -149 82.5t-181 30.5q-177 0 -264.5 -93t-87.5 -262q0 -170 87.5 -263t264.5 -93zM631 1540h143l76 -67q131 -117 209 -232l-86 -57l-271 192l-272 -192l-84 57q85 128 207 232z" />
    <glyph glyph-name="Gbreve" unicode="&#x11e;" horiz-adv-x="1691" 
d="M86 717q0 219 96 387.5t270.5 261t401.5 92.5q283 0 470.5 -140.5t238.5 -367.5h-265q-42 137 -163.5 213t-280.5 76q-102 0 -192 -34.5t-159 -98.5t-109 -164.5t-40 -224.5q0 -163 72 -283.5t191.5 -180.5t267.5 -60q192 0 317 102t125 262h-432v197h686v-119
q0 -163 -52.5 -290.5t-147 -207.5t-220 -121t-276.5 -41q-176 0 -325 55t-253 152.5t-162.5 235t-58.5 299.5zM860 1563q-149 0 -248 85t-133 224h170q60 -154 211 -154q72 0 126 39.5t83 114.5h170q-32 -138 -131.5 -223.5t-247.5 -85.5z" />
    <glyph glyph-name="gbreve" unicode="&#x11f;" horiz-adv-x="1417" 
d="M1038 944l43 117h189v-1016q0 -245 -151 -374.5t-433 -129.5q-296 0 -524 228l108 106q184 -147 404 -147q162 0 255 71.5t93 212.5v92q-74 -56 -186 -90t-218 -34q-251 0 -391.5 148t-140.5 404t140.5 404.5t391.5 148.5q110 0 229 -38t191 -103zM692 176q88 0 180.5 31
t149.5 82v485q-57 52 -149 82.5t-181 30.5q-177 0 -264.5 -93t-87.5 -262q0 -170 87.5 -263t264.5 -93zM707 1210q-149 0 -248 85.5t-133 224.5h170q60 -154 211 -154q148 0 208 154h170q-32 -139 -131 -224.5t-247 -85.5z" />
    <glyph glyph-name="Gdotaccent" unicode="&#x120;" horiz-adv-x="1691" 
d="M86 717q0 219 96 387.5t270.5 261t401.5 92.5q283 0 470.5 -140.5t238.5 -367.5h-265q-42 137 -163.5 213t-280.5 76q-102 0 -192 -34.5t-159 -98.5t-109 -164.5t-40 -224.5q0 -163 72 -283.5t191.5 -180.5t267.5 -60q192 0 317 102t125 262h-432v197h686v-119
q0 -163 -52.5 -290.5t-147 -207.5t-220 -121t-276.5 -41q-176 0 -325 55t-253 152.5t-162.5 235t-58.5 299.5zM754 1608v223h213v-223h-213z" />
    <glyph glyph-name="gdotaccent" unicode="&#x121;" horiz-adv-x="1417" 
d="M1038 944l43 117h189v-1016q0 -245 -151 -374.5t-433 -129.5q-296 0 -524 228l108 106q184 -147 404 -147q162 0 255 71.5t93 212.5v92q-74 -56 -186 -90t-218 -34q-251 0 -391.5 148t-140.5 404t140.5 404.5t391.5 148.5q110 0 229 -38t191 -103zM692 176q88 0 180.5 31
t149.5 82v485q-57 52 -149 82.5t-181 30.5q-177 0 -264.5 -93t-87.5 -262q0 -170 87.5 -263t264.5 -93zM592 1251v224h213v-224h-213z" />
    <glyph glyph-name="Gcommaaccent" unicode="&#x122;" horiz-adv-x="1691" 
d="M86 717q0 219 96 387.5t270.5 261t401.5 92.5q283 0 470.5 -140.5t238.5 -367.5h-265q-42 137 -163.5 213t-280.5 76q-102 0 -192 -34.5t-159 -98.5t-109 -164.5t-40 -224.5q0 -163 72 -283.5t191.5 -180.5t267.5 -60q192 0 317 102t125 262h-432v197h686v-119
q0 -163 -52.5 -290.5t-147 -207.5t-220 -121t-276.5 -41q-176 0 -325 55t-253 152.5t-162.5 235t-58.5 299.5zM737 -500l140 408l186 -53l-45 -95q-90 -192 -182 -288z" />
    <glyph glyph-name="gcommaaccent" unicode="&#x123;" horiz-adv-x="1417" 
d="M1038 944l43 117h189v-1016q0 -245 -151 -374.5t-433 -129.5q-296 0 -524 228l108 106q184 -147 404 -147q162 0 255 71.5t93 212.5v92q-74 -56 -186 -90t-218 -34q-251 0 -391.5 148t-140.5 404t140.5 404.5t391.5 148.5q110 0 229 -38t191 -103zM692 176q88 0 180.5 31
t149.5 82v485q-57 52 -149 82.5t-181 30.5q-177 0 -264.5 -93t-87.5 -262q0 -170 87.5 -263t264.5 -93zM973 1599l-139 -407l-187 53l45 94q90 194 182 289z" />
    <glyph glyph-name="Hcircumflex" unicode="&#x124;" horiz-adv-x="1687" 
d="M170 0v1434h264v-570h819v570h263v-1434h-263v651h-819v-651h-264zM770 1896h143l76 -67q131 -117 209 -232l-86 -57l-270 193l-273 -193l-84 57q85 128 207 232z" />
    <glyph glyph-name="hcircumflex" unicode="&#x125;" horiz-adv-x="1411" 
d="M758 887q-108 0 -206.5 -42t-156.5 -100v-745h-250v1495h250v-557q78 64 199.5 105.5t249.5 41.5q196 0 313 -103.5t117 -293.5v-688h-250v651q0 109 -69.5 172.5t-196.5 63.5zM199 1896h143l76 -67q131 -117 209 -232l-86 -57l-271 193l-272 -193l-84 57q85 128 207 232
z" />
    <glyph glyph-name="Hbar" unicode="&#x126;" horiz-adv-x="1687" 
d="M23 1243h147v191h264v-191h819v191h263v-191h147v-156h-147v-1087h-263v651h-819v-651h-264v1087h-147v156zM1253 864v223h-819v-223h819z" />
    <glyph glyph-name="hbar" unicode="&#x127;" horiz-adv-x="1411" 
d="M-10 1358h155v137h250v-137h477v-150h-477v-270q78 64 199.5 105.5t249.5 41.5q196 0 313 -103.5t117 -293.5v-688h-250v651q0 236 -266 236q-108 0 -206.5 -42t-156.5 -100v-745h-250v1208h-155v150z" />
    <glyph glyph-name="Itilde" unicode="&#x128;" horiz-adv-x="626" 
d="M182 1434h264v-1434h-264v1434zM569 1847l142 -16q-23 -115 -84.5 -176.5t-153.5 -61.5q-51 0 -105.5 26.5t-105.5 52.5t-94 26t-71.5 -23.5t-37.5 -66.5l-141 16q23 116 84.5 177t153.5 61q39 0 81.5 -16.5t74 -36t72.5 -36t77 -16.5q43 0 71 23.5t37 66.5z" />
    <glyph glyph-name="itilde" unicode="&#x129;" horiz-adv-x="567" 
d="M539 1491l141 -16q-23 -115 -84.5 -176.5t-153.5 -61.5q-51 0 -105.5 26t-105.5 52t-94 26t-71 -23.5t-37 -66.5l-142 17q23 115 84.5 176t153.5 61q49 0 102.5 -26t105.5 -52t97 -26q43 0 71.5 23.5t37.5 66.5zM160 0v1061h248v-1061h-248z" />
    <glyph glyph-name="Imacron" unicode="&#x12a;" horiz-adv-x="626" 
d="M182 1434h264v-1434h-264v1434zM-35 1640v164h694v-164h-694z" />
    <glyph glyph-name="imacron" unicode="&#x12b;" horiz-adv-x="567" 
d="M-66 1284v164h695v-164h-695zM160 0v1061h248v-1061h-248z" />
    <glyph glyph-name="Ibreve" unicode="&#x12c;" horiz-adv-x="626" 
d="M182 1434h264v-1434h-264v1434zM313 1563q-149 0 -248 85t-133 224h170q60 -154 211 -154q72 0 126 39.5t83 114.5h170q-32 -138 -131.5 -223.5t-247.5 -85.5z" />
    <glyph glyph-name="ibreve" unicode="&#x12d;" horiz-adv-x="567" 
d="M283 1210q-149 0 -248 85.5t-133 224.5h170q60 -154 211 -154q72 0 126 39.5t83 114.5h170q-32 -138 -131.5 -224t-247.5 -86zM160 0v1061h248v-1061h-248z" />
    <glyph glyph-name="Iogonek" unicode="&#x12e;" horiz-adv-x="626" 
d="M182 0v1434h264v-1440q-151 -100 -151 -199q0 -43 35 -67.5t92 -24.5q62 0 104 31l78 -80q-54 -54 -104 -78.5t-125 -24.5q-117 0 -188.5 61t-71.5 150q0 68 40.5 132t108.5 106h-82z" />
    <glyph glyph-name="iogonek" unicode="&#x12f;" horiz-adv-x="567" 
d="M160 0v1061h248v-1067q-152 -102 -152 -201q0 -42 37 -67t92 -25q65 0 104 31l78 -78q-49 -53 -101 -78t-128 -25q-117 0 -189.5 60t-72.5 149q0 69 41 133.5t110 106.5h-67zM160 1257v226h248v-226h-248z" />
    <glyph glyph-name="Idotaccent" unicode="&#x130;" horiz-adv-x="626" 
d="M182 1434h264v-1434h-264v1434zM207 1608v223h213v-223h-213z" />
    <glyph glyph-name="dotlessi" unicode="&#x131;" horiz-adv-x="567" 
d="M160 0v1061h248v-1061h-248z" />
    <glyph glyph-name="IJ" unicode="&#x132;" horiz-adv-x="2062" 
d="M182 1434h264v-1434h-264v1434zM1307 193q158 0 240.5 82t82.5 225v934h262v-928q0 -246 -146.5 -388.5t-416.5 -142.5q-167 0 -305.5 86t-230.5 246l155 90q146 -204 359 -204z" />
    <glyph glyph-name="ij" unicode="&#x133;" horiz-adv-x="1208" 
d="M160 0v1061h248v-1061h-248zM160 1257v226h248v-226h-248zM799 1257v226h248v-226h-248zM731 -479l-135 119q121 98 162 182.5t41 222.5v1016h248v-985q0 -211 -70 -332t-246 -223z" />
    <glyph glyph-name="Jcircumflex" unicode="&#x134;" horiz-adv-x="1376" 
d="M621 193q158 0 240.5 82t82.5 225v934h262v-928q0 -246 -146.5 -388.5t-416.5 -142.5q-167 0 -306 86t-231 246l156 90q146 -204 359 -204zM1004 1896h143l76 -67q131 -117 209 -232l-86 -57l-271 193l-272 -193l-84 57q85 128 207 232z" />
    <glyph glyph-name="jcircumflex" unicode="&#x135;" horiz-adv-x="567" 
d="M92 -479l-143 119q125 101 168 182.5t43 222.5v1016h248v-985q0 -211 -70 -332t-246 -223zM211 1540h143l76 -67q131 -117 209 -232l-86 -57l-270 192l-273 -192l-84 57q85 128 207 232z" />
    <glyph glyph-name="Kcommaaccent" unicode="&#x136;" horiz-adv-x="1505" 
d="M1432 1434l-553 -590l626 -844h-319l-477 664l-275 -293v-371h-264v1434h264v-721l682 721h316zM596 -500l139 408l187 -53l-45 -95q-89 -190 -183 -288z" />
    <glyph glyph-name="kcommaaccent" unicode="&#x137;" horiz-adv-x="1282" 
d="M1229 1061l-434 -412l497 -649h-286l-371 500l-240 -226v-274h-250v1495h250v-934l525 500h309zM477 -500l139 408l187 -53l-45 -95q-89 -190 -183 -288z" />
    <glyph glyph-name="kgreenlandic" unicode="&#x138;" horiz-adv-x="1282" 
d="M1229 1061l-434 -410l497 -651h-286l-373 500l-238 -226v-274h-250v1061h250v-494l525 494h309z" />
    <glyph glyph-name="Lacute" unicode="&#x139;" horiz-adv-x="1269" 
d="M170 0v1434h264v-1221h807v-213h-1071zM672 1792l-107 -82q-141 -109 -295 -151l-80 77l334 283z" />
    <glyph glyph-name="lacute" unicode="&#x13a;" horiz-adv-x="565" 
d="M158 0v1495h250v-1495h-250zM657 1792l-106 -82q-141 -109 -295 -151l-80 77l334 283z" />
    <glyph glyph-name="Lcommaaccent" unicode="&#x13b;" horiz-adv-x="1269" 
d="M170 0v1434h264v-1221h807v-213h-1071zM524 -500l140 408l186 -53l-45 -95q-90 -192 -182 -288z" />
    <glyph glyph-name="lcommaaccent" unicode="&#x13c;" horiz-adv-x="565" 
d="M158 0v1495h250v-1495h-250zM74 -500l139 408l186 -53l-45 -95q-90 -192 -182 -288z" />
    <glyph glyph-name="Lcaron" unicode="&#x13d;" horiz-adv-x="1269" 
d="M170 0v1434h264v-1221h807v-213h-1071zM784 1020l166 493l195 -55l-47 -102q-100 -221 -219 -361z" />
    <glyph glyph-name="lcaron" unicode="&#x13e;" horiz-adv-x="847" 
d="M158 0v1495h250v-1495h-250zM537 1020l165 493l195 -55l-47 -102q-100 -221 -219 -361z" />
    <glyph glyph-name="Ldot" unicode="&#x13f;" horiz-adv-x="1269" 
d="M170 0v1434h264v-1221h807v-213h-1071zM817 657v224h213v-224h-213z" />
    <glyph glyph-name="ldot" unicode="&#x140;" horiz-adv-x="1030" 
d="M170 0v1495h250v-1495h-250zM741 657v224h213v-224h-213z" />
    <glyph glyph-name="Lslash" unicode="&#x141;" horiz-adv-x="1296" 
d="M1151 1059l-690 -379v-467h807v-213h-1071v539l-185 -101l-75 129l260 142v725h264v-584l614 336z" />
    <glyph glyph-name="lslash" unicode="&#x142;" horiz-adv-x="868" 
d="M557 0h-248v641l-278 -152l-76 127l354 193v686h248v-553l279 152l79 -123l-358 -195v-776z" />
    <glyph glyph-name="Nacute" unicode="&#x143;" horiz-adv-x="1693" 
d="M170 0v1434h229l871 -1035v1035h252v-1434h-230l-870 1032v-1032h-252zM1219 1792l-107 -82q-141 -109 -295 -151l-80 77l334 283z" />
    <glyph glyph-name="nacute" unicode="&#x144;" horiz-adv-x="1411" 
d="M756 887q-102 0 -198 -42t-163 -100v-745h-250v1061h189l43 -137q84 70 207 115.5t256 45.5q198 0 316 -103.5t118 -293.5v-688h-250v651q0 114 -68 175t-200 61zM1022 1436l-107 -82q-143 -110 -294 -152l-80 78l333 283z" />
    <glyph glyph-name="Ncommaaccent" unicode="&#x145;" horiz-adv-x="1693" 
d="M170 0v1434h229l871 -1035v1035h252v-1434h-230l-870 1032v-1032h-252zM692 -500l139 408l187 -53l-45 -95q-90 -192 -182 -288z" />
    <glyph glyph-name="ncommaaccent" unicode="&#x146;" horiz-adv-x="1411" 
d="M756 887q-102 0 -198 -42t-163 -100v-745h-250v1061h189l43 -137q84 70 207 115.5t256 45.5q198 0 316 -103.5t118 -293.5v-688h-250v651q0 114 -68 175t-200 61zM514 -500l139 408l187 -53l-45 -95q-89 -190 -183 -288z" />
    <glyph glyph-name="Ncaron" unicode="&#x147;" horiz-adv-x="1693" 
d="M170 0v1434h229l871 -1035v1035h252v-1434h-230l-870 1032v-1032h-252zM918 1556h-144l-78 68q-129 113 -207 234q70 47 84 57l273 -197l270 197q52 -36 86 -57q-79 -117 -209 -234z" />
    <glyph glyph-name="ncaron" unicode="&#x148;" horiz-adv-x="1411" 
d="M756 887q-102 0 -198 -42t-163 -100v-745h-250v1061h189l43 -137q84 70 207 115.5t256 45.5q198 0 316 -103.5t118 -293.5v-688h-250v651q0 114 -68 175t-200 61zM776 1200h-143l-78 68q-130 114 -207 233q57 38 84 58l273 -197l270 197q67 -46 86 -58
q-78 -115 -209 -233z" />
    <glyph glyph-name="napostrophe" unicode="&#x149;" horiz-adv-x="1568" 
d="M913 887q-102 0 -197.5 -41.5t-162.5 -100.5v-745h-250v1061h189l43 -137q84 70 206.5 115.5t255.5 45.5q198 0 316.5 -104t118.5 -293v-688h-250v651q0 114 -68.5 175t-200.5 61zM-51 1020l166 493l194 -55l-47 -102q-100 -221 -219 -361z" />
    <glyph glyph-name="Eng" unicode="&#x14a;" horiz-adv-x="1693" 
d="M1206 -479l-139 123q115 93 158.5 168.5t46.5 191.5l-850 1028v-1032h-252v1434h229l871 -1035v1035h252v-1358q0 -144 -31 -242.5t-98.5 -171.5t-186.5 -141z" />
    <glyph glyph-name="eng" unicode="&#x14b;" horiz-adv-x="1411" 
d="M958 -479q-49 39 -143 121q124 100 166.5 181.5t42.5 221.5v606q0 236 -266 236q-106 0 -204.5 -42.5t-158.5 -99.5v-745h-250v1061h189l43 -137q78 67 209 114t258 47q196 0 313 -103.5t117 -293.5v-612q0 -211 -70 -332t-246 -223z" />
    <glyph glyph-name="Omacron" unicode="&#x14c;" horiz-adv-x="1714" 
d="M1628 717q0 -158 -53 -293.5t-149.5 -235t-243 -156.5t-324.5 -57q-179 0 -325.5 57t-243.5 156.5t-150 235t-53 293.5q0 157 53 292t150 235t243.5 157t325.5 57q178 0 324.5 -57t243 -157t149.5 -235t53 -292zM354 717q0 -241 136.5 -382.5t367.5 -141.5
q229 0 365.5 141.5t136.5 382.5t-136 381.5t-366 140.5q-231 0 -367.5 -140.5t-136.5 -381.5zM508 1640v164h694v-164h-694z" />
    <glyph glyph-name="omacron" unicode="&#x14d;" horiz-adv-x="1376" 
d="M1300 530q0 -246 -167.5 -400.5t-444.5 -154.5q-278 0 -445 154.5t-167 400.5q0 245 167 400t445 155q277 0 444.5 -155.5t167.5 -399.5zM1047 530q0 166 -95.5 261.5t-263.5 95.5q-169 0 -263.5 -95t-94.5 -262q0 -168 94 -263t264 -95q168 0 263.5 95t95.5 263z
M340 1284v164h694v-164h-694z" />
    <glyph glyph-name="Obreve" unicode="&#x14e;" horiz-adv-x="1714" 
d="M1628 717q0 -158 -53 -293.5t-149.5 -235t-243 -156.5t-324.5 -57q-179 0 -325.5 57t-243.5 156.5t-150 235t-53 293.5q0 157 53 292t150 235t243.5 157t325.5 57q178 0 324.5 -57t243 -157t149.5 -235t53 -292zM354 717q0 -241 136.5 -382.5t367.5 -141.5
q229 0 365.5 141.5t136.5 382.5t-136 381.5t-366 140.5q-231 0 -367.5 -140.5t-136.5 -381.5zM856 1563q-149 0 -248 85t-133 224h170q60 -154 211 -154q72 0 126 39.5t83 114.5h170q-32 -138 -131.5 -223.5t-247.5 -85.5z" />
    <glyph glyph-name="obreve" unicode="&#x14f;" horiz-adv-x="1376" 
d="M1300 530q0 -246 -167.5 -400.5t-444.5 -154.5q-278 0 -445 154.5t-167 400.5q0 245 167 400t445 155q277 0 444.5 -155.5t167.5 -399.5zM1047 530q0 166 -95.5 261.5t-263.5 95.5q-169 0 -263.5 -95t-94.5 -262q0 -168 94 -263t264 -95q168 0 263.5 95t95.5 263z
M688 1210q-149 0 -248 85.5t-133 224.5h170q60 -154 211 -154q72 0 126 39.5t83 114.5h170q-32 -138 -131.5 -224t-247.5 -86z" />
    <glyph glyph-name="Ohungarumlaut" unicode="&#x150;" horiz-adv-x="1714" 
d="M1628 717q0 -158 -53 -293.5t-149.5 -235t-243 -156.5t-324.5 -57q-179 0 -325.5 57t-243.5 156.5t-150 235t-53 293.5q0 157 53 292t150 235t243.5 157t325.5 57q178 0 324.5 -57t243 -157t149.5 -235t53 -292zM354 717q0 -241 136.5 -382.5t367.5 -141.5
q229 0 365.5 141.5t136.5 382.5t-136 381.5t-366 140.5q-231 0 -367.5 -140.5t-136.5 -381.5zM979 1800l-143 -108q-138 -107 -246 -146l-80 74l313 297zM1407 1800l-143 -108q-138 -107 -246 -146l-82 74q159 147 315 297z" />
    <glyph glyph-name="ohungarumlaut" unicode="&#x151;" horiz-adv-x="1376" 
d="M1300 530q0 -246 -167.5 -400.5t-444.5 -154.5q-278 0 -445 154.5t-167 400.5q0 245 167 400t445 155q277 0 444.5 -155.5t167.5 -399.5zM1047 530q0 166 -95.5 261.5t-263.5 95.5q-169 0 -263.5 -95t-94.5 -262q0 -168 94 -263t264 -95q168 0 263.5 95t95.5 263z
M768 1444l-143 -109q-136 -105 -246 -145l-80 74l313 297zM1196 1444l-143 -109q-136 -105 -246 -145l-82 74q159 147 315 297z" />
    <glyph glyph-name="OE" unicode="&#x152;" horiz-adv-x="2043" 
d="M874 1434h1068v-211h-678v-381h591v-209h-591v-424h698v-209h-1088q-369 0 -578.5 194t-209.5 523t209.5 523t578.5 194zM354 717q0 -164 70 -279t188 -169t275 -54h112v1004h-112q-116 0 -213 -31.5t-168.5 -93t-111.5 -158t-40 -219.5z" />
    <glyph glyph-name="oe" unicode="&#x153;" horiz-adv-x="2326" 
d="M2044 307l135 -80q-185 -252 -498 -252q-153 0 -286.5 54.5t-216.5 148.5q-82 -95 -212.5 -149t-281.5 -54q-274 0 -441 155t-167 400q0 244 166.5 399.5t441.5 155.5q147 0 277.5 -53.5t212.5 -146.5q80 93 205.5 146.5t273.5 53.5q265 0 430.5 -156.5t165.5 -404.5
q0 -57 -4 -80h-940q21 -123 126 -197.5t267 -74.5q94 0 190 36.5t156 98.5zM1047 530q0 166 -95.5 261.5t-263.5 95.5q-169 0 -263.5 -95t-94.5 -262q0 -168 94 -263t264 -95q168 0 263.5 95t95.5 263zM1653 887q-146 0 -238 -69.5t-112 -192.5h694q-10 119 -106.5 190.5
t-237.5 71.5z" />
    <glyph glyph-name="Racute" unicode="&#x154;" horiz-adv-x="1519" 
d="M1384 981q0 -152 -94.5 -261.5t-257.5 -154.5l465 -565h-303l-420 530h-340v-530h-264v1434h580q295 0 464.5 -120t169.5 -333zM1120 981q0 116 -95.5 181t-281.5 65h-309v-490h309q186 0 281.5 64t95.5 180zM942 1792l-106 -82q-141 -109 -295 -151l-80 77l334 283z" />
    <glyph glyph-name="racute" unicode="&#x155;" horiz-adv-x="876" 
d="M860 1083v-200q-29 2 -82 2q-119 0 -223 -44t-160 -116v-725h-250v1061h189l43 -143q63 77 181 122t243 45q7 0 32 -1t27 -1zM741 1436l-106 -82q-143 -110 -295 -152l-80 78l334 283z" />
    <glyph glyph-name="Rcommaaccent" unicode="&#x156;" horiz-adv-x="1519" 
d="M1384 981q0 -152 -94.5 -261.5t-257.5 -154.5l465 -565h-303l-420 530h-340v-530h-264v1434h580q295 0 464.5 -120t169.5 -333zM1120 981q0 116 -95.5 181t-281.5 65h-309v-490h309q186 0 281.5 64t95.5 180zM606 -500l139 408l187 -53l-45 -95q-90 -192 -182 -288z" />
    <glyph glyph-name="rcommaaccent" unicode="&#x157;" horiz-adv-x="876" 
d="M860 1083v-200q-29 2 -82 2q-119 0 -223 -44t-160 -116v-725h-250v1061h189l43 -143q63 77 181 122t243 45q7 0 32 -1t27 -1zM51 -500l139 408l187 -53l-45 -95q-90 -192 -182 -288z" />
    <glyph glyph-name="Rcaron" unicode="&#x158;" horiz-adv-x="1519" 
d="M1384 981q0 -152 -94.5 -261.5t-257.5 -154.5l465 -565h-303l-420 530h-340v-530h-264v1434h580q295 0 464.5 -120t169.5 -333zM1120 981q0 116 -95.5 181t-281.5 65h-309v-490h309q186 0 281.5 64t95.5 180zM748 1556h-144l-78 68q-129 113 -207 234q70 47 84 57
l273 -197l270 197q53 -36 86 -57q-79 -117 -209 -234z" />
    <glyph glyph-name="rcaron" unicode="&#x159;" horiz-adv-x="876" 
d="M860 1083v-200q-29 2 -82 2q-119 0 -223 -44t-160 -116v-725h-250v1061h189l43 -143q63 77 181 122t243 45q7 0 32 -1t27 -1zM543 1200h-144l-77 68q-130 114 -207 233q57 38 84 58l272 -197l270 197q67 -46 86 -58q-78 -115 -209 -233z" />
    <glyph glyph-name="Sacute" unicode="&#x15a;" horiz-adv-x="1425" 
d="M727 188q162 0 254 51.5t92 135.5q0 96 -87 147.5t-343 108.5q-268 60 -387 172t-119 268q0 173 145.5 280t399.5 107q282 0 432 -115t182 -321h-270q-14 105 -96.5 164t-227.5 59q-146 0 -221 -45.5t-75 -122.5q0 -76 87 -135.5t281 -107.5q152 -37 252 -74.5t174.5 -89
t107.5 -119.5t33 -160q0 -188 -162 -302t-444 -114q-385 0 -639 320l135 100q204 -207 496 -207zM991 1792l-106 -82q-141 -109 -295 -151l-80 77l334 283z" />
    <glyph glyph-name="sacute" unicode="&#x15b;" horiz-adv-x="1181" 
d="M584 895q-94 0 -151.5 -25.5t-57.5 -70.5q0 -49 68.5 -89t252.5 -83q207 -51 307.5 -129.5t100.5 -206.5q0 -142 -124 -229t-359 -87q-318 0 -543 252l108 95q183 -156 412 -156q121 0 186.5 34t65.5 79q0 54 -67 89.5t-240 77.5q-225 56 -323.5 138.5t-98.5 206.5
q0 130 118.5 212t340.5 82q201 0 328 -84.5t165 -242.5h-244q-45 137 -245 137zM866 1436l-106 -82q-143 -110 -295 -152l-80 78l334 283z" />
    <glyph glyph-name="Scircumflex" unicode="&#x15c;" horiz-adv-x="1425" 
d="M727 188q162 0 254 51.5t92 135.5q0 96 -87 147.5t-343 108.5q-268 60 -387 172t-119 268q0 173 145.5 280t399.5 107q282 0 432 -115t182 -321h-270q-14 105 -96.5 164t-227.5 59q-146 0 -221 -45.5t-75 -122.5q0 -76 87 -135.5t281 -107.5q152 -37 252 -74.5t174.5 -89
t107.5 -119.5t33 -160q0 -188 -162 -302t-444 -114q-385 0 -639 320l135 100q204 -207 496 -207zM639 1896h143l76 -67q131 -117 209 -232l-86 -57l-270 193l-273 -193l-84 57q85 128 207 232z" />
    <glyph glyph-name="scircumflex" unicode="&#x15d;" horiz-adv-x="1181" 
d="M584 895q-94 0 -151.5 -25.5t-57.5 -70.5q0 -49 68.5 -89t252.5 -83q207 -51 307.5 -129.5t100.5 -206.5q0 -142 -124 -229t-359 -87q-318 0 -543 252l108 95q183 -156 412 -156q121 0 186.5 34t65.5 79q0 54 -67 89.5t-240 77.5q-225 56 -323.5 138.5t-98.5 206.5
q0 130 118.5 212t340.5 82q201 0 328 -84.5t165 -242.5h-244q-45 137 -245 137zM500 1540h143l76 -67q131 -117 209 -232l-86 -57l-271 192l-272 -192l-84 57q85 128 207 232z" />
    <glyph glyph-name="Scedilla" unicode="&#x15e;" horiz-adv-x="1425" 
d="M676 -344q61 0 98 20.5t37 55.5q0 43 -57.5 67.5t-157.5 24.5l-16 18q15 24 40 72t37 68q-338 27 -561 313l146 100q204 -207 485 -207q162 0 254 51.5t92 135.5q0 96 -87 147.5t-343 108.5q-268 60 -387 172t-119 268q0 172 146.5 279.5t398.5 107.5q282 0 432 -115
t182 -321h-270q-14 105 -96.5 164t-227.5 59q-146 0 -221 -45.5t-75 -122.5q0 -156 368 -243q152 -37 252 -74.5t174.5 -89t107.5 -119.5t33 -160q0 -169 -135.5 -279t-371.5 -130l-41 -72q86 -18 141 -70.5t55 -122.5q0 -84 -76 -144t-219 -60q-136 0 -237 88l84 86
q47 -31 135 -31z" />
    <glyph glyph-name="scedilla" unicode="&#x15f;" horiz-adv-x="1181" 
d="M584 895q-94 0 -151.5 -25.5t-57.5 -70.5q0 -49 68.5 -89t252.5 -83q207 -51 307.5 -129.5t100.5 -206.5q0 -124 -101 -207t-284 -100l-43 -74q88 -17 141 -69t53 -124q0 -84 -74.5 -144t-215.5 -60q-135 0 -234 96q40 37 78 78q43 -31 135 -31q61 0 98 20.5t37 55.5
q0 43 -57.5 67.5t-157.5 24.5l-16 18q31 52 78 140q-132 14 -253 76t-214 169l119 84q170 -145 405 -145q126 0 189 32t63 81q0 54 -67 89.5t-240 77.5q-225 56 -323.5 138.5t-98.5 206.5q0 129 120 211.5t339 82.5q201 0 328 -84.5t165 -242.5h-244q-45 137 -245 137z" />
    <glyph glyph-name="Scaron" unicode="&#x160;" horiz-adv-x="1425" 
d="M727 188q162 0 254 51.5t92 135.5q0 96 -87 147.5t-343 108.5q-268 60 -387 172t-119 268q0 173 145.5 280t399.5 107q282 0 432 -115t182 -321h-270q-14 105 -96.5 164t-227.5 59q-146 0 -221 -45.5t-75 -122.5q0 -76 87 -135.5t281 -107.5q152 -37 252 -74.5t174.5 -89
t107.5 -119.5t33 -160q0 -188 -162 -302t-444 -114q-385 0 -639 320l135 100q204 -207 496 -207zM764 1556h-143l-78 68q-129 113 -207 234q70 47 84 57l272 -197l271 197q52 -36 86 -57q-79 -117 -209 -234z" />
    <glyph glyph-name="scaron" unicode="&#x161;" horiz-adv-x="1181" 
d="M584 895q-94 0 -151.5 -25.5t-57.5 -70.5q0 -49 68.5 -89t252.5 -83q207 -51 307.5 -129.5t100.5 -206.5q0 -142 -124 -229t-359 -87q-318 0 -543 252l108 95q183 -156 412 -156q121 0 186.5 34t65.5 79q0 54 -67 89.5t-240 77.5q-225 56 -323.5 138.5t-98.5 206.5
q0 130 118.5 212t340.5 82q201 0 328 -84.5t165 -242.5h-244q-45 137 -245 137zM651 1200h-143l-78 68q-130 114 -207 233q57 38 84 58l273 -197l270 197q67 -46 86 -58q-78 -115 -209 -233z" />
    <glyph glyph-name="Tcommaaccent" unicode="&#x162;" horiz-adv-x="1351" 
d="M545 0v1219h-516v215h1294v-215h-516v-1219h-33l-53 -92q90 -17 142 -68t52 -123q0 -85 -74.5 -144.5t-217.5 -59.5q-131 0 -230 96l74 76q43 -29 135 -29q61 0 98 19.5t37 54.5q0 43 -57 67.5t-156 26.5l-16 16l90 160h-53z" />
    <glyph glyph-name="tcommaaccent" unicode="&#x163;" horiz-adv-x="843" 
d="M436 -344q59 0 96 20.5t37 55.5q0 43 -57.5 67.5t-157.5 24.5l-14 18l92 158q-105 39 -148.5 140t-43.5 292v434h-224v156l224 39v258l247 53v-311h308v-195h-308v-520q0 -98 48 -136t174 -38h86v-162q-53 -23 -158 -30l-47 -5l-39 -65q89 -17 143 -69.5t54 -123.5
q0 -84 -75.5 -144t-217.5 -60q-127 0 -230 96l76 78q47 -31 135 -31z" />
    <glyph glyph-name="Tcaron" unicode="&#x164;" horiz-adv-x="1327" 
d="M532 0v1219h-516v215h1295v-215h-516v-1219h-263zM733 1556h-143l-78 68q-129 113 -207 234q71 47 84 57l273 -197l270 197q53 -36 86 -57q-79 -117 -209 -234z" />
    <glyph glyph-name="tcaron" unicode="&#x165;" horiz-adv-x="1187" 
d="M586 -25q-346 0 -346 379v512h-224v156l224 39v258l247 53v-311h308v-195h-308v-520q0 -98 48 -136t174 -38h86v-162q-84 -35 -209 -35zM879 1020l165 493l195 -55l-47 -102q-100 -221 -219 -361z" />
    <glyph glyph-name="Tbar" unicode="&#x166;" horiz-adv-x="1327" 
d="M180 791h352v428h-516v215h1295v-215h-516v-428h352v-156h-352v-635h-263v635h-352v156z" />
    <glyph glyph-name="tbar" unicode="&#x167;" horiz-adv-x="843" 
d="M586 -25q-346 0 -346 379v160h-177v150h177v202h-224v156l224 39v258l247 53v-311h308v-195h-308v-202h263v-150h-263v-168q0 -98 48 -136t174 -38h86v-162q-87 -35 -209 -35z" />
    <glyph glyph-name="Utilde" unicode="&#x168;" horiz-adv-x="1720" 
d="M860 -25q-123 0 -228.5 23.5t-190.5 72t-145.5 118.5t-93 166.5t-32.5 213.5v865h264v-865q0 -376 426 -376t426 376v865h262v-865q0 -290 -183 -442t-505 -152zM1114 1847l141 -16q-23 -116 -84 -177t-153 -61q-51 0 -105.5 26.5t-105.5 52.5t-94 26t-71.5 -23.5
t-37.5 -66.5l-141 16q23 116 84 177t153 61q39 0 82 -16.5t74.5 -36t72.5 -36t77 -16.5q43 0 71 23.5t37 66.5z" />
    <glyph glyph-name="utilde" unicode="&#x169;" horiz-adv-x="1396" 
d="M698 -25q-263 0 -413 119t-150 352v615h248v-617q0 -133 87 -202.5t228 -69.5t227.5 69.5t86.5 202.5v617h250v-615q0 -233 -151 -352t-413 -119zM952 1491l142 -16q-23 -115 -84.5 -176.5t-153.5 -61.5q-51 0 -105.5 26t-105.5 52t-94 26t-71.5 -23.5t-37.5 -66.5
l-141 17q23 115 84.5 176t153.5 61q49 0 102.5 -26t105.5 -52t97 -26q43 0 71 23.5t37 66.5z" />
    <glyph glyph-name="Umacron" unicode="&#x16a;" horiz-adv-x="1720" 
d="M860 -25q-123 0 -228.5 23.5t-190.5 72t-145.5 118.5t-93 166.5t-32.5 213.5v865h264v-865q0 -376 426 -376t426 376v865h262v-865q0 -290 -183 -442t-505 -152zM510 1640v164h694v-164h-694z" />
    <glyph glyph-name="umacron" unicode="&#x16b;" horiz-adv-x="1396" 
d="M698 -25q-263 0 -413 119t-150 352v615h248v-617q0 -133 87 -202.5t228 -69.5t227.5 69.5t86.5 202.5v617h250v-615q0 -233 -151 -352t-413 -119zM350 1284v164h694v-164h-694z" />
    <glyph glyph-name="Ubreve" unicode="&#x16c;" horiz-adv-x="1720" 
d="M860 -25q-123 0 -228.5 23.5t-190.5 72t-145.5 118.5t-93 166.5t-32.5 213.5v865h264v-865q0 -376 426 -376t426 376v865h262v-865q0 -290 -183 -442t-505 -152zM858 1563q-149 0 -248 85t-133 224h170q60 -154 211 -154q72 0 126 39.5t83 114.5h170
q-32 -138 -131.5 -223.5t-247.5 -85.5z" />
    <glyph glyph-name="ubreve" unicode="&#x16d;" horiz-adv-x="1396" 
d="M698 -25q-263 0 -413 119t-150 352v615h248v-617q0 -133 87 -202.5t228 -69.5t227.5 69.5t86.5 202.5v617h250v-615q0 -233 -151 -352t-413 -119zM698 1210q-149 0 -248 85.5t-133 224.5h170q60 -154 211 -154q72 0 126 39.5t83 114.5h170q-32 -138 -131.5 -224
t-247.5 -86z" />
    <glyph glyph-name="Uring" unicode="&#x16e;" horiz-adv-x="1720" 
d="M860 -25q-123 0 -228.5 23.5t-190.5 72t-145.5 118.5t-93 166.5t-32.5 213.5v865h264v-865q0 -376 426 -376t426 376v865h262v-865q0 -290 -183 -442t-505 -152zM758 1726q0 -37 28 -61.5t72 -24.5t72 24.5t28 61.5q0 38 -28 62t-72 24t-72 -24t-28 -62zM606 1726
q0 92 73 156t179 64t178 -64t72 -156t-72 -155.5t-178 -63.5t-179 63.5t-73 155.5z" />
    <glyph glyph-name="uring" unicode="&#x16f;" horiz-adv-x="1396" 
d="M698 -25q-263 0 -413 119t-150 352v615h248v-617q0 -133 87 -202.5t228 -69.5t227.5 69.5t86.5 202.5v617h250v-615q0 -233 -151 -352t-413 -119zM598 1370q0 -37 28 -61.5t72 -24.5t72.5 24.5t28.5 61.5q0 38 -28.5 62t-72.5 24t-72 -24t-28 -62zM446 1370
q0 92 73 155.5t179 63.5t178 -63.5t72 -155.5t-72 -155.5t-178 -63.5t-179 63.5t-73 155.5z" />
    <glyph glyph-name="Uhungarumlaut" unicode="&#x170;" horiz-adv-x="1720" 
d="M860 -25q-123 0 -228.5 23.5t-190.5 72t-145.5 118.5t-93 166.5t-32.5 213.5v865h264v-865q0 -376 426 -376t426 376v865h262v-865q0 -290 -183 -442t-505 -152zM993 1800l-143 -108q-138 -107 -246 -146l-80 74l314 297zM1421 1800l-143 -108q-138 -107 -246 -146
l-82 74q185 171 316 297z" />
    <glyph glyph-name="uhungarumlaut" unicode="&#x171;" horiz-adv-x="1396" 
d="M698 -25q-263 0 -413 119t-150 352v615h248v-617q0 -133 87 -202.5t228 -69.5t227.5 69.5t86.5 202.5v617h250v-615q0 -233 -151 -352t-413 -119zM795 1444l-144 -109q-137 -106 -245 -145l-80 74l313 297zM1223 1444l-144 -109q-137 -106 -245 -145l-82 74
q159 147 315 297z" />
    <glyph glyph-name="Uogonek" unicode="&#x172;" horiz-adv-x="1720" 
d="M672 -238q0 62 30.5 118t85.5 97q-139 9 -251.5 50.5t-195 114t-127 181.5t-44.5 246v865h264v-793q0 -113 20 -192.5t67.5 -139t131.5 -88t207 -28.5t206.5 28.5t131.5 88t68 139t20 192.5v793h262v-865q0 -260 -149.5 -409t-413.5 -176q-133 -95 -133 -189
q0 -43 35.5 -67.5t91.5 -24.5q67 0 104 33l76 -80q-53 -56 -103.5 -80.5t-121.5 -24.5q-118 0 -190 61t-72 150z" />
    <glyph glyph-name="uogonek" unicode="&#x173;" horiz-adv-x="1396" 
d="M535 -238q0 62 30 118.5t84 96.5q-240 12 -377 130t-137 339v615h248v-617q0 -133 87 -202.5t228 -69.5t227.5 69.5t86.5 202.5v617h250v-615q0 -194 -107.5 -309t-298.5 -147q-141 -95 -141 -195q0 -43 35.5 -67.5t91.5 -24.5q70 0 106 33l76 -80q-57 -53 -108 -79
t-121 -26q-117 0 -188.5 61t-71.5 150z" />
    <glyph glyph-name="Wcircumflex" unicode="&#x174;" horiz-adv-x="2416" 
d="M1065 1434h285l354 -1147l405 1147h281l-508 -1434h-338l-336 1110l-336 -1110h-340l-505 1434h278l406 -1147zM1137 1896h143l76 -67q131 -117 209 -232l-86 -57l-271 193l-272 -193l-84 57q85 128 207 232z" />
    <glyph glyph-name="wcircumflex" unicode="&#x175;" horiz-adv-x="1939" 
d="M281 1061l290 -785l287 785h221l287 -787l291 787h268l-420 -1061h-258l-278 756l-279 -756h-258l-418 1061h267zM897 1540h143l76 -67q131 -117 209 -232l-86 -57l-270 192l-273 -192l-84 57q85 128 207 232z" />
    <glyph glyph-name="Ycircumflex" unicode="&#x176;" horiz-adv-x="1482" 
d="M1174 1434h296l-598 -869v-565h-264v565l-596 869h295l434 -650zM670 1896h143l76 -67q131 -117 209 -232l-86 -57l-271 193l-272 -193l-84 57q85 128 207 232z" />
    <glyph glyph-name="ycircumflex" unicode="&#x177;" horiz-adv-x="1265" 
d="M207 -530l-70 151q156 57 234 130t135 206l22 53l-514 1051h260l371 -770l350 770h256l-510 -1139q-89 -200 -209.5 -303.5t-324.5 -148.5zM563 1540h144l75 -67q131 -117 209 -232l-86 -57l-270 192l-273 -192l-83 57q86 130 206 232z" />
    <glyph glyph-name="Ydieresis" unicode="&#x178;" horiz-adv-x="1482" 
d="M1174 1434h296l-598 -869v-565h-264v565l-596 869h295l434 -650zM385 1608v223h213v-223h-213zM885 1608v223h211v-223h-211z" />
    <glyph glyph-name="Zacute" unicode="&#x179;" horiz-adv-x="1343" 
d="M57 0v207l873 1012h-826v215h1158v-209l-873 -1012h897v-213h-1229zM983 1792l-106 -82q-141 -109 -295 -151l-80 77l334 283z" />
    <glyph glyph-name="zacute" unicode="&#x17a;" horiz-adv-x="1093" 
d="M41 0v188l666 680h-627v193h948v-191l-668 -677h693v-193h-1012zM856 1436l-106 -82q-143 -110 -295 -152l-80 78l334 283z" />
    <glyph glyph-name="Zdotaccent" unicode="&#x17b;" horiz-adv-x="1343" 
d="M57 0v207l873 1012h-826v215h1158v-209l-873 -1012h897v-213h-1229zM565 1608v223h213v-223h-213z" />
    <glyph glyph-name="zdotaccent" unicode="&#x17c;" horiz-adv-x="1093" 
d="M41 0v188l666 680h-627v193h948v-191l-668 -677h693v-193h-1012zM436 1251v224h213v-224h-213z" />
    <glyph glyph-name="Zcaron" unicode="&#x17d;" horiz-adv-x="1343" 
d="M57 0v207l873 1012h-826v215h1158v-209l-873 -1012h897v-213h-1229zM754 1556h-144l-78 68q-126 111 -206 234q71 47 84 57l272 -197l270 197q53 -36 86 -57q-79 -117 -209 -234z" />
    <glyph glyph-name="zcaron" unicode="&#x17e;" horiz-adv-x="1093" 
d="M41 0v188l666 680h-627v193h948v-191l-668 -677h693v-193h-1012zM623 1200h-144l-78 68q-128 112 -206 233q57 38 84 58l272 -197l270 197q67 -46 86 -58q-78 -115 -209 -233z" />
    <glyph glyph-name="longs" unicode="&#x17f;" horiz-adv-x="837" 
d="M668 1495q98 0 153 -6v-191q-83 5 -108 5q-125 0 -174.5 -39t-49.5 -123v-1141h-247v866h-226v195h226v92q0 177 102.5 259.5t323.5 82.5z" />
    <glyph glyph-name="uni0191" unicode="&#x191;" horiz-adv-x="1269" 
d="M111 -481l-146 121q123 100 164 181t41 224v1389h1069v-211h-805v-420h719v-211h-719v-516q0 -210 -72 -332.5t-251 -224.5z" />
    <glyph glyph-name="florin" unicode="&#x192;" horiz-adv-x="837" 
d="M174 -479l-143 119q125 101 168 182.5t43 222.5v821h-226v195h226v92q0 177 102.5 259.5t323.5 82.5q98 0 153 -6v-191q-46 5 -108 5q-125 0 -174.5 -39t-49.5 -123v-80h308v-195h-308v-790q0 -211 -69.5 -333t-245.5 -222z" />
    <glyph glyph-name="Aringacute" unicode="&#x1fa;" horiz-adv-x="1638" 
d="M547 1522q0 93 78 156t194 63t193.5 -63t77.5 -156t-78 -158l602 -1364h-291l-137 332h-731l-138 -332h-290l600 1364q-80 61 -80 158zM819 1217l-282 -676h565zM983 2054l117 -129l-94 -47q-129 -64 -265 -104l-67 81zM729 1522q0 -37 26 -61.5t64 -24.5q37 0 63.5 25
t26.5 61q0 38 -26 62t-64 24q-39 0 -64.5 -24t-25.5 -62z" />
    <glyph glyph-name="aringacute" unicode="&#x1fb;" horiz-adv-x="1304" 
d="M905 573v93q0 106 -62 163.5t-204 57.5q-76 0 -141 -35t-84 -94h-287q30 148 157.5 237.5t364.5 89.5q123 0 216.5 -22t154.5 -61t99.5 -98t54.5 -127.5t16 -153.5v-414q0 -28 18 -42.5t47 -14.5h72v-162l-31 -4q-70 -9 -94 -9q-194 0 -254 132q-162 -134 -418 -134
q-208 0 -342.5 93.5t-134.5 244.5t133.5 240.5t343.5 89.5q232 0 375 -70zM395 1370q0 93 78 156t195 63q116 0 193 -63t77 -156t-77 -156t-193 -63q-117 0 -195 63t-78 156zM905 266v133q-113 66 -299 66q-121 0 -189.5 -38.5t-68.5 -113.5q0 -74 68.5 -112.5t189.5 -38.5
q85 0 163.5 28t135.5 76zM831 1913l117 -129l-94 -47q-135 -67 -264 -105l-68 82zM578 1370q0 -37 26 -61.5t64 -24.5q37 0 63.5 25t26.5 61q0 38 -26 62t-64 24q-39 0 -64.5 -24t-25.5 -62z" />
    <glyph glyph-name="AEacute" unicode="&#x1fc;" horiz-adv-x="2115" 
d="M516 328l-199 -328h-294l886 1434h1102v-211h-676v-381h590v-209h-590v-424h699v-209h-961v328h-557zM1073 537v688l-436 -688h436zM1630 1792l-106 -82q-141 -109 -295 -151l-80 77l334 283z" />
    <glyph glyph-name="aeacute" unicode="&#x1fd;" horiz-adv-x="2193" 
d="M922 567q0 28 4 74v25q0 221 -287 221q-209 0 -244 -129h-248q30 148 153.5 237.5t348.5 89.5q146 0 259 -38.5t177 -108.5q82 70 196.5 108.5t240.5 38.5q265 0 430.5 -156.5t165.5 -404.5q0 -53 -7 -80h-940q20 -123 126.5 -197.5t267.5 -74.5q219 0 348 135l135 -80
q-185 -252 -498 -252q-144 0 -272 46.5t-215 130.5q-222 -177 -533 -177q-200 0 -328 93.5t-128 244.5t127.5 240.5t328.5 89.5q237 0 392 -76zM973 289q-25 63 -35 98q-125 78 -301 78q-309 0 -309 -152q0 -74 74 -112.5t204 -38.5q110 0 208.5 36t158.5 91zM1522 887
q-146 0 -238.5 -69.5t-112.5 -192.5h695q-10 119 -106.5 190.5t-237.5 71.5zM1421 1436l-106 -82q-143 -110 -295 -152l-80 78l334 283z" />
    <glyph glyph-name="Oslashacute" unicode="&#x1fe;" horiz-adv-x="1714" 
d="M1167 1792l-106 -82q-141 -109 -295 -151l-80 77l334 283zM1628 717q0 -158 -53 -293.5t-149.5 -235t-243 -156.5t-324.5 -57q-267 0 -455 121l-151 -172l-100 86l147 170q-103 100 -158 238t-55 299q0 157 53 292t150 235t243.5 157t325.5 57q260 0 451 -123l153 174
l101 -86l-148 -170q103 -100 158 -238t55 -298zM1360 717q0 214 -111 350l-688 -793q122 -81 297 -81q229 0 365.5 141.5t136.5 382.5zM354 717q0 -212 109 -352l688 792q-121 82 -293 82q-231 0 -367.5 -140.5t-136.5 -381.5z" />
    <glyph glyph-name="oslashacute" unicode="&#x1ff;" horiz-adv-x="1376" 
d="M991 1436l-106 -82q-143 -110 -295 -152l-80 78l334 283zM1300 530q0 -246 -167.5 -400.5t-444.5 -154.5q-191 0 -334 76l-118 -135l-103 86l113 125q-170 156 -170 403q0 245 167 400t445 155q187 0 332 -77l121 137l102 -86l-113 -127q170 -156 170 -402zM330 530
q0 -143 67 -231l480 547q-80 41 -189 41q-169 0 -263.5 -95t-94.5 -262zM1047 530q0 138 -70 230l-479 -547q80 -41 190 -41q168 0 263.5 95t95.5 263z" />
    <glyph glyph-name="Scommaaccent" unicode="&#x218;" horiz-adv-x="1425" 
d="M727 188q162 0 254 51.5t92 135.5q0 96 -87 147.5t-343 108.5q-268 60 -387 172t-119 268q0 173 145.5 280t399.5 107q282 0 432 -115t182 -321h-270q-14 105 -96.5 164t-227.5 59q-146 0 -221 -45.5t-75 -122.5q0 -76 87 -135.5t281 -107.5q152 -37 252 -74.5t174.5 -89
t107.5 -119.5t33 -160q0 -188 -162 -302t-444 -114q-385 0 -639 320l135 100q204 -207 496 -207zM555 -500l139 408l187 -53l-45 -95q-89 -190 -183 -288z" />
    <glyph glyph-name="scommaaccent" unicode="&#x219;" horiz-adv-x="1181" 
d="M584 895q-94 0 -151.5 -25.5t-57.5 -70.5q0 -49 68.5 -89t252.5 -83q207 -51 307.5 -129.5t100.5 -206.5q0 -142 -124 -229t-359 -87q-318 0 -543 252l108 95q183 -156 412 -156q121 0 186.5 34t65.5 79q0 54 -67 89.5t-240 77.5q-225 56 -323.5 138.5t-98.5 206.5
q0 130 118.5 212t340.5 82q201 0 328 -84.5t165 -242.5h-244q-45 137 -245 137zM444 -500l140 408l186 -53l-45 -95q-90 -192 -182 -288z" />
    <glyph glyph-name="uni021A" unicode="&#x21a;" horiz-adv-x="1351" 
d="M545 0v1219h-516v215h1294v-215h-516v-1219h-262zM457 -500l139 408l186 -53l-45 -95q-90 -192 -182 -288z" />
    <glyph glyph-name="uni021B" unicode="&#x21b;" horiz-adv-x="841" 
d="M586 -25q-346 0 -346 379v512h-224v156l224 39v258l247 53v-311h308v-195h-308v-520q0 -98 48 -136t174 -38h86v-162q-84 -35 -209 -35zM319 -500l140 408l186 -53l-45 -95q-90 -192 -182 -288z" />
    <glyph glyph-name="dotlessj" unicode="&#x237;" horiz-adv-x="567" 
d="M92 -479l-143 119q125 101 168 182.5t43 222.5v1016h248v-985q0 -211 -70 -332t-246 -223z" />
    <glyph glyph-name="apostrophe" unicode="&#x2bc;" horiz-adv-x="892" 
d="M264 1036l166 494l195 -55l-47 -103q-98 -216 -220 -360z" />
    <glyph glyph-name="circumflex" unicode="&#x2c6;" horiz-adv-x="892" 
d="M375 1499h143l76 -67q131 -117 209 -232l-86 -57l-271 192l-272 -192l-84 57q85 128 207 232z" />
    <glyph glyph-name="caron" unicode="&#x2c7;" horiz-adv-x="892" 
d="M518 1159h-143l-78 68q-130 114 -207 233q57 38 84 58l272 -197l271 197q67 -46 86 -58q-78 -115 -209 -233z" />
    <glyph glyph-name="uni02C9" unicode="&#x2c9;" horiz-adv-x="892" 
d="M98 1243v164h695v-164h-695z" />
    <glyph glyph-name="breve" unicode="&#x2d8;" horiz-adv-x="892" 
d="M446 1169q-149 0 -247.5 85.5t-132.5 224.5h170q60 -154 210 -154q72 0 126 39.5t83 114.5h170q-32 -138 -131.5 -224t-247.5 -86z" />
    <glyph glyph-name="dotaccent" unicode="&#x2d9;" horiz-adv-x="892" 
d="M340 1210v224h213v-224h-213z" />
    <glyph glyph-name="ring" unicode="&#x2da;" horiz-adv-x="892" 
d="M346 1329q0 -37 28 -61.5t72 -24.5t72.5 24.5t28.5 61.5q0 38 -28.5 62t-72.5 24t-72 -24t-28 -62zM195 1329q0 92 72.5 155.5t178.5 63.5t178 -63.5t72 -155.5t-72 -155.5t-178 -63.5t-178.5 63.5t-72.5 155.5z" />
    <glyph glyph-name="ogonek" unicode="&#x2db;" horiz-adv-x="892" 
d="M399 0h191q-162 -107 -162 -207q0 -42 37 -67t92 -25q63 0 105 31l77 -78q-98 -103 -229 -103q-117 0 -189.5 60t-72.5 149q0 69 41 133.5t110 106.5z" />
    <glyph glyph-name="tilde" unicode="&#x2dc;" horiz-adv-x="892" 
d="M700 1452l142 -16q-23 -116 -84.5 -177t-153.5 -61q-41 0 -84.5 16.5t-74.5 36t-71.5 36t-74.5 16.5q-43 0 -71.5 -24t-37.5 -67l-141 17q23 115 84.5 176t153.5 61q49 0 102.5 -26t105.5 -52t97 -26q43 0 71 23.5t37 66.5z" />
    <glyph glyph-name="hungarumlaut" unicode="&#x2dd;" horiz-adv-x="892" 
d="M469 1403l-143 -109q-136 -105 -246 -145l-80 74l313 297zM897 1403l-143 -109q-136 -105 -246 -145l-82 74q159 147 315 297z" />
    <glyph glyph-name="gravecomb" unicode="&#x300;" horiz-adv-x="0" 
d="M-846 1315l-110 74l155 133l332 -283l-84 -84q-116 40 -293 160z" />
    <glyph glyph-name="acutecomb" unicode="&#x301;" horiz-adv-x="0" 
d="M-373 1395l-106 -82q-143 -110 -295 -152l-80 78l334 283z" />
    <glyph glyph-name="uni0302" unicode="&#x302;" horiz-adv-x="0" 
d="M-733 1499h143l76 -67q131 -117 209 -232l-86 -57l-271 192l-272 -192l-84 57q85 128 207 232z" />
    <glyph glyph-name="tildecomb" unicode="&#x303;" horiz-adv-x="0" 
d="M-408 1452l142 -16q-23 -116 -84.5 -177t-153.5 -61q-41 0 -84.5 16.5t-74.5 36t-71.5 36t-74.5 16.5q-43 0 -71.5 -24t-37.5 -67l-141 17q23 115 84.5 176t153.5 61q49 0 102.5 -26t105.5 -52t97 -26q43 0 71 23.5t37 66.5z" />
    <glyph glyph-name="uni0304" unicode="&#x304;" horiz-adv-x="0" 
d="M-1004 1243v164h695v-164h-695z" />
    <glyph glyph-name="uni0306" unicode="&#x306;" horiz-adv-x="0" 
d="M-662 1169q-149 0 -247.5 85.5t-132.5 224.5h170q60 -154 210 -154q72 0 126 39.5t83 114.5h170q-32 -138 -131.5 -224t-247.5 -86z" />
    <glyph glyph-name="uni0307" unicode="&#x307;" horiz-adv-x="0" 
d="M-768 1210v224h213v-224h-213z" />
    <glyph glyph-name="uni0308" unicode="&#x308;" horiz-adv-x="0" 
d="M-1018 1210v224h213v-224h-213zM-518 1210v224h211v-224h-211z" />
    <glyph glyph-name="uni030A" unicode="&#x30a;" horiz-adv-x="0" 
d="M-762 1329q0 -37 28 -61.5t72 -24.5t72.5 24.5t28.5 61.5q0 38 -28.5 62t-72.5 24t-72 -24t-28 -62zM-913 1329q0 92 72.5 155.5t178.5 63.5t178 -63.5t72 -155.5t-72 -155.5t-178 -63.5t-178.5 63.5t-72.5 155.5z" />
    <glyph glyph-name="uni030C" unicode="&#x30c;" horiz-adv-x="0" 
d="M-590 1159h-143l-78 68q-130 114 -207 233q57 38 84 58l272 -197l271 197q67 -46 86 -58q-78 -115 -209 -233z" />
    <glyph glyph-name="uni0327" unicode="&#x327;" horiz-adv-x="0" 
d="M-719 -344q61 0 98 19.5t37 54.5q0 43 -57.5 67.5t-157.5 26.5l-16 16l92 160h176l-55 -92q86 -18 141 -69.5t55 -121.5q0 -85 -75 -144.5t-217 -59.5q-131 0 -230 96l74 76q44 -29 135 -29z" />
    <glyph glyph-name="uni03A9" unicode="&#x3a9;" horiz-adv-x="1716" 
d="M858 1458q144 0 267.5 -34t215 -96t156.5 -147t98 -189t33 -220q0 -183 -83 -325.5t-228 -233.5h291v-213h-600v215q352 208 352 535q0 209 -134.5 349t-367.5 140q-118 0 -214.5 -38.5t-158.5 -105.5t-95.5 -155.5t-33.5 -189.5q0 -328 353 -535v-215h-600v213h288
q-145 91 -228 233.5t-83 325.5q0 145 52.5 270.5t149.5 218t244 145t326 52.5z" />
    <glyph glyph-name="uni0400" unicode="&#x400;" horiz-adv-x="1343" 
d="M170 0v1434h1069v-211h-805v-381h719v-209h-719v-424h828v-209h-1092zM518 1712l-110 74l155 133l332 -283q-13 -12 -26.5 -26t-30.5 -31l-27 -27q-116 40 -293 160z" />
    <glyph glyph-name="afii10023" unicode="&#x401;" horiz-adv-x="1343" 
d="M170 0v1434h1069v-211h-805v-381h719v-209h-719v-424h828v-209h-1092zM358 1608v223h213v-223h-213zM858 1608v223h211v-223h-211z" />
    <glyph glyph-name="afii10051" unicode="&#x402;" horiz-adv-x="1818" 
d="M1468 469q0 116 -82 189t-239 73q-100 0 -191.5 -25.5t-148.5 -66.5v-639h-262v1219h-516v215h1294v-215h-516v-390q75 47 187.5 77t217.5 30q230 0 375.5 -125t145.5 -328q0 -211 -135.5 -347t-350.5 -136q-158 0 -276 86l61 141q56 -16 131 -16q142 0 223.5 74.5
t81.5 183.5z" />
    <glyph glyph-name="afii10052" unicode="&#x403;" horiz-adv-x="1280" 
d="M999 1792l-106 -82q-141 -109 -295 -151l-80 77l334 283zM170 0v1434h1081v-215h-817v-1219h-264z" />
    <glyph glyph-name="afii10053" unicode="&#x404;" horiz-adv-x="1648" 
d="M86 717q0 333 217 537t576 204q149 0 273.5 -40t210 -110.5t139.5 -163.5t73 -202h-266q-29 135 -145.5 216t-284.5 81q-204 0 -346.5 -109.5t-172.5 -306.5h740v-213h-740q31 -198 175.5 -307.5t349.5 -109.5q336 0 506 235l161 -80q-116 -186 -279 -279.5t-388 -93.5
q-238 0 -419.5 93t-280.5 261.5t-99 387.5z" />
    <glyph glyph-name="afii10054" unicode="&#x405;" horiz-adv-x="1425" 
d="M727 188q162 0 254 51.5t92 135.5q0 96 -87 147.5t-343 108.5q-268 60 -387 172t-119 268q0 173 145.5 280t399.5 107q282 0 432 -115t182 -321h-270q-14 105 -96.5 164t-227.5 59q-146 0 -221 -45.5t-75 -122.5q0 -76 87 -135.5t281 -107.5q152 -37 252 -74.5t174.5 -89
t107.5 -119.5t33 -160q0 -188 -162 -302t-444 -114q-385 0 -639 320l135 100q204 -207 496 -207z" />
    <glyph glyph-name="afii10055" unicode="&#x406;" horiz-adv-x="626" 
d="M182 1434h264v-1434h-264v1434z" />
    <glyph glyph-name="afii10056" unicode="&#x407;" horiz-adv-x="626" 
d="M182 1434h264v-1434h-264v1434zM-41 1608v223h213v-223h-213zM459 1608v223h211v-223h-211z" />
    <glyph glyph-name="afii10057" unicode="&#x408;" horiz-adv-x="1376" 
d="M621 193q158 0 240.5 82t82.5 225v934h262v-928q0 -246 -146.5 -388.5t-416.5 -142.5q-167 0 -306 86t-231 246l156 90q146 -204 359 -204z" />
    <glyph glyph-name="afii10058" unicode="&#x409;" horiz-adv-x="2361" 
d="M166 -16l-143 118q122 100 163 182t41 224v926h1174v-570h307q270 0 424 -115.5t154 -316.5q0 -200 -154.5 -316t-423.5 -116h-571v1219h-648v-680q0 -209 -72.5 -331.5t-250.5 -223.5zM2021 432q0 219 -348 219h-272v-438h272q348 0 348 219z" />
    <glyph glyph-name="afii10059" unicode="&#x40a;" horiz-adv-x="2422" 
d="M2347 432q0 -200 -154.5 -316t-425.5 -116h-569v651h-764v-651h-264v1434h264v-570h764v570h262v-570h307q271 0 425.5 -115.5t154.5 -316.5zM2083 432q0 219 -348 219h-275v-438h275q348 0 348 219z" />
    <glyph glyph-name="afii10060" unicode="&#x40b;" horiz-adv-x="1867" 
d="M1141 725q-101 0 -190 -24.5t-144 -65.5v-635h-262v1219h-516v215h1294v-215h-516v-390q75 47 189.5 77t222.5 30q247 0 380.5 -122.5t133.5 -358.5v-455h-263v430q0 152 -80 223.5t-249 71.5z" />
    <glyph glyph-name="afii10061" unicode="&#x40c;" horiz-adv-x="1505" 
d="M1432 1434l-553 -590l626 -844h-319l-477 664l-275 -293v-371h-264v1434h264v-721l682 721h316zM1079 1792l-106 -82q-141 -109 -295 -151l-80 77l334 283z" />
    <glyph glyph-name="uni040D" unicode="&#x40d;" horiz-adv-x="1693" 
d="M627 1712l-111 74l156 133l332 -283q-13 -12 -26.5 -26t-30.5 -31l-27 -27q-116 40 -293 160zM1522 1434v-1434h-252v1032l-871 -1032h-229v1434h252v-1035l870 1035h230z" />
    <glyph glyph-name="afii10062" unicode="&#x40e;" horiz-adv-x="1474" 
d="M735 1563q-149 0 -248 85t-133 224h170q60 -154 211 -154q72 0 126 39.5t83 114.5h170q-32 -138 -131.5 -223.5t-247.5 -85.5zM301 1434l449 -756l430 756h280l-794 -1434h-281l240 432l-605 1002h281z" />
    <glyph glyph-name="afii10145" unicode="&#x40f;" horiz-adv-x="1677" 
d="M1245 213v1221h262v-1434h-536v-246h-264v246h-537v1434h264v-1221h811z" />
    <glyph glyph-name="afii10017" unicode="&#x410;" horiz-adv-x="1638" 
d="M981 1434l633 -1434h-291l-137 332h-731l-138 -332h-290l630 1434h324zM819 1217l-282 -676h565z" />
    <glyph glyph-name="afii10018" unicode="&#x411;" horiz-adv-x="1394" 
d="M434 864h305q271 0 425.5 -115.5t154.5 -316.5q0 -200 -154.5 -316t-425.5 -116h-569v1434h1001v-209h-737v-361zM1055 432q0 112 -87 165.5t-263 53.5h-271v-438h271q350 0 350 219z" />
    <glyph glyph-name="afii10019" unicode="&#x412;" horiz-adv-x="1495" 
d="M170 0v1434h596q274 0 421.5 -104.5t147.5 -280.5q0 -104 -61 -184t-168 -109q148 -29 230.5 -120t82.5 -220q0 -196 -155.5 -306t-460.5 -110h-633zM1155 422q0 217 -385 217h-340v-436h340q385 0 385 219zM1083 1038q0 191 -344 191h-309v-389h309q166 0 255 52t89 146
z" />
    <glyph glyph-name="afii10020" unicode="&#x413;" horiz-adv-x="1280" 
d="M170 0v1434h1081v-215h-817v-1219h-264z" />
    <glyph glyph-name="afii10021" unicode="&#x414;" horiz-adv-x="1525" 
d="M1495 209v-455h-262v246h-944v-246h-264v455h151q73 196 106 440t33 481v304h985v-1225h195zM1044 209v1016h-473q0 -629 -127 -1016h600z" />
    <glyph glyph-name="afii10022" unicode="&#x415;" horiz-adv-x="1343" 
d="M170 0v1434h1069v-211h-805v-381h719v-209h-719v-424h828v-209h-1092z" />
    <glyph glyph-name="afii10024" unicode="&#x416;" horiz-adv-x="2236" 
d="M1489 666l-240 -275v-391h-264v391l-242 275l-426 -666h-317l582 854l-506 580h309l600 -678v678h264v-678l600 678h308l-504 -580l579 -854h-315z" />
    <glyph glyph-name="afii10025" unicode="&#x417;" horiz-adv-x="1318" 
d="M920 1059q0 83 -79 134.5t-208 51.5t-211.5 -57t-89.5 -156h-242q15 201 164 313.5t393 112.5q231 0 384 -102.5t153 -270.5q0 -123 -85 -213t-202 -124q154 -41 244 -133t90 -224q0 -184 -158.5 -300t-433.5 -116q-345 0 -569 269l133 100q78 -76 185 -118t226 -42
q158 0 251 58.5t93 158.5q0 121 -112.5 181.5t-292.5 60.5h-141v203h139q161 0 265 57.5t104 155.5z" />
    <glyph glyph-name="afii10026" unicode="&#x418;" horiz-adv-x="1693" 
d="M1522 1434v-1434h-252v1032l-871 -1032h-229v1434h252v-1035l870 1035h230z" />
    <glyph glyph-name="afii10027" unicode="&#x419;" horiz-adv-x="1693" 
d="M846 1563q-149 0 -248 85t-133 224h170q60 -154 211 -154q72 0 126 39.5t83 114.5h170q-32 -138 -131.5 -223.5t-247.5 -85.5zM1522 1434v-1434h-252v1032l-871 -1032h-229v1434h252v-1035l870 1035h230z" />
    <glyph glyph-name="afii10028" unicode="&#x41a;" horiz-adv-x="1505" 
d="M1432 1434l-553 -590l626 -844h-319l-477 664l-275 -293v-371h-264v1434h264v-721l682 721h316z" />
    <glyph glyph-name="afii10029" unicode="&#x41b;" horiz-adv-x="1619" 
d="M489 1219v-680q0 -209 -72.5 -331.5t-250.5 -223.5q-19 16 -143 118q122 100 163 182t41 224v926h1223v-1434h-264v1219h-697z" />
    <glyph glyph-name="afii10030" unicode="&#x41c;" horiz-adv-x="2048" 
d="M1100 260h-154l-524 746v-1006h-252v1434h236l618 -893l616 893h236v-1434h-252v1006z" />
    <glyph glyph-name="afii10031" unicode="&#x41d;" horiz-adv-x="1687" 
d="M170 0v1434h264v-570h819v570h263v-1434h-263v651h-819v-651h-264z" />
    <glyph glyph-name="afii10032" unicode="&#x41e;" horiz-adv-x="1714" 
d="M1628 717q0 -158 -53 -293.5t-149.5 -235t-243 -156.5t-324.5 -57q-179 0 -325.5 57t-243.5 156.5t-150 235t-53 293.5q0 157 53 292t150 235t243.5 157t325.5 57q178 0 324.5 -57t243 -157t149.5 -235t53 -292zM354 717q0 -241 136.5 -382.5t367.5 -141.5
q229 0 365.5 141.5t136.5 382.5t-136 381.5t-366 140.5q-231 0 -367.5 -140.5t-136.5 -381.5z" />
    <glyph glyph-name="afii10033" unicode="&#x41f;" horiz-adv-x="1685" 
d="M1513 1434v-1434h-262v1219h-817v-1219h-264v1434h1343z" />
    <glyph glyph-name="afii10034" unicode="&#x420;" horiz-adv-x="1429" 
d="M1366 973q0 -225 -170 -342t-477 -117h-285v-514h-264v1434h549q307 0 477 -117t170 -344zM1098 973q0 129 -98 190.5t-298 61.5h-268v-502h268q200 0 298 61t98 189z" />
    <glyph glyph-name="afii10035" unicode="&#x421;" horiz-adv-x="1648" 
d="M86 717q0 333 217 537t576 204q149 0 273.5 -40t210 -110.5t139.5 -163.5t73 -202h-266q-29 135 -145.5 216t-284.5 81q-111 0 -206 -34.5t-166.5 -98.5t-112 -164.5t-40.5 -224.5q0 -166 72.5 -286.5t191 -179t267.5 -58.5q329 0 506 245l161 -90q-116 -186 -279 -279.5
t-388 -93.5q-238 0 -419.5 93t-280.5 261.5t-99 387.5z" />
    <glyph glyph-name="afii10036" unicode="&#x422;" horiz-adv-x="1351" 
d="M545 0v1219h-516v215h1294v-215h-516v-1219h-262z" />
    <glyph glyph-name="afii10037" unicode="&#x423;" horiz-adv-x="1474" 
d="M301 1434l449 -756l430 756h280l-794 -1434h-281l240 432l-605 1002h281z" />
    <glyph glyph-name="afii10038" unicode="&#x424;" horiz-adv-x="1755" 
d="M748 422v588h-23q-174 0 -279.5 -79t-105.5 -214t106 -215t279 -80h23zM748 1434h262v-207h18q294 0 473.5 -141t179.5 -369t-179.5 -369t-473.5 -141h-18v-207h-262v207h-21q-294 0 -473.5 141t-179.5 369t179.5 369t473.5 141h21v207zM1010 1010v-588h20q173 0 279 80
t106 215t-105.5 214t-279.5 79h-20z" />
    <glyph glyph-name="afii10039" unicode="&#x425;" horiz-adv-x="1488" 
d="M1477 0h-308l-426 559l-424 -559h-307l559 743l-516 691h307l381 -504l383 504h308l-519 -691z" />
    <glyph glyph-name="afii10040" unicode="&#x426;" horiz-adv-x="1730" 
d="M1245 213v1221h262v-1221h193v-459h-262v246h-1268v1434h264v-1221h811z" />
    <glyph glyph-name="afii10041" unicode="&#x427;" horiz-adv-x="1482" 
d="M1311 0h-262v598q-75 -47 -185.5 -75.5t-220.5 -28.5q-250 0 -385 121t-135 356v463h262v-439q0 -152 79 -222.5t251 -70.5q100 0 189 25t145 66v641h262v-1434z" />
    <glyph glyph-name="afii10042" unicode="&#x428;" horiz-adv-x="2070" 
d="M903 213v1221h264v-1221h471v1221h263v-1434h-1731v1434h264v-1221h469z" />
    <glyph glyph-name="afii10043" unicode="&#x429;" horiz-adv-x="2123" 
d="M170 0v1434h264v-1221h469v1221h264v-1221h471v1221h263v-1221h192v-459h-260v246h-1663z" />
    <glyph glyph-name="afii10044" unicode="&#x42a;" horiz-adv-x="1652" 
d="M692 864h305q271 0 425.5 -115.5t154.5 -316.5q0 -200 -154.5 -316t-425.5 -116h-569v1219h-399v215h663v-570zM1313 432q0 112 -87 165.5t-263 53.5h-271v-438h271q350 0 350 219z" />
    <glyph glyph-name="afii10045" unicode="&#x42b;" horiz-adv-x="1986" 
d="M1552 1434h263v-1434h-263v1434zM434 864h305q271 0 425.5 -115.5t154.5 -316.5q0 -200 -154.5 -316t-425.5 -116h-569v1434h264v-570zM1055 432q0 112 -87 165.5t-263 53.5h-271v-438h271q350 0 350 219z" />
    <glyph glyph-name="afii10046" unicode="&#x42c;" horiz-adv-x="1394" 
d="M434 864h305q271 0 425.5 -115.5t154.5 -316.5q0 -200 -154.5 -316t-425.5 -116h-569v1434h264v-570zM1055 432q0 112 -87 165.5t-263 53.5h-271v-438h271q350 0 350 219z" />
    <glyph glyph-name="afii10047" unicode="&#x42d;" horiz-adv-x="1650" 
d="M1563 717q0 -219 -98.5 -387.5t-280 -261.5t-420.5 -93q-223 0 -386.5 93t-281.5 278l164 82q172 -235 506 -235q205 0 348.5 109.5t173.5 307.5h-739v213h739q-30 198 -171 307t-345 109q-169 0 -285 -80.5t-145 -216.5h-268q40 226 222 371t474 145q360 0 576.5 -204
t216.5 -537z" />
    <glyph glyph-name="afii10048" unicode="&#x42e;" horiz-adv-x="2070" 
d="M170 1434h264v-611h285q13 139 57.5 253.5t120.5 200.5t191 133.5t260 47.5q128 0 233 -37t178.5 -103t123.5 -159t73.5 -203.5t23.5 -238.5t-23.5 -239t-73.5 -204t-123.5 -159t-178.5 -103t-233 -37q-145 0 -260 47t-191 132.5t-120.5 199.5t-57.5 254h-285v-608h-264
v1434zM985 717q0 -257 91 -390.5t272 -133.5t271.5 133.5t90.5 390.5q0 256 -90.5 389t-271.5 133t-272 -133t-91 -389z" />
    <glyph glyph-name="afii10049" unicode="&#x42f;" horiz-adv-x="1519" 
d="M135 981q0 213 170 333t465 120h580v-1434h-263v530h-342l-419 -530h-301l462 565q-163 45 -257.5 154.5t-94.5 261.5zM399 981q0 -116 95.5 -180t281.5 -64h311v490h-311q-186 0 -281.5 -65t-95.5 -181z" />
    <glyph glyph-name="afii10065" unicode="&#x430;" horiz-adv-x="1304" 
d="M926 565v101q0 221 -287 221q-77 0 -153.5 -37.5t-90.5 -91.5h-248q30 148 153.5 237.5t348.5 89.5q119 0 209.5 -22t149 -60.5t95 -97.5t51.5 -126.5t15 -153.5v-406q0 -67 86 -67h52v-164q-34 -11 -105 -11q-179 0 -241 140q-86 -71 -199 -106.5t-232 -35.5
q-200 0 -328 93.5t-128 244.5t127.5 240.5t328.5 89.5q240 0 396 -78zM926 268v129q-117 68 -320 68q-131 0 -204.5 -38.5t-73.5 -113.5q0 -74 74 -112.5t204 -38.5q90 0 175 29t145 77z" />
    <glyph glyph-name="afii10066" unicode="&#x431;" horiz-adv-x="1333" 
d="M748 1022q233 0 370 -137.5t137 -382.5q0 -244 -152 -385.5t-405 -141.5q-291 0 -445.5 181.5t-154.5 500.5q0 161 36 287.5t117.5 230t210.5 174t316 113.5t434 56l-26 -197q-358 -12 -564 -120t-251 -300q61 55 168 88t209 33zM346 694v-22q0 -266 92 -383t262 -117
q141 0 222.5 88t81.5 240q0 153 -81.5 238t-224.5 85q-105 0 -197.5 -33.5t-154.5 -95.5z" />
    <glyph glyph-name="afii10067" unicode="&#x432;" horiz-adv-x="1243" 
d="M668 0h-523v1061h498q226 0 341.5 -74.5t115.5 -208.5q0 -82 -39 -136.5t-109 -78.5q97 -26 155 -91.5t58 -164.5q0 -144 -121.5 -225.5t-375.5 -81.5zM918 324q0 137 -256 137h-275v-273h275q256 0 256 136zM860 756q0 64 -56.5 89t-172.5 25h-244v-231h244
q115 0 172 26t57 91z" />
    <glyph glyph-name="afii10068" unicode="&#x433;" horiz-adv-x="1056" 
d="M1030 866h-635v-866h-250v1061h885v-195z" />
    <glyph glyph-name="afii10069" unicode="&#x434;" horiz-adv-x="1366" 
d="M1335 193v-418h-248v225h-811v-225h-247v418h155q109 292 109 620v248h856v-868h186zM901 193v673h-364v-129q0 -262 -99 -544h463z" />
    <glyph glyph-name="afii10070" unicode="&#x435;" horiz-adv-x="1347" 
d="M1077 317l125 -90q-185 -252 -495 -252q-135 0 -252 41t-200.5 114t-131 176.5t-47.5 223.5q0 243 166 399t434 156q265 0 430.5 -156.5t165.5 -404.5q0 -57 -2 -80h-940q19 -123 124.5 -197.5t266.5 -74.5q103 0 197.5 39t158.5 106zM676 887q-145 0 -237 -69.5
t-111 -192.5h694q-10 120 -107 191t-239 71z" />
    <glyph glyph-name="afii10072" unicode="&#x436;" horiz-adv-x="1884" 
d="M1274 494l-207 -211v-283h-250v283l-207 211l-340 -494h-280l463 653l-402 408h303l463 -475v475h250v-475l463 475h303l-401 -408l464 -653h-282z" />
    <glyph glyph-name="afii10073" unicode="&#x437;" horiz-adv-x="1157" 
d="M535 897q-102 0 -164 -37.5t-80 -105.5h-242q40 156 163.5 243.5t332.5 87.5q221 0 354 -77.5t133 -210.5q0 -90 -53.5 -151.5t-144.5 -92.5q115 -28 181 -96t66 -164q0 -141 -136.5 -229.5t-377.5 -88.5q-301 0 -522 209l119 92q163 -114 389 -114q130 0 202 37.5
t72 103.5q0 51 -46 88t-121 54.5t-171 17.5h-135v178h119q138 0 221.5 36t83.5 99q0 57 -64.5 89t-178.5 32z" />
    <glyph glyph-name="afii10074" unicode="&#x438;" horiz-adv-x="1439" 
d="M1294 0h-247v713l-676 -713h-226v1061h250v-715l674 715h225v-1061z" />
    <glyph glyph-name="afii10075" unicode="&#x439;" horiz-adv-x="1439" 
d="M719 1210q-149 0 -248 85.5t-133 224.5h170q60 -154 211 -154q72 0 126 39.5t83 114.5h170q-32 -138 -131.5 -224t-247.5 -86zM1294 0h-247v713l-676 -713h-226v1061h250v-715l674 715h225v-1061z" />
    <glyph glyph-name="afii10076" unicode="&#x43a;" horiz-adv-x="1282" 
d="M1229 1061l-434 -410l497 -651h-286l-373 500l-238 -226v-274h-250v1061h250v-494l525 494h309z" />
    <glyph glyph-name="afii10077" unicode="&#x43b;" horiz-adv-x="1347" 
d="M481 866v-368q0 -175 -72 -295.5t-243 -218.5q-19 16 -143 118q123 101 165.5 175t42.5 190v594h969v-1061h-248v866h-471z" />
    <glyph glyph-name="afii10078" unicode="&#x43c;" horiz-adv-x="1701" 
d="M907 221h-112l-400 463v-684h-250v1061h205l500 -588l500 588h204v-1061h-247v682z" />
    <glyph glyph-name="afii10079" unicode="&#x43d;" horiz-adv-x="1409" 
d="M1014 674v387h250v-1061h-250v479h-619v-479h-250v1061h250v-387h619z" />
    <glyph glyph-name="afii10080" unicode="&#x43e;" horiz-adv-x="1376" 
d="M1300 530q0 -246 -167.5 -400.5t-444.5 -154.5q-278 0 -445 154.5t-167 400.5q0 245 167 400t445 155q277 0 444.5 -155.5t167.5 -399.5zM1047 530q0 166 -95.5 261.5t-263.5 95.5q-169 0 -263.5 -95t-94.5 -262q0 -168 94 -263t264 -95q168 0 263.5 95t95.5 263z" />
    <glyph glyph-name="afii10081" unicode="&#x43f;" horiz-adv-x="1366" 
d="M395 866v-866h-250v1061h1076v-1061h-250v866h-576z" />
    <glyph glyph-name="afii10082" unicode="&#x440;" horiz-adv-x="1417" 
d="M1329 530q0 -258 -139.5 -406.5t-390.5 -148.5q-106 0 -219 34.5t-185 90.5v-534h-250v1495h191l43 -117q71 64 191 102.5t229 38.5q251 0 390.5 -148.5t139.5 -406.5zM725 172q177 0 263.5 93t86.5 265q0 171 -86.5 264t-263.5 93q-90 0 -182.5 -30.5t-147.5 -82.5v-489
q56 -51 148.5 -82t181.5 -31z" />
    <glyph glyph-name="afii10083" unicode="&#x441;" horiz-adv-x="1263" 
d="M76 530q0 244 158 399.5t419 155.5q236 0 382 -112.5t173 -290.5h-243q-19 91 -97.5 148t-195.5 57q-161 0 -251.5 -96.5t-90.5 -260.5q0 -166 99.5 -262t279.5 -96q204 0 344 178l141 -88q-86 -139 -213.5 -213t-290.5 -74q-279 0 -446.5 155t-167.5 400z" />
    <glyph glyph-name="afii10084" unicode="&#x442;" horiz-adv-x="1181" 
d="M467 0v866h-444v195h1138v-195h-446v-866h-248z" />
    <glyph glyph-name="afii10085" unicode="&#x443;" horiz-adv-x="1265" 
d="M207 -530l-70 151q156 57 234 130t135 206l22 53l-514 1051h260l371 -770l350 770h256l-510 -1139q-89 -200 -209.5 -303.5t-324.5 -148.5z" />
    <glyph glyph-name="afii10086" unicode="&#x444;" horiz-adv-x="2205" 
d="M977 961v534h250v-534q71 56 173.5 90t205.5 34q248 0 379 -147t131 -408q0 -260 -130 -407.5t-378 -147.5q-102 0 -203.5 32.5t-177.5 88.5v-530h-250v530q-74 -56 -176 -88.5t-203 -32.5q-249 0 -379.5 147.5t-130.5 407.5q0 261 131.5 408t380.5 147q101 0 204.5 -34
t172.5 -90zM1526 887q-82 0 -163 -29t-136 -76v-499q54 -51 138 -81t169 -30q174 0 252 92.5t78 265.5q0 175 -79.5 266t-258.5 91zM977 283v499q-55 47 -136 76t-161 29q-180 0 -259 -91t-79 -266q0 -173 77.5 -265.5t250.5 -92.5q85 0 169 30t138 81z" />
    <glyph glyph-name="afii10087" unicode="&#x445;" horiz-adv-x="1224" 
d="M45 1061h277l290 -365l289 365h279l-398 -508l441 -553h-281l-330 410l-329 -410h-281l440 553z" />
    <glyph glyph-name="afii10088" unicode="&#x446;" horiz-adv-x="1443" 
d="M1413 193v-418h-248v225h-1020v1061h250v-868h576v868h250v-868h192z" />
    <glyph glyph-name="afii10089" unicode="&#x447;" horiz-adv-x="1294" 
d="M621 535q83 0 156.5 22t119.5 57v447h250v-1061h-250v446q-65 -40 -160 -66t-180 -26q-218 0 -341.5 103t-123.5 311v293h248v-279q0 -132 70 -189.5t211 -57.5z" />
    <glyph glyph-name="afii10090" unicode="&#x448;" horiz-adv-x="1765" 
d="M1370 193v868h248v-1061h-1473v1061h250v-868h363v868h250v-868h362z" />
    <glyph glyph-name="afii10091" unicode="&#x449;" horiz-adv-x="1843" 
d="M145 0v1061h250v-868h363v868h250v-868h362v868h248v-868h194v-418h-249v225h-1418z" />
    <glyph glyph-name="afii10092" unicode="&#x44a;" horiz-adv-x="1384" 
d="M346 0v866h-344v195h594v-383h225q248 0 379 -87.5t131 -252.5q0 -164 -130.5 -251t-379.5 -87h-475zM1077 338q0 79 -69 112t-217 33h-193v-290h193q146 0 216 33.5t70 111.5z" />
    <glyph glyph-name="afii10093" unicode="&#x44b;" horiz-adv-x="1751" 
d="M1356 0v1061h250v-1061h-250zM145 0v1061h250v-383h226q248 0 378.5 -87.5t130.5 -252.5t-130 -251.5t-379 -86.5h-476zM879 338q0 145 -263 145h-219v-290h219q263 0 263 145z" />
    <glyph glyph-name="afii10094" unicode="&#x44c;" horiz-adv-x="1183" 
d="M145 0v1061h250v-383h226q248 0 378.5 -87.5t130.5 -252.5t-130 -251.5t-379 -86.5h-476zM879 338q0 145 -263 145h-219v-290h219q263 0 263 145z" />
    <glyph glyph-name="afii10095" unicode="&#x44d;" horiz-adv-x="1263" 
d="M1188 530q0 -245 -168 -400t-447 -155q-327 0 -503 289l141 78q134 -170 344 -170q152 0 248 68.5t121 191.5h-484v195h484q-22 122 -111 191t-227 69q-120 0 -202 -60t-101 -159h-244q25 185 175.5 301t389.5 116q262 0 423 -155.5t161 -399.5z" />
    <glyph glyph-name="afii10096" unicode="&#x44e;" horiz-adv-x="1785" 
d="M1159 1085q255 0 403 -154.5t148 -400.5q0 -247 -148 -401t-403 -154q-229 0 -373 124.5t-172 332.5h-219v-432h-250v1061h250v-434h219q28 207 172 332.5t373 125.5zM1159 172q140 0 221.5 95t81.5 263q0 167 -81.5 262t-221.5 95t-221.5 -95t-81.5 -262
q0 -168 81.5 -263t221.5 -95z" />
    <glyph glyph-name="afii10097" unicode="&#x44f;" horiz-adv-x="1288" 
d="M287 0h-287l340 434q-113 35 -174.5 112.5t-61.5 182.5q0 155 124 243.5t354 88.5h559v-1061h-248v399h-305zM606 594h287v272h-256q-136 0 -210.5 -34t-74.5 -103q0 -64 66 -99.5t188 -35.5z" />
    <glyph glyph-name="uni0450" unicode="&#x450;" horiz-adv-x="1347" 
d="M1077 317l125 -90q-185 -252 -495 -252q-135 0 -252 41t-200.5 114t-131 176.5t-47.5 223.5q0 243 166 399t434 156q265 0 430.5 -156.5t165.5 -404.5q0 -57 -2 -80h-940q19 -123 124.5 -197.5t266.5 -74.5q103 0 197.5 39t158.5 106zM676 887q-145 0 -237 -69.5
t-111 -192.5h694q-10 120 -107 191t-239 71zM500 1356l-111 74l156 133l332 -283q-13 -12 -26.5 -26t-30.5 -31l-27 -27q-116 40 -293 160z" />
    <glyph glyph-name="afii10071" unicode="&#x451;" horiz-adv-x="1347" 
d="M1077 317l125 -90q-185 -252 -495 -252q-135 0 -252 41t-200.5 114t-131 176.5t-47.5 223.5q0 243 166 399t434 156q265 0 430.5 -156.5t165.5 -404.5q0 -57 -2 -80h-940q19 -123 124.5 -197.5t266.5 -74.5q103 0 197.5 39t158.5 106zM676 887q-145 0 -237 -69.5
t-111 -192.5h694q-10 120 -107 191t-239 71zM317 1251v224h213v-224h-213zM817 1251v224h211v-224h-211z" />
    <glyph glyph-name="afii10099" unicode="&#x452;" horiz-adv-x="1411" 
d="M958 -479q-49 39 -143 121q124 100 166.5 181.5t42.5 221.5v606q0 113 -67 174.5t-199 61.5q-108 0 -206.5 -42t-156.5 -100v-745h-250v1208h-155v150h155v137h250v-137h477v-150h-477v-270q78 64 199.5 105.5t249.5 41.5q196 0 313 -103.5t117 -293.5v-612
q0 -211 -70 -332t-246 -223z" />
    <glyph glyph-name="afii10100" unicode="&#x453;" horiz-adv-x="1056" 
d="M872 1436l-106 -82q-143 -110 -295 -152l-80 78l334 283zM1030 866h-635v-866h-250v1061h885v-195z" />
    <glyph glyph-name="afii10101" unicode="&#x454;" horiz-adv-x="1263" 
d="M76 530q0 160 71.5 286t205 197.5t306.5 71.5q239 0 390 -116t176 -301h-244q-19 99 -101 159t-202 60q-139 0 -227.5 -69t-110.5 -191h483v-195h-483q25 -123 120.5 -191.5t248.5 -68.5q210 0 344 170l141 -78q-179 -289 -504 -289q-279 0 -446.5 155t-167.5 400z" />
    <glyph glyph-name="afii10102" unicode="&#x455;" horiz-adv-x="1181" 
d="M584 895q-94 0 -151.5 -25.5t-57.5 -70.5q0 -49 68.5 -89t252.5 -83q207 -51 307.5 -129.5t100.5 -206.5q0 -142 -124 -229t-359 -87q-318 0 -543 252l108 95q183 -156 412 -156q121 0 186.5 34t65.5 79q0 54 -67 89.5t-240 77.5q-225 56 -323.5 138.5t-98.5 206.5
q0 130 118.5 212t340.5 82q201 0 328 -84.5t165 -242.5h-244q-45 137 -245 137z" />
    <glyph glyph-name="afii10103" unicode="&#x456;" horiz-adv-x="567" 
d="M160 0v1061h248v-1061h-248zM160 1257v226h248v-226h-248z" />
    <glyph glyph-name="afii10104" unicode="&#x457;" horiz-adv-x="567" 
d="M-72 1251v224h213v-224h-213zM428 1251v224h211v-224h-211zM160 0v1061h248v-1061h-248z" />
    <glyph glyph-name="afii10105" unicode="&#x458;" horiz-adv-x="567" 
d="M160 1257v226h248v-226h-248zM92 -479l-135 119q121 98 162 182.5t41 222.5v1016h248v-985q0 -211 -70 -332t-246 -223z" />
    <glyph glyph-name="afii10106" unicode="&#x459;" horiz-adv-x="1976" 
d="M231 1061h957v-383h225q249 0 380.5 -87.5t131.5 -252.5q0 -164 -131.5 -251t-380.5 -87h-473v866h-459v-368q0 -175 -72 -295.5t-243 -220.5l-137 120q111 86 156.5 164t45.5 201v594zM1671 338q0 74 -63.5 109.5t-196.5 35.5h-221v-290h221q133 0 196.5 35.5
t63.5 109.5z" />
    <glyph glyph-name="afii10107" unicode="&#x45a;" horiz-adv-x="1984" 
d="M946 0v479h-551v-479h-250v1061h250v-387h551v387h250v-383h225q249 0 380.5 -87.5t131.5 -252.5q0 -164 -131.5 -251t-380.5 -87h-475zM1679 338q0 145 -262 145h-219v-290h219q262 0 262 145z" />
    <glyph glyph-name="afii10108" unicode="&#x45b;" horiz-adv-x="1411" 
d="M-10 1358h155v137h250v-137h477v-150h-477v-270q78 64 199.5 105.5t249.5 41.5q196 0 313 -103.5t117 -293.5v-688h-250v651q0 236 -266 236q-108 0 -206.5 -42t-156.5 -100v-745h-250v1208h-155v150z" />
    <glyph glyph-name="afii10109" unicode="&#x45c;" horiz-adv-x="1282" 
d="M946 1436l-106 -82q-143 -110 -295 -152l-80 78l334 283zM1229 1061l-434 -410l497 -651h-286l-373 500l-238 -226v-274h-250v1061h250v-494l525 494h309z" />
    <glyph glyph-name="uni045D" unicode="&#x45d;" horiz-adv-x="1439" 
d="M510 1356l-111 74l156 133l332 -283q-13 -12 -26.5 -26t-30.5 -31l-27 -27q-116 40 -293 160zM1294 0h-247v713l-676 -713h-226v1061h250v-715l674 715h225v-1061z" />
    <glyph glyph-name="afii10110" unicode="&#x45e;" horiz-adv-x="1265" 
d="M207 -530l-70 151q156 57 234 130t135 206l22 53l-514 1051h260l371 -770l350 770h256l-510 -1139q-89 -200 -209.5 -303.5t-324.5 -148.5zM635 1210q-149 0 -248 85.5t-133 224.5h170q60 -154 211 -154q72 0 126 39.5t83 114.5h170q-32 -138 -131.5 -224t-247.5 -86z
" />
    <glyph glyph-name="afii10193" unicode="&#x45f;" horiz-adv-x="1366" 
d="M807 -225h-248v225h-414v1061h250v-868h576v868h250v-1061h-414v-225z" />
    <glyph glyph-name="afii10050" unicode="&#x490;" horiz-adv-x="1280" 
d="M170 0v1434h819v252h262v-467h-817v-1219h-264z" />
    <glyph glyph-name="afii10098" unicode="&#x491;" horiz-adv-x="1056" 
d="M1030 866h-635v-866h-250v1061h635v270h250v-465z" />
    <glyph glyph-name="Wgrave" unicode="&#x1e80;" horiz-adv-x="2416" 
d="M1065 1434h285l354 -1147l405 1147h281l-508 -1434h-338l-336 1110l-336 -1110h-340l-505 1434h278l406 -1147zM948 1712l-110 74l155 133l332 -283q-13 -12 -26.5 -26t-30.5 -31l-27 -27q-116 40 -293 160z" />
    <glyph glyph-name="wgrave" unicode="&#x1e81;" horiz-adv-x="1939" 
d="M281 1061l290 -785l287 785h221l287 -787l291 787h268l-420 -1061h-258l-278 756l-279 -756h-258l-418 1061h267zM709 1356l-111 74l156 133l331 -283q-13 -12 -26.5 -26t-30.5 -31l-27 -27q-114 39 -292 160z" />
    <glyph glyph-name="Wacute" unicode="&#x1e82;" horiz-adv-x="2416" 
d="M1065 1434h285l354 -1147l405 1147h281l-508 -1434h-338l-336 1110l-336 -1110h-340l-505 1434h278l406 -1147zM1554 1792l-106 -82q-141 -109 -295 -151l-80 77l334 283z" />
    <glyph glyph-name="wacute" unicode="&#x1e83;" horiz-adv-x="1939" 
d="M281 1061l290 -785l287 785h221l287 -787l291 787h268l-420 -1061h-258l-278 756l-279 -756h-258l-418 1061h267zM1331 1436l-106 -82q-143 -110 -295 -152l-80 78l334 283z" />
    <glyph glyph-name="Wdieresis" unicode="&#x1e84;" horiz-adv-x="2416" 
d="M1065 1434h285l354 -1147l405 1147h281l-508 -1434h-338l-336 1110l-336 -1110h-340l-505 1434h278l406 -1147zM854 1608v223h213v-223h-213zM1354 1608v223h211v-223h-211z" />
    <glyph glyph-name="wdieresis" unicode="&#x1e85;" horiz-adv-x="1939" 
d="M281 1061l290 -785l287 785h221l287 -787l291 787h268l-420 -1061h-258l-278 756l-279 -756h-258l-418 1061h267zM614 1251v224h213v-224h-213zM1114 1251v224h211v-224h-211z" />
    <glyph glyph-name="Ygrave" unicode="&#x1ef2;" horiz-adv-x="1482" 
d="M1174 1434h296l-598 -869v-565h-264v565l-596 869h295l434 -650zM569 1712l-110 74l155 133l332 -283q-13 -12 -26.5 -26t-30.5 -31l-27 -27q-116 40 -293 160z" />
    <glyph glyph-name="ygrave" unicode="&#x1ef3;" horiz-adv-x="1265" 
d="M207 -530l-70 151q156 57 234 130t135 206l22 53l-514 1051h260l371 -770l350 770h256l-510 -1139q-89 -200 -209.5 -303.5t-324.5 -148.5zM410 1356l-111 74l156 133l331 -283q-13 -12 -26.5 -26t-30.5 -31l-27 -27q-114 39 -292 160z" />
    <glyph glyph-name="thinspace" unicode="&#x2009;" horiz-adv-x="491" 
 />
    <glyph glyph-name="uni2010" unicode="&#x2010;" horiz-adv-x="917" 
d="M795 575h-672v207h672v-207z" />
    <glyph glyph-name="figuredash" unicode="&#x2012;" horiz-adv-x="1394" 
d="M1315 584h-1235v190h1235v-190z" />
    <glyph glyph-name="endash" unicode="&#x2013;" horiz-adv-x="1150" 
d="M1169 584h-1187v190h1187v-190z" />
    <glyph glyph-name="emdash" unicode="&#x2014;" horiz-adv-x="2379" 
d="M2398 584h-2416v190h2416v-190z" />
    <glyph glyph-name="afii00208" unicode="&#x2015;" horiz-adv-x="2379" 
d="M2157 584h-1936v190h1936v-190z" />
    <glyph glyph-name="uni2016" unicode="&#x2016;" horiz-adv-x="1042" 
d="M219 -266v1800h178v-1800h-178zM643 -266v1800h178v-1800h-178z" />
    <glyph glyph-name="underscoredbl" unicode="&#x2017;" horiz-adv-x="1404" 
d="M98 -473v164h1207v-164h-1207zM98 -219v164h1207v-164h-1207z" />
    <glyph glyph-name="quoteleft" unicode="&#x2018;" horiz-adv-x="675" 
d="M590 1618l135 -94q-100 -94 -137 -175t-37 -200v-113h-258v86q0 324 297 496z" />
    <glyph glyph-name="quoteright" unicode="&#x2019;" horiz-adv-x="675" 
d="M170 985l-135 94q100 94 137 175t37 200v113h258v-86q0 -324 -297 -496z" />
    <glyph glyph-name="quotesinglbase" unicode="&#x201a;" horiz-adv-x="675" 
d="M170 -332l-135 94q100 94 137 175t37 200v113h258v-86q0 -324 -297 -496z" />
    <glyph glyph-name="quotereversed" unicode="&#x201b;" horiz-adv-x="675" 
d="M395 1491l176 -522l-112 -35q-125 141 -232 383l-49 110z" />
    <glyph glyph-name="quotedblleft" unicode="&#x201c;" horiz-adv-x="1126" 
d="M551 1618l135 -94q-100 -94 -137 -175t-37 -200v-113h-258v86q0 324 297 496zM934 1618l135 -94q-100 -94 -137 -175t-37 -200v-113h-258v86q0 324 297 496z" />
    <glyph glyph-name="quotedblright" unicode="&#x201d;" horiz-adv-x="1126" 
d="M274 983l-135 94q100 94 137 175t37 200v113h258v-86q0 -324 -297 -496zM680 983l-135 94q100 94 137 175t37 200v113h258v-86q0 -324 -297 -496z" />
    <glyph glyph-name="quotedblbase" unicode="&#x201e;" horiz-adv-x="1126" 
d="M621 -332l-136 94q100 94 137 175t37 200v113h259v-86q0 -324 -297 -496zM170 -332l-135 94q100 94 137 175t37 200v113h258v-86q0 -324 -297 -496z" />
    <glyph glyph-name="uni201F" unicode="&#x201f;" horiz-adv-x="1126" 
d="M846 1489l176 -522l-113 -35q-123 139 -231 383l-49 110zM395 1489l176 -522l-112 -35q-125 141 -232 383l-49 110z" />
    <glyph glyph-name="dagger" unicode="&#x2020;" horiz-adv-x="1363" 
d="M1194 1188v-199h-387v-1257h-250v1257h-387v199h387v344h250v-344h387z" />
    <glyph glyph-name="daggerdbl" unicode="&#x2021;" horiz-adv-x="1363" 
d="M1194 272v-196h-387v-344h-250v344h-387v196h387v717h-387v199h387v344h250v-344h387v-199h-387v-717h387z" />
    <glyph glyph-name="bullet" unicode="&#x2022;" horiz-adv-x="1024" 
d="M201 678q0 119 88.5 198.5t222.5 79.5t222.5 -79.5t88.5 -198.5q0 -120 -88 -199.5t-223 -79.5t-223 79.5t-88 199.5z" />
    <glyph glyph-name="onedotenleader" unicode="&#x2024;" horiz-adv-x="675" 
d="M209 0v250h258v-250h-258z" />
    <glyph glyph-name="twodotenleader" unicode="&#x2025;" horiz-adv-x="1431" 
d="M963 0v250h258v-250h-258zM209 0v250h258v-250h-258z" />
    <glyph glyph-name="ellipsis" unicode="&#x2026;" horiz-adv-x="2185" 
d="M963 0v250h258v-250h-258zM1718 0v250h258v-250h-258zM209 0v250h258v-250h-258z" />
    <glyph glyph-name="perthousand" unicode="&#x2030;" horiz-adv-x="2742" 
d="M170 1104q0 144 109.5 244t271.5 100q160 0 269.5 -100.5t109.5 -243.5t-109.5 -243.5t-269.5 -100.5q-162 0 -271.5 100t-109.5 244zM389 1104q0 -70 44 -112t118 -42q73 0 117.5 42.5t44.5 111.5t-44.5 111t-117.5 42q-75 0 -118.5 -42t-43.5 -111zM1536 1278
l-1049 -1225l-122 101l1042 1220zM965 328q0 143 109 243.5t269 100.5q162 0 271.5 -100t109.5 -244t-109.5 -244t-271.5 -100q-160 0 -269 100.5t-109 243.5zM1182 328q0 -69 44 -111.5t117 -42.5q74 0 118 42t44 112q0 69 -43.5 111t-118.5 42q-73 0 -117 -42t-44 -111z
M1823 328q0 143 109.5 243.5t269.5 100.5q162 0 271.5 -100t109.5 -244t-109.5 -244t-271.5 -100q-160 0 -269.5 100.5t-109.5 243.5zM2042 328q0 -69 43.5 -111.5t116.5 -42.5q75 0 119 42.5t44 111.5t-44 111t-119 42q-73 0 -116.5 -42t-43.5 -111z" />
    <glyph glyph-name="minute" unicode="&#x2032;" horiz-adv-x="733" 
d="M170 913l176 523l217 -64l-55 -110q-141 -283 -227 -383z" />
    <glyph glyph-name="second" unicode="&#x2033;" horiz-adv-x="1226" 
d="M174 913l176 523l213 -64l-55 -110q-141 -283 -227 -383zM664 913l176 523l213 -64l-56 -110q-141 -283 -227 -383z" />
    <glyph glyph-name="guilsinglleft" unicode="&#x2039;" horiz-adv-x="819" 
d="M98 586v104l133 80q213 128 406 201l63 -99l-372 -233l372 -236l-63 -98q-193 73 -406 201z" />
    <glyph glyph-name="guilsinglright" unicode="&#x203a;" horiz-adv-x="819" 
d="M719 690v-104l-131 -80q-216 -130 -408 -201l-63 98l372 236q-36 20 -190 118.5t-182 114.5l63 99q191 -72 408 -201z" />
    <glyph glyph-name="exclamdbl" unicode="&#x203c;" horiz-adv-x="1198" 
d="M725 1434h285v-361l-54 -700h-178l-53 700v361zM735 0v246h266v-246h-266zM188 1434h285v-361l-53 -700h-178l-54 700v361zM199 0v246h266v-246h-266z" />
    <glyph glyph-name="uni203E" unicode="&#x203e;" horiz-adv-x="892" 
d="M98 1243v164h695v-164h-695z" />
    <glyph glyph-name="fraction" unicode="&#x2044;" horiz-adv-x="411" 
d="M592 1466l137 -88l-911 -1411l-137 86z" />
    <glyph glyph-name="zerosuperior" unicode="&#x2070;" 
d="M897 961q0 -220 -110 -355t-310 -135q-201 0 -310.5 134.5t-109.5 355.5t109.5 355t310.5 134q200 0 310 -134.5t110 -354.5zM256 961q0 -320 221 -320q111 0 166 82.5t55 237.5t-55 237t-166 82q-221 0 -221 -319z" />
    <glyph glyph-name="uni2071" unicode="&#x2071;" 
d="M385 485v678h184v-678h-184zM385 1274v180h184v-180h-184z" />
    <glyph glyph-name="foursuperior" unicode="&#x2074;" 
d="M47 678v160l510 596h197v-590h135v-166h-135v-193h-185v193h-522zM569 1202l-307 -358h307v358z" />
    <glyph glyph-name="fivesuperior" unicode="&#x2075;" 
d="M211 903l-41 21v510h635v-164h-457v-193q70 13 154 13q157 0 257.5 -86.5t100.5 -229.5q0 -133 -105.5 -219t-283.5 -86q-101 0 -194.5 43.5t-165.5 120.5l90 78q98 -74 268 -74q86 0 140.5 40.5t54.5 100.5q0 70 -63 111t-169 41q-130 0 -221 -27z" />
    <glyph glyph-name="sixsuperior" unicode="&#x2076;" 
d="M500 1286q-93 0 -149 -60t-66 -179q46 31 119 50t137 19q149 0 243.5 -93t94.5 -235q0 -141 -106.5 -230t-276.5 -89q-188 0 -299 116t-111 349q0 251 111.5 383.5t298.5 132.5q158 0 256 -78t110 -196h-174q-28 110 -188 110zM489 950q-120 0 -206 -65q20 -250 211 -250
q88 0 140 42t52 114q0 76 -52.5 117.5t-144.5 41.5z" />
    <glyph glyph-name="sevensuperior" unicode="&#x2077;" 
d="M844 1434v-172q-144 -199 -235 -384t-138 -395h-213q111 425 371 783h-502v168h717z" />
    <glyph glyph-name="eightsuperior" unicode="&#x2078;" 
d="M86 760q0 72 40.5 132t111.5 99q-56 38 -89.5 91t-33.5 112q0 118 95 187t255 69q161 0 259.5 -72t98.5 -194q0 -66 -33 -120.5t-92 -86.5q170 -84 170 -229q0 -125 -107.5 -203t-281.5 -78q-176 0 -284.5 79.5t-108.5 213.5zM279 760q0 -60 56 -95.5t144 -35.5
q87 0 142 31t55 79q0 43 -52 78.5t-180 79.5l-53 18q-55 -30 -83.5 -70.5t-28.5 -84.5zM637 1180q0 52 -46.5 81t-129.5 29q-71 0 -114.5 -27t-43.5 -67q0 -46 52.5 -81.5t185.5 -72.5q96 57 96 138z" />
    <glyph glyph-name="ninesuperior" unicode="&#x2079;" 
d="M436 631q104 0 161.5 53.5t68.5 181.5q-44 -30 -113.5 -47.5t-130.5 -17.5q-154 0 -250 91.5t-96 235.5q0 143 105 232.5t274 89.5q190 0 301.5 -116t111.5 -347q0 -258 -107 -388t-310 -130q-79 0 -169 37.5t-153 103.5l84 86q86 -65 223 -65zM463 967q122 0 207 63
q-6 126 -61 189t-146 63q-96 0 -145.5 -42.5t-49.5 -113.5q0 -76 52.5 -117.5t142.5 -41.5z" />
    <glyph glyph-name="uni207A" unicode="&#x207a;" 
d="M393 633v256h-305v149h305v256h166v-256h307v-149h-307v-256h-166z" />
    <glyph glyph-name="uni207B" unicode="&#x207b;" 
d="M866 889h-778v149h778v-149z" />
    <glyph glyph-name="uni207C" unicode="&#x207c;" 
d="M866 1028h-778v150h778v-150zM866 750h-778v149h778v-149z" />
    <glyph glyph-name="uni207D" unicode="&#x207d;" 
d="M307 961q0 320 223 587l132 -51q-195 -264 -195 -536q0 -273 195 -537l-132 -51q-223 264 -223 588z" />
    <glyph glyph-name="uni207E" unicode="&#x207e;" 
d="M647 961q0 -324 -223 -588l-133 51q98 131 146 261t48 276q0 277 -194 536l133 51q223 -267 223 -587z" />
    <glyph glyph-name="uni207F" unicode="&#x207f;" 
d="M502 1020q-53 0 -105.5 -18.5t-77.5 -45.5v-471h-190v680h152l26 -82q46 43 128 71t153 28q109 0 174 -67t65 -189v-441h-190v414q0 63 -33 92t-102 29z" />
    <glyph glyph-name="zeroinferior" unicode="&#x2080;" 
d="M897 217q0 -220 -110 -354.5t-310 -134.5q-201 0 -310.5 134t-109.5 355t109.5 355.5t310.5 134.5q200 0 310 -135t110 -355zM256 217q0 -319 221 -319q111 0 166 82t55 237t-55 237.5t-166 82.5q-221 0 -221 -320z" />
    <glyph glyph-name="oneinferior" unicode="&#x2081;" 
d="M449 483l-199 -118l-96 127l311 200h172v-950h-188v741z" />
    <glyph glyph-name="twoinferior" unicode="&#x2082;" 
d="M618 418q0 119 -176 119q-160 0 -176 -162h-170q9 156 105.5 244t261.5 88q161 0 257.5 -74.5t96.5 -208.5q0 -211 -405 -518h411v-164h-712v147q103 73 182 134.5t158.5 134.5t123 139.5t43.5 120.5z" />
    <glyph glyph-name="threeinferior" unicode="&#x2083;" 
d="M612 434q0 51 -45 80t-125 29t-133 -31t-57 -88h-164q9 127 111 205t252 78q156 0 256 -68.5t100 -185.5q0 -75 -47 -133.5t-115 -83.5q87 -27 140 -87.5t53 -142.5q0 -122 -103 -201t-282 -79q-222 0 -373 182l94 78q105 -99 266 -99q94 0 149.5 37.5t55.5 87.5
q0 74 -66.5 110t-183.5 36h-94v151h92q100 0 159.5 33.5t59.5 91.5z" />
    <glyph glyph-name="fourinferior" unicode="&#x2084;" 
d="M47 -66v160l510 596h197v-590h135v-166h-135v-192h-185v192h-522zM569 459l-307 -359h307v359z" />
    <glyph glyph-name="fiveinferior" unicode="&#x2085;" 
d="M211 160l-41 20v510h635v-164h-457v-192q64 12 154 12q157 0 257.5 -86t100.5 -229q0 -133 -105.5 -219t-283.5 -86q-101 0 -194.5 43.5t-165.5 119.5l90 78q96 -73 268 -73q86 0 140.5 40.5t54.5 100.5q0 70 -63 110.5t-169 40.5q-133 0 -221 -26z" />
    <glyph glyph-name="sixinferior" unicode="&#x2086;" 
d="M500 543q-93 0 -149 -60.5t-66 -179.5q46 31 119 50.5t137 19.5q149 0 243.5 -93t94.5 -235q0 -141 -106.5 -230t-276.5 -89q-188 0 -299 115.5t-111 348.5q0 251 111.5 384t298.5 133q157 0 255.5 -78t110.5 -197h-174q-28 111 -188 111zM489 207q-119 0 -206 -66
q20 -250 211 -250q88 0 140 42t52 114q0 76 -52.5 118t-144.5 42z" />
    <glyph glyph-name="seveninferior" unicode="&#x2087;" 
d="M844 690v-172q-144 -200 -235 -384.5t-138 -393.5h-213q110 424 371 782h-502v168h717z" />
    <glyph glyph-name="eightinferior" unicode="&#x2088;" 
d="M84 16q0 72 40.5 132.5t111.5 99.5q-56 38 -89.5 91t-33.5 112q0 118 95 187t255 69q161 0 259.5 -72.5t98.5 -194.5q0 -66 -33 -120.5t-92 -86.5q170 -84 170 -229q0 -125 -107.5 -202.5t-281.5 -77.5q-176 0 -284.5 79t-108.5 213zM276 16q0 -60 56.5 -95.5
t144.5 -35.5q87 0 142 31.5t55 79.5q0 43 -52 78.5t-180 79.5l-53 18q-55 -30 -84 -71t-29 -85zM635 436q0 53 -46.5 82t-129.5 29q-71 0 -114.5 -27t-43.5 -67q0 -46 52.5 -81.5t185.5 -72.5q96 57 96 137z" />
    <glyph glyph-name="nineinferior" unicode="&#x2089;" 
d="M436 -113q104 0 161 54t69 182q-44 -30 -113.5 -48t-130.5 -18q-154 0 -250 92t-96 236q0 143 105 232.5t274 89.5q190 0 301.5 -116t111.5 -347q0 -258 -107 -388t-310 -130q-79 0 -169 37.5t-153 103.5l84 86q87 -66 223 -66zM463 223q121 0 207 64q-6 126 -61 189
t-146 63q-96 0 -145.5 -42.5t-49.5 -113.5q0 -76 52.5 -118t142.5 -42z" />
    <glyph glyph-name="uni208A" unicode="&#x208a;" 
d="M393 -111v256h-305v150h305v256h166v-256h307v-150h-307v-256h-166z" />
    <glyph glyph-name="uni208B" unicode="&#x208b;" 
d="M866 145h-778v150h778v-150z" />
    <glyph glyph-name="uni208C" unicode="&#x208c;" 
d="M866 285h-778v149h778v-149zM866 6h-778v150h778v-150z" />
    <glyph glyph-name="uni208D" unicode="&#x208d;" 
d="M307 217q0 321 223 588l132 -51q-195 -264 -195 -537q0 -144 48.5 -273.5t146.5 -262.5l-132 -52q-223 264 -223 588z" />
    <glyph glyph-name="uni208E" unicode="&#x208e;" 
d="M647 217q0 -324 -223 -588l-133 52q98 131 146 261t48 275q0 278 -194 537l133 51q223 -267 223 -588z" />
    <glyph glyph-name="uni2090" unicode="&#x2090;" 
d="M662 125v41q0 75 -51.5 113t-141.5 38q-145 0 -168 -67h-162q52 213 336 213q171 0 267 -77.5t96 -211.5v-289q0 -20 18.5 -30.5t48.5 -10.5h33v-110q-27 -6 -68 -6q-145 0 -184 82q-53 -39 -135.5 -61.5t-165.5 -22.5q-124 0 -209.5 64t-85.5 165q0 100 85 161.5
t210 61.5q161 0 277 -53zM662 -82v92q-87 37 -224 37q-80 0 -129 -24.5t-49 -67.5q0 -42 47 -67t131 -25q148 0 224 55z" />
    <glyph glyph-name="uni2091" unicode="&#x2091;" 
d="M868 90q0 -34 -4 -57h-590q12 -75 73 -116.5t155 -41.5q145 0 231 74l94 -66q-129 -155 -331 -155q-187 0 -299.5 100.5t-112.5 265.5q0 159 109.5 263t283.5 104t282.5 -104t108.5 -267zM684 160q-10 74 -64.5 112.5t-142.5 38.5q-89 0 -141.5 -38.5t-61.5 -112.5h410z
" />
    <glyph glyph-name="uni2092" unicode="&#x2092;" 
d="M891 94q0 -162 -112 -264t-302 -102t-302 102t-112 264q0 163 112 265t302 102t302 -102t112 -265zM696 94q0 97 -61.5 156t-157.5 59q-98 0 -159.5 -59t-61.5 -156t61.5 -156t159.5 -59q96 0 157.5 59t61.5 156z" />
    <glyph glyph-name="uni2093" unicode="&#x2093;" 
d="M686 -256l-209 240l-211 -240h-229l315 358l-295 342h219l201 -225l199 225h221l-297 -342l318 -358h-232z" />
    <glyph glyph-name="uni2094" unicode="&#x2094;" 
d="M82 96q0 35 6 60h590q-12 75 -72.5 116t-154.5 41q-148 0 -232 -73l-94 65q130 156 332 156q187 0 299 -101t112 -266q0 -159 -109.5 -262.5t-283.5 -103.5q-176 0 -284.5 103t-108.5 265zM268 29q10 -74 64.5 -113t142.5 -39q89 0 141.5 39t61.5 113h-410z" />
    <glyph glyph-name="uni20A0" unicode="&#x20a0;" horiz-adv-x="1835" 
d="M1174 1135h-246q-30 59 -104 96t-173 37q-160 0 -253 -89t-93 -241q0 -149 98 -238.5t248 -89.5q208 0 305 97v297h785v-179h-559v-223h516v-178h-516v-246h575v-178h-801v492q-56 -34 -145.5 -53t-175.5 -19q-243 0 -401 146t-158 372q0 232 155 376t414 144
q201 0 342 -90t187 -233z" />
    <glyph glyph-name="colonmonetary" unicode="&#x20a1;" horiz-adv-x="1648" 
d="M86 717q0 219 97.5 386.5t278 260t419.5 92.5l53 154l106 -29l-45 -131q84 -9 154 -33l68 193l106 -29l-72 -205q134 -68 217 -181.5t107 -252.5h-266q-28 129 -135 207l-332 -954q12 -2 43 -2q329 0 506 245l161 -90q-116 -186 -279 -279.5t-388 -93.5q-34 0 -117 9
l-41 -121l-106 28l36 109q-52 10 -149 47l-64 -184l-106 28l72 209q-155 96 -239.5 255.5t-84.5 361.5zM354 717q0 -232 140 -375l311 893q-201 -23 -326 -157.5t-125 -360.5zM586 270q70 -42 145 -59l344 991q-81 32 -153 35z" />
    <glyph glyph-name="uni20A2" unicode="&#x20a2;" horiz-adv-x="1648" 
d="M86 717q0 333 217 537t576 204q149 0 273.5 -40t210 -110.5t139.5 -163.5t73 -202h-266q-29 135 -145.5 216t-284.5 81q-111 0 -206 -34.5t-166.5 -98.5t-112 -164.5t-40.5 -224.5q0 -187 89 -314t239 -178v600h149l43 -129q60 71 167 111.5t221 40.5h53v-174
q-25 2 -76 2q-109 0 -206 -40.5t-148 -107.5v-333q177 11 298.5 67.5t207.5 175.5l161 -90q-116 -186 -279 -279.5t-388 -93.5q-238 0 -419.5 93t-280.5 261.5t-99 387.5z" />
    <glyph glyph-name="franc" unicode="&#x20a3;" horiz-adv-x="1269" 
d="M29 926h141v508h1069v-211h-805v-297h678v-123h-678v-144h676v-122h-676v-537h-264v537h-141v122h141v144h-141v123z" />
    <glyph glyph-name="lira" unicode="&#x20a4;" horiz-adv-x="1394" 
d="M772 1458q222 0 359.5 -112t152.5 -297h-260q-11 88 -75 139t-171 51q-250 0 -250 -225v-133h482v-123h-482v-144h482v-122h-484q-15 -195 -137 -279h952v-213h-1265v203q87 55 137.5 129t50.5 160h-188v122h190v144h-190v123h190v137q0 218 132 329t374 111z" />
    <glyph glyph-name="uni20A6" unicode="&#x20a6;" horiz-adv-x="1705" 
d="M0 793v122h170v519h229l437 -519h434v519h252v-519h184v-122h-184v-144h184v-123h-184v-526h-230l-444 526h-426v-526h-252v526h-170v123h170v144h-170zM938 793l121 -144h211v144h-332zM422 793v-144h321l-120 144h-201zM1163 526l107 -127v127h-107zM422 1032v-117h98z
" />
    <glyph glyph-name="peseta" unicode="&#x20a7;" horiz-adv-x="1429" 
d="M1430 909h-68q-24 -195 -191 -295t-452 -100h-285v-514h-264v909h-141v123h141v402h549q286 0 454 -102.5t189 -299.5h68v-123zM434 1225v-193h658q-43 193 -390 193h-268zM702 723q174 0 270.5 45t117.5 141h-656v-186h268z" />
    <glyph glyph-name="uni20A8" unicode="&#x20a8;" horiz-adv-x="2519" 
d="M1311 1001q0 -146 -93 -244.5t-247 -142.5l418 -614h-302l-374 571h-279v-571h-264v1434h512q288 0 458.5 -113.5t170.5 -319.5zM1923 895q-94 0 -152.5 -25.5t-58.5 -70.5q0 -49 70 -88.5t254 -83.5q207 -51 307 -129.5t100 -206.5q0 -142 -123.5 -229t-359.5 -87
q-326 0 -547 252l119 84q170 -145 405 -145q121 0 186.5 34t65.5 79q0 55 -66.5 89.5t-240.5 77.5q-222 55 -323 139t-101 206q0 130 119 212t340 82q202 0 330 -84.5t166 -242.5h-242q-45 137 -248 137zM1047 1001q0 226 -371 226h-242v-449h242q371 0 371 223z" />
    <glyph glyph-name="uni20A9" unicode="&#x20a9;" horiz-adv-x="2416" 
d="M1065 1434h285l170 -555h393l196 555h281l-197 -555h193v-123h-236l-49 -135h285v-125h-328l-176 -496h-338l-149 496h-373l-150 -496h-340l-176 496h-325v125h282l-49 135h-233v123h190l-194 555h278l195 -555h393zM854 756h-311l47 -135h221zM1559 756l40 -135h224
l47 135h-311zM1315 756h-215l-41 -135h297zM1278 879l-70 231l-71 -231h141zM774 496h-139l76 -209zM1778 496h-140l66 -209z" />
    <glyph glyph-name="afii57636" unicode="&#x20aa;" horiz-adv-x="2088" 
d="M170 0v1434h653q283 0 443.5 -149.5t160.5 -438.5v-320h-227v295q0 124 -26.5 208.5t-80.5 131t-123.5 65.5t-168.5 19h-404v-1245h-227zM1919 1434v-1434h-653q-283 0 -443.5 149.5t-160.5 438.5v317h227v-295q0 -100 18 -173.5t50 -121t83 -76t110 -40t138 -11.5h404
v1246h227z" />
    <glyph glyph-name="dong" unicode="&#x20ab;" horiz-adv-x="1421" 
d="M86 500q0 254 138.5 389t393.5 135q106 0 218 -34.5t186 -92.5v250h-479v149h479v168h248v-168h155v-149h-155v-1147h-189l-43 113q-74 -60 -194 -99t-226 -39q-255 0 -393.5 135.5t-138.5 389.5zM692 825q-181 0 -266.5 -79.5t-85.5 -245.5q0 -168 85.5 -248t266.5 -80
q88 0 180.5 31t149.5 82v428q-57 52 -148.5 82t-181.5 30zM1221 -166v-149h-893v149h893z" />
    <glyph glyph-name="Euro" unicode="&#x20ac;" horiz-adv-x="1726" 
d="M164 717q0 43 2 63h-137v125h153q61 255 265.5 404t508.5 149q292 0 474.5 -145t222.5 -371h-269q-29 136 -145 216.5t-285 80.5q-182 0 -315 -87t-182 -247h641l-41 -125h-625q0 -8 -1 -24.5t-1 -24.5v-14q0 -46 2 -66h580q-35 -89 -47 -125h-508q51 -161 186 -247
t318 -86q333 0 505 235l162 -80q-116 -186 -278.5 -279.5t-386.5 -93.5q-305 0 -511.5 148.5t-267.5 402.5h-155v125h137q-2 20 -2 66z" />
    <glyph glyph-name="Ruble" unicode="&#x20bd;" horiz-adv-x="1429" 
d="M979 248h-545v-248h-264v248h-141v164h141v102h-141v209h141v711h549q307 0 477 -117t170 -344q0 -225 -170 -342t-477 -117h-285v-102h545v-164zM1098 973q0 129 -98 190.5t-298 61.5h-268v-502h268q200 0 298 61t98 189z" />
    <glyph glyph-name="afii61248" unicode="&#x2105;" horiz-adv-x="2506" 
d="M2454 440q0 -203 -139 -331.5t-367 -128.5t-368 128.5t-140 331.5t140 332t368 129t367 -129t139 -332zM1667 440q0 -125 77 -200.5t204 -75.5q125 0 201.5 75.5t76.5 200.5q0 124 -76.5 200.5t-201.5 76.5q-126 0 -203.5 -76.5t-77.5 -200.5zM1622 1456l143 -67
l-911 -1412l-143 66zM51 987q0 203 135 333t353 130q203 0 330 -94.5t151 -241.5h-221q-17 74 -80 113t-164 39q-131 0 -202.5 -71.5t-71.5 -207.5q0 -140 76 -214.5t231 -74.5q177 0 289 131l131 -63q-152 -244 -439 -244q-239 0 -378.5 130t-139.5 335z" />
    <glyph glyph-name="uni2109" unicode="&#x2109;" horiz-adv-x="1931" 
d="M831 0v1434h1070v-211h-805v-420h719v-211h-719v-592h-265zM4 1180q0 116 92.5 197t225.5 81q132 0 224.5 -81t92.5 -197q0 -117 -92.5 -198t-224.5 -81q-133 0 -225.5 81t-92.5 198zM168 1180q0 -59 41 -96t113 -37t112.5 37t40.5 96q0 58 -41 94.5t-112 36.5
q-72 0 -113 -36.5t-41 -94.5z" />
    <glyph glyph-name="afii61289" unicode="&#x2113;" horiz-adv-x="1230" 
d="M1085 983q0 -233 -110.5 -431.5t-327.5 -320.5q68 -61 166 -61q116 0 178 53l137 -141q-122 -107 -329 -107q-219 0 -379 150q-130 -46 -268 -66l-78 207q108 19 207 49q-101 199 -101 504q0 301 138 469t370 168q190 0 293.5 -128.5t103.5 -344.5zM434 825
q0 -230 68 -403q329 214 329 573q0 147 -40.5 203.5t-116.5 56.5q-103 0 -171.5 -115.5t-68.5 -314.5z" />
    <glyph glyph-name="afii61352" unicode="&#x2116;" horiz-adv-x="2312" 
d="M170 0v1434h256l508 -1018v1018h229v-1434h-256l-508 1016v-1016h-229zM2212 672q0 -189 -118 -303.5t-322 -114.5q-197 0 -313 115t-116 303t116 304t313 116q204 0 322 -115.5t118 -304.5zM2236 164v-164h-919v164h919zM1556 672q0 -115 59 -176.5t161 -61.5
q104 0 162.5 61.5t58.5 176.5q0 117 -58.5 178t-162.5 61q-102 0 -161 -61.5t-59 -177.5z" />
    <glyph glyph-name="uni2117" unicode="&#x2117;" horiz-adv-x="1951" 
d="M106 717q0 151 69 288.5t185.5 236.5t277 157.5t337.5 58.5q236 0 436 -99t317 -269.5t117 -372.5q0 -151 -69 -288.5t-186 -237t-278 -158t-337 -58.5t-337 58.5t-277.5 158t-185.5 237t-69 288.5zM203 717q0 -130 61 -247.5t164 -202.5t246 -135t301 -50t301 50
t246 135t164 202.5t61 247.5t-61 247.5t-164 202.5t-246 135t-301 50t-301 -50t-246 -135t-164 -202.5t-61 -247.5zM1239 848q0 160 -221 160h-176v-320h176q221 0 221 160zM1409 848q0 -141 -101 -218t-284 -77h-182v-287h-174v875h356q184 0 284.5 -76t100.5 -217z" />
    <glyph glyph-name="uni2120" unicode="&#x2120;" horiz-adv-x="1630" 
d="M1180 899h-97l-209 303v-432h-141v664h127l273 -383l270 383h127v-664h-141v432zM330 1321q-53 0 -86 -15.5t-33 -43.5q0 -27 38 -50.5t132 -48.5q119 -34 171 -79.5t52 -127.5q0 -89 -71 -142.5t-195 -53.5q-170 0 -289 147l66 49q83 -73 217 -73q59 0 95 18.5t36 48.5
q0 31 -33 49.5t-135 47.5q-119 33 -173 84.5t-54 128.5q0 80 69.5 131t192.5 51q109 0 178.5 -53t91.5 -150h-135q-27 82 -135 82z" />
    <glyph glyph-name="uni2121" unicode="&#x2121;" horiz-adv-x="2410" 
d="M492 0v1286h-390v148h951v-148h-389v-1286h-172zM1612 608h-502q1 142 78 234t172 92q46 0 90.5 -23.5t80 -64.5t58 -103.5t23.5 -134.5zM2023 0v1495h172v-1495h-172zM1751 197l-94 75q-50 -66 -125.5 -105.5t-147.5 -39.5q-106 0 -188.5 100t-85.5 234h678q2 20 2 63
q0 246 -122 403.5t-308 157.5q-86 0 -163.5 -40t-136.5 -111t-93.5 -176t-34.5 -226q0 -104 31 -203t87 -178t143 -127.5t191 -48.5q109 0 213 58.5t154 163.5z" />
    <glyph glyph-name="trademark" unicode="&#x2122;" horiz-adv-x="1595" 
d="M1147 879h-98l-209 299v-408h-142v664h148l252 -387l252 387h147v-664h-141v408zM229 770v545h-225v119h594v-119h-225v-545h-144z" />
    <glyph glyph-name="Omega" unicode="&#x2126;" horiz-adv-x="1716" 
d="M858 1458q144 0 267.5 -34t215 -96t156.5 -147t98 -189t33 -220q0 -183 -83 -325.5t-228 -233.5h291v-213h-600v215q352 208 352 535q0 209 -134.5 349t-367.5 140q-118 0 -214.5 -38.5t-158.5 -105.5t-95.5 -155.5t-33.5 -189.5q0 -328 353 -535v-215h-600v213h288
q-145 91 -228 233.5t-83 325.5q0 145 52.5 270.5t149.5 218t244 145t326 52.5z" />
    <glyph glyph-name="estimated" unicode="&#x212e;" horiz-adv-x="1732" 
d="M948 82q134 0 256 34.5t209 96.5l96 -74q-249 -164 -563 -164q-182 0 -328 38t-244.5 104.5t-164 160.5t-94.5 203t-29 236q0 152 53.5 286t152.5 235.5t251.5 160.5t337.5 59q179 0 325 -59t241 -161.5t146.5 -239t51.5 -293.5v-50h-1190v-456q171 -117 493 -117z
M872 1348q-125 0 -233.5 -31t-183.5 -88v-463h833v467q-152 115 -416 115z" />
    <glyph glyph-name="onethird" unicode="&#x2153;" horiz-adv-x="2414" 
d="M1591 1466l138 -88l-912 -1411l-137 86zM449 1227l-199 -119l-96 127l311 201h172v-951h-188v742zM2066 692q0 51 -45 80t-125 29t-133 -31t-57 -88h-164q9 127 111 205t252 78q156 0 256 -68.5t100 -185.5q0 -75 -47 -133.5t-115 -83.5q87 -27 140 -87.5t53 -142.5
q0 -122 -103 -201t-282 -79q-222 0 -373 182l94 78q105 -99 266 -99q94 0 149.5 37.5t55.5 87.5q0 74 -66.5 110t-183.5 36h-94v151h92q100 0 159.5 33.5t59.5 91.5z" />
    <glyph glyph-name="twothirds" unicode="&#x2154;" horiz-adv-x="2414" 
d="M1591 1466l138 -88l-912 -1411l-137 86zM610 1161q0 119 -176 119q-160 0 -176 -162h-170q9 156 105.5 244t261.5 88q161 0 257.5 -74.5t96.5 -208.5q0 -210 -406 -518h412v-164h-713v148q104 73 182.5 134.5t158.5 134.5t123.5 139t43.5 120zM2066 692q0 51 -45 80
t-125 29t-133 -31t-57 -88h-164q9 127 111 205t252 78q156 0 256 -68.5t100 -185.5q0 -75 -47 -133.5t-115 -83.5q87 -27 140 -87.5t53 -142.5q0 -122 -103 -201t-282 -79q-222 0 -373 182l94 78q105 -99 266 -99q94 0 149.5 37.5t55.5 87.5q0 74 -66.5 110t-183.5 36h-94
v151h92q100 0 159.5 33.5t59.5 91.5z" />
    <glyph glyph-name="onefifth" unicode="&#x2155;" horiz-adv-x="2414" 
d="M1591 1466l138 -88l-912 -1411l-137 86zM449 1227l-199 -119l-96 127l311 201h172v-951h-188v742zM1653 418l-41 20v510h635v-164h-457v-192q64 12 154 12q157 0 257.5 -86t100.5 -229q0 -133 -105.5 -219t-283.5 -86q-101 0 -195 43.5t-166 119.5l90 78q96 -73 269 -73
q86 0 140 40.5t54 100.5q0 70 -62.5 110.5t-168.5 40.5q-133 0 -221 -26z" />
    <glyph glyph-name="twofifths" unicode="&#x2156;" horiz-adv-x="2414" 
d="M1591 1466l138 -88l-912 -1411l-137 86zM610 1161q0 119 -176 119q-160 0 -176 -162h-170q9 156 105.5 244t261.5 88q161 0 257.5 -74.5t96.5 -208.5q0 -210 -406 -518h412v-164h-713v148q104 73 182.5 134.5t158.5 134.5t123.5 139t43.5 120zM1653 418l-41 20v510h635
v-164h-457v-192q64 12 154 12q157 0 257.5 -86t100.5 -229q0 -133 -105.5 -219t-283.5 -86q-101 0 -195 43.5t-166 119.5l90 78q96 -73 269 -73q86 0 140 40.5t54 100.5q0 70 -62.5 110.5t-168.5 40.5q-133 0 -221 -26z" />
    <glyph glyph-name="threefifths" unicode="&#x2157;" horiz-adv-x="2414" 
d="M1591 1466l138 -88l-912 -1411l-137 86zM1653 418l-41 20v510h635v-164h-457v-192q64 12 154 12q157 0 257.5 -86t100.5 -229q0 -133 -105.5 -219t-283.5 -86q-101 0 -195 43.5t-166 119.5l90 78q96 -73 269 -73q86 0 140 40.5t54 100.5q0 70 -62.5 110.5t-168.5 40.5
q-133 0 -221 -26zM612 1178q0 51 -45 79.5t-125 28.5t-133 -31t-57 -88h-164q9 127 111 205t252 78q156 0 256 -68.5t100 -185.5q0 -75 -47 -133.5t-115 -83.5q87 -27 140 -87t53 -142q0 -122 -103 -201.5t-282 -79.5q-222 0 -373 182l94 78q104 -98 266 -98
q94 0 149.5 37.5t55.5 87.5q0 74 -66.5 109.5t-183.5 35.5h-94v152h92q100 0 159.5 33.5t59.5 91.5z" />
    <glyph glyph-name="fourfifths" unicode="&#x2158;" horiz-adv-x="2414" 
d="M1591 1466l138 -88l-912 -1411l-137 86zM1653 418l-41 20v510h635v-164h-457v-192q64 12 154 12q157 0 257.5 -86t100.5 -229q0 -133 -105.5 -219t-283.5 -86q-101 0 -195 43.5t-166 119.5l90 78q96 -73 269 -73q86 0 140 40.5t54 100.5q0 70 -62.5 110.5t-168.5 40.5
q-133 0 -221 -26zM47 678v160l510 596h197v-590h135v-166h-135v-193h-185v193h-522zM569 1202l-307 -358h307v358z" />
    <glyph glyph-name="onesixth" unicode="&#x2159;" horiz-adv-x="2414" 
d="M1591 1466l138 -88l-912 -1411l-137 86zM449 1227l-199 -119l-96 127l311 201h172v-951h-188v742zM1933 801q-93 0 -149 -60.5t-66 -179.5q46 31 119 50.5t137 19.5q149 0 243.5 -93t94.5 -235q0 -141 -106.5 -230t-276.5 -89q-91 0 -164.5 27.5t-129 83t-85.5 145.5
t-30 209q0 251 111 383.5t298 132.5q158 0 256.5 -78t110.5 -197h-174q-28 111 -189 111zM1923 465q-120 0 -207 -66q20 -249 211 -249q88 0 140.5 41.5t52.5 113.5q0 76 -52.5 118t-144.5 42z" />
    <glyph glyph-name="fivesixths" unicode="&#x215a;" horiz-adv-x="2414" 
d="M1591 1466l138 -88l-912 -1411l-137 86zM1933 801q-93 0 -149 -60.5t-66 -179.5q46 31 119 50.5t137 19.5q149 0 243.5 -93t94.5 -235q0 -141 -106.5 -230t-276.5 -89q-91 0 -164.5 27.5t-129 83t-85.5 145.5t-30 209q0 251 111 383.5t298 132.5q158 0 256.5 -78
t110.5 -197h-174q-28 111 -189 111zM1923 465q-120 0 -207 -66q20 -249 211 -249q88 0 140.5 41.5t52.5 113.5q0 76 -52.5 118t-144.5 42zM211 903l-41 21v510h635v-164h-457v-193q70 13 154 13q157 0 257.5 -86.5t100.5 -229.5q0 -133 -105.5 -219t-283.5 -86
q-101 0 -194.5 43.5t-165.5 120.5l90 78q98 -74 268 -74q86 0 140.5 40.5t54.5 100.5q0 70 -63 111t-169 41q-130 0 -221 -27z" />
    <glyph glyph-name="oneeighth" unicode="&#x215b;" horiz-adv-x="2414" 
d="M1591 1466l138 -88l-912 -1411l-137 86zM449 1227l-199 -119l-96 127l311 201h172v-951h-188v742zM1516 274q0 72 40.5 132.5t110.5 99.5q-56 38 -89.5 91t-33.5 112q0 118 95 187t255 69q161 0 260 -72.5t99 -194.5q0 -66 -33 -120t-92 -86q170 -84 170 -230
q0 -125 -107.5 -202.5t-281.5 -77.5q-176 0 -284.5 79t-108.5 213zM1708 274q0 -60 56.5 -95.5t144.5 -35.5q87 0 141.5 31.5t54.5 79.5q0 43 -51.5 78.5t-179.5 79.5l-53 18q-55 -30 -84 -71t-29 -85zM2066 694q0 53 -46.5 82t-129.5 29q-71 0 -114 -27t-43 -67
q0 -46 52 -81.5t185 -72.5q96 57 96 137z" />
    <glyph glyph-name="threeeighths" unicode="&#x215c;" horiz-adv-x="2414" 
d="M1591 1466l138 -88l-912 -1411l-137 86zM1516 274q0 72 40.5 132.5t110.5 99.5q-56 38 -89.5 91t-33.5 112q0 118 95 187t255 69q161 0 260 -72.5t99 -194.5q0 -66 -33 -120t-92 -86q170 -84 170 -230q0 -125 -107.5 -202.5t-281.5 -77.5q-176 0 -284.5 79t-108.5 213z
M1708 274q0 -60 56.5 -95.5t144.5 -35.5q87 0 141.5 31.5t54.5 79.5q0 43 -51.5 78.5t-179.5 79.5l-53 18q-55 -30 -84 -71t-29 -85zM2066 694q0 53 -46.5 82t-129.5 29q-71 0 -114 -27t-43 -67q0 -46 52 -81.5t185 -72.5q96 57 96 137zM612 1178q0 51 -45 79.5t-125 28.5
t-133 -31t-57 -88h-164q9 127 111 205t252 78q156 0 256 -68.5t100 -185.5q0 -75 -47 -133.5t-115 -83.5q87 -27 140 -87t53 -142q0 -122 -103 -201.5t-282 -79.5q-222 0 -373 182l94 78q104 -98 266 -98q94 0 149.5 37.5t55.5 87.5q0 74 -66.5 109.5t-183.5 35.5h-94v152
h92q100 0 159.5 33.5t59.5 91.5z" />
    <glyph glyph-name="fiveeighths" unicode="&#x215d;" horiz-adv-x="2414" 
d="M1591 1466l138 -88l-912 -1411l-137 86zM211 903l-41 21v510h635v-164h-457v-193q70 13 154 13q157 0 257.5 -86.5t100.5 -229.5q0 -133 -105.5 -219t-283.5 -86q-101 0 -194.5 43.5t-165.5 120.5l90 78q98 -74 268 -74q86 0 140.5 40.5t54.5 100.5q0 70 -63 111t-169 41
q-130 0 -221 -27zM1516 274q0 72 40.5 132.5t110.5 99.5q-56 38 -89.5 91t-33.5 112q0 118 95 187t255 69q161 0 260 -72.5t99 -194.5q0 -66 -33 -120t-92 -86q170 -84 170 -230q0 -125 -107.5 -202.5t-281.5 -77.5q-176 0 -284.5 79t-108.5 213zM1708 274q0 -60 56.5 -95.5
t144.5 -35.5q87 0 141.5 31.5t54.5 79.5q0 43 -51.5 78.5t-179.5 79.5l-53 18q-55 -30 -84 -71t-29 -85zM2066 694q0 53 -46.5 82t-129.5 29q-71 0 -114 -27t-43 -67q0 -46 52 -81.5t185 -72.5q96 57 96 137z" />
    <glyph glyph-name="seveneighths" unicode="&#x215e;" horiz-adv-x="2414" 
d="M1591 1466l138 -88l-912 -1411l-137 86zM1516 274q0 72 40.5 132.5t110.5 99.5q-56 38 -89.5 91t-33.5 112q0 118 95 187t255 69q161 0 260 -72.5t99 -194.5q0 -66 -33 -120t-92 -86q170 -84 170 -230q0 -125 -107.5 -202.5t-281.5 -77.5q-176 0 -284.5 79t-108.5 213z
M1708 274q0 -60 56.5 -95.5t144.5 -35.5q87 0 141.5 31.5t54.5 79.5q0 43 -51.5 78.5t-179.5 79.5l-53 18q-55 -30 -84 -71t-29 -85zM2066 694q0 53 -46.5 82t-129.5 29q-71 0 -114 -27t-43 -67q0 -46 52 -81.5t185 -72.5q96 57 96 137zM844 1434v-172q-144 -199 -235 -384
t-138 -395h-213q111 425 371 783h-502v168h717z" />
    <glyph glyph-name="uni215F" unicode="&#x215f;" horiz-adv-x="2414" 
d="M1591 1466l138 -88l-912 -1411l-137 86zM449 1227l-199 -119l-96 127l311 201h172v-951h-188v742z" />
    <glyph glyph-name="arrowleft" unicode="&#x2190;" horiz-adv-x="2035" 
d="M1966 778v-198h-1470l98 -293l-533 393l533 391l-98 -293h1470z" />
    <glyph glyph-name="arrowup" unicode="&#x2191;" horiz-adv-x="2035" 
d="M1116 -78h-198v1223l-386 -84l486 461l483 -461l-385 84v-1223z" />
    <glyph glyph-name="arrowright" unicode="&#x2192;" horiz-adv-x="2035" 
d="M70 580v198h1466l-96 293l534 -391l-534 -393l96 293h-1466z" />
    <glyph glyph-name="arrowdown" unicode="&#x2193;" horiz-adv-x="2035" 
d="M918 1536h198v-1225l385 84l-483 -461l-486 461l386 -84v1225z" />
    <glyph glyph-name="arrowboth" unicode="&#x2194;" horiz-adv-x="2035" 
d="M496 580l98 -293l-533 393l533 391l-98 -293h1040l-96 293l534 -391l-534 -393l96 293h-1040z" />
    <glyph glyph-name="arrowupdn" unicode="&#x2195;" horiz-adv-x="2035" 
d="M1116 1145v-834l385 84l-483 -458l-486 458l386 -84v834l-386 -84l486 461l483 -461z" />
    <glyph glyph-name="arrowupdnbse" unicode="&#x21a8;" horiz-adv-x="2035" 
d="M1491 -29v-151h-948v151h434l-445 424l386 -84v834l-386 -84l486 461l483 -461l-385 84v-834l385 84l-444 -424h434z" />
    <glyph glyph-name="partialdiff" unicode="&#x2202;" horiz-adv-x="1380" 
d="M604 930q104 0 218 -35t184 -90q-31 448 -369 448q-260 0 -324 -172l-198 62q59 149 197.5 232t334.5 83q144 0 258 -44t199 -134.5t130.5 -239.5t45.5 -348q0 -365 -166.5 -541t-462.5 -176q-254 0 -414.5 132t-160.5 350q0 206 145.5 339.5t382.5 133.5zM662 188
q328 0 346 410q-143 119 -346 119q-153 0 -239.5 -70t-86.5 -194q0 -127 84.5 -196t241.5 -69z" />
    <glyph glyph-name="Delta" unicode="&#x2206;" horiz-adv-x="1570" 
d="M756 1452h59l729 -1395l-45 -57h-1429l-43 57zM1202 215l-418 807l-413 -807h831z" />
    <glyph glyph-name="product" unicode="&#x220f;" horiz-adv-x="1671" 
d="M1501 1516v-1743h-262v1527h-805v-1527h-264v1743h1331z" />
    <glyph glyph-name="summation" unicode="&#x2211;" horiz-adv-x="1429" 
d="M76 -23l526 699l-526 629v211h1300v-209h-993l477 -588v-92l-475 -645h991v-209h-1300v204z" />
    <glyph glyph-name="minus" unicode="&#x2212;" horiz-adv-x="1437" 
d="M1315 584h-1192v190h1192v-190z" />
    <glyph glyph-name="uni2215" unicode="&#x2215;" horiz-adv-x="411" 
d="M586 1466l137 -88l-911 -1411l-138 86z" />
    <glyph glyph-name="uni2219" unicode="&#x2219;" horiz-adv-x="663" 
d="M203 559v250h258v-250h-258z" />
    <glyph glyph-name="radical" unicode="&#x221a;" horiz-adv-x="1452" 
d="M905 0h-117l-399 618h-172v150h268l320 -492l391 1301h182z" />
    <glyph glyph-name="infinity" unicode="&#x221e;" horiz-adv-x="1847" 
d="M924 799q108 93 220.5 136.5t213.5 43.5q167 0 266.5 -83t99.5 -218q0 -136 -99 -218.5t-267 -82.5q-230 0 -434 176q-207 -176 -435 -176q-168 0 -267 82.5t-99 218.5q0 135 99.5 218t266.5 83q100 0 213 -43.5t222 -136.5zM1034 678q89 -79 161.5 -109t150.5 -30
q91 0 136.5 37.5t45.5 101.5q0 63 -46 100t-136 37q-79 0 -151.5 -29.5t-160.5 -107.5zM811 678q-87 78 -159 107.5t-150 29.5q-91 0 -137 -37t-46 -100q0 -64 46 -101.5t137 -37.5q77 0 149.5 30.5t159.5 108.5z" />
    <glyph glyph-name="orthogonal" unicode="&#x221f;" horiz-adv-x="1519" 
d="M1491 195v-195h-1274v1178h250v-983h1024z" />
    <glyph glyph-name="intersection" unicode="&#x2229;" horiz-adv-x="1826" 
d="M913 1264q175 0 309.5 -51t218.5 -144.5t126.5 -219.5t42.5 -280v-569h-244v524q0 272 -117 408.5t-336 136.5t-334.5 -136t-115.5 -409v-524h-246v569q0 154 42.5 280t126.5 219.5t218.5 144.5t308.5 51z" />
    <glyph glyph-name="integral" unicode="&#x222b;" horiz-adv-x="946" 
d="M170 -451q-86 0 -154 7v190q70 -4 111 -4q124 0 172.5 39t48.5 123v1290q0 177 103 259.5t325 82.5q98 0 154 -6v-191q-70 4 -111 4q-124 0 -172.5 -39t-48.5 -122v-1291q0 -177 -103.5 -259.5t-324.5 -82.5z" />
    <glyph glyph-name="approxequal" unicode="&#x2248;" horiz-adv-x="1437" 
d="M1151 1049q29 -3 203 -29q-25 -135 -123 -221t-234 -86q-134 0 -262 67l-78 39q-108 53 -188 53q-138 0 -184 -127q-29 3 -203 29q27 136 123.5 221.5t232.5 85.5q122 0 262 -67l80 -39q57 -28 96.5 -40.5t90.5 -12.5q141 0 184 127zM1151 614q63 -7 203 -28
q-25 -135 -123 -221t-234 -86q-134 0 -262 67l-78 39q-108 53 -188 53q-138 0 -184 -127q-29 3 -203 29q27 136 123.5 221.5t232.5 85.5q122 0 262 -67l80 -39q58 -29 97 -41.5t90 -12.5q141 0 184 127z" />
    <glyph glyph-name="notequal" unicode="&#x2260;" horiz-adv-x="1437" 
d="M571 346l-227 -317l-127 65l180 252h-274v189h409l207 288h-616v189h756l215 303l127 -66l-170 -237h264v-189h-402l-206 -288h608v-189h-744z" />
    <glyph glyph-name="equivalence" unicode="&#x2261;" horiz-adv-x="1437" 
d="M1315 950h-1192v191h1192v-191zM1315 217h-1192v191h1192v-191zM1315 584h-1192v190h1192v-190z" />
    <glyph glyph-name="lessequal" unicode="&#x2264;" horiz-adv-x="1437" 
d="M1298 1085l-841 -307l841 -307l-49 -152q-310 75 -923 297l-203 74v176l203 74q568 208 923 295zM1356 188v-188h-1274v188h1274z" />
    <glyph glyph-name="greaterequal" unicode="&#x2265;" horiz-adv-x="1437" 
d="M981 778l-842 307l47 150q347 -86 926 -295l203 -74v-176l-203 -74q-612 -222 -926 -297l-47 152zM1356 188v-188h-1274v188h1274z" />
    <glyph glyph-name="house" unicode="&#x2302;" horiz-adv-x="1656" 
d="M1440 0h-1223v678l610 569l613 -569v-678zM1225 166v436l-398 359l-395 -359v-436h793z" />
    <glyph glyph-name="revlogicalnot" unicode="&#x2310;" horiz-adv-x="1437" 
d="M1327 915v-190h-965v-397h-227v587h1192z" />
    <glyph glyph-name="uni2318" unicode="&#x2318;" horiz-adv-x="2179" 
d="M612 944h123v88q0 148 -162 148q-73 0 -117 -32.5t-44 -84.5q0 -119 200 -119zM1444 782v-231h137q169 0 275 -72t106 -209q0 -123 -95.5 -202.5t-258.5 -79.5q-167 0 -260 84t-93 225v92h-331v-92q0 -140 -94 -224.5t-261 -84.5q-163 0 -257.5 79.5t-94.5 202.5
q0 137 106 209t275 72h137v231h-137q-169 0 -275 72t-106 209q0 124 94.5 203.5t257.5 79.5q167 0 261 -84.5t94 -225.5v-92h331v92q0 141 93 225.5t260 84.5q163 0 258.5 -80t95.5 -203q0 -137 -106 -209t-275 -72h-137zM924 782v-231h331v231h-331zM1444 944h121
q99 0 143.5 27.5t44.5 95.5q0 43 -43.5 78t-103.5 35q-76 0 -119 -41.5t-43 -106.5v-88zM612 389q-198 0 -198 -110q0 -57 42 -91t117 -34q162 0 162 147v88h-123zM1565 389h-121v-88q0 -147 162 -147q73 0 117 32.5t44 83.5q0 119 -202 119z" />
    <glyph glyph-name="lozenge" unicode="&#x25ca;" horiz-adv-x="1302" 
d="M651 1532l584 -914l-584 -913l-583 913zM1012 618l-361 556l-360 -556l360 -557z" />
    <glyph glyph-name="H18533" unicode="&#x25cf;" horiz-adv-x="2379" 
d="M379 668q0 187 109 346.5t296 252.5t406 93t406 -93t296 -252.5t109 -346.5q0 -140 -64.5 -268.5t-173 -221.5t-259 -148t-314.5 -55t-314.5 55t-259 148t-173 221.5t-64.5 268.5z" />
    <glyph glyph-name="fi" horiz-adv-x="1433" 
d="M668 1495q81 0 135 -4v-193q-78 5 -96 5q-121 0 -169.5 -39.5t-48.5 -122.5v-80h785v-1061h-250v866h-535v-866h-247v866h-226v195h226v92q0 177 102 259.5t324 82.5zM1024 1249v236h250v-236h-250z" />
    <glyph glyph-name="fl" horiz-adv-x="1404" 
d="M657 1495q167 0 342 -35v35h248v-1495h-248v1280q-148 23 -292 23q-121 0 -169.5 -39.5t-48.5 -122.5v-80h304v-195h-304v-866h-247v866h-226v195h226v92q0 178 98.5 260t316.5 82z" />
    <glyph glyph-name="commaaccent" horiz-adv-x="892" 
d="M283 -500l139 408l186 -53l-45 -95q-90 -192 -182 -288z" />
    <glyph glyph-name="zero.tnum" horiz-adv-x="1437" 
d="M1341 717q0 -129 -24 -241t-74 -204.5t-122.5 -158t-175 -102t-226.5 -36.5q-154 0 -274 55.5t-195.5 156t-114.5 234.5t-39 296t39 296t114.5 234t195.5 155.5t274 55.5q124 0 226.5 -36t175 -102t122.5 -158.5t74 -204t24 -240.5zM1071 717q0 256 -89 389t-263 133
t-263 -133t-89 -389t89 -390t263 -134t263 134t89 390z" />
    <glyph glyph-name="one.tnum" horiz-adv-x="995" 
d="M473 0v1165l-352 -204l-111 167l488 306h233v-1434h-258z" />
    <glyph glyph-name="two.tnum" horiz-adv-x="1284" 
d="M887 1030q0 93 -77 149t-208 56q-121 0 -205 -75.5t-88 -201.5h-250q9 232 154.5 366t400.5 134q247 0 396 -112t149 -314q0 -83 -42.5 -176.5t-109 -177.5t-158.5 -171.5t-180.5 -157t-185.5 -136.5h703v-213h-1102v197q110 78 195.5 141.5t183.5 142t169 147.5
t131.5 140t92 137.5t31.5 124.5z" />
    <glyph glyph-name="three.tnum" horiz-adv-x="1329" 
d="M895 1059q0 84 -73.5 135t-200.5 51q-130 0 -212.5 -57t-91.5 -156h-241q17 201 166.5 313.5t392.5 112.5q229 0 376.5 -102t147.5 -271q0 -124 -79.5 -214t-194.5 -123q153 -41 242.5 -133t89.5 -224q0 -184 -157.5 -300t-432.5 -116q-346 0 -570 269l129 106
q80 -79 188.5 -122.5t227.5 -43.5q157 0 250.5 58.5t93.5 158.5q0 121 -112.5 181.5t-292.5 60.5h-144v203h142q159 0 257.5 57.5t98.5 155.5z" />
    <glyph glyph-name="four.tnum" horiz-adv-x="1347" 
d="M37 293v196l823 945h242v-938h221v-203h-221v-293h-254v293h-811zM848 1092l-522 -596h522v596z" />
    <glyph glyph-name="five.tnum" horiz-adv-x="1347" 
d="M246 651l-45 23v760h960v-209h-706v-346q108 24 250 24q238 0 391 -129t153 -346q0 -196 -156 -324.5t-423 -128.5q-334 0 -564 258l125 113q172 -160 422 -160q145 0 237.5 71.5t92.5 176.5q0 125 -105 193.5t-272 68.5q-202 0 -360 -45z" />
    <glyph glyph-name="six.tnum" horiz-adv-x="1378" 
d="M731 1245q-157 0 -253 -104.5t-113 -325.5q73 53 185 87t218 34q237 0 384.5 -134.5t147.5 -348.5t-159.5 -346t-421.5 -132q-296 0 -458.5 172.5t-162.5 536.5q0 388 162 581t461 193q233 0 381.5 -107.5t175.5 -287.5h-242q-19 83 -100.5 132.5t-204.5 49.5zM707 725
q-202 0 -347 -117q19 -420 351 -420q158 0 242.5 71t84.5 198t-86.5 197.5t-244.5 70.5z" />
    <glyph glyph-name="seven.tnum" horiz-adv-x="1273" 
d="M1200 1434v-217q-221 -322 -361 -609.5t-212 -607.5h-289q89 342 229.5 638.5t343.5 580.5h-839v215h1128z" />
    <glyph glyph-name="eight.tnum" horiz-adv-x="1431" 
d="M168 1071q0 170 146 278.5t397 108.5q250 0 399.5 -109.5t149.5 -275.5q0 -102 -57.5 -188t-160.5 -140q151 -66 220 -155t69 -207q0 -183 -169.5 -294.5t-446.5 -111.5q-281 0 -450 113t-169 309q0 121 68.5 216.5t197.5 154.5q-194 117 -194 301zM365 399
q0 -101 97 -159t255 -58q157 0 252.5 51t95.5 140q0 86 -93 143t-372 150l-20 6q-99 -50 -157 -123t-58 -150zM1001 1053q0 90 -77.5 144t-208.5 54q-130 0 -207.5 -50.5t-77.5 -129.5q0 -65 85.5 -118.5t303.5 -125.5q82 43 132 102.5t50 123.5z" />
    <glyph glyph-name="nine.tnum" horiz-adv-x="1378" 
d="M616 188q75 0 137.5 20.5t118 67t92 132.5t46.5 206q-72 -52 -183.5 -85t-216.5 -33q-238 0 -385 134t-147 349q0 216 160 347.5t424 131.5q141 0 253 -41t194 -124.5t125.5 -217t43.5 -311.5q0 -204 -48.5 -357.5t-138 -247t-208.5 -139t-267 -45.5q-119 0 -244.5 55
t-215.5 148l110 119q68 -48 160.5 -78.5t189.5 -30.5zM670 707q201 0 344 116q-4 119 -31.5 203t-75.5 131t-107 67.5t-134 20.5q-159 0 -243.5 -71t-84.5 -199q0 -126 87 -197t245 -71z" />
    <glyph glyph-name="parenleft.case" horiz-adv-x="843" 
d="M217 717q0 257 95.5 487.5t277.5 419.5l172 -76q-316 -388 -316 -831q0 -447 316 -832l-172 -75q-182 188 -277.5 418t-95.5 489z" />
    <glyph glyph-name="parenright.case" horiz-adv-x="843" 
d="M627 717q0 -259 -95.5 -489t-277.5 -418l-172 75q315 384 315 832q0 444 -315 831l172 76q182 -189 277.5 -419.5t95.5 -487.5z" />
    <glyph glyph-name="hyphen.case" horiz-adv-x="917" 
d="M795 612h-672v207h672v-207z" />
    <glyph glyph-name="at.case" horiz-adv-x="2289" 
d="M614 711q0 205 149 345t386 140q241 0 360 -121.5t119 -345.5v-172q0 -64 43 -99.5t107 -35.5q221 0 221 336q0 207 -113.5 373t-308.5 258t-432 92q-179 0 -336.5 -55.5t-272 -154.5t-181 -242.5t-66.5 -311.5q0 -167 66 -310.5t180.5 -242.5t272 -155t337.5 -56
q153 0 298.5 38t246.5 105l73 -104q-125 -82 -285.5 -127t-332.5 -45q-223 0 -411 70t-315 191t-198 285t-71 351t70.5 351t197.5 285t315 191t412 70q220 0 407.5 -67.5t315 -183.5t199 -272.5t71.5 -332.5q0 -82 -14 -154t-45.5 -134.5t-78 -107.5t-115.5 -70.5
t-154 -25.5q-208 0 -291 127q-65 -62 -172 -100.5t-201 -38.5q-221 0 -337 126t-116 331zM1114 442q176 0 297 115v156q0 137 -63 207.5t-207 70.5q-130 0 -220 -81t-90 -199q0 -136 62.5 -202.5t220.5 -66.5z" />
    <glyph glyph-name="bracketleft.case" horiz-adv-x="948" 
d="M264 -184v1802h656v-178h-426v-1448h426v-176h-656z" />
    <glyph glyph-name="bracketright.case" horiz-adv-x="948" 
d="M684 1618v-1802h-655v176h426v1448h-426v178h655z" />
    <glyph glyph-name="braceleft.case" horiz-adv-x="905" 
d="M127 805q108 3 176 60t68 147v215q0 88 22 154.5t57.5 106t87 64t103 33t113.5 8.5l53 -141l-105 -39q-53 -20 -77.5 -53.5t-24.5 -87.5v-211q0 -157 -49 -235.5t-174 -110.5q119 -29 171 -102.5t52 -206.5v-246q0 -54 25 -87.5t77 -52.5l105 -38l-53 -144
q-77 0 -142 16.5t-121 52.5t-88 103.5t-32 161.5v248q0 92 -68 149.5t-176 57.5v178z" />
    <glyph glyph-name="braceright.case" horiz-adv-x="905" 
d="M535 1260v-248q0 -90 67 -147t176 -60v-178q-107 0 -175 -57.5t-68 -149.5v-215q0 -88 -22 -154.5t-57 -106t-86.5 -64t-103 -33.5t-114.5 -9l-54 144l105 38q52 19 77 52.5t25 87.5v211q0 159 47.5 235t175.5 109q-125 32 -174 110.5t-49 235.5v211q0 53 -25 86.5
t-77 54.5l-105 39l54 141q61 0 114 -9.5t103.5 -33t86.5 -60.5t57.5 -96t21.5 -134z" />
    <glyph glyph-name="exclamdown.case" horiz-adv-x="661" 
d="M473 0h-285v358l54 703h178l53 -703v-358zM199 1188v246h266v-246h-266z" />
    <glyph glyph-name="guillemotleft.case" horiz-adv-x="1390" 
d="M100 664v104l131 80q193 118 408 201l63 -99l-372 -233l372 -236l-63 -98q-196 76 -408 201zM674 664v104l131 80q213 129 407 201l62 -99l-373 -233l373 -236l-62 -98q-194 72 -407 201z" />
    <glyph glyph-name="periodcentered.case" horiz-adv-x="675" 
d="M209 592v250h258v-250h-258z" />
    <glyph glyph-name="guillemotright.case" horiz-adv-x="1390" 
d="M1292 768v-104l-131 -80q-213 -129 -407 -201l-64 98l373 236l-373 233l64 99q194 -72 407 -201zM721 768v-104l-133 -80q-213 -128 -406 -201l-63 98l373 236l-373 233l63 99q193 -73 406 -201z" />
    <glyph glyph-name="questiondown.case" horiz-adv-x="1265" 
d="M653 -27q-234 0 -371 99t-137 272q0 131 68 218t217 175q90 54 128 113t38 143v66h158q49 -106 49 -215q0 -157 -174 -252q-109 -57 -162 -109t-53 -118q0 -82 67.5 -128.5t184.5 -46.5q114 0 177.5 50.5t74.5 138.5h245q-11 -181 -145 -293.5t-365 -112.5zM801 1432
v-246h-264v246h264z" />
    <glyph glyph-name="endash.case" horiz-adv-x="1150" 
d="M1169 621h-1187v190h1187v-190z" />
    <glyph glyph-name="emdash.case" horiz-adv-x="2379" 
d="M2398 621h-2416v190h2416v-190z" />
    <glyph glyph-name="bullet.case" horiz-adv-x="1024" 
d="M201 715q0 119 88.5 198.5t222.5 79.5t222.5 -79.5t88.5 -198.5q0 -120 -88 -199.5t-223 -79.5t-223 79.5t-88 199.5z" />
    <glyph glyph-name="guilsinglleft.case" horiz-adv-x="819" 
d="M98 664v104l133 80q213 128 406 201l63 -99l-372 -233l372 -236l-63 -98q-193 73 -406 201z" />
    <glyph glyph-name="guilsinglright.case" horiz-adv-x="819" 
d="M719 768v-104l-131 -80q-216 -130 -408 -201l-63 98l372 236q-36 20 -190 118.5t-182 114.5l63 99q191 -72 408 -201z" />
    <glyph glyph-name="zero.numerator" 
d="M897 961q0 -220 -110 -355t-310 -135q-201 0 -310.5 134.5t-109.5 355.5t109.5 355t310.5 134q200 0 310 -134.5t110 -354.5zM256 961q0 -320 221 -320q111 0 166 82.5t55 237.5t-55 237t-166 82q-221 0 -221 -319z" />
    <glyph glyph-name="one.numerator" 
d="M449 1227l-199 -119l-96 127l311 201h172v-951h-188v742z" />
    <glyph glyph-name="two.numerator" 
d="M610 1161q0 119 -176 119q-160 0 -176 -162h-170q9 156 105.5 244t261.5 88q161 0 257.5 -74.5t96.5 -208.5q0 -210 -406 -518h412v-164h-713v148q104 73 182.5 134.5t158.5 134.5t123.5 139t43.5 120z" />
    <glyph glyph-name="three.numerator" 
d="M612 1178q0 51 -45 79.5t-125 28.5t-133 -31t-57 -88h-164q9 127 111 205t252 78q156 0 256 -68.5t100 -185.5q0 -75 -47 -133.5t-115 -83.5q87 -27 140 -87t53 -142q0 -122 -103 -201.5t-282 -79.5q-222 0 -373 182l94 78q104 -98 266 -98q94 0 149.5 37.5t55.5 87.5
q0 74 -66.5 109.5t-183.5 35.5h-94v152h92q100 0 159.5 33.5t59.5 91.5z" />
    <glyph glyph-name="four.numerator" 
d="M47 678v160l510 596h197v-590h135v-166h-135v-193h-185v193h-522zM569 1202l-307 -358h307v358z" />
    <glyph glyph-name="five.numerator" 
d="M211 903l-41 21v510h635v-164h-457v-193q70 13 154 13q157 0 257.5 -86.5t100.5 -229.5q0 -133 -105.5 -219t-283.5 -86q-101 0 -194.5 43.5t-165.5 120.5l90 78q98 -74 268 -74q86 0 140.5 40.5t54.5 100.5q0 70 -63 111t-169 41q-130 0 -221 -27z" />
    <glyph glyph-name="six.numerator" 
d="M500 1286q-93 0 -149 -60t-66 -179q46 31 119 50t137 19q149 0 243.5 -93t94.5 -235q0 -141 -106.5 -230t-276.5 -89q-188 0 -299 116t-111 349q0 251 111.5 383.5t298.5 132.5q158 0 256 -78t110 -196h-174q-28 110 -188 110zM489 950q-120 0 -206 -65q20 -250 211 -250
q88 0 140 42t52 114q0 76 -52.5 117.5t-144.5 41.5z" />
    <glyph glyph-name="seven.numerator" 
d="M844 1434v-172q-144 -199 -235 -384t-138 -395h-213q111 425 371 783h-502v168h717z" />
    <glyph glyph-name="eight.numerator" 
d="M84 760q0 72 40.5 132t111.5 99q-56 38 -89.5 91t-33.5 112q0 118 95 187t255 69q161 0 259.5 -72t98.5 -194q0 -66 -33 -120.5t-92 -86.5q170 -84 170 -229q0 -125 -107.5 -203t-281.5 -78q-176 0 -284.5 79.5t-108.5 213.5zM276 760q0 -60 56.5 -95.5t144.5 -35.5
q87 0 142 31t55 79q0 43 -52 78.5t-180 79.5l-53 18q-113 -63 -113 -155zM635 1180q0 52 -46.5 81t-129.5 29q-71 0 -114.5 -27t-43.5 -67q0 -46 52.5 -81.5t185.5 -72.5q96 57 96 138z" />
    <glyph glyph-name="nine.numerator" 
d="M436 631q104 0 161.5 53.5t68.5 181.5q-44 -30 -113.5 -47.5t-130.5 -17.5q-154 0 -250 91.5t-96 235.5q0 143 105 232.5t274 89.5q190 0 301.5 -116t111.5 -347q0 -258 -107 -388t-310 -130q-79 0 -169 37.5t-153 103.5l84 86q86 -65 223 -65zM463 967q122 0 207 63
q-6 126 -61 189t-146 63q-96 0 -145.5 -42.5t-49.5 -113.5q0 -76 52.5 -117.5t142.5 -41.5z" />
    <glyph glyph-name="zero.denominator" 
d="M897 475q0 -220 -110 -354.5t-310 -134.5q-201 0 -310.5 134t-109.5 355t109.5 355.5t310.5 134.5q200 0 310 -135t110 -355zM256 475q0 -319 221 -319q111 0 166 82t55 237t-55 237.5t-166 82.5q-221 0 -221 -320z" />
    <glyph glyph-name="one.denominator" 
d="M449 741l-199 -118l-96 127l311 200h172v-950h-188v741z" />
    <glyph glyph-name="two.denominator" 
d="M610 676q0 119 -176 119q-160 0 -176 -162h-170q9 156 105.5 244t261.5 88q161 0 257.5 -74.5t96.5 -208.5q0 -210 -406 -518h412v-164h-713v147q81 57 145.5 105.5t135.5 109.5t118 112t78 105t31 97z" />
    <glyph glyph-name="three.denominator" 
d="M612 692q0 51 -45 80t-125 29t-133 -31t-57 -88h-164q9 127 111 205t252 78q156 0 256 -68.5t100 -185.5q0 -75 -47 -133.5t-115 -83.5q87 -27 140 -87.5t53 -142.5q0 -122 -103 -201t-282 -79q-222 0 -373 182l94 78q105 -99 266 -99q94 0 149.5 37.5t55.5 87.5
q0 74 -66.5 110t-183.5 36h-94v151h92q100 0 159.5 33.5t59.5 91.5z" />
    <glyph glyph-name="four.denominator" 
d="M47 193v159l510 596h197v-590h135v-165h-135v-193h-185v193h-522zM569 717l-307 -359h307v359z" />
    <glyph glyph-name="five.denominator" 
d="M211 418l-41 20v510h635v-164h-457v-192q65 12 154 12q157 0 257.5 -86t100.5 -229q0 -133 -105.5 -219t-283.5 -86q-101 0 -194.5 43.5t-165.5 119.5l90 78q96 -73 268 -73q86 0 140.5 40.5t54.5 100.5q0 70 -63 110.5t-169 40.5q-133 0 -221 -26z" />
    <glyph glyph-name="six.denominator" 
d="M500 801q-93 0 -149 -60.5t-66 -179.5q46 31 119 50.5t137 19.5q149 0 243.5 -93t94.5 -235q0 -141 -106.5 -230t-276.5 -89q-188 0 -299 116t-111 349q0 251 111.5 383.5t298.5 132.5q157 0 255.5 -78t110.5 -197h-174q-28 111 -188 111zM489 465q-119 0 -206 -66
q20 -249 211 -249q88 0 140 41.5t52 113.5q0 76 -52.5 118t-144.5 42z" />
    <glyph glyph-name="seven.denominator" 
d="M844 948v-172q-144 -200 -235 -384.5t-138 -393.5h-213q110 424 371 782h-502v168h717z" />
    <glyph glyph-name="eight.denominator" 
d="M84 274q0 72 40.5 132.5t111.5 99.5q-56 38 -89.5 91t-33.5 112q0 118 95 187t255 69q161 0 259.5 -72.5t98.5 -194.5q0 -66 -33 -120t-92 -86q170 -84 170 -230q0 -125 -107.5 -202.5t-281.5 -77.5q-176 0 -284.5 79t-108.5 213zM276 274q0 -60 56.5 -95.5t144.5 -35.5
q87 0 142 31.5t55 79.5q0 43 -52 78.5t-180 79.5l-53 18q-55 -30 -84 -71t-29 -85zM635 694q0 53 -46.5 82t-129.5 29q-71 0 -114.5 -27t-43.5 -67q0 -46 52.5 -81.5t185.5 -72.5q96 57 96 137z" />
    <glyph glyph-name="nine.denominator" 
d="M436 145q104 0 161 54t69 182q-44 -30 -113.5 -48t-130.5 -18q-154 0 -250 92t-96 236q0 143 105 232.5t274 89.5q190 0 301.5 -116t111.5 -347q0 -258 -107 -388t-310 -130q-79 0 -169 37.5t-153 103.5l84 86q87 -66 223 -66zM463 481q121 0 207 64q-6 126 -61 189
t-146 63q-96 0 -145.5 -42.5t-49.5 -113.5q0 -76 52.5 -118t142.5 -42z" />
    </font>
</defs>
</svg>
