<?xml version="1.0" standalone="no"?>
<!DOCTYPE svg PUBLIC "-//W3C//DTD SVG 1.1//EN" "http://www.w3.org/Graphics/SVG/1.1/DTD/svg11.dtd" >
<svg xmlns="http://www.w3.org/2000/svg" xmlns:xlink="http://www.w3.org/1999/xlink" version="1.1">
<metadata>
Created by FontForge 20170731 at Mon Jan 31 18:50:39 2022
 By Aleksey,,,
Copyright (c) 2016 by Lee, Hyun-Seung. All rights reserved.
</metadata>
<defs>
<font id="Artico" horiz-adv-x="839" >
  <font-face 
    font-family="Artico"
    font-weight="400"
    font-stretch="normal"
    units-per-em="2048"
    panose-1="2 11 5 3 3 3 2 2 2 4"
    ascent="1638"
    descent="-410"
    x-height="1061"
    cap-height="1434"
    bbox="-858 -526 2089 2048"
    underline-thickness="49"
    underline-position="-472"
    unicode-range="U+0008-FB04"
  />
<missing-glyph horiz-adv-x="1024" 
d="M881 0h-738v1536h738v-1536zM297 133h430v1270h-430v-1270z" />
    <glyph glyph-name="f_f" unicode="ff" horiz-adv-x="1298" 
d="M1159 1495q65 0 109 -6v-152q-50 6 -105 6q-99 0 -137.5 -44.5t-38.5 -139.5v-98h260v-148h-260v-913h-172v913h-422v-913h-172v913h-190v148h190v110q0 168 81.5 246t262.5 78q65 0 109 -6v-152q-50 6 -105 6q-99 0 -137.5 -44.5t-38.5 -139.5v-98h422v110
q0 168 81.5 246t262.5 78z" />
    <glyph glyph-name="f_i" unicode="fi" horiz-adv-x="1159" 
d="M565 1495q65 0 109 -6v-152q-50 6 -105 6q-99 0 -137.5 -44.5t-38.5 -139.5v-98h613v-1061h-172v913h-441v-913h-172v913h-190v148h190v110q0 168 81.5 246t262.5 78zM834 1296v181h172v-181h-172z" />
    <glyph glyph-name="f_l" unicode="fl" horiz-adv-x="1130" 
d="M565 1495q102 0 240 -29v29h172v-1495h-172v1321q-126 22 -236 22q-99 0 -137.5 -44.5t-38.5 -139.5v-98h260v-148h-260v-913h-172v913h-190v148h190v110q0 168 81.5 246t262.5 78z" />
    <glyph glyph-name="f_f_i" unicode="ffi" horiz-adv-x="1753" 
d="M1159 1495q65 0 109 -6v-152q-50 6 -105 6q-99 0 -137.5 -44.5t-38.5 -139.5v-98h612v-1061h-172v913h-440v-913h-172v913h-422v-913h-172v913h-190v148h190v110q0 168 81.5 246t262.5 78q65 0 109 -6v-152q-50 6 -105 6q-99 0 -137.5 -44.5t-38.5 -139.5v-98h422v110
q0 168 81.5 246t262.5 78zM1427 1296v181h172v-181h-172z" />
    <glyph glyph-name="f_f_l" unicode="ffl" horiz-adv-x="1724" 
d="M1399 0v1321q-126 22 -236 22q-99 0 -137.5 -44.5t-38.5 -139.5v-98h260v-148h-260v-913h-172v913h-422v-913h-172v913h-190v148h190v110q0 168 81.5 246t262.5 78q65 0 109 -6v-152q-50 6 -105 6q-99 0 -137.5 -44.5t-38.5 -139.5v-98h422v110q0 168 81.5 246t262.5 78
q102 0 240 -29v29h172v-1495h-172z" />
    <glyph glyph-name=".notdef" horiz-adv-x="1024" 
d="M881 0h-738v1536h738v-1536zM297 133h430v1270h-430v-1270z" />
    <glyph glyph-name=".null" horiz-adv-x="0" 
 />
    <glyph glyph-name=".null" horiz-adv-x="0" 
 />
    <glyph glyph-name=".null" horiz-adv-x="0" 
 />
    <glyph glyph-name="nonmarkingreturn" horiz-adv-x="682" 
 />
    <glyph glyph-name="CR" unicode="&#x9;" horiz-adv-x="485" 
 />
    <glyph glyph-name="CR" unicode="&#xd;" horiz-adv-x="485" 
 />
    <glyph glyph-name="space" unicode=" " horiz-adv-x="614" 
 />
    <glyph glyph-name="exclam" unicode="!" horiz-adv-x="589" 
d="M242 346l-49 717v371h204v-371l-49 -717h-106zM197 0v203h198v-203h-198z" />
    <glyph glyph-name="quotedbl" unicode="&#x22;" horiz-adv-x="999" 
d="M233 877l-28 557h211v-62q0 -118 -25 -256t-61 -239h-97zM614 877l-28 557h211v-62q0 -118 -25 -256t-61 -239h-97z" />
    <glyph glyph-name="numbersign" unicode="#" horiz-adv-x="1390" 
d="M928 1077l61 357h176l-61 -357h215v-153h-242l-69 -406h231v-153h-258l-61 -365h-177l62 365h-342l-62 -365h-176l62 365h-215v153h241l70 406h-231v153h258l61 357h176l-61 -357h342zM559 924l-70 -406h342l70 406h-342z" />
    <glyph glyph-name="dollar" unicode="$" horiz-adv-x="1230" 
d="M541 -201v183q-253 39 -437 311l95 86q164 -197 342 -232v517q-115 33 -195.5 79t-125 102.5t-64 115.5t-19.5 129q0 154 108 254t296 112v182h127v-184q184 -19 293.5 -124t142.5 -290h-191q-44 214 -245 248v-487q130 -36 212.5 -70.5t144 -83.5t88 -114t26.5 -156
q0 -174 -124 -282.5t-347 -117.5v-178h-127zM954 367q0 107 -63 161.5t-223 100.5v-490q135 9 210.5 72t75.5 156zM322 1090q0 -163 219 -250v452q-108 -10 -163.5 -64t-55.5 -138z" />
    <glyph glyph-name="percent" unicode="%" horiz-adv-x="1816" 
d="M164 1104q0 142 101 243t243 101t243 -101t101 -243t-101 -243t-243 -101t-243 101t-101 243zM336 1104q0 -82 50.5 -133t121.5 -51t121.5 51t50.5 133t-50.5 133t-121.5 51t-121.5 -51t-50.5 -133zM1409 1290l-885 -1239l-118 92l874 1229zM965 330q0 142 100.5 243
t243.5 101t243.5 -101t100.5 -243t-100.5 -243t-243.5 -101t-243.5 101t-100.5 243zM1137 330q0 -82 50.5 -133.5t121.5 -51.5t121.5 51.5t50.5 133.5t-50.5 133t-121.5 51t-121.5 -51t-50.5 -133z" />
    <glyph glyph-name="ampersand" unicode="&#x26;" horiz-adv-x="1292" 
d="M954 1245l-125 -100l-12 12q-85 85 -133.5 115.5t-103.5 30.5q-74 0 -123 -47.5t-49 -125.5q0 -48 24 -89t90 -111l451 -484l135 136l115 -125l-138 -133l281 -297q-18 -13 -39 -29.5t-29 -22.5q-148 72 -323 242l-8 -8q-146 -141 -245.5 -187.5t-234.5 -46.5
q-173 0 -279 106t-106 261q0 118 72.5 226t247.5 233l-31 33q-83 88 -121.5 155t-38.5 146q0 138 94.5 230.5t254.5 92.5q106 0 187.5 -45t174.5 -153zM492 135q98 0 172 38.5t186 150.5l12 12l-332 350q-249 -174 -249 -330q0 -98 61.5 -159.5t149.5 -61.5z" />
    <glyph glyph-name="quotesingle" unicode="'" horiz-adv-x="598" 
d="M221 877l-28 557h210v-62q0 -118 -25 -256t-61 -239h-96z" />
    <glyph glyph-name="parenleft" unicode="(" horiz-adv-x="735" 
d="M205 635q0 505 315 901l121 -59q-262 -390 -262 -842t262 -842l-121 -59q-315 396 -315 901z" />
    <glyph glyph-name="parenright" unicode=")" horiz-adv-x="735" 
d="M530 635q0 -505 -315 -901l-121 59q262 390 262 842t-262 842l121 59q315 -396 315 -901z" />
    <glyph glyph-name="asterisk" unicode="*" horiz-adv-x="1118" 
d="M707 680l288 -150l-88 -153l-274 176l14 -326h-176l14 326l-274 -176l-88 153l289 150l-289 149l88 154l274 -176l-14 326h176l-14 -326l274 176l88 -154z" />
    <glyph glyph-name="plus" unicode="+" horiz-adv-x="1265" 
d="M541 174v426h-418v160h418v426h184v-426h418v-160h-418v-426h-184z" />
    <glyph glyph-name="comma" unicode="," horiz-adv-x="614" 
d="M150 -317l-95 77q90 95 125 172.5t35 190.5v90h184v-90q0 -265 -249 -440z" />
    <glyph glyph-name="hyphen" unicode="-" horiz-adv-x="831" 
d="M709 592h-586v176h586v-176z" />
    <glyph glyph-name="period" unicode="." horiz-adv-x="614" 
d="M215 0v213h184v-213h-184z" />
    <glyph glyph-name="slash" unicode="/" horiz-adv-x="1026" 
d="M1022 1470l-872 -1724l-146 86l873 1724z" />
    <glyph glyph-name="zero" unicode="0" horiz-adv-x="1228" 
d="M96 717q0 127 19.5 237.5t61 203.5t102 159.5t146 103.5t189.5 37q129 0 229.5 -56.5t163 -157.5t94.5 -234.5t32 -292.5t-32 -292.5t-94.5 -235t-163 -158t-229.5 -56.5q-104 0 -189.5 37t-146 103.5t-102 159.5t-61 204t-19.5 238zM285 717q0 -274 83 -426t246 -152
t246.5 152t83.5 426t-83.5 425.5t-246.5 151.5t-246 -151.5t-83 -425.5z" />
    <glyph glyph-name="one" unicode="1" horiz-adv-x="1228" 
d="M586 1217l-262 -187l-111 123l393 281h160v-1434h-180v1217z" />
    <glyph glyph-name="two" unicode="2" horiz-adv-x="1228" 
d="M590 1458q204 0 327 -108.5t123 -302.5q0 -235 -258 -523q-168 -189 -368 -364h649v-160h-916v141q220 193 459 451q125 135 185.5 245.5t60.5 217.5q0 108 -70.5 173.5t-197.5 65.5q-122 0 -191.5 -82t-81.5 -235h-180q18 230 132.5 355.5t326.5 125.5z" />
    <glyph glyph-name="three" unicode="3" horiz-adv-x="1228" 
d="M623 1294q-120 0 -194 -65.5t-87 -186.5h-184q26 203 150.5 309.5t318.5 106.5t315 -96.5t121 -267.5q0 -128 -75.5 -221t-182.5 -123q145 -39 225 -131.5t80 -231.5q0 -185 -129.5 -298.5t-357.5 -113.5q-149 0 -271 70t-209 197l97 80q159 -187 374 -187
q140 0 224 68.5t84 185.5q0 72 -29.5 127.5t-81.5 88t-117.5 49t-142.5 16.5h-127v159h127q143 0 233 66.5t90 181.5q0 101 -67 159t-184 58z" />
    <glyph glyph-name="four" unicode="4" horiz-adv-x="1228" 
d="M772 317h-694v150l706 967h168v-957h191v-160h-191v-317h-180v317zM772 1128l-479 -651h479v651z" />
    <glyph glyph-name="five" unicode="5" horiz-adv-x="1228" 
d="M258 674l-20 12v748h798v-160h-618v-416q86 29 211 29q216 0 348.5 -130t132.5 -349q0 -185 -129 -309t-342 -124q-129 0 -244.5 56t-230.5 188l96 96q92 -98 180 -139t197 -41q126 0 207.5 84.5t81.5 202.5q0 141 -91 221t-237 80q-189 0 -340 -49z" />
    <glyph glyph-name="six" unicode="6" horiz-adv-x="1228" 
d="M1102 1085h-184q-21 97 -93 153t-184 56q-298 0 -324 -501q68 62 158.5 99.5t186.5 37.5q209 0 335.5 -136.5t126.5 -347.5t-132.5 -341t-350.5 -130q-510 0 -510 715q0 201 36 350t103.5 239.5t158.5 134.5t206 44q183 0 308.5 -97.5t158.5 -275.5zM637 766
q-182 0 -322 -143q10 -256 96.5 -370t225.5 -114q148 0 225.5 82.5t77.5 231.5q0 147 -81 230t-222 83z" />
    <glyph glyph-name="seven" unicode="7" horiz-adv-x="1228" 
d="M1081 1434v-160q-189 -334 -312 -641t-183 -633h-201q137 639 502 1274h-746v160h940z" />
    <glyph glyph-name="eight" unicode="8" horiz-adv-x="1228" 
d="M162 1081q0 164 119.5 270.5t332.5 106.5q207 0 330 -109t123 -272q0 -104 -53 -191.5t-150 -146.5q139 -72 200.5 -161t61.5 -207q0 -178 -143 -287t-369 -109q-232 0 -372 112.5t-140 309.5q0 248 240 385q-180 113 -180 299zM291 391q0 -118 89 -185t234 -67
t234.5 60.5t89.5 165.5q0 73 -37.5 125t-126.5 100t-260 110l-18 7q-97 -54 -151 -137t-54 -179zM879 1065q0 103 -72 166t-193 63t-192.5 -59.5t-71.5 -153.5q0 -79 78.5 -140.5t280.5 -135.5q78 48 124 117.5t46 142.5z" />
    <glyph glyph-name="nine" unicode="9" horiz-adv-x="1228" 
d="M563 139q51 0 95.5 14t88 49.5t76.5 91t56.5 143.5t31.5 202q-69 -61 -158.5 -98t-183.5 -37q-209 0 -336 136.5t-127 346.5q0 211 133.5 341t354.5 130q236 0 371 -170t135 -524q0 -208 -41 -362.5t-115.5 -246.5t-171 -136t-215.5 -44q-104 0 -202 49.5t-179 137.5
l78 94q139 -117 309 -117zM594 668q179 0 319 143q-13 483 -319 483q-148 0 -225.5 -82t-77.5 -231q0 -147 81 -230t222 -83z" />
    <glyph glyph-name="colon" unicode=":" horiz-adv-x="614" 
d="M215 0v213h184v-213h-184zM215 846v213h184v-213h-184z" />
    <glyph glyph-name="semicolon" unicode=";" horiz-adv-x="614" 
d="M215 846v213h184v-213h-184zM150 -317l-95 77q90 95 125 172.5t35 190.5v90h184v-90q0 -265 -249 -440z" />
    <glyph glyph-name="less" unicode="&#x3c;" horiz-adv-x="1265" 
d="M215 625v110l141 90q333 212 633 359l62 -111l-631 -393l631 -393l-62 -111q-300 147 -633 359z" />
    <glyph glyph-name="equal" unicode="=" horiz-adv-x="1265" 
d="M1143 838h-1020v159h1020v-159zM1143 362h-1020v160h1020v-160z" />
    <glyph glyph-name="greater" unicode="&#x3e;" horiz-adv-x="1265" 
d="M1051 735v-110l-142 -90q-333 -212 -633 -359l-61 111l631 393l-631 393l61 111q300 -147 633 -359z" />
    <glyph glyph-name="question" unicode="?" horiz-adv-x="1091" 
d="M555 1458q195 0 308.5 -97.5t113.5 -266.5q0 -74 -16 -131t-53 -104t-77 -80.5t-108 -80.5q-85 -58 -117.5 -127.5t-32.5 -175.5v-49h-118q-33 97 -33 205q0 66 34.5 129.5t90.5 101.5q16 11 46 31t45.5 30.5t40.5 29.5t38.5 32.5t30 33.5t25 39t14.5 43t6 50
q0 105 -65.5 164t-184.5 59q-94 0 -156 -57t-80 -152h-186q20 161 134.5 267t299.5 106zM422 0v203h199v-203h-199z" />
    <glyph glyph-name="at" unicode="@" horiz-adv-x="1957" 
d="M1444 -51l65 -113q-102 -81 -242.5 -126.5t-287.5 -45.5q-189 0 -347 70t-263.5 191t-163.5 285t-58 351t58 351t163.5 285t263.5 191t347 70q183 0 339.5 -67t263.5 -181.5t167.5 -271t60.5 -332.5q0 -99 -17.5 -183.5t-54.5 -155t-102.5 -110.5t-154.5 -40
q-81 0 -145 31t-95 92q-63 -66 -143.5 -104t-163.5 -38q-100 0 -177 35.5t-124.5 98.5t-71.5 145t-24 178q0 129 49 237.5t150.5 178t238.5 69.5q201 0 303 -120t102 -342v-187q0 -64 32 -99.5t81 -35.5q51 0 87 25.5t55.5 75t27.5 109.5t8 140q0 157 -55 294t-148.5 231.5
t-220.5 149t-268 54.5q-195 0 -352.5 -97.5t-248.5 -275t-91 -401.5t91 -401.5t248.5 -275t352.5 -97.5q120 0 246 43.5t219 118.5zM700 555q0 -149 56 -231t194 -82q153 0 267 137v168q0 171 -56.5 255.5t-189.5 84.5q-115 0 -193 -97.5t-78 -234.5z" />
    <glyph glyph-name="A" unicode="A" horiz-adv-x="1384" 
d="M594 1434h197l552 -1434h-198l-135 371h-635l-135 -371h-199zM692 1245l-260 -715h520z" />
    <glyph glyph-name="B" unicode="B" horiz-adv-x="1280" 
d="M164 0v1434h491q223 0 348 -103t125 -276q0 -107 -54 -187.5t-152 -107.5q135 -29 205.5 -121.5t70.5 -226.5q0 -195 -134 -303.5t-380 -108.5h-520zM344 823h287q152 0 234.5 62.5t82.5 169.5q0 219 -317 219h-287v-451zM1018 412q0 122 -90 187t-271 65h-313v-504h313
q361 0 361 252z" />
    <glyph glyph-name="C" unicode="C" horiz-adv-x="1400" 
d="M92 717q0 162 47.5 299.5t133 235t211 152t276.5 54.5q130 0 236.5 -41.5t177 -112.5t112.5 -160.5t53 -191.5h-188q-21 149 -124.5 245.5t-260.5 96.5q-217 0 -353.5 -152t-136.5 -425t137 -425.5t353 -152.5q277 0 432 264l117 -71q-96 -179 -230.5 -268t-324.5 -89
q-201 0 -353.5 94.5t-233.5 262.5t-81 385z" />
    <glyph glyph-name="D" unicode="D" horiz-adv-x="1402" 
d="M164 0v1434h467q322 0 501 -190.5t179 -526.5q0 -338 -178.5 -527.5t-501.5 -189.5h-467zM344 160h272q243 0 376.5 145t133.5 412q0 265 -133.5 411t-376.5 146h-272v-1114z" />
    <glyph glyph-name="E" unicode="E" horiz-adv-x="1157" 
d="M164 0v1434h893v-160h-713v-455h641v-160h-641v-499h731v-160h-911z" />
    <glyph glyph-name="F" unicode="F" horiz-adv-x="1097" 
d="M164 0v1434h893v-160h-713v-496h641v-160h-641v-618h-180z" />
    <glyph glyph-name="G" unicode="G" horiz-adv-x="1443" 
d="M1319 971h-184q-42 151 -155.5 237t-254.5 86q-92 0 -172.5 -38t-142.5 -109t-98 -182t-36 -248q0 -265 138 -421.5t350 -156.5q76 0 147.5 31t127 86t89 136.5t33.5 176.5h-389v160h569v-102q0 -161 -46.5 -287.5t-127.5 -205t-184.5 -119t-222.5 -40.5q-195 0 -348 97
t-236.5 265.5t-83.5 379.5q0 216 79 384.5t222 262.5t326 94q118 0 221.5 -37.5t179 -103.5t127 -154.5t72.5 -191.5z" />
    <glyph glyph-name="H" unicode="H" horiz-adv-x="1437" 
d="M164 0v1434h180v-592h750v592h180v-1434h-180v682h-750v-682h-180z" />
    <glyph glyph-name="I" unicode="I" horiz-adv-x="528" 
d="M174 1434h180v-1434h-180v1434z" />
    <glyph glyph-name="J" unicode="J" horiz-adv-x="1163" 
d="M532 139q142 0 214.5 95.5t72.5 261.5v938h180v-938q0 -239 -115 -380t-325 -141q-294 0 -467 318l109 74q76 -118 155 -173t176 -55z" />
    <glyph glyph-name="K" unicode="K" horiz-adv-x="1257" 
d="M344 1434v-787l617 787h213l-467 -588l530 -846h-217l-428 705l-248 -314v-391h-180v1434h180z" />
    <glyph glyph-name="L" unicode="L" horiz-adv-x="1095" 
d="M164 0v1434h180v-1274h711v-160h-891z" />
    <glyph glyph-name="M" unicode="M" horiz-adv-x="1732" 
d="M922 260h-111l-475 854v-1114h-172v1434h176l526 -945l527 945h176v-1434h-172v1114z" />
    <glyph glyph-name="N" unicode="N" horiz-adv-x="1449" 
d="M164 0v1434h174l776 -1149v1149h172v-1434h-174l-776 1149v-1149h-172z" />
    <glyph glyph-name="O" unicode="O" horiz-adv-x="1464" 
d="M1372 717q0 -210 -74 -376.5t-220.5 -266t-344.5 -99.5q-199 0 -346 99.5t-221 266t-74 376.5q0 156 43.5 291t123.5 235.5t202 157.5t272 57q198 0 344.5 -99t220.5 -265.5t74 -376.5zM276 717q0 -265 124 -421.5t333 -156.5q207 0 331 156.5t124 421.5t-123.5 421
t-331.5 156q-209 0 -333 -156t-124 -421z" />
    <glyph glyph-name="P" unicode="P" horiz-adv-x="1214" 
d="M1143 987q0 -219 -141.5 -332.5t-393.5 -113.5h-264v-541h-180v1434h444q252 0 393.5 -114t141.5 -333zM958 987q0 147 -89.5 217t-274.5 70h-250v-574h250q185 0 274.5 70t89.5 217z" />
    <glyph glyph-name="Q" unicode="Q" horiz-adv-x="1464" 
d="M1372 717q0 -313 -160 -518l211 -230l-127 -116l-211 227q-153 -105 -352 -105t-346 99.5t-221 266t-74 376.5q0 156 43.5 291t123.5 235.5t202 157.5t272 57q198 0 344.5 -99t220.5 -265.5t74 -376.5zM748 453l126 116l216 -237q98 152 98 385q0 265 -123.5 421
t-331.5 156q-209 0 -333 -156t-124 -421t124 -421.5t333 -156.5q135 0 238 68z" />
    <glyph glyph-name="R" unicode="R" horiz-adv-x="1288" 
d="M1159 995q0 -156 -83 -263.5t-236 -151.5l407 -580h-207l-387 557h-309v-557h-180v1434h477q237 0 377.5 -118.5t140.5 -320.5zM975 995q0 132 -87.5 205.5t-258.5 73.5h-285v-557h285q171 0 258.5 73t87.5 205z" />
    <glyph glyph-name="S" unicode="S" horiz-adv-x="1230" 
d="M631 139q151 0 237 64t86 164q0 50 -14 87.5t-39.5 65t-74.5 51t-104 41.5t-144 41q-125 32 -213.5 79t-137 105t-69.5 119.5t-21 133.5q0 164 121 266t330 102q221 0 350.5 -107t165.5 -311h-191q-50 254 -321 254q-133 0 -201.5 -55t-68.5 -149q0 -91 75 -163.5
t230 -113.5q113 -30 190 -57.5t142.5 -63.5t102.5 -79.5t57 -101.5t20 -134q0 -181 -134.5 -291.5t-375.5 -110.5q-309 0 -525 318l95 86q104 -123 206.5 -181.5t225.5 -58.5z" />
    <glyph glyph-name="T" unicode="T" horiz-adv-x="1155" 
d="M487 0v1274h-446v160h1073v-160h-446v-1274h-181z" />
    <glyph glyph-name="U" unicode="U" horiz-adv-x="1464" 
d="M733 -25q-127 0 -230.5 36.5t-179.5 107.5t-117.5 183.5t-41.5 256.5v875h180v-865q0 -430 389 -430q387 0 387 430v865h180v-875q0 -289 -150 -436.5t-417 -147.5z" />
    <glyph glyph-name="V" unicode="V" horiz-adv-x="1384" 
d="M791 0h-197l-553 1434h190l461 -1223l461 1223h190z" />
    <glyph glyph-name="W" unicode="W" horiz-adv-x="2039" 
d="M911 1434h217l306 -1223l370 1223h195l-440 -1434h-242l-297 1202l-297 -1202h-242l-440 1434h195l370 -1223z" />
    <glyph glyph-name="X" unicode="X" horiz-adv-x="1247" 
d="M1008 0l-385 588l-383 -588h-209l487 748l-446 686h209l342 -527l344 527h209l-449 -686l490 -748h-209z" />
    <glyph glyph-name="Y" unicode="Y" horiz-adv-x="1245" 
d="M1214 1434l-501 -867v-567h-181v567l-501 867h198l394 -674l393 674h198z" />
    <glyph glyph-name="Z" unicode="Z" horiz-adv-x="1150" 
d="M61 150l791 1124h-750v160h967v-150l-790 -1124h811v-160h-1029v150z" />
    <glyph glyph-name="bracketleft" unicode="[" horiz-adv-x="831" 
d="M246 -266v1802h545v-143h-369v-1516h369v-143h-545z" />
    <glyph glyph-name="backslash" unicode="\" horiz-adv-x="1026" 
d="M877 -254l-873 1724l146 86l872 -1724z" />
    <glyph glyph-name="bracketright" unicode="]" horiz-adv-x="831" 
d="M586 1536v-1802h-545v143h369v1516h-369v143h545z" />
    <glyph glyph-name="asciicircum" unicode="^" horiz-adv-x="1265" 
d="M549 1434h168l92 -146q190 -302 262 -485l-108 -72l-330 496l-330 -496l-108 72q72 183 262 485z" />
    <glyph glyph-name="underscore" unicode="_" horiz-adv-x="1024" 
d="M0 -348v139h1024v-139h-1024z" />
    <glyph glyph-name="grave" unicode="`" horiz-adv-x="819" 
d="M207 1417l131 109l274 -305l-73 -62q-55 26 -111 67.5t-137 114.5z" />
    <glyph glyph-name="a" unicode="a" horiz-adv-x="1118" 
d="M1018 -25q-27 0 -52 6t-54 20.5t-52 47t-35 78.5q-75 -79 -156 -115.5t-184 -36.5q-182 0 -292.5 95t-110.5 239t110.5 239t292.5 95q192 0 328 -84v129q0 56 -12 98t-41 76.5t-83 53t-132 18.5q-105 0 -161.5 -48t-68.5 -122h-178q14 140 124 230.5t298 90.5
q203 0 314.5 -97.5t111.5 -262.5v-543q0 -27 15.5 -43t39.5 -16q47 0 72 2v-137q-37 -13 -94 -13zM526 492q-126 0 -197 -45.5t-71 -137.5t71 -137t197 -45q78 0 153.5 36.5t133.5 96.5v143q-116 89 -287 89z" />
    <glyph glyph-name="b" unicode="b" horiz-adv-x="1200" 
d="M305 113l-31 -113h-131v1495h172v-539q63 60 149 94.5t179 34.5q224 0 344.5 -150.5t120.5 -404.5t-120.5 -404.5t-344.5 -150.5q-96 0 -186.5 37t-151.5 101zM932 530q0 192 -77.5 298t-238.5 106q-80 0 -163.5 -36t-137.5 -97v-543q54 -60 137.5 -95.5t163.5 -35.5
q161 0 238.5 106t77.5 297z" />
    <glyph glyph-name="c" unicode="c" horiz-adv-x="1093" 
d="M82 530q0 160 57.5 285t169.5 197.5t262 72.5q186 0 313.5 -99.5t162.5 -276.5h-177q-24 101 -101 163t-185 62q-157 0 -241.5 -108t-84.5 -296q0 -186 95 -294.5t261 -108.5q91 0 172 53.5t136 145.5l112 -68q-69 -139 -179 -211t-253 -72q-155 0 -274.5 72t-182.5 198
t-63 285z" />
    <glyph glyph-name="d" unicode="d" horiz-adv-x="1200" 
d="M926 0l-31 113q-63 -65 -153 -101.5t-185 -36.5q-224 0 -344.5 150.5t-120.5 404.5t120.5 404.5t344.5 150.5q93 0 178 -34.5t150 -94.5v539h172v-1495h-131zM268 530q0 -191 77.5 -297t238.5 -106q80 0 162.5 35.5t138.5 95.5v543q-56 62 -138.5 97.5t-162.5 35.5
q-161 0 -238.5 -106t-77.5 -298z" />
    <glyph glyph-name="e" unicode="e" horiz-adv-x="1165" 
d="M911 295l107 -72q-77 -125 -174.5 -186.5t-233.5 -61.5q-232 0 -380 158t-148 397q0 242 139.5 398.5t364.5 156.5q221 0 359 -156.5t138 -404.5q0 -43 -2 -63h-819q17 -156 110 -245t242 -89q175 0 297 168zM262 608h643q-9 146 -99.5 236t-219.5 90q-133 0 -219 -87.5
t-105 -238.5z" />
    <glyph glyph-name="f" unicode="f" horiz-adv-x="704" 
d="M565 1495q65 0 109 -6v-152q-50 6 -105 6q-99 0 -137.5 -44.5t-38.5 -139.5v-98h260v-148h-260v-913h-172v913h-190v148h190v110q0 168 81.5 246t262.5 78z" />
    <glyph glyph-name="g" unicode="g" horiz-adv-x="1200" 
d="M131 -223l84 86q94 -92 173 -131t185 -39q149 0 230.5 79t81.5 238v92q-65 -59 -150 -93t-178 -34q-224 0 -344.5 150.5t-120.5 404.5t120.5 404.5t344.5 150.5q96 0 185.5 -36.5t152.5 -102.5l31 115h131v-1030q0 -242 -121 -366t-354 -124q-260 0 -451 236zM268 530
q0 -191 77.5 -297t238.5 -106q80 0 162.5 35.5t138.5 95.5v543q-56 62 -138.5 97.5t-162.5 35.5q-161 0 -238.5 -106t-77.5 -298z" />
    <glyph glyph-name="h" unicode="h" horiz-adv-x="1193" 
d="M682 1085q172 0 275.5 -102.5t103.5 -286.5v-696h-172v655q0 135 -60 207t-182 72q-98 0 -187 -50t-145 -118v-766h-172v1495h172v-559q160 149 367 149z" />
    <glyph glyph-name="i" unicode="i" horiz-adv-x="479" 
d="M154 0v1061h172v-1061h-172zM154 1296v181h172v-181h-172z" />
    <glyph glyph-name="j" unicode="j" horiz-adv-x="479" 
d="M154 1296v181h172v-181h-172zM92 -487l-98 102q101 101 130.5 181.5t29.5 248.5v1016h172v-985q0 -159 -21.5 -255.5t-69.5 -164t-143 -143.5z" />
    <glyph glyph-name="k" unicode="k" horiz-adv-x="1064" 
d="M143 1495h172v-987l469 553h211l-366 -418l426 -643h-195l-338 522l-207 -237v-285h-172v1495z" />
    <glyph glyph-name="l" unicode="l" horiz-adv-x="479" 
d="M154 0v1495h172v-1495h-172z" />
    <glyph glyph-name="m" unicode="m" horiz-adv-x="1800" 
d="M315 788v-788h-172v1061h131l31 -115q69 66 155.5 102.5t180.5 36.5q105 0 182.5 -41.5t118.5 -119.5q177 161 373 161q169 0 260.5 -101t91.5 -288v-696h-172v655q0 140 -48 209.5t-167 69.5q-80 0 -161.5 -44.5t-131.5 -113.5q6 -37 6 -80v-696h-172v655
q0 140 -48 209.5t-167 69.5q-81 0 -160 -40.5t-131 -105.5z" />
    <glyph glyph-name="n" unicode="n" horiz-adv-x="1193" 
d="M682 1085q172 0 275.5 -102.5t103.5 -286.5v-696h-172v655q0 135 -60 207t-182 72q-95 0 -182 -51t-150 -117v-766h-172v1061h131l31 -135q170 159 377 159z" />
    <glyph glyph-name="o" unicode="o" horiz-adv-x="1187" 
d="M82 530q0 159 61.5 284.5t179 198t271.5 72.5t271.5 -72.5t179 -198t61.5 -284.5t-61.5 -284.5t-179 -198t-271.5 -72.5t-271.5 72.5t-179 198t-61.5 284.5zM258 530q0 -186 89 -294.5t247 -108.5t247 108.5t89 294.5t-89 295t-247 109t-247 -109t-89 -295z" />
    <glyph glyph-name="p" unicode="p" horiz-adv-x="1200" 
d="M315 102v-536h-172v1495h131l31 -115q61 65 151.5 102t186.5 37q224 0 344.5 -150.5t120.5 -404.5t-120.5 -404.5t-344.5 -150.5q-93 0 -179 34t-149 93zM932 530q0 192 -77.5 298t-238.5 106q-80 0 -163.5 -36t-137.5 -97v-543q54 -60 137.5 -95.5t163.5 -35.5
q161 0 238.5 106t77.5 297z" />
    <glyph glyph-name="q" unicode="q" horiz-adv-x="1200" 
d="M885 -434v536q-65 -59 -150 -93t-178 -34q-224 0 -344.5 150.5t-120.5 404.5t120.5 404.5t344.5 150.5q96 0 185.5 -36.5t152.5 -102.5l31 115h131v-1495h-172zM268 530q0 -191 77.5 -297t238.5 -106q80 0 162.5 35.5t138.5 95.5v543q-56 62 -138.5 97.5t-162.5 35.5
q-161 0 -238.5 -106t-77.5 -298z" />
    <glyph glyph-name="r" unicode="r" horiz-adv-x="743" 
d="M713 1083v-157q-53 6 -90 6q-93 0 -177.5 -47t-130.5 -121v-764h-172v1061h131l31 -135q58 77 146.5 118t193.5 41q45 0 68 -2z" />
    <glyph glyph-name="s" unicode="s" horiz-adv-x="1019" 
d="M76 227l80 82q95 -100 183 -141t183 -41q123 0 181.5 42t58.5 103q0 73 -59 111t-216 82q-200 57 -284 138t-84 200q0 124 96 203t272 79q166 0 276.5 -78.5t145.5 -228.5h-180q-42 156 -235 156q-89 0 -144 -33.5t-55 -89.5q0 -63 57 -110.5t211 -90.5
q196 -55 285.5 -128.5t89.5 -198.5q0 -139 -102 -223.5t-304 -84.5q-268 0 -456 252z" />
    <glyph glyph-name="t" unicode="t" horiz-adv-x="704" 
d="M489 -25q-117 0 -192.5 81.5t-75.5 242.5v614h-190v107l190 41v276l172 41v-317h260v-148h-260v-602q0 -104 36.5 -144t133.5 -40q63 0 90 2v-119q-62 -35 -164 -35z" />
    <glyph glyph-name="u" unicode="u" horiz-adv-x="1183" 
d="M592 127q128 0 207.5 81t79.5 238v615h172v-627q0 -231 -123.5 -345t-335.5 -114t-335.5 114t-123.5 345v627h172v-615q0 -157 79.5 -238t207.5 -81z" />
    <glyph glyph-name="v" unicode="v" horiz-adv-x="1081" 
d="M633 0h-184l-418 1061h184l326 -871l325 871h185z" />
    <glyph glyph-name="w" unicode="w" horiz-adv-x="1613" 
d="M729 1061h156l254 -844l258 844h186l-362 -1061h-164l-250 823l-250 -823h-164l-362 1061h186l258 -844z" />
    <glyph glyph-name="x" unicode="x" horiz-adv-x="1024" 
d="M250 1061l262 -371l262 371h193l-359 -506l396 -555h-195l-297 420l-297 -420h-195l396 555l-359 506h193z" />
    <glyph glyph-name="y" unicode="y" horiz-adv-x="1062" 
d="M193 -524l-52 116q126 59 186.5 134t114.5 223l21 55l-432 1057h178l336 -840l313 840h174l-428 -1139q-77 -203 -161 -294.5t-250 -151.5z" />
    <glyph glyph-name="z" unicode="z" horiz-adv-x="960" 
d="M51 0v137l623 776h-586v148h801v-137l-623 -777h643v-147h-858z" />
    <glyph glyph-name="braceleft" unicode="{" horiz-adv-x="788" 
d="M127 561v148q94 0 153.5 58.5t59.5 147.5v256q0 209 129 289q67 43 180 43l37 -110l-108 -43q-34 -13 -48 -45.5t-14 -94.5v-280q0 -131 -46.5 -197t-150.5 -98q104 -32 150.5 -98t46.5 -197v-281q0 -61 14 -93.5t48 -45.5l108 -43l-37 -110q-113 0 -180 43
q-129 80 -129 288v256q0 89 -59.5 148t-153.5 59z" />
    <glyph glyph-name="bar" unicode="|" horiz-adv-x="598" 
d="M225 -410v1985h148v-1985h-148z" />
    <glyph glyph-name="braceright" unicode="}" horiz-adv-x="788" 
d="M662 709v-148q-94 0 -153.5 -59t-59.5 -148v-256q0 -208 -130 -288q-67 -43 -180 -43l-37 110l109 43q34 13 47.5 45t13.5 94v281q0 131 46.5 197t150.5 98q-104 32 -150.5 98t-46.5 197v280q0 62 -13.5 94.5t-47.5 45.5l-109 43l37 110q113 0 180 -43q130 -80 130 -289
v-256q0 -89 59.5 -147.5t153.5 -58.5z" />
    <glyph glyph-name="asciitilde" unicode="~" horiz-adv-x="1265" 
d="M672 727q62 -44 104 -63t94 -19q107 0 152 152l149 -25q-21 -123 -101.5 -205t-192.5 -82q-135 0 -283 111q-62 44 -104 63t-95 19q-106 0 -151 -152l-150 25q21 122 102 204.5t193 82.5q132 0 283 -111z" />
    <glyph glyph-name="uni00A0" unicode="&#xa0;" horiz-adv-x="614" 
 />
    <glyph glyph-name="exclamdown" unicode="&#xa1;" horiz-adv-x="589" 
d="M193 0l49 717h106l49 -717v-371h-204v371zM197 860v203h198v-203h-198z" />
    <glyph glyph-name="cent" unicode="&#xa2;" horiz-adv-x="1093" 
d="M82 530q0 229 121.5 381.5t328.5 171.5v179h127v-183q160 -21 269.5 -125t136.5 -276h-176q-20 101 -81 166t-149 84v-799q150 27 254 201l113 -68q-128 -255 -367 -282v-181h-127v181q-207 23 -328.5 174t-121.5 376zM258 530q0 -162 72 -266.5t202 -130.5v795
q-131 -20 -202.5 -125.5t-71.5 -272.5z" />
    <glyph glyph-name="sterling" unicode="&#xa3;" horiz-adv-x="1198" 
d="M1079 1059h-180q-14 106 -74.5 170.5t-154.5 64.5q-118 0 -181 -64t-63 -192v-233h424v-119h-424v-180q0 -238 -133 -346h844v-160h-1055v143q164 129 164 328v215h-164v119h164v225q0 213 110 320.5t308 107.5q170 0 282 -104t133 -295z" />
    <glyph glyph-name="currency" unicode="&#xa4;" horiz-adv-x="1447" 
d="M283 680q0 134 65 240l-184 184l129 131l180 -182q112 75 250 75t250 -75l182 182l129 -131l-184 -184q65 -111 65 -240q0 -134 -65 -240l184 -182l-129 -131l-182 180q-106 -71 -250 -71q-140 0 -250 71l-180 -180l-129 131l182 182q-63 108 -63 240zM451 680
q0 -127 75 -205t197 -78t198 78t76 205t-76 207t-198 80q-121 0 -196.5 -79.5t-75.5 -207.5z" />
    <glyph glyph-name="yen" unicode="&#xa5;" horiz-adv-x="1245" 
d="M1141 313h-428v-313h-181v313h-428v119h428v135h-428v119h359l-432 748h198l394 -674l393 674h198l-434 -748h361v-119h-428v-135h428v-119z" />
    <glyph glyph-name="brokenbar" unicode="&#xa6;" horiz-adv-x="598" 
d="M225 451h148v-656h-148v656zM225 1409h148v-655h-148v655z" />
    <glyph glyph-name="section" unicode="&#xa7;" horiz-adv-x="997" 
d="M700 645q0 83 -49 130.5t-151 66.5q-88 -15 -142.5 -69.5t-54.5 -129.5q0 -83 49.5 -130.5t151.5 -66.5q87 15 141.5 69t54.5 130zM492 -57q105 0 159 47t54 119t-50.5 116.5t-183.5 75.5q-348 79 -348 326q0 97 52 167.5t144 110.5q-93 35 -146.5 102.5t-53.5 159.5
q0 131 99.5 211t273.5 80q164 0 260 -85.5t122 -237.5h-178q-11 76 -64.5 126t-135.5 50q-87 0 -142 -43t-55 -107q0 -60 61 -103t191 -79q176 -50 253 -129t77 -197q0 -94 -50.5 -165t-136.5 -109q85 -33 138 -102t53 -156q0 -148 -98.5 -237t-294.5 -89q-204 0 -375 191
l82 92q138 -135 293 -135z" />
    <glyph glyph-name="dieresis" unicode="&#xa8;" horiz-adv-x="819" 
d="M115 1225v209h184v-209h-184zM520 1225v209h185v-209h-185z" />
    <glyph glyph-name="copyright" unicode="&#xa9;" horiz-adv-x="1699" 
d="M109 717q0 151 58.5 288.5t157.5 236.5t236.5 157.5t288.5 58.5t288.5 -58.5t236.5 -157.5t157.5 -236.5t58.5 -288.5q0 -202 -99 -372.5t-269.5 -270t-372.5 -99.5t-372.5 99.5t-269.5 270t-99 372.5zM223 717q0 -130 49.5 -247.5t133.5 -202.5t200 -135t244 -50t244 50
t200 135t133.5 202.5t49.5 247.5t-49.5 247.5t-133.5 202.5t-200 135t-244 50t-244 -50t-200 -135t-133.5 -202.5t-49.5 -247.5zM453 711q0 194 108.5 318t288.5 124q151 0 256 -85t129 -239h-139q-19 94 -83 148.5t-153 54.5q-127 0 -197.5 -86t-70.5 -235
q0 -147 76 -233.5t209 -86.5q71 0 132 42.5t105 117.5l90 -53q-115 -228 -338 -228q-187 0 -300 124t-113 317z" />
    <glyph glyph-name="ordfeminine" unicode="&#xaa;" horiz-adv-x="901" 
d="M803 666q-28 0 -55 6t-59.5 29.5t-47.5 62.5q-98 -98 -254 -98q-133 0 -216 72.5t-83 174.5q0 104 80.5 179t218.5 75q143 0 242 -86v58q0 42 -5.5 70t-23.5 57t-57 43t-99 14q-159 0 -180 -109h-139q11 99 98 167.5t234 68.5q156 0 237.5 -72t81.5 -190v-377
q0 -20 13 -31.5t32 -11.5q38 0 56 2v-96q-36 -8 -74 -8zM420 1040q-178 0 -178 -127q0 -54 43.5 -87t134.5 -33q121 0 209 79v103q-83 65 -209 65z" />
    <glyph glyph-name="guillemotleft" unicode="&#xab;" horiz-adv-x="1198" 
d="M102 606v66l119 86q167 119 359 219l65 -90l-352 -248l352 -248l-65 -90q-192 100 -359 219zM553 606v66l119 86q169 121 358 219l66 -90l-353 -248l353 -248l-66 -90q-189 98 -358 219z" />
    <glyph glyph-name="logicalnot" unicode="&#xac;" horiz-adv-x="1265" 
d="M113 750v159h1020v-575h-185v416h-835z" />
    <glyph glyph-name="uni00AD" unicode="&#xad;" horiz-adv-x="831" 
d="M709 592h-586v176h586v-176z" />
    <glyph glyph-name="registered" unicode="&#xae;" horiz-adv-x="1699" 
d="M109 717q0 151 58.5 288.5t157.5 236.5t236.5 157.5t288.5 58.5t288.5 -58.5t236.5 -157.5t157.5 -236.5t58.5 -288.5q0 -202 -99 -372.5t-269.5 -270t-372.5 -99.5t-372.5 99.5t-269.5 270t-99 372.5zM223 717q0 -130 49.5 -247.5t133.5 -202.5t200 -135t244 -50t244 50
t200 135t133.5 202.5t49.5 247.5t-49.5 247.5t-133.5 202.5t-200 135t-244 50t-244 -50t-200 -135t-133.5 -202.5t-49.5 -247.5zM1171 895q0 -86 -47 -145t-133 -86l221 -375h-149l-205 356h-164v-356h-139v854h297q148 0 233.5 -65.5t85.5 -182.5zM1032 895
q0 66 -43.5 99.5t-144.5 33.5h-150v-266h150q100 0 144 34t44 99z" />
    <glyph glyph-name="macron" unicode="&#xaf;" horiz-adv-x="819" 
d="M111 1257v140h598v-140h-598z" />
    <glyph glyph-name="degree" unicode="&#xb0;" horiz-adv-x="819" 
d="M133 1182q0 115 80.5 195.5t196.5 80.5t196 -80t80 -196t-80.5 -196.5t-195.5 -80.5q-116 0 -196.5 80.5t-80.5 196.5zM268 1182q0 -63 40.5 -105.5t101.5 -42.5t101 42.5t40 105.5t-40 105t-101 42t-101.5 -42t-40.5 -105z" />
    <glyph glyph-name="plusminus" unicode="&#xb1;" horiz-adv-x="1265" 
d="M1143 0h-1020v160h1020v-160zM541 248v426h-418v160h418v426h184v-426h418v-160h-418v-426h-184z" />
    <glyph glyph-name="twosuperior" unicode="&#xb2;" 
d="M387 1313q-66 0 -105.5 -43.5t-52.5 -136.5h-139q13 152 96 234.5t215 82.5q135 0 213 -72t78 -200q0 -87 -38 -166t-122 -172q-119 -130 -217 -219h385v-136h-602v127q149 128 305 297q72 80 103 141t31 124q0 67 -38 103t-112 36z" />
    <glyph glyph-name="threesuperior" unicode="&#xb3;" 
d="M391 1311q-68 0 -110.5 -38.5t-49.5 -105.5h-153q17 133 103 208t208 75q137 0 223 -69t86 -187q0 -72 -41.5 -129.5t-103.5 -85.5q75 -29 124.5 -87t49.5 -140q0 -123 -88 -203t-240 -80q-191 0 -319 184l80 70q57 -63 112.5 -89t126.5 -26q77 0 124.5 42t47.5 102
q0 81 -59 119t-160 38h-96v135h96q88 0 139.5 38t51.5 102q0 58 -40 92.5t-112 34.5z" />
    <glyph glyph-name="acute" unicode="&#xb4;" horiz-adv-x="819" 
d="M481 1526l131 -109l-82 -74q-92 -84 -144 -122t-105 -64l-74 64z" />
    <glyph glyph-name="mu" unicode="&#xb5;" horiz-adv-x="1204" 
d="M522 -25q-115 0 -207 50v-459h-172v1495h172v-670q0 -128 61 -196t181 -68q95 0 182 51t150 117v766h172v-1061h-131l-31 135q-171 -160 -377 -160z" />
    <glyph glyph-name="paragraph" unicode="&#xb6;" horiz-adv-x="1171" 
d="M543 1434h440v-1702h-149v1548h-93v-1548h-155v815h-19q-130 0 -237.5 51.5t-174.5 154.5t-67 240q0 205 127 323t328 118z" />
    <glyph glyph-name="periodcentered" unicode="&#xb7;" horiz-adv-x="614" 
d="M215 584v213h184v-213h-184z" />
    <glyph glyph-name="cedilla" unicode="&#xb8;" horiz-adv-x="819" 
d="M362 -358q45 0 74 23.5t29 62.5q0 49 -50 75.5t-132 26.5l-13 16l72 154h145l-41 -84q79 -19 125.5 -72t46.5 -125q0 -84 -63.5 -145t-187.5 -61q-118 0 -193 94l64 80q51 -45 124 -45z" />
    <glyph glyph-name="onesuperior" unicode="&#xb9;" 
d="M387 1241l-141 -104l-99 110l259 189h133v-951h-152v756z" />
    <glyph glyph-name="ordmasculine" unicode="&#xba;" horiz-adv-x="901" 
d="M78 1059q0 170 104 280.5t269 110.5t268.5 -110.5t103.5 -280.5t-103.5 -280.5t-268.5 -110.5t-269 110.5t-104 280.5zM229 1059q0 -121 60.5 -192.5t161.5 -71.5t161 71.5t60 192.5t-60 192.5t-161 71.5t-161.5 -71.5t-60.5 -192.5z" />
    <glyph glyph-name="guillemotright" unicode="&#xbb;" horiz-adv-x="1198" 
d="M1096 672v-66l-119 -86q-167 -119 -359 -219l-65 90l352 248l-352 248l65 90q192 -100 359 -219zM645 672v-66l-119 -86q-169 -121 -358 -219l-66 90l353 248l-353 248l66 90q189 -98 358 -219z" />
    <glyph glyph-name="onequarter" unicode="&#xbc;" horiz-adv-x="2007" 
d="M387 1241l-141 -104l-99 110l259 189h133v-951h-152v756zM1618 203h-442v123l454 622h139v-610h115v-135h-115v-203h-151v203zM1618 700l-260 -362h260v362zM1325 1464l123 -67l-766 -1428l-123 68z" />
    <glyph glyph-name="onehalf" unicode="&#xbd;" horiz-adv-x="2007" 
d="M387 1241l-141 -104l-99 110l259 189h133v-951h-152v756zM1536 827q-66 0 -105.5 -43.5t-52.5 -136.5h-139q13 152 96 235t215 83q134 0 212.5 -72.5t78.5 -200.5q0 -87 -38 -166t-122 -172q-119 -130 -217 -219h385v-135h-602v127q149 128 305 297q72 80 103 140.5
t31 123.5q0 67 -38 103t-112 36zM1325 1464l123 -67l-766 -1428l-123 68z" />
    <glyph glyph-name="threequarters" unicode="&#xbe;" horiz-adv-x="2007" 
d="M391 1311q72 0 112 -34.5t40 -92.5q0 -64 -51.5 -102t-139.5 -38h-96v-135h96q101 0 160 -38t59 -119q0 -60 -47.5 -102t-124.5 -42q-71 0 -126.5 26t-112.5 89l-80 -70q128 -184 319 -184q152 0 240 80t88 203q0 82 -49.5 140t-124.5 87q62 28 103.5 85.5t41.5 129.5
q0 118 -86 187t-223 69q-122 0 -208 -75t-103 -208h153q7 67 49.5 105.5t110.5 38.5zM1325 1464l123 -67l-766 -1428l-123 68zM1618 203h-442v123l454 622h139v-610h115v-135h-115v-203h-151v203zM1618 700l-260 -362h260v362z" />
    <glyph glyph-name="questiondown" unicode="&#xbf;" horiz-adv-x="1091" 
d="M563 -397q-195 0 -308.5 97.5t-113.5 266.5q0 60 12 109t31 85.5t54 73t69 63.5t88 64q85 58 117.5 128t32.5 176v49h119q32 -94 32 -205q0 -66 -34.5 -129.5t-90.5 -101.5q-15 -10 -45.5 -30.5t-46 -31t-40.5 -29.5t-38 -32.5t-30 -33.5t-25 -39t-14 -43t-6 -50
q0 -105 65 -164t184 -59q95 0 156.5 56.5t79.5 151.5h186q-20 -161 -134.5 -266.5t-299.5 -105.5zM696 1063v-203h-198v203h198z" />
    <glyph glyph-name="Agrave" unicode="&#xc0;" horiz-adv-x="1384" 
d="M791 1434h-197l-553 -1434h199l135 371h635l135 -371h198zM432 530l260 715l260 -715h-520zM418 1815l131 108l274 -305l-73 -62q-96 45 -248 183z" />
    <glyph glyph-name="Aacute" unicode="&#xc1;" horiz-adv-x="1384" 
d="M594 1434h197l552 -1434h-198l-135 371h-635l-135 -371h-199zM692 1245l-260 -715h520zM836 1923l131 -108l-82 -74q-93 -84 -145 -122.5t-105 -64.5l-74 64z" />
    <glyph glyph-name="Acircumflex" unicode="&#xc2;" horiz-adv-x="1384" 
d="M791 1434h-197l-553 -1434h199l135 371h635l135 -371h198zM432 530l260 715l260 -715h-520zM631 1892h123l61 -65q121 -129 180 -232l-69 -59l-234 211l-233 -211l-70 59q59 103 180 232z" />
    <glyph glyph-name="Atilde" unicode="&#xc3;" horiz-adv-x="1384" 
d="M791 1434h-197l-553 -1434h199l135 371h635l135 -371h198zM432 530l260 715l260 -715h-520zM725 1788q52 -49 98 -49q59 0 84 100l125 -20q-24 -104 -77 -159.5t-134 -55.5q-91 0 -162 65q-52 49 -98 49q-59 0 -84 -100l-125 20q24 104 77 159.5t134 55.5q91 0 162 -65z
" />
    <glyph glyph-name="Adieresis" unicode="&#xc4;" horiz-adv-x="1384" 
d="M791 1434h-197l-553 -1434h199l135 371h635l135 -371h198zM432 530l260 715l260 -715h-520zM397 1622v209h185v-209h-185zM803 1622v209h184v-209h-184z" />
    <glyph glyph-name="Aring" unicode="&#xc5;" horiz-adv-x="1384" 
d="M791 1434h-197l-553 -1434h199l135 371h635l135 -371h198zM432 530l260 715l260 -715h-520zM909 1726q0 -90 -62.5 -151.5t-154.5 -61.5t-154.5 61.5t-62.5 151.5t62.5 151.5t154.5 61.5t154.5 -61.5t62.5 -151.5zM604 1726q0 -40 25 -66t63 -26t63 26t25 66t-25 66.5
t-63 26.5t-63 -26.5t-25 -66.5z" />
    <glyph glyph-name="AE" unicode="&#xc6;" horiz-adv-x="1769" 
d="M432 371l-188 -371h-203l743 1434h885v-160h-602v-455h530v-160h-530v-499h621v-160h-801v371h-455zM887 530v736l-375 -736h375z" />
    <glyph glyph-name="Ccedilla" unicode="&#xc7;" horiz-adv-x="1400" 
d="M92 717q0 162 47.5 299.5t133 235t211 152t276.5 54.5q130 0 236.5 -41.5t177 -112.5t112.5 -160.5t53 -191.5h-188q-21 149 -124.5 245.5t-260.5 96.5q-217 0 -353.5 -152t-136.5 -425t137 -425.5t353 -152.5q277 0 432 264l117 -71q-85 -158 -199 -245t-270 -105
l-29 -66q79 -19 125.5 -72t46.5 -125q0 -84 -64 -145t-188 -61q-114 0 -192 96l63 78q51 -45 125 -45q45 0 74 23.5t29 62.5q0 49 -50 75.5t-133 26.5l-12 16l61 131q-279 20 -444.5 223t-165.5 517z" />
    <glyph glyph-name="Egrave" unicode="&#xc8;" horiz-adv-x="1157" 
d="M164 0v1434h893v-160h-713v-455h641v-160h-641v-499h731v-160h-911zM365 1815l131 108l274 -305l-74 -62q-94 44 -247 183z" />
    <glyph glyph-name="Eacute" unicode="&#xc9;" horiz-adv-x="1157" 
d="M164 0v1434h893v-160h-713v-455h641v-160h-641v-499h731v-160h-911zM741 1923l131 -108l-81 -74q-93 -84 -145 -122.5t-105 -64.5l-74 64z" />
    <glyph glyph-name="Ecircumflex" unicode="&#xca;" horiz-adv-x="1157" 
d="M164 0v1434h893v-160h-713v-455h641v-160h-641v-499h731v-160h-911zM559 1892h123l61 -65q123 -132 181 -232l-70 -59l-233 211l-234 -211l-70 59q58 100 181 232z" />
    <glyph glyph-name="Edieresis" unicode="&#xcb;" horiz-adv-x="1157" 
d="M164 0v1434h893v-160h-713v-455h641v-160h-641v-499h731v-160h-911zM326 1622v209h184v-209h-184zM731 1622v209h184v-209h-184z" />
    <glyph glyph-name="Igrave" unicode="&#xcc;" horiz-adv-x="528" 
d="M174 1434h180v-1434h-180v1434zM-70 1815l131 108l275 -305l-74 -62q-96 45 -248 183z" />
    <glyph glyph-name="Iacute" unicode="&#xcd;" horiz-adv-x="528" 
d="M174 1434h180v-1434h-180v1434zM467 1923l131 -108l-82 -74q-93 -84 -145 -122.5t-105 -64.5l-73 64z" />
    <glyph glyph-name="Icircumflex" unicode="&#xce;" horiz-adv-x="528" 
d="M174 1434h180v-1434h-180v1434zM203 1892h123l61 -65q121 -129 180 -232l-69 -59l-234 211l-233 -211l-70 59q59 103 180 232z" />
    <glyph glyph-name="Idieresis" unicode="&#xcf;" horiz-adv-x="528" 
d="M174 1434h180v-1434h-180v1434zM-31 1622v209h185v-209h-185zM375 1622v209h184v-209h-184z" />
    <glyph glyph-name="Eth" unicode="&#xd0;" horiz-adv-x="1402" 
d="M164 0v643h-154v148h154v643h467q322 0 501 -190.5t179 -526.5q0 -338 -178.5 -527.5t-501.5 -189.5h-467zM344 160h272q243 0 376.5 145t133.5 412q0 265 -133.5 411t-376.5 146h-272v-483h340v-148h-340v-483z" />
    <glyph glyph-name="Ntilde" unicode="&#xd1;" horiz-adv-x="1449" 
d="M164 0v1434h174l776 -1149v1149h172v-1434h-174l-776 1149v-1149h-172zM758 1788q52 -49 98 -49q59 0 84 100l125 -20q-24 -104 -77 -159.5t-134 -55.5q-91 0 -162 65q-52 49 -98 49q-59 0 -84 -100l-125 20q24 104 77 159.5t134 55.5q91 0 162 -65z" />
    <glyph glyph-name="Ograve" unicode="&#xd2;" horiz-adv-x="1464" 
d="M1372 717q0 -210 -74 -376.5t-220.5 -266t-344.5 -99.5q-199 0 -346 99.5t-221 266t-74 376.5q0 156 43.5 291t123.5 235.5t202 157.5t272 57q198 0 344.5 -99t220.5 -265.5t74 -376.5zM276 717q0 -265 124 -421.5t333 -156.5q207 0 331 156.5t124 421.5t-123.5 421
t-331.5 156q-209 0 -333 -156t-124 -421zM469 1815l131 108l274 -305l-73 -62q-96 45 -248 183z" />
    <glyph glyph-name="Oacute" unicode="&#xd3;" horiz-adv-x="1464" 
d="M1372 717q0 -210 -74 -376.5t-220.5 -266t-344.5 -99.5q-199 0 -346 99.5t-221 266t-74 376.5q0 156 43.5 291t123.5 235.5t202 157.5t272 57q198 0 344.5 -99t220.5 -265.5t74 -376.5zM276 717q0 -265 124 -421.5t333 -156.5q207 0 331 156.5t124 421.5t-123.5 421
t-331.5 156q-209 0 -333 -156t-124 -421zM864 1923l131 -108l-82 -74q-93 -84 -145 -123t-104 -64l-74 64z" />
    <glyph glyph-name="Ocircumflex" unicode="&#xd4;" horiz-adv-x="1464" 
d="M1372 717q0 -210 -74 -376.5t-220.5 -266t-344.5 -99.5q-199 0 -346 99.5t-221 266t-74 376.5q0 156 43.5 291t123.5 235.5t202 157.5t272 57q198 0 344.5 -99t220.5 -265.5t74 -376.5zM276 717q0 -265 124 -421.5t333 -156.5q207 0 331 156.5t124 421.5t-123.5 421
t-331.5 156q-209 0 -333 -156t-124 -421zM670 1892h123l61 -65q121 -129 180 -232l-69 -59l-234 211l-233 -211l-70 59q59 103 180 232z" />
    <glyph glyph-name="Otilde" unicode="&#xd5;" horiz-adv-x="1464" 
d="M1372 717q0 -210 -74 -376.5t-220.5 -266t-344.5 -99.5q-199 0 -346 99.5t-221 266t-74 376.5q0 156 43.5 291t123.5 235.5t202 157.5t272 57q198 0 344.5 -99t220.5 -265.5t74 -376.5zM276 717q0 -265 124 -421.5t333 -156.5q207 0 331 156.5t124 421.5t-123.5 421
t-331.5 156q-209 0 -333 -156t-124 -421zM764 1788q52 -49 98 -49q59 0 84 100l125 -20q-24 -104 -77 -159.5t-134 -55.5q-91 0 -162 65q-52 49 -98 49q-59 0 -84 -100l-125 20q24 104 77 159.5t134 55.5q91 0 162 -65z" />
    <glyph glyph-name="Odieresis" unicode="&#xd6;" horiz-adv-x="1464" 
d="M1372 717q0 -210 -74 -376.5t-220.5 -266t-344.5 -99.5q-199 0 -346 99.5t-221 266t-74 376.5q0 156 43.5 291t123.5 235.5t202 157.5t272 57q198 0 344.5 -99t220.5 -265.5t74 -376.5zM276 717q0 -265 124 -421.5t333 -156.5q207 0 331 156.5t124 421.5t-123.5 421
t-331.5 156q-209 0 -333 -156t-124 -421zM438 1622v209h185v-209h-185zM844 1622v209h184v-209h-184z" />
    <glyph glyph-name="multiply" unicode="&#xd7;" horiz-adv-x="1265" 
d="M758 680l325 -326l-125 -125l-325 326l-326 -326l-125 125l326 326l-326 326l125 124l326 -325l325 325l125 -124z" />
    <glyph glyph-name="Oslash" unicode="&#xd8;" horiz-adv-x="1464" 
d="M145 8l121 172q-174 204 -174 537q0 156 43.5 291t123.5 235.5t202 157.5t272 57q208 0 359 -108l112 159l117 -79l-125 -177q176 -207 176 -536q0 -210 -74 -376.5t-220.5 -266t-344.5 -99.5q-209 0 -362 109l-111 -158zM1188 717q0 228 -98 385l-619 -877
q113 -86 262 -86q207 0 331 156.5t124 421.5zM276 717q0 -229 97 -385l618 876q-109 86 -258 86q-209 0 -333 -156t-124 -421z" />
    <glyph glyph-name="Ugrave" unicode="&#xd9;" horiz-adv-x="1464" 
d="M733 -25q-127 0 -230.5 36.5t-179.5 107.5t-117.5 183.5t-41.5 256.5v875h180v-865q0 -430 389 -430q387 0 387 430v865h180v-875q0 -289 -150 -436.5t-417 -147.5zM428 1815l131 108l275 -305l-74 -62q-96 45 -248 183z" />
    <glyph glyph-name="Uacute" unicode="&#xda;" horiz-adv-x="1464" 
d="M733 -25q-127 0 -230.5 36.5t-179.5 107.5t-117.5 183.5t-41.5 256.5v875h180v-865q0 -430 389 -430q387 0 387 430v865h180v-875q0 -289 -150 -436.5t-417 -147.5zM905 1923l131 -108l-82 -74q-93 -84 -145 -123t-104 -64l-74 64z" />
    <glyph glyph-name="Ucircumflex" unicode="&#xdb;" horiz-adv-x="1464" 
d="M733 -25q-127 0 -230.5 36.5t-179.5 107.5t-117.5 183.5t-41.5 256.5v875h180v-865q0 -430 389 -430q387 0 387 430v865h180v-875q0 -289 -150 -436.5t-417 -147.5zM670 1892h123l61 -65q121 -129 180 -232l-69 -59l-234 211l-233 -211l-70 59q59 103 180 232z" />
    <glyph glyph-name="Udieresis" unicode="&#xdc;" horiz-adv-x="1464" 
d="M733 -25q-127 0 -230.5 36.5t-179.5 107.5t-117.5 183.5t-41.5 256.5v875h180v-865q0 -430 389 -430q387 0 387 430v865h180v-875q0 -289 -150 -436.5t-417 -147.5zM438 1622v209h185v-209h-185zM844 1622v209h184v-209h-184z" />
    <glyph glyph-name="Yacute" unicode="&#xdd;" horiz-adv-x="1245" 
d="M1214 1434l-501 -867v-567h-181v567l-501 867h198l394 -674l393 674h198zM823 1923l131 -108l-82 -74q-93 -84 -145 -123t-104 -64l-74 64z" />
    <glyph glyph-name="Thorn" unicode="&#xde;" horiz-adv-x="1214" 
d="M1143 727q0 -219 -141.5 -332.5t-393.5 -113.5h-264v-281h-180v1434h180v-260h264q252 0 393.5 -114t141.5 -333zM958 727q0 147 -89.5 217t-274.5 70h-250v-574h250q185 0 274.5 70t89.5 217z" />
    <glyph glyph-name="germandbls" unicode="&#xdf;" horiz-adv-x="1167" 
d="M551 690v164q118 0 179 62.5t61 173.5q0 91 -57 147.5t-165 56.5q-115 0 -174 -73.5t-59 -206.5v-1014h-182v983q0 229 105.5 352t313.5 123q116 0 209.5 -52t143 -135t49.5 -177q0 -233 -203 -318q150 -36 242 -134.5t92 -254.5q0 -203 -109 -307.5t-307 -104.5
q-72 0 -145 30t-127 79l59 119q100 -64 191 -64q118 0 186 64.5t68 187.5q0 141 -102.5 219t-268.5 80z" />
    <glyph glyph-name="agrave" unicode="&#xe0;" horiz-adv-x="1118" 
d="M1018 -25q57 0 94 13v137q-25 -2 -72 -2q-24 0 -39.5 16t-15.5 43v543q0 165 -111.5 262.5t-314.5 97.5q-188 0 -298 -90.5t-124 -230.5h178q12 74 68.5 122t161.5 48q78 0 132 -18.5t83 -53t41 -76.5t12 -98v-129q-136 84 -328 84q-182 0 -292.5 -95t-110.5 -239
t110.5 -239t292.5 -95q103 0 184 36.5t156 115.5q12 -46 35 -78.5t52 -47t54 -20.5t52 -6zM526 492q171 0 287 -89v-143q-58 -60 -133.5 -96.5t-153.5 -36.5q-126 0 -197 45t-71 137t71 137.5t197 45.5zM287 1458l131 109l274 -305l-74 -62q-54 26 -110 67t-137 115z" />
    <glyph glyph-name="aacute" unicode="&#xe1;" horiz-adv-x="1118" 
d="M1018 -25q-27 0 -52 6t-54 20.5t-52 47t-35 78.5q-75 -79 -156 -115.5t-184 -36.5q-182 0 -292.5 95t-110.5 239t110.5 239t292.5 95q192 0 328 -84v129q0 56 -12 98t-41 76.5t-83 53t-132 18.5q-105 0 -161.5 -48t-68.5 -122h-178q14 140 124 230.5t298 90.5
q203 0 314.5 -97.5t111.5 -262.5v-543q0 -27 15.5 -43t39.5 -16q47 0 72 2v-137q-37 -13 -94 -13zM526 492q-126 0 -197 -45.5t-71 -137.5t71 -137t197 -45q78 0 153.5 36.5t133.5 96.5v143q-116 89 -287 89zM705 1567l131 -109l-82 -74q-92 -83 -144.5 -121.5t-105.5 -64.5
l-74 64z" />
    <glyph glyph-name="acircumflex" unicode="&#xe2;" horiz-adv-x="1118" 
d="M1018 -25q57 0 94 13v137q-25 -2 -72 -2q-24 0 -39.5 16t-15.5 43v543q0 165 -111.5 262.5t-314.5 97.5q-188 0 -298 -90.5t-124 -230.5h178q12 74 68.5 122t161.5 48q78 0 132 -18.5t83 -53t41 -76.5t12 -98v-129q-136 84 -328 84q-182 0 -292.5 -95t-110.5 -239
t110.5 -239t292.5 -95q103 0 184 36.5t156 115.5q12 -46 35 -78.5t52 -47t54 -20.5t52 -6zM526 492q171 0 287 -89v-143q-58 -60 -133.5 -96.5t-153.5 -36.5q-126 0 -197 45t-71 137t71 137.5t197 45.5zM508 1536h123l61 -66q122 -131 180 -231l-69 -59l-234 211l-233 -211
l-70 59q58 100 180 231z" />
    <glyph glyph-name="atilde" unicode="&#xe3;" horiz-adv-x="1118" 
d="M1018 -25q57 0 94 13v137q-25 -2 -72 -2q-24 0 -39.5 16t-15.5 43v543q0 165 -111.5 262.5t-314.5 97.5q-188 0 -298 -90.5t-124 -230.5h178q12 74 68.5 122t161.5 48q78 0 132 -18.5t83 -53t41 -76.5t12 -98v-129q-136 84 -328 84q-182 0 -292.5 -95t-110.5 -239
t110.5 -239t292.5 -95q103 0 184 36.5t156 115.5q12 -46 35 -78.5t52 -47t54 -20.5t52 -6zM526 492q171 0 287 -89v-143q-58 -60 -133.5 -96.5t-153.5 -36.5q-126 0 -197 45t-71 137t71 137.5t197 45.5zM594 1432q53 -50 98 -50q58 0 84 101l125 -21q-24 -104 -77 -159.5
t-134 -55.5q-90 0 -162 66q-52 49 -98 49q-59 0 -84 -100l-125 20q24 104 77 159.5t134 55.5q91 0 162 -65z" />
    <glyph glyph-name="adieresis" unicode="&#xe4;" horiz-adv-x="1118" 
d="M1018 -25q57 0 94 13v137q-25 -2 -72 -2q-24 0 -39.5 16t-15.5 43v543q0 165 -111.5 262.5t-314.5 97.5q-188 0 -298 -90.5t-124 -230.5h178q12 74 68.5 122t161.5 48q78 0 132 -18.5t83 -53t41 -76.5t12 -98v-129q-136 84 -328 84q-182 0 -292.5 -95t-110.5 -239
t110.5 -239t292.5 -95q103 0 184 36.5t156 115.5q12 -46 35 -78.5t52 -47t54 -20.5t52 -6zM526 492q171 0 287 -89v-143q-58 -60 -133.5 -96.5t-153.5 -36.5q-126 0 -197 45t-71 137t71 137.5t197 45.5zM291 1266v209h184v-209h-184zM696 1266v209h185v-209h-185z" />
    <glyph glyph-name="aring" unicode="&#xe5;" horiz-adv-x="1118" 
d="M1018 -25q57 0 94 13v137q-25 -2 -72 -2q-24 0 -39.5 16t-15.5 43v543q0 165 -111.5 262.5t-314.5 97.5q-188 0 -298 -90.5t-124 -230.5h178q12 74 68.5 122t161.5 48q78 0 132 -18.5t83 -53t41 -76.5t12 -98v-129q-136 84 -328 84q-182 0 -292.5 -95t-110.5 -239
t110.5 -239t292.5 -95q103 0 184 36.5t156 115.5q12 -46 35 -78.5t52 -47t54 -20.5t52 -6zM526 492q171 0 287 -89v-143q-58 -60 -133.5 -96.5t-153.5 -36.5q-126 0 -197 45t-71 137t71 137.5t197 45.5zM791 1370q0 -89 -63 -151t-155 -62t-154.5 61.5t-62.5 151.5
t62.5 151.5t154.5 61.5t155 -62t63 -151zM485 1370q0 -40 25 -66t63 -26t63.5 26t25.5 66t-25.5 66t-63.5 26t-63 -26t-25 -66z" />
    <glyph glyph-name="ae" unicode="&#xe6;" horiz-adv-x="1890" 
d="M1636 295l107 -72q-77 -125 -174.5 -186.5t-233.5 -61.5q-128 0 -233.5 51t-177.5 142q-180 -193 -439 -193q-182 0 -292.5 95t-110.5 239t110.5 239t292.5 95q189 0 320 -80q0 26 8 76v49q0 56 -12 98t-41 76.5t-83 53t-132 18.5q-105 0 -161.5 -48t-68.5 -122h-178
q14 140 124 230.5t298 90.5q258 0 367 -178q69 85 167.5 131.5t217.5 46.5q221 0 359 -156.5t138 -404.5q0 -43 -2 -63h-819q17 -156 110 -245t242 -89q175 0 297 168zM987 608h643q-9 146 -99.5 236t-219.5 90q-133 0 -219 -87.5t-105 -238.5zM526 492q-126 0 -197 -45.5
t-71 -137.5t71 -137t197 -45q93 0 179.5 46t142.5 116q-22 57 -29 98q-119 105 -293 105z" />
    <glyph glyph-name="ccedilla" unicode="&#xe7;" horiz-adv-x="1093" 
d="M82 530q0 243 136.5 399t363.5 156q189 0 321 -107t162 -300h-176q-23 120 -103 188t-192 68q-158 0 -247 -109t-89 -295t95 -294.5t261 -108.5q89 0 166 54.5t133 148.5l113 -68q-122 -244 -344 -278l-31 -68q79 -19 125.5 -72t46.5 -125q0 -84 -64 -145t-188 -61
q-112 0 -192 96l63 78q51 -45 125 -45q45 0 74 23.5t29 62.5q0 49 -50 75.5t-133 26.5l-12 16l62 134q-209 22 -332 173.5t-123 376.5z" />
    <glyph glyph-name="egrave" unicode="&#xe8;" horiz-adv-x="1165" 
d="M1018 223l-107 72q-122 -168 -297 -168q-149 0 -242 89t-110 245h819q2 20 2 63q0 248 -138 404.5t-359 156.5q-225 0 -364.5 -156.5t-139.5 -398.5q0 -239 148 -397t380 -158q136 0 233.5 61.5t174.5 186.5zM905 608h-643q19 151 105 238.5t219 87.5q129 0 219.5 -90
t99.5 -236zM338 1458l131 109l274 -305l-73 -62q-55 26 -111 67.5t-137 114.5z" />
    <glyph glyph-name="eacute" unicode="&#xe9;" horiz-adv-x="1165" 
d="M911 295l107 -72q-77 -125 -174.5 -186.5t-233.5 -61.5q-232 0 -380 158t-148 397q0 242 139.5 398.5t364.5 156.5q221 0 359 -156.5t138 -404.5q0 -43 -2 -63h-819q17 -156 110 -245t242 -89q175 0 297 168zM262 608h643q-9 146 -99.5 236t-219.5 90q-133 0 -219 -87.5
t-105 -238.5zM725 1567l131 -109l-82 -74q-92 -83 -144.5 -121.5t-105.5 -64.5l-73 64z" />
    <glyph glyph-name="ecircumflex" unicode="&#xea;" horiz-adv-x="1165" 
d="M1018 223l-107 72q-122 -168 -297 -168q-149 0 -242 89t-110 245h819q2 20 2 63q0 248 -138 404.5t-359 156.5q-225 0 -364.5 -156.5t-139.5 -398.5q0 -239 148 -397t380 -158q136 0 233.5 61.5t174.5 186.5zM905 608h-643q19 151 105 238.5t219 87.5q129 0 219.5 -90
t99.5 -236zM524 1536h123l62 -66q122 -131 180 -231l-70 -59l-233 211l-234 -211l-69 59q58 100 180 231z" />
    <glyph glyph-name="edieresis" unicode="&#xeb;" horiz-adv-x="1165" 
d="M1018 223l-107 72q-122 -168 -297 -168q-149 0 -242 89t-110 245h819q2 20 2 63q0 248 -138 404.5t-359 156.5q-225 0 -364.5 -156.5t-139.5 -398.5q0 -239 148 -397t380 -158q136 0 233.5 61.5t174.5 186.5zM905 608h-643q19 151 105 238.5t219 87.5q129 0 219.5 -90
t99.5 -236zM297 1266v209h184v-209h-184zM702 1266v209h185v-209h-185z" />
    <glyph glyph-name="igrave" unicode="&#xec;" horiz-adv-x="479" 
d="M154 0v1061h172v-1061h-172zM-90 1458l131 109l274 -305l-73 -62q-55 26 -111 67.5t-137 114.5z" />
    <glyph glyph-name="iacute" unicode="&#xed;" horiz-adv-x="479" 
d="M154 0v1061h172v-1061h-172zM438 1567l131 -109l-82 -74q-92 -84 -144 -122t-105 -64l-74 64z" />
    <glyph glyph-name="icircumflex" unicode="&#xee;" horiz-adv-x="479" 
d="M154 0v1061h172v-1061h-172zM178 1536h123l61 -66q125 -133 181 -231l-70 -59l-233 211l-234 -211l-69 59q58 100 180 231z" />
    <glyph glyph-name="idieresis" unicode="&#xef;" horiz-adv-x="479" 
d="M154 0v1061h172v-1061h-172zM-55 1266v209h184v-209h-184zM350 1266v209h185v-209h-185z" />
    <glyph glyph-name="eth" unicode="&#xf0;" horiz-adv-x="1146" 
d="M1110 1311l-242 -74q187 -213 187 -573q0 -323 -129 -506t-375 -183q-201 0 -330 139t-129 382q0 246 124.5 383t334.5 137q87 0 166.5 -30.5t138.5 -82.5q-43 172 -164 281l-336 -101l-45 129l232 70q-82 39 -187 61l13 152q233 -47 379 -152l317 97zM551 864
q-131 0 -207 -100t-76 -268t76 -268.5t207 -100.5q75 0 134 29.5t104 92t69.5 168t24.5 249.5v43q-128 155 -332 155z" />
    <glyph glyph-name="ntilde" unicode="&#xf1;" horiz-adv-x="1193" 
d="M631 1432q53 -50 98 -50q58 0 84 101l125 -21q-24 -104 -77 -159.5t-134 -55.5q-90 0 -162 66q-52 49 -98 49q-59 0 -84 -100l-125 20q24 104 77 159.5t134 55.5q91 0 162 -65zM682 1085q172 0 275.5 -102.5t103.5 -286.5v-696h-172v655q0 135 -60 207t-182 72
q-95 0 -182 -51t-150 -117v-766h-172v1061h131l31 -135q170 159 377 159z" />
    <glyph glyph-name="ograve" unicode="&#xf2;" horiz-adv-x="1187" 
d="M82 530q0 159 61.5 284.5t179 198t271.5 72.5t271.5 -72.5t179 -198t61.5 -284.5t-61.5 -284.5t-179 -198t-271.5 -72.5t-271.5 72.5t-179 198t-61.5 284.5zM258 530q0 -186 89 -294.5t247 -108.5t247 108.5t89 294.5t-89 295t-247 109t-247 -109t-89 -295zM338 1458
l131 109l274 -305l-73 -62q-55 26 -111 67.5t-137 114.5z" />
    <glyph glyph-name="oacute" unicode="&#xf3;" horiz-adv-x="1187" 
d="M82 530q0 159 61.5 284.5t179 198t271.5 72.5t271.5 -72.5t179 -198t61.5 -284.5t-61.5 -284.5t-179 -198t-271.5 -72.5t-271.5 72.5t-179 198t-61.5 284.5zM258 530q0 -186 89 -294.5t247 -108.5t247 108.5t89 294.5t-89 295t-247 109t-247 -109t-89 -295zM719 1567
l131 -109l-82 -74q-92 -83 -144.5 -121.5t-105.5 -64.5l-74 64z" />
    <glyph glyph-name="ocircumflex" unicode="&#xf4;" horiz-adv-x="1187" 
d="M82 530q0 159 61.5 284.5t179 198t271.5 72.5t271.5 -72.5t179 -198t61.5 -284.5t-61.5 -284.5t-179 -198t-271.5 -72.5t-271.5 72.5t-179 198t-61.5 284.5zM258 530q0 -186 89 -294.5t247 -108.5t247 108.5t89 294.5t-89 295t-247 109t-247 -109t-89 -295zM532 1536h123
l62 -66q122 -131 180 -231l-70 -59l-233 211l-234 -211l-69 59q58 100 180 231z" />
    <glyph glyph-name="otilde" unicode="&#xf5;" horiz-adv-x="1187" 
d="M82 530q0 159 61.5 284.5t179 198t271.5 72.5t271.5 -72.5t179 -198t61.5 -284.5t-61.5 -284.5t-179 -198t-271.5 -72.5t-271.5 72.5t-179 198t-61.5 284.5zM258 530q0 -186 89 -294.5t247 -108.5t247 108.5t89 294.5t-89 295t-247 109t-247 -109t-89 -295zM627 1432
q53 -50 98 -50q58 0 84 101l125 -21q-24 -104 -77 -159.5t-134 -55.5q-90 0 -162 66q-52 49 -98 49q-59 0 -84 -100l-125 20q24 104 77 159.5t134 55.5q91 0 162 -65z" />
    <glyph glyph-name="odieresis" unicode="&#xf6;" horiz-adv-x="1187" 
d="M82 530q0 159 61.5 284.5t179 198t271.5 72.5t271.5 -72.5t179 -198t61.5 -284.5t-61.5 -284.5t-179 -198t-271.5 -72.5t-271.5 72.5t-179 198t-61.5 284.5zM258 530q0 -186 89 -294.5t247 -108.5t247 108.5t89 294.5t-89 295t-247 109t-247 -109t-89 -295zM299 1266v209
h184v-209h-184zM705 1266v209h184v-209h-184z" />
    <glyph glyph-name="divide" unicode="&#xf7;" horiz-adv-x="1265" 
d="M1143 600h-1020v160h1020v-160zM541 977v209h184v-209h-184zM541 174v209h184v-209h-184z" />
    <glyph glyph-name="oslash" unicode="&#xf8;" horiz-adv-x="1187" 
d="M129 -4l94 133q-141 157 -141 401q0 159 61.5 284.5t179 198t271.5 72.5q149 0 258 -65l90 127l117 -80l-96 -135q143 -152 143 -402q0 -159 -61.5 -284.5t-179 -198t-271.5 -72.5q-141 0 -260 66l-90 -127zM930 530q0 152 -66 261l-440 -623q71 -41 170 -41
q158 0 247 108.5t89 294.5zM258 530q0 -154 64 -260l440 621q-75 43 -168 43q-158 0 -247 -109t-89 -295z" />
    <glyph glyph-name="ugrave" unicode="&#xf9;" horiz-adv-x="1183" 
d="M592 127q-128 0 -207.5 81t-79.5 238v615h-172v-627q0 -231 123.5 -345t335.5 -114t335.5 114t123.5 345v627h-172v-615q0 -157 -79.5 -238t-207.5 -81zM297 1458l131 109l274 -305l-73 -62q-55 26 -111 67.5t-137 114.5z" />
    <glyph glyph-name="uacute" unicode="&#xfa;" horiz-adv-x="1183" 
d="M592 127q128 0 207.5 81t79.5 238v615h172v-627q0 -231 -123.5 -345t-335.5 -114t-335.5 114t-123.5 345v627h172v-615q0 -157 79.5 -238t207.5 -81zM745 1567l132 -109l-82 -74q-92 -83 -144.5 -121.5t-105.5 -64.5l-74 64z" />
    <glyph glyph-name="ucircumflex" unicode="&#xfb;" horiz-adv-x="1183" 
d="M592 127q-128 0 -207.5 81t-79.5 238v615h-172v-627q0 -231 123.5 -345t335.5 -114t335.5 114t123.5 345v627h-172v-615q0 -157 -79.5 -238t-207.5 -81zM530 1536h123l62 -66q122 -131 180 -231l-70 -59l-233 211l-234 -211l-69 59q58 100 180 231z" />
    <glyph glyph-name="udieresis" unicode="&#xfc;" horiz-adv-x="1183" 
d="M592 127q-128 0 -207.5 81t-79.5 238v615h-172v-627q0 -231 123.5 -345t335.5 -114t335.5 114t123.5 345v627h-172v-615q0 -157 -79.5 -238t-207.5 -81zM297 1266v209h184v-209h-184zM702 1266v209h185v-209h-185z" />
    <glyph glyph-name="yacute" unicode="&#xfd;" horiz-adv-x="1062" 
d="M193 -524l-52 116q126 59 186.5 134t114.5 223l21 55l-432 1057h178l336 -840l313 840h174l-428 -1139q-77 -203 -161 -294.5t-250 -151.5zM680 1567l131 -109l-82 -74q-92 -83 -144.5 -121.5t-105.5 -64.5l-73 64z" />
    <glyph glyph-name="thorn" unicode="&#xfe;" horiz-adv-x="1200" 
d="M315 102v-536h-172v1929h172v-539q63 60 149 94.5t179 34.5q224 0 344.5 -150.5t120.5 -404.5t-120.5 -404.5t-344.5 -150.5q-93 0 -179 34t-149 93zM932 530q0 192 -77.5 298t-238.5 106q-80 0 -163.5 -36t-137.5 -97v-543q54 -60 137.5 -95.5t163.5 -35.5
q161 0 238.5 106t77.5 297z" />
    <glyph glyph-name="ydieresis" unicode="&#xff;" horiz-adv-x="1062" 
d="M193 -524l-52 116q126 59 186.5 134t114.5 223l21 55l-432 1057h178l336 -840l313 840h174l-428 -1139q-77 -203 -161 -294.5t-250 -151.5zM238 1266v209h184v-209h-184zM643 1266v209h184v-209h-184z" />
    <glyph glyph-name="Amacron" unicode="&#x100;" horiz-adv-x="1384" 
d="M791 1434h-197l-553 -1434h199l135 371h635l135 -371h198zM432 530l260 715l260 -715h-520zM393 1657v139h598v-139h-598z" />
    <glyph glyph-name="amacron" unicode="&#x101;" horiz-adv-x="1118" 
d="M1018 -25q57 0 94 13v137q-25 -2 -72 -2q-24 0 -39.5 16t-15.5 43v543q0 165 -111.5 262.5t-314.5 97.5q-188 0 -298 -90.5t-124 -230.5h178q12 74 68.5 122t161.5 48q78 0 132 -18.5t83 -53t41 -76.5t12 -98v-129q-136 84 -328 84q-182 0 -292.5 -95t-110.5 -239
t110.5 -239t292.5 -95q103 0 184 36.5t156 115.5q12 -46 35 -78.5t52 -47t54 -20.5t52 -6zM526 492q171 0 287 -89v-143q-58 -60 -133.5 -96.5t-153.5 -36.5q-126 0 -197 45t-71 137t71 137.5t197 45.5zM256 1300v140h598v-140h-598z" />
    <glyph glyph-name="Abreve" unicode="&#x102;" horiz-adv-x="1384" 
d="M594 1434h197l552 -1434h-198l-135 371h-635l-135 -371h-199zM692 1245l-260 -715h520zM692 1700q56 0 102.5 42t75.5 130h150q-26 -130 -114 -217.5t-214 -87.5t-212.5 87t-114.5 218h149q29 -88 75.5 -130t102.5 -42z" />
    <glyph glyph-name="abreve" unicode="&#x103;" horiz-adv-x="1118" 
d="M1018 -25q-27 0 -52 6t-54 20.5t-52 47t-35 78.5q-75 -79 -156 -115.5t-184 -36.5q-182 0 -292.5 95t-110.5 239t110.5 239t292.5 95q192 0 328 -84v129q0 56 -12 98t-41 76.5t-83 53t-132 18.5q-105 0 -161.5 -48t-68.5 -122h-178q14 140 124 230.5t298 90.5
q203 0 314.5 -97.5t111.5 -262.5v-543q0 -27 15.5 -43t39.5 -16q47 0 72 2v-137q-37 -13 -94 -13zM526 492q-126 0 -197 -45.5t-71 -137.5t71 -137t197 -45q78 0 153.5 36.5t133.5 96.5v143q-116 89 -287 89zM567 1348q56 0 102.5 42t75.5 130h150q-26 -130 -114 -218
t-214 -88t-212.5 87.5t-114.5 218.5h149q29 -88 75.5 -130t102.5 -42z" />
    <glyph glyph-name="Aogonek" unicode="&#x104;" horiz-adv-x="1384" 
d="M791 1434l552 -1434q-129 -99 -129 -211q0 -49 29 -76.5t72 -27.5q56 0 94 41l80 -99q-45 -38 -90 -57t-109 -19q-105 0 -167 62t-62 151q0 64 36 128.5t95 107.5h-47l-135 371h-635l-135 -371h-199l553 1434h197zM692 1245l-260 -715h520z" />
    <glyph glyph-name="aogonek" unicode="&#x105;" horiz-adv-x="1118" 
d="M82 309q0 144 110.5 239t292.5 95q192 0 328 -84v129q0 56 -12 98t-41 76.5t-83 53t-132 18.5q-105 0 -161.5 -48t-68.5 -122h-178q14 140 124 230.5t298 90.5q203 0 314.5 -97.5t111.5 -262.5v-543q0 -27 15.5 -43t39.5 -16q47 0 72 2v-137q-37 -13 -94 -13q-22 0 -57 7
q-105 -88 -105 -193q0 -49 28.5 -76.5t71.5 -27.5q57 0 95 41l63 -78q-83 -97 -182 -97q-105 0 -167.5 62t-62.5 151q0 68 41.5 139t130.5 128q-36 42 -49 96q-75 -79 -156 -115.5t-184 -36.5q-182 0 -292.5 95t-110.5 239zM526 492q-126 0 -197 -45.5t-71 -137.5t71 -137
t197 -45q78 0 153.5 36.5t133.5 96.5v143q-116 89 -287 89z" />
    <glyph glyph-name="Cacute" unicode="&#x106;" horiz-adv-x="1400" 
d="M92 717q0 162 47.5 299.5t133 235t211 152t276.5 54.5q130 0 236.5 -41.5t177 -112.5t112.5 -160.5t53 -191.5h-188q-21 149 -124.5 245.5t-260.5 96.5q-217 0 -353.5 -152t-136.5 -425t137 -425.5t353 -152.5q277 0 432 264l117 -71q-96 -179 -230.5 -268t-324.5 -89
q-201 0 -353.5 94.5t-233.5 262.5t-81 385zM897 1923l131 -108l-82 -74q-93 -84 -145 -122.5t-105 -64.5l-73 64z" />
    <glyph glyph-name="cacute" unicode="&#x107;" horiz-adv-x="1093" 
d="M82 530q0 160 57.5 285t169.5 197.5t262 72.5q186 0 313.5 -99.5t162.5 -276.5h-177q-24 101 -101 163t-185 62q-157 0 -241.5 -108t-84.5 -296q0 -186 95 -294.5t261 -108.5q91 0 172 53.5t136 145.5l112 -68q-69 -139 -179 -211t-253 -72q-155 0 -274.5 72t-182.5 198
t-63 285zM684 1567l131 -109l-82 -74q-92 -83 -144.5 -121.5t-105.5 -64.5l-73 64z" />
    <glyph glyph-name="Ccircumflex" unicode="&#x108;" horiz-adv-x="1400" 
d="M92 717q0 -217 81 -385t233.5 -262.5t353.5 -94.5q190 0 324.5 89t230.5 268l-117 71q-155 -264 -432 -264q-216 0 -353 152.5t-137 425.5t136.5 425t353.5 152q157 0 260.5 -96.5t124.5 -245.5h188q-11 102 -53 191.5t-112.5 160.5t-177 112.5t-236.5 41.5
q-151 0 -276.5 -54.5t-211 -152t-133 -235t-47.5 -299.5zM705 1892h122l62 -65q121 -129 180 -232l-70 -59l-233 211l-234 -211l-69 59q59 103 180 232z" />
    <glyph glyph-name="ccircumflex" unicode="&#x109;" horiz-adv-x="1093" 
d="M82 530q0 160 57.5 285t169.5 197.5t262 72.5q186 0 313.5 -99.5t162.5 -276.5h-177q-24 101 -101 163t-185 62q-157 0 -241.5 -108t-84.5 -296q0 -186 95 -294.5t261 -108.5q91 0 172 53.5t136 145.5l112 -68q-69 -139 -179 -211t-253 -72q-155 0 -274.5 72t-182.5 198
t-63 285zM528 1536h123l62 -66q122 -131 180 -231l-70 -59l-233 211l-234 -211l-69 59q58 100 180 231z" />
    <glyph glyph-name="Cdotaccent" unicode="&#x10a;" horiz-adv-x="1400" 
d="M92 717q0 -217 81 -385t233.5 -262.5t353.5 -94.5q190 0 324.5 89t230.5 268l-117 71q-155 -264 -432 -264q-216 0 -353 152.5t-137 425.5t136.5 425t353.5 152q157 0 260.5 -96.5t124.5 -245.5h188q-11 102 -53 191.5t-112.5 160.5t-177 112.5t-236.5 41.5
q-151 0 -276.5 -54.5t-211 -152t-133 -235t-47.5 -299.5zM651 1622v209h185v-209h-185z" />
    <glyph glyph-name="cdotaccent" unicode="&#x10b;" horiz-adv-x="1093" 
d="M82 530q0 160 57.5 285t169.5 197.5t262 72.5q186 0 313.5 -99.5t162.5 -276.5h-177q-24 101 -101 163t-185 62q-157 0 -241.5 -108t-84.5 -296q0 -186 95 -294.5t261 -108.5q91 0 172 53.5t136 145.5l112 -68q-69 -139 -179 -211t-253 -72q-155 0 -274.5 72t-182.5 198
t-63 285zM487 1266v209h185v-209h-185z" />
    <glyph glyph-name="Ccaron" unicode="&#x10c;" horiz-adv-x="1400" 
d="M92 717q0 -217 81 -385t233.5 -262.5t353.5 -94.5q190 0 324.5 89t230.5 268l-117 71q-155 -264 -432 -264q-216 0 -353 152.5t-137 425.5t136.5 425t353.5 152q157 0 260.5 -96.5t124.5 -245.5h188q-11 102 -53 191.5t-112.5 160.5t-177 112.5t-236.5 41.5
q-151 0 -276.5 -54.5t-211 -152t-133 -235t-47.5 -299.5zM817 1561h-123l-61 65q-121 129 -180 232l69 59l234 -211l233 211l70 -59q-59 -103 -180 -232z" />
    <glyph glyph-name="ccaron" unicode="&#x10d;" horiz-adv-x="1093" 
d="M82 530q0 160 57.5 285t169.5 197.5t262 72.5q186 0 313.5 -99.5t162.5 -276.5h-177q-24 101 -101 163t-185 62q-157 0 -241.5 -108t-84.5 -296q0 -186 95 -294.5t261 -108.5q91 0 172 53.5t136 145.5l112 -68q-69 -139 -179 -211t-253 -72q-155 0 -274.5 72t-182.5 198
t-63 285zM662 1204h-123l-62 66q-122 131 -180 231l70 60l233 -211l234 211l69 -60q-58 -100 -180 -231z" />
    <glyph glyph-name="Dcaron" unicode="&#x10e;" horiz-adv-x="1402" 
d="M164 0v1434h467q322 0 501 -190.5t179 -526.5q0 -338 -178.5 -527.5t-501.5 -189.5h-467zM344 160h272q243 0 376.5 145t133.5 412q0 265 -133.5 411t-376.5 146h-272v-1114zM655 1561h-123l-61 65q-121 129 -180 232l69 59l234 -211l233 211l70 -59q-59 -103 -180 -232z
" />
    <glyph glyph-name="dcaron" unicode="&#x10f;" horiz-adv-x="1415" 
d="M926 0l-31 113q-63 -65 -153 -101.5t-185 -36.5q-224 0 -344.5 150.5t-120.5 404.5t120.5 404.5t344.5 150.5q93 0 178 -34.5t150 -94.5v539h172v-1495h-131zM268 530q0 -191 77.5 -297t238.5 -106q80 0 162.5 35.5t138.5 95.5v543q-56 62 -138.5 97.5t-162.5 35.5
q-161 0 -238.5 -106t-77.5 -298zM1139 1040l133 480l164 -56l-39 -100q-90 -230 -172 -348z" />
    <glyph glyph-name="Dcroat" unicode="&#x110;" horiz-adv-x="1402" 
d="M164 0v643h-154v148h154v643h467q322 0 501 -190.5t179 -526.5q0 -338 -178.5 -527.5t-501.5 -189.5h-467zM344 160h272q243 0 376.5 145t133.5 412q0 265 -133.5 411t-376.5 146h-272v-483h340v-148h-340v-483z" />
    <glyph glyph-name="dcroat" unicode="&#x111;" horiz-adv-x="1198" 
d="M926 0l-31 113q-63 -65 -153 -101.5t-185 -36.5q-224 0 -344.5 150.5t-120.5 404.5t120.5 404.5t344.5 150.5q93 0 178 -34.5t150 -94.5v258h-426v140h426v141h172v-141h131v-140h-131v-1214h-131zM268 530q0 -191 77.5 -297t238.5 -106q80 0 162.5 35.5t138.5 95.5v543
q-56 62 -138.5 97.5t-162.5 35.5q-161 0 -238.5 -106t-77.5 -298z" />
    <glyph glyph-name="Emacron" unicode="&#x112;" horiz-adv-x="1157" 
d="M164 0v1434h893v-160h-713v-455h641v-160h-641v-499h731v-160h-911zM322 1657v139h598v-139h-598z" />
    <glyph glyph-name="emacron" unicode="&#x113;" horiz-adv-x="1165" 
d="M1018 223l-107 72q-122 -168 -297 -168q-149 0 -242 89t-110 245h819q2 20 2 63q0 248 -138 404.5t-359 156.5q-225 0 -364.5 -156.5t-139.5 -398.5q0 -239 148 -397t380 -158q136 0 233.5 61.5t174.5 186.5zM905 608h-643q19 151 105 238.5t219 87.5q129 0 219.5 -90
t99.5 -236zM283 1300v140h598v-140h-598z" />
    <glyph glyph-name="Ebreve" unicode="&#x114;" horiz-adv-x="1157" 
d="M164 0v1434h893v-160h-713v-455h641v-160h-641v-499h731v-160h-911zM621 1700q56 0 102.5 42t75.5 130h149q-26 -130 -113.5 -217.5t-213.5 -87.5t-213 87t-115 218h149q29 -88 76 -130t103 -42z" />
    <glyph glyph-name="ebreve" unicode="&#x115;" horiz-adv-x="1165" 
d="M911 295l107 -72q-77 -125 -174.5 -186.5t-233.5 -61.5q-232 0 -380 158t-148 397q0 242 139.5 398.5t364.5 156.5q221 0 359 -156.5t138 -404.5q0 -43 -2 -63h-819q17 -156 110 -245t242 -89q175 0 297 168zM262 608h643q-9 146 -99.5 236t-219.5 90q-133 0 -219 -87.5
t-105 -238.5zM582 1348q56 0 102.5 42t75.5 130h149q-26 -130 -113.5 -218t-213.5 -88t-213 87.5t-115 218.5h149q29 -88 76 -130t103 -42z" />
    <glyph glyph-name="Edotaccent" unicode="&#x116;" horiz-adv-x="1157" 
d="M164 0v1434h893v-160h-713v-455h641v-160h-641v-499h731v-160h-911zM528 1622v209h185v-209h-185z" />
    <glyph glyph-name="edotaccent" unicode="&#x117;" horiz-adv-x="1165" 
d="M1018 223l-107 72q-122 -168 -297 -168q-149 0 -242 89t-110 245h819q2 20 2 63q0 248 -138 404.5t-359 156.5q-225 0 -364.5 -156.5t-139.5 -398.5q0 -239 148 -397t380 -158q136 0 233.5 61.5t174.5 186.5zM905 608h-643q19 151 105 238.5t219 87.5q129 0 219.5 -90
t99.5 -236zM489 1266v209h185v-209h-185z" />
    <glyph glyph-name="Eogonek" unicode="&#x118;" horiz-adv-x="1157" 
d="M164 0v1434h893v-160h-713v-455h641v-160h-641v-499h731v-160h-108q-129 -99 -129 -211q0 -49 28.5 -76.5t71.5 -27.5q53 0 94 41l64 -78q-80 -97 -183 -97q-105 0 -167 62t-62 151q0 64 36 128.5t95 107.5h-651z" />
    <glyph glyph-name="eogonek" unicode="&#x119;" horiz-adv-x="1165" 
d="M911 295l107 -72q-62 -98 -133 -156t-164 -79q-109 -89 -109 -199q0 -49 29 -76.5t72 -27.5q50 0 94 41l65 -80q-40 -48 -82 -71.5t-102 -23.5q-105 0 -167 62t-62 151q0 55 27 112.5t73 100.5q-213 19 -345 173.5t-132 379.5q0 242 139.5 398.5t364.5 156.5
q221 0 359 -156.5t138 -404.5q0 -43 -2 -63h-819q17 -156 110 -245t242 -89q175 0 297 168zM262 608h643q-9 146 -99.5 236t-219.5 90q-133 0 -219 -87.5t-105 -238.5z" />
    <glyph glyph-name="Ecaron" unicode="&#x11a;" horiz-adv-x="1157" 
d="M164 0v1434h893v-160h-713v-455h641v-160h-641v-499h731v-160h-911zM682 1561h-123l-61 65q-123 132 -181 232l70 59l234 -211l233 211l70 -59q-58 -100 -181 -232z" />
    <glyph glyph-name="ecaron" unicode="&#x11b;" horiz-adv-x="1165" 
d="M1018 223l-107 72q-122 -168 -297 -168q-149 0 -242 89t-110 245h819q2 20 2 63q0 248 -138 404.5t-359 156.5q-225 0 -364.5 -156.5t-139.5 -398.5q0 -239 148 -397t380 -158q136 0 233.5 61.5t174.5 186.5zM905 608h-643q19 151 105 238.5t219 87.5q129 0 219.5 -90
t99.5 -236zM643 1204h-123l-61 66q-122 131 -180 231l69 60l234 -211l233 211l70 -60q-58 -100 -180 -231z" />
    <glyph glyph-name="Gcircumflex" unicode="&#x11c;" horiz-adv-x="1443" 
d="M1135 971h184q-21 103 -72.5 191.5t-127 154.5t-179 103.5t-221.5 37.5q-183 0 -326 -94t-222 -262.5t-79 -384.5q0 -211 83.5 -379.5t236.5 -265.5t348 -97q119 0 222.5 40.5t184.5 119t127.5 205t46.5 287.5v102h-569v-160h389q0 -95 -33.5 -176.5t-89 -136.5t-127 -86
t-147.5 -31q-212 0 -350 156.5t-138 421.5q0 137 36 248t98 182t142.5 109t172.5 38q141 0 254.5 -86t155.5 -237zM678 1892h123l61 -65q121 -129 180 -232l-69 -59l-234 211l-233 -211l-70 59q59 103 180 232z" />
    <glyph glyph-name="gcircumflex" unicode="&#x11d;" horiz-adv-x="1200" 
d="M131 -223l84 86q94 -92 173 -131t185 -39q149 0 230.5 79t81.5 238v92q-65 -59 -150 -93t-178 -34q-224 0 -344.5 150.5t-120.5 404.5t120.5 404.5t344.5 150.5q96 0 185.5 -36.5t152.5 -102.5l31 115h131v-1030q0 -242 -121 -366t-354 -124q-260 0 -451 236zM268 530
q0 -191 77.5 -297t238.5 -106q80 0 162.5 35.5t138.5 95.5v543q-56 62 -138.5 97.5t-162.5 35.5q-161 0 -238.5 -106t-77.5 -298zM518 1536h123l61 -66q125 -133 181 -231l-70 -59l-233 211l-234 -211l-70 59q56 98 181 231z" />
    <glyph glyph-name="Gbreve" unicode="&#x11e;" horiz-adv-x="1443" 
d="M1319 971h-184q-42 151 -155.5 237t-254.5 86q-92 0 -172.5 -38t-142.5 -109t-98 -182t-36 -248q0 -265 138 -421.5t350 -156.5q76 0 147.5 31t127 86t89 136.5t33.5 176.5h-389v160h569v-102q0 -161 -46.5 -287.5t-127.5 -205t-184.5 -119t-222.5 -40.5q-195 0 -348 97
t-236.5 265.5t-83.5 379.5q0 216 79 384.5t222 262.5t326 94q118 0 221.5 -37.5t179 -103.5t127 -154.5t72.5 -191.5zM739 1700q56 0 103 42t76 130h149q-26 -130 -114 -217.5t-214 -87.5t-212.5 87t-114.5 218h149q29 -88 75.5 -130t102.5 -42z" />
    <glyph glyph-name="gbreve" unicode="&#x11f;" horiz-adv-x="1200" 
d="M131 -223l84 86q94 -92 173 -131t185 -39q149 0 230.5 79t81.5 238v92q-65 -59 -150 -93t-178 -34q-224 0 -344.5 150.5t-120.5 404.5t120.5 404.5t344.5 150.5q96 0 185.5 -36.5t152.5 -102.5l31 115h131v-1030q0 -242 -121 -366t-354 -124q-260 0 -451 236zM268 530
q0 -191 77.5 -297t238.5 -106q80 0 162.5 35.5t138.5 95.5v543q-56 62 -138.5 97.5t-162.5 35.5q-161 0 -238.5 -106t-77.5 -298zM586 1348q56 0 102.5 42t75.5 130h149q-26 -130 -113.5 -218t-213.5 -88t-213 87.5t-115 218.5h150q29 -88 75.5 -130t102.5 -42z" />
    <glyph glyph-name="Gdotaccent" unicode="&#x120;" horiz-adv-x="1443" 
d="M1135 971h184q-21 103 -72.5 191.5t-127 154.5t-179 103.5t-221.5 37.5q-183 0 -326 -94t-222 -262.5t-79 -384.5q0 -211 83.5 -379.5t236.5 -265.5t348 -97q119 0 222.5 40.5t184.5 119t127.5 205t46.5 287.5v102h-569v-160h389q0 -95 -33.5 -176.5t-89 -136.5t-127 -86
t-147.5 -31q-212 0 -350 156.5t-138 421.5q0 137 36 248t98 182t142.5 109t172.5 38q141 0 254.5 -86t155.5 -237zM647 1622v209h184v-209h-184z" />
    <glyph glyph-name="gdotaccent" unicode="&#x121;" horiz-adv-x="1200" 
d="M131 -223l84 86q94 -92 173 -131t185 -39q149 0 230.5 79t81.5 238v92q-65 -59 -150 -93t-178 -34q-224 0 -344.5 150.5t-120.5 404.5t120.5 404.5t344.5 150.5q96 0 185.5 -36.5t152.5 -102.5l31 115h131v-1030q0 -242 -121 -366t-354 -124q-260 0 -451 236zM268 530
q0 -191 77.5 -297t238.5 -106q80 0 162.5 35.5t138.5 95.5v543q-56 62 -138.5 97.5t-162.5 35.5q-161 0 -238.5 -106t-77.5 -298zM485 1266v209h185v-209h-185z" />
    <glyph glyph-name="Gcommaaccent" unicode="&#x122;" horiz-adv-x="1443" 
d="M1319 971h-184q-42 151 -155.5 237t-254.5 86q-92 0 -172.5 -38t-142.5 -109t-98 -182t-36 -248q0 -265 138 -421.5t350 -156.5q76 0 147.5 31t127 86t89 136.5t33.5 176.5h-389v160h569v-102q0 -161 -46.5 -287.5t-127.5 -205t-184.5 -119t-222.5 -40.5q-195 0 -348 97
t-236.5 265.5t-83.5 379.5q0 216 79 384.5t222 262.5t326 94q118 0 221.5 -37.5t179 -103.5t127 -154.5t72.5 -191.5zM645 -494l119 408l154 -53l-35 -90q-78 -200 -144 -297z" />
    <glyph glyph-name="gcommaaccent" unicode="&#x123;" horiz-adv-x="1200" 
d="M131 -223l84 86q94 -92 173 -131t185 -39q149 0 230.5 79t81.5 238v92q-65 -59 -150 -93t-178 -34q-224 0 -344.5 150.5t-120.5 404.5t120.5 404.5t344.5 150.5q96 0 185.5 -36.5t152.5 -102.5l31 115h131v-1030q0 -242 -121 -366t-354 -124q-260 0 -451 236zM268 530
q0 -191 77.5 -297t238.5 -106q80 0 162.5 35.5t138.5 95.5v543q-56 62 -138.5 97.5t-162.5 35.5q-161 0 -238.5 -106t-77.5 -298zM752 1593l-119 -407l-154 53l35 90q79 203 143 297z" />
    <glyph glyph-name="Hcircumflex" unicode="&#x124;" horiz-adv-x="1437" 
d="M164 0v1434h180v-592h750v592h180v-1434h-180v682h-750v-682h-180zM657 1892h123l62 -65q121 -129 180 -232l-70 -59l-233 211l-234 -211l-69 59q59 103 180 232z" />
    <glyph glyph-name="hcircumflex" unicode="&#x125;" horiz-adv-x="1193" 
d="M682 1085q172 0 275.5 -102.5t103.5 -286.5v-696h-172v655q0 135 -60 207t-182 72q-98 0 -187 -50t-145 -118v-766h-172v1495h172v-559q160 149 367 149zM168 1892h123l61 -65q121 -129 180 -232l-69 -59l-234 211l-233 -211l-70 59q59 103 180 232z" />
    <glyph glyph-name="Hbar" unicode="&#x126;" horiz-adv-x="1437" 
d="M164 1239v195h180v-195h750v195h180v-195h123v-147h-123v-1092h-180v682h-750v-682h-180v1092h-123v147h123zM344 842h750v250h-750v-250z" />
    <glyph glyph-name="hbar" unicode="&#x127;" horiz-adv-x="1193" 
d="M10 1354h133v141h172v-141h424v-140h-424v-278q160 149 367 149q172 0 275.5 -102.5t103.5 -286.5v-696h-172v655q0 135 -60 207t-182 72q-98 0 -187 -50t-145 -118v-766h-172v1214h-133v140z" />
    <glyph glyph-name="Itilde" unicode="&#x128;" horiz-adv-x="528" 
d="M174 1434h180v-1434h-180v1434zM297 1788q52 -49 98 -49q59 0 84 100l125 -20q-24 -104 -77 -159.5t-134 -55.5q-91 0 -162 65q-52 49 -98 49q-59 0 -84 -100l-125 20q24 104 77 159.5t134 55.5q91 0 162 -65z" />
    <glyph glyph-name="itilde" unicode="&#x129;" horiz-adv-x="479" 
d="M154 0v1061h172v-1061h-172zM272 1432q53 -50 99 -50q58 0 84 101l125 -21q-24 -104 -77 -159.5t-134 -55.5q-90 0 -162 66q-52 49 -98 49q-59 0 -84 -100l-125 20q24 104 77 159.5t134 55.5q90 0 161 -65z" />
    <glyph glyph-name="Imacron" unicode="&#x12a;" horiz-adv-x="528" 
d="M174 1434h180v-1434h-180v1434zM-35 1657v139h598v-139h-598z" />
    <glyph glyph-name="imacron" unicode="&#x12b;" horiz-adv-x="479" 
d="M154 0v1061h172v-1061h-172zM-59 1300v140h598v-140h-598z" />
    <glyph glyph-name="Ibreve" unicode="&#x12c;" horiz-adv-x="528" 
d="M174 1434h180v-1434h-180v1434zM264 1700q56 0 102.5 42t75.5 130h150q-26 -130 -114 -217.5t-214 -87.5t-212.5 87t-114.5 218h149q29 -88 75.5 -130t102.5 -42z" />
    <glyph glyph-name="ibreve" unicode="&#x12d;" horiz-adv-x="479" 
d="M154 0v1061h172v-1061h-172zM240 1348q56 0 102.5 42t75.5 130h149q-26 -130 -113.5 -218t-213.5 -88t-213 87.5t-115 218.5h149q29 -88 76 -130t103 -42z" />
    <glyph glyph-name="Iogonek" unicode="&#x12e;" horiz-adv-x="528" 
d="M174 1434h180v-1434q-129 -99 -129 -211q0 -49 29 -76.5t72 -27.5q50 0 94 41l63 -78q-40 -50 -79.5 -73.5t-102.5 -23.5q-105 0 -167 62t-62 151q0 64 36 128.5t95 107.5h-29v1434z" />
    <glyph glyph-name="iogonek" unicode="&#x12f;" horiz-adv-x="479" 
d="M154 0v1061h172v-1061q-129 -99 -129 -211q0 -49 28.5 -76.5t71.5 -27.5q56 0 94 41l64 -78q-40 -53 -79 -75t-104 -22q-105 0 -167 62t-62 151q0 64 36 128.5t95 107.5h-20zM154 1296v181h172v-181h-172z" />
    <glyph glyph-name="Idotaccent" unicode="&#x130;" horiz-adv-x="528" 
d="M174 1434h180v-1434h-180v1434zM172 1622v209h184v-209h-184z" />
    <glyph glyph-name="dotlessi" unicode="&#x131;" horiz-adv-x="479" 
d="M154 0v1061h172v-1061h-172z" />
    <glyph glyph-name="IJ" unicode="&#x132;" horiz-adv-x="1691" 
d="M174 1434h180v-1434h-180v1434zM1061 139q-98 0 -177 55t-155 173l-108 -74q173 -318 466 -318q210 0 325.5 141t115.5 380v938h-180v-938q0 -166 -72.5 -261.5t-214.5 -95.5z" />
    <glyph glyph-name="ij" unicode="&#x133;" horiz-adv-x="958" 
d="M154 0v1061h172v-1061h-172zM154 1296v181h172v-181h-172zM633 1296v181h172v-181h-172zM571 -487l-98 102q101 101 130.5 181.5t29.5 248.5v1016h172v-985q0 -159 -21.5 -255.5t-69.5 -164t-143 -143.5z" />
    <glyph glyph-name="Jcircumflex" unicode="&#x134;" horiz-adv-x="1163" 
d="M532 139q-97 0 -176 55t-155 173l-109 -74q173 -318 467 -318q210 0 325 141t115 380v938h-180v-938q0 -166 -72.5 -261.5t-214.5 -95.5zM848 1892h123l61 -65q121 -129 180 -232l-69 -59l-234 211l-233 -211l-70 59q59 103 180 232z" />
    <glyph glyph-name="jcircumflex" unicode="&#x135;" horiz-adv-x="479" 
d="M178 1536h123l61 -66q125 -133 181 -231l-70 -59l-233 211l-234 -211l-69 59q58 100 180 231zM92 -487l-98 102q101 101 130.5 181.5t29.5 248.5v1016h172v-985q0 -159 -21.5 -255.5t-69.5 -164t-143 -143.5z" />
    <glyph glyph-name="Kcommaaccent" unicode="&#x136;" horiz-adv-x="1257" 
d="M344 1434v-787l617 787h213l-467 -588l530 -846h-217l-428 705l-248 -314v-391h-180v1434h180zM510 -494l119 408l153 -53l-34 -90q-78 -200 -144 -297z" />
    <glyph glyph-name="kcommaaccent" unicode="&#x137;" horiz-adv-x="1064" 
d="M143 1495h172v-987l469 553h211l-366 -418l426 -643h-195l-338 522l-207 -237v-285h-172v1495zM406 -494l118 408l154 -53l-35 -90q-79 -203 -143 -297z" />
    <glyph glyph-name="kgreenlandic" unicode="&#x138;" horiz-adv-x="1064" 
d="M143 1061h172v-553l469 553h211l-366 -418l426 -643h-195l-338 522l-207 -237v-285h-172v1061z" />
    <glyph glyph-name="Lacute" unicode="&#x139;" horiz-adv-x="1095" 
d="M164 0v1434h180v-1274h711v-160h-891zM451 1923l131 -108l-82 -74q-93 -84 -145 -122.5t-105 -64.5l-74 64z" />
    <glyph glyph-name="lacute" unicode="&#x13a;" horiz-adv-x="479" 
d="M154 0v1495h172v-1495h-172zM438 1923l131 -108l-82 -74q-93 -84 -145 -123t-104 -64l-74 64z" />
    <glyph glyph-name="Lcommaaccent" unicode="&#x13b;" horiz-adv-x="1095" 
d="M164 0v1434h180v-1274h711v-160h-891zM461 -494l119 408l153 -53l-35 -90q-79 -203 -143 -297z" />
    <glyph glyph-name="lcommaaccent" unicode="&#x13c;" horiz-adv-x="479" 
d="M154 0v1495h172v-1495h-172zM59 -494l119 408l154 -53l-35 -90q-79 -203 -143 -297z" />
    <glyph glyph-name="Lcaron" unicode="&#x13d;" horiz-adv-x="1095" 
d="M164 0v1434h180v-1274h711v-160h-891zM657 1040l134 480l163 -56l-39 -100q-90 -230 -172 -348z" />
    <glyph glyph-name="lcaron" unicode="&#x13e;" horiz-adv-x="684" 
d="M154 0v1495h172v-1495h-172zM408 1040l133 480l164 -56l-39 -100q-90 -230 -172 -348z" />
    <glyph glyph-name="Ldot" unicode="&#x13f;" horiz-adv-x="1095" 
d="M164 0v1434h180v-1274h711v-160h-891zM670 672v209h184v-209h-184z" />
    <glyph glyph-name="ldot" unicode="&#x140;" horiz-adv-x="878" 
d="M174 0v1495h172v-1495h-172zM608 672v209h185v-209h-185z" />
    <glyph glyph-name="Lslash" unicode="&#x141;" horiz-adv-x="1140" 
d="M-20 561l229 154v719h180v-598l529 354l81 -127l-610 -410v-493h711v-160h-891v532l-150 -100z" />
    <glyph glyph-name="lslash" unicode="&#x142;" horiz-adv-x="774" 
d="M-20 610l321 215v670h172v-555l238 160l84 -121l-322 -217v-762h-172v647l-242 -162z" />
    <glyph glyph-name="Nacute" unicode="&#x143;" horiz-adv-x="1449" 
d="M164 0v1434h174l776 -1149v1149h172v-1434h-174l-776 1149v-1149h-172zM915 1923l132 -108l-82 -74q-93 -84 -145 -122.5t-105 -64.5l-74 64z" />
    <glyph glyph-name="nacute" unicode="&#x144;" horiz-adv-x="1193" 
d="M745 1567l132 -109l-82 -74q-92 -83 -144.5 -121.5t-105.5 -64.5l-74 64zM682 1085q172 0 275.5 -102.5t103.5 -286.5v-696h-172v655q0 135 -60 207t-182 72q-95 0 -182 -51t-150 -117v-766h-172v1061h131l31 -135q170 159 377 159z" />
    <glyph glyph-name="Ncommaaccent" unicode="&#x145;" horiz-adv-x="1449" 
d="M164 0v1434h174l776 -1149v1149h172v-1434h-174l-776 1149v-1149h-172zM596 -494l119 408l153 -53l-34 -90q-78 -200 -144 -297z" />
    <glyph glyph-name="ncommaaccent" unicode="&#x146;" horiz-adv-x="1193" 
d="M682 1085q172 0 275.5 -102.5t103.5 -286.5v-696h-172v655q0 135 -60 207t-182 72q-95 0 -182 -51t-150 -117v-766h-172v1061h131l31 -135q170 159 377 159zM436 -494l119 408l154 -53l-35 -90q-78 -200 -144 -297z" />
    <glyph glyph-name="Ncaron" unicode="&#x147;" horiz-adv-x="1449" 
d="M164 0v1434h174l776 -1149v1149h172v-1434h-174l-776 1149v-1149h-172zM786 1561h-122l-62 65q-121 129 -180 232l70 59l233 -211l233 211l70 -59q-59 -103 -180 -232z" />
    <glyph glyph-name="ncaron" unicode="&#x148;" horiz-adv-x="1193" 
d="M657 1204h-122l-62 66q-122 131 -180 231l69 60l234 -211l233 211l70 -60q-58 -100 -180 -231zM682 1085q172 0 275.5 -102.5t103.5 -286.5v-696h-172v655q0 135 -60 207t-182 72q-95 0 -182 -51t-150 -117v-766h-172v1061h131l31 -135q170 159 377 159z" />
    <glyph glyph-name="napostrophe" unicode="&#x149;" horiz-adv-x="1300" 
d="M-20 1040l133 480l163 -56l-38 -100q-90 -230 -172 -348zM788 1085q172 0 275.5 -102.5t103.5 -286.5v-696h-172v655q0 279 -241 279q-95 0 -182 -51t-150 -117v-766h-172v1061h131l31 -135q170 159 376 159z" />
    <glyph glyph-name="Eng" unicode="&#x14a;" horiz-adv-x="1449" 
d="M1053 -487l-99 102q94 94 127 174.5t33 210.5l-778 1149v-1149h-172v1434h174l776 -1149v1149h172v-1358q0 -159 -21.5 -255.5t-69 -164t-142.5 -143.5z" />
    <glyph glyph-name="eng" unicode="&#x14b;" horiz-adv-x="1193" 
d="M682 1085q172 0 275.5 -102.5t103.5 -286.5v-620q0 -159 -21.5 -255.5t-69.5 -164t-143 -143.5l-98 102q101 101 130.5 181.5t29.5 248.5v610q0 135 -60 207t-182 72q-95 0 -182 -51t-150 -117v-766h-172v1061h131l31 -135q170 159 377 159z" />
    <glyph glyph-name="Omacron" unicode="&#x14c;" horiz-adv-x="1464" 
d="M1372 717q0 -210 -74 -376.5t-220.5 -266t-344.5 -99.5q-199 0 -346 99.5t-221 266t-74 376.5q0 156 43.5 291t123.5 235.5t202 157.5t272 57q198 0 344.5 -99t220.5 -265.5t74 -376.5zM276 717q0 -265 124 -421.5t333 -156.5q207 0 331 156.5t124 421.5t-123.5 421
t-331.5 156q-209 0 -333 -156t-124 -421zM432 1657v139h598v-139h-598z" />
    <glyph glyph-name="omacron" unicode="&#x14d;" horiz-adv-x="1187" 
d="M82 530q0 159 61.5 284.5t179 198t271.5 72.5t271.5 -72.5t179 -198t61.5 -284.5t-61.5 -284.5t-179 -198t-271.5 -72.5t-271.5 72.5t-179 198t-61.5 284.5zM258 530q0 -186 89 -294.5t247 -108.5t247 108.5t89 294.5t-89 295t-247 109t-247 -109t-89 -295zM295 1300v140
h598v-140h-598z" />
    <glyph glyph-name="Obreve" unicode="&#x14e;" horiz-adv-x="1464" 
d="M1372 717q0 -210 -74 -376.5t-220.5 -266t-344.5 -99.5q-199 0 -346 99.5t-221 266t-74 376.5q0 156 43.5 291t123.5 235.5t202 157.5t272 57q198 0 344.5 -99t220.5 -265.5t74 -376.5zM276 717q0 -265 124 -421.5t333 -156.5q207 0 331 156.5t124 421.5t-123.5 421
t-331.5 156q-209 0 -333 -156t-124 -421zM731 1700q56 0 102.5 42t75.5 130h150q-26 -130 -114 -217.5t-214 -87.5t-213 87t-115 218h150q29 -88 75.5 -130t102.5 -42z" />
    <glyph glyph-name="obreve" unicode="&#x14f;" horiz-adv-x="1187" 
d="M82 530q0 159 61.5 284.5t179 198t271.5 72.5t271.5 -72.5t179 -198t61.5 -284.5t-61.5 -284.5t-179 -198t-271.5 -72.5t-271.5 72.5t-179 198t-61.5 284.5zM258 530q0 -186 89 -294.5t247 -108.5t247 108.5t89 294.5t-89 295t-247 109t-247 -109t-89 -295zM594 1348
q56 0 102.5 42t75.5 130h150q-26 -130 -114 -218t-214 -88t-213 87.5t-115 218.5h150q29 -88 75.5 -130t102.5 -42z" />
    <glyph glyph-name="Ohungarumlaut" unicode="&#x150;" horiz-adv-x="1464" 
d="M1372 717q0 -210 -74 -376.5t-220.5 -266t-344.5 -99.5q-199 0 -346 99.5t-221 266t-74 376.5q0 156 43.5 291t123.5 235.5t202 157.5t272 57q198 0 344.5 -99t220.5 -265.5t74 -376.5zM276 717q0 -265 124 -421.5t333 -156.5q207 0 331 156.5t124 421.5t-123.5 421
t-331.5 156q-209 0 -333 -156t-124 -421zM1174 1800l-302 -280l-110 77l278 310zM803 1802l-236 -282l-110 77l215 310z" />
    <glyph glyph-name="ohungarumlaut" unicode="&#x151;" horiz-adv-x="1187" 
d="M82 530q0 159 61.5 284.5t179 198t271.5 72.5t271.5 -72.5t179 -198t61.5 -284.5t-61.5 -284.5t-179 -198t-271.5 -72.5t-271.5 72.5t-179 198t-61.5 284.5zM258 530q0 -186 89 -294.5t247 -108.5t247 108.5t89 294.5t-89 295t-247 109t-247 -109t-89 -295zM1004 1444
l-302 -281l-110 78l278 309zM633 1446l-236 -283l-110 78l215 309z" />
    <glyph glyph-name="OE" unicode="&#x152;" horiz-adv-x="1718" 
d="M766 1434h852v-160h-602v-455h530v-160h-530v-499h620v-160h-870q-315 0 -494.5 193.5t-179.5 523.5t179.5 523.5t494.5 193.5zM276 717q0 -137 37 -244.5t103.5 -175t155 -102.5t194.5 -35h70v1114h-70q-106 0 -194.5 -35t-155 -102.5t-103.5 -175t-37 -244.5z" />
    <glyph glyph-name="oe" unicode="&#x153;" horiz-adv-x="2013" 
d="M1759 295l107 -72q-77 -125 -174.5 -186.5t-233.5 -61.5q-141 0 -255 61t-183 167q-66 -108 -175 -168t-251 -60q-154 0 -271.5 72.5t-179 198t-61.5 284.5t61.5 284.5t179 198t271.5 72.5q140 0 248 -59t176 -166q66 106 173 165.5t243 59.5q221 0 359 -156.5
t138 -404.5q0 -43 -2 -63h-819q17 -156 110 -245t242 -89q175 0 297 168zM258 530q0 -186 89 -294.5t247 -108.5t247 108.5t89 294.5t-89 295t-247 109t-247 -109t-89 -295zM1110 608h643q-9 146 -99.5 236t-219.5 90q-133 0 -219 -87.5t-105 -238.5z" />
    <glyph glyph-name="Racute" unicode="&#x154;" horiz-adv-x="1288" 
d="M1159 995q0 -156 -83 -263.5t-236 -151.5l407 -580h-207l-387 557h-309v-557h-180v1434h477q237 0 377.5 -118.5t140.5 -320.5zM975 995q0 132 -87.5 205.5t-258.5 73.5h-285v-557h285q171 0 258.5 73t87.5 205zM668 1923l131 -108l-82 -74q-93 -84 -145 -122.5
t-105 -64.5l-74 64z" />
    <glyph glyph-name="racute" unicode="&#x155;" horiz-adv-x="743" 
d="M713 1083v-157q-53 6 -90 6q-93 0 -177.5 -47t-130.5 -121v-764h-172v1061h131l31 -135q58 77 146.5 118t193.5 41q45 0 68 -2zM510 1567l131 -109l-82 -74q-92 -83 -144.5 -121.5t-105.5 -64.5l-73 64z" />
    <glyph glyph-name="Rcommaaccent" unicode="&#x156;" horiz-adv-x="1288" 
d="M1159 995q0 -156 -83 -263.5t-236 -151.5l407 -580h-207l-387 557h-309v-557h-180v1434h477q237 0 377.5 -118.5t140.5 -320.5zM975 995q0 132 -87.5 205.5t-258.5 73.5h-285v-557h285q171 0 258.5 73t87.5 205zM528 -494l119 408l154 -53l-35 -90q-79 -203 -143 -297z
" />
    <glyph glyph-name="rcommaaccent" unicode="&#x157;" horiz-adv-x="743" 
d="M713 1083v-157q-53 6 -90 6q-93 0 -177.5 -47t-130.5 -121v-764h-172v1061h131l31 -135q58 77 146.5 118t193.5 41q45 0 68 -2zM39 -494l119 408l153 -53l-35 -90q-79 -203 -143 -297z" />
    <glyph glyph-name="Rcaron" unicode="&#x158;" horiz-adv-x="1288" 
d="M1159 995q0 -156 -83 -263.5t-236 -151.5l407 -580h-207l-387 557h-309v-557h-180v1434h477q237 0 377.5 -118.5t140.5 -320.5zM975 995q0 132 -87.5 205.5t-258.5 73.5h-285v-557h285q171 0 258.5 73t87.5 205zM629 1561h-123l-62 65q-121 129 -180 232l70 59l233 -211
l234 211l69 -59q-59 -103 -180 -232z" />
    <glyph glyph-name="rcaron" unicode="&#x159;" horiz-adv-x="743" 
d="M713 1083v-157q-53 6 -90 6q-93 0 -177.5 -47t-130.5 -121v-764h-172v1061h131l31 -135q58 77 146.5 118t193.5 41q45 0 68 -2zM453 1204h-123l-62 66q-122 131 -180 231l70 60l233 -211l234 211l69 -60q-58 -100 -180 -231z" />
    <glyph glyph-name="Sacute" unicode="&#x15a;" horiz-adv-x="1230" 
d="M631 139q151 0 237 64t86 164q0 50 -14 87.5t-39.5 65t-74.5 51t-104 41.5t-144 41q-125 32 -213.5 79t-137 105t-69.5 119.5t-21 133.5q0 164 121 266t330 102q221 0 350.5 -107t165.5 -311h-191q-50 254 -321 254q-133 0 -201.5 -55t-68.5 -149q0 -91 75 -163.5
t230 -113.5q113 -30 190 -57.5t142.5 -63.5t102.5 -79.5t57 -101.5t20 -134q0 -181 -134.5 -291.5t-375.5 -110.5q-309 0 -525 318l95 86q104 -123 206.5 -181.5t225.5 -58.5zM750 1923l131 -108l-82 -74q-93 -84 -145 -122.5t-105 -64.5l-74 64z" />
    <glyph glyph-name="sacute" unicode="&#x15b;" horiz-adv-x="1019" 
d="M76 227l80 82q95 -100 183 -141t183 -41q123 0 181.5 42t58.5 103q0 73 -59 111t-216 82q-200 57 -284 138t-84 200q0 124 96 203t272 79q166 0 276.5 -78.5t145.5 -228.5h-180q-42 156 -235 156q-89 0 -144 -33.5t-55 -89.5q0 -63 57 -110.5t211 -90.5
q196 -55 285.5 -128.5t89.5 -198.5q0 -139 -102 -223.5t-304 -84.5q-268 0 -456 252zM621 1567l131 -109l-82 -74q-92 -83 -144.5 -121.5t-105.5 -64.5l-74 64z" />
    <glyph glyph-name="Scircumflex" unicode="&#x15c;" horiz-adv-x="1230" 
d="M631 139q151 0 237 64t86 164q0 50 -14 87.5t-39.5 65t-74.5 51t-104 41.5t-144 41q-125 32 -213.5 79t-137 105t-69.5 119.5t-21 133.5q0 164 121 266t330 102q221 0 350.5 -107t165.5 -311h-191q-50 254 -321 254q-133 0 -201.5 -55t-68.5 -149q0 -91 75 -163.5
t230 -113.5q113 -30 190 -57.5t142.5 -63.5t102.5 -79.5t57 -101.5t20 -134q0 -181 -134.5 -291.5t-375.5 -110.5q-309 0 -525 318l95 86q104 -123 206.5 -181.5t225.5 -58.5zM565 1892h123l62 -65q121 -129 180 -232l-70 -59l-233 211l-234 -211l-69 59q59 103 180 232z
" />
    <glyph glyph-name="scircumflex" unicode="&#x15d;" horiz-adv-x="1019" 
d="M76 227l80 82q95 -100 183 -141t183 -41q123 0 181.5 42t58.5 103q0 73 -59 111t-216 82q-200 57 -284 138t-84 200q0 124 96 203t272 79q166 0 276.5 -78.5t145.5 -228.5h-180q-42 156 -235 156q-89 0 -144 -33.5t-55 -89.5q0 -63 57 -110.5t211 -90.5
q196 -55 285.5 -128.5t89.5 -198.5q0 -139 -102 -223.5t-304 -84.5q-268 0 -456 252zM432 1536h123l61 -66q125 -133 181 -231l-70 -59l-233 211l-234 -211l-70 59q56 98 181 231z" />
    <glyph glyph-name="Scedilla" unicode="&#x15e;" horiz-adv-x="1230" 
d="M631 139q151 0 237 64t86 164q0 50 -14 87.5t-39.5 65t-74.5 51t-104 41.5t-144 41q-125 32 -213.5 79t-137 105t-69.5 119.5t-21 133.5q0 164 121 266t330 102q221 0 350.5 -107t165.5 -311h-191q-50 254 -321 254q-133 0 -201.5 -55t-68.5 -149q0 -91 75 -163.5
t230 -113.5q113 -30 190 -57.5t142.5 -63.5t102.5 -79.5t57 -101.5t20 -134q0 -166 -113.5 -273t-320.5 -124l-29 -64q79 -19 125.5 -72t46.5 -125q0 -84 -64 -145t-188 -61q-60 0 -116 19t-93 56l80 99q51 -45 125 -45q45 0 73.5 23.5t28.5 62.5q0 49 -50 75.5t-132 26.5
l-12 16l59 134q-268 32 -455 313l95 86q104 -123 206.5 -181.5t225.5 -58.5z" />
    <glyph glyph-name="scedilla" unicode="&#x15f;" horiz-adv-x="1019" 
d="M76 227l80 82q95 -100 183 -141t183 -41q123 0 181.5 42t58.5 103q0 73 -59 111t-216 82q-200 57 -284 138t-84 200q0 124 96 203t272 79q166 0 276.5 -78.5t145.5 -228.5h-180q-42 156 -235 156q-89 0 -144 -33.5t-55 -89.5q0 -63 57 -110.5t211 -90.5
q196 -55 285.5 -128.5t89.5 -198.5t-82.5 -205.5t-245.5 -97.5l-30 -64q79 -19 125.5 -72t46.5 -125q0 -84 -64 -145t-188 -61q-119 0 -195 94l66 80q51 -45 125 -45q45 0 73.5 23.5t28.5 62.5q0 49 -50 75.5t-132 26.5l-13 16l62 134q-229 32 -389 247z" />
    <glyph glyph-name="Scaron" unicode="&#x160;" horiz-adv-x="1230" 
d="M631 139q151 0 237 64t86 164q0 50 -14 87.5t-39.5 65t-74.5 51t-104 41.5t-144 41q-125 32 -213.5 79t-137 105t-69.5 119.5t-21 133.5q0 164 121 266t330 102q221 0 350.5 -107t165.5 -311h-191q-50 254 -321 254q-133 0 -201.5 -55t-68.5 -149q0 -91 75 -163.5
t230 -113.5q113 -30 190 -57.5t142.5 -63.5t102.5 -79.5t57 -101.5t20 -134q0 -181 -134.5 -291.5t-375.5 -110.5q-309 0 -525 318l95 86q104 -123 206.5 -181.5t225.5 -58.5zM668 1561h-123l-62 65q-121 129 -180 232l70 59l233 -211l234 211l69 -59q-59 -103 -180 -232z
" />
    <glyph glyph-name="scaron" unicode="&#x161;" horiz-adv-x="1019" 
d="M76 227l80 82q95 -100 183 -141t183 -41q123 0 181.5 42t58.5 103q0 73 -59 111t-216 82q-200 57 -284 138t-84 200q0 124 96 203t272 79q166 0 276.5 -78.5t145.5 -228.5h-180q-42 156 -235 156q-89 0 -144 -33.5t-55 -89.5q0 -63 57 -110.5t211 -90.5
q196 -55 285.5 -128.5t89.5 -198.5q0 -139 -102 -223.5t-304 -84.5q-268 0 -456 252zM563 1204h-123l-61 66q-122 131 -180 231l69 60l234 -211l233 211l70 -60q-58 -100 -180 -231z" />
    <glyph glyph-name="Tcommaaccent" unicode="&#x162;" horiz-adv-x="1155" 
d="M487 0v1274h-446v160h1073v-160h-446v-1274h-17l-41 -84q79 -19 125.5 -72t46.5 -125q0 -84 -64 -145t-188 -61q-115 0 -192 96l63 78q51 -45 125 -45q45 0 74 23.5t29 62.5q0 49 -50.5 75.5t-132.5 26.5l-12 16l72 154h-19z" />
    <glyph glyph-name="tcommaaccent" unicode="&#x163;" horiz-adv-x="704" 
d="M375 -358q45 0 73.5 23.5t28.5 62.5q0 49 -50 75.5t-132 26.5l-12 16l73 158q-135 74 -135 295v614h-190v107l190 41v276l172 41v-317h260v-148h-260v-602q0 -104 36.5 -144t133.5 -40q63 0 90 2v-119q-62 -35 -166 -35l-28 -59q79 -19 125.5 -72t46.5 -125
q0 -84 -64 -145t-188 -61q-113 0 -195 92l66 82q51 -45 125 -45z" />
    <glyph glyph-name="Tcaron" unicode="&#x164;" horiz-adv-x="1114" 
d="M467 0v1274h-447v160h1074v-160h-447v-1274h-180zM618 1561h-122l-62 65q-121 129 -180 232l70 59l233 -211l234 211l69 -59q-59 -103 -180 -232z" />
    <glyph glyph-name="tcaron" unicode="&#x165;" horiz-adv-x="970" 
d="M489 -25q102 0 164 35v119q-27 -2 -90 -2q-97 0 -133.5 40t-36.5 144v602h260v148h-260v317l-172 -41v-276l-190 -41v-107h190v-614q0 -161 75.5 -242.5t192.5 -81.5zM694 1040l133 480l164 -56l-39 -100q-90 -230 -172 -348z" />
    <glyph glyph-name="Tbar" unicode="&#x166;" horiz-adv-x="1114" 
d="M467 793v481h-447v160h1074v-160h-447v-481h307v-148h-307v-645h-180v645h-307v148h307z" />
    <glyph glyph-name="tbar" unicode="&#x167;" horiz-adv-x="704" 
d="M489 -25q-117 0 -192.5 81.5t-75.5 242.5v238h-153v139h153v237h-190v107l190 41v276l172 41v-317h260v-148h-260v-237h223v-139h-223v-226q0 -104 36.5 -144t133.5 -40q63 0 90 2v-119q-62 -35 -164 -35z" />
    <glyph glyph-name="Utilde" unicode="&#x168;" horiz-adv-x="1464" 
d="M733 -25q-127 0 -230.5 36.5t-179.5 107.5t-117.5 183.5t-41.5 256.5v875h180v-865q0 -430 389 -430q387 0 387 430v865h180v-875q0 -289 -150 -436.5t-417 -147.5zM764 1788q52 -49 98 -49q59 0 84 100l125 -20q-24 -104 -77 -159.5t-134 -55.5q-91 0 -162 65
q-52 49 -98 49q-59 0 -84 -100l-125 20q24 104 77 159.5t134 55.5q91 0 162 -65z" />
    <glyph glyph-name="utilde" unicode="&#x169;" horiz-adv-x="1183" 
d="M592 127q-128 0 -207.5 81t-79.5 238v615h-172v-627q0 -231 123.5 -345t335.5 -114t335.5 114t123.5 345v627h-172v-615q0 -157 -79.5 -238t-207.5 -81zM625 1432q53 -50 98 -50q58 0 84 101l125 -21q-24 -104 -77 -159.5t-134 -55.5q-90 0 -162 66q-52 49 -98 49
q-59 0 -84 -100l-125 20q24 104 77 159.5t134 55.5q91 0 162 -65z" />
    <glyph glyph-name="Umacron" unicode="&#x16a;" horiz-adv-x="1464" 
d="M733 -25q-127 0 -230.5 36.5t-179.5 107.5t-117.5 183.5t-41.5 256.5v875h180v-865q0 -430 389 -430q387 0 387 430v865h180v-875q0 -289 -150 -436.5t-417 -147.5zM432 1657v139h598v-139h-598z" />
    <glyph glyph-name="umacron" unicode="&#x16b;" horiz-adv-x="1183" 
d="M592 127q-128 0 -207.5 81t-79.5 238v615h-172v-627q0 -231 123.5 -345t335.5 -114t335.5 114t123.5 345v627h-172v-615q0 -157 -79.5 -238t-207.5 -81zM293 1300v140h598v-140h-598z" />
    <glyph glyph-name="Ubreve" unicode="&#x16c;" horiz-adv-x="1464" 
d="M733 -25q-127 0 -230.5 36.5t-179.5 107.5t-117.5 183.5t-41.5 256.5v875h180v-865q0 -430 389 -430q387 0 387 430v865h180v-875q0 -289 -150 -436.5t-417 -147.5zM731 1700q56 0 102.5 42t75.5 130h150q-26 -130 -114 -217.5t-214 -87.5t-213 87t-115 218h150
q29 -88 75.5 -130t102.5 -42z" />
    <glyph glyph-name="ubreve" unicode="&#x16d;" horiz-adv-x="1183" 
d="M592 127q128 0 207.5 81t79.5 238v615h172v-627q0 -231 -123.5 -345t-335.5 -114t-335.5 114t-123.5 345v627h172v-615q0 -157 79.5 -238t207.5 -81zM592 1348q56 0 102.5 42t75.5 130h150q-26 -130 -114 -218t-214 -88t-213 87.5t-115 218.5h150q29 -88 75.5 -130
t102.5 -42z" />
    <glyph glyph-name="Uring" unicode="&#x16e;" horiz-adv-x="1464" 
d="M733 -25q-127 0 -230.5 36.5t-179.5 107.5t-117.5 183.5t-41.5 256.5v875h180v-865q0 -430 389 -430q387 0 387 430v865h180v-875q0 -289 -150 -436.5t-417 -147.5zM948 1726q0 -90 -62.5 -151.5t-154.5 -61.5t-154.5 61.5t-62.5 151.5t62.5 151.5t154.5 61.5
t154.5 -61.5t62.5 -151.5zM643 1726q0 -40 25 -66t63 -26t63 26t25 66t-25 66.5t-63 26.5t-63 -26.5t-25 -66.5z" />
    <glyph glyph-name="uring" unicode="&#x16f;" horiz-adv-x="1183" 
d="M592 127q-128 0 -207.5 81t-79.5 238v615h-172v-627q0 -231 123.5 -345t335.5 -114t335.5 114t123.5 345v627h-172v-615q0 -157 -79.5 -238t-207.5 -81zM809 1370q0 -90 -62.5 -151.5t-154.5 -61.5t-154.5 61.5t-62.5 151.5t62.5 151.5t154.5 61.5t154.5 -61.5
t62.5 -151.5zM504 1370q0 -40 25 -66t63 -26t63 26t25 66t-25 66t-63 26t-63 -26t-25 -66z" />
    <glyph glyph-name="Uhungarumlaut" unicode="&#x170;" horiz-adv-x="1464" 
d="M733 -25q-127 0 -230.5 36.5t-179.5 107.5t-117.5 183.5t-41.5 256.5v875h180v-865q0 -430 389 -430q387 0 387 430v865h180v-875q0 -289 -150 -436.5t-417 -147.5zM1194 1800l-301 -280l-111 77l279 310zM823 1802l-235 -282l-111 77l215 310z" />
    <glyph glyph-name="uhungarumlaut" unicode="&#x171;" horiz-adv-x="1183" 
d="M592 127q128 0 207.5 81t79.5 238v615h172v-627q0 -231 -123.5 -345t-335.5 -114t-335.5 114t-123.5 345v627h172v-615q0 -157 79.5 -238t207.5 -81zM1018 1444l-301 -281l-111 78l279 309zM647 1446l-235 -283l-111 78l215 309z" />
    <glyph glyph-name="Uogonek" unicode="&#x172;" horiz-adv-x="1464" 
d="M1300 559q0 -263 -125.5 -409t-351.5 -168q-104 -87 -104 -193q0 -49 28.5 -76.5t71.5 -27.5q50 0 94 41l64 -78q-42 -51 -84 -74t-98 -23q-105 0 -167.5 62t-62.5 151q0 56 28 112.5t75 100.5q-232 18 -368 166t-136 416v875h180v-865q0 -430 389 -430q387 0 387 430
v865h180v-875z" />
    <glyph glyph-name="uogonek" unicode="&#x173;" horiz-adv-x="1183" 
d="M592 127q128 0 207.5 81t79.5 238v615h172v-627q0 -194 -88 -305.5t-244 -140.5q-113 -93 -113 -199q0 -49 29 -76.5t72 -27.5q50 0 94 41l65 -78q-83 -97 -184 -97q-105 0 -167 62t-62 151q0 56 27.5 112.5t74.5 100.5q-197 9 -309.5 122.5t-112.5 334.5v627h172v-615
q0 -157 79.5 -238t207.5 -81z" />
    <glyph glyph-name="Wcircumflex" unicode="&#x174;" horiz-adv-x="2039" 
d="M911 1434h217l306 -1223l370 1223h195l-440 -1434h-242l-297 1202l-297 -1202h-242l-440 1434h195l370 -1223zM958 1892h123l62 -65q121 -129 180 -232l-70 -59l-233 211l-234 -211l-69 59q59 103 180 232z" />
    <glyph glyph-name="wcircumflex" unicode="&#x175;" horiz-adv-x="1613" 
d="M729 1061h156l254 -844l258 844h186l-362 -1061h-164l-250 823l-250 -823h-164l-362 1061h186l258 -844zM745 1536h123l62 -66q122 -131 180 -231l-70 -59l-233 211l-234 -211l-69 59q58 100 180 231z" />
    <glyph glyph-name="Ycircumflex" unicode="&#x176;" horiz-adv-x="1245" 
d="M1214 1434l-501 -867v-567h-181v567l-501 867h198l394 -674l393 674h198zM561 1892h123l61 -65q123 -132 181 -232l-70 -59l-233 211l-234 -211l-70 59q58 100 181 232z" />
    <glyph glyph-name="ycircumflex" unicode="&#x177;" horiz-adv-x="1062" 
d="M193 -524l-52 116q126 59 186.5 134t114.5 223l21 55l-432 1057h178l336 -840l313 840h174l-428 -1139q-77 -203 -161 -294.5t-250 -151.5zM469 1536h123l61 -66q125 -133 181 -231l-70 -59l-234 211l-233 -211l-70 59q56 98 181 231z" />
    <glyph glyph-name="Ydieresis" unicode="&#x178;" horiz-adv-x="1245" 
d="M1214 1434l-501 -867v-567h-181v567l-501 867h198l394 -674l393 674h198zM328 1622v209h184v-209h-184zM733 1622v209h185v-209h-185z" />
    <glyph glyph-name="Zacute" unicode="&#x179;" horiz-adv-x="1150" 
d="M61 150l791 1124h-750v160h967v-150l-790 -1124h811v-160h-1029v150zM719 1923l131 -108l-82 -74q-93 -84 -145 -122.5t-105 -64.5l-74 64z" />
    <glyph glyph-name="zacute" unicode="&#x17a;" horiz-adv-x="960" 
d="M51 0v137l623 776h-586v148h801v-137l-623 -777h643v-147h-858zM621 1567l131 -109l-82 -74q-92 -83 -144.5 -121.5t-105.5 -64.5l-74 64z" />
    <glyph glyph-name="Zdotaccent" unicode="&#x17b;" horiz-adv-x="1150" 
d="M61 150l791 1124h-750v160h967v-150l-790 -1124h811v-160h-1029v150zM473 1622v209h184v-209h-184z" />
    <glyph glyph-name="zdotaccent" unicode="&#x17c;" horiz-adv-x="960" 
d="M51 0v137l623 776h-586v148h801v-137l-623 -777h643v-147h-858zM377 1266v209h184v-209h-184z" />
    <glyph glyph-name="Zcaron" unicode="&#x17d;" horiz-adv-x="1150" 
d="M61 150l791 1124h-750v160h967v-150l-790 -1124h811v-160h-1029v150zM637 1561h-123l-61 65q-123 132 -181 232l70 59l233 -211l234 211l70 -59q-58 -100 -181 -232z" />
    <glyph glyph-name="zcaron" unicode="&#x17e;" horiz-adv-x="960" 
d="M51 0v137l623 776h-586v148h801v-137l-623 -777h643v-147h-858zM541 1204h-123l-62 66q-122 131 -180 231l70 60l233 -211l234 211l69 -60q-58 -100 -180 -231z" />
    <glyph glyph-name="longs" unicode="&#x17f;" horiz-adv-x="704" 
d="M565 1495q65 0 109 -6v-152q-50 6 -105 6q-99 0 -137.5 -44.5t-38.5 -139.5v-1159h-172v913h-190v148h190v110q0 168 81.5 246t262.5 78z" />
    <glyph glyph-name="uni0191" unicode="&#x191;" horiz-adv-x="1097" 
d="M111 -487l-105 102q101 101 129.5 181t28.5 249v1389h893v-160h-713v-496h641v-160h-641v-542q0 -159 -21.5 -255.5t-69 -164t-142.5 -143.5z" />
    <glyph glyph-name="florin" unicode="&#x192;" horiz-adv-x="704" 
d="M160 -487l-99 102q101 101 130.5 181.5t29.5 248.5v868h-190v148h190v110q0 168 81.5 246t262.5 78q65 0 109 -6v-152q-50 6 -105 6q-99 0 -137.5 -44.5t-38.5 -139.5v-98h260v-148h-260v-837q0 -159 -21.5 -255.5t-69 -164t-142.5 -143.5z" />
    <glyph glyph-name="Aringacute" unicode="&#x1fa;" horiz-adv-x="1384" 
d="M909 1518q0 -107 -86 -170l520 -1348h-198l-135 371h-635l-135 -371h-199l518 1348q-84 64 -84 170q0 90 62.5 151.5t154.5 61.5t154.5 -61.5t62.5 -151.5zM692 1255l-260 -725h520zM604 1518q0 -40 25 -66.5t63 -26.5t63 26.5t25 66.5t-25 66t-63 26t-63 -26t-25 -66z
M838 2048l96 -117l-78 -45q-142 -80 -235 -110l-54 63z" />
    <glyph glyph-name="aringacute" unicode="&#x1fb;" horiz-adv-x="1118" 
d="M791 1370q0 -89 -63 -151t-155 -62t-154.5 61.5t-62.5 151.5t62.5 151.5t154.5 61.5t155 -62t63 -151zM485 1370q0 -40 25 -66t63 -26t63.5 26t25.5 66t-25.5 66t-63.5 26t-63 -26t-25 -66zM719 1901l96 -117l-78 -45q-146 -83 -235 -111l-53 64zM1018 -25q-27 0 -52 6
t-54 20.5t-52 47t-35 78.5q-75 -79 -156 -115.5t-184 -36.5q-182 0 -292.5 95t-110.5 239t110.5 239t292.5 95q192 0 328 -84v129q0 56 -12 98t-41 76.5t-83 53t-132 18.5q-105 0 -161.5 -48t-68.5 -122h-178q14 140 124 230.5t298 90.5q203 0 314.5 -97.5t111.5 -262.5
v-543q0 -27 15.5 -43t39.5 -16q47 0 72 2v-137q-37 -13 -94 -13zM526 492q-126 0 -197 -45.5t-71 -137.5t71 -137t197 -45q78 0 153.5 36.5t133.5 96.5v143q-116 89 -287 89z" />
    <glyph glyph-name="AEacute" unicode="&#x1fc;" horiz-adv-x="1769" 
d="M432 371l-188 -371h-203l743 1434h885v-160h-602v-455h530v-160h-530v-499h621v-160h-801v371h-455zM887 530v736l-375 -736h375zM1253 1923l131 -108l-81 -74q-93 -84 -145 -122.5t-105 -64.5l-74 64z" />
    <glyph glyph-name="aeacute" unicode="&#x1fd;" horiz-adv-x="1890" 
d="M1636 295l107 -72q-77 -125 -174.5 -186.5t-233.5 -61.5q-128 0 -233.5 51t-177.5 142q-180 -193 -439 -193q-182 0 -292.5 95t-110.5 239t110.5 239t292.5 95q189 0 320 -80q0 26 8 76v49q0 56 -12 98t-41 76.5t-83 53t-132 18.5q-105 0 -161.5 -48t-68.5 -122h-178
q14 140 124 230.5t298 90.5q258 0 367 -178q69 85 167.5 131.5t217.5 46.5q221 0 359 -156.5t138 -404.5q0 -43 -2 -63h-819q17 -156 110 -245t242 -89q175 0 297 168zM987 608h643q-9 146 -99.5 236t-219.5 90q-133 0 -219 -87.5t-105 -238.5zM526 492q-126 0 -197 -45.5
t-71 -137.5t71 -137t197 -45q93 0 179.5 46t142.5 116q-22 57 -29 98q-119 105 -293 105zM1102 1567l131 -109l-82 -74q-92 -83 -144.5 -121.5t-105.5 -64.5l-74 64z" />
    <glyph glyph-name="Oslashacute" unicode="&#x1fe;" horiz-adv-x="1464" 
d="M145 8l121 172q-174 204 -174 537q0 156 43.5 291t123.5 235.5t202 157.5t272 57q208 0 359 -108l112 159l117 -79l-125 -177q176 -207 176 -536q0 -210 -74 -376.5t-220.5 -266t-344.5 -99.5q-209 0 -362 109l-111 -158zM1188 717q0 228 -98 385l-619 -877
q113 -86 262 -86q207 0 331 156.5t124 421.5zM276 717q0 -229 97 -385l618 876q-109 86 -258 86q-209 0 -333 -156t-124 -421zM864 1923l131 -108l-82 -74q-93 -84 -145 -123t-104 -64l-74 64z" />
    <glyph glyph-name="oslashacute" unicode="&#x1ff;" horiz-adv-x="1187" 
d="M129 -4l94 133q-141 157 -141 401q0 159 61.5 284.5t179 198t271.5 72.5q149 0 258 -65l90 127l117 -80l-96 -135q143 -152 143 -402q0 -159 -61.5 -284.5t-179 -198t-271.5 -72.5q-141 0 -260 66l-90 -127zM930 530q0 152 -66 261l-440 -623q71 -41 170 -41
q158 0 247 108.5t89 294.5zM258 530q0 -154 64 -260l440 621q-75 43 -168 43q-158 0 -247 -109t-89 -295zM719 1567l131 -109l-82 -74q-92 -83 -144.5 -121.5t-105.5 -64.5l-74 64z" />
    <glyph glyph-name="Scommaaccent" unicode="&#x218;" horiz-adv-x="1230" 
d="M631 139q151 0 237 64t86 164q0 50 -14 87.5t-39.5 65t-74.5 51t-104 41.5t-144 41q-125 32 -213.5 79t-137 105t-69.5 119.5t-21 133.5q0 164 121 266t330 102q221 0 350.5 -107t165.5 -311h-191q-50 254 -321 254q-133 0 -201.5 -55t-68.5 -149q0 -91 75 -163.5
t230 -113.5q113 -30 190 -57.5t142.5 -63.5t102.5 -79.5t57 -101.5t20 -134q0 -181 -134.5 -291.5t-375.5 -110.5q-309 0 -525 318l95 86q104 -123 206.5 -181.5t225.5 -58.5zM471 -494l119 408l153 -53l-34 -90q-78 -200 -144 -297z" />
    <glyph glyph-name="scommaaccent" unicode="&#x219;" horiz-adv-x="1019" 
d="M76 227l80 82q95 -100 183 -141t183 -41q123 0 181.5 42t58.5 103q0 73 -59 111t-216 82q-200 57 -284 138t-84 200q0 124 96 203t272 79q166 0 276.5 -78.5t145.5 -228.5h-180q-42 156 -235 156q-89 0 -144 -33.5t-55 -89.5q0 -63 57 -110.5t211 -90.5
q196 -55 285.5 -128.5t89.5 -198.5q0 -139 -102 -223.5t-304 -84.5q-268 0 -456 252zM383 -494l119 408l153 -53l-34 -90q-78 -200 -144 -297z" />
    <glyph glyph-name="uni021A" unicode="&#x21a;" horiz-adv-x="1155" 
d="M487 0v1274h-446v160h1073v-160h-446v-1274h-181zM383 -494l119 408l153 -53l-34 -90q-78 -200 -144 -297z" />
    <glyph glyph-name="uni021B" unicode="&#x21b;" horiz-adv-x="704" 
d="M489 -25q-117 0 -192.5 81.5t-75.5 242.5v614h-190v107l190 41v276l172 41v-317h260v-148h-260v-602q0 -104 36.5 -144t133.5 -40q63 0 90 2v-119q-62 -35 -164 -35zM266 -494l119 408l154 -53l-35 -90q-78 -200 -144 -297z" />
    <glyph glyph-name="dotlessj" unicode="&#x237;" horiz-adv-x="479" 
d="M92 -487l-98 102q101 101 130.5 181.5t29.5 248.5v1016h172v-985q0 -159 -21.5 -255.5t-69.5 -164t-143 -143.5z" />
    <glyph glyph-name="apostrophe" unicode="&#x2bc;" horiz-adv-x="819" 
d="M260 1057l133 479l164 -55l-39 -101q-90 -230 -172 -348z" />
    <glyph glyph-name="circumflex" unicode="&#x2c6;" horiz-adv-x="819" 
d="M348 1495h123l61 -65q123 -132 181 -232l-70 -59l-233 211l-234 -211l-70 59q58 100 181 232z" />
    <glyph glyph-name="caron" unicode="&#x2c7;" horiz-adv-x="819" 
d="M471 1163h-123l-61 66q-125 133 -181 231l70 60l234 -211l233 211l70 -60q-56 -98 -181 -231z" />
    <glyph glyph-name="uni02C9" unicode="&#x2c9;" horiz-adv-x="819" 
d="M111 1257v140h598v-140h-598z" />
    <glyph glyph-name="breve" unicode="&#x2d8;" horiz-adv-x="819" 
d="M410 1307q56 0 102.5 42t75.5 130h149q-26 -130 -113.5 -217.5t-213.5 -87.5t-213 87t-115 218h149q29 -88 76 -130t103 -42z" />
    <glyph glyph-name="dotaccent" unicode="&#x2d9;" horiz-adv-x="819" 
d="M317 1225v209h185v-209h-185z" />
    <glyph glyph-name="ring" unicode="&#x2da;" horiz-adv-x="819" 
d="M627 1329q0 -90 -62.5 -151.5t-154.5 -61.5t-154.5 61.5t-62.5 151.5t62.5 151.5t154.5 61.5t154.5 -61.5t62.5 -151.5zM322 1329q0 -40 25 -66t63 -26t63 26t25 66t-25 66t-63 26t-63 -26t-25 -66z" />
    <glyph glyph-name="ogonek" unicode="&#x2db;" horiz-adv-x="819" 
d="M379 0h151q-129 -99 -129 -211q0 -49 29 -76.5t72 -27.5q50 0 94 41l66 -80q-78 -95 -185 -95q-105 0 -167 62t-62 151q0 64 36 128.5t95 107.5z" />
    <glyph glyph-name="tilde" unicode="&#x2dc;" horiz-adv-x="819" 
d="M442 1393q53 -50 99 -50q58 0 84 101l125 -21q-24 -104 -77 -159.5t-134 -55.5q-90 0 -162 66q-52 49 -98 49q-59 0 -84 -100l-125 20q24 104 77 159.5t134 55.5q90 0 161 -65z" />
    <glyph glyph-name="hungarumlaut" unicode="&#x2dd;" horiz-adv-x="819" 
d="M768 1403l-301 -281l-111 78l279 309zM397 1405l-235 -283l-111 78l215 309z" />
    <glyph glyph-name="gravecomb" unicode="&#x300;" horiz-adv-x="0" 
d="M-776 1417l131 109l274 -305l-73 -62q-55 26 -111 67.5t-137 114.5z" />
    <glyph glyph-name="acutecomb" unicode="&#x301;" horiz-adv-x="0" 
d="M-389 1526l131 -109l-82 -74q-92 -83 -144.5 -121.5t-105.5 -64.5l-74 64z" />
    <glyph glyph-name="uni0302" unicode="&#x302;" horiz-adv-x="0" 
d="M-580 1495h123l62 -65q121 -129 180 -232l-70 -59l-233 211l-234 -211l-69 59q59 103 180 232z" />
    <glyph glyph-name="tildecomb" unicode="&#x303;" horiz-adv-x="0" 
d="M-485 1393q53 -50 98 -50q58 0 84 101l125 -21q-24 -104 -77 -159.5t-134 -55.5q-90 0 -162 66q-52 49 -98 49q-59 0 -84 -100l-125 20q24 104 77 159.5t134 55.5q91 0 162 -65z" />
    <glyph glyph-name="uni0304" unicode="&#x304;" horiz-adv-x="0" 
d="M-811 1260v139h598v-139h-598z" />
    <glyph glyph-name="uni0306" unicode="&#x306;" horiz-adv-x="0" 
d="M-518 1307q56 0 102.5 42t75.5 130h150q-26 -130 -114 -217.5t-214 -87.5t-213 87t-115 218h150q29 -88 75.5 -130t102.5 -42z" />
    <glyph glyph-name="uni0307" unicode="&#x307;" horiz-adv-x="0" 
d="M-610 1225v209h184v-209h-184z" />
    <glyph glyph-name="uni0308" unicode="&#x308;" horiz-adv-x="0" 
d="M-813 1225v209h184v-209h-184zM-408 1225v209h185v-209h-185z" />
    <glyph glyph-name="uni030A" unicode="&#x30a;" horiz-adv-x="0" 
d="M-301 1329q0 -90 -62.5 -151.5t-154.5 -61.5t-154.5 61.5t-62.5 151.5t62.5 151.5t154.5 61.5t154.5 -61.5t62.5 -151.5zM-606 1329q0 -40 25 -66t63 -26t63 26t25 66t-25 66t-63 26t-63 -26t-25 -66z" />
    <glyph glyph-name="uni030C" unicode="&#x30c;" horiz-adv-x="0" 
d="M-457 1163h-123l-61 66q-122 131 -180 231l69 60l234 -211l233 211l70 -60q-58 -100 -180 -231z" />
    <glyph glyph-name="uni0327" unicode="&#x327;" horiz-adv-x="0" 
d="M-559 -358q45 0 73.5 23.5t28.5 62.5q0 49 -50 75.5t-132 26.5l-12 16l71 154h146l-41 -84q79 -19 125.5 -72t46.5 -125q0 -84 -64 -145t-188 -61q-118 0 -193 94l64 80q51 -45 125 -45z" />
    <glyph glyph-name="uni03A9" unicode="&#x3a9;" horiz-adv-x="1466" 
d="M733 1458q150 0 272.5 -54.5t202.5 -149t123 -222t43 -274.5q0 -376 -280 -598h262v-160h-496v160q330 228 330 598q0 145 -53 266t-158.5 195.5t-245.5 74.5t-245.5 -74.5t-158.5 -195.5t-53 -266q0 -370 330 -598v-160h-495v160h262q-281 222 -281 598q0 147 43 274.5
t123 222t202.5 149t272.5 54.5z" />
    <glyph glyph-name="uni0400" unicode="&#x400;" horiz-adv-x="1157" 
d="M164 0v1434h893v-160h-713v-455h641v-160h-641v-499h731v-160h-911zM365 1815l131 108l274 -305l-74 -62q-94 44 -247 183z" />
    <glyph glyph-name="afii10023" unicode="&#x401;" horiz-adv-x="1157" 
d="M164 0v1434h893v-160h-713v-455h641v-160h-641v-499h731v-160h-911zM326 1622v209h184v-209h-184zM731 1622v209h184v-209h-184z" />
    <glyph glyph-name="afii10051" unicode="&#x402;" horiz-adv-x="1542" 
d="M1266 473q0 137 -75 225t-220 88q-91 0 -170 -28.5t-133 -77.5v-680h-181v1274h-446v160h1073v-160h-446v-443q148 111 321 111q208 0 334.5 -128t126.5 -329q0 -210 -117.5 -347.5t-310.5 -137.5q-111 0 -203 63l49 123q68 -22 123 -22q129 0 202 89.5t73 219.5z" />
    <glyph glyph-name="afii10052" unicode="&#x403;" horiz-adv-x="1101" 
d="M737 1923l131 -108l-82 -74q-93 -84 -145 -123t-104 -64l-74 64zM164 0v1434h897v-160h-717v-1274h-180z" />
    <glyph glyph-name="afii10053" unicode="&#x404;" horiz-adv-x="1400" 
d="M92 717q0 162 47.5 299.5t133 235t211 152t276.5 54.5q130 0 236.5 -41.5t177 -112.5t112.5 -160.5t53 -191.5h-188q-21 149 -124.5 245.5t-260.5 96.5q-199 0 -332.5 -130t-154.5 -367h679v-160h-679q21 -237 154.5 -367.5t332.5 -130.5q277 0 432 264l117 -71
q-96 -179 -230.5 -268t-324.5 -89q-201 0 -353.5 94.5t-233.5 262.5t-81 385z" />
    <glyph glyph-name="afii10054" unicode="&#x405;" horiz-adv-x="1230" 
d="M631 139q151 0 237 64t86 164q0 50 -14 87.5t-39.5 65t-74.5 51t-104 41.5t-144 41q-125 32 -213.5 79t-137 105t-69.5 119.5t-21 133.5q0 164 121 266t330 102q221 0 350.5 -107t165.5 -311h-191q-50 254 -321 254q-133 0 -201.5 -55t-68.5 -149q0 -91 75 -163.5
t230 -113.5q113 -30 190 -57.5t142.5 -63.5t102.5 -79.5t57 -101.5t20 -134q0 -181 -134.5 -291.5t-375.5 -110.5q-309 0 -525 318l95 86q104 -123 206.5 -181.5t225.5 -58.5z" />
    <glyph glyph-name="afii10055" unicode="&#x406;" horiz-adv-x="528" 
d="M174 1434h180v-1434h-180v1434z" />
    <glyph glyph-name="afii10056" unicode="&#x407;" horiz-adv-x="528" 
d="M174 1434h180v-1434h-180v1434zM-31 1622v209h185v-209h-185zM375 1622v209h184v-209h-184z" />
    <glyph glyph-name="afii10057" unicode="&#x408;" horiz-adv-x="1163" 
d="M532 139q142 0 214.5 95.5t72.5 261.5v938h180v-938q0 -239 -115 -380t-325 -141q-294 0 -467 318l109 74q76 -118 155 -173t176 -55z" />
    <glyph glyph-name="afii10058" unicode="&#x409;" horiz-adv-x="2017" 
d="M160 -25l-99 103q99 99 125.5 178.5t26.5 251.5v926h954v-592h283q227 0 356 -112.5t129 -307.5t-129 -308.5t-356 -113.5h-463v1274h-594v-735q0 -159 -21.5 -255.5t-69 -164.5t-142.5 -144zM1751 422q0 260 -321 260h-263v-522h263q161 0 241 67t80 195z" />
    <glyph glyph-name="afii10059" unicode="&#x40a;" horiz-adv-x="2082" 
d="M1053 1434h180v-592h283q227 0 356 -112.5t129 -307.5t-129 -308.5t-356 -113.5h-463v682h-709v-682h-180v1434h180v-592h709v592zM1817 422q0 260 -322 260h-262v-522h262q161 0 241.5 67t80.5 195z" />
    <glyph glyph-name="afii10060" unicode="&#x40b;" horiz-adv-x="1583" 
d="M971 786q-91 0 -170 -28.5t-133 -77.5v-680h-181v1274h-446v160h1073v-160h-446v-443q148 111 321 111q220 0 340.5 -122t120.5 -351v-469h-180v457q0 167 -71 248t-228 81z" />
    <glyph glyph-name="afii10061" unicode="&#x40c;" horiz-adv-x="1257" 
d="M344 1434v-787l617 787h213l-467 -588l530 -846h-217l-428 705l-248 -314v-391h-180v1434h180zM793 1923l131 -108l-82 -74q-93 -84 -145 -122.5t-105 -64.5l-74 64z" />
    <glyph glyph-name="uni040D" unicode="&#x40d;" horiz-adv-x="1449" 
d="M164 1434v-1434h174l776 1149v-1149h172v1434h-174l-776 -1149v1149h-172zM446 1815l132 108l274 -305l-74 -62q-96 45 -248 183z" />
    <glyph glyph-name="afii10062" unicode="&#x40e;" horiz-adv-x="1247" 
d="M639 618l383 816h195l-676 -1434h-193l201 428l-518 1006h194zM612 1700q56 0 103 42t76 130h149q-26 -130 -114 -217.5t-214 -87.5t-212.5 87t-114.5 218h149q29 -88 75.5 -130t102.5 -42z" />
    <glyph glyph-name="afii10145" unicode="&#x40f;" horiz-adv-x="1429" 
d="M344 160h741v1274h181v-1434h-461v-246h-180v246h-461v1434h180v-1274z" />
    <glyph glyph-name="afii10017" unicode="&#x410;" horiz-adv-x="1384" 
d="M594 1434h197l552 -1434h-198l-135 371h-635l-135 -371h-199zM692 1245l-260 -715h520z" />
    <glyph glyph-name="afii10018" unicode="&#x411;" horiz-adv-x="1193" 
d="M344 842h283q227 0 356 -112.5t129 -307.5t-129 -308.5t-356 -113.5h-463v1434h831v-160h-651v-432zM928 422q0 260 -322 260h-262v-522h262q161 0 241.5 67t80.5 195z" />
    <glyph glyph-name="afii10019" unicode="&#x412;" horiz-adv-x="1280" 
d="M164 0v1434h491q223 0 348 -103t125 -276q0 -107 -54 -187.5t-152 -107.5q135 -29 205.5 -121.5t70.5 -226.5q0 -195 -134 -303.5t-380 -108.5h-520zM344 823h287q152 0 234.5 62.5t82.5 169.5q0 219 -317 219h-287v-451zM1018 412q0 122 -90 187t-271 65h-313v-504h313
q361 0 361 252z" />
    <glyph glyph-name="afii10020" unicode="&#x413;" horiz-adv-x="1101" 
d="M164 0v1434h897v-160h-717v-1274h-180z" />
    <glyph glyph-name="afii10021" unicode="&#x414;" horiz-adv-x="1292" 
d="M1251 160v-406h-180v246h-850v-246h-180v406h125q64 192 94.5 433.5t30.5 475.5v365h799v-1274h161zM354 160h555v1114h-438v-223q0 -477 -117 -891z" />
    <glyph glyph-name="afii10022" unicode="&#x415;" horiz-adv-x="1157" 
d="M164 0v1434h893v-160h-713v-455h641v-160h-641v-499h731v-160h-911z" />
    <glyph glyph-name="afii10024" unicode="&#x416;" horiz-adv-x="1843" 
d="M831 684v750h181v-750l538 750h209l-430 -586l494 -848h-217l-387 698l-207 -282v-416h-181v416l-208 282l-385 -698h-218l492 848l-428 586h209z" />
    <glyph glyph-name="afii10025" unicode="&#x417;" horiz-adv-x="1134" 
d="M555 1294q-120 0 -194 -65.5t-87 -186.5h-184q26 203 150.5 309.5t318.5 106.5t315 -96.5t121 -267.5q0 -128 -75.5 -221t-182.5 -123q145 -39 225 -131.5t80 -231.5q0 -185 -129.5 -298.5t-357.5 -113.5q-149 0 -270.5 69.5t-208.5 197.5l96 80q159 -187 375 -187
q140 0 223.5 68.5t83.5 185.5q0 72 -29.5 127.5t-81.5 88t-117.5 49t-142.5 16.5h-127v159h127q143 0 233.5 66.5t90.5 181.5q0 101 -67.5 159t-184.5 58z" />
    <glyph glyph-name="afii10026" unicode="&#x418;" horiz-adv-x="1449" 
d="M164 0v1434h172v-1149l776 1149h174v-1434h-172v1149l-776 -1149h-174z" />
    <glyph glyph-name="afii10027" unicode="&#x419;" horiz-adv-x="1449" 
d="M164 0v1434h172v-1149l776 1149h174v-1434h-172v1149l-776 -1149h-174zM727 1700q56 0 102.5 42t75.5 130h150q-26 -130 -114 -217.5t-214 -87.5t-213 87t-115 218h150q29 -88 75.5 -130t102.5 -42z" />
    <glyph glyph-name="afii10028" unicode="&#x41a;" horiz-adv-x="1257" 
d="M344 1434v-787l617 787h213l-467 -588l530 -846h-217l-428 705l-248 -314v-391h-180v1434h180z" />
    <glyph glyph-name="afii10029" unicode="&#x41b;" horiz-adv-x="1372" 
d="M213 1434h995v-1434h-180v1274h-635v-735q0 -159 -21.5 -255.5t-69 -164.5t-142.5 -144l-99 103q99 99 125.5 178.5t26.5 251.5v926z" />
    <glyph glyph-name="afii10030" unicode="&#x41c;" horiz-adv-x="1732" 
d="M922 260h-111l-475 854v-1114h-172v1434h176l526 -945l527 945h176v-1434h-172v1114z" />
    <glyph glyph-name="afii10031" unicode="&#x41d;" horiz-adv-x="1437" 
d="M164 0v1434h180v-592h750v592h180v-1434h-180v682h-750v-682h-180z" />
    <glyph glyph-name="afii10032" unicode="&#x41e;" horiz-adv-x="1464" 
d="M1372 717q0 -210 -74 -376.5t-220.5 -266t-344.5 -99.5q-199 0 -346 99.5t-221 266t-74 376.5q0 156 43.5 291t123.5 235.5t202 157.5t272 57q198 0 344.5 -99t220.5 -265.5t74 -376.5zM276 717q0 -265 124 -421.5t333 -156.5q207 0 331 156.5t124 421.5t-123.5 421
t-331.5 156q-209 0 -333 -156t-124 -421z" />
    <glyph glyph-name="afii10033" unicode="&#x41f;" horiz-adv-x="1437" 
d="M1274 1434v-1434h-180v1274h-750v-1274h-180v1434h1110z" />
    <glyph glyph-name="afii10034" unicode="&#x420;" horiz-adv-x="1214" 
d="M1143 987q0 -219 -141.5 -332.5t-393.5 -113.5h-264v-541h-180v1434h444q252 0 393.5 -114t141.5 -333zM958 987q0 147 -89.5 217t-274.5 70h-250v-574h250q185 0 274.5 70t89.5 217z" />
    <glyph glyph-name="afii10035" unicode="&#x421;" horiz-adv-x="1400" 
d="M92 717q0 162 47.5 299.5t133 235t211 152t276.5 54.5q130 0 236.5 -41.5t177 -112.5t112.5 -160.5t53 -191.5h-188q-21 149 -124.5 245.5t-260.5 96.5q-217 0 -353.5 -152t-136.5 -425t137 -425.5t353 -152.5q277 0 432 264l117 -71q-96 -179 -230.5 -268t-324.5 -89
q-201 0 -353.5 94.5t-233.5 262.5t-81 385z" />
    <glyph glyph-name="afii10036" unicode="&#x422;" horiz-adv-x="1155" 
d="M487 0v1274h-446v160h1073v-160h-446v-1274h-181z" />
    <glyph glyph-name="afii10037" unicode="&#x423;" horiz-adv-x="1247" 
d="M639 618l383 816h195l-676 -1434h-193l201 428l-518 1006h194z" />
    <glyph glyph-name="afii10038" unicode="&#x424;" horiz-adv-x="1466" 
d="M823 0h-180v213q-255 12 -408 146.5t-153 357.5t153 357.5t408 146.5v213h180v-213q255 -12 408 -146.5t153 -357.5t-153 -357.5t-408 -146.5v-213zM823 1057v-680q172 6 274.5 95t102.5 245t-102.5 245t-274.5 95zM643 377v680q-172 -6 -274.5 -95t-102.5 -245
t102.5 -245t274.5 -95z" />
    <glyph glyph-name="afii10039" unicode="&#x425;" horiz-adv-x="1247" 
d="M1008 0l-385 588l-383 -588h-209l487 748l-446 686h209l342 -527l344 527h209l-449 -686l490 -748h-209z" />
    <glyph glyph-name="afii10040" unicode="&#x426;" horiz-adv-x="1468" 
d="M344 160h741v1274h181v-1274h161v-406h-180v246h-1083v1434h180v-1274z" />
    <glyph glyph-name="afii10041" unicode="&#x427;" horiz-adv-x="1249" 
d="M1085 0h-180v602q-147 -110 -321 -110q-220 0 -340.5 122t-120.5 351v469h180v-457q0 -167 71 -248.5t228 -81.5q91 0 169.5 29t133.5 78v680h180v-1434z" />
    <glyph glyph-name="afii10042" unicode="&#x428;" horiz-adv-x="1703" 
d="M344 160h418v1274h180v-1274h418v1274h180v-1434h-1376v1434h180v-1274z" />
    <glyph glyph-name="afii10043" unicode="&#x429;" horiz-adv-x="1742" 
d="M1522 0h-1358v1434h180v-1274h418v1274h180v-1274h418v1274h180v-1274h162v-406h-180v246z" />
    <glyph glyph-name="afii10044" unicode="&#x42a;" horiz-adv-x="1409" 
d="M559 1434v-592h283q227 0 356 -112.5t129 -307.5t-129 -308.5t-356 -113.5h-463v1274h-338v160h518zM1143 422q0 260 -322 260h-262v-522h262q161 0 241.5 67t80.5 195z" />
    <glyph glyph-name="afii10045" unicode="&#x42b;" horiz-adv-x="1636" 
d="M1292 1434h181v-1434h-181v1434zM164 1434h180v-592h283q227 0 356 -112.5t129 -307.5t-129 -308.5t-356 -113.5h-463v1434zM928 422q0 260 -322 260h-262v-522h262q161 0 241.5 67t80.5 195z" />
    <glyph glyph-name="afii10046" unicode="&#x42c;" horiz-adv-x="1193" 
d="M164 1434h180v-592h283q227 0 356 -112.5t129 -307.5t-129 -308.5t-356 -113.5h-463v1434zM928 422q0 260 -322 260h-262v-522h262q161 0 241.5 67t80.5 195z" />
    <glyph glyph-name="afii10047" unicode="&#x42d;" horiz-adv-x="1400" 
d="M1309 717q0 -217 -81 -385t-233.5 -262.5t-353.5 -94.5q-190 0 -324.5 89t-230.5 268l117 71q155 -264 432 -264q199 0 332.5 130.5t154.5 367.5h-680v160h680q-21 237 -154.5 367t-332.5 130q-157 0 -260.5 -96.5t-124.5 -245.5h-189q11 102 53 191.5t112.5 160.5
t177.5 112.5t237 41.5q151 0 276.5 -54.5t211 -152t133 -235t47.5 -299.5z" />
    <glyph glyph-name="afii10048" unicode="&#x42e;" horiz-adv-x="1710" 
d="M164 1434h180v-637h219q8 143 45 262.5t101 209t161.5 139.5t219.5 50q130 0 231.5 -56.5t165.5 -157.5t97.5 -234.5t33.5 -292.5t-33.5 -292.5t-97.5 -234.5t-166 -158t-231 -57q-122 0 -219.5 50t-161.5 139.5t-101 209t-45 263.5h-219v-637h-180v1434zM750 717
q0 -273 87 -425.5t253 -152.5t253 152.5t87 425.5t-87 425t-253 152t-253 -152t-87 -425z" />
    <glyph glyph-name="afii10049" unicode="&#x42f;" horiz-adv-x="1288" 
d="M129 995q0 202 140.5 320.5t377.5 118.5h477v-1434h-180v557h-309l-387 -557h-207l408 580q-153 45 -236.5 152t-83.5 263zM313 995q0 -132 87.5 -205t258.5 -73h285v557h-285q-171 0 -258.5 -73.5t-87.5 -205.5z" />
    <glyph glyph-name="afii10065" unicode="&#x430;" horiz-adv-x="1118" 
d="M1018 -25q-27 0 -52 6t-54 20.5t-52 47t-35 78.5q-75 -79 -156 -115.5t-184 -36.5q-182 0 -292.5 95t-110.5 239t110.5 239t292.5 95q192 0 328 -84v129q0 56 -12 98t-41 76.5t-83 53t-132 18.5q-105 0 -161.5 -48t-68.5 -122h-178q14 140 124 230.5t298 90.5
q203 0 314.5 -97.5t111.5 -262.5v-543q0 -27 15.5 -43t39.5 -16q47 0 72 2v-137q-37 -13 -94 -13zM526 492q-126 0 -197 -45.5t-71 -137.5t71 -137t197 -45q78 0 153.5 36.5t133.5 96.5v143q-116 89 -287 89z" />
    <glyph glyph-name="afii10066" unicode="&#x431;" horiz-adv-x="1146" 
d="M606 1016q210 0 334.5 -137t124.5 -383q0 -243 -129 -382t-330 -139q-246 0 -375 183t-129 506q0 156 29 277.5t95 224t173.5 173.5t265.5 117t369 64l-12 -154q-324 -19 -511.5 -141t-219.5 -338q55 59 138.5 94t176.5 35zM274 709v-43q0 -144 24.5 -249.5t69.5 -168
t104 -92t134 -29.5q131 0 207 100.5t76 268.5t-76 268t-207 100q-207 0 -332 -155z" />
    <glyph glyph-name="afii10067" unicode="&#x432;" horiz-adv-x="1058" 
d="M545 0h-402v1061h375q196 0 300 -74t104 -205q0 -164 -138 -219q89 -28 141 -92.5t52 -163.5q0 -140 -109.5 -223.5t-322.5 -83.5zM745 770q0 78 -56 110.5t-165 32.5h-221v-288h221q109 0 165 33.5t56 111.5zM801 313q0 83 -64 124.5t-180 41.5h-254v-332h254
q116 0 180 41.5t64 124.5z" />
    <glyph glyph-name="afii10068" unicode="&#x433;" horiz-adv-x="917" 
d="M877 913h-562v-913h-172v1061h734v-148z" />
    <glyph glyph-name="afii10069" unicode="&#x434;" horiz-adv-x="1169" 
d="M1128 147v-372h-172v225h-743v-225h-172v372h137q98 290 98 644v270h691v-914h161zM352 147h443v766h-346v-149q0 -301 -97 -617z" />
    <glyph glyph-name="afii10070" unicode="&#x435;" horiz-adv-x="1165" 
d="M911 295l107 -72q-77 -125 -174.5 -186.5t-233.5 -61.5q-232 0 -380 158t-148 397q0 242 139.5 398.5t364.5 156.5q221 0 359 -156.5t138 -404.5q0 -43 -2 -63h-819q17 -156 110 -245t242 -89q175 0 297 168zM262 608h643q-9 146 -99.5 236t-219.5 90q-133 0 -219 -87.5
t-105 -238.5z" />
    <glyph glyph-name="afii10072" unicode="&#x436;" horiz-adv-x="1548" 
d="M688 1061h172v-526l416 526h203l-340 -416l399 -645h-186l-316 518l-176 -215v-303h-172v303l-176 215l-315 -518h-187l400 645l-340 416h202l416 -526v526z" />
    <glyph glyph-name="afii10073" unicode="&#x437;" horiz-adv-x="991" 
d="M483 127q120 0 185 43t65 121q0 92 -92 142t-229 50h-113v152h113q124 0 202 42.5t78 115.5q0 67 -61 104t-170 37q-102 0 -161 -45.5t-79 -124.5h-176q28 148 139.5 234.5t278.5 86.5q179 0 292 -75t113 -207q0 -89 -51.5 -151t-136.5 -95q108 -31 168.5 -100.5
t60.5 -165.5q0 -141 -115 -228.5t-315 -87.5q-130 0 -232.5 51.5t-199.5 151.5l86 92q85 -71 168.5 -107t181.5 -36z" />
    <glyph glyph-name="afii10074" unicode="&#x438;" horiz-adv-x="1232" 
d="M1090 0h-172v801l-601 -801h-174v1061h172v-801l600 801h175v-1061z" />
    <glyph glyph-name="afii10075" unicode="&#x439;" horiz-adv-x="1232" 
d="M1090 0h-172v801l-601 -801h-174v1061h172v-801l600 801h175v-1061zM616 1348q56 0 103 42t76 130h149q-26 -130 -114 -218t-214 -88t-212.5 87.5t-114.5 218.5h149q29 -88 75.5 -130t102.5 -42z" />
    <glyph glyph-name="afii10076" unicode="&#x43a;" horiz-adv-x="1064" 
d="M143 1061h172v-553l469 553h211l-366 -418l426 -643h-195l-338 522l-207 -237v-285h-172v1061z" />
    <glyph glyph-name="afii10077" unicode="&#x43b;" horiz-adv-x="1130" 
d="M221 1061h766v-1061h-172v913h-422v-456q0 -159 -50 -267.5t-183 -214.5l-99 103q102 102 131 166t29 182v635z" />
    <glyph glyph-name="afii10078" unicode="&#x43c;" horiz-adv-x="1429" 
d="M315 0h-172v1061h162l410 -645l409 645h162v-1061h-172v754l-346 -533h-106l-347 535v-756z" />
    <glyph glyph-name="afii10079" unicode="&#x43d;" horiz-adv-x="1196" 
d="M315 651h566v410h172v-1061h-172v504h-566v-504h-172v1061h172v-410z" />
    <glyph glyph-name="afii10080" unicode="&#x43e;" horiz-adv-x="1187" 
d="M82 530q0 159 61.5 284.5t179 198t271.5 72.5t271.5 -72.5t179 -198t61.5 -284.5t-61.5 -284.5t-179 -198t-271.5 -72.5t-271.5 72.5t-179 198t-61.5 284.5zM258 530q0 -186 89 -294.5t247 -108.5t247 108.5t89 294.5t-89 295t-247 109t-247 -109t-89 -295z" />
    <glyph glyph-name="afii10081" unicode="&#x43f;" horiz-adv-x="1155" 
d="M840 913h-525v-913h-172v1061h869v-1061h-172v913z" />
    <glyph glyph-name="afii10082" unicode="&#x440;" horiz-adv-x="1200" 
d="M315 102v-536h-172v1495h131l31 -115q61 65 151.5 102t186.5 37q224 0 344.5 -150.5t120.5 -404.5t-120.5 -404.5t-344.5 -150.5q-93 0 -179 34t-149 93zM932 530q0 192 -77.5 298t-238.5 106q-80 0 -163.5 -36t-137.5 -97v-543q54 -60 137.5 -95.5t163.5 -35.5
q161 0 238.5 106t77.5 297z" />
    <glyph glyph-name="afii10083" unicode="&#x441;" horiz-adv-x="1093" 
d="M82 530q0 160 57.5 285t169.5 197.5t262 72.5q186 0 313.5 -99.5t162.5 -276.5h-177q-24 101 -101 163t-185 62q-157 0 -241.5 -108t-84.5 -296q0 -186 95 -294.5t261 -108.5q91 0 172 53.5t136 145.5l112 -68q-69 -139 -179 -211t-253 -72q-155 0 -274.5 72t-182.5 198
t-63 285z" />
    <glyph glyph-name="afii10084" unicode="&#x442;" horiz-adv-x="1011" 
d="M420 0v913h-389v148h950v-148h-389v-913h-172z" />
    <glyph glyph-name="afii10085" unicode="&#x443;" horiz-adv-x="1062" 
d="M193 -524l-52 116q126 59 186.5 134t114.5 223l21 55l-432 1057h178l336 -840l313 840h174l-428 -1139q-77 -203 -161 -294.5t-250 -151.5z" />
    <glyph glyph-name="afii10086" unicode="&#x444;" horiz-adv-x="1830" 
d="M535 1085q163 0 294 -124v534h172v-534q131 124 295 124q222 0 332.5 -147.5t110.5 -407.5q0 -258 -109 -406.5t-330 -148.5q-162 0 -299 121v-530h-172v530q-137 -121 -299 -121q-221 0 -329.5 148.5t-108.5 406.5q0 260 110.5 407.5t332.5 147.5zM557 127
q74 0 147.5 34.5t124.5 94.5v559q-54 54 -121.5 86.5t-136.5 32.5q-165 0 -234 -102.5t-69 -301.5q0 -94 14.5 -165t47.5 -126t90 -83.5t137 -28.5zM1260 934q-69 0 -137 -32.5t-122 -86.5v-559q51 -60 125 -94.5t148 -34.5q80 0 137 28.5t90 83.5t47.5 126t14.5 165
q0 199 -69 301.5t-234 102.5z" />
    <glyph glyph-name="afii10087" unicode="&#x445;" horiz-adv-x="1024" 
d="M250 1061l262 -371l262 371h193l-359 -506l396 -555h-195l-297 420l-297 -420h-195l396 555l-359 506h193z" />
    <glyph glyph-name="afii10088" unicode="&#x446;" horiz-adv-x="1224" 
d="M1012 147h172v-372h-172v225h-869v1061h172v-914h525v914h172v-914z" />
    <glyph glyph-name="afii10089" unicode="&#x447;" horiz-adv-x="1091" 
d="M518 516q76 0 143.5 27t114.5 71v447h172v-1061h-172v465q-145 -100 -280 -100q-188 0 -296 99.5t-108 297.5v299h172v-287q0 -137 63.5 -197.5t190.5 -60.5z" />
    <glyph glyph-name="afii10090" unicode="&#x448;" horiz-adv-x="1445" 
d="M809 147h321v914h173v-1061h-1160v1061h172v-914h322v914h172v-914z" />
    <glyph glyph-name="afii10091" unicode="&#x449;" horiz-adv-x="1515" 
d="M1303 0h-1160v1061h172v-914h322v914h172v-914h321v914h173v-914h172v-372h-172v225z" />
    <glyph glyph-name="afii10092" unicode="&#x44a;" horiz-adv-x="1163" 
d="M479 659h193q209 0 319.5 -85t110.5 -244t-110.5 -244.5t-319.5 -85.5h-365v913h-297v148h469v-402zM926 330q0 94 -63 138t-204 44h-178v-365h178q141 0 204 44.5t63 138.5z" />
    <glyph glyph-name="afii10093" unicode="&#x44b;" horiz-adv-x="1431" 
d="M1116 0v1061h172v-1061h-172zM143 0v1061h172v-402h193q209 0 319.5 -85t110.5 -244t-110.5 -244.5t-319.5 -85.5h-365zM762 330q0 94 -62.5 138t-203.5 44h-179v-365h179q140 0 203 44.5t63 138.5z" />
    <glyph glyph-name="afii10094" unicode="&#x44c;" horiz-adv-x="999" 
d="M143 0v1061h172v-402h193q209 0 319.5 -85t110.5 -244t-110.5 -244.5t-319.5 -85.5h-365zM762 330q0 94 -62.5 138t-203.5 44h-179v-365h179q140 0 203 44.5t63 138.5z" />
    <glyph glyph-name="afii10095" unicode="&#x44d;" horiz-adv-x="1093" 
d="M1012 530q0 -159 -63 -285t-182.5 -198t-274.5 -72q-282 0 -424 287l112 68q56 -94 133 -148.5t166 -54.5q149 0 241 88t111 242h-462v147h462q-17 154 -103.5 242t-227.5 88q-112 0 -192 -68t-103 -188h-176q30 193 162 300t321 107q227 0 363.5 -156t136.5 -399z" />
    <glyph glyph-name="afii10096" unicode="&#x44e;" horiz-adv-x="1482" 
d="M143 0v1061h172v-457h166q19 216 141.5 348.5t317.5 132.5q210 0 335.5 -155.5t125.5 -399.5t-125.5 -399.5t-335.5 -155.5q-195 0 -317.5 133t-141.5 349h-166v-457h-172zM655 530q0 -184 78 -293.5t207 -109.5t207 109.5t78 293.5t-78 294t-207 110t-207 -110t-78 -294
z" />
    <glyph glyph-name="afii10097" unicode="&#x44f;" horiz-adv-x="1097" 
d="M782 438h-274l-283 -438h-205l306 463q-111 32 -167.5 106.5t-56.5 180.5q0 151 106.5 231t307.5 80h438v-1061h-172v438zM526 586h256v327h-256q-124 0 -188 -43.5t-64 -119.5t64 -120t188 -44z" />
    <glyph glyph-name="uni0450" unicode="&#x450;" horiz-adv-x="1165" 
d="M1018 223l-107 72q-122 -168 -297 -168q-149 0 -242 89t-110 245h819q2 20 2 63q0 248 -138 404.5t-359 156.5q-225 0 -364.5 -156.5t-139.5 -398.5q0 -239 148 -397t380 -158q136 0 233.5 61.5t174.5 186.5zM905 608h-643q19 151 105 238.5t219 87.5q129 0 219.5 -90
t99.5 -236zM358 1458l131 109l275 -305l-74 -62q-55 26 -111 67.5t-137 114.5z" />
    <glyph glyph-name="afii10071" unicode="&#x451;" horiz-adv-x="1165" 
d="M1018 223l-107 72q-122 -168 -297 -168q-149 0 -242 89t-110 245h819q2 20 2 63q0 248 -138 404.5t-359 156.5q-225 0 -364.5 -156.5t-139.5 -398.5q0 -239 148 -397t380 -158q136 0 233.5 61.5t174.5 186.5zM905 608h-643q19 151 105 238.5t219 87.5q129 0 219.5 -90
t99.5 -236zM297 1266v209h184v-209h-184zM702 1266v209h185v-209h-185z" />
    <glyph glyph-name="afii10099" unicode="&#x452;" horiz-adv-x="1193" 
d="M1061 696v-620q0 -159 -21.5 -255.5t-69.5 -164t-143 -143.5l-98 102q101 101 130.5 181.5t29.5 248.5v610q0 135 -60 207t-182 72q-98 0 -187 -50t-145 -118v-766h-172v1214h-133v140h133v141h172v-141h424v-140h-424v-278q160 149 367 149q172 0 275.5 -102.5
t103.5 -286.5z" />
    <glyph glyph-name="afii10100" unicode="&#x453;" horiz-adv-x="917" 
d="M877 913h-562v-913h-172v1061h734v-148zM629 1567l131 -109l-82 -74q-92 -83 -144.5 -121.5t-105.5 -64.5l-74 64z" />
    <glyph glyph-name="afii10101" unicode="&#x454;" horiz-adv-x="1093" 
d="M82 530q0 243 136.5 399t363.5 156q189 0 321 -107t162 -300h-176q-23 120 -103 188t-192 68q-141 0 -228 -88t-104 -242h463v-147h-463q19 -154 111 -242t241 -88q89 0 166 54.5t133 148.5l113 -68q-142 -287 -424 -287q-155 0 -274.5 72t-182.5 198t-63 285z" />
    <glyph glyph-name="afii10102" unicode="&#x455;" horiz-adv-x="1019" 
d="M76 227l80 82q95 -100 183 -141t183 -41q123 0 181.5 42t58.5 103q0 73 -59 111t-216 82q-200 57 -284 138t-84 200q0 124 96 203t272 79q166 0 276.5 -78.5t145.5 -228.5h-180q-42 156 -235 156q-89 0 -144 -33.5t-55 -89.5q0 -63 57 -110.5t211 -90.5
q196 -55 285.5 -128.5t89.5 -198.5q0 -139 -102 -223.5t-304 -84.5q-268 0 -456 252z" />
    <glyph glyph-name="afii10103" unicode="&#x456;" horiz-adv-x="479" 
d="M154 0v1061h172v-1061h-172zM154 1296v181h172v-181h-172z" />
    <glyph glyph-name="afii10104" unicode="&#x457;" horiz-adv-x="479" 
d="M154 0v1061h172v-1061h-172zM-55 1266v209h184v-209h-184zM350 1266v209h185v-209h-185z" />
    <glyph glyph-name="afii10105" unicode="&#x458;" horiz-adv-x="479" 
d="M154 1296v181h172v-181h-172zM92 -487l-98 102q101 101 130.5 181.5t29.5 248.5v1016h172v-985q0 -159 -21.5 -255.5t-69.5 -164t-143 -143.5z" />
    <glyph glyph-name="afii10106" unicode="&#x459;" horiz-adv-x="1671" 
d="M221 1061h766v-402h193q209 0 319.5 -85t110.5 -244t-110.5 -244.5t-319.5 -85.5h-365v913h-422v-456q0 -159 -50 -267.5t-183 -214.5l-99 103q102 102 131 166t29 182v635zM1434 330q0 94 -63 138t-204 44h-180v-365h180q141 0 204 44.5t63 138.5z" />
    <glyph glyph-name="afii10107" unicode="&#x45a;" horiz-adv-x="1675" 
d="M819 0v504h-504v-504h-172v1061h172v-410h504v410h172v-402h193q209 0 319.5 -85t110.5 -244t-110.5 -244.5t-319.5 -85.5h-365zM1438 330q0 94 -63 138t-204 44h-178v-365h178q141 0 204 44.5t63 138.5z" />
    <glyph glyph-name="afii10108" unicode="&#x45b;" horiz-adv-x="1193" 
d="M10 1354h133v141h172v-141h424v-140h-424v-278q160 149 367 149q172 0 275.5 -102.5t103.5 -286.5v-696h-172v655q0 135 -60 207t-182 72q-98 0 -187 -50t-145 -118v-766h-172v1214h-133v140z" />
    <glyph glyph-name="afii10109" unicode="&#x45c;" horiz-adv-x="1064" 
d="M143 1061h172v-553l469 553h211l-366 -418l426 -643h-195l-338 522l-207 -237v-285h-172v1061zM674 1567l131 -109l-82 -74q-92 -83 -144.5 -121.5t-105.5 -64.5l-74 64z" />
    <glyph glyph-name="uni045D" unicode="&#x45d;" horiz-adv-x="1232" 
d="M1090 0h-172v801l-601 -801h-174v1061h172v-801l600 801h175v-1061zM342 1458l131 109l275 -305l-74 -62q-55 26 -111 67.5t-137 114.5z" />
    <glyph glyph-name="afii10110" unicode="&#x45e;" horiz-adv-x="1062" 
d="M193 -524l-52 116q126 59 186.5 134t114.5 223l21 55l-432 1057h178l336 -840l313 840h174l-428 -1139q-77 -203 -161 -294.5t-250 -151.5zM530 1348q56 0 103 42t76 130h149q-26 -130 -114 -218t-214 -88t-212.5 87.5t-114.5 218.5h149q29 -88 75.5 -130t102.5 -42z" />
    <glyph glyph-name="afii10193" unicode="&#x45f;" horiz-adv-x="1155" 
d="M664 -225h-172v225h-349v1061h172v-914h525v914h172v-1061h-348v-225z" />
    <glyph glyph-name="afii10050" unicode="&#x490;" horiz-adv-x="1101" 
d="M164 0v1434h717v252h180v-412h-717v-1274h-180z" />
    <glyph glyph-name="afii10098" unicode="&#x491;" horiz-adv-x="917" 
d="M877 913h-562v-913h-172v1061h562v270h172v-418z" />
    <glyph glyph-name="Wgrave" unicode="&#x1e80;" horiz-adv-x="2039" 
d="M911 1434h217l306 -1223l370 1223h195l-440 -1434h-242l-297 1202l-297 -1202h-242l-440 1434h195l370 -1223zM705 1815l131 108l274 -305l-74 -62q-96 45 -248 183z" />
    <glyph glyph-name="wgrave" unicode="&#x1e81;" horiz-adv-x="1613" 
d="M729 1061h156l254 -844l258 844h186l-362 -1061h-164l-250 823l-250 -823h-164l-362 1061h186l258 -844zM485 1458l131 109l275 -305l-74 -62q-55 26 -111 67.5t-137 114.5z" />
    <glyph glyph-name="Wacute" unicode="&#x1e82;" horiz-adv-x="2039" 
d="M911 1434h217l306 -1223l370 1223h195l-440 -1434h-242l-297 1202l-297 -1202h-242l-440 1434h195l370 -1223zM1184 1923l131 -108l-82 -74q-93 -84 -145 -122.5t-105 -64.5l-74 64z" />
    <glyph glyph-name="wacute" unicode="&#x1e83;" horiz-adv-x="1613" 
d="M729 1061h156l254 -844l258 844h186l-362 -1061h-164l-250 823l-250 -823h-164l-362 1061h186l258 -844zM997 1567l131 -109l-81 -74q-92 -83 -144.5 -121.5t-105.5 -64.5l-74 64z" />
    <glyph glyph-name="Wdieresis" unicode="&#x1e84;" horiz-adv-x="2039" 
d="M911 1434h217l306 -1223l370 1223h195l-440 -1434h-242l-297 1202l-297 -1202h-242l-440 1434h195l370 -1223zM725 1622v209h184v-209h-184zM1130 1622v209h185v-209h-185z" />
    <glyph glyph-name="wdieresis" unicode="&#x1e85;" horiz-adv-x="1613" 
d="M729 1061h156l254 -844l258 844h186l-362 -1061h-164l-250 823l-250 -823h-164l-362 1061h186l258 -844zM512 1266v209h184v-209h-184zM918 1266v209h184v-209h-184z" />
    <glyph glyph-name="Ygrave" unicode="&#x1ef2;" horiz-adv-x="1245" 
d="M1214 1434l-501 -867v-567h-181v567l-501 867h198l394 -674l393 674h198zM401 1815l131 108l275 -305l-74 -62q-96 45 -248 183z" />
    <glyph glyph-name="ygrave" unicode="&#x1ef3;" horiz-adv-x="1062" 
d="M193 -524l-52 116q126 59 186.5 134t114.5 223l21 55l-432 1057h178l336 -840l313 840h174l-428 -1139q-77 -203 -161 -294.5t-250 -151.5zM246 1458l131 109l274 -305l-73 -62q-55 26 -111 67.5t-137 114.5z" />
    <glyph glyph-name="thinspace" unicode="&#x2009;" horiz-adv-x="409" 
 />
    <glyph glyph-name="uni2010" unicode="&#x2010;" horiz-adv-x="831" 
d="M709 592h-586v176h586v-176z" />
    <glyph glyph-name="figuredash" unicode="&#x2012;" horiz-adv-x="1187" 
d="M1106 600h-1024v160h1024v-160z" />
    <glyph glyph-name="endash" unicode="&#x2013;" horiz-adv-x="1024" 
d="M1024 600h-1024v160h1024v-160z" />
    <glyph glyph-name="emdash" unicode="&#x2014;" horiz-adv-x="2048" 
d="M2048 600h-2048v160h2048v-160z" />
    <glyph glyph-name="afii00208" unicode="&#x2015;" horiz-adv-x="2048" 
d="M1843 600h-1638v160h1638v-160z" />
    <glyph glyph-name="uni2016" unicode="&#x2016;" horiz-adv-x="884" 
d="M205 -266v1800h147v-1800h-147zM532 -266v1800h148v-1800h-148z" />
    <glyph glyph-name="underscoredbl" unicode="&#x2017;" horiz-adv-x="1228" 
d="M102 -410v140h1024v-140h-1024zM102 -201v140h1024v-140h-1024z" />
    <glyph glyph-name="quoteleft" unicode="&#x2018;" horiz-adv-x="614" 
d="M465 1604l94 -78q-90 -95 -125 -172.5t-35 -190.5v-90h-184v90q0 265 250 441z" />
    <glyph glyph-name="quoteright" unicode="&#x2019;" horiz-adv-x="614" 
d="M150 1036l-95 78q90 95 125 172.5t35 190.5v90h184v-90q0 -266 -249 -441z" />
    <glyph glyph-name="quotesinglbase" unicode="&#x201a;" horiz-adv-x="614" 
d="M150 -317l-95 77q90 95 125 172.5t35 190.5v90h184v-90q0 -265 -249 -440z" />
    <glyph glyph-name="quotereversed" unicode="&#x201b;" horiz-adv-x="614" 
d="M342 1448l154 -539l-101 -30q-68 105 -186 385l-51 122z" />
    <glyph glyph-name="quotedblleft" unicode="&#x201c;" horiz-adv-x="958" 
d="M465 1604l94 -78q-90 -95 -125 -172.5t-35 -190.5v-90h-184v90q0 265 250 441zM809 1604l94 -78q-90 -95 -125 -172.5t-35 -190.5v-90h-184v90q0 265 250 441z" />
    <glyph glyph-name="quotedblright" unicode="&#x201d;" horiz-adv-x="958" 
d="M150 1036l-95 78q90 95 125 172.5t35 190.5v90h184v-90q0 -266 -249 -441zM494 1036l-95 78q90 95 125 172.5t35 190.5v90h184v-90q0 -266 -249 -441z" />
    <glyph glyph-name="quotedblbase" unicode="&#x201e;" horiz-adv-x="958" 
d="M150 -317l-95 77q90 95 125 172.5t35 190.5v90h184v-90q0 -265 -249 -440zM494 -317l-95 77q90 95 125 172.5t35 190.5v90h184v-90q0 -265 -249 -440z" />
    <glyph glyph-name="uni201F" unicode="&#x201f;" horiz-adv-x="958" 
d="M342 1448l154 -539l-101 -30q-68 105 -186 385l-51 122zM686 1448l154 -539l-101 -30q-68 105 -186 385l-51 122z" />
    <glyph glyph-name="dagger" unicode="&#x2020;" horiz-adv-x="1179" 
d="M1016 1188v-148h-340v-1308h-172v1308h-340v148h340v344h172v-344h340z" />
    <glyph glyph-name="daggerdbl" unicode="&#x2021;" horiz-adv-x="1179" 
d="M1016 223v-147h-340v-344h-172v344h-340v147h340v817h-340v148h340v344h172v-344h340v-148h-340v-817h340z" />
    <glyph glyph-name="bullet" unicode="&#x2022;" horiz-adv-x="917" 
d="M190 678q0 110 79.5 189t189.5 79t189 -79t79 -189t-79 -189t-189 -79t-189.5 79t-79.5 189z" />
    <glyph glyph-name="onedotenleader" unicode="&#x2024;" horiz-adv-x="614" 
d="M215 0v213h184v-213h-184z" />
    <glyph glyph-name="twodotenleader" unicode="&#x2025;" horiz-adv-x="1228" 
d="M215 0v213h184v-213h-184zM829 0v213h185v-213h-185z" />
    <glyph glyph-name="ellipsis" unicode="&#x2026;" horiz-adv-x="1843" 
d="M215 0v213h184v-213h-184zM829 0v213h185v-213h-185zM1444 0v213h184v-213h-184z" />
    <glyph glyph-name="perthousand" unicode="&#x2030;" horiz-adv-x="2252" 
d="M164 1104q0 145 91.5 244.5t231.5 99.5q141 0 232.5 -99.5t91.5 -244.5t-91.5 -244.5t-232.5 -99.5q-140 0 -231.5 99.5t-91.5 244.5zM336 1104q0 -85 41 -134.5t110 -49.5t110.5 50t41.5 134t-41.5 134t-110.5 50t-110 -49.5t-41 -134.5zM1286 1290l-885 -1239l-118 92
l874 1229zM748 328q0 145 91.5 244.5t231.5 99.5q141 0 232.5 -99.5t91.5 -244.5t-91.5 -244.5t-232.5 -99.5q-140 0 -231.5 99.5t-91.5 244.5zM920 328q0 -85 41 -135t110 -50t110.5 50t41.5 135q0 84 -41.5 134t-110.5 50t-110 -49.5t-41 -134.5zM1442 328
q0 145 91.5 244.5t231.5 99.5q141 0 232.5 -99.5t91.5 -244.5t-91.5 -244.5t-232.5 -99.5q-140 0 -231.5 99.5t-91.5 244.5zM1614 328q0 -85 41 -135t110 -50t110.5 50t41.5 135q0 84 -41.5 134t-110.5 50t-110 -49.5t-41 -134.5z" />
    <glyph glyph-name="minute" unicode="&#x2032;" horiz-adv-x="653" 
d="M158 909l153 539l185 -62l-52 -122q-118 -280 -186 -385z" />
    <glyph glyph-name="second" unicode="&#x2033;" horiz-adv-x="1038" 
d="M158 909l153 539l185 -62l-52 -122q-118 -280 -186 -385zM543 909l153 539l185 -62l-52 -122q-118 -280 -186 -385z" />
    <glyph glyph-name="guilsinglleft" unicode="&#x2039;" horiz-adv-x="747" 
d="M102 606v66l119 86q167 119 359 219l65 -90l-352 -248l352 -248l-65 -90q-192 100 -359 219z" />
    <glyph glyph-name="guilsinglright" unicode="&#x203a;" horiz-adv-x="747" 
d="M645 672v-66l-119 -86q-169 -121 -358 -219l-66 90l353 248l-353 248l66 90q189 -98 358 -219z" />
    <glyph glyph-name="exclamdbl" unicode="&#x203c;" horiz-adv-x="976" 
d="M242 346l-49 717v371h204v-371l-49 -717h-106zM197 0v203h198v-203h-198zM629 346l-49 717v371h204v-371l-49 -717h-106zM584 0v203h198v-203h-198z" />
    <glyph glyph-name="uni203E" unicode="&#x203e;" horiz-adv-x="819" 
d="M111 1257v140h598v-140h-598z" />
    <glyph glyph-name="fraction" unicode="&#x2044;" horiz-adv-x="397" 
d="M520 1464l123 -67l-766 -1428l-123 68z" />
    <glyph glyph-name="zerosuperior" unicode="&#x2070;" 
d="M66 961q0 141 38.5 249.5t119.5 174t196 65.5t196 -65.5t119.5 -174t38.5 -249.5t-38.5 -250t-120 -174.5t-195.5 -65.5t-195.5 65.5t-120 174.5t-38.5 250zM221 961q0 -165 50.5 -258t148.5 -93t148 93t50 258t-50 257.5t-148 92.5t-148.5 -92.5t-50.5 -257.5z" />
    <glyph glyph-name="uni2071" unicode="&#x2071;" 
d="M344 485v680h152v-680h-152zM344 1278v156h152v-156h-152z" />
    <glyph glyph-name="foursuperior" unicode="&#x2074;" 
d="M498 688h-443v123l455 623h139v-611h115v-135h-115v-203h-151v203zM498 1186l-260 -363h260v363z" />
    <glyph glyph-name="fivesuperior" unicode="&#x2075;" 
d="M188 918l-28 18v498h536v-136h-393v-221q49 10 117 10q143 0 233 -87.5t90 -233.5q0 -125 -89 -211t-230 -86q-179 0 -307 158l69 73q57 -51 109.5 -70.5t132.5 -19.5q70 0 115 49t45 117q0 81 -51 127.5t-134 46.5q-123 0 -215 -32z" />
    <glyph glyph-name="sixsuperior" unicode="&#x2076;" 
d="M430 1311q-71 0 -118 -68t-56 -201q92 72 193 72q139 0 224 -92.5t85 -233.5t-88.5 -230t-233.5 -89q-158 0 -252 115.5t-94 349.5q0 253 94 384.5t250 131.5q130 0 215 -78.5t101 -195.5h-156q-28 135 -164 135zM432 975q-102 0 -180 -78q6 -148 55 -218.5t125 -70.5
q82 0 126 49.5t44 135.5q0 84 -45.5 133t-124.5 49z" />
    <glyph glyph-name="sevensuperior" unicode="&#x2077;" 
d="M731 1434v-136q-242 -392 -317 -813h-170q88 428 321 813h-436v136h602z" />
    <glyph glyph-name="eightsuperior" unicode="&#x2078;" 
d="M90 764q0 145 137 235q-114 79 -114 201q0 116 80.5 183t216.5 67q134 0 217.5 -71.5t83.5 -196.5q0 -66 -31.5 -121.5t-87.5 -89.5q81 -47 118.5 -102t37.5 -126q0 -122 -92 -198t-236 -76q-147 0 -238.5 79.5t-91.5 215.5zM369 924l-29 12q-94 -72 -94 -176
q0 -69 50 -109.5t126 -40.5q75 0 122.5 35.5t47.5 91.5q0 55 -42 90.5t-181 96.5zM268 1200q0 -52 39 -87t166 -87q82 64 82 160q0 60 -41.5 93.5t-112.5 33.5q-61 0 -97 -33t-36 -80z" />
    <glyph glyph-name="ninesuperior" unicode="&#x2079;" 
d="M403 608q81 0 126.5 63.5t54.5 205.5q-92 -72 -193 -72q-139 0 -224 92.5t-85 232.5q0 141 88 230.5t233 89.5q158 0 252.5 -115.5t94.5 -349.5q0 -261 -90.5 -388.5t-249.5 -127.5q-71 0 -143.5 35t-133.5 104l62 86q102 -86 208 -86zM408 944q102 0 180 78
q-6 148 -55 218.5t-125 70.5q-82 0 -126 -49.5t-44 -135.5q0 -84 45.5 -133t124.5 -49z" />
    <glyph glyph-name="uni207A" unicode="&#x207a;" 
d="M346 639v260h-262v131h262v260h148v-260h262v-131h-262v-260h-148z" />
    <glyph glyph-name="uni207B" unicode="&#x207b;" 
d="M756 899h-672v131h672v-131z" />
    <glyph glyph-name="uni207C" unicode="&#x207c;" 
d="M756 776h-672v131h672v-131zM756 1022h-672v131h672v-131z" />
    <glyph glyph-name="uni207D" unicode="&#x207d;" 
d="M274 961q0 316 193 593l104 -47q-159 -257 -159 -546q0 -290 159 -547l-104 -47q-193 277 -193 594z" />
    <glyph glyph-name="uni207E" unicode="&#x207e;" 
d="M565 961q0 -319 -192 -594l-105 47q160 258 160 547q0 288 -160 546l105 47q192 -275 192 -593z" />
    <glyph glyph-name="uni207F" unicode="&#x207f;" 
d="M489 1182q103 0 165.5 -67t62.5 -183v-447h-156v422q0 62 -29.5 96.5t-85.5 34.5q-46 0 -93.5 -24t-71.5 -53v-476h-154v680h123l20 -73q38 41 100 65.5t119 24.5z" />
    <glyph glyph-name="zeroinferior" unicode="&#x2080;" 
d="M66 217q0 141 38.5 250t120 174.5t195.5 65.5t195.5 -65.5t120 -174.5t38.5 -250t-38.5 -249.5t-119.5 -174t-196 -65.5t-196 65.5t-119.5 174t-38.5 249.5zM221 217q0 -165 50.5 -257.5t148.5 -92.5t148 92.5t50 257.5t-50 257.5t-148 92.5t-148.5 -92.5t-50.5 -257.5z
" />
    <glyph glyph-name="oneinferior" unicode="&#x2081;" 
d="M387 498l-141 -105l-99 111l259 188h133v-950h-152v756z" />
    <glyph glyph-name="twoinferior" unicode="&#x2082;" 
d="M397 569q-66 0 -105 -43t-52 -137h-140q13 152 96.5 235t215.5 83q134 0 212 -72.5t78 -200.5q0 -87 -37.5 -166t-121.5 -172q-119 -130 -217 -219h385v-135h-602v127q149 128 305 297q72 79 102.5 140t30.5 124q0 67 -38 103t-112 36z" />
    <glyph glyph-name="threeinferior" unicode="&#x2083;" 
d="M391 567q-68 0 -110.5 -38t-49.5 -105h-153q17 133 103 208t208 75q137 0 223 -69t86 -187q0 -72 -41.5 -129.5t-103.5 -85.5q75 -29 124.5 -87.5t49.5 -140.5q0 -122 -88 -202t-240 -80q-191 0 -319 184l80 70q57 -63 112.5 -89t126.5 -26q77 0 124.5 41.5t47.5 101.5
q0 81 -59 119.5t-160 38.5h-96v135h96q88 0 139.5 37.5t51.5 101.5q0 58 -40 92.5t-112 34.5z" />
    <glyph glyph-name="fourinferior" unicode="&#x2084;" 
d="M498 -55h-443v123l455 622h139v-610h115v-135h-115v-203h-151v203zM498 442l-260 -362h260v362z" />
    <glyph glyph-name="fiveinferior" unicode="&#x2085;" 
d="M188 174l-28 19v497h536v-135h-393v-221q49 10 117 10q143 0 233 -87.5t90 -233.5q0 -125 -89 -211t-230 -86q-179 0 -307 157l69 74q57 -51 109.5 -70.5t132.5 -19.5q70 0 115 49t45 117q0 81 -51 127.5t-134 46.5q-120 0 -215 -33z" />
    <glyph glyph-name="sixinferior" unicode="&#x2086;" 
d="M430 567q-71 0 -118 -67.5t-56 -200.5q92 72 193 72q139 0 224 -92.5t85 -233.5t-88.5 -230t-233.5 -89q-158 0 -252 115t-94 349q0 254 94 385.5t250 131.5q130 0 215 -78.5t101 -196.5h-156q-28 135 -164 135zM432 231q-103 0 -180 -77q6 -148 55 -218.5t125 -70.5
q82 0 126 49t44 135q0 84 -45.5 133t-124.5 49z" />
    <glyph glyph-name="seveninferior" unicode="&#x2087;" 
d="M731 690v-135q-242 -392 -317 -813h-170q88 428 321 813h-436v135h602z" />
    <glyph glyph-name="eightinferior" unicode="&#x2088;" 
d="M90 20q0 72 36.5 133t100.5 103q-114 79 -114 201q0 116 80.5 183t216.5 67q133 0 217 -72t84 -197q0 -66 -31.5 -121.5t-87.5 -89.5q81 -47 118.5 -101.5t37.5 -125.5q0 -122 -92 -198t-236 -76q-147 0 -238.5 79t-91.5 215zM369 180l-29 13q-94 -72 -94 -177
q0 -69 50 -109t126 -40q75 0 122.5 35.5t47.5 91.5q0 55 -41.5 90t-181.5 96zM268 457q0 -52 39 -87t166 -87q82 64 82 159q0 60 -41.5 93.5t-112.5 33.5q-61 0 -97 -33t-36 -79z" />
    <glyph glyph-name="nineinferior" unicode="&#x2089;" 
d="M403 -135q81 0 126.5 63t54.5 205q-92 -72 -193 -72q-139 0 -224 92.5t-85 233.5t88 230.5t233 89.5q158 0 252.5 -115.5t94.5 -349.5q0 -261 -90.5 -388.5t-249.5 -127.5q-71 0 -143.5 35t-133.5 104l62 86q102 -86 208 -86zM408 201q102 0 180 78q-6 148 -55 218
t-125 70q-82 0 -126 -49t-44 -135q0 -84 45.5 -133t124.5 -49z" />
    <glyph glyph-name="uni208A" unicode="&#x208a;" 
d="M346 -104v260h-262v131h262v260h148v-260h262v-131h-262v-260h-148z" />
    <glyph glyph-name="uni208B" unicode="&#x208b;" 
d="M756 156h-672v131h672v-131z" />
    <glyph glyph-name="uni208C" unicode="&#x208c;" 
d="M756 33h-672v131h672v-131zM756 279h-672v131h672v-131z" />
    <glyph glyph-name="uni208D" unicode="&#x208d;" 
d="M274 217q0 317 193 594l104 -47q-159 -257 -159 -547t159 -547l-104 -47q-193 277 -193 594z" />
    <glyph glyph-name="uni208E" unicode="&#x208e;" 
d="M565 217q0 -319 -192 -594l-105 47q160 258 160 547t-160 547l105 47q192 -275 192 -594z" />
    <glyph glyph-name="uni2090" unicode="&#x2090;" 
d="M748 -272q-66 0 -102 16t-52 61q-98 -77 -234 -77q-112 0 -190 65t-78 162t78.5 163t189.5 66q121 0 222 -61v37q0 87 -43 130.5t-121 43.5q-72 0 -106 -19.5t-44 -58.5h-139q19 97 96 151t205 54q134 0 212.5 -72t78.5 -201v-315q0 -20 13 -31.5t32 -11.5q37 0 55 2v-96
q-36 -8 -73 -8zM393 57q-69 0 -113 -26t-44 -76q0 -46 41.5 -74t115.5 -28q122 0 189 61v102q-90 41 -189 41z" />
    <glyph glyph-name="uni2091" unicode="&#x2091;" 
d="M420 334q-73 0 -119.5 -45t-58.5 -131h358q-12 85 -61 130.5t-119 45.5zM432 -272q-156 0 -251 100.5t-95 265.5q0 160 92.5 263.5t241.5 103.5q148 0 240 -103.5t92 -267.5q0 -30 -4 -55h-508q12 -88 63 -134t129 -46q63 0 111 20t98 70l70 -70q-116 -147 -279 -147z
" />
    <glyph glyph-name="uni2092" unicode="&#x2092;" 
d="M616 94q0 105 -55.5 172.5t-140.5 67.5t-141 -67.5t-56 -172.5t56 -172t141 -67t140.5 67t55.5 172zM68 94q0 161 95.5 264t256.5 103t256.5 -103t95.5 -264t-95.5 -263.5t-256.5 -102.5t-256.5 102.5t-95.5 263.5z" />
    <glyph glyph-name="uni2093" unicode="&#x2093;" 
d="M420 215l178 229h170l-262 -342l280 -358h-178l-188 246l-189 -246h-178l279 358l-260 342h170z" />
    <glyph glyph-name="uni2094" unicode="&#x2094;" 
d="M418 -145q73 0 119.5 45t58.5 131h-358q12 -85 61 -130.5t119 -45.5zM406 461q156 0 251 -101t95 -266q0 -160 -92.5 -263t-241.5 -103q-148 0 -240 103t-92 267q0 31 4 56h508q-12 88 -63 134t-129 46q-63 0 -111 -20t-98 -70l-70 69q117 148 279 148z" />
    <glyph glyph-name="uni20A0" unicode="&#x20a0;" horiz-adv-x="1583" 
d="M821 0v500q-113 -80 -262 -80q-204 0 -340.5 148.5t-136.5 369.5q0 228 130.5 374t346.5 146q181 0 296 -96.5t153 -247.5h-191q-22 77 -90.5 128.5t-167.5 51.5q-137 0 -215 -96t-78 -260q0 -158 83.5 -255t209.5 -97q176 0 262 104v314h666v-160h-486v-248h451v-160
h-451v-276h500v-160h-680z" />
    <glyph glyph-name="colonmonetary" unicode="&#x20a1;" horiz-adv-x="1400" 
d="M92 717q0 210 76.5 374t219.5 260t333 105l47 158l119 -35l-37 -127q74 -11 111 -22l53 184l119 -35l-58 -201q115 -67 182.5 -179.5t81.5 -246.5h-188q-22 155 -129 248l-307 -1059q16 -2 51 -2q277 0 432 264l117 -71q-96 -179 -230.5 -268t-324.5 -89q-39 0 -90 7
l-35 -123l-119 35l33 110q-55 18 -105 45l-55 -190l-119 35l66 227q-118 99 -181 252t-63 344zM276 717q0 -249 115 -402l281 971q-179 -32 -287.5 -179.5t-108.5 -389.5zM803 1292l-309 -1073q43 -32 102 -51l317 1100q-63 22 -110 24z" />
    <glyph glyph-name="uni20A2" unicode="&#x20a2;" horiz-adv-x="1400" 
d="M92 717q0 162 47.5 299.5t133 235t211 152t276.5 54.5q130 0 236.5 -41.5t177 -112.5t112.5 -160.5t53 -191.5h-188q-21 149 -124.5 245.5t-260.5 96.5q-217 0 -353.5 -152t-136.5 -425q0 -199 73.5 -335t203.5 -198v652h131l31 -136q58 77 146.5 118.5t193.5 41.5
q44 0 67 -2v-158q-61 7 -90 7q-93 0 -177 -46.5t-130 -121.5v-400h41q277 0 432 264l117 -71q-96 -179 -230.5 -268t-324.5 -89q-201 0 -353.5 94.5t-233.5 262.5t-81 385z" />
    <glyph glyph-name="franc" unicode="&#x20a3;" horiz-adv-x="1097" 
d="M41 549v119h123v155h-123v119h123v492h893v-160h-713v-332h604v-119h-604v-155h602v-119h-602v-549h-180v549h-123z" />
    <glyph glyph-name="lira" unicode="&#x20a4;" horiz-adv-x="1198" 
d="M246 756h-164v118h164v156q0 213 110 320.5t308 107.5q170 0 282 -104t133 -295h-180q-14 106 -74.5 170.5t-154.5 64.5q-118 0 -181 -64t-63 -192v-164h424v-118h-424v-156h424v-119h-424q-9 -221 -133 -321h844v-160h-1055v143q164 129 164 328v10h-164v119h164v156z
" />
    <glyph glyph-name="uni20A6" unicode="&#x20a6;" horiz-adv-x="1470" 
d="M41 913h133v521h174l352 -521h424v521h172v-521h134v-118h-134v-156h134v-119h-134v-520h-174l-352 520h-424v-520h-172v520h-133v119h133v156h-133v118zM780 795l105 -156h239v156h-344zM346 795v-156h344l-106 156h-238zM346 1149v-236h158zM965 520l159 -235v235h-159
z" />
    <glyph glyph-name="peseta" unicode="&#x20a7;" horiz-adv-x="1214" 
d="M41 1044h123v390h444q234 0 373.5 -99.5t159.5 -290.5h73v-118h-75q-20 -189 -159 -287t-372 -98h-264v-541h-180v926h-123v118zM344 1274v-230h610q-34 230 -360 230h-250zM594 700q163 0 252 55.5t108 170.5h-610v-226h250z" />
    <glyph glyph-name="uni20A8" unicode="&#x20a8;" horiz-adv-x="2101" 
d="M1098 1016q0 -151 -86.5 -251t-233.5 -142l367 -623h-207l-348 598h-246v-598h-180v1434h416q148 0 263.5 -46.5t185 -142.5t69.5 -229zM913 1016q0 258 -346 258h-223v-516h223q346 0 346 258zM1157 227l80 82q95 -99 183.5 -140.5t183.5 -41.5q122 0 180.5 42t58.5 103
q0 73 -58.5 111t-215.5 82q-200 57 -284.5 138t-84.5 200q0 124 96 203t273 79q166 0 276.5 -78.5t145.5 -228.5h-181q-42 156 -235 156q-89 0 -144 -33.5t-55 -89.5q0 -63 57.5 -110.5t211.5 -90.5q195 -55 284.5 -128.5t89.5 -198.5q0 -139 -101.5 -223.5t-303.5 -84.5
q-130 0 -246.5 63t-210.5 189z" />
    <glyph glyph-name="uni20A9" unicode="&#x20a9;" horiz-adv-x="2039" 
d="M41 885h168l-168 549h195l165 -549h373l137 549h217l138 -549h370l168 549h195l-168 -549h168v-119h-205l-49 -156h254v-118h-291l-149 -492h-242l-121 492h-352l-121 -492h-242l-151 492h-289v118h254l-49 156h-205v119zM438 766l47 -156h220l38 156h-305zM1294 766
l39 -156h221l48 156h-308zM911 766l-37 -156h291l-37 156h-217zM1020 1202l-78 -317h156zM1364 492l70 -281l84 281h-154zM520 492l86 -281l70 281h-156z" />
    <glyph glyph-name="afii57636" unicode="&#x20aa;" horiz-adv-x="1761" 
d="M164 0v1434h518q243 0 379.5 -149.5t136.5 -438.5v-309h-180v284q0 107 -15.5 186t-43.5 130t-71 82t-92 43t-114 12h-338v-1274h-180zM1597 1434v-1434h-518q-243 0 -379.5 149.5t-136.5 438.5v309h180v-285q0 -133 23 -223t69 -139.5t104.5 -69.5t139.5 -20h338v1274
h180z" />
    <glyph glyph-name="dong" unicode="&#x20ab;" horiz-adv-x="1200" 
d="M926 0l-31 113q-63 -65 -153 -101.5t-185 -36.5q-226 0 -345.5 137.5t-119.5 387.5t119 387t346 137q93 0 178 -34.5t150 -94.5v258h-426v139h426v142h172v-142h131v-139h-131v-1153h-131zM268 500q0 -187 76.5 -280t239.5 -93q80 0 162.5 35.5t138.5 95.5v481
q-56 62 -138.5 97.5t-162.5 35.5q-164 0 -240 -92.5t-76 -279.5zM1014 -172v-139h-740v139h740z" />
    <glyph glyph-name="Euro" unicode="&#x20ac;" horiz-adv-x="1462" 
d="M340 649h539l-37 -119h-486q43 -188 169 -289.5t302 -101.5q278 0 433 264l116 -71q-96 -179 -230.5 -268t-324.5 -89q-256 0 -428.5 150.5t-222.5 404.5h-129v119h115q-2 23 -2 68q0 44 2 67h-115v119h129q50 254 222.5 404.5t428.5 150.5q130 0 237 -41.5t177.5 -112.5
t112.5 -160.5t53 -191.5h-189q-21 149 -124.5 245.5t-260.5 96.5q-175 0 -301.5 -102t-169.5 -289h596l-34 -119h-578q-2 -23 -2 -67q0 -48 2 -68z" />
    <glyph glyph-name="Ruble" unicode="&#x20bd;" horiz-adv-x="1214" 
d="M41 700h123v734h444q252 0 393.5 -114t141.5 -333t-141.5 -332.5t-393.5 -113.5h-264v-123h379v-160h-379v-258h-180v258h-123v160h123v123h-123v159zM958 987q0 147 -89.5 217t-274.5 70h-250v-574h250q185 0 274.5 70t89.5 217z" />
    <glyph glyph-name="afii61248" unicode="&#x2105;" horiz-adv-x="2117" 
d="M1212 440q0 200 116.5 330.5t305.5 130.5t305.5 -130.5t116.5 -330.5t-116.5 -330t-305.5 -130t-305.5 130t-116.5 330zM1382 440q0 -142 69.5 -229.5t182.5 -87.5t182.5 87.5t69.5 229.5t-69.5 230t-182.5 88t-182.5 -88t-69.5 -230zM1370 1464l123 -67l-766 -1428
l-123 68zM61 987q0 202 115.5 333.5t294.5 131.5q153 0 260.5 -84t136.5 -231h-163q-20 82 -80 127t-144 45q-119 0 -184.5 -83.5t-65.5 -238.5q0 -317 275 -317q151 0 244 151l108 -51q-61 -122 -147.5 -184t-214.5 -62q-196 0 -315.5 130.5t-119.5 332.5z" />
    <glyph glyph-name="uni2109" unicode="&#x2109;" horiz-adv-x="1642" 
d="M20 1182q0 115 80.5 195.5t196.5 80.5q115 0 195.5 -80t80.5 -196t-80.5 -196.5t-195.5 -80.5t-196 80.5t-81 196.5zM156 1182q0 -63 40 -105.5t101 -42.5t101 42.5t40 105.5t-40 105t-101 42t-101 -42t-40 -105zM709 0v1434h893v-160h-713v-496h641v-160h-641v-618h-180
z" />
    <glyph glyph-name="afii61289" unicode="&#x2113;" horiz-adv-x="993" 
d="M799 197l86 -134q-88 -88 -238 -88q-187 0 -309 158q-93 -43 -195 -63l-61 159q87 17 172 54q-88 213 -88 522t112 481t295 172q144 0 220.5 -123.5t76.5 -337.5q0 -237 -94.5 -445t-288.5 -339q68 -78 156 -78q94 0 156 62zM350 819q0 -261 60 -450q276 205 276 630
q0 89 -9 149.5t-27 92t-40 44.5t-53 13q-89 0 -148 -131.5t-59 -347.5z" />
    <glyph glyph-name="afii61352" unicode="&#x2116;" horiz-adv-x="1937" 
d="M164 0v1434h180l442 -1057v1057h172v-1434h-180l-442 1057v-1057h-172zM1085 662q0 187 99.5 302t267.5 115q177 0 278 -114.5t101 -302.5t-101 -303t-278 -115q-168 0 -267.5 115.5t-99.5 302.5zM1264 662q0 -129 51.5 -198t142.5 -69t143 69t52 198q0 128 -52 197
t-143 69t-142.5 -68.5t-51.5 -197.5zM1855 143v-143h-796v143h796z" />
    <glyph glyph-name="uni2117" unicode="&#x2117;" horiz-adv-x="1699" 
d="M109 717q0 151 58.5 288.5t157.5 236.5t236.5 157.5t288.5 58.5t288.5 -58.5t236.5 -157.5t157.5 -236.5t58.5 -288.5q0 -202 -99 -372.5t-269.5 -270t-372.5 -99.5t-372.5 99.5t-269.5 270t-99 372.5zM223 717q0 -130 49.5 -247.5t133.5 -202.5t200 -135t244 -50t244 50
t200 135t133.5 202.5t49.5 247.5t-49.5 247.5t-133.5 202.5t-200 135t-244 50t-244 -50t-200 -135t-133.5 -202.5t-49.5 -247.5zM1069 854q0 174 -188 174h-150v-348h150q188 0 188 174zM1208 854q0 -137 -83 -214t-236 -77h-158v-295h-139v875h297q153 0 236 -76t83 -213z
" />
    <glyph glyph-name="uni2120" unicode="&#x2120;" horiz-adv-x="1382" 
d="M309 868q46 0 74.5 21.5t28.5 60.5q0 41 -26 60.5t-112 46.5q-108 34 -153 84t-45 127q0 76 61.5 125t165.5 49q96 0 159 -50t83 -141h-129q-11 41 -40.5 64.5t-74.5 23.5q-41 0 -68.5 -19t-27.5 -52q0 -35 29 -60.5t98 -48.5q116 -39 162.5 -81t46.5 -124
q0 -86 -65 -137t-173 -51q-143 0 -237 135l51 55q88 -88 192 -88zM999 883h-98l-158 301v-410h-122v660h112l217 -416l217 416h113v-660h-123v410z" />
    <glyph glyph-name="uni2121" unicode="&#x2121;" horiz-adv-x="1918" 
d="M369 0v1286h-328v148h827v-148h-327v-1286h-172zM1284 608h-420q1 147 60 236.5t149 89.5q92 0 151 -89t60 -237zM1593 0v1495h172v-1495h-172zM1423 197l-94 75q-54 -72 -109 -108.5t-122 -36.5q-103 0 -167 97t-67 237h596q2 20 2 63q0 252 -104 406.5t-285 154.5
q-172 0 -279.5 -152.5t-107.5 -400.5q0 -84 15 -163t47.5 -151t80 -126t117 -85.5t152.5 -31.5q104 0 188.5 56.5t136.5 165.5z" />
    <glyph glyph-name="trademark" unicode="&#x2122;" horiz-adv-x="1347" 
d="M217 776v557h-197v101h517v-101h-195v-557h-125zM965 883h-99l-157 301v-410h-123v660h112l217 -416l218 416h112v-660h-123v410z" />
    <glyph glyph-name="Omega" unicode="&#x2126;" horiz-adv-x="1466" 
d="M733 1458q150 0 272.5 -54.5t202.5 -149t123 -222t43 -274.5q0 -376 -280 -598h262v-160h-496v160q330 228 330 598q0 145 -53 266t-158.5 195.5t-245.5 74.5t-245.5 -74.5t-158.5 -195.5t-53 -266q0 -370 330 -598v-160h-495v160h262q-281 222 -281 598q0 147 43 274.5
t123 222t202.5 149t272.5 54.5z" />
    <glyph glyph-name="estimated" unicode="&#x212e;" horiz-adv-x="1511" 
d="M827 74q105 0 206 38t177 107l82 -78q-208 -166 -469 -166q-158 0 -283.5 38.5t-208 105.5t-137.5 162t-78.5 202.5t-23.5 233.5q0 121 28.5 231.5t85.5 203.5t137 161t189 106.5t236 38.5q152 0 276.5 -59t205.5 -161.5t125 -239t44 -293.5v-43h-1022v-455
q152 -133 430 -133zM762 1358q-221 0 -365 -141v-455h727v461q-138 135 -362 135z" />
    <glyph glyph-name="onethird" unicode="&#x2153;" horiz-adv-x="2007" 
d="M387 1241l-141 -104l-99 110l259 189h133v-951h-152v756zM1325 1464l123 -67l-766 -1428l-123 68zM1548 825q72 0 112 -34.5t40 -92.5q0 -64 -51.5 -101.5t-139.5 -37.5h-96v-135h96q101 0 160.5 -38.5t59.5 -119.5q0 -60 -47.5 -101.5t-125.5 -41.5q-71 0 -126.5 26
t-112.5 89l-80 -70q128 -184 319 -184q152 0 240 80t88 202q0 82 -49.5 140.5t-124.5 87.5q62 28 103.5 85.5t41.5 129.5q0 118 -86 187t-223 69q-122 0 -208 -75t-103 -208h154q7 67 49 105t110 38z" />
    <glyph glyph-name="twothirds" unicode="&#x2154;" horiz-adv-x="2007" 
d="M1548 825q72 0 112 -34.5t40 -92.5q0 -64 -51.5 -101.5t-139.5 -37.5h-96v-135h96q101 0 160.5 -38.5t59.5 -119.5q0 -60 -47.5 -101.5t-125.5 -41.5q-71 0 -126.5 26t-112.5 89l-80 -70q128 -184 319 -184q152 0 240 80t88 202q0 82 -49.5 140.5t-124.5 87.5
q62 28 103.5 85.5t41.5 129.5q0 118 -86 187t-223 69q-122 0 -208 -75t-103 -208h154q7 67 49 105t110 38zM387 1313q-66 0 -105.5 -43.5t-52.5 -136.5h-139q13 152 96 234.5t215 82.5q135 0 213 -72t78 -200q0 -87 -38 -166t-122 -172q-119 -130 -217 -219h385v-136h-602
v127q149 128 305 297q72 80 103 141t31 124q0 67 -38 103t-112 36zM1325 1464l123 -67l-766 -1428l-123 68z" />
    <glyph glyph-name="onefifth" unicode="&#x2155;" horiz-adv-x="2007" 
d="M387 1241l-141 -104l-99 110l259 189h133v-951h-152v756zM1325 1464l123 -67l-766 -1428l-123 68zM1294 451l29 -19q95 33 215 33q83 0 133.5 -46.5t50.5 -127.5q0 -68 -44.5 -117t-114.5 -49q-80 0 -132.5 19.5t-109.5 70.5l-70 -74q128 -157 308 -157q141 0 230 86
t89 211q0 146 -90.5 233.5t-233.5 87.5q-67 0 -116 -10v221h393v135h-537v-497z" />
    <glyph glyph-name="twofifths" unicode="&#x2156;" horiz-adv-x="2007" 
d="M387 1313q-66 0 -105.5 -43.5t-52.5 -136.5h-139q13 152 96 234.5t215 82.5q135 0 213 -72t78 -200q0 -87 -38 -166t-122 -172q-119 -130 -217 -219h385v-136h-602v127q149 128 305 297q72 80 103 141t31 124q0 67 -38 103t-112 36zM1325 1464l123 -67l-766 -1428
l-123 68zM1294 451l29 -19q95 33 215 33q83 0 133.5 -46.5t50.5 -127.5q0 -68 -44.5 -117t-114.5 -49q-80 0 -132.5 19.5t-109.5 70.5l-70 -74q128 -157 308 -157q141 0 230 86t89 211q0 146 -90.5 233.5t-233.5 87.5q-67 0 -116 -10v221h393v135h-537v-497z" />
    <glyph glyph-name="threefifths" unicode="&#x2157;" horiz-adv-x="2007" 
d="M391 1311q72 0 112 -34.5t40 -92.5q0 -64 -51.5 -102t-139.5 -38h-96v-135h96q101 0 160 -38t59 -119q0 -60 -47.5 -102t-124.5 -42q-71 0 -126.5 26t-112.5 89l-80 -70q128 -184 319 -184q152 0 240 80t88 203q0 82 -49.5 140t-124.5 87q62 28 103.5 85.5t41.5 129.5
q0 118 -86 187t-223 69q-122 0 -208 -75t-103 -208h153q7 67 49.5 105.5t110.5 38.5zM1325 1464l123 -67l-766 -1428l-123 68zM1294 451l29 -19q95 33 215 33q83 0 133.5 -46.5t50.5 -127.5q0 -68 -44.5 -117t-114.5 -49q-80 0 -132.5 19.5t-109.5 70.5l-70 -74
q128 -157 308 -157q141 0 230 86t89 211q0 146 -90.5 233.5t-233.5 87.5q-67 0 -116 -10v221h393v135h-537v-497z" />
    <glyph glyph-name="fourfifths" unicode="&#x2158;" horiz-adv-x="2007" 
d="M1294 451l29 -19q95 33 215 33q83 0 133.5 -46.5t50.5 -127.5q0 -68 -44.5 -117t-114.5 -49q-80 0 -132.5 19.5t-109.5 70.5l-70 -74q128 -157 308 -157q141 0 230 86t89 211q0 146 -90.5 233.5t-233.5 87.5q-67 0 -116 -10v221h393v135h-537v-497zM498 688h-443v123
l455 623h139v-611h115v-135h-115v-203h-151v203zM498 1186l-260 -363h260v363zM1325 1464l123 -67l-766 -1428l-123 68z" />
    <glyph glyph-name="onesixth" unicode="&#x2159;" horiz-adv-x="2007" 
d="M387 1241l-141 -104l-99 110l259 189h133v-951h-152v756zM1325 1464l123 -67l-766 -1428l-123 68zM1552 825q-71 0 -118 -67.5t-56 -200.5q92 72 193 72q139 0 224 -92.5t85 -233.5t-88 -230t-233 -89q-158 0 -252.5 115.5t-94.5 349.5q0 253 94 384.5t250 131.5
q130 0 215 -78.5t101 -196.5h-156q-28 135 -164 135zM1554 489q-103 0 -180 -77q6 -148 55 -218.5t125 -70.5q82 0 126 49t44 135q0 84 -45.5 133t-124.5 49z" />
    <glyph glyph-name="fivesixths" unicode="&#x215a;" horiz-adv-x="2007" 
d="M160 936l28 -18q92 32 215 32q83 0 134 -46.5t51 -127.5q0 -68 -45 -117t-115 -49q-80 0 -132.5 19.5t-109.5 70.5l-69 -73q128 -158 307 -158q141 0 230 86t89 211q0 146 -90 233.5t-233 87.5q-68 0 -117 -10v221h393v136h-536v-498zM1552 825q-71 0 -118 -67.5
t-56 -200.5q92 72 193 72q139 0 224 -92.5t85 -233.5t-88 -230t-233 -89q-158 0 -252.5 115.5t-94.5 349.5q0 253 94 384.5t250 131.5q130 0 215 -78.5t101 -196.5h-156q-28 135 -164 135zM1554 489q-103 0 -180 -77q6 -148 55 -218.5t125 -70.5q82 0 126 49t44 135
q0 84 -45.5 133t-124.5 49zM1325 1464l123 -67l-766 -1428l-123 68z" />
    <glyph glyph-name="oneeighth" unicode="&#x215b;" horiz-adv-x="2007" 
d="M387 1241l-141 -104l-99 110l259 189h133v-951h-152v756zM1325 1464l123 -67l-766 -1428l-123 68zM1210 279q0 72 36.5 132.5t101.5 102.5q-115 80 -115 201q0 116 80.5 183t216.5 67q133 0 217 -72t84 -197q0 -66 -31.5 -121.5t-87.5 -89.5q81 -47 118.5 -101.5
t37.5 -125.5q0 -122 -92 -198t-236 -76q-147 0 -238.5 79.5t-91.5 215.5zM1489 438l-29 13q-94 -72 -94 -177q0 -69 50 -109t126 -40q75 0 122.5 35.5t47.5 91.5q0 55 -41.5 90t-181.5 96zM1389 715q0 -52 38.5 -87t165.5 -87q82 64 82 159q0 60 -41 93.5t-112 33.5
q-61 0 -97 -33t-36 -79z" />
    <glyph glyph-name="threeeighths" unicode="&#x215c;" horiz-adv-x="2007" 
d="M1325 1464l123 -67l-766 -1428l-123 68zM391 1311q72 0 112 -34.5t40 -92.5q0 -64 -51.5 -102t-139.5 -38h-96v-135h96q101 0 160 -38t59 -119q0 -60 -47.5 -102t-124.5 -42q-71 0 -126.5 26t-112.5 89l-80 -70q128 -184 319 -184q152 0 240 80t88 203q0 82 -49.5 140
t-124.5 87q62 28 103.5 85.5t41.5 129.5q0 118 -86 187t-223 69q-122 0 -208 -75t-103 -208h153q7 67 49.5 105.5t110.5 38.5zM1210 279q0 72 36.5 132.5t101.5 102.5q-115 80 -115 201q0 116 80.5 183t216.5 67q133 0 217 -72t84 -197q0 -66 -31.5 -121.5t-87.5 -89.5
q81 -47 118.5 -101.5t37.5 -125.5q0 -122 -92 -198t-236 -76q-147 0 -238.5 79.5t-91.5 215.5zM1489 438l-29 13q-94 -72 -94 -177q0 -69 50 -109t126 -40q75 0 122.5 35.5t47.5 91.5q0 55 -41.5 90t-181.5 96zM1389 715q0 -52 38.5 -87t165.5 -87q82 64 82 159
q0 60 -41 93.5t-112 33.5q-61 0 -97 -33t-36 -79z" />
    <glyph glyph-name="fiveeighths" unicode="&#x215d;" horiz-adv-x="2007" 
d="M160 936l28 -18q92 32 215 32q83 0 134 -46.5t51 -127.5q0 -68 -45 -117t-115 -49q-80 0 -132.5 19.5t-109.5 70.5l-69 -73q128 -158 307 -158q141 0 230 86t89 211q0 146 -90 233.5t-233 87.5q-68 0 -117 -10v221h393v136h-536v-498zM1325 1464l123 -67l-766 -1428
l-123 68zM1210 279q0 72 36.5 132.5t101.5 102.5q-115 80 -115 201q0 116 80.5 183t216.5 67q133 0 217 -72t84 -197q0 -66 -31.5 -121.5t-87.5 -89.5q81 -47 118.5 -101.5t37.5 -125.5q0 -122 -92 -198t-236 -76q-147 0 -238.5 79.5t-91.5 215.5zM1489 438l-29 13
q-94 -72 -94 -177q0 -69 50 -109t126 -40q75 0 122.5 35.5t47.5 91.5q0 55 -41.5 90t-181.5 96zM1389 715q0 -52 38.5 -87t165.5 -87q82 64 82 159q0 60 -41 93.5t-112 33.5q-61 0 -97 -33t-36 -79z" />
    <glyph glyph-name="seveneighths" unicode="&#x215e;" horiz-adv-x="2007" 
d="M1210 279q0 72 36.5 132.5t101.5 102.5q-115 80 -115 201q0 116 80.5 183t216.5 67q133 0 217 -72t84 -197q0 -66 -31.5 -121.5t-87.5 -89.5q81 -47 118.5 -101.5t37.5 -125.5q0 -122 -92 -198t-236 -76q-147 0 -238.5 79.5t-91.5 215.5zM1489 438l-29 13
q-94 -72 -94 -177q0 -69 50 -109t126 -40q75 0 122.5 35.5t47.5 91.5q0 55 -41.5 90t-181.5 96zM1389 715q0 -52 38.5 -87t165.5 -87q82 64 82 159q0 60 -41 93.5t-112 33.5q-61 0 -97 -33t-36 -79zM731 1434v-136q-242 -392 -317 -813h-170q88 428 321 813h-436v136h602z
M1325 1464l123 -67l-766 -1428l-123 68z" />
    <glyph glyph-name="uni215F" unicode="&#x215f;" horiz-adv-x="2007" 
d="M1325 1464l123 -67l-766 -1428l-123 68zM387 1241l-141 -104l-99 110l259 189h133v-951h-152v756z" />
    <glyph glyph-name="arrowleft" unicode="&#x2190;" horiz-adv-x="1761" 
d="M1688 748v-136h-1258l100 -327l-456 395l456 395l-100 -327h1258z" />
    <glyph glyph-name="arrowup" unicode="&#x2191;" horiz-adv-x="1761" 
d="M948 -78h-135v1258l-328 -101l396 457l395 -457l-328 101v-1258z" />
    <glyph glyph-name="arrowright" unicode="&#x2192;" horiz-adv-x="1761" 
d="M74 612v136h1257l-100 327l457 -395l-457 -395l100 327h-1257z" />
    <glyph glyph-name="arrowdown" unicode="&#x2193;" horiz-adv-x="1761" 
d="M813 1536h135v-1257l328 100l-395 -457l-396 457l328 -100v1257z" />
    <glyph glyph-name="arrowboth" unicode="&#x2194;" horiz-adv-x="1761" 
d="M430 612l100 -327l-456 395l456 395l-100 -327h901l-100 327l457 -395l-457 -395l100 327h-901z" />
    <glyph glyph-name="arrowupdn" unicode="&#x2195;" horiz-adv-x="1761" 
d="M948 279l328 100l-395 -457l-396 457l328 -100v901l-328 -101l396 457l395 -457l-328 101v-901z" />
    <glyph glyph-name="arrowupdnbse" unicode="&#x21a8;" horiz-adv-x="1761" 
d="M905 -49h371v-131h-791v131h371l-371 428l328 -100v901l-328 -101l396 457l395 -457l-328 101v-901l328 100z" />
    <glyph glyph-name="partialdiff" unicode="&#x2202;" horiz-adv-x="1187" 
d="M565 1294q-129 0 -201.5 -59.5t-84.5 -173.5h-179q19 185 140.5 291t320.5 106q119 0 213 -43t164.5 -133t108.5 -239.5t38 -352.5q0 -152 -24.5 -272t-69.5 -202.5t-110 -137t-143 -79t-173 -24.5q-218 0 -350.5 130t-132.5 341t127 347.5t336 136.5q96 0 185 -37.5
t157 -99.5q-26 501 -322 501zM569 766q-141 0 -222 -83t-81 -230q0 -149 77.5 -231.5t225.5 -82.5q307 0 320 484q-140 143 -320 143z" />
    <glyph glyph-name="Delta" unicode="&#x2206;" horiz-adv-x="1355" 
d="M657 1458h41l617 -1423l-23 -35h-1229l-22 35zM297 168h762l-381 924z" />
    <glyph glyph-name="product" unicode="&#x220f;" horiz-adv-x="1409" 
d="M1245 1516v-1743h-180v1583h-721v-1583h-180v1743h1081z" />
    <glyph glyph-name="summation" unicode="&#x2211;" horiz-adv-x="1241" 
d="M82 -76l471 754l-471 678v160h1098v-160h-887l436 -641v-78l-436 -705h887v-159h-1098v151z" />
    <glyph glyph-name="minus" unicode="&#x2212;" horiz-adv-x="1265" 
d="M1143 600h-1020v160h1020v-160z" />
    <glyph glyph-name="uni2215" unicode="&#x2215;" horiz-adv-x="397" 
d="M520 1464l123 -67l-766 -1428l-123 68z" />
    <glyph glyph-name="uni2219" unicode="&#x2219;" horiz-adv-x="593" 
d="M205 584v213h184v-213h-184z" />
    <glyph glyph-name="radical" unicode="&#x221a;" horiz-adv-x="1234" 
d="M770 0h-82l-336 641h-147v125h225l268 -506l314 1317h141z" />
    <glyph glyph-name="infinity" unicode="&#x221e;" horiz-adv-x="1581" 
d="M1151 967q138 0 222.5 -78.5t84.5 -208.5t-84.5 -208.5t-222.5 -78.5q-190 0 -360 180q-170 -180 -361 -180q-138 0 -222.5 78.5t-84.5 208.5t84.5 208.5t222.5 78.5q189 0 361 -183q172 183 360 183zM432 834q-74 0 -111.5 -42.5t-37.5 -111.5t37.5 -111.5t111.5 -42.5
q66 0 125.5 31.5t140.5 122.5q-81 91 -140.5 122.5t-125.5 31.5zM1149 526q74 0 111.5 42.5t37.5 111.5t-37.5 111.5t-111.5 42.5q-67 0 -126 -31.5t-142 -122.5q83 -91 142 -122.5t126 -31.5z" />
    <glyph glyph-name="orthogonal" unicode="&#x221f;" horiz-adv-x="1310" 
d="M1270 147v-147h-1065v1178h172v-1031h893z" />
    <glyph glyph-name="intersection" unicode="&#x2229;" horiz-adv-x="1585" 
d="M793 1264q150 0 263.5 -53t183.5 -149.5t105 -226.5t35 -290v-545h-172v545q0 286 -112 430.5t-303 144.5t-303.5 -144.5t-112.5 -430.5v-545h-172v545q0 160 35 290t105.5 226.5t184 149.5t263.5 53z" />
    <glyph glyph-name="integral" unicode="&#x222b;" horiz-adv-x="794" 
d="M311 -115v1327q0 168 81.5 246t262.5 78q65 0 109 -6v-152q-50 6 -105 6q-99 0 -137.5 -44.5t-38.5 -139.5v-1327q0 -168 -81.5 -246t-262.5 -78q-57 0 -108 7v151q49 -6 104 -6q99 0 137.5 44.5t38.5 139.5z" />
    <glyph glyph-name="approxequal" unicode="&#x2248;" horiz-adv-x="1265" 
d="M672 940q62 -44 104 -63t94 -19q107 0 152 152l149 -25q-21 -123 -101.5 -205t-192.5 -82q-135 0 -283 111q-62 44 -104 63t-95 19q-106 0 -151 -152l-150 25q21 122 102 204.5t193 82.5q132 0 283 -111zM672 553q62 -44 104 -63t94 -19q107 0 152 152l149 -25
q-21 -123 -101.5 -205t-192.5 -82q-135 0 -283 111q-62 44 -104 63t-95 19q-106 0 -151 -152l-150 25q21 122 102 204.5t193 82.5q132 0 283 -111z" />
    <glyph glyph-name="notequal" unicode="&#x2260;" horiz-adv-x="1265" 
d="M1143 362h-615l-206 -337l-117 71l162 266h-244v160h342l192 316h-534v159h633l188 308l117 -72l-146 -236h228v-159h-324l-194 -316h518v-160z" />
    <glyph glyph-name="equivalence" unicode="&#x2261;" horiz-adv-x="1265" 
d="M1143 961h-1020v159h1020v-159zM1143 240h-1020v159h1020v-159zM1143 600h-1020v160h1020v-160z" />
    <glyph glyph-name="lessequal" unicode="&#x2264;" horiz-adv-x="1265" 
d="M123 715v102l164 78q501 239 803 348l53 -125l-758 -352l758 -352l-53 -125q-302 109 -803 348zM1143 0h-1020v160h1020v-160z" />
    <glyph glyph-name="greaterequal" unicode="&#x2265;" horiz-adv-x="1265" 
d="M1143 817v-102l-164 -78q-501 -239 -803 -348l-53 125l758 352l-758 352l53 125q302 -109 803 -348zM1143 0h-1020v160h1020v-160z" />
    <glyph glyph-name="house" unicode="&#x2302;" horiz-adv-x="1458" 
d="M377 143h704v467l-352 396l-352 -396v-467zM1253 0h-1048v672l524 590l524 -590v-672z" />
    <glyph glyph-name="revlogicalnot" unicode="&#x2310;" horiz-adv-x="1265" 
d="M1153 909v-159h-836v-416h-184v575h1020z" />
    <glyph glyph-name="uni2318" unicode="&#x2318;" horiz-adv-x="1878" 
d="M1071 532v259h-264v-259h264zM543 926h100v104q0 78 -33.5 122t-101.5 44q-61 0 -98 -37.5t-37 -97.5q0 -135 170 -135zM643 397h-100q-170 0 -170 -135q0 -60 37 -97.5t98 -37.5q68 0 101.5 44t33.5 122v104zM1071 926v108q0 137 79.5 219t221.5 82q138 0 219.5 -77
t81.5 -197q0 -135 -89 -202.5t-234 -67.5h-115v-259h115q145 0 234 -67.5t89 -202.5q0 -120 -81.5 -197t-219.5 -77q-142 0 -221.5 82t-79.5 219v108h-264v-108q0 -137 -79.5 -219t-221.5 -82q-138 0 -219.5 77t-81.5 197q0 135 89 202.5t234 67.5h115v259h-115
q-145 0 -234 67.5t-89 202.5q0 120 81.5 197t219.5 77q142 0 221.5 -82t79.5 -219v-108h264zM1235 926h100q170 0 170 135q0 60 -37 97.5t-98 37.5q-68 0 -101.5 -44t-33.5 -122v-104zM1335 397h-100v-104q0 -78 33.5 -122t101.5 -44q61 0 98 37.5t37 97.5q0 135 -170 135z
" />
    <glyph glyph-name="lozenge" unicode="&#x25ca;" horiz-adv-x="1163" 
d="M1081 618l-499 -940l-500 940l500 941zM276 618l306 -583l305 583l-305 584z" />
    <glyph glyph-name="H18533" unicode="&#x25cf;" horiz-adv-x="2048" 
d="M332 668q0 187 93 346.5t252.5 252.5t346.5 93t346.5 -93t252.5 -252.5t93 -346.5t-93 -347t-252.5 -253t-346.5 -93t-346.5 93t-252.5 253t-93 347z" />
    <glyph glyph-name="fi" horiz-adv-x="1159" 
d="M565 1495q65 0 109 -6v-152q-50 6 -105 6q-99 0 -137.5 -44.5t-38.5 -139.5v-98h613v-1061h-172v913h-441v-913h-172v913h-190v148h190v110q0 168 81.5 246t262.5 78zM834 1296v181h172v-181h-172z" />
    <glyph glyph-name="fl" horiz-adv-x="1130" 
d="M565 1495q102 0 240 -29v29h172v-1495h-172v1321q-126 22 -236 22q-99 0 -137.5 -44.5t-38.5 -139.5v-98h260v-148h-260v-913h-172v913h-190v148h190v110q0 168 81.5 246t262.5 78z" />
    <glyph glyph-name="commaaccent" horiz-adv-x="819" 
d="M272 -494l119 408l154 -53l-35 -90q-79 -203 -143 -297z" />
    <glyph glyph-name="zero.tnum" horiz-adv-x="1241" 
d="M102 717q0 159 32 292.5t94.5 234.5t163 157.5t229.5 56.5q104 0 189.5 -37t146 -103.5t102 -159.5t61 -203.5t19.5 -237.5t-19.5 -238t-61 -204t-102 -159.5t-146 -103.5t-189.5 -37q-129 0 -229.5 56.5t-163 158t-94.5 235t-32 292.5zM291 717q0 -274 83.5 -426
t246.5 -152t246 152t83 426t-83 425.5t-246 151.5t-246.5 -151.5t-83.5 -425.5z" />
    <glyph glyph-name="one.tnum" horiz-adv-x="819" 
d="M393 1217l-262 -187l-111 123l394 281h159v-1434h-180v1217z" />
    <glyph glyph-name="two.tnum" horiz-adv-x="1093" 
d="M518 1458q204 0 327.5 -108.5t123.5 -302.5q0 -235 -258 -523q-164 -185 -369 -364h649v-160h-915v141q220 193 459 451q125 134 185 245t60 218q0 108 -70.5 173.5t-197.5 65.5q-122 0 -191 -81.5t-81 -235.5h-181q18 230 132.5 355.5t326.5 125.5z" />
    <glyph glyph-name="three.tnum" horiz-adv-x="1155" 
d="M545 1294q-120 0 -194 -65.5t-87 -186.5h-184q26 203 150.5 309.5t318.5 106.5t315 -96.5t121 -267.5q0 -128 -75.5 -221t-182.5 -123q145 -39 225 -131.5t80 -231.5q0 -185 -129.5 -298.5t-357.5 -113.5q-149 0 -270.5 69.5t-208.5 197.5l96 80q159 -187 375 -187
q140 0 223.5 68.5t83.5 185.5q0 72 -29.5 127.5t-81.5 88t-117.5 49t-142.5 16.5h-127v159h127q143 0 233.5 66.5t90.5 181.5q0 101 -67.5 159t-184.5 58z" />
    <glyph glyph-name="four.tnum" horiz-adv-x="1146" 
d="M745 317h-694v150l707 967h168v-957h190v-160h-190v-317h-181v317zM745 1128l-479 -651h479v651z" />
    <glyph glyph-name="five.tnum" horiz-adv-x="1157" 
d="M203 674l-21 12v748h799v-160h-619v-416q86 29 211 29q216 0 349 -130t133 -349q0 -185 -129 -309t-342 -124q-129 0 -244.5 56t-230.5 188l96 96q92 -98 180 -139t197 -41q126 0 207 84t81 203q0 142 -90.5 221.5t-236.5 79.5q-189 0 -340 -49z" />
    <glyph glyph-name="six.tnum" horiz-adv-x="1177" 
d="M1073 1085h-184q-21 97 -93 153t-184 56q-297 0 -323 -501q68 62 158 99.5t186 37.5q209 0 336 -136.5t127 -347.5t-133 -341t-351 -130q-510 0 -510 715q0 201 36 350t103.5 239.5t158.5 134.5t206 44q183 0 308.5 -97.5t158.5 -275.5zM608 766q-181 0 -321 -143
q10 -256 96 -370t225 -114q148 0 225.5 82.5t77.5 231.5q0 147 -81 230t-222 83z" />
    <glyph glyph-name="seven.tnum" horiz-adv-x="1103" 
d="M1022 1434v-160q-189 -335 -312.5 -642t-183.5 -632h-200q73 339 196.5 649t304.5 625h-745v160h940z" />
    <glyph glyph-name="eight.tnum" horiz-adv-x="1228" 
d="M162 1081q0 164 119.5 270.5t332.5 106.5q207 0 330 -109t123 -272q0 -104 -53 -191.5t-150 -146.5q139 -72 200.5 -161t61.5 -207q0 -178 -143 -287t-369 -109q-232 0 -372 112.5t-140 309.5q0 248 240 385q-180 113 -180 299zM291 391q0 -118 89 -185t234 -67
t234.5 60.5t89.5 165.5q0 73 -37.5 125t-126.5 100t-260 110l-18 7q-97 -54 -151 -137t-54 -179zM879 1065q0 103 -72 166t-193 63t-192.5 -59.5t-71.5 -153.5q0 -79 78.5 -140.5t280.5 -135.5q78 48 124 117.5t46 142.5z" />
    <glyph glyph-name="nine.tnum" horiz-adv-x="1177" 
d="M539 139q51 0 95.5 14t88 49.5t76.5 91t56.5 143.5t31.5 202q-69 -61 -158.5 -98t-183.5 -37q-209 0 -336 136.5t-127 346.5q0 212 133.5 341.5t353.5 129.5q236 0 371 -170t135 -524q0 -208 -41 -362.5t-115.5 -246.5t-171 -136t-215.5 -44q-104 0 -201.5 49.5
t-178.5 137.5l77 94q139 -117 310 -117zM569 668q180 0 320 143q-13 483 -320 483q-148 0 -225.5 -82t-77.5 -231q0 -147 81 -230t222 -83z" />
    <glyph glyph-name="parenleft.case" horiz-adv-x="735" 
d="M205 717q0 505 315 901l121 -59q-262 -390 -262 -842t262 -842l-121 -59q-315 396 -315 901z" />
    <glyph glyph-name="parenright.case" horiz-adv-x="735" 
d="M530 717q0 -505 -315 -901l-121 59q262 390 262 842t-262 842l121 59q315 -396 315 -901z" />
    <glyph glyph-name="hyphen.case" horiz-adv-x="831" 
d="M709 629h-586v176h586v-176z" />
    <glyph glyph-name="at.case" horiz-adv-x="1957" 
d="M1444 104l65 -112q-102 -81 -242.5 -126.5t-287.5 -45.5q-189 0 -347 70t-263.5 191t-163.5 285t-58 351t58 351t163.5 285t263.5 191t347 70q183 0 339.5 -67t263.5 -181.5t167.5 -271t60.5 -332.5q0 -99 -17.5 -183.5t-54.5 -155t-102.5 -111t-154.5 -40.5
q-81 0 -145 31t-95 92q-63 -66 -143.5 -103.5t-163.5 -37.5q-100 0 -177 35.5t-124.5 98.5t-71.5 145t-24 178q0 129 49 237.5t150.5 178t238.5 69.5q201 0 303 -120.5t102 -342.5v-186q0 -64 32 -99.5t81 -35.5q51 0 87 25.5t55.5 75t27.5 109.5t8 140q0 157 -55 294
t-148.5 231.5t-220.5 149t-268 54.5q-195 0 -352.5 -97.5t-248.5 -275t-91 -401.5t91 -401.5t248.5 -275t352.5 -97.5q121 0 246.5 43t218.5 118zM700 711q0 -149 56 -231.5t194 -82.5q152 0 267 138v167q0 171 -56.5 255.5t-189.5 84.5q-116 0 -193.5 -97t-77.5 -234z" />
    <glyph glyph-name="bracketleft.case" horiz-adv-x="831" 
d="M246 -184v1802h545v-143h-369v-1516h369v-143h-545z" />
    <glyph glyph-name="bracketright.case" horiz-adv-x="831" 
d="M586 1618v-1802h-545v143h369v1516h-369v143h545z" />
    <glyph glyph-name="braceleft.case" horiz-adv-x="788" 
d="M127 643v148q94 0 153.5 58.5t59.5 147.5v256q0 209 129 289q67 43 180 43l37 -110l-108 -43q-34 -13 -48 -45.5t-14 -94.5v-280q0 -131 -46.5 -197t-150.5 -98q104 -32 150.5 -98t46.5 -197v-281q0 -61 14 -93.5t48 -45.5l108 -43l-37 -111q-113 0 -180 43
q-129 80 -129 289v256q0 89 -59.5 148t-153.5 59z" />
    <glyph glyph-name="braceright.case" horiz-adv-x="788" 
d="M662 791v-148q-94 0 -153.5 -59t-59.5 -148v-256q0 -209 -130 -289q-67 -43 -180 -43l-37 111l109 43q34 13 47.5 45t13.5 94v281q0 131 46.5 197t150.5 98q-104 32 -150.5 98t-46.5 197v280q0 62 -13.5 94.5t-47.5 45.5l-109 43l37 110q113 0 180 -43q130 -80 130 -289
v-256q0 -89 59.5 -147.5t153.5 -58.5z" />
    <glyph glyph-name="exclamdown.case" horiz-adv-x="589" 
d="M193 371l49 716h106l49 -716v-371h-204v371zM197 1231v203h198v-203h-198z" />
    <glyph glyph-name="guillemotleft.case" horiz-adv-x="1198" 
d="M102 684v66l119 86q167 119 359 219l65 -90l-352 -248l352 -248l-65 -90q-192 100 -359 219zM553 684v66l119 86q169 121 358 219l66 -90l-353 -248l353 -248l-66 -90q-189 98 -358 219z" />
    <glyph glyph-name="periodcentered.case" horiz-adv-x="614" 
d="M215 612v213h184v-213h-184z" />
    <glyph glyph-name="guillemotright.case" horiz-adv-x="1198" 
d="M1096 750v-66l-119 -86q-167 -119 -359 -219l-65 90l352 248l-352 248l65 90q192 -100 359 -219zM645 750v-66l-119 -86q-169 -121 -358 -219l-66 90l353 248l-353 248l66 90q189 -98 358 -219z" />
    <glyph glyph-name="questiondown.case" horiz-adv-x="1091" 
d="M563 -27q-195 0 -308.5 98t-113.5 267q0 60 12 109t31 85.5t54 73t69 63.5t88 64q85 58 117.5 127.5t32.5 175.5v49h119q32 -94 32 -204q0 -66 -34.5 -130t-90.5 -102q-15 -10 -45.5 -30.5t-46 -31t-40.5 -29.5t-38 -32.5t-30 -33.5t-25 -39t-14 -43t-6 -50
q0 -105 65 -164t184 -59q94 0 156 57t80 152h186q-20 -161 -134.5 -267t-299.5 -106zM696 1434v-203h-198v203h198z" />
    <glyph glyph-name="endash.case" horiz-adv-x="1024" 
d="M1024 637h-1024v160h1024v-160z" />
    <glyph glyph-name="emdash.case" horiz-adv-x="2048" 
d="M2048 637h-2048v160h2048v-160z" />
    <glyph glyph-name="bullet.case" horiz-adv-x="917" 
d="M190 715q0 110 79.5 189t189.5 79t189 -79t79 -189t-79 -189.5t-189 -79.5t-189.5 79.5t-79.5 189.5z" />
    <glyph glyph-name="guilsinglleft.case" horiz-adv-x="747" 
d="M102 684v66l119 86q167 119 359 219l65 -90l-352 -248l352 -248l-65 -90q-192 100 -359 219z" />
    <glyph glyph-name="guilsinglright.case" horiz-adv-x="747" 
d="M645 750v-66l-119 -86q-169 -121 -358 -219l-66 90l353 248l-353 248l66 90q189 -98 358 -219z" />
    <glyph glyph-name="zero.numerator" 
d="M66 961q0 141 38.5 249.5t119.5 174t196 65.5t196 -65.5t119.5 -174t38.5 -249.5t-38.5 -250t-120 -174.5t-195.5 -65.5t-195.5 65.5t-120 174.5t-38.5 250zM221 961q0 -165 50.5 -258t148.5 -93t148 93t50 258t-50 257.5t-148 92.5t-148.5 -92.5t-50.5 -257.5z" />
    <glyph glyph-name="one.numerator" 
d="M387 1241l-141 -104l-99 110l259 189h133v-951h-152v756z" />
    <glyph glyph-name="two.numerator" 
d="M387 1313q-66 0 -105.5 -43.5t-52.5 -136.5h-139q13 152 96 234.5t215 82.5q135 0 213 -72t78 -200q0 -87 -38 -166t-122 -172q-119 -130 -217 -219h385v-136h-602v127q149 128 305 297q72 80 103 141t31 124q0 67 -38 103t-112 36z" />
    <glyph glyph-name="three.numerator" 
d="M391 1311q-68 0 -110.5 -38.5t-49.5 -105.5h-153q17 133 103 208t208 75q137 0 223 -69t86 -187q0 -72 -41.5 -129.5t-103.5 -85.5q75 -29 124.5 -87t49.5 -140q0 -123 -88 -203t-240 -80q-191 0 -319 184l80 70q57 -63 112.5 -89t126.5 -26q77 0 124.5 42t47.5 102
q0 81 -59 119t-160 38h-96v135h96q88 0 139.5 38t51.5 102q0 58 -40 92.5t-112 34.5z" />
    <glyph glyph-name="four.numerator" 
d="M498 688h-443v123l455 623h139v-611h115v-135h-115v-203h-151v203zM498 1186l-260 -363h260v363z" />
    <glyph glyph-name="five.numerator" 
d="M188 918l-28 18v498h536v-136h-393v-221q49 10 117 10q143 0 233 -87.5t90 -233.5q0 -125 -89 -211t-230 -86q-179 0 -307 158l69 73q57 -51 109.5 -70.5t132.5 -19.5q70 0 115 49t45 117q0 81 -51 127.5t-134 46.5q-123 0 -215 -32z" />
    <glyph glyph-name="six.numerator" 
d="M430 1311q-71 0 -118 -68t-56 -201q92 72 193 72q139 0 224 -92.5t85 -233.5t-88.5 -230t-233.5 -89q-158 0 -252 115.5t-94 349.5q0 253 94 384.5t250 131.5q130 0 215 -78.5t101 -195.5h-156q-28 135 -164 135zM432 975q-102 0 -180 -78q6 -148 55 -218.5t125 -70.5
q82 0 126 49.5t44 135.5q0 84 -45.5 133t-124.5 49z" />
    <glyph glyph-name="seven.numerator" 
d="M731 1434v-136q-242 -392 -317 -813h-170q88 428 321 813h-436v136h602z" />
    <glyph glyph-name="eight.numerator" 
d="M90 764q0 145 137 235q-114 79 -114 201q0 116 80.5 183t216.5 67q134 0 217.5 -71.5t83.5 -196.5q0 -66 -31.5 -121.5t-87.5 -89.5q81 -47 118.5 -102t37.5 -126q0 -122 -92 -198t-236 -76q-147 0 -238.5 79.5t-91.5 215.5zM369 924l-29 12q-94 -72 -94 -176
q0 -69 50 -109.5t126 -40.5q75 0 122.5 35.5t47.5 91.5q0 55 -42 90.5t-181 96.5zM268 1200q0 -52 39 -87t166 -87q82 64 82 160q0 60 -41.5 93.5t-112.5 33.5q-61 0 -97 -33t-36 -80z" />
    <glyph glyph-name="nine.numerator" 
d="M403 608q81 0 126.5 63.5t54.5 205.5q-92 -72 -193 -72q-139 0 -224 92.5t-85 232.5q0 141 88 230.5t233 89.5q158 0 252.5 -115.5t94.5 -349.5q0 -261 -90.5 -388.5t-249.5 -127.5q-71 0 -143.5 35t-133.5 104l62 86q102 -86 208 -86zM408 944q102 0 180 78
q-6 148 -55 218.5t-125 70.5q-82 0 -126 -49.5t-44 -135.5q0 -84 45.5 -133t124.5 -49z" />
    <glyph glyph-name="zero.denominator" 
d="M66 475q0 141 38.5 250t120 174.5t195.5 65.5t195.5 -65.5t120 -174.5t38.5 -250t-38.5 -249.5t-119.5 -174t-196 -65.5t-196 65.5t-119.5 174t-38.5 249.5zM221 475q0 -165 50.5 -257.5t148.5 -92.5t148 92.5t50 257.5t-50 257.5t-148 92.5t-148.5 -92.5t-50.5 -257.5z
" />
    <glyph glyph-name="one.denominator" 
d="M387 756l-141 -105l-99 111l259 188h133v-950h-152v756z" />
    <glyph glyph-name="two.denominator" 
d="M387 827q-66 0 -105.5 -43.5t-52.5 -136.5h-139q13 152 96 235t215 83q134 0 212.5 -72.5t78.5 -200.5q0 -87 -38 -166t-122 -172q-119 -130 -217 -219h385v-135h-602v127q149 128 305 297q72 80 103 140.5t31 123.5q0 67 -38 103t-112 36z" />
    <glyph glyph-name="three.denominator" 
d="M391 825q-68 0 -110.5 -38t-49.5 -105h-153q17 133 103 208t208 75q137 0 223 -69t86 -187q0 -72 -41.5 -129.5t-103.5 -85.5q75 -29 124.5 -87.5t49.5 -140.5q0 -122 -88 -202t-240 -80q-191 0 -319 184l80 70q57 -63 112.5 -89t126.5 -26q77 0 124.5 41.5t47.5 101.5
q0 81 -59 119.5t-160 38.5h-96v135h96q88 0 139.5 37.5t51.5 101.5q0 58 -40 92.5t-112 34.5z" />
    <glyph glyph-name="four.denominator" 
d="M498 203h-443v123l455 622h139v-610h115v-135h-115v-203h-151v203zM498 700l-260 -362h260v362z" />
    <glyph glyph-name="five.denominator" 
d="M188 432l-28 19v497h536v-135h-393v-221q49 10 117 10q143 0 233 -87.5t90 -233.5q0 -125 -89 -211t-230 -86q-179 0 -307 157l69 74q57 -51 109.5 -70.5t132.5 -19.5q70 0 115 49t45 117q0 81 -51 127.5t-134 46.5q-120 0 -215 -33z" />
    <glyph glyph-name="six.denominator" 
d="M430 825q-71 0 -118 -67.5t-56 -200.5q92 72 193 72q139 0 224 -92.5t85 -233.5t-88.5 -230t-233.5 -89q-158 0 -252 115.5t-94 349.5q0 253 94 384.5t250 131.5q130 0 215 -78.5t101 -196.5h-156q-28 135 -164 135zM432 489q-103 0 -180 -77q6 -148 55 -218.5t125 -70.5
q82 0 126 49t44 135q0 84 -45.5 133t-124.5 49z" />
    <glyph glyph-name="seven.denominator" 
d="M731 948v-135q-242 -392 -317 -813h-170q88 428 321 813h-436v135h602z" />
    <glyph glyph-name="eight.denominator" 
d="M90 279q0 145 137 235q-114 79 -114 201q0 116 80.5 183t216.5 67q133 0 217 -72t84 -197q0 -66 -31.5 -121.5t-87.5 -89.5q81 -47 118.5 -101.5t37.5 -125.5q0 -122 -92 -198t-236 -76q-147 0 -238.5 79.5t-91.5 215.5zM369 438l-29 13q-94 -72 -94 -177q0 -69 50 -109
t126 -40q75 0 122.5 35.5t47.5 91.5q0 55 -41.5 90t-181.5 96zM268 715q0 -52 39 -87t166 -87q82 64 82 159q0 60 -41.5 93.5t-112.5 33.5q-61 0 -97 -33t-36 -79z" />
    <glyph glyph-name="nine.denominator" 
d="M403 123q81 0 126.5 63t54.5 205q-92 -72 -193 -72q-139 0 -224 92.5t-85 233.5t88 230.5t233 89.5q158 0 252.5 -115.5t94.5 -349.5q0 -261 -90.5 -388.5t-249.5 -127.5q-71 0 -143.5 35t-133.5 104l62 86q102 -86 208 -86zM408 459q102 0 180 78q-6 148 -55 218
t-125 70q-82 0 -126 -49t-44 -135q0 -84 45.5 -133t124.5 -49z" />
    </font>
</defs>
</svg>
