<?xml version="1.0" standalone="no"?>
<!DOCTYPE svg PUBLIC "-//W3C//DTD SVG 1.1//EN" "http://www.w3.org/Graphics/SVG/1.1/DTD/svg11.dtd" >
<svg xmlns="http://www.w3.org/2000/svg" xmlns:xlink="http://www.w3.org/1999/xlink" version="1.1">
<metadata>
Created by FontForge 20170731 at Mon Jan 31 18:50:39 2022
 By Aleksey,,,
Copyright (c) 2016 by Lee, Hyun-Seung. All rights reserved.
</metadata>
<defs>
<font id="ArticoLight" horiz-adv-x="825" >
  <font-face 
    font-family="Artico Light"
    font-weight="300"
    font-stretch="normal"
    units-per-em="2048"
    panose-1="2 11 3 3 3 3 2 2 2 4"
    ascent="1638"
    descent="-410"
    x-height="1061"
    cap-height="1434"
    bbox="-850 -520 2048 2040"
    underline-thickness="49"
    underline-position="-472"
    unicode-range="U+0008-FB04"
  />
<missing-glyph horiz-adv-x="1024" 
d="M881 0h-738v1536h738v-1536zM297 133h430v1270h-430v-1270z" />
    <glyph glyph-name="f_f" unicode="ff" horiz-adv-x="1280" 
d="M940 1174v-113h285v-111h-285v-950h-127v950h-442v-950h-129v950h-209v111h209v123q0 164 80.5 237.5t242.5 73.5q65 0 111 -6v-115q-53 6 -111 6q-104 0 -149 -48t-45 -158v-113h442v123q0 164 80 237.5t242 73.5q63 0 110 -6v-115q-53 6 -110 6q-104 0 -149.5 -48
t-45.5 -158z" />
    <glyph glyph-name="f_i" unicode="fi" horiz-adv-x="1140" 
d="M371 1174v-113h606v-1061h-127v950h-479v-950h-129v950h-209v111h209v123q0 163 82.5 237t240.5 74q65 0 111 -6v-115q-53 6 -111 6q-102 0 -148 -47t-46 -159zM850 1468h127v-188h-127v188z" />
    <glyph glyph-name="f_l" unicode="fl" horiz-adv-x="1112" 
d="M371 1171v-110h284v-111h-284v-950h-129v950h-209v111h209v119q0 315 323 315q91 0 256 -33v33h127v-1495h-127v1356q-147 24 -256 24q-101 0 -147.5 -48.5t-46.5 -160.5z" />
    <glyph glyph-name="f_f_i" unicode="ffi" horiz-adv-x="1712" 
d="M1419 0v950h-479v-950h-127v950h-442v-950h-129v950h-209v111h209v123q0 165 80 238t243 73q65 0 111 -6v-115q-53 6 -111 6q-102 0 -148 -47t-46 -159v-113h442v123q0 164 80.5 237.5t241.5 73.5q63 0 110 -6v-115q-53 6 -110 6q-102 0 -148.5 -47t-46.5 -159v-113h608
v-1061h-129zM1419 1468h129v-188h-129v188z" />
    <glyph glyph-name="f_f_l" unicode="ffl" horiz-adv-x="1683" 
d="M940 1171v-110h285v-111h-285v-950h-127v950h-442v-950h-129v950h-209v111h209v123q0 164 79.5 237.5t243.5 73.5q65 0 111 -6v-115q-53 6 -111 6q-104 0 -149 -48t-45 -158v-113h442v119q0 166 79.5 240.5t242.5 74.5q91 0 256 -33v33h129v-1495h-129v1356
q-147 24 -254 24q-104 0 -150.5 -50t-46.5 -159z" />
    <glyph glyph-name=".notdef" horiz-adv-x="1024" 
d="M881 0h-738v1536h738v-1536zM297 133h430v1270h-430v-1270z" />
    <glyph glyph-name=".null" horiz-adv-x="0" 
 />
    <glyph glyph-name=".null" horiz-adv-x="0" 
 />
    <glyph glyph-name=".null" horiz-adv-x="0" 
 />
    <glyph glyph-name="nonmarkingreturn" horiz-adv-x="682" 
 />
    <glyph glyph-name="CR" unicode="&#x9;" horiz-adv-x="485" 
 />
    <glyph glyph-name="CR" unicode="&#xd;" horiz-adv-x="485" 
 />
    <glyph glyph-name="space" unicode=" " horiz-adv-x="614" 
 />
    <glyph glyph-name="exclam" unicode="!" horiz-adv-x="542" 
d="M197 1434h149v-392l-33 -696h-86l-30 696v392zM199 203h145v-203h-145v203z" />
    <glyph glyph-name="quotedbl" unicode="&#x22;" horiz-adv-x="931" 
d="M229 877l-18 557h154v-88q0 -224 -58 -469h-78zM586 877l-19 557h154v-88q0 -228 -57 -469h-78z" />
    <glyph glyph-name="numbersign" unicode="#" horiz-adv-x="1390" 
d="M946 1053l68 381h131l-66 -381h232v-115h-252l-76 -440h244v-115h-262l-66 -383h-133l65 383h-395l-65 -383h-133l65 383h-225v115h246l75 440h-237v115h258l65 381h133l-67 -381h395zM532 938l-75 -440h395l76 440h-396z" />
    <glyph glyph-name="dollar" unicode="$" horiz-adv-x="1206" 
d="M551 -201v181q-255 29 -453 290l72 66q182 -207 381 -236v582q-410 119 -410 418q0 154 110 252t300 104v182h98v-184q182 -18 289.5 -123.5t134.5 -279.5h-141q-19 116 -90.5 189.5t-192.5 90.5v-549q125 -37 205.5 -72t140.5 -83t86.5 -111t26.5 -149
q0 -171 -119.5 -278t-339.5 -114v-176h-98zM971 360q0 115 -72.5 177.5t-249.5 115.5v-557q156 6 239 79.5t83 184.5zM276 1100q0 -190 275 -289v524q-132 -6 -203.5 -70t-71.5 -165z" />
    <glyph glyph-name="percent" unicode="%" horiz-adv-x="1798" 
d="M170 1110q0 145 97 241.5t237 96.5q138 0 236 -97t98 -241t-98 -241t-236 -97q-140 0 -237 96.5t-97 241.5zM297 1110q0 -100 60.5 -160.5t146.5 -60.5t145.5 60.5t59.5 160.5q0 98 -59.5 158.5t-145.5 60.5t-146.5 -60.5t-60.5 -158.5zM1382 1296l-880 -1230l-88 69
l872 1223zM961 322q0 145 96.5 241t236.5 96q138 0 236 -96.5t98 -240.5t-97.5 -240t-236.5 -96q-140 0 -236.5 95.5t-96.5 240.5zM1087 322q0 -98 60.5 -159t146.5 -61t145.5 60.5t59.5 159.5q0 100 -59.5 159.5t-145.5 59.5t-146.5 -60.5t-60.5 -158.5z" />
    <glyph glyph-name="ampersand" unicode="&#x26;" horiz-adv-x="1288" 
d="M1339 18l-55 -41q-137 89 -307 256l-25 -26q-140 -140 -239 -186t-234 -46q-167 0 -272 103t-105 254q0 114 77.5 225.5t260.5 241.5l-47 51q-81 86 -118 151t-37 144q0 134 87.5 223.5t237.5 89.5q99 0 173.5 -43.5t185.5 -154.5q-69 -56 -93 -78q-99 91 -154 124
t-112 33q-88 0 -142 -54t-54 -144q0 -53 28 -100t97 -119l485 -516l145 147l86 -92l-147 -148zM483 94q107 0 193 42.5t192 158.5l25 27l-373 393q-149 -105 -216.5 -200t-67.5 -169q0 -112 69.5 -182t177.5 -70z" />
    <glyph glyph-name="quotesingle" unicode="'" horiz-adv-x="555" 
d="M217 877l-18 557h153v-88q0 -228 -57 -469h-78z" />
    <glyph glyph-name="parenleft" unicode="(" horiz-adv-x="706" 
d="M229 635q0 508 303 901l93 -47q-265 -387 -265 -854q0 -469 265 -856l-93 -45q-303 390 -303 901z" />
    <glyph glyph-name="parenright" unicode=")" horiz-adv-x="706" 
d="M477 635q0 -511 -303 -901l-92 45q264 385 264 856q0 469 -264 854l92 47q303 -393 303 -901z" />
    <glyph glyph-name="asterisk" unicode="*" horiz-adv-x="1091" 
d="M657 680l306 -166l-66 -113l-295 181l8 -346h-131l10 346l-294 -181l-66 113l305 166l-305 164l66 114l294 -182l-10 346h131l-8 -346l295 182l66 -114z" />
    <glyph glyph-name="plus" unicode="+" horiz-adv-x="1265" 
d="M563 180v441h-434v118h434v439h137v-439h435v-118h-435v-441h-137z" />
    <glyph glyph-name="comma" unicode="," horiz-adv-x="600" 
d="M231 209h136v-115q0 -119 -48.5 -213.5t-156.5 -193.5l-74 59q81 95 112 170.5t31 177.5v115z" />
    <glyph glyph-name="hyphen" unicode="-" horiz-adv-x="831" 
d="M700 614h-571v129h571v-129z" />
    <glyph glyph-name="period" unicode="." horiz-adv-x="600" 
d="M231 209h136v-209h-136v209z" />
    <glyph glyph-name="slash" unicode="/" horiz-adv-x="993" 
d="M2 -188l881 1744l108 -65l-882 -1745z" />
    <glyph glyph-name="zero" unicode="0" horiz-adv-x="1200" 
d="M96 717q0 217 54.5 381.5t170 262t279.5 97.5t279.5 -97.5t170 -262t54.5 -381.5q0 -162 -31.5 -296.5t-93 -234.5t-158.5 -155.5t-221 -55.5t-221 55.5t-158.5 155.5t-93 234.5t-31.5 296.5zM236 717q0 -292 92.5 -456.5t271.5 -164.5t272 164.5t93 456.5t-93 456
t-272 164t-271.5 -164t-92.5 -456z" />
    <glyph glyph-name="one" unicode="1" horiz-adv-x="1200" 
d="M608 1274l-305 -213l-84 92l404 281h120v-1434h-135v1274z" />
    <glyph glyph-name="two" unicode="2" horiz-adv-x="1200" 
d="M881 1067q0 119 -81 193.5t-220 74.5q-148 0 -228.5 -95.5t-91.5 -256.5h-135q16 219 131 347t328 128q196 0 315 -106.5t119 -290.5q0 -125 -61.5 -247.5t-194.5 -276.5q-183 -211 -422 -420h698v-117h-895v104q277 243 492 486q128 144 187 254.5t59 222.5z" />
    <glyph glyph-name="three" unicode="3" horiz-adv-x="1200" 
d="M938 377q0 152 -107.5 232.5t-289.5 80.5h-135v119h137q158 0 257 75t99 206q0 107 -81 176t-216 69q-131 0 -215.5 -74.5t-99.5 -211.5h-137q23 198 146 303.5t308 105.5q197 0 315.5 -98t118.5 -260q0 -135 -81 -229.5t-201 -120.5q153 -34 237 -130t84 -245
q0 -178 -124.5 -289t-346.5 -111q-293 0 -477 248l72 62q169 -193 399 -193q158 0 248 79t90 206z" />
    <glyph glyph-name="four" unicode="4" horiz-adv-x="1200" 
d="M793 330h-717v112l725 992h125v-985h192v-119h-192v-330h-133v330zM793 1208l-557 -759h557v759z" />
    <glyph glyph-name="five" unicode="5" horiz-adv-x="1200" 
d="M614 92q153 0 243.5 94.5t90.5 229.5q0 154 -100 243t-262 89q-178 0 -332 -52l-18 11v727h776v-119h-643v-481q98 34 237 34q214 0 345.5 -124.5t131.5 -337.5q0 -119 -54 -216t-161.5 -156t-251.5 -59q-263 0 -458 230l71 71q167 -184 385 -184z" />
    <glyph glyph-name="six" unicode="6" horiz-adv-x="1200" 
d="M645 915q206 0 329.5 -132.5t123.5 -342.5q0 -209 -131.5 -337t-337.5 -128q-113 0 -203 40.5t-157.5 123.5t-103.5 220t-36 321q0 398 130.5 588t369.5 190q174 0 293.5 -101.5t150.5 -271.5h-137q-23 112 -102.5 181t-202.5 69q-346 0 -365 -579q72 73 172.5 116
t206.5 43zM627 96q156 0 246 94.5t90 253.5q0 161 -89 256t-247 95q-215 0 -363 -170q4 -143 35 -248.5t82.5 -165t112.5 -87.5t133 -28z" />
    <glyph glyph-name="seven" unicode="7" horiz-adv-x="1200" 
d="M1061 1434v-119q-193 -324 -322.5 -645t-197.5 -670h-152q153 694 526 1315h-778v119h924z" />
    <glyph glyph-name="eight" unicode="8" horiz-adv-x="1200" 
d="M1096 365q0 -177 -139.5 -283.5t-356.5 -106.5q-222 0 -359 109t-137 301q0 128 67 233.5t191 172.5q-198 113 -198 303q0 159 119 261.5t317 102.5t317 -105t119 -263q0 -108 -58 -199t-165 -156q151 -73 217 -162t66 -208zM244 381q0 -133 98 -209t258 -76t258 71
t98 193q0 116 -90 190t-338 167l-49 18q-115 -60 -175 -154t-60 -200zM897 1081q0 112 -80 183t-217 71q-132 0 -214.5 -67t-82.5 -174q0 -84 66 -148t213 -119l114 -43q98 58 149.5 135t51.5 162z" />
    <glyph glyph-name="nine" unicode="9" horiz-adv-x="1200" 
d="M555 516q-206 0 -329.5 132.5t-123.5 342.5q0 209 132 338t339 129q228 0 363 -171.5t135 -520.5q0 -207 -38.5 -361t-109.5 -247t-166 -138t-214 -45q-200 0 -363 166l60 72q138 -117 307 -117q63 0 116.5 18.5t101.5 61t83 108t57.5 164.5t28.5 226
q-73 -73 -173 -115.5t-206 -42.5zM934 807q-4 145 -34.5 251t-81.5 164.5t-111.5 85.5t-133.5 27q-154 0 -243.5 -94.5t-89.5 -253.5q0 -161 88 -255.5t245 -94.5q213 0 361 170z" />
    <glyph glyph-name="colon" unicode=":" horiz-adv-x="600" 
d="M231 209h136v-209h-136v209zM231 1059h136v-209h-136v209z" />
    <glyph glyph-name="semicolon" unicode=";" horiz-adv-x="600" 
d="M231 1059h136v-209h-136v209zM231 209h136v-115q0 -119 -48.5 -213.5t-156.5 -193.5l-74 59q81 95 112 170.5t31 177.5v115z" />
    <glyph glyph-name="less" unicode="&#x3c;" horiz-adv-x="1265" 
d="M219 637v84l137 88q267 171 639 371l49 -86l-671 -414l671 -416l-49 -86q-303 160 -637 371z" />
    <glyph glyph-name="equal" unicode="=" horiz-adv-x="1265" 
d="M1135 854h-1006v119h1006v-119zM1135 387h-1006v119h1006v-119z" />
    <glyph glyph-name="greater" unicode="&#x3e;" horiz-adv-x="1265" 
d="M1044 721v-84l-139 -88q-334 -211 -637 -371l-49 86l672 416l-672 414l49 86q372 -200 639 -371z" />
    <glyph glyph-name="question" unicode="?" horiz-adv-x="1062" 
d="M530 1458q189 0 298.5 -97.5t109.5 -256.5q0 -88 -31 -157.5t-81.5 -119.5t-139.5 -112q-90 -63 -123 -136.5t-33 -187.5v-45h-92q-22 68 -22 152q0 167 114 258q28 23 77.5 61t69.5 54t50 45.5t41.5 52t21 55t9.5 70.5q0 111 -75 176t-206 65q-114 0 -188 -69.5
t-92 -180.5h-136q20 163 132.5 268t295.5 105zM416 203h145v-203h-145v203z" />
    <glyph glyph-name="at" unicode="@" horiz-adv-x="1957" 
d="M1247 356v217q0 342 -262 342q-132 0 -219.5 -106t-87.5 -266q0 -165 65.5 -251.5t214.5 -86.5q83 0 157.5 41t131.5 110zM1266 248q-63 -68 -147 -109t-173 -41q-192 0 -291.5 120.5t-99.5 324.5q0 135 51.5 245t151 176t229.5 66q187 0 285 -114t98 -322v-217
q0 -75 36 -115.5t97 -40.5q55 0 94.5 28.5t61.5 82.5t31.5 121.5t9.5 156.5q0 211 -91.5 383t-257.5 271.5t-374 99.5t-372 -104t-254.5 -287t-90.5 -410q0 -168 53 -316t147 -256t230.5 -170.5t296.5 -62.5q127 0 251 43t222 119l49 -86q-107 -82 -242 -126t-280 -44
q-153 0 -286.5 46.5t-232 129.5t-169.5 195t-107 246.5t-36 281.5t35.5 281.5t106 246t168 194t229 128t282.5 45.5q186 0 343.5 -68t262 -184t163 -270t58.5 -326q0 -102 -15.5 -186t-49.5 -155.5t-96 -111.5t-148 -40q-81 0 -141.5 34t-87.5 97z" />
    <glyph glyph-name="A" unicode="A" horiz-adv-x="1363" 
d="M608 1434h148l561 -1434h-148l-147 391h-680l-147 -391h-148zM682 1292l-297 -782h594z" />
    <glyph glyph-name="B" unicode="B" horiz-adv-x="1265" 
d="M170 0v1434h475q216 0 338.5 -101.5t122.5 -271.5q0 -114 -58 -196.5t-159 -108.5q137 -26 213 -120.5t76 -234.5q0 -190 -132.5 -295.5t-379.5 -105.5h-496zM303 803h356q146 0 230 70t84 188q0 124 -90 189t-258 65h-322v-512zM1044 401q0 134 -93 208.5t-273 74.5
h-375v-565h344q197 0 297 72t100 210z" />
    <glyph glyph-name="C" unicode="C" horiz-adv-x="1392" 
d="M98 717q0 215 81 383t230.5 263t342.5 95q125 0 230 -39t177 -108t117 -160.5t57 -198.5h-139q-24 171 -143 278t-295 107q-150 0 -267 -74t-185 -215.5t-68 -330.5q0 -285 145.5 -453t374.5 -168q298 0 465 275l88 -56q-191 -340 -557 -340q-194 0 -343 94.5t-230 263.5
t-81 384z" />
    <glyph glyph-name="D" unicode="D" horiz-adv-x="1380" 
d="M303 117h301q254 0 397.5 159t143.5 441q0 280 -144 439t-397 159h-301v-1198zM616 0h-446v1434h446q311 0 488.5 -193t177.5 -524q0 -334 -177.5 -525.5t-488.5 -191.5z" />
    <glyph glyph-name="E" unicode="E" horiz-adv-x="1148" 
d="M170 0v1434h872v-119h-739v-516h668v-119h-668v-561h758v-119h-891z" />
    <glyph glyph-name="F" unicode="F" horiz-adv-x="1089" 
d="M170 0v1434h872v-119h-739v-541h670v-119h-670v-655h-133z" />
    <glyph glyph-name="G" unicode="G" horiz-adv-x="1435" 
d="M98 717q0 214 79 383t222 263.5t326 94.5q114 0 215.5 -39t176 -105.5t124.5 -155t68 -187.5h-135q-39 159 -162.5 261.5t-282.5 102.5q-215 0 -355.5 -168t-140.5 -450q0 -280 144.5 -450.5t380.5 -170.5q89 0 167.5 35t138 99t94 160.5t34.5 213.5h-416v119h549v-96
q0 -160 -45 -286t-123.5 -205t-181 -120t-221.5 -41q-198 0 -348.5 98t-229 266t-78.5 378z" />
    <glyph glyph-name="H" unicode="H" horiz-adv-x="1417" 
d="M170 0v1434h133v-613h809v613h133v-1434h-133v702h-809v-702h-133z" />
    <glyph glyph-name="I" unicode="I" horiz-adv-x="495" 
d="M180 1434h133v-1434h-133v1434z" />
    <glyph glyph-name="J" unicode="J" horiz-adv-x="1134" 
d="M86 272l82 56q72 -119 157.5 -175.5t194.5 -56.5q146 0 227.5 100t81.5 279v959h134v-959q0 -238 -115.5 -369t-308.5 -131q-147 0 -258.5 73t-194.5 224z" />
    <glyph glyph-name="K" unicode="K" horiz-adv-x="1236" 
d="M303 1434v-873l682 873h160l-463 -586l528 -848h-161l-451 743l-295 -374v-369h-133v1434h133z" />
    <glyph glyph-name="L" unicode="L" horiz-adv-x="1079" 
d="M170 0v1434h133v-1315h735v-119h-868z" />
    <glyph glyph-name="M" unicode="M" horiz-adv-x="1716" 
d="M1546 1434v-1434h-129v1194l-516 -913h-86l-518 913v-1194h-127v1434h131l557 -985l557 985h131z" />
    <glyph glyph-name="N" unicode="N" horiz-adv-x="1429" 
d="M170 0v1434h129l831 -1223v1223h127v-1434h-129l-829 1221v-1221h-129z" />
    <glyph glyph-name="O" unicode="O" horiz-adv-x="1449" 
d="M1352 717q0 -157 -43 -292.5t-122 -235.5t-198 -157t-264 -57t-264 57t-198 157t-122 235.5t-43 292.5t43 292t122 235t198 157t264 57t264 -57t198 -157t122 -235t43 -292zM236 717q0 -280 132.5 -450.5t356.5 -170.5q225 0 357 170t132 451q0 279 -132 449.5
t-357 170.5q-224 0 -356.5 -170.5t-132.5 -449.5z" />
    <glyph glyph-name="P" unicode="P" horiz-adv-x="1193" 
d="M1116 995q0 -214 -138.5 -326t-389.5 -112h-285v-557h-133v1434h418q250 0 389 -113t139 -326zM979 995q0 320 -404 320h-272v-639h272q404 0 404 319z" />
    <glyph glyph-name="Q" unicode="Q" horiz-adv-x="1449" 
d="M1352 717q0 -321 -164 -527l231 -251l-92 -86l-231 247q-157 -125 -371 -125q-145 0 -264 57t-198 157t-122 235.5t-43 292.5t43 292t122 235t198 157t264 57t264 -57t198 -157t122 -235t43 -292zM760 469l94 88l244 -268q116 166 116 428q0 279 -132 449.5t-357 170.5
q-224 0 -356.5 -170.5t-132.5 -449.5q0 -280 132.5 -450.5t356.5 -170.5q164 0 287 99z" />
    <glyph glyph-name="R" unicode="R" horiz-adv-x="1255" 
d="M1126 1006q0 -166 -84.5 -268.5t-242.5 -139.5l415 -598h-153l-397 580q-23 -2 -66 -2h-295v-578h-133v1434h428q252 0 390 -108t138 -320zM989 1006q0 159 -101 234t-302 75h-283v-619h283q201 0 302 75t101 235z" />
    <glyph glyph-name="S" unicode="S" horiz-adv-x="1206" 
d="M621 96q170 0 260 74t90 190q0 126 -87.5 191t-310.5 125q-230 63 -331 170t-101 254q0 160 118 259t319 99q215 0 340 -107.5t155 -299.5h-141q-23 133 -111.5 209.5t-240.5 76.5q-146 0 -225 -65.5t-79 -171.5q0 -101 83.5 -180t252.5 -127q90 -25 155.5 -47.5
t124 -50.5t96.5 -59.5t66.5 -71.5t41 -88.5t12.5 -108.5q0 -176 -127 -284t-360 -108q-301 0 -523 295l72 66q210 -240 451 -240z" />
    <glyph glyph-name="T" unicode="T" horiz-adv-x="1126" 
d="M496 0v1315h-459v119h1050v-119h-458v-1315h-133z" />
    <glyph glyph-name="U" unicode="U" horiz-adv-x="1449" 
d="M725 -25q-121 0 -221.5 35.5t-175.5 105.5t-116.5 181.5t-41.5 255.5v881h133v-871q0 -228 108 -347.5t314 -119.5t314 119.5t108 347.5v871h133v-881q0 -286 -148.5 -432t-406.5 -146z" />
    <glyph glyph-name="V" unicode="V" horiz-adv-x="1363" 
d="M756 0h-148l-561 1434h141l494 -1278l492 1278h143z" />
    <glyph glyph-name="W" unicode="W" horiz-adv-x="2023" 
d="M930 1434h164l336 -1278l401 1278h145l-456 -1434h-179l-329 1264l-330 -1264h-178l-457 1434h146l401 -1278z" />
    <glyph glyph-name="X" unicode="X" horiz-adv-x="1214" 
d="M37 0l491 745l-450 689h153l375 -570l375 570h156l-453 -689l494 -745h-156l-416 629l-413 -629h-156z" />
    <glyph glyph-name="Y" unicode="Y" horiz-adv-x="1212" 
d="M1174 1434l-502 -867v-567h-133v567l-502 867h149l420 -723l420 723h148z" />
    <glyph glyph-name="Z" unicode="Z" horiz-adv-x="1146" 
d="M68 111l831 1204h-795v119h955v-113l-830 -1202h850v-119h-1011v111z" />
    <glyph glyph-name="bracketleft" unicode="[" horiz-adv-x="815" 
d="M252 -266v1802h516v-109h-385v-1587h385v-106h-516z" />
    <glyph glyph-name="backslash" unicode="\" horiz-adv-x="993" 
d="M109 1556l882 -1744l-108 -66q-369 729 -881 1745z" />
    <glyph glyph-name="bracketright" unicode="]" horiz-adv-x="815" 
d="M563 1536v-1802h-516v106h385v1587h-385v109h516z" />
    <glyph glyph-name="asciicircum" unicode="^" horiz-adv-x="1265" 
d="M569 1434h125l109 -168q170 -261 274 -465l-84 -56l-360 537l-363 -537l-84 56q88 177 275 465z" />
    <glyph glyph-name="underscore" unicode="_" horiz-adv-x="1009" 
d="M0 -332v105h1010v-105h-1010z" />
    <glyph glyph-name="grave" unicode="`" horiz-adv-x="819" 
d="M219 1430l98 79l281 -299l-59 -49q-108 68 -256 209z" />
    <glyph glyph-name="a" unicode="a" horiz-adv-x="1105" 
d="M1096 88v-102q-37 -11 -78 -11q-64 0 -111 35t-61 115q-147 -150 -361 -150q-179 0 -288 93.5t-109 240.5q0 146 109.5 240t287.5 94q210 0 353 -106v155q0 138 -70.5 208.5t-228.5 70.5q-116 0 -184.5 -54.5t-82.5 -146.5h-133q18 142 124.5 228.5t283.5 86.5
q200 0 310 -95t110 -271v-557q0 -37 17 -57.5t46 -20.5q16 0 66 4zM512 88q180 0 326 139v191q-133 110 -326 110q-135 0 -214 -56.5t-79 -162.5q0 -108 78.5 -164.5t214.5 -56.5z" />
    <glyph glyph-name="b" unicode="b" horiz-adv-x="1181" 
d="M276 817v-577q61 -67 152.5 -109.5t179.5 -42.5q174 0 260 113.5t86 328.5q0 213 -86 327t-260 114q-88 0 -179.5 -43t-152.5 -111zM270 127l-20 -127h-100v1495h126v-559q70 68 162.5 108.5t192.5 40.5q217 0 335.5 -148t118.5 -407q0 -261 -118 -408t-336 -147
q-101 0 -196.5 41t-164.5 111z" />
    <glyph glyph-name="c" unicode="c" horiz-adv-x="1093" 
d="M88 530q0 247 135.5 401t354.5 154q174 0 298 -96t160 -266h-131q-29 115 -116 182.5t-203 67.5q-167 0 -267 -119.5t-100 -323.5q0 -203 106.5 -322.5t280.5 -119.5q102 0 188.5 55t145.5 156l86 -51q-140 -273 -428 -273q-226 0 -368 154t-142 401z" />
    <glyph glyph-name="d" unicode="d" horiz-adv-x="1181" 
d="M903 240v577q-62 69 -153 111.5t-179 42.5q-174 0 -260 -114t-86 -327q0 -215 86 -328.5t260 -113.5q88 0 178.5 42.5t153.5 109.5zM1030 0h-100l-21 127q-71 -71 -165 -111.5t-195 -40.5q-218 0 -336.5 147.5t-118.5 407.5q0 259 119 407t336 148q99 0 190.5 -40
t163.5 -109v559h127v-1495z" />
    <glyph glyph-name="e" unicode="e" horiz-adv-x="1148" 
d="M606 88q97 0 179.5 44.5t140.5 125.5l80 -55q-75 -116 -172 -172t-230 -56q-154 0 -272.5 74.5t-181 200t-62.5 280.5q0 242 138 398.5t354 156.5q214 0 351.5 -154.5t137.5 -398.5q0 -37 -2 -53h-846q12 -176 116 -283.5t269 -107.5zM221 588h715q-6 171 -107 277
t-249 106t-247 -105t-112 -278z" />
    <glyph glyph-name="f" unicode="f" horiz-adv-x="710" 
d="M371 1174v-113h284v-111h-284v-950h-129v950h-209v111h209v123q0 164 81.5 237.5t241.5 73.5q65 0 111 -6v-115q-53 6 -111 6q-102 0 -148 -47t-46 -159z" />
    <glyph glyph-name="g" unicode="g" horiz-adv-x="1181" 
d="M903 121q-72 -67 -163.5 -106.5t-190.5 -39.5q-218 0 -336.5 147.5t-118.5 407.5q0 259 119 407t336 148q101 0 195.5 -41.5t164.5 -113.5l21 131h100v-1041q0 -232 -116 -355.5t-339 -123.5q-257 0 -438 226l66 65q87 -93 173 -134.5t195 -41.5q160 0 246 90t86 258v117
zM903 240v577q-62 69 -153 111.5t-179 42.5q-174 0 -260 -114t-86 -327q0 -215 86 -328.5t260 -113.5q88 0 178.5 42.5t153.5 109.5z" />
    <glyph glyph-name="h" unicode="h" horiz-adv-x="1177" 
d="M639 971q-102 0 -199 -53t-164 -132v-786h-126v1495h126v-580q174 170 388 170q175 0 273.5 -100t98.5 -289v-696h-127v664q0 154 -66 230.5t-204 76.5z" />
    <glyph glyph-name="i" unicode="i" horiz-adv-x="454" 
d="M164 0v1061h127v-1061h-127zM164 1468h127v-188h-127v188z" />
    <glyph glyph-name="j" unicode="j" horiz-adv-x="448" 
d="M160 1468h127v-188h-127v188zM55 -487l-73 77q109 103 143.5 190.5t34.5 264.5v1016h127v-985q0 -159 -21 -255.5t-68.5 -164t-142.5 -143.5z" />
    <glyph glyph-name="k" unicode="k" horiz-adv-x="1036" 
d="M276 1495v-1044l525 610h160l-369 -422l430 -639h-145l-367 549l-234 -266v-283h-126v1495h126z" />
    <glyph glyph-name="l" unicode="l" horiz-adv-x="454" 
d="M164 0v1495h127v-1495h-127z" />
    <glyph glyph-name="m" unicode="m" horiz-adv-x="1792" 
d="M600 971q-86 0 -175 -46t-149 -120v-805h-126v1061h100l20 -133q72 74 165.5 115.5t189.5 41.5q223 0 299 -172q176 172 385 172q170 0 256 -98t86 -287v-700h-127v668q0 153 -53.5 228t-186.5 75q-86 0 -175.5 -46.5t-152.5 -121.5q9 -43 9 -94v-709h-127v678
q0 147 -55.5 220t-182.5 73z" />
    <glyph glyph-name="n" unicode="n" horiz-adv-x="1177" 
d="M639 971q-100 0 -196 -54t-167 -131v-786h-126v1061h100l20 -152q180 176 394 176q175 0 273.5 -100t98.5 -289v-696h-127v664q0 154 -66 230.5t-204 76.5z" />
    <glyph glyph-name="o" unicode="o" horiz-adv-x="1177" 
d="M1087 530q0 -244 -137 -399.5t-362 -155.5t-362.5 155.5t-137.5 399.5q0 159 61 285t175.5 198t263.5 72q224 0 361.5 -156.5t137.5 -398.5zM958 530q0 200 -101 320.5t-269 120.5t-268.5 -120.5t-100.5 -320.5q0 -201 100 -321.5t269 -120.5t269.5 120.5t100.5 321.5z
" />
    <glyph glyph-name="p" unicode="p" horiz-adv-x="1181" 
d="M276 819v-581q61 -67 152 -108.5t180 -41.5q174 0 260 113.5t86 328.5q0 213 -86 327t-260 114q-89 0 -180.5 -42t-151.5 -110zM250 1061l20 -129q68 71 163.5 112t197.5 41q217 0 335.5 -148t118.5 -407q0 -261 -118 -408t-336 -147q-100 0 -192.5 39t-162.5 105v-553
h-126v1495h100z" />
    <glyph glyph-name="q" unicode="q" horiz-adv-x="1181" 
d="M903 240v577q-62 69 -153 111.5t-179 42.5q-174 0 -260 -114t-86 -327q0 -215 86 -328.5t260 -113.5q88 0 178.5 42.5t153.5 109.5zM909 930l21 131h100v-1495h-127v555q-72 -67 -163.5 -106.5t-190.5 -39.5q-218 0 -336.5 147.5t-118.5 407.5q0 259 119 407t336 148
q101 0 195.5 -41.5t164.5 -113.5z" />
    <glyph glyph-name="r" unicode="r" horiz-adv-x="727" 
d="M604 971q-98 0 -185.5 -51.5t-142.5 -133.5v-786h-126v1061h100l20 -150q64 83 154 128.5t197 45.5q21 0 71 -4v-116q-49 6 -88 6z" />
    <glyph glyph-name="s" unicode="s" horiz-adv-x="1003" 
d="M510 88q131 0 201.5 51.5t70.5 128.5q0 84 -66 129t-233 90q-193 54 -278.5 131t-85.5 195q0 120 95.5 196t264.5 76q161 0 269.5 -82t136.5 -225h-135q-17 89 -87.5 141t-179.5 52q-105 0 -169 -41.5t-64 -110.5q0 -75 66 -127.5t225 -95.5q196 -55 284 -126.5
t88 -193.5q0 -138 -103 -219.5t-294 -81.5q-249 0 -438 234l59 63q179 -184 373 -184z" />
    <glyph glyph-name="t" unicode="t" horiz-adv-x="710" 
d="M653 90v-90q-63 -25 -139 -25q-272 0 -272 338v637h-209v78l209 33v287l129 30v-317h284v-111h-284v-655q0 -118 45 -162.5t145 -44.5q65 0 92 2z" />
    <glyph glyph-name="u" unicode="u" horiz-adv-x="1167" 
d="M582 -25q-205 0 -324 115.5t-119 343.5v627h127v-619q0 -173 86 -263.5t230 -90.5q146 0 231.5 90t85.5 264v619h127v-627q0 -228 -119 -343.5t-325 -115.5z" />
    <glyph glyph-name="v" unicode="v" horiz-adv-x="1058" 
d="M883 1061h137l-422 -1061h-139l-422 1061h137l354 -922z" />
    <glyph glyph-name="w" unicode="w" horiz-adv-x="1593" 
d="M735 1061h123l275 -903l284 903h139l-360 -1061h-127l-272 889l-273 -889h-127l-360 1061h139l285 -903z" />
    <glyph glyph-name="x" unicode="x" horiz-adv-x="995" 
d="M821 0l-325 455l-324 -455h-145l397 557l-358 504h145l285 -404l286 404h146l-359 -504l398 -557h-146z" />
    <glyph glyph-name="y" unicode="y" horiz-adv-x="1038" 
d="M160 -504l-39 90q138 57 207 134t123 233l18 53l-432 1055h133l360 -891l340 891h131l-428 -1120q-79 -208 -162.5 -297t-250.5 -148z" />
    <glyph glyph-name="z" unicode="z" horiz-adv-x="954" 
d="M57 0v102l660 848h-625v111h785v-105l-660 -845h680v-111h-840z" />
    <glyph glyph-name="braceleft" unicode="{" horiz-adv-x="768" 
d="M152 580v110q97 3 148.5 62.5t51.5 150.5v305q0 109 34.5 173t100.5 96q25 12 78 24t82 12l29 -88l-113 -34q-42 -12 -61 -49.5t-19 -114.5v-307q0 -126 -41 -191.5t-139 -93.5q98 -29 139 -94t41 -191v-307q0 -77 19 -114.5t61 -49.5l113 -37l-29 -86q-30 0 -83 12
t-77 25q-66 35 -100.5 97.5t-34.5 170.5v304q0 91 -51.5 151.5t-148.5 63.5z" />
    <glyph glyph-name="bar" unicode="|" horiz-adv-x="575" 
d="M231 -410v1985h113v-1985h-113z" />
    <glyph glyph-name="braceright" unicode="}" horiz-adv-x="768" 
d="M614 690v-110q-97 -3 -148.5 -63.5t-51.5 -151.5v-304q0 -108 -34.5 -170.5t-100.5 -97.5q-24 -13 -77 -25t-83 -12l-29 86l113 37q42 12 61 49.5t19 114.5v307q0 126 41 191t139 94q-98 28 -139 93.5t-41 191.5v307q0 77 -19 114.5t-61 49.5l-113 34l29 88q29 0 82 -12
t78 -24q66 -32 100.5 -96t34.5 -173v-305q0 -91 51.5 -150.5t148.5 -62.5z" />
    <glyph glyph-name="asciitilde" unicode="~" horiz-adv-x="1265" 
d="M600 618q-64 48 -113 70.5t-108 22.5t-102.5 -46.5t-65.5 -127.5l-113 20q22 121 97 196.5t182 75.5q129 0 287 -116q64 -48 112.5 -70t108.5 -22t103 45t65 127l112 -19q-22 -121 -96.5 -196.5t-181.5 -75.5q-137 0 -287 116z" />
    <glyph glyph-name="uni00A0" unicode="&#xa0;" horiz-adv-x="614" 
 />
    <glyph glyph-name="exclamdown" unicode="&#xa1;" horiz-adv-x="542" 
d="M346 -371h-149v351l30 735h86l33 -735v-351zM344 866h-145v195h145v-195z" />
    <glyph glyph-name="cent" unicode="&#xa2;" horiz-adv-x="1093" 
d="M88 530q0 234 126 386t329 167v179h98v-181q156 -15 266 -114.5t142 -264.5h-131q-27 113 -101.5 182.5t-175.5 84.5v-879q182 18 293 213l86 -51q-130 -254 -379 -275v-178h-98v178q-204 19 -329.5 170t-125.5 383zM219 530q0 -186 88.5 -301.5t235.5 -136.5v877
q-147 -18 -235.5 -134.5t-88.5 -304.5z" />
    <glyph glyph-name="sterling" unicode="&#xa3;" horiz-adv-x="1183" 
d="M651 1458q169 0 277 -109.5t123 -283.5h-133q-11 113 -80.5 191.5t-182.5 78.5q-130 0 -200 -73.5t-70 -223.5v-247h442v-91h-442v-194q0 -259 -139 -389h868v-117h-1026v104q164 142 164 377v219h-164v91h164v243q0 211 104.5 317.5t294.5 106.5z" />
    <glyph glyph-name="currency" unicode="&#xa4;" horiz-adv-x="1447" 
d="M455 322l-179 -181l-96 97l182 182q-81 114 -81 260q0 144 81 258l-182 182l96 97l179 -181q121 90 268 90q148 0 266 -90l182 181l95 -97l-183 -182q84 -119 84 -258q0 -145 -84 -262l183 -180l-95 -97l-182 181q-112 -89 -266 -89q-148 0 -268 89zM406 680
q0 -141 90 -233.5t227 -92.5t227 92.5t90 233.5q0 140 -90.5 233t-226.5 93t-226.5 -93t-90.5 -233z" />
    <glyph glyph-name="yen" unicode="&#xa5;" horiz-adv-x="1212" 
d="M109 659h376l-448 775h147l420 -725l422 725h148l-451 -775h381v-92h-432v-151h432v-92h-432v-324h-133v324h-430v92h430v151h-430v92z" />
    <glyph glyph-name="brokenbar" unicode="&#xa6;" horiz-adv-x="575" 
d="M231 451h113v-656h-113v656zM231 1409h113v-655h-113v655z" />
    <glyph glyph-name="section" unicode="&#xa7;" horiz-adv-x="1001" 
d="M883 647q0 -101 -58.5 -170.5t-160.5 -101.5q106 -37 164.5 -105.5t58.5 -160.5q0 -143 -101.5 -228.5t-289.5 -85.5q-213 0 -383 182l61 68q149 -139 324 -139q122 0 188 54.5t66 139.5q0 78 -64 132t-209 90q-175 42 -262.5 119.5t-87.5 197.5q0 97 58.5 169t158.5 105
q-219 81 -219 263q0 126 99 204t268 78q153 0 250 -76.5t126 -222.5h-133q-17 89 -84 139t-161 50q-103 0 -167.5 -50.5t-64.5 -126.5q0 -71 67.5 -118.5t213.5 -87.5q183 -50 262.5 -125.5t79.5 -192.5zM500 862q-238 -55 -238 -213q0 -85 60 -138t184 -81q110 11 177 67.5
t67 143.5q0 90 -60.5 141t-189.5 80z" />
    <glyph glyph-name="dieresis" unicode="&#xa8;" horiz-adv-x="819" 
d="M145 1434h138v-207h-138v207zM535 1434h137v-207h-137v207z" />
    <glyph glyph-name="copyright" unicode="&#xa9;" horiz-adv-x="1701" 
d="M113 717q0 151 58.5 288.5t157.5 236.5t235 157.5t286 58.5t286 -58.5t235 -157.5t157.5 -236.5t58.5 -288.5t-58.5 -288.5t-157.5 -237t-235 -158t-286 -58.5t-286 58.5t-235 158t-157.5 237t-58.5 288.5zM1499 717q0 178 -87.5 329t-237 238.5t-324.5 87.5t-324 -87.5
t-236 -238.5t-87 -329q0 -134 51.5 -256t138 -210t206.5 -140t251 -52t251 52t207.5 140t139 210t51.5 256zM451 711q0 195 109 318.5t286 123.5q153 0 258 -87.5t125 -231.5h-105q-17 101 -91 164t-179 63q-139 0 -218 -95.5t-79 -254.5t83 -255t228 -96q157 0 260 170
l70 -41q-117 -221 -338 -221q-182 0 -295.5 123.5t-113.5 319.5z" />
    <glyph glyph-name="ordfeminine" unicode="&#xaa;" horiz-adv-x="880" 
d="M92 909q0 105 80.5 177.5t208.5 72.5q154 0 258 -86v84q0 94 -44 144.5t-161 50.5q-175 0 -201 -125h-104q14 98 95.5 160.5t217.5 62.5q151 0 230.5 -69t79.5 -189v-395q0 -52 43 -52q33 0 53 5v-76q-32 -8 -64 -8q-107 0 -137 92q-102 -92 -266 -92q-125 0 -207 69.5
t-82 173.5zM401 762q137 0 238 82v145q-99 74 -238 74q-93 0 -143.5 -41.5t-50.5 -112.5q0 -66 51 -106.5t143 -40.5z" />
    <glyph glyph-name="guillemotleft" unicode="&#xab;" horiz-adv-x="1130" 
d="M102 612v52l107 77q169 123 352 234l49 -70l-366 -266l366 -268l-49 -70q-183 111 -352 234zM518 612v52l107 77q169 123 352 234l49 -70l-367 -266l367 -268l-49 -70q-183 111 -352 234z" />
    <glyph glyph-name="logicalnot" unicode="&#xac;" horiz-adv-x="1265" 
d="M121 776v119h1003v-555h-137v436h-866z" />
    <glyph glyph-name="uni00AD" unicode="&#xad;" horiz-adv-x="831" 
d="M700 614h-571v129h571v-129z" />
    <glyph glyph-name="registered" unicode="&#xae;" horiz-adv-x="1701" 
d="M113 717q0 151 58.5 288.5t157.5 236.5t235 157.5t286 58.5t286 -58.5t235 -157.5t157.5 -236.5t58.5 -288.5t-58.5 -288.5t-157.5 -237t-235 -158t-286 -58.5t-286 58.5t-235 158t-157.5 237t-58.5 288.5zM203 717q0 -134 51.5 -256t138 -210t206.5 -140t251 -52t251 52
t207.5 140t139 210t51.5 256q0 178 -87.5 329t-237 238.5t-324.5 87.5t-324 -87.5t-236 -238.5t-87 -329zM1176 895q0 -86 -47.5 -145t-133.5 -86l222 -375h-117l-207 358q-31 -2 -90 -2h-139v-356h-105v854h295q150 0 236 -65t86 -183zM1069 895q0 158 -221 158h-184v-320
h184q221 0 221 162z" />
    <glyph glyph-name="macron" unicode="&#xaf;" horiz-adv-x="819" 
d="M117 1274v104h583v-104h-583z" />
    <glyph glyph-name="degree" unicode="&#xb0;" horiz-adv-x="808" 
d="M137 1190q0 112 77.5 190t188.5 78q113 0 191 -78t78 -190q0 -110 -78.5 -188t-190.5 -78q-110 0 -188 78t-78 188zM242 1190q0 -71 46 -119.5t115 -48.5q70 0 117 48.5t47 119.5q0 72 -47 121t-117 49q-69 0 -115 -49t-46 -121z" />
    <glyph glyph-name="plusminus" unicode="&#xb1;" horiz-adv-x="1265" 
d="M1135 0h-1006v119h1006v-119zM563 236v438h-434v119h434v440h137v-440h435v-119h-435v-438h-137z" />
    <glyph glyph-name="twosuperior" unicode="&#xb2;" 
d="M684 485h-582v97q142 117 310 303q80 88 113.5 157.5t33.5 137.5q0 79 -46.5 122.5t-131.5 43.5q-161 0 -186 -189h-107q14 138 92 215.5t209 77.5q133 0 210 -71.5t77 -194.5q0 -80 -34 -156t-110 -168q-123 -147 -266 -272h418v-103z" />
    <glyph glyph-name="threesuperior" unicode="&#xb3;" 
d="M395 573q91 0 143 48.5t52 117.5q0 94 -66 140.5t-186 46.5h-86v102h88q105 0 165 45t60 121q0 68 -44.5 108.5t-129.5 40.5q-74 0 -124.5 -38t-59.5 -111h-115q17 123 99.5 189.5t197.5 66.5q133 0 213 -68.5t80 -181.5q0 -79 -47.5 -137.5t-118.5 -83.5q85 -27 138 -88
t53 -152q0 -118 -83 -194t-229 -76q-183 0 -305 166l62 53q104 -115 243 -115z" />
    <glyph glyph-name="acute" unicode="&#xb4;" horiz-adv-x="819" 
d="M498 1507l98 -80l-78 -77q-114 -114 -229 -197l-62 53z" />
    <glyph glyph-name="mu" unicode="&#xb5;" horiz-adv-x="1187" 
d="M547 88q100 0 195.5 54t166.5 130v789h127v-1061h-100l-21 150q-179 -175 -393 -175q-161 0 -246 88v-497h-126v1495h126v-676q0 -297 271 -297z" />
    <glyph glyph-name="paragraph" unicode="&#xb6;" horiz-adv-x="1148" 
d="M92 1020q0 197 130 305.5t333 108.5h399v-1702h-112v1587h-107v-1587h-117v868h-47q-131 0 -238 46.5t-174 143.5t-67 230z" />
    <glyph glyph-name="periodcentered" unicode="&#xb7;" horiz-adv-x="600" 
d="M211 793h135v-209h-135v209z" />
    <glyph glyph-name="cedilla" unicode="&#xb8;" horiz-adv-x="819" 
d="M367 -487q-108 0 -183 81l49 64q56 -47 132 -47q56 0 88 27t32 71q0 55 -51.5 87t-142.5 34l-10 14q62 131 75 156h111l-51 -102q88 -17 135 -71.5t47 -131.5q0 -76 -60.5 -129t-170.5 -53z" />
    <glyph glyph-name="onesuperior" unicode="&#xb9;" 
d="M397 1290l-161 -121l-74 84l248 183h102v-951h-115v805z" />
    <glyph glyph-name="ordmasculine" unicode="&#xba;" horiz-adv-x="880" 
d="M78 1059q0 169 101 280t261 111q159 0 261 -111.5t102 -279.5q0 -170 -102 -280.5t-261 -110.5q-160 0 -261 110.5t-101 280.5zM193 1059q0 -135 68.5 -215t178.5 -80t179 80t69 215q0 133 -69 213t-179 80t-178.5 -79.5t-68.5 -213.5z" />
    <glyph glyph-name="guillemotright" unicode="&#xbb;" horiz-adv-x="1130" 
d="M1028 664v-52q-227 -175 -459 -311h-2l-49 70l117 86l250 182l-367 266l49 70v-2l2 2q253 -152 459 -311zM612 664v-52l-108 -77q-58 -44 -150 -105q-121 -85 -200 -129h-2l-31 41l-2 4l-17 25q33 25 97 70.5t86 62.5l184 135l-367 266l15 19l24 37l11 14v-2l2 2
q47 -29 98 -64q122 -75 252 -170z" />
    <glyph glyph-name="onequarter" unicode="&#xbc;" horiz-adv-x="1986" 
d="M647 -27l-94 50l784 1441l93 -53zM397 1290l-161 -121l-74 84l248 183h102v-951h-115v805zM1634 209h-458v94l466 645h107v-637h115v-102h-115v-209h-115v209zM1634 762l-321 -451h321v451z" />
    <glyph glyph-name="onehalf" unicode="&#xbd;" horiz-adv-x="1986" 
d="M647 -27l-94 50l784 1441l93 -53zM397 1290l-161 -121l-74 84l248 183h102v-951h-115v805zM1831 0h-582v96q142 117 310 303q80 88 113.5 157.5t33.5 137.5q0 79 -46.5 122.5t-131.5 43.5q-163 0 -187 -188h-106q14 138 92 215.5t209 77.5q133 0 210 -72t77 -195
q0 -79 -33.5 -155t-110.5 -168q-126 -151 -266 -273h418v-102z" />
    <glyph glyph-name="threequarters" unicode="&#xbe;" horiz-adv-x="1986" 
d="M647 -27l-94 50l784 1441l93 -53zM1634 209h-458v94l466 645h107v-637h115v-102h-115v-209h-115v209zM1634 762l-321 -451h321v451zM401 573q91 0 143 48.5t52 117.5q0 94 -66 140.5t-186 46.5h-86v102h88q105 0 165 45t60 121q0 68 -44.5 108.5t-129.5 40.5
q-74 0 -124.5 -38t-59.5 -111h-115q17 123 99.5 189.5t197.5 66.5q133 0 213 -68.5t80 -181.5q0 -79 -47.5 -137.5t-118.5 -83.5q85 -27 138 -88t53 -152q0 -118 -83 -194t-229 -76q-183 0 -305 166l62 53q104 -115 243 -115z" />
    <glyph glyph-name="questiondown" unicode="&#xbf;" horiz-adv-x="1062" 
d="M547 -397q-188 0 -297 97t-109 255q0 88 31 157.5t81 119.5t138 112q91 63 124.5 136.5t33.5 187.5v47h92q21 -86 21 -156q0 -48 -9.5 -87.5t-24 -68.5t-43.5 -59t-55.5 -51.5t-72.5 -54.5q-92 -65 -136.5 -128.5t-44.5 -142.5q0 -111 76 -176t207 -65q115 0 190 69
t93 180h135q-20 -163 -133 -267.5t-297 -104.5zM664 866h-146v195h146v-195z" />
    <glyph glyph-name="Agrave" unicode="&#xc0;" horiz-adv-x="1363" 
d="M608 1434h148l561 -1434h-148l-147 391h-680l-147 -391h-148zM682 1292l-297 -782h594zM414 1827l98 80l281 -299l-60 -49q-111 70 -256 208z" />
    <glyph glyph-name="Aacute" unicode="&#xc1;" horiz-adv-x="1363" 
d="M608 1434h148l561 -1434h-148l-147 391h-680l-147 -391h-148zM682 1292l-297 -782h594zM848 1905l98 -80l-78 -78q-114 -114 -229 -197l-61 54z" />
    <glyph glyph-name="Acircumflex" unicode="&#xc2;" horiz-adv-x="1363" 
d="M608 1434h148l561 -1434h-148l-147 391h-680l-147 -391h-148zM682 1292l-297 -782h594zM635 1892h92l66 -73q131 -147 194 -236l-55 -47l-250 246l-252 -246l-55 47q74 105 194 236z" />
    <glyph glyph-name="Atilde" unicode="&#xc3;" horiz-adv-x="1363" 
d="M608 1434h148l561 -1434h-148l-147 391h-680l-147 -391h-148zM682 1292l-297 -782h594zM655 1681q-59 56 -110 56q-35 0 -61 -28.5t-38 -78.5l-96 17q23 93 74 142.5t121 49.5q31 0 62 -12.5t49 -24.5t49 -37q62 -51 112 -51q33 0 58.5 29t39.5 80l97 -17
q-23 -93 -74 -142.5t-121 -49.5q-89 0 -162 67z" />
    <glyph glyph-name="Adieresis" unicode="&#xc4;" horiz-adv-x="1363" 
d="M608 1434h148l561 -1434h-148l-147 391h-680l-147 -391h-148zM682 1292l-297 -782h594zM418 1831h137v-207h-137v207zM807 1831h137v-207h-137v207z" />
    <glyph glyph-name="Aring" unicode="&#xc5;" horiz-adv-x="1363" 
d="M608 1434h148l561 -1434h-148l-147 391h-680l-147 -391h-148zM682 1292l-297 -782h594zM479 1726q0 83 58.5 140t144.5 57q85 0 143 -57t58 -140q0 -84 -58 -141t-143 -57q-86 0 -144.5 56.5t-58.5 141.5zM578 1726q0 -46 30 -76t74 -30q43 0 72.5 30.5t29.5 75.5
q0 44 -29.5 74.5t-72.5 30.5q-44 0 -74 -30.5t-30 -74.5z" />
    <glyph glyph-name="AE" unicode="&#xc6;" horiz-adv-x="1761" 
d="M817 1434h838v-119h-629v-516h557v-119h-557v-563h647v-117h-780v389h-487l-207 -389h-152zM893 508v799l-426 -799h426z" />
    <glyph glyph-name="Ccedilla" unicode="&#xc7;" horiz-adv-x="1392" 
d="M98 717q0 214 81 382.5t229.5 263.5t341.5 95q249 0 403 -142.5t180 -363.5h-139q-25 171 -144 277t-296 106q-228 0 -374.5 -167.5t-146.5 -450.5q0 -284 146.5 -452.5t374.5 -168.5q300 0 467 275l88 -56q-171 -303 -484 -333l-41 -84q88 -17 138.5 -69.5t50.5 -125.5
q0 -75 -61 -132.5t-173 -57.5q-107 0 -182 84l49 61q53 -47 129 -47q56 0 88.5 28t32.5 70q0 55 -51.5 88t-130.5 33l-19 20l62 127q-184 7 -325 103t-217.5 262t-76.5 375z" />
    <glyph glyph-name="Egrave" unicode="&#xc8;" horiz-adv-x="1148" 
d="M170 0v1434h872v-119h-739v-516h668v-119h-668v-561h758v-119h-891zM375 1827l98 80l281 -299l-60 -49q-111 70 -256 208z" />
    <glyph glyph-name="Eacute" unicode="&#xc9;" horiz-adv-x="1148" 
d="M170 0v1434h872v-119h-739v-516h668v-119h-668v-561h758v-119h-891zM752 1905l98 -80l-78 -78q-114 -114 -229 -197l-62 54z" />
    <glyph glyph-name="Ecircumflex" unicode="&#xca;" horiz-adv-x="1148" 
d="M170 0v1434h872v-119h-739v-516h668v-119h-668v-561h758v-119h-891zM567 1892h92l66 -73q136 -152 195 -236l-56 -47l-250 246l-252 -246l-55 47q71 100 195 236z" />
    <glyph glyph-name="Edieresis" unicode="&#xcb;" horiz-adv-x="1148" 
d="M170 0v1434h872v-119h-739v-516h668v-119h-668v-561h758v-119h-891zM350 1831h137v-207h-137v207zM739 1831h138v-207h-138v207z" />
    <glyph glyph-name="Igrave" unicode="&#xcc;" horiz-adv-x="495" 
d="M180 1434h133v-1434h-133v1434zM-80 1827l98 80l281 -299l-59 -49q-111 70 -256 208z" />
    <glyph glyph-name="Iacute" unicode="&#xcd;" horiz-adv-x="495" 
d="M180 1434h133v-1434h-133v1434zM471 1905l98 -80l-77 -78q-112 -112 -230 -197l-61 54z" />
    <glyph glyph-name="Icircumflex" unicode="&#xce;" horiz-adv-x="495" 
d="M180 1434h133v-1434h-133v1434zM201 1892h92l65 -73q136 -152 195 -236l-55 -47l-250 246l-252 -246l-55 47q74 105 194 236z" />
    <glyph glyph-name="Idieresis" unicode="&#xcf;" horiz-adv-x="495" 
d="M180 1434h133v-1434h-133v1434zM-16 1831h137v-207h-137v207zM373 1831h137v-207h-137v207z" />
    <glyph glyph-name="Eth" unicode="&#xd0;" horiz-adv-x="1394" 
d="M631 0h-447v662h-164v108h164v664h447q310 0 486.5 -192.5t176.5 -524.5q0 -334 -176 -525.5t-487 -191.5zM317 117h301q254 0 397.5 159t143.5 441q0 280 -144 439t-397 159h-301v-545h359v-108h-359v-545z" />
    <glyph glyph-name="Ntilde" unicode="&#xd1;" horiz-adv-x="1429" 
d="M170 0v1434h129l831 -1223v1223h127v-1434h-129l-829 1221v-1221h-129zM688 1681q-59 56 -110 56q-35 0 -61 -28.5t-38 -78.5l-96 17q23 93 74 142.5t121 49.5q31 0 62 -12.5t48 -24.5t49 -37q62 -51 113 -51q33 0 58.5 29t39.5 80l96 -17q-23 -93 -73.5 -142.5
t-120.5 -49.5q-89 0 -162 67z" />
    <glyph glyph-name="Ograve" unicode="&#xd2;" horiz-adv-x="1449" 
d="M1352 717q0 -157 -43 -292.5t-122 -235.5t-198 -157t-264 -57t-264 57t-198 157t-122 235.5t-43 292.5t43 292t122 235t198 157t264 57t264 -57t198 -157t122 -235t43 -292zM236 717q0 -280 132.5 -450.5t356.5 -170.5q225 0 357 170t132 451q0 279 -132 449.5
t-357 170.5q-224 0 -356.5 -170.5t-132.5 -449.5zM483 1827l99 80l280 -299l-59 -49q-111 70 -256 208z" />
    <glyph glyph-name="Oacute" unicode="&#xd3;" horiz-adv-x="1449" 
d="M1352 717q0 -157 -43 -292.5t-122 -235.5t-198 -157t-264 -57t-264 57t-198 157t-122 235.5t-43 292.5t43 292t122 235t198 157t264 57t264 -57t198 -157t122 -235t43 -292zM236 717q0 -280 132.5 -450.5t356.5 -170.5q225 0 357 170t132 451q0 279 -132 449.5
t-357 170.5q-224 0 -356.5 -170.5t-132.5 -449.5zM864 1905l99 -80l-78 -78q-112 -112 -230 -197l-61 54z" />
    <glyph glyph-name="Ocircumflex" unicode="&#xd4;" horiz-adv-x="1449" 
d="M1352 717q0 -157 -43 -292.5t-122 -235.5t-198 -157t-264 -57t-264 57t-198 157t-122 235.5t-43 292.5t43 292t122 235t198 157t264 57t264 -57t198 -157t122 -235t43 -292zM236 717q0 -280 132.5 -450.5t356.5 -170.5q225 0 357 170t132 451q0 279 -132 449.5
t-357 170.5q-224 0 -356.5 -170.5t-132.5 -449.5zM678 1892h92l66 -73q131 -147 194 -236l-55 -47l-250 246l-252 -246l-55 47q74 105 194 236z" />
    <glyph glyph-name="Otilde" unicode="&#xd5;" horiz-adv-x="1449" 
d="M1352 717q0 -157 -43 -292.5t-122 -235.5t-198 -157t-264 -57t-264 57t-198 157t-122 235.5t-43 292.5t43 292t122 235t198 157t264 57t264 -57t198 -157t122 -235t43 -292zM236 717q0 -280 132.5 -450.5t356.5 -170.5q225 0 357 170t132 451q0 279 -132 449.5
t-357 170.5q-224 0 -356.5 -170.5t-132.5 -449.5zM698 1681q-59 56 -110 56q-35 0 -61 -28.5t-38 -78.5l-96 17q23 93 74 142.5t121 49.5q31 0 62 -12.5t49 -24.5t49 -37q62 -51 112 -51q33 0 58.5 29t39.5 80l97 -17q-23 -93 -74 -142.5t-121 -49.5q-89 0 -162 67z" />
    <glyph glyph-name="Odieresis" unicode="&#xd6;" horiz-adv-x="1449" 
d="M1352 717q0 -157 -43 -292.5t-122 -235.5t-198 -157t-264 -57t-264 57t-198 157t-122 235.5t-43 292.5t43 292t122 235t198 157t264 57t264 -57t198 -157t122 -235t43 -292zM236 717q0 -280 132.5 -450.5t356.5 -170.5q225 0 357 170t132 451q0 279 -132 449.5
t-357 170.5q-224 0 -356.5 -170.5t-132.5 -449.5zM461 1831h137v-207h-137v207zM850 1831h137v-207h-137v207z" />
    <glyph glyph-name="multiply" unicode="&#xd7;" horiz-adv-x="1265" 
d="M725 680l336 -334l-92 -94l-336 336l-338 -336l-92 94l336 334l-336 336l92 92l338 -336l336 336l92 -92z" />
    <glyph glyph-name="Oslash" unicode="&#xd8;" horiz-adv-x="1449" 
d="M145 -12l129 184q-176 207 -176 545q0 157 43 292t122 235t198 157t264 57q216 0 369 -125l125 176l88 -61l-133 -188q86 -101 132 -240.5t46 -302.5q0 -157 -43 -292.5t-122 -235.5t-198 -157t-264 -57q-216 0 -371 123l-121 -172zM1214 717q0 264 -120 432l-666 -946
q126 -107 297 -107q225 0 357 170t132 451zM236 717q0 -267 118 -432l666 944q-124 108 -295 108q-224 0 -356.5 -170.5t-132.5 -449.5z" />
    <glyph glyph-name="Ugrave" unicode="&#xd9;" horiz-adv-x="1449" 
d="M725 -25q-121 0 -221.5 35.5t-175.5 105.5t-116.5 181.5t-41.5 255.5v881h133v-871q0 -228 108 -347.5t314 -119.5t314 119.5t108 347.5v871h133v-881q0 -286 -148.5 -432t-406.5 -146zM422 1827l98 80l281 -299l-60 -49q-111 70 -256 208z" />
    <glyph glyph-name="Uacute" unicode="&#xda;" horiz-adv-x="1449" 
d="M725 -25q-121 0 -221.5 35.5t-175.5 105.5t-116.5 181.5t-41.5 255.5v881h133v-871q0 -228 108 -347.5t314 -119.5t314 119.5t108 347.5v871h133v-881q0 -286 -148.5 -432t-406.5 -146zM926 1905l98 -80l-78 -78q-114 -114 -229 -197l-62 54z" />
    <glyph glyph-name="Ucircumflex" unicode="&#xdb;" horiz-adv-x="1449" 
d="M725 -25q-121 0 -221.5 35.5t-175.5 105.5t-116.5 181.5t-41.5 255.5v881h133v-871q0 -228 108 -347.5t314 -119.5t314 119.5t108 347.5v871h133v-881q0 -286 -148.5 -432t-406.5 -146zM678 1892h92l66 -73q131 -147 194 -236l-55 -47l-250 246l-252 -246l-55 47
q74 105 194 236z" />
    <glyph glyph-name="Udieresis" unicode="&#xdc;" horiz-adv-x="1449" 
d="M725 -25q-121 0 -221.5 35.5t-175.5 105.5t-116.5 181.5t-41.5 255.5v881h133v-871q0 -228 108 -347.5t314 -119.5t314 119.5t108 347.5v871h133v-881q0 -286 -148.5 -432t-406.5 -146zM461 1831h137v-207h-137v207zM850 1831h137v-207h-137v207z" />
    <glyph glyph-name="Yacute" unicode="&#xdd;" horiz-adv-x="1212" 
d="M1174 1434l-502 -867v-567h-133v567l-502 867h149l420 -723l420 723h148zM817 1905l98 -80l-77 -78q-112 -112 -230 -197l-61 54z" />
    <glyph glyph-name="Thorn" unicode="&#xde;" horiz-adv-x="1193" 
d="M303 1165h285q250 0 388 -112.5t138 -325.5q0 -214 -137.5 -326t-388.5 -112h-285v-289h-133v1434h133v-269zM573 1047h-270v-639h270q406 0 406 319q0 320 -406 320z" />
    <glyph glyph-name="germandbls" unicode="&#xdf;" horiz-adv-x="1155" 
d="M406 70l47 90q103 -64 204 -64q139 0 216 76t77 209q0 156 -115 243t-303 89v121q144 0 217.5 70t73.5 192q0 106 -69.5 172.5t-190.5 66.5q-153 0 -212.5 -106.5t-59.5 -323.5v-905h-135v981q0 232 104 354.5t307 122.5q170 0 280.5 -104.5t110.5 -255.5
q0 -243 -229 -322q159 -31 257.5 -132.5t98.5 -266.5q0 -192 -108 -297t-303 -105q-67 0 -142 26.5t-126 68.5z" />
    <glyph glyph-name="agrave" unicode="&#xe0;" horiz-adv-x="1105" 
d="M1096 88v-102q-37 -11 -78 -11q-64 0 -111 35t-61 115q-147 -150 -361 -150q-179 0 -288 93.5t-109 240.5q0 146 109.5 240t287.5 94q210 0 353 -106v155q0 138 -70.5 208.5t-228.5 70.5q-116 0 -184.5 -54.5t-82.5 -146.5h-133q18 142 124.5 228.5t283.5 86.5
q200 0 310 -95t110 -271v-557q0 -37 17 -57.5t46 -20.5q16 0 66 4zM512 88q180 0 326 139v191q-133 110 -326 110q-135 0 -214 -56.5t-79 -162.5q0 -108 78.5 -164.5t214.5 -56.5zM303 1470l98 80l281 -299l-59 -49q-108 68 -256 209z" />
    <glyph glyph-name="aacute" unicode="&#xe1;" horiz-adv-x="1105" 
d="M1096 88v-102q-37 -11 -78 -11q-64 0 -111 35t-61 115q-147 -150 -361 -150q-179 0 -288 93.5t-109 240.5q0 146 109.5 240t287.5 94q210 0 353 -106v155q0 138 -70.5 208.5t-228.5 70.5q-116 0 -184.5 -54.5t-82.5 -146.5h-133q18 142 124.5 228.5t283.5 86.5
q200 0 310 -95t110 -271v-557q0 -37 17 -57.5t46 -20.5q16 0 66 4zM512 88q180 0 326 139v191q-133 110 -326 110q-135 0 -214 -56.5t-79 -162.5q0 -108 78.5 -164.5t214.5 -56.5zM715 1548l98 -80l-78 -77q-114 -114 -229 -197l-62 53z" />
    <glyph glyph-name="acircumflex" unicode="&#xe2;" horiz-adv-x="1105" 
d="M1096 88v-102q-37 -11 -78 -11q-64 0 -111 35t-61 115q-147 -150 -361 -150q-179 0 -288 93.5t-109 240.5q0 146 109.5 240t287.5 94q210 0 353 -106v155q0 138 -70.5 208.5t-228.5 70.5q-116 0 -184.5 -54.5t-82.5 -146.5h-133q18 142 124.5 228.5t283.5 86.5
q200 0 310 -95t110 -271v-557q0 -37 17 -57.5t46 -20.5q16 0 66 4zM512 88q180 0 326 139v191q-133 110 -326 110q-135 0 -214 -56.5t-79 -162.5q0 -108 78.5 -164.5t214.5 -56.5zM516 1536h92l66 -74q134 -151 194 -235l-55 -47l-250 245l-252 -245l-55 47q68 96 195 235z
" />
    <glyph glyph-name="atilde" unicode="&#xe3;" horiz-adv-x="1105" 
d="M1096 88v-102q-37 -11 -78 -11q-64 0 -111 35t-61 115q-147 -150 -361 -150q-179 0 -288 93.5t-109 240.5q0 146 109.5 240t287.5 94q210 0 353 -106v155q0 138 -70.5 208.5t-228.5 70.5q-116 0 -184.5 -54.5t-82.5 -146.5h-133q18 142 124.5 228.5t283.5 86.5
q200 0 310 -95t110 -271v-557q0 -37 17 -57.5t46 -20.5q16 0 66 4zM512 88q180 0 326 139v191q-133 110 -326 110q-135 0 -214 -56.5t-79 -162.5q0 -108 78.5 -164.5t214.5 -56.5zM532 1325q-58 55 -110 55q-35 0 -60.5 -28t-37.5 -78l-97 16q23 93 74 143t121 50
q31 0 62 -12.5t49 -24.5t49 -37q62 -51 112 -51q33 0 59 29t40 79l96 -16q-23 -93 -74 -143t-121 -50q-88 0 -162 68z" />
    <glyph glyph-name="adieresis" unicode="&#xe4;" horiz-adv-x="1105" 
d="M1096 88v-102q-37 -11 -78 -11q-64 0 -111 35t-61 115q-147 -150 -361 -150q-179 0 -288 93.5t-109 240.5q0 146 109.5 240t287.5 94q210 0 353 -106v155q0 138 -70.5 208.5t-228.5 70.5q-116 0 -184.5 -54.5t-82.5 -146.5h-133q18 142 124.5 228.5t283.5 86.5
q200 0 310 -95t110 -271v-557q0 -37 17 -57.5t46 -20.5q16 0 66 4zM512 88q180 0 326 139v191q-133 110 -326 110q-135 0 -214 -56.5t-79 -162.5q0 -108 78.5 -164.5t214.5 -56.5zM315 1475h138v-207h-138v207zM705 1475h137v-207h-137v207z" />
    <glyph glyph-name="aring" unicode="&#xe5;" horiz-adv-x="1105" 
d="M1096 88v-102q-37 -11 -78 -11q-64 0 -111 35t-61 115q-147 -150 -361 -150q-179 0 -288 93.5t-109 240.5q0 146 109.5 240t287.5 94q210 0 353 -106v155q0 138 -70.5 208.5t-228.5 70.5q-116 0 -184.5 -54.5t-82.5 -146.5h-133q18 142 124.5 228.5t283.5 86.5
q200 0 310 -95t110 -271v-557q0 -37 17 -57.5t46 -20.5q16 0 66 4zM512 88q180 0 326 139v191q-133 110 -326 110q-135 0 -214 -56.5t-79 -162.5q0 -108 78.5 -164.5t214.5 -56.5zM369 1370q0 83 58 140t144 57q85 0 143 -57t58 -140q0 -85 -58 -142t-143 -57q-86 0 -144 57
t-58 142zM467 1370q0 -46 30 -76t74 -30q43 0 73 30.5t30 75.5q0 44 -30 74.5t-73 30.5q-44 0 -74 -30.5t-30 -74.5z" />
    <glyph glyph-name="ae" unicode="&#xe6;" horiz-adv-x="1894" 
d="M836 537q0 91 2 122v33q0 138 -70.5 208.5t-228.5 70.5q-118 0 -185.5 -54t-81.5 -147h-133q18 142 124.5 228.5t283.5 86.5q306 0 379 -229q63 106 168 167.5t233 61.5q214 0 351 -154.5t137 -398.5v-53h-848q14 -176 117.5 -283.5t269.5 -107.5q95 0 177.5 44.5
t141.5 125.5l82 -55q-75 -115 -173 -171.5t-232 -56.5q-130 0 -236.5 55.5t-175.5 153.5q-174 -209 -453 -209q-179 0 -288 93.5t-109 240.5q0 146 109.5 240t287.5 94q203 0 351 -106zM512 528q-135 0 -214 -56.5t-79 -162.5q0 -108 78.5 -164.5t214.5 -56.5
q113 0 210.5 51.5t158.5 136.5q-28 64 -37 130q-136 122 -332 122zM967 588h716q-6 171 -107 277t-249 106q-149 0 -248 -105t-112 -278z" />
    <glyph glyph-name="ccedilla" unicode="&#xe7;" horiz-adv-x="1093" 
d="M88 530q0 246 137 400.5t357 154.5q177 0 303.5 -99.5t161.5 -278.5h-134q-29 124 -116.5 195t-206.5 71q-167 0 -269 -119.5t-102 -323.5q0 -203 106.5 -322.5t280.5 -119.5q101 0 185.5 56t144.5 157l86 -51q-125 -244 -360 -270l-41 -82q88 -18 136 -71t48 -126
q0 -77 -60 -132.5t-174 -55.5q-104 0 -182 81l49 64q56 -47 131 -47q56 0 88.5 27t32.5 71q0 55 -51 86.5t-143 34.5l-11 14l66 133q-206 15 -334.5 167t-128.5 386z" />
    <glyph glyph-name="egrave" unicode="&#xe8;" horiz-adv-x="1148" 
d="M606 88q97 0 179.5 44.5t140.5 125.5l80 -55q-75 -116 -172 -172t-230 -56q-154 0 -272.5 74.5t-181 200t-62.5 280.5q0 242 138 398.5t354 156.5q214 0 351.5 -154.5t137.5 -398.5q0 -37 -2 -53h-846q12 -176 116 -283.5t269 -107.5zM221 588h715q-6 171 -107 277
t-249 106t-247 -105t-112 -278zM348 1470l98 80l281 -299l-59 -49q-108 68 -256 209z" />
    <glyph glyph-name="eacute" unicode="&#xe9;" horiz-adv-x="1148" 
d="M606 88q97 0 179.5 44.5t140.5 125.5l80 -55q-75 -116 -172 -172t-230 -56q-154 0 -272.5 74.5t-181 200t-62.5 280.5q0 242 138 398.5t354 156.5q214 0 351.5 -154.5t137.5 -398.5q0 -37 -2 -53h-846q12 -176 116 -283.5t269 -107.5zM221 588h715q-6 171 -107 277
t-249 106t-247 -105t-112 -278zM739 1548l99 -80l-78 -77q-112 -112 -230 -197l-61 53z" />
    <glyph glyph-name="ecircumflex" unicode="&#xea;" horiz-adv-x="1148" 
d="M606 88q97 0 179.5 44.5t140.5 125.5l80 -55q-75 -116 -172 -172t-230 -56q-154 0 -272.5 74.5t-181 200t-62.5 280.5q0 242 138 398.5t354 156.5q214 0 351.5 -154.5t137.5 -398.5q0 -37 -2 -53h-846q12 -176 116 -283.5t269 -107.5zM221 588h715q-6 171 -107 277
t-249 106t-247 -105t-112 -278zM535 1536h92l65 -74q139 -156 195 -235l-56 -47l-249 245l-252 -245l-56 47q68 96 195 235z" />
    <glyph glyph-name="edieresis" unicode="&#xeb;" horiz-adv-x="1148" 
d="M606 88q97 0 179.5 44.5t140.5 125.5l80 -55q-75 -116 -172 -172t-230 -56q-154 0 -272.5 74.5t-181 200t-62.5 280.5q0 242 138 398.5t354 156.5q214 0 351.5 -154.5t137.5 -398.5q0 -37 -2 -53h-846q12 -176 116 -283.5t269 -107.5zM221 588h715q-6 171 -107 277
t-249 106t-247 -105t-112 -278zM322 1475h137v-207h-137v207zM711 1475h137v-207h-137v207z" />
    <glyph glyph-name="igrave" unicode="&#xec;" horiz-adv-x="454" 
d="M-94 1470l98 80l281 -299l-60 -49q-108 68 -256 209zM164 0v1061h127v-1061h-127z" />
    <glyph glyph-name="iacute" unicode="&#xed;" horiz-adv-x="454" 
d="M446 1548l99 -80l-78 -77q-114 -114 -229 -197l-62 53zM164 0v1061h127v-1061h-127z" />
    <glyph glyph-name="icircumflex" unicode="&#xee;" horiz-adv-x="454" 
d="M164 0v1061h127v-1061h-127zM180 1536h92l66 -74q134 -151 194 -235l-55 -47l-250 245l-252 -245l-55 47q68 96 195 235z" />
    <glyph glyph-name="idieresis" unicode="&#xef;" horiz-adv-x="454" 
d="M-37 1475h137v-207h-137v207zM352 1475h137v-207h-137v207zM164 0v1061h127v-1061h-127z" />
    <glyph glyph-name="eth" unicode="&#xf0;" horiz-adv-x="1142" 
d="M326 1200l266 82q-99 63 -234 98l9 115q237 -55 376 -168l322 98l33 -98l-264 -80q196 -218 196 -583q0 -326 -125.5 -507.5t-365.5 -181.5q-197 0 -321 139t-124 382q0 247 121 383.5t330 136.5q96 0 185.5 -40.5t150.5 -105.5q-41 207 -179 336l-344 -102zM901 666v53
q-66 88 -160 135t-196 47q-149 0 -234.5 -107t-85.5 -298q0 -186 84 -297t230 -111q172 0 267 143t95 435z" />
    <glyph glyph-name="ntilde" unicode="&#xf1;" horiz-adv-x="1177" 
d="M639 971q-100 0 -196 -54t-167 -131v-786h-126v1061h100l20 -152q180 176 394 176q175 0 273.5 -100t98.5 -289v-696h-127v664q0 154 -66 230.5t-204 76.5zM563 1325q-58 55 -110 55q-35 0 -61 -28t-38 -78l-96 16q23 93 74 143t121 50q31 0 62 -12.5t48 -24.5t49 -37
q62 -51 113 -51q33 0 58.5 29t39.5 79l97 -16q-23 -93 -74 -143t-121 -50q-88 0 -162 68z" />
    <glyph glyph-name="ograve" unicode="&#xf2;" horiz-adv-x="1177" 
d="M1087 530q0 -244 -137 -399.5t-362 -155.5t-362.5 155.5t-137.5 399.5q0 159 61 285t175.5 198t263.5 72q224 0 361.5 -156.5t137.5 -398.5zM958 530q0 200 -101 320.5t-269 120.5t-268.5 -120.5t-100.5 -320.5q0 -201 100 -321.5t269 -120.5t269.5 120.5t100.5 321.5z
M344 1470l98 80l281 -299l-59 -49q-108 68 -256 209z" />
    <glyph glyph-name="oacute" unicode="&#xf3;" horiz-adv-x="1177" 
d="M1087 530q0 -244 -137 -399.5t-362 -155.5t-362.5 155.5t-137.5 399.5q0 159 61 285t175.5 198t263.5 72q224 0 361.5 -156.5t137.5 -398.5zM958 530q0 200 -101 320.5t-269 120.5t-268.5 -120.5t-100.5 -320.5q0 -201 100 -321.5t269 -120.5t269.5 120.5t100.5 321.5z
M729 1548l98 -80l-77 -77q-112 -112 -230 -197l-61 53z" />
    <glyph glyph-name="ocircumflex" unicode="&#xf4;" horiz-adv-x="1177" 
d="M1087 530q0 -244 -137 -399.5t-362 -155.5t-362.5 155.5t-137.5 399.5q0 159 61 285t175.5 198t263.5 72q224 0 361.5 -156.5t137.5 -398.5zM958 530q0 200 -101 320.5t-269 120.5t-268.5 -120.5t-100.5 -320.5q0 -201 100 -321.5t269 -120.5t269.5 120.5t100.5 321.5z
M541 1536h92l65 -74q139 -156 195 -235l-55 -47l-250 245l-252 -245l-55 47q71 100 194 235z" />
    <glyph glyph-name="otilde" unicode="&#xf5;" horiz-adv-x="1177" 
d="M1087 530q0 -244 -137 -399.5t-362 -155.5t-362.5 155.5t-137.5 399.5q0 159 61 285t175.5 198t263.5 72q224 0 361.5 -156.5t137.5 -398.5zM958 530q0 200 -101 320.5t-269 120.5t-268.5 -120.5t-100.5 -320.5q0 -201 100 -321.5t269 -120.5t269.5 120.5t100.5 321.5z
M561 1325q-58 55 -110 55q-35 0 -61 -28t-38 -78l-96 16q23 93 74 143t121 50q31 0 62 -12.5t48 -24.5t49 -37q62 -51 113 -51q33 0 58.5 29t39.5 79l97 -16q-23 -93 -74 -143t-121 -50q-88 0 -162 68z" />
    <glyph glyph-name="odieresis" unicode="&#xf6;" horiz-adv-x="1177" 
d="M1087 530q0 -244 -137 -399.5t-362 -155.5t-362.5 155.5t-137.5 399.5q0 159 61 285t175.5 198t263.5 72q224 0 361.5 -156.5t137.5 -398.5zM958 530q0 200 -101 320.5t-269 120.5t-268.5 -120.5t-100.5 -320.5q0 -201 100 -321.5t269 -120.5t269.5 120.5t100.5 321.5z
M324 1475h137v-207h-137v207zM713 1475h137v-207h-137v207z" />
    <glyph glyph-name="divide" unicode="&#xf7;" horiz-adv-x="1265" 
d="M129 737h1006v-116h-1006v116zM563 1178h137v-207h-137v207zM563 387h137v-207h-137v207z" />
    <glyph glyph-name="oslash" unicode="&#xf8;" horiz-adv-x="1177" 
d="M858 1004l100 143l86 -62l-104 -147q71 -74 109 -179t38 -229q0 -244 -137 -399.5t-362 -155.5q-152 0 -273 78l-98 -139l-86 61l102 146q-145 158 -145 409q0 159 61 285t175.5 198t263.5 72q152 0 270 -81zM958 530q0 180 -90 304l-485 -684q86 -62 205 -62
q169 0 269.5 120.5t100.5 321.5zM588 971q-168 0 -268.5 -120.5t-100.5 -320.5q0 -188 88 -305l484 684q-87 62 -203 62z" />
    <glyph glyph-name="ugrave" unicode="&#xf9;" horiz-adv-x="1167" 
d="M582 -25q-205 0 -324 115.5t-119 343.5v627h127v-619q0 -173 86 -263.5t230 -90.5q146 0 231.5 90t85.5 264v619h127v-627q0 -228 -119 -343.5t-325 -115.5zM301 1470l98 80l281 -299l-59 -49q-108 68 -256 209z" />
    <glyph glyph-name="uacute" unicode="&#xfa;" horiz-adv-x="1167" 
d="M582 -25q-205 0 -324 115.5t-119 343.5v627h127v-619q0 -173 86 -263.5t230 -90.5q146 0 231.5 90t85.5 264v619h127v-627q0 -228 -119 -343.5t-325 -115.5zM756 1548l98 -80l-78 -77q-114 -114 -229 -197l-62 53z" />
    <glyph glyph-name="ucircumflex" unicode="&#xfb;" horiz-adv-x="1167" 
d="M582 -25q-205 0 -324 115.5t-119 343.5v627h127v-619q0 -173 86 -263.5t230 -90.5q146 0 231.5 90t85.5 264v619h127v-627q0 -228 -119 -343.5t-325 -115.5zM537 1536h92l65 -74q139 -156 195 -235l-55 -47l-250 245l-252 -245l-56 47q68 96 195 235z" />
    <glyph glyph-name="udieresis" unicode="&#xfc;" horiz-adv-x="1167" 
d="M582 -25q-205 0 -324 115.5t-119 343.5v627h127v-619q0 -173 86 -263.5t230 -90.5q146 0 231.5 90t85.5 264v619h127v-627q0 -228 -119 -343.5t-325 -115.5zM319 1475h138v-207h-138v207zM709 1475h137v-207h-137v207z" />
    <glyph glyph-name="yacute" unicode="&#xfd;" horiz-adv-x="1038" 
d="M160 -504l-39 90q138 57 207 134t123 233l18 53l-432 1055h133l360 -891l340 891h131l-428 -1120q-79 -208 -162.5 -297t-250.5 -148zM690 1548l98 -80l-77 -77q-112 -112 -230 -197l-61 53z" />
    <glyph glyph-name="thorn" unicode="&#xfe;" horiz-adv-x="1181" 
d="M276 819v-581q61 -67 152 -108.5t180 -41.5q174 0 260 113.5t86 328.5q0 213 -86 327t-260 114q-89 0 -180.5 -42t-151.5 -110zM276 1495v-557q69 68 162 107.5t193 39.5q217 0 335.5 -148t118.5 -407q0 -261 -118 -408t-336 -147q-100 0 -192.5 39t-162.5 105v-553h-126
v1929h126z" />
    <glyph glyph-name="ydieresis" unicode="&#xff;" horiz-adv-x="1038" 
d="M160 -504l-39 90q138 57 207 134t123 233l18 53l-432 1055h133l360 -891l340 891h131l-428 -1120q-79 -208 -162.5 -297t-250.5 -148zM256 1475h137v-207h-137v207zM645 1475h137v-207h-137v207z" />
    <glyph glyph-name="Amacron" unicode="&#x100;" horiz-adv-x="1363" 
d="M608 1434h148l561 -1434h-148l-147 391h-680l-147 -391h-148zM682 1292l-297 -782h594zM389 1673v105h584v-105h-584z" />
    <glyph glyph-name="amacron" unicode="&#x101;" horiz-adv-x="1105" 
d="M1096 88v-102q-37 -11 -78 -11q-64 0 -111 35t-61 115q-147 -150 -361 -150q-179 0 -288 93.5t-109 240.5q0 146 109.5 240t287.5 94q210 0 353 -106v155q0 138 -70.5 208.5t-228.5 70.5q-116 0 -184.5 -54.5t-82.5 -146.5h-133q18 142 124.5 228.5t283.5 86.5
q200 0 310 -95t110 -271v-557q0 -37 17 -57.5t46 -20.5q16 0 66 4zM512 88q180 0 326 139v191q-133 110 -326 110q-135 0 -214 -56.5t-79 -162.5q0 -108 78.5 -164.5t214.5 -56.5zM258 1317v104h584v-104h-584z" />
    <glyph glyph-name="Abreve" unicode="&#x102;" horiz-adv-x="1363" 
d="M608 1434h148l561 -1434h-148l-147 391h-680l-147 -391h-148zM682 1292l-297 -782h594zM682 1579q-121 0 -203.5 79.5t-111.5 205.5h112q28 -89 81 -137t122 -48q68 0 120.5 48t80.5 137h112q-27 -125 -110 -205t-203 -80z" />
    <glyph glyph-name="abreve" unicode="&#x103;" horiz-adv-x="1105" 
d="M1096 88v-102q-37 -11 -78 -11q-64 0 -111 35t-61 115q-147 -150 -361 -150q-179 0 -288 93.5t-109 240.5q0 146 109.5 240t287.5 94q210 0 353 -106v155q0 138 -70.5 208.5t-228.5 70.5q-116 0 -184.5 -54.5t-82.5 -146.5h-133q18 142 124.5 228.5t283.5 86.5
q200 0 310 -95t110 -271v-557q0 -37 17 -57.5t46 -20.5q16 0 66 4zM512 88q180 0 326 139v191q-133 110 -326 110q-135 0 -214 -56.5t-79 -162.5q0 -108 78.5 -164.5t214.5 -56.5zM565 1227q-121 0 -203.5 79t-111.5 205h112q28 -89 81 -136.5t122 -47.5q68 0 120.5 47.5
t80.5 136.5h113q-27 -125 -110.5 -204.5t-203.5 -79.5z" />
    <glyph glyph-name="Aogonek" unicode="&#x104;" horiz-adv-x="1353" 
d="M608 1434h146l563 -1434q-141 -104 -141 -223q0 -56 33 -89.5t85 -33.5q66 0 115 49l61 -74q-85 -78 -192 -78q-99 0 -158 60.5t-59 146.5q0 83 26 137t82 105l-147 391h-680l-147 -391h-148zM682 1292l-297 -784h594z" />
    <glyph glyph-name="aogonek" unicode="&#x105;" horiz-adv-x="1105" 
d="M1096 88v-102q-37 -11 -78 -11q-30 0 -68 15q-125 -96 -125 -213q0 -52 35.5 -87.5t83.5 -35.5q66 0 115 49l51 -61q-84 -91 -182 -91t-157.5 61t-59.5 146q0 155 176 269q-30 38 -41 98q-147 -150 -361 -150q-179 0 -288 93.5t-109 240.5q0 146 109.5 240t287.5 94
q210 0 353 -106v155q0 138 -70.5 208.5t-228.5 70.5q-115 0 -184 -53.5t-83 -147.5h-133q18 142 124.5 228.5t283.5 86.5q200 0 310 -95t110 -271v-557q0 -37 17 -57.5t46 -20.5q39 0 66 4zM512 88q180 0 326 139v191q-133 110 -326 110q-135 0 -214 -56.5t-79 -162.5
q0 -108 78.5 -164.5t214.5 -56.5z" />
    <glyph glyph-name="Cacute" unicode="&#x106;" horiz-adv-x="1392" 
d="M98 717q0 215 81 383t230.5 263t342.5 95q125 0 230 -39t177 -108t117 -160.5t57 -198.5h-139q-24 171 -143 278t-295 107q-150 0 -267 -74t-185 -215.5t-68 -330.5q0 -285 145.5 -453t374.5 -168q298 0 465 275l88 -56q-191 -340 -557 -340q-194 0 -343 94.5t-230 263.5
t-81 384zM907 1905l99 -80l-78 -78q-112 -112 -230 -197l-61 54z" />
    <glyph glyph-name="cacute" unicode="&#x107;" horiz-adv-x="1093" 
d="M88 530q0 247 135.5 401t354.5 154q174 0 298 -96t160 -266h-131q-29 115 -116 182.5t-203 67.5q-167 0 -267 -119.5t-100 -323.5q0 -203 106.5 -322.5t280.5 -119.5q102 0 188.5 55t145.5 156l86 -51q-140 -273 -428 -273q-226 0 -368 154t-142 401zM707 1548l98 -80
l-78 -77q-114 -114 -229 -197l-62 53z" />
    <glyph glyph-name="Ccircumflex" unicode="&#x108;" horiz-adv-x="1392" 
d="M98 717q0 215 81 383t230.5 263t342.5 95q125 0 230 -39t177 -108t117 -160.5t57 -198.5h-139q-24 171 -143 278t-295 107q-150 0 -267 -74t-185 -215.5t-68 -330.5q0 -285 145.5 -453t374.5 -168q298 0 465 275l88 -56q-191 -340 -557 -340q-194 0 -343 94.5t-230 263.5
t-81 384zM719 1892h92l66 -73q131 -147 194 -236l-55 -47l-250 246l-252 -246l-55 47q74 105 194 236z" />
    <glyph glyph-name="ccircumflex" unicode="&#x109;" horiz-adv-x="1093" 
d="M88 530q0 247 135.5 401t354.5 154q174 0 298 -96t160 -266h-131q-29 115 -116 182.5t-203 67.5q-167 0 -267 -119.5t-100 -323.5q0 -203 106.5 -322.5t280.5 -119.5q102 0 188.5 55t145.5 156l86 -51q-140 -273 -428 -273q-226 0 -368 154t-142 401zM539 1536h92l65 -74
q139 -156 195 -235l-55 -47l-250 245l-252 -245l-55 47q71 100 194 235z" />
    <glyph glyph-name="Cdotaccent" unicode="&#x10a;" horiz-adv-x="1392" 
d="M98 717q0 215 81 383t230.5 263t342.5 95q125 0 230 -39t177 -108t117 -160.5t57 -198.5h-139q-24 171 -143 278t-295 107q-150 0 -267 -74t-185 -215.5t-68 -330.5q0 -285 145.5 -453t374.5 -168q298 0 465 275l88 -56q-191 -340 -557 -340q-194 0 -343 94.5t-230 263.5
t-81 384zM674 1831h137v-207h-137v207z" />
    <glyph glyph-name="cdotaccent" unicode="&#x10b;" horiz-adv-x="1093" 
d="M88 530q0 247 135.5 401t354.5 154q174 0 298 -96t160 -266h-131q-29 115 -116 182.5t-203 67.5q-167 0 -267 -119.5t-100 -323.5q0 -203 106.5 -322.5t280.5 -119.5q102 0 188.5 55t145.5 156l86 -51q-140 -273 -428 -273q-226 0 -368 154t-142 401zM512 1475h137v-207
h-137v207z" />
    <glyph glyph-name="Ccaron" unicode="&#x10c;" horiz-adv-x="1392" 
d="M98 717q0 215 81 383t230.5 263t342.5 95q125 0 230 -39t177 -108t117 -160.5t57 -198.5h-139q-24 171 -143 278t-295 107q-150 0 -267 -74t-185 -215.5t-68 -330.5q0 -285 145.5 -453t374.5 -168q298 0 465 275l88 -56q-191 -340 -557 -340q-194 0 -343 94.5t-230 263.5
t-81 384zM801 1561h-92l-66 69q-98 103 -194 238l55 49l252 -248l250 248l55 -49q-93 -131 -195 -238z" />
    <glyph glyph-name="ccaron" unicode="&#x10d;" horiz-adv-x="1093" 
d="M88 530q0 247 135.5 401t354.5 154q174 0 298 -96t160 -266h-131q-29 115 -116 182.5t-203 67.5q-167 0 -267 -119.5t-100 -323.5q0 -203 106.5 -322.5t280.5 -119.5q102 0 188.5 55t145.5 156l86 -51q-140 -273 -428 -273q-226 0 -368 154t-142 401zM645 1204h-92
l-66 70q-101 106 -194 237l55 50l252 -248l250 248l55 -50q-93 -131 -194 -237z" />
    <glyph glyph-name="Dcaron" unicode="&#x10e;" horiz-adv-x="1380" 
d="M303 117h301q254 0 397.5 159t143.5 441q0 280 -144 439t-397 159h-301v-1198zM616 0h-446v1434h446q311 0 488.5 -193t177.5 -524q0 -334 -177.5 -525.5t-488.5 -191.5zM639 1561h-92l-66 69q-98 103 -194 238l55 49l252 -248l250 248l55 -49q-96 -135 -194 -238z" />
    <glyph glyph-name="dcaron" unicode="&#x10f;" horiz-adv-x="1368" 
d="M903 240v577q-62 69 -153 111.5t-179 42.5q-174 0 -260 -114t-86 -327q0 -215 86 -328.5t260 -113.5q88 0 178.5 42.5t153.5 109.5zM1030 0h-100l-21 127q-71 -71 -165 -111.5t-195 -40.5q-218 0 -336.5 147.5t-118.5 407.5q0 259 119 407t336 148q99 0 190.5 -40
t163.5 -109v559h127v-1495zM1266 1513l123 -38l-46 -117q-82 -213 -153 -340l-70 18z" />
    <glyph glyph-name="Dcroat" unicode="&#x110;" horiz-adv-x="1394" 
d="M631 0h-447v662h-164v108h164v664h447q310 0 486.5 -192.5t176.5 -524.5q0 -334 -176 -525.5t-487 -191.5zM317 117h301q254 0 397.5 159t143.5 441q0 280 -144 439t-397 159h-301v-545h359v-108h-359v-545z" />
    <glyph glyph-name="dcroat" unicode="&#x111;" horiz-adv-x="1181" 
d="M1030 1335h133v-104h-133v-1231h-100l-21 127q-71 -71 -165 -111.5t-195 -40.5q-218 0 -336.5 147.5t-118.5 407.5q0 259 119 407t336 148q99 0 190.5 -40t163.5 -109v295h-424v104h424v160h127v-160zM903 240v577q-62 69 -153 111.5t-179 42.5q-174 0 -260 -114
t-86 -327q0 -215 86 -328.5t260 -113.5q88 0 178.5 42.5t153.5 109.5z" />
    <glyph glyph-name="Emacron" unicode="&#x112;" horiz-adv-x="1148" 
d="M170 0v1434h872v-119h-739v-516h668v-119h-668v-561h758v-119h-891zM322 1673v105h583v-105h-583z" />
    <glyph glyph-name="emacron" unicode="&#x113;" horiz-adv-x="1148" 
d="M606 88q97 0 179.5 44.5t140.5 125.5l80 -55q-75 -116 -172 -172t-230 -56q-154 0 -272.5 74.5t-181 200t-62.5 280.5q0 242 138 398.5t354 156.5q214 0 351.5 -154.5t137.5 -398.5q0 -37 -2 -53h-846q12 -176 116 -283.5t269 -107.5zM221 588h715q-6 171 -107 277
t-249 106t-247 -105t-112 -278zM285 1317v104h583v-104h-583z" />
    <glyph glyph-name="Ebreve" unicode="&#x114;" horiz-adv-x="1148" 
d="M170 0v1434h872v-119h-739v-516h668v-119h-668v-561h758v-119h-891zM612 1579q-121 0 -203.5 79.5t-111.5 205.5h113q28 -89 80.5 -137t121.5 -48q68 0 120.5 48t80.5 137h113q-27 -125 -110.5 -205t-203.5 -80z" />
    <glyph glyph-name="ebreve" unicode="&#x115;" horiz-adv-x="1148" 
d="M606 88q97 0 179.5 44.5t140.5 125.5l80 -55q-75 -116 -172 -172t-230 -56q-154 0 -272.5 74.5t-181 200t-62.5 280.5q0 242 138 398.5t354 156.5q214 0 351.5 -154.5t137.5 -398.5q0 -37 -2 -53h-846q12 -176 116 -283.5t269 -107.5zM221 588h715q-6 171 -107 277
t-249 106t-247 -105t-112 -278zM575 1227q-121 0 -203.5 79t-111.5 205h113q28 -89 80.5 -136.5t121.5 -47.5q68 0 120.5 47.5t80.5 136.5h113q-27 -125 -110.5 -204.5t-203.5 -79.5z" />
    <glyph glyph-name="Edotaccent" unicode="&#x116;" horiz-adv-x="1148" 
d="M170 0v1434h872v-119h-739v-516h668v-119h-668v-561h758v-119h-891zM547 1831h137v-207h-137v207z" />
    <glyph glyph-name="edotaccent" unicode="&#x117;" horiz-adv-x="1148" 
d="M606 88q97 0 179.5 44.5t140.5 125.5l80 -55q-75 -116 -172 -172t-230 -56q-154 0 -272.5 74.5t-181 200t-62.5 280.5q0 242 138 398.5t354 156.5q214 0 351.5 -154.5t137.5 -398.5q0 -37 -2 -53h-846q12 -176 116 -283.5t269 -107.5zM221 588h715q-6 171 -107 277
t-249 106t-247 -105t-112 -278zM508 1475h137v-207h-137v207z" />
    <glyph glyph-name="Eogonek" unicode="&#x118;" horiz-adv-x="1148" 
d="M170 0v1434h872v-119h-739v-516h668v-119h-668v-561h758v-119h-125q-141 -107 -141 -225q0 -56 33 -89.5t85 -33.5q64 0 115 51l51 -61q-81 -91 -182 -91q-99 0 -158 60t-59 147q0 65 36.5 130t100.5 112h-647z" />
    <glyph glyph-name="eogonek" unicode="&#x119;" horiz-adv-x="1148" 
d="M606 88q97 0 179.5 44.5t140.5 125.5l82 -55q-122 -184 -308 -217q-116 -96 -116 -209q0 -55 33 -89t85 -34q63 0 115 49q20 -22 51 -61q-78 -91 -182 -91q-98 0 -157.5 61t-59.5 146q0 124 109 219q-220 9 -355 166t-135 387q0 242 138 398.5t354 156.5
q214 0 351.5 -154.5t137.5 -398.5q0 -37 -2 -53h-846q12 -176 116 -283.5t269 -107.5zM221 588h715q-6 171 -107 277t-249 106t-247 -105t-112 -278z" />
    <glyph glyph-name="Ecaron" unicode="&#x11a;" horiz-adv-x="1148" 
d="M170 0v1434h872v-119h-739v-516h668v-119h-668v-561h758v-119h-891zM662 1561h-93l-65 69q-102 107 -195 238l56 49l251 -248l250 248l56 -49q-93 -131 -195 -238z" />
    <glyph glyph-name="ecaron" unicode="&#x11b;" horiz-adv-x="1148" 
d="M606 88q97 0 179.5 44.5t140.5 125.5l80 -55q-75 -116 -172 -172t-230 -56q-154 0 -272.5 74.5t-181 200t-62.5 280.5q0 242 138 398.5t354 156.5q214 0 351.5 -154.5t137.5 -398.5q0 -37 -2 -53h-846q12 -176 116 -283.5t269 -107.5zM221 588h715q-6 171 -107 277
t-249 106t-247 -105t-112 -278zM627 1204h-92l-66 70q-105 110 -195 237l56 50l252 -248l249 248l56 -50q-90 -127 -195 -237z" />
    <glyph glyph-name="Gcircumflex" unicode="&#x11c;" horiz-adv-x="1435" 
d="M98 717q0 214 79 383t222 263.5t326 94.5q114 0 215.5 -39t176 -105.5t124.5 -155t68 -187.5h-135q-39 159 -162.5 261.5t-282.5 102.5q-215 0 -355.5 -168t-140.5 -450q0 -280 144.5 -450.5t380.5 -170.5q89 0 167.5 35t138 99t94 160.5t34.5 213.5h-416v119h549v-96
q0 -160 -45 -286t-123.5 -205t-181 -120t-221.5 -41q-198 0 -348.5 98t-229 266t-78.5 378zM688 1892h92l66 -73q131 -147 194 -236l-55 -47l-250 246l-252 -246l-55 47q71 100 195 236z" />
    <glyph glyph-name="gcircumflex" unicode="&#x11d;" horiz-adv-x="1181" 
d="M903 121q-72 -67 -163.5 -106.5t-190.5 -39.5q-218 0 -336.5 147.5t-118.5 407.5q0 259 119 407t336 148q101 0 195.5 -41.5t164.5 -113.5l21 131h100v-1041q0 -232 -116 -355.5t-339 -123.5q-257 0 -438 226l66 65q87 -93 173 -134.5t195 -41.5q160 0 246 90t86 258v117
zM903 240v577q-62 69 -153 111.5t-179 42.5q-174 0 -260 -114t-86 -327q0 -215 86 -328.5t260 -113.5q88 0 178.5 42.5t153.5 109.5zM532 1536h93l65 -74q139 -156 195 -235l-56 -47l-249 245l-252 -245l-56 47q68 96 195 235z" />
    <glyph glyph-name="Gbreve" unicode="&#x11e;" horiz-adv-x="1435" 
d="M98 717q0 214 79 383t222 263.5t326 94.5q114 0 215.5 -39t176 -105.5t124.5 -155t68 -187.5h-135q-39 159 -162.5 261.5t-282.5 102.5q-215 0 -355.5 -168t-140.5 -450q0 -280 144.5 -450.5t380.5 -170.5q89 0 167.5 35t138 99t94 160.5t34.5 213.5h-416v119h549v-96
q0 -160 -45 -286t-123.5 -205t-181 -120t-221.5 -41q-198 0 -348.5 98t-229 266t-78.5 378zM739 1579q-121 0 -203.5 79.5t-111.5 205.5h113q28 -89 80.5 -137t121.5 -48q68 0 120.5 48t80.5 137h113q-27 -125 -110.5 -205t-203.5 -80z" />
    <glyph glyph-name="gbreve" unicode="&#x11f;" horiz-adv-x="1181" 
d="M903 121q-72 -67 -163.5 -106.5t-190.5 -39.5q-218 0 -336.5 147.5t-118.5 407.5q0 259 119 407t336 148q101 0 195.5 -41.5t164.5 -113.5l21 131h100v-1041q0 -232 -116 -355.5t-339 -123.5q-257 0 -438 226l66 65q87 -93 173 -134.5t195 -41.5q160 0 246 90t86 258v117
zM903 240v577q-62 69 -153 111.5t-179 42.5q-174 0 -260 -114t-86 -327q0 -215 86 -328.5t260 -113.5q88 0 178.5 42.5t153.5 109.5zM584 1227q-121 0 -204 79t-112 205h113q28 -89 81 -136.5t122 -47.5q68 0 120 47.5t80 136.5h113q-27 -125 -110 -204.5t-203 -79.5z" />
    <glyph glyph-name="Gdotaccent" unicode="&#x120;" horiz-adv-x="1435" 
d="M98 717q0 214 79 383t222 263.5t326 94.5q114 0 215.5 -39t176 -105.5t124.5 -155t68 -187.5h-135q-39 159 -162.5 261.5t-282.5 102.5q-215 0 -355.5 -168t-140.5 -450q0 -280 144.5 -450.5t380.5 -170.5q89 0 167.5 35t138 99t94 160.5t34.5 213.5h-416v119h549v-96
q0 -160 -45 -286t-123.5 -205t-181 -120t-221.5 -41q-198 0 -348.5 98t-229 266t-78.5 378zM670 1831h137v-207h-137v207z" />
    <glyph glyph-name="gdotaccent" unicode="&#x121;" horiz-adv-x="1181" 
d="M903 121q-72 -67 -163.5 -106.5t-190.5 -39.5q-218 0 -336.5 147.5t-118.5 407.5q0 259 119 407t336 148q101 0 195.5 -41.5t164.5 -113.5l21 131h100v-1041q0 -232 -116 -355.5t-339 -123.5q-257 0 -438 226l66 65q87 -93 173 -134.5t195 -41.5q160 0 246 90t86 258v117
zM903 240v577q-62 69 -153 111.5t-179 42.5q-174 0 -260 -114t-86 -327q0 -215 86 -328.5t260 -113.5q88 0 178.5 42.5t153.5 109.5zM508 1475h137v-207h-137v207z" />
    <glyph glyph-name="Gcommaaccent" unicode="&#x122;" horiz-adv-x="1435" 
d="M98 717q0 214 79 383t222 263.5t326 94.5q114 0 215.5 -39t176 -105.5t124.5 -155t68 -187.5h-135q-39 159 -162.5 261.5t-282.5 102.5q-215 0 -355.5 -168t-140.5 -450q0 -280 144.5 -450.5t380.5 -170.5q89 0 167.5 35t138 99t94 160.5t34.5 213.5h-416v119h549v-96
q0 -160 -45 -286t-123.5 -205t-181 -120t-221.5 -41q-198 0 -348.5 98t-229 266t-78.5 378zM643 -494l121 396q64 -20 115 -39l-39 -111q-51 -143 -123 -272z" />
    <glyph glyph-name="gcommaaccent" unicode="&#x123;" horiz-adv-x="1181" 
d="M903 121q-72 -67 -163.5 -106.5t-190.5 -39.5q-218 0 -336.5 147.5t-118.5 407.5q0 259 119 407t336 148q101 0 195.5 -41.5t164.5 -113.5l21 131h100v-1041q0 -232 -116 -355.5t-339 -123.5q-257 0 -438 226l66 65q87 -93 173 -134.5t195 -41.5q160 0 246 90t86 258v117
zM903 240v577q-62 69 -153 111.5t-179 42.5q-174 0 -260 -114t-86 -327q0 -215 86 -328.5t260 -113.5q88 0 178.5 42.5t153.5 109.5zM729 1591l-121 -395q-58 18 -114 39l38 111q51 143 123 272z" />
    <glyph glyph-name="Hcircumflex" unicode="&#x124;" horiz-adv-x="1417" 
d="M170 0v1434h133v-613h809v613h133v-1434h-133v702h-809v-702h-133zM662 1892h92l65 -73q136 -152 195 -236l-56 -47l-249 246l-252 -246l-56 47q71 100 195 236z" />
    <glyph glyph-name="hcircumflex" unicode="&#x125;" horiz-adv-x="1177" 
d="M639 971q-102 0 -199 -53t-164 -132v-786h-126v1495h126v-580q174 170 388 170q175 0 273.5 -100t98.5 -289v-696h-127v664q0 154 -66 230.5t-204 76.5zM166 1892h92l66 -73q131 -147 194 -236l-55 -47l-250 246l-252 -246l-55 47q74 105 194 236z" />
    <glyph glyph-name="Hbar" unicode="&#x126;" horiz-adv-x="1413" 
d="M168 0v1108h-127v111h127v215h133v-215h809v215h133v-215h129v-111h-129v-1108h-133v702h-809v-702h-133zM301 821h809v287h-809v-287z" />
    <glyph glyph-name="hbar" unicode="&#x127;" horiz-adv-x="1179" 
d="M16 1335h136v160h129v-160h421v-104h-421v-316q170 170 385 170q175 0 273.5 -100t98.5 -289v-696h-127v664q0 154 -66 231.5t-204 77.5q-102 0 -198 -54t-162 -133v-786h-129v1231h-136v104z" />
    <glyph glyph-name="Itilde" unicode="&#x128;" horiz-adv-x="495" 
d="M180 1434h133v-1434h-133v1434zM221 1681q-59 56 -110 56q-35 0 -61 -28.5t-38 -78.5l-96 17q23 93 74 142.5t121 49.5q31 0 62 -12.5t48 -24.5t49 -37q62 -51 113 -51q33 0 58.5 29t39.5 80l97 -17q-23 -93 -74 -142.5t-121 -49.5q-89 0 -162 67z" />
    <glyph glyph-name="itilde" unicode="&#x129;" horiz-adv-x="454" 
d="M201 1325q-58 55 -111 55q-35 0 -60.5 -28t-37.5 -78l-96 16q23 93 74 143t120 50q31 0 62 -12.5t49 -24.5t49 -37q62 -51 112 -51q33 0 59 29t40 79l96 -16q-23 -93 -74 -143t-121 -50q-87 0 -161 68zM164 0v1061h127v-1061h-127z" />
    <glyph glyph-name="Imacron" unicode="&#x12a;" horiz-adv-x="495" 
d="M180 1434h133v-1434h-133v1434zM-45 1673v105h584v-105h-584z" />
    <glyph glyph-name="imacron" unicode="&#x12b;" horiz-adv-x="454" 
d="M-66 1317v104h584v-104h-584zM164 0v1061h127v-1061h-127z" />
    <glyph glyph-name="Ibreve" unicode="&#x12c;" horiz-adv-x="495" 
d="M180 1434h133v-1434h-133v1434zM248 1579q-121 0 -204 79.5t-112 205.5h113q28 -89 81 -137t122 -48q68 0 120.5 48t80.5 137h112q-27 -125 -110 -205t-203 -80z" />
    <glyph glyph-name="ibreve" unicode="&#x12d;" horiz-adv-x="454" 
d="M227 1227q-121 0 -203.5 79t-111.5 205h113q28 -89 80.5 -136.5t121.5 -47.5q68 0 120.5 47.5t80.5 136.5h113q-27 -125 -110.5 -204.5t-203.5 -79.5zM164 0v1061h127v-1061h-127z" />
    <glyph glyph-name="Iogonek" unicode="&#x12e;" horiz-adv-x="495" 
d="M180 1434h133v-1434q-139 -103 -139 -223q0 -53 34.5 -88t82.5 -35q63 0 115 49l51 -61q-40 -45 -81.5 -68t-101.5 -23q-98 0 -157.5 61t-59.5 146q0 149 123 244v1432z" />
    <glyph glyph-name="iogonek" unicode="&#x12f;" horiz-adv-x="454" 
d="M174 0h-10v1061h127v-1061q-69 -53 -103 -106t-34 -117q0 -56 32 -89.5t84 -33.5q66 0 115 49q5 -6 23.5 -27t27.5 -34q-39 -47 -80 -69t-102 -22q-98 0 -157.5 61t-59.5 146q0 135 137 242zM164 1468h127v-188h-127v188z" />
    <glyph glyph-name="Idotaccent" unicode="&#x130;" horiz-adv-x="495" 
d="M180 1434h133v-1434h-133v1434zM178 1831h137v-207h-137v207z" />
    <glyph glyph-name="dotlessi" unicode="&#x131;" horiz-adv-x="454" 
d="M164 0v1061h127v-1061h-127z" />
    <glyph glyph-name="IJ" unicode="&#x132;" horiz-adv-x="1630" 
d="M180 1434h133v-1434h-133v1434zM582 272l82 56q72 -119 157.5 -175.5t194.5 -56.5q146 0 227.5 100t81.5 279v959h133v-959q0 -238 -115.5 -369t-308.5 -131q-147 0 -258 73t-194 224z" />
    <glyph glyph-name="ij" unicode="&#x133;" horiz-adv-x="897" 
d="M164 0v1061h127v-1061h-127zM164 1468h127v-188h-127v188zM608 1468h127v-188h-127v188zM504 -487l-74 77q109 103 143.5 190.5t34.5 264.5v1016h127v-985q0 -159 -21 -255.5t-68 -164t-142 -143.5z" />
    <glyph glyph-name="Jcircumflex" unicode="&#x134;" horiz-adv-x="1134" 
d="M86 272l82 56q72 -119 157.5 -175.5t194.5 -56.5q146 0 227.5 100t81.5 279v959h134v-959q0 -238 -115.5 -369t-308.5 -131q-147 0 -258.5 73t-194.5 224zM850 1892h92l66 -73q131 -147 194 -236l-55 -47l-250 246l-252 -246l-55 47q74 105 194 236z" />
    <glyph glyph-name="jcircumflex" unicode="&#x135;" horiz-adv-x="448" 
d="M55 -487l-73 77q109 101 143.5 189.5t34.5 265.5v1016h129v-985q0 -159 -21.5 -255.5t-69.5 -164t-143 -143.5zM176 1536h92l66 -74q134 -151 194 -235l-55 -47l-250 245l-252 -245l-55 47q68 96 195 235z" />
    <glyph glyph-name="Kcommaaccent" unicode="&#x136;" horiz-adv-x="1236" 
d="M303 1434v-873l682 873h160l-463 -586l528 -848h-161l-451 743l-295 -374v-369h-133v1434h133zM514 -494l121 396q64 -20 115 -39l-39 -111q-51 -143 -123 -272z" />
    <glyph glyph-name="kcommaaccent" unicode="&#x137;" horiz-adv-x="1036" 
d="M276 1495v-1044l525 610h160l-369 -422l430 -639h-145l-367 549l-234 -266v-283h-126v1495h126zM410 -494l120 396q64 -20 115 -39l-39 -111q-51 -143 -123 -272z" />
    <glyph glyph-name="kgreenlandic" unicode="&#x138;" horiz-adv-x="1036" 
d="M276 1061v-610l525 610h160l-369 -422l430 -639h-145l-367 549l-234 -266v-283h-126v1061h126z" />
    <glyph glyph-name="Lacute" unicode="&#x139;" horiz-adv-x="1079" 
d="M170 0v1434h133v-1315h735v-119h-868zM455 1905l98 -80l-78 -78q-114 -114 -229 -197l-62 54z" />
    <glyph glyph-name="lacute" unicode="&#x13a;" horiz-adv-x="454" 
d="M164 0v1495h127v-1495h-127zM449 1905l98 -80l-78 -78q-114 -114 -229 -197l-62 54z" />
    <glyph glyph-name="Lcommaaccent" unicode="&#x13b;" horiz-adv-x="1079" 
d="M170 0v1434h133v-1315h735v-119h-868zM461 -494l121 396q58 -18 114 -39l-39 -111q-52 -148 -122 -272z" />
    <glyph glyph-name="lcommaaccent" unicode="&#x13c;" horiz-adv-x="454" 
d="M164 0v1495h127v-1495h-127zM55 -494l121 396q64 -20 115 -39l-39 -111q-51 -143 -123 -272z" />
    <glyph glyph-name="Lcaron" unicode="&#x13d;" horiz-adv-x="1079" 
d="M170 0v1434h133v-1315h735v-119h-868zM809 1513l123 -38l-45 -117q-80 -208 -154 -340l-69 18z" />
    <glyph glyph-name="lcaron" unicode="&#x13e;" horiz-adv-x="628" 
d="M164 0v1495h127v-1495h-127zM526 1513l123 -38l-45 -117q-82 -213 -153 -340l-70 18z" />
    <glyph glyph-name="Ldot" unicode="&#x13f;" horiz-adv-x="1079" 
d="M170 0v1434h133v-1315h735v-119h-868zM666 881h137v-207h-137v207z" />
    <glyph glyph-name="ldot" unicode="&#x140;" horiz-adv-x="833" 
d="M184 0v1495h127v-1495h-127zM600 881h137v-207h-137v207z" />
    <glyph glyph-name="Lslash" unicode="&#x141;" horiz-adv-x="1112" 
d="M203 702v732h135v-641l557 374l63 -96l-620 -416v-538h731v-117h-866v565l-164 -110l-59 96z" />
    <glyph glyph-name="lslash" unicode="&#x142;" horiz-adv-x="737" 
d="M-20 592l323 225v678h129v-592l260 182l66 -90l-326 -227v-768h-129v680l-262 -182z" />
    <glyph glyph-name="Nacute" unicode="&#x143;" horiz-adv-x="1429" 
d="M170 0v1434h129l831 -1223v1223h127v-1434h-129l-829 1221v-1221h-129zM924 1905l98 -80l-78 -78q-114 -114 -229 -197l-62 54z" />
    <glyph glyph-name="nacute" unicode="&#x144;" horiz-adv-x="1177" 
d="M639 971q-100 0 -196 -54t-167 -131v-786h-126v1061h100l20 -152q180 176 394 176q175 0 273.5 -100t98.5 -289v-696h-127v664q0 154 -66 230.5t-204 76.5zM756 1548l98 -80l-78 -77q-114 -114 -229 -197l-62 53z" />
    <glyph glyph-name="Ncommaaccent" unicode="&#x145;" horiz-adv-x="1429" 
d="M170 0v1434h129l831 -1223v1223h127v-1434h-129l-829 1221v-1221h-129zM594 -494l121 396q59 -18 114 -39l-38 -111q-51 -143 -123 -272z" />
    <glyph glyph-name="ncommaaccent" unicode="&#x146;" horiz-adv-x="1177" 
d="M639 971q-100 0 -196 -54t-167 -131v-786h-126v1061h100l20 -152q180 176 394 176q175 0 273.5 -100t98.5 -289v-696h-127v664q0 154 -66 230.5t-204 76.5zM444 -494l121 396q64 -20 115 -39l-39 -111q-51 -143 -123 -272z" />
    <glyph glyph-name="Ncaron" unicode="&#x147;" horiz-adv-x="1429" 
d="M170 0v1434h129l831 -1223v1223h127v-1434h-129l-829 1221v-1221h-129zM760 1561h-92l-66 69q-98 103 -194 238l55 49l252 -248l250 248l55 -49q-93 -131 -195 -238z" />
    <glyph glyph-name="ncaron" unicode="&#x148;" horiz-adv-x="1177" 
d="M639 971q-100 0 -196 -54t-167 -131v-786h-126v1061h100l20 -152q180 176 394 176q175 0 273.5 -100t98.5 -289v-696h-127v664q0 154 -66 230.5t-204 76.5zM635 1204h-92l-66 70q-101 106 -194 237l55 50l252 -248l250 248l55 -50q-90 -127 -195 -237z" />
    <glyph glyph-name="napostrophe" unicode="&#x149;" horiz-adv-x="1255" 
d="M717 971q-100 0 -196 -54t-167 -131v-786h-127v1061h101l20 -152q180 176 393 176q175 0 274 -100t99 -289v-696h-127v664q0 154 -66 230.5t-204 76.5zM125 1513l123 -38l-45 -117q-80 -208 -154 -340l-69 18z" />
    <glyph glyph-name="Eng" unicode="&#x14a;" horiz-adv-x="1429" 
d="M1024 -487l-74 77q99 87 139.5 183t40.5 227l-833 1221v-1221h-127v1434h129l831 -1223v1223h127v-1381q0 -148 -21.5 -239.5t-69 -158.5t-142.5 -142z" />
    <glyph glyph-name="eng" unicode="&#x14b;" horiz-adv-x="1177" 
d="M639 971q-100 0 -196 -54t-167 -131v-786h-126v1061h100l20 -152q180 176 394 176q175 0 273.5 -100t98.5 -289v-641q0 -149 -20.5 -241t-68.5 -159t-142 -142l-76 77q110 101 145 187t35 248v639q0 154 -66 230.5t-204 76.5z" />
    <glyph glyph-name="Omacron" unicode="&#x14c;" horiz-adv-x="1449" 
d="M1352 717q0 -157 -43 -292.5t-122 -235.5t-198 -157t-264 -57t-264 57t-198 157t-122 235.5t-43 292.5t43 292t122 235t198 157t264 57t264 -57t198 -157t122 -235t43 -292zM236 717q0 -280 132.5 -450.5t356.5 -170.5q225 0 357 170t132 451q0 279 -132 449.5
t-357 170.5q-224 0 -356.5 -170.5t-132.5 -449.5zM432 1673v105h584v-105h-584z" />
    <glyph glyph-name="omacron" unicode="&#x14d;" horiz-adv-x="1177" 
d="M1087 530q0 -244 -137 -399.5t-362 -155.5t-362.5 155.5t-137.5 399.5q0 159 61 285t175.5 198t263.5 72q224 0 361.5 -156.5t137.5 -398.5zM958 530q0 200 -101 320.5t-269 120.5t-268.5 -120.5t-100.5 -320.5q0 -201 100 -321.5t269 -120.5t269.5 120.5t100.5 321.5z
M295 1317v104h584v-104h-584z" />
    <glyph glyph-name="Obreve" unicode="&#x14e;" horiz-adv-x="1449" 
d="M1352 717q0 -157 -43 -292.5t-122 -235.5t-198 -157t-264 -57t-264 57t-198 157t-122 235.5t-43 292.5t43 292t122 235t198 157t264 57t264 -57t198 -157t122 -235t43 -292zM236 717q0 -280 132.5 -450.5t356.5 -170.5q225 0 357 170t132 451q0 279 -132 449.5
t-357 170.5q-224 0 -356.5 -170.5t-132.5 -449.5zM725 1579q-121 0 -203.5 79.5t-111.5 205.5h112q28 -89 81 -137t122 -48q68 0 120.5 48t80.5 137h112q-27 -125 -110 -205t-203 -80z" />
    <glyph glyph-name="obreve" unicode="&#x14f;" horiz-adv-x="1177" 
d="M1087 530q0 -244 -137 -399.5t-362 -155.5t-362.5 155.5t-137.5 399.5q0 159 61 285t175.5 198t263.5 72q224 0 361.5 -156.5t137.5 -398.5zM958 530q0 200 -101 320.5t-269 120.5t-268.5 -120.5t-100.5 -320.5q0 -201 100 -321.5t269 -120.5t269.5 120.5t100.5 321.5z
M588 1227q-121 0 -204 79t-112 205h113q28 -89 81 -136.5t122 -47.5q68 0 120 47.5t80 136.5h113q-27 -125 -110 -204.5t-203 -79.5z" />
    <glyph glyph-name="Ohungarumlaut" unicode="&#x150;" horiz-adv-x="1449" 
d="M1352 717q0 -157 -43 -292.5t-122 -235.5t-198 -157t-264 -57t-264 57t-198 157t-122 235.5t-43 292.5t43 292t122 235t198 157t264 57t264 -57t198 -157t122 -235t43 -292zM236 717q0 -280 132.5 -450.5t356.5 -170.5q225 0 357 170t132 451q0 279 -132 449.5
t-357 170.5q-224 0 -356.5 -170.5t-132.5 -449.5zM715 1896l98 -77l-78 -88q-46 -52 -66.5 -73.5t-54.5 -55t-69 -62.5l-72 53zM1051 1896l98 -77l-78 -88q-46 -52 -66.5 -73.5t-54.5 -55t-69 -62.5l-72 53z" />
    <glyph glyph-name="ohungarumlaut" unicode="&#x151;" horiz-adv-x="1177" 
d="M1087 530q0 -244 -137 -399.5t-362 -155.5t-362.5 155.5t-137.5 399.5q0 159 61 285t175.5 198t263.5 72q224 0 361.5 -156.5t137.5 -398.5zM958 530q0 200 -101 320.5t-269 120.5t-268.5 -120.5t-100.5 -320.5q0 -201 100 -321.5t269 -120.5t269.5 120.5t100.5 321.5z
M547 1540l98 -78l-78 -88q-115 -128 -190 -190l-72 53zM883 1540l98 -78l-78 -88q-115 -128 -190 -190l-72 53z" />
    <glyph glyph-name="OE" unicode="&#x152;" horiz-adv-x="1699" 
d="M98 717q0 331 183 524t499 193h813v-119h-628v-516h557v-119h-557v-563h647v-117h-832q-316 0 -499 192.5t-183 524.5zM831 117v1198h-51q-245 0 -396 -156.5t-151 -441.5q0 -287 151 -443.5t396 -156.5h51z" />
    <glyph glyph-name="oe" unicode="&#x153;" horiz-adv-x="2017" 
d="M1477 88q97 0 179 44.5t140 125.5l82 -55q-146 -228 -403 -228q-156 0 -273.5 76.5t-177.5 206.5q-56 -132 -170 -207.5t-266 -75.5q-225 0 -362.5 155.5t-137.5 399.5q0 159 61 285t175.5 198t263.5 72q150 0 263 -75t173 -207q56 131 168.5 206.5t257.5 75.5
q214 0 351.5 -154.5t137.5 -398.5q0 -37 -2 -53h-845q12 -176 116 -283.5t269 -107.5zM958 522q0 201 -99.5 325t-270.5 124q-168 0 -268.5 -120.5t-100.5 -320.5q0 -201 100 -321.5t269 -120.5q167 0 267 118t103 316zM1092 588h714q-6 171 -107 277t-249 106
q-149 0 -246.5 -105t-111.5 -278z" />
    <glyph glyph-name="Racute" unicode="&#x154;" horiz-adv-x="1255" 
d="M1126 1006q0 -166 -84.5 -268.5t-242.5 -139.5l415 -598h-153l-397 580q-23 -2 -66 -2h-295v-578h-133v1434h428q252 0 390 -108t138 -320zM989 1006q0 159 -101 234t-302 75h-283v-619h283q201 0 302 75t101 235zM678 1905l98 -80l-78 -78q-114 -114 -229 -197l-61 54z
" />
    <glyph glyph-name="racute" unicode="&#x155;" horiz-adv-x="727" 
d="M604 971q-98 0 -185.5 -51.5t-142.5 -133.5v-786h-126v1061h100l20 -150q64 83 154 128.5t197 45.5q21 0 71 -4v-116q-49 6 -88 6zM520 1548l98 -80l-77 -77q-112 -112 -230 -197l-61 53z" />
    <glyph glyph-name="Rcommaaccent" unicode="&#x156;" horiz-adv-x="1255" 
d="M1126 1006q0 -166 -84.5 -268.5t-242.5 -139.5l415 -598h-153l-397 580q-23 -2 -66 -2h-295v-578h-133v1434h428q252 0 390 -108t138 -320zM989 1006q0 159 -101 234t-302 75h-283v-619h283q201 0 302 75t101 235zM524 -494l121 396q64 -20 115 -39l-39 -111
q-51 -143 -123 -272z" />
    <glyph glyph-name="rcommaaccent" unicode="&#x157;" horiz-adv-x="727" 
d="M604 971q-98 0 -185.5 -51.5t-142.5 -133.5v-786h-126v1061h100l20 -150q64 83 154 128.5t197 45.5q21 0 71 -4v-116q-49 6 -88 6zM37 -494l121 396q58 -18 114 -39l-39 -111q-52 -148 -122 -272z" />
    <glyph glyph-name="Rcaron" unicode="&#x158;" horiz-adv-x="1255" 
d="M1126 1006q0 -166 -84.5 -268.5t-242.5 -139.5l415 -598h-153l-397 580q-23 -2 -66 -2h-295v-578h-133v1434h428q252 0 390 -108t138 -320zM989 1006q0 159 -101 234t-302 75h-283v-619h283q201 0 302 75t101 235zM612 1561h-92l-65 69q-102 107 -195 238l55 49l252 -248
l250 248l55 -49q-96 -135 -194 -238z" />
    <glyph glyph-name="rcaron" unicode="&#x159;" horiz-adv-x="727" 
d="M604 971q-98 0 -185.5 -51.5t-142.5 -133.5v-786h-126v1061h100l20 -150q64 83 154 128.5t197 45.5q21 0 71 -4v-116q-49 6 -88 6zM432 1204h-92l-66 70q-101 106 -194 237l55 50l252 -248l250 248l55 -50q-93 -131 -194 -237z" />
    <glyph glyph-name="Sacute" unicode="&#x15a;" horiz-adv-x="1206" 
d="M621 96q170 0 260 74t90 190q0 126 -87.5 191t-310.5 125q-230 63 -331 170t-101 254q0 160 118 259t319 99q215 0 340 -107.5t155 -299.5h-141q-23 133 -111.5 209.5t-240.5 76.5q-146 0 -225 -65.5t-79 -171.5q0 -101 83.5 -180t252.5 -127q90 -25 155.5 -47.5
t124 -50.5t96.5 -59.5t66.5 -71.5t41 -88.5t12.5 -108.5q0 -176 -127 -284t-360 -108q-301 0 -523 295l72 66q210 -240 451 -240zM756 1905l98 -80l-78 -78q-114 -114 -229 -197l-62 54z" />
    <glyph glyph-name="sacute" unicode="&#x15b;" horiz-adv-x="1003" 
d="M510 88q131 0 201.5 51.5t70.5 128.5q0 84 -66 129t-233 90q-193 54 -278.5 131t-85.5 195q0 120 95.5 196t264.5 76q161 0 269.5 -82t136.5 -225h-135q-17 89 -87.5 141t-179.5 52q-105 0 -169 -41.5t-64 -110.5q0 -75 66 -127.5t225 -95.5q196 -55 284 -126.5
t88 -193.5q0 -138 -103 -219.5t-294 -81.5q-249 0 -438 234l59 63q179 -184 373 -184zM635 1548l98 -80l-78 -77q-114 -114 -229 -197l-61 53z" />
    <glyph glyph-name="Scircumflex" unicode="&#x15c;" horiz-adv-x="1206" 
d="M621 96q170 0 260 74t90 190q0 126 -87.5 191t-310.5 125q-230 63 -331 170t-101 254q0 160 118 259t319 99q215 0 340 -107.5t155 -299.5h-141q-23 133 -111.5 209.5t-240.5 76.5q-146 0 -225 -65.5t-79 -171.5q0 -101 83.5 -180t252.5 -127q90 -25 155.5 -47.5
t124 -50.5t96.5 -59.5t66.5 -71.5t41 -88.5t12.5 -108.5q0 -176 -127 -284t-360 -108q-301 0 -523 295l72 66q210 -240 451 -240zM563 1892h92l66 -73q131 -147 194 -236l-55 -47l-250 246l-252 -246l-55 47q71 100 195 236z" />
    <glyph glyph-name="scircumflex" unicode="&#x15d;" horiz-adv-x="1003" 
d="M510 88q131 0 201.5 51.5t70.5 128.5q0 84 -66 129t-233 90q-193 54 -278.5 131t-85.5 195q0 120 95.5 196t264.5 76q161 0 269.5 -82t136.5 -225h-135q-17 89 -87.5 141t-179.5 52q-105 0 -169 -41.5t-64 -110.5q0 -75 66 -127.5t225 -95.5q196 -55 284 -126.5
t88 -193.5q0 -138 -103 -219.5t-294 -81.5q-249 0 -438 234l59 63q179 -184 373 -184zM436 1536h92l66 -74q134 -151 194 -235l-55 -47l-250 245l-252 -245l-55 47q68 96 195 235z" />
    <glyph glyph-name="Scedilla" unicode="&#x15e;" horiz-adv-x="1206" 
d="M625 96q167 0 256.5 74t89.5 190q0 126 -88.5 192.5t-311.5 127.5q-228 62 -329 168.5t-101 251.5q0 160 118 259t319 99q206 0 336.5 -104.5t160.5 -300.5h-139q-24 139 -117.5 210.5t-238.5 71.5q-147 0 -225.5 -64.5t-78.5 -170.5q0 -100 82.5 -177.5t251.5 -125.5
q136 -38 223.5 -74.5t152.5 -86t93.5 -115t28.5 -154.5q0 -164 -112 -269.5t-318 -117.5l-37 -82q88 -17 136 -69.5t48 -125.5q0 -76 -60.5 -133t-172.5 -57q-117 0 -195 69l62 76q53 -47 129 -47q56 0 88.5 28t32.5 70q0 27 -12 47t-45.5 36t-56 23.5t-79.5 23.5
q-7 2 -10 3l63 138q-269 20 -471 282l74 68q207 -234 453 -234z" />
    <glyph glyph-name="scedilla" unicode="&#x15f;" horiz-adv-x="1003" 
d="M510 88q131 0 201.5 51.5t70.5 128.5q0 85 -66 129t-233 90q-192 54 -278 132t-86 194q0 120 95.5 196t264.5 76q161 0 269.5 -82t136.5 -225h-135q-17 89 -87.5 141t-179.5 52q-105 0 -169 -41.5t-64 -110.5q0 -75 66 -127.5t225 -95.5q196 -55 284 -126.5t88 -193.5
q0 -128 -88 -206t-252 -90l-36 -82q88 -17 135 -69t47 -126q0 -77 -60.5 -133.5t-173.5 -56.5q-109 0 -184 81l53 64q53 -47 129 -47q54 0 87.5 28t33.5 70q0 55 -51 86.5t-145 34.5q4 28 4 37l53 113q-220 22 -387 229l59 63q179 -184 373 -184z" />
    <glyph glyph-name="Scaron" unicode="&#x160;" horiz-adv-x="1206" 
d="M621 96q170 0 260 74t90 190q0 126 -87.5 191t-310.5 125q-230 63 -331 170t-101 254q0 160 118 259t319 99q215 0 340 -107.5t155 -299.5h-141q-23 133 -111.5 209.5t-240.5 76.5q-146 0 -225 -65.5t-79 -171.5q0 -101 83.5 -180t252.5 -127q90 -25 155.5 -47.5
t124 -50.5t96.5 -59.5t66.5 -71.5t41 -88.5t12.5 -108.5q0 -176 -127 -284t-360 -108q-301 0 -523 295l72 66q210 -240 451 -240zM645 1561h-92l-66 69q-98 103 -194 238l55 49l252 -248l250 248l55 -49q-96 -135 -194 -238z" />
    <glyph glyph-name="scaron" unicode="&#x161;" horiz-adv-x="1003" 
d="M510 88q131 0 201.5 51.5t70.5 128.5q0 84 -66 129t-233 90q-193 54 -278.5 131t-85.5 195q0 120 95.5 196t264.5 76q161 0 269.5 -82t136.5 -225h-135q-17 89 -87.5 141t-179.5 52q-105 0 -169 -41.5t-64 -110.5q0 -75 66 -127.5t225 -95.5q196 -55 284 -126.5
t88 -193.5q0 -138 -103 -219.5t-294 -81.5q-249 0 -438 234l59 63q179 -184 373 -184zM537 1204h-93l-65 70q-105 110 -195 237l56 50l252 -248l249 248l56 -50q-90 -127 -195 -237z" />
    <glyph glyph-name="Tcommaaccent" unicode="&#x162;" horiz-adv-x="1126" 
d="M459 -164l-15 27l64 137h-12v1315h-459v119h1050v-119h-458v-1315h-11l-51 -102q88 -17 136.5 -69.5t48.5 -125.5q0 -75 -61 -132.5t-173 -57.5q-108 0 -182 84l49 61q53 -47 129 -47q57 0 90 27.5t33 70.5q0 107 -178 127z" />
    <glyph glyph-name="tcommaaccent" unicode="&#x163;" horiz-adv-x="710" 
d="M389 -487q-106 0 -184 81q5 7 15 20t19 24t17 20q53 -47 129 -47q56 0 88.5 27t32.5 71q0 56 -49 88t-140 33l-14 20l76 152q-137 68 -137 311v637h-209v78l209 33v287l129 30v-317h284v-111h-284v-655q0 -118 45 -162.5t145 -44.5q65 0 92 2v-90q-50 -17 -108 -23
q-33 0 -68 3l-39 -82q87 -17 135 -69.5t48 -125.5q0 -78 -60 -134t-172 -56z" />
    <glyph glyph-name="Tcaron" unicode="&#x164;" horiz-adv-x="1097" 
d="M481 0v1315h-458v119h1050v-119h-459v-1315h-133zM594 1561h-92l-66 69q-98 103 -194 238l55 49l252 -248l250 248l55 -49q-93 -131 -195 -238z" />
    <glyph glyph-name="tcaron" unicode="&#x165;" horiz-adv-x="956" 
d="M653 90v-90q-63 -25 -139 -25q-272 0 -272 338v637h-209v78l209 33v287l129 30v-317h284v-111h-284v-655q0 -118 45 -162.5t145 -44.5q65 0 92 2zM854 1513l123 -38l-45 -117q-80 -208 -154 -340l-69 18z" />
    <glyph glyph-name="Tbar" unicode="&#x166;" horiz-adv-x="1097" 
d="M940 774v-110h-326v-664h-133v664h-323v110h323v541h-458v119h1050v-119h-459v-541h326z" />
    <glyph glyph-name="tbar" unicode="&#x167;" horiz-adv-x="710" 
d="M371 659h247v-104h-247v-260q0 -118 45 -162.5t145 -44.5q65 0 92 2v-90q-71 -23 -133 -23q-127 0 -202.5 72t-75.5 236v270h-172v104h172v291h-209v80l209 31v287l129 30v-317h284v-111h-284v-291z" />
    <glyph glyph-name="Utilde" unicode="&#x168;" horiz-adv-x="1449" 
d="M725 -25q-121 0 -221.5 35.5t-175.5 105.5t-116.5 181.5t-41.5 255.5v881h133v-871q0 -228 108 -347.5t314 -119.5t314 119.5t108 347.5v871h133v-881q0 -286 -148.5 -432t-406.5 -146zM698 1681q-59 56 -110 56q-35 0 -61 -28.5t-38 -78.5l-96 17q23 93 74 142.5
t121 49.5q31 0 62 -12.5t49 -24.5t49 -37q62 -51 112 -51q33 0 58.5 29t39.5 80l97 -17q-23 -93 -74 -142.5t-121 -49.5q-89 0 -162 67z" />
    <glyph glyph-name="utilde" unicode="&#x169;" horiz-adv-x="1167" 
d="M582 -25q-205 0 -324 115.5t-119 343.5v627h127v-619q0 -173 86 -263.5t230 -90.5q146 0 231.5 90t85.5 264v619h127v-627q0 -228 -119 -343.5t-325 -115.5zM557 1325q-58 55 -111 55q-35 0 -60.5 -28t-37.5 -78l-96 16q23 93 74 143t120 50q31 0 62 -12.5t49 -24.5
t49 -37q62 -51 113 -51q33 0 58.5 29t39.5 79l96 -16q-23 -93 -74 -143t-120 -50q-88 0 -162 68z" />
    <glyph glyph-name="Umacron" unicode="&#x16a;" horiz-adv-x="1449" 
d="M725 -25q-121 0 -221.5 35.5t-175.5 105.5t-116.5 181.5t-41.5 255.5v881h133v-871q0 -228 108 -347.5t314 -119.5t314 119.5t108 347.5v871h133v-881q0 -286 -148.5 -432t-406.5 -146zM432 1673v105h584v-105h-584z" />
    <glyph glyph-name="umacron" unicode="&#x16b;" horiz-adv-x="1167" 
d="M582 -25q-205 0 -324 115.5t-119 343.5v627h127v-619q0 -173 86 -263.5t230 -90.5q146 0 231.5 90t85.5 264v619h127v-627q0 -228 -119 -343.5t-325 -115.5zM291 1317v104h583v-104h-583z" />
    <glyph glyph-name="Ubreve" unicode="&#x16c;" horiz-adv-x="1449" 
d="M725 -25q-121 0 -221.5 35.5t-175.5 105.5t-116.5 181.5t-41.5 255.5v881h133v-871q0 -228 108 -347.5t314 -119.5t314 119.5t108 347.5v871h133v-881q0 -286 -148.5 -432t-406.5 -146zM725 1579q-121 0 -203.5 79.5t-111.5 205.5h112q28 -89 81 -137t122 -48
q68 0 120.5 48t80.5 137h112q-27 -125 -110 -205t-203 -80z" />
    <glyph glyph-name="ubreve" unicode="&#x16d;" horiz-adv-x="1167" 
d="M582 -25q-205 0 -324 115.5t-119 343.5v627h127v-619q0 -173 86 -263.5t230 -90.5q146 0 231.5 90t85.5 264v619h127v-627q0 -228 -119 -343.5t-325 -115.5zM584 1227q-121 0 -204 79t-112 205h113q28 -89 81 -136.5t122 -47.5q68 0 120 47.5t80 136.5h113
q-27 -125 -110 -204.5t-203 -79.5z" />
    <glyph glyph-name="Uring" unicode="&#x16e;" horiz-adv-x="1449" 
d="M725 -25q-121 0 -221.5 35.5t-175.5 105.5t-116.5 181.5t-41.5 255.5v881h133v-871q0 -228 108 -347.5t314 -119.5t314 119.5t108 347.5v871h133v-881q0 -286 -148.5 -432t-406.5 -146zM522 1726q0 83 58.5 140t144.5 57q85 0 143 -57t58 -140q0 -84 -58 -141t-143 -57
q-86 0 -144.5 56.5t-58.5 141.5zM621 1726q0 -46 30 -76t74 -30q43 0 72.5 30.5t29.5 75.5q0 44 -29.5 74.5t-72.5 30.5q-44 0 -74 -30.5t-30 -74.5z" />
    <glyph glyph-name="uring" unicode="&#x16f;" horiz-adv-x="1167" 
d="M582 -25q-205 0 -324 115.5t-119 343.5v627h127v-619q0 -173 86 -263.5t230 -90.5q146 0 231.5 90t85.5 264v619h127v-627q0 -228 -119 -343.5t-325 -115.5zM381 1370q0 83 58.5 140t144.5 57q85 0 142.5 -57t57.5 -140q0 -85 -57.5 -142t-142.5 -57q-86 0 -144.5 57
t-58.5 142zM479 1370q0 -46 30.5 -76t74.5 -30q43 0 72.5 30.5t29.5 75.5q0 44 -29.5 74.5t-72.5 30.5q-44 0 -74.5 -30.5t-30.5 -74.5z" />
    <glyph glyph-name="Uhungarumlaut" unicode="&#x170;" horiz-adv-x="1449" 
d="M725 -25q-121 0 -221.5 35.5t-175.5 105.5t-116.5 181.5t-41.5 255.5v881h133v-871q0 -228 108 -347.5t314 -119.5t314 119.5t108 347.5v871h133v-881q0 -286 -148.5 -432t-406.5 -146zM735 1896l99 -77l-78 -88q-116 -129 -191 -191l-71 53zM1071 1896l98 -77l-77 -88
q-116 -129 -191 -191l-72 53z" />
    <glyph glyph-name="uhungarumlaut" unicode="&#x171;" horiz-adv-x="1167" 
d="M582 -25q-205 0 -324 115.5t-119 343.5v627h127v-619q0 -173 86 -263.5t230 -90.5q146 0 231.5 90t85.5 264v619h127v-627q0 -228 -119 -343.5t-325 -115.5zM559 1540l98 -78l-77 -88q-112 -125 -191 -190l-72 53zM895 1540l98 -78l-78 -88q-115 -128 -190 -190l-72 53z
" />
    <glyph glyph-name="Uogonek" unicode="&#x172;" horiz-adv-x="1449" 
d="M682 -23q-113 5 -205.5 43.5t-161.5 108t-107 178t-38 246.5v881h133v-873q0 -228 108 -346.5t314 -118.5t314 118.5t108 346.5v873h133v-881q0 -264 -128 -408.5t-351 -162.5q-113 -94 -113 -205q0 -56 33.5 -89.5t85.5 -33.5q63 0 115 49l49 -61q-81 -91 -183 -91
q-98 0 -156.5 60.5t-58.5 146.5q0 124 109 219z" />
    <glyph glyph-name="uogonek" unicode="&#x173;" horiz-adv-x="1167" 
d="M567 -23q-200 5 -314 119t-114 338v627h127v-549q0 -216 77.5 -320t238.5 -104q162 0 239.5 104t77.5 320v549h127v-627q0 -195 -88 -309t-244 -139q-121 -95 -121 -209q0 -56 32.5 -89.5t84.5 -33.5q65 0 117 49l51 -61q-84 -91 -184 -91q-98 0 -157.5 61t-59.5 146
q0 123 110 219z" />
    <glyph glyph-name="Wcircumflex" unicode="&#x174;" horiz-adv-x="2023" 
d="M930 1434h164l336 -1278l401 1278h145l-456 -1434h-179l-329 1264l-330 -1264h-178l-457 1434h146l401 -1278zM965 1892h92l65 -73q136 -152 195 -236l-55 -47l-250 246l-252 -246l-55 47q74 105 194 236z" />
    <glyph glyph-name="wcircumflex" unicode="&#x175;" horiz-adv-x="1593" 
d="M735 1061h123l275 -903l284 903h139l-360 -1061h-127l-272 889l-273 -889h-127l-360 1061h139l285 -903zM750 1536h92l65 -74q139 -156 195 -235l-55 -47l-250 245l-252 -245l-56 47q68 96 195 235z" />
    <glyph glyph-name="Ycircumflex" unicode="&#x176;" horiz-adv-x="1212" 
d="M1174 1434l-502 -867v-567h-133v567l-502 867h149l420 -723l420 723h148zM559 1892h92l66 -73q131 -147 194 -236l-55 -47l-250 246l-252 -246l-55 47q71 100 195 236z" />
    <glyph glyph-name="ycircumflex" unicode="&#x177;" horiz-adv-x="1038" 
d="M160 -504l-39 90q138 57 207 134t123 233l18 53l-432 1055h133l360 -891l340 891h131l-428 -1120q-79 -208 -162.5 -297t-250.5 -148zM471 1536h92l66 -74q134 -151 194 -235l-55 -47l-250 245l-252 -245l-55 47q68 96 195 235z" />
    <glyph glyph-name="Ydieresis" unicode="&#x178;" horiz-adv-x="1212" 
d="M1174 1434l-502 -867v-567h-133v567l-502 867h149l420 -723l420 723h148zM342 1831h137v-207h-137v207zM731 1831h137v-207h-137v207z" />
    <glyph glyph-name="Zacute" unicode="&#x179;" horiz-adv-x="1146" 
d="M68 111l831 1204h-795v119h955v-113l-830 -1202h850v-119h-1011v111zM729 1905l98 -80l-77 -78q-112 -112 -230 -197l-61 54z" />
    <glyph glyph-name="zacute" unicode="&#x17a;" horiz-adv-x="954" 
d="M57 0v102l660 848h-625v111h785v-105l-660 -845h680v-111h-840zM631 1548l98 -80l-78 -77q-114 -114 -229 -197l-62 53z" />
    <glyph glyph-name="Zdotaccent" unicode="&#x17b;" horiz-adv-x="1146" 
d="M68 111l831 1204h-795v119h955v-113l-830 -1202h850v-119h-1011v111zM496 1831h137v-207h-137v207z" />
    <glyph glyph-name="zdotaccent" unicode="&#x17c;" horiz-adv-x="954" 
d="M57 0v102l660 848h-625v111h785v-105l-660 -845h680v-111h-840zM399 1475h138v-207h-138v207z" />
    <glyph glyph-name="Zcaron" unicode="&#x17d;" horiz-adv-x="1146" 
d="M68 111l831 1204h-795v119h955v-113l-830 -1202h850v-119h-1011v111zM621 1561h-93l-65 69q-102 107 -195 238l56 49l251 -248l250 248l56 -49q-93 -131 -195 -238z" />
    <glyph glyph-name="zcaron" unicode="&#x17e;" horiz-adv-x="954" 
d="M57 0v102l660 848h-625v111h785v-105l-660 -845h680v-111h-840zM524 1204h-92l-65 70q-105 110 -195 237l55 50l252 -248l250 248l55 -50q-93 -131 -194 -237z" />
    <glyph glyph-name="longs" unicode="&#x17f;" horiz-adv-x="710" 
d="M371 1174v-1174h-129v950h-209v111h209v123q0 164 79.5 237.5t243.5 73.5q65 0 111 -6v-115q-53 6 -111 6q-104 0 -149 -48t-45 -158z" />
    <glyph glyph-name="uni0191" unicode="&#x191;" horiz-adv-x="1089" 
d="M72 -487l-80 77q110 101 144 189t34 266v1389h872v-119h-739v-541h670v-119h-670v-579q0 -159 -21 -255.5t-68 -164t-142 -143.5z" />
    <glyph glyph-name="florin" unicode="&#x192;" horiz-adv-x="710" 
d="M137 -487l-74 77q75 70 112 128t52 132t15 195v905h-209v111h209v123q0 164 79.5 237.5t243.5 73.5q65 0 111 -6v-113q-52 6 -111 6q-102 0 -148 -47.5t-46 -160.5v-113h284v-111h-284v-874q0 -159 -21.5 -255.5t-69.5 -164t-143 -143.5z" />
    <glyph glyph-name="Aringacute" unicode="&#x1fa;" horiz-adv-x="1363" 
d="M479 1522q0 83 58.5 140.5t144.5 57.5q85 0 142 -56.5t57 -139.5q0 -53 -26.5 -98t-70.5 -72l533 -1354h-148l-147 391h-680l-147 -391h-148l531 1354q-45 25 -72 70t-27 98zM578 1522q0 -45 30 -76t74 -31q43 0 72.5 31.5t29.5 75.5q0 45 -29.5 75.5t-72.5 30.5
q-44 0 -74 -30t-30 -76zM838 2040l73 -88l-98 -64q-29 -19 -61.5 -36.5t-49 -25.5t-51.5 -23.5t-41 -18.5l-43 51zM682 1298q-53 -144 -154 -410t-143 -378h594q-42 112 -143 378t-154 410z" />
    <glyph glyph-name="aringacute" unicode="&#x1fb;" horiz-adv-x="1105" 
d="M369 1370q0 83 57.5 140t142.5 57q86 0 144.5 -57t58.5 -140q0 -85 -58.5 -142t-144.5 -57q-85 0 -142.5 57t-57.5 142zM467 1370q0 -45 29.5 -75.5t72.5 -30.5q45 0 75 30t30 76q0 44 -30.5 74.5t-74.5 30.5q-43 0 -72.5 -30.5t-29.5 -74.5zM1096 88v-102
q-42 -11 -78 -11q-64 0 -111 35t-61 115q-147 -150 -361 -150q-179 0 -288 93.5t-109 240.5q0 146 109.5 240t287.5 94q210 0 353 -106v155q0 138 -70.5 208.5t-228.5 70.5q-116 0 -184.5 -54.5t-82.5 -146.5h-133q18 142 124.5 228.5t283.5 86.5q200 0 310 -95t110 -271
v-557q0 -37 17 -57.5t46 -20.5q39 0 66 4zM512 88q180 0 326 139v191q-133 110 -326 110q-135 0 -214 -56.5t-79 -162.5q0 -108 78.5 -164.5t214.5 -56.5zM727 1884l74 -88l-99 -63q-24 -16 -46.5 -29t-46.5 -25t-36.5 -18t-40 -18.5t-32.5 -14.5l-43 51z" />
    <glyph glyph-name="AEacute" unicode="&#x1fc;" horiz-adv-x="1761" 
d="M817 1434h838v-119h-629v-516h557v-119h-557v-563h647v-117h-780v389h-487l-207 -389h-152zM893 508v799l-426 -799h426zM1251 1905l99 -80l-78 -78q-112 -112 -230 -197l-61 54z" />
    <glyph glyph-name="aeacute" unicode="&#x1fd;" horiz-adv-x="1894" 
d="M836 537q0 91 2 122v33q0 138 -70.5 208.5t-228.5 70.5q-118 0 -185.5 -54t-81.5 -147h-133q18 142 124.5 228.5t283.5 86.5q306 0 379 -229q63 106 168 167.5t233 61.5q214 0 351 -154.5t137 -398.5v-53h-848q14 -176 117.5 -283.5t269.5 -107.5q95 0 177.5 44.5
t141.5 125.5l82 -55q-75 -115 -173 -171.5t-232 -56.5q-130 0 -236.5 55.5t-175.5 153.5q-174 -209 -453 -209q-179 0 -288 93.5t-109 240.5q0 146 109.5 240t287.5 94q203 0 351 -106zM512 528q-135 0 -214 -56.5t-79 -162.5q0 -108 78.5 -164.5t214.5 -56.5
q113 0 210.5 51.5t158.5 136.5q-28 64 -37 130q-136 122 -332 122zM967 588h716q-6 171 -107 277t-249 106q-149 0 -248 -105t-112 -278zM1124 1548l99 -80l-78 -77q-112 -112 -230 -197l-61 53z" />
    <glyph glyph-name="Oslashacute" unicode="&#x1fe;" horiz-adv-x="1449" 
d="M864 1905l99 -80l-78 -78q-112 -112 -230 -197l-61 54zM145 -12l129 184q-176 207 -176 545q0 157 43 292t122 235t198 157t264 57q216 0 369 -125l125 176l88 -61l-133 -188q86 -101 132 -240.5t46 -302.5q0 -157 -43 -292.5t-122 -235.5t-198 -157t-264 -57
q-216 0 -371 123l-121 -172zM1214 717q0 264 -120 432l-666 -946q126 -107 297 -107q225 0 357 170t132 451zM236 717q0 -267 118 -432l666 944q-124 108 -295 108q-224 0 -356.5 -170.5t-132.5 -449.5z" />
    <glyph glyph-name="oslashacute" unicode="&#x1ff;" horiz-adv-x="1177" 
d="M729 1548l98 -80l-77 -77q-112 -112 -230 -197l-61 53zM858 1004l100 143l86 -62l-104 -147q71 -74 109 -179t38 -229q0 -244 -137 -399.5t-362 -155.5q-152 0 -273 78l-98 -139l-86 61l102 146q-145 158 -145 409q0 159 61 285t175.5 198t263.5 72q152 0 270 -81z
M958 530q0 180 -90 304l-485 -684q86 -62 205 -62q169 0 269.5 120.5t100.5 321.5zM588 971q-168 0 -268.5 -120.5t-100.5 -320.5q0 -188 88 -305l484 684q-87 62 -203 62z" />
    <glyph glyph-name="Scommaaccent" unicode="&#x218;" horiz-adv-x="1206" 
d="M621 96q170 0 260 74t90 190q0 126 -87.5 191t-310.5 125q-230 63 -331 170t-101 254q0 160 118 259t319 99q215 0 340 -107.5t155 -299.5h-141q-23 133 -111.5 209.5t-240.5 76.5q-146 0 -225 -65.5t-79 -171.5q0 -101 83.5 -180t252.5 -127q90 -25 155.5 -47.5
t124 -50.5t96.5 -59.5t66.5 -71.5t41 -88.5t12.5 -108.5q0 -176 -127 -284t-360 -108q-301 0 -523 295l72 66q210 -240 451 -240zM463 -494l121 396q58 -18 114 -39l-39 -111q-52 -148 -122 -272z" />
    <glyph glyph-name="scommaaccent" unicode="&#x219;" horiz-adv-x="1003" 
d="M510 88q131 0 201.5 51.5t70.5 128.5q0 84 -66 129t-233 90q-193 54 -278.5 131t-85.5 195q0 120 95.5 196t264.5 76q161 0 269.5 -82t136.5 -225h-135q-17 89 -87.5 141t-179.5 52q-105 0 -169 -41.5t-64 -110.5q0 -75 66 -127.5t225 -95.5q196 -55 284 -126.5
t88 -193.5q0 -138 -103 -219.5t-294 -81.5q-249 0 -438 234l59 63q179 -184 373 -184zM381 -494l121 396q58 -18 114 -39l-38 -111q-51 -143 -123 -272z" />
    <glyph glyph-name="uni021A" unicode="&#x21a;" horiz-adv-x="1126" 
d="M496 0v1315h-459v119h1050v-119h-458v-1315h-133zM383 -494l121 396q58 -18 114 -39l-38 -111q-51 -143 -123 -272z" />
    <glyph glyph-name="uni021B" unicode="&#x21b;" horiz-adv-x="710" 
d="M653 90v-90q-63 -25 -139 -25q-272 0 -272 338v637h-209v78l209 33v287l129 30v-317h284v-111h-284v-655q0 -118 45 -162.5t145 -44.5q65 0 92 2zM283 -494l120 396q64 -20 115 -39l-39 -111q-51 -143 -123 -272z" />
    <glyph glyph-name="dotlessj" unicode="&#x237;" horiz-adv-x="448" 
d="M55 -487l-73 77q109 101 143.5 189.5t34.5 265.5v1016h129v-985q0 -159 -21.5 -255.5t-69.5 -164t-143 -143.5z" />
    <glyph glyph-name="apostrophe" unicode="&#x2bc;" horiz-adv-x="819" 
d="M420 1530l123 -39l-45 -117q-80 -208 -154 -340l-70 19z" />
    <glyph glyph-name="circumflex" unicode="&#x2c6;" horiz-adv-x="819" 
d="M362 1495h93l65 -74q139 -156 195 -235l-56 -47l-249 245l-252 -245l-56 47q68 96 195 235z" />
    <glyph glyph-name="caron" unicode="&#x2c7;" horiz-adv-x="819" 
d="M455 1163h-93l-65 70q-105 110 -195 237l56 50l252 -248l249 248l56 -50q-90 -127 -195 -237z" />
    <glyph glyph-name="uni02C9" unicode="&#x2c9;" horiz-adv-x="819" 
d="M117 1274v104h583v-104h-583z" />
    <glyph glyph-name="breve" unicode="&#x2d8;" horiz-adv-x="819" 
d="M410 1186q-121 0 -204 79t-112 205h113q28 -89 81 -136.5t122 -47.5q68 0 120 47.5t80 136.5h113q-27 -125 -110 -204.5t-203 -79.5z" />
    <glyph glyph-name="dotaccent" unicode="&#x2d9;" horiz-adv-x="819" 
d="M340 1434h137v-207h-137v207z" />
    <glyph glyph-name="ring" unicode="&#x2da;" horiz-adv-x="819" 
d="M207 1329q0 83 58.5 140t144.5 57q85 0 142.5 -57t57.5 -140q0 -85 -57.5 -142t-142.5 -57q-86 0 -144.5 57t-58.5 142zM305 1329q0 -45 30.5 -75.5t74.5 -30.5q43 0 72.5 30.5t29.5 75.5q0 44 -29.5 74.5t-72.5 30.5q-44 0 -74.5 -30.5t-30.5 -74.5z" />
    <glyph glyph-name="ogonek" unicode="&#x2db;" horiz-adv-x="819" 
d="M393 0h117q-139 -106 -139 -225q0 -56 32 -89.5t84 -33.5q64 0 115 51l53 -63q-79 -89 -184 -89q-98 0 -157.5 60.5t-59.5 146.5q0 66 36.5 130.5t102.5 111.5z" />
    <glyph glyph-name="tilde" unicode="&#x2dc;" horiz-adv-x="819" 
d="M383 1286q-58 55 -111 55q-35 0 -60.5 -28t-37.5 -78l-96 16q23 93 74 143t120 50q31 0 62 -12.5t49 -24.5t49 -37q62 -51 113 -51q33 0 58.5 29t39.5 79l96 -16q-23 -93 -73.5 -142.5t-120.5 -49.5q-89 0 -162 67z" />
    <glyph glyph-name="hungarumlaut" unicode="&#x2dd;" horiz-adv-x="819" 
d="M309 1499l99 -78l-78 -88q-112 -125 -191 -190l-71 53zM645 1499l98 -78l-77 -88q-112 -125 -191 -190l-72 53z" />
    <glyph glyph-name="gravecomb" unicode="&#x300;" horiz-adv-x="0" 
d="M-770 1430l98 79l281 -299l-60 -49q-108 68 -256 209z" />
    <glyph glyph-name="acutecomb" unicode="&#x301;" horiz-adv-x="0" 
d="M-379 1507l98 -80l-77 -77q-112 -112 -230 -197l-61 53z" />
    <glyph glyph-name="uni0302" unicode="&#x302;" horiz-adv-x="0" 
d="M-565 1495h92l65 -74q139 -156 195 -235l-55 -47l-250 245l-252 -245l-55 47q71 100 194 235z" />
    <glyph glyph-name="tildecomb" unicode="&#x303;" horiz-adv-x="0" 
d="M-545 1286q-58 55 -110 55q-35 0 -61 -28t-38 -78l-96 16q23 93 74 143t121 50q31 0 62 -12.5t48 -24.5t49 -37q62 -51 113 -51q33 0 58.5 29t39.5 79l97 -16q-23 -93 -74 -142.5t-121 -49.5q-89 0 -162 67z" />
    <glyph glyph-name="uni0304" unicode="&#x304;" horiz-adv-x="0" 
d="M-809 1276v104h584v-104h-584z" />
    <glyph glyph-name="uni0306" unicode="&#x306;" horiz-adv-x="0" 
d="M-518 1186q-121 0 -204 79t-112 205h113q28 -89 81 -136.5t122 -47.5q68 0 120.5 47.5t80.5 136.5h112q-27 -125 -110 -204.5t-203 -79.5z" />
    <glyph glyph-name="uni0307" unicode="&#x307;" horiz-adv-x="0" 
d="M-588 1434h137v-207h-137v207z" />
    <glyph glyph-name="uni0308" unicode="&#x308;" horiz-adv-x="0" 
d="M-782 1434h137v-207h-137v207zM-393 1434h137v-207h-137v207z" />
    <glyph glyph-name="uni030A" unicode="&#x30a;" horiz-adv-x="0" 
d="M-721 1329q0 83 58.5 140t144.5 57q85 0 143 -57t58 -140q0 -85 -58 -142t-143 -57q-86 0 -144.5 57t-58.5 142zM-623 1329q0 -45 30.5 -75.5t74.5 -30.5q43 0 72.5 30.5t29.5 75.5q0 44 -29.5 74.5t-72.5 30.5q-44 0 -74.5 -30.5t-30.5 -74.5z" />
    <glyph glyph-name="uni030C" unicode="&#x30c;" horiz-adv-x="0" 
d="M-473 1163h-92l-66 70q-101 106 -194 237l55 50l252 -248l250 248l55 -50q-90 -127 -195 -237z" />
    <glyph glyph-name="uni0327" unicode="&#x327;" horiz-adv-x="0" 
d="M-555 -487q-107 0 -182 81l49 64q56 -47 131 -47q56 0 88.5 27t32.5 71q0 55 -52 87t-143 34l-10 14q54 114 76 156h110l-51 -102q88 -17 135 -71.5t47 -131.5q0 -76 -60.5 -129t-170.5 -53z" />
    <glyph glyph-name="uni03A9" unicode="&#x3a9;" horiz-adv-x="1452" 
d="M725 1458q147 0 267 -54.5t198.5 -149t121 -222t42.5 -274.5q0 -207 -88 -368.5t-236 -270.5h301v-119h-479v117q365 243 365 641q0 119 -33.5 223.5t-94.5 184t-155.5 125.5t-208.5 46q-151 0 -263.5 -79.5t-169 -209.5t-56.5 -290q0 -400 362 -641v-117h-477v119h301
q-149 108 -236.5 269.5t-87.5 369.5q0 147 42 274.5t120.5 222t198 149t266.5 54.5z" />
    <glyph glyph-name="uni0400" unicode="&#x400;" horiz-adv-x="1148" 
d="M170 0v1434h872v-119h-739v-516h668v-119h-668v-561h758v-119h-891zM371 1827l98 80l281 -299l-60 -49q-111 70 -256 208z" />
    <glyph glyph-name="afii10023" unicode="&#x401;" horiz-adv-x="1148" 
d="M170 0v1434h872v-119h-739v-516h668v-119h-668v-561h758v-119h-891zM350 1831h137v-207h-137v207zM739 1831h138v-207h-138v207z" />
    <glyph glyph-name="afii10051" unicode="&#x402;" horiz-adv-x="1525" 
d="M834 57l32 90q67 -26 125 -26q97 0 166.5 49.5t102 127.5t32.5 175q0 157 -84 254.5t-243 97.5q-95 0 -183.5 -33t-152.5 -90v-702h-133v1315h-459v119h1050v-119h-458v-498q72 56 163 90.5t185 34.5q208 0 330.5 -128.5t122.5 -332.5q0 -209 -113 -345t-305 -136
q-99 0 -178 57z" />
    <glyph glyph-name="afii10052" unicode="&#x403;" horiz-adv-x="1081" 
d="M748 1905l98 -80l-78 -78q-114 -114 -229 -197l-62 54zM170 0v1434h870v-119h-737v-1315h-133z" />
    <glyph glyph-name="afii10053" unicode="&#x404;" horiz-adv-x="1392" 
d="M98 717q0 215 81 383t230.5 263t342.5 95q125 0 230 -39t177 -108t117 -160.5t57 -198.5h-139q-24 171 -143 278t-295 107q-216 0 -359.5 -151.5t-160.5 -409.5h714v-119h-714q17 -259 160 -410t360 -151q298 0 465 275l88 -56q-191 -340 -557 -340q-194 0 -343 94.5
t-230 263.5t-81 384z" />
    <glyph glyph-name="afii10054" unicode="&#x405;" horiz-adv-x="1206" 
d="M621 96q170 0 260 74t90 190q0 126 -87.5 191t-310.5 125q-230 63 -331 170t-101 254q0 160 118 259t319 99q215 0 340 -107.5t155 -299.5h-141q-23 133 -111.5 209.5t-240.5 76.5q-146 0 -225 -65.5t-79 -171.5q0 -101 83.5 -180t252.5 -127q90 -25 155.5 -47.5
t124 -50.5t96.5 -59.5t66.5 -71.5t41 -88.5t12.5 -108.5q0 -176 -127 -284t-360 -108q-301 0 -523 295l72 66q210 -240 451 -240z" />
    <glyph glyph-name="afii10055" unicode="&#x406;" horiz-adv-x="495" 
d="M180 1434h133v-1434h-133v1434z" />
    <glyph glyph-name="afii10056" unicode="&#x407;" horiz-adv-x="495" 
d="M180 1434h133v-1434h-133v1434zM-16 1831h137v-207h-137v207zM373 1831h137v-207h-137v207z" />
    <glyph glyph-name="afii10057" unicode="&#x408;" horiz-adv-x="1134" 
d="M86 272l82 56q72 -119 157.5 -175.5t194.5 -56.5q146 0 227.5 100t81.5 279v959h134v-959q0 -238 -115.5 -369t-308.5 -131q-147 0 -258.5 73t-194.5 224z" />
    <glyph glyph-name="afii10058" unicode="&#x409;" horiz-adv-x="2041" 
d="M166 -25l-74 78q109 100 141.5 187.5t32.5 267.5v926h916v-607h307q222 0 346.5 -111t124.5 -302t-124.5 -302.5t-346.5 -111.5h-440v1315h-650v-776q0 -159 -21.5 -255.5t-69 -164.5t-142.5 -144zM1825 414q0 141 -89 218t-266 77h-288v-590h288q176 0 265.5 77.5
t89.5 217.5z" />
    <glyph glyph-name="afii10059" unicode="&#x40a;" horiz-adv-x="2064" 
d="M1071 1434h133v-607h307q222 0 346.5 -111t124.5 -302t-124.5 -302.5t-346.5 -111.5h-440v709h-768v-709h-133v1434h133v-607h768v607zM1845 414q0 141 -88 218t-264 77h-289v-590h289q176 0 264 77.5t88 217.5z" />
    <glyph glyph-name="afii10060" unicode="&#x40b;" horiz-adv-x="1568" 
d="M496 0v1315h-459v119h1050v-119h-458v-492q160 119 348 119q216 0 334.5 -121.5t118.5 -347.5v-473h-134v463q0 182 -81 272t-250 90q-200 0 -336 -114v-711h-133z" />
    <glyph glyph-name="afii10061" unicode="&#x40c;" horiz-adv-x="1236" 
d="M303 1434v-873l682 873h160l-463 -586l528 -848h-161l-451 743l-295 -374v-369h-133v1434h133zM803 1905l98 -80l-78 -78q-114 -114 -229 -197l-62 54z" />
    <glyph glyph-name="uni040D" unicode="&#x40d;" horiz-adv-x="1435" 
d="M451 1827l98 80l280 -299l-59 -49q-111 70 -256 208zM1257 1434v-1434h-127v1221l-831 -1221h-129v1434h127v-1223l831 1223h129z" />
    <glyph glyph-name="afii10062" unicode="&#x40e;" horiz-adv-x="1208" 
d="M596 1579q-121 0 -203.5 79.5t-111.5 205.5h112q28 -89 81 -137t122 -48q68 0 120.5 48t80.5 137h112q-27 -125 -110 -205t-203 -80zM623 582l403 852h145l-682 -1434h-143l209 440l-518 994h145z" />
    <glyph glyph-name="afii10145" unicode="&#x40f;" horiz-adv-x="1413" 
d="M170 0v1434h133v-1317h807v1317h133v-1434h-471v-246h-133v246h-469z" />
    <glyph glyph-name="afii10017" unicode="&#x410;" horiz-adv-x="1363" 
d="M608 1434h148l561 -1434h-148l-147 391h-680l-147 -391h-148zM682 1292l-297 -782h594z" />
    <glyph glyph-name="afii10018" unicode="&#x411;" horiz-adv-x="1163" 
d="M170 1434h793v-119h-660v-490h307q222 0 346.5 -110t124.5 -301q0 -192 -124.5 -303t-346.5 -111h-440v1434zM946 414q0 141 -88.5 218t-265.5 77h-289v-592h289q176 0 265 78t89 219z" />
    <glyph glyph-name="afii10019" unicode="&#x412;" horiz-adv-x="1265" 
d="M170 0v1434h475q216 0 338.5 -101.5t122.5 -271.5q0 -114 -58 -196.5t-159 -108.5q137 -26 213 -120.5t76 -234.5q0 -190 -132.5 -295.5t-379.5 -105.5h-496zM303 803h356q146 0 230 70t84 188q0 124 -90 189t-258 65h-322v-512zM1044 401q0 134 -93 208.5t-273 74.5
h-375v-565h344q197 0 297 72t100 210z" />
    <glyph glyph-name="afii10020" unicode="&#x413;" horiz-adv-x="1081" 
d="M170 0v1434h870v-119h-737v-1315h-133z" />
    <glyph glyph-name="afii10021" unicode="&#x414;" horiz-adv-x="1263" 
d="M1217 119v-365h-134v246h-903v-246h-133v365h117q139 366 139 962v353h758v-1315h156zM305 119h623v1196h-492v-248q0 -551 -131 -948z" />
    <glyph glyph-name="afii10022" unicode="&#x415;" horiz-adv-x="1148" 
d="M170 0v1434h872v-119h-739v-516h668v-119h-668v-561h758v-119h-891z" />
    <glyph glyph-name="afii10024" unicode="&#x416;" horiz-adv-x="1835" 
d="M983 1434v-840l604 840h156l-430 -592l495 -842h-161l-416 731l-248 -338v-393h-133v393l-248 338l-414 -731h-161l493 842l-430 592h158l602 -840v840h133z" />
    <glyph glyph-name="afii10025" unicode="&#x417;" horiz-adv-x="1136" 
d="M893 377q0 151 -107.5 232t-287.5 81h-136v119h136q158 0 257 75t99 206q0 108 -80.5 176.5t-216.5 68.5q-131 0 -215.5 -74.5t-99.5 -211.5h-136q23 198 146 303.5t309 105.5q197 0 314.5 -98t117.5 -260q0 -135 -81 -229.5t-201 -120.5q153 -34 237 -130t84 -245
q0 -178 -124.5 -289t-346.5 -111q-293 0 -477 248l72 62q169 -193 399 -193q158 0 248 79t90 206z" />
    <glyph glyph-name="afii10026" unicode="&#x418;" horiz-adv-x="1429" 
d="M1257 1434v-1434h-127v1221l-831 -1221h-129v1434h127v-1223l831 1223h129z" />
    <glyph glyph-name="afii10027" unicode="&#x419;" horiz-adv-x="1429" 
d="M715 1579q-121 0 -204 79.5t-112 205.5h113q28 -89 81 -137t122 -48q68 0 120 48t80 137h113q-27 -125 -110 -205t-203 -80zM1257 1434v-1434h-127v1221l-831 -1221h-129v1434h127v-1223l831 1223h129z" />
    <glyph glyph-name="afii10028" unicode="&#x41a;" horiz-adv-x="1236" 
d="M303 1434v-873l682 873h160l-463 -586l528 -848h-161l-451 743l-295 -374v-369h-133v1434h133z" />
    <glyph glyph-name="afii10029" unicode="&#x41b;" horiz-adv-x="1392" 
d="M166 -25l-74 76q108 102 141 189.5t33 267.5v926h957v-1434h-133v1315h-691v-776q0 -159 -21.5 -255.5t-69 -164.5t-142.5 -144z" />
    <glyph glyph-name="afii10030" unicode="&#x41c;" horiz-adv-x="1716" 
d="M1546 1434v-1434h-129v1194l-516 -913h-86l-518 913v-1194h-127v1434h131l557 -985l557 985h131z" />
    <glyph glyph-name="afii10031" unicode="&#x41d;" horiz-adv-x="1417" 
d="M170 0v1434h133v-613h809v613h133v-1434h-133v702h-809v-702h-133z" />
    <glyph glyph-name="afii10032" unicode="&#x41e;" horiz-adv-x="1449" 
d="M1352 717q0 -157 -43 -292.5t-122 -235.5t-198 -157t-264 -57t-264 57t-198 157t-122 235.5t-43 292.5t43 292t122 235t198 157t264 57t264 -57t198 -157t122 -235t43 -292zM236 717q0 -280 132.5 -450.5t356.5 -170.5q225 0 357 170t132 451q0 279 -132 449.5
t-357 170.5q-224 0 -356.5 -170.5t-132.5 -449.5z" />
    <glyph glyph-name="afii10033" unicode="&#x41f;" horiz-adv-x="1419" 
d="M170 0v1434h1079v-1434h-133v1315h-813v-1315h-133z" />
    <glyph glyph-name="afii10034" unicode="&#x420;" horiz-adv-x="1193" 
d="M1116 995q0 -214 -138.5 -326t-389.5 -112h-285v-557h-133v1434h418q250 0 389 -113t139 -326zM979 995q0 320 -404 320h-272v-639h272q404 0 404 319z" />
    <glyph glyph-name="afii10035" unicode="&#x421;" horiz-adv-x="1392" 
d="M98 717q0 215 81 383t230.5 263t342.5 95q125 0 230 -39t177 -108t117 -160.5t57 -198.5h-139q-24 171 -143 278t-295 107q-150 0 -267 -74t-185 -215.5t-68 -330.5q0 -285 145.5 -453t374.5 -168q298 0 465 275l88 -56q-191 -340 -557 -340q-194 0 -343 94.5t-230 263.5
t-81 384z" />
    <glyph glyph-name="afii10036" unicode="&#x422;" horiz-adv-x="1126" 
d="M496 0v1315h-459v119h1050v-119h-458v-1315h-133z" />
    <glyph glyph-name="afii10037" unicode="&#x423;" horiz-adv-x="1208" 
d="M623 582l403 852h145l-682 -1434h-143l209 440l-518 994h145z" />
    <glyph glyph-name="afii10038" unicode="&#x424;" horiz-adv-x="1449" 
d="M1358 717q0 -225 -155.5 -360t-411.5 -144v-213h-134v213q-256 9 -410.5 144t-154.5 360q0 223 154 357t411 145v215h134v-215q255 -9 411 -144t156 -358zM1223 717q0 174 -118 274.5t-314 106.5v-764q196 6 314 107t118 276zM227 717q0 -176 116.5 -276.5t313.5 -106.5
v764q-197 -6 -313.5 -106.5t-116.5 -274.5z" />
    <glyph glyph-name="afii10039" unicode="&#x425;" horiz-adv-x="1214" 
d="M37 0l491 745l-450 689h153l375 -570l375 570h156l-453 -689l494 -745h-156l-416 629l-413 -629h-156z" />
    <glyph glyph-name="afii10040" unicode="&#x426;" horiz-adv-x="1445" 
d="M1243 117h154v-363h-133v246h-1094v1434h133v-1317h807v1317h133v-1317z" />
    <glyph glyph-name="afii10041" unicode="&#x427;" horiz-adv-x="1236" 
d="M932 1434h133v-1434h-133v612q-153 -110 -340 -110q-218 0 -335.5 120.5t-117.5 346.5v465h133v-455q0 -182 81 -272.5t251 -90.5q192 0 328 111v707z" />
    <glyph glyph-name="afii10042" unicode="&#x428;" horiz-adv-x="1683" 
d="M170 0v1434h133v-1317h471v1317h133v-1317h471v1317h133v-1434h-1341z" />
    <glyph glyph-name="afii10043" unicode="&#x429;" horiz-adv-x="1714" 
d="M170 0v1434h133v-1317h471v1317h133v-1317h471v1317h133v-1317h156v-363h-133v246h-1364z" />
    <glyph glyph-name="afii10044" unicode="&#x42a;" horiz-adv-x="1368" 
d="M41 1434h467v-609h307q222 0 346.5 -110t124.5 -301q0 -192 -124.5 -303t-346.5 -111h-440v1315h-334v119zM1151 414q0 141 -88.5 218t-265.5 77h-289v-592h289q176 0 265 78t89 219z" />
    <glyph glyph-name="afii10045" unicode="&#x42b;" horiz-adv-x="1581" 
d="M1276 1434h133v-1434h-133v1434zM170 1434h133v-607h307q222 0 346.5 -111t124.5 -302t-124.5 -302.5t-346.5 -111.5h-440v1434zM946 414q0 141 -88.5 218t-265.5 77h-289v-590h289q176 0 265 77.5t89 217.5z" />
    <glyph glyph-name="afii10046" unicode="&#x42c;" horiz-adv-x="1163" 
d="M170 1434h133v-607h307q222 0 346.5 -111t124.5 -302t-124.5 -302.5t-346.5 -111.5h-440v1434zM946 414q0 141 -88.5 218t-265.5 77h-289v-590h289q176 0 265 77.5t89 217.5z" />
    <glyph glyph-name="afii10047" unicode="&#x42d;" horiz-adv-x="1392" 
d="M1292 717q0 -215 -80.5 -384t-229 -263.5t-341.5 -94.5q-365 0 -559 340l88 56q170 -275 467 -275q216 0 359.5 151.5t158.5 409.5h-715v119h715q-15 257 -158.5 409t-359.5 152q-176 0 -295.5 -107t-144.5 -278h-140q26 221 180.5 363.5t403.5 142.5q193 0 341.5 -95
t229 -263.5t80.5 -382.5z" />
    <glyph glyph-name="afii10048" unicode="&#x42e;" horiz-adv-x="1675" 
d="M170 1434h133v-658h232q7 200 68 352t177.5 241t274.5 89q125 0 224.5 -55.5t164.5 -155t99 -234.5t34 -296q0 -216 -58.5 -382t-178 -263t-285.5 -97q-158 0 -274.5 88.5t-177.5 240.5t-68 353h-232v-657h-133v1434zM672 717q0 -290 99.5 -455.5t283.5 -165.5
t283.5 165.5t99.5 455.5t-99.5 455t-283.5 165t-283.5 -165t-99.5 -455z" />
    <glyph glyph-name="afii10049" unicode="&#x42f;" horiz-adv-x="1255" 
d="M125 1010q0 194 138 309t376 115h444v-1434h-133v588h-213q-51 0 -149 4l-395 -592h-152l410 608q-156 41 -241 145.5t-85 256.5zM262 1010q0 -142 99.5 -222.5t289.5 -80.5h299v608h-299q-190 0 -289.5 -80.5t-99.5 -224.5z" />
    <glyph glyph-name="afii10065" unicode="&#x430;" horiz-adv-x="1105" 
d="M1096 88v-102q-37 -11 -78 -11q-64 0 -111 35t-61 115q-147 -150 -361 -150q-179 0 -288 93.5t-109 240.5q0 146 109.5 240t287.5 94q210 0 353 -106v155q0 138 -70.5 208.5t-228.5 70.5q-116 0 -184.5 -54.5t-82.5 -146.5h-133q18 142 124.5 228.5t283.5 86.5
q200 0 310 -95t110 -271v-557q0 -37 17 -57.5t46 -20.5q16 0 66 4zM512 88q180 0 326 139v191q-133 110 -326 110q-135 0 -214 -56.5t-79 -162.5q0 -108 78.5 -164.5t214.5 -56.5z" />
    <glyph glyph-name="afii10066" unicode="&#x431;" horiz-adv-x="1126" 
d="M1012 1520l-11 -117q-680 -47 -749 -531q60 64 151 104t185 40q208 0 328 -137t120 -383q0 -243 -123 -382t-319 -139q-239 0 -362 182.5t-123 506.5q0 194 46.5 338.5t151 255.5t280 176t425.5 86zM588 901q-100 0 -192 -42.5t-158 -123.5q0 -11 -1 -33.5t-1 -35.5
q0 -298 96 -438t262 -140q145 0 228 111t83 297q0 192 -83.5 298.5t-233.5 106.5z" />
    <glyph glyph-name="afii10067" unicode="&#x432;" horiz-adv-x="1044" 
d="M530 0h-380v1061h368q189 0 286 -73t97 -202q0 -179 -162 -227q100 -21 158.5 -88t58.5 -172q0 -136 -106 -217.5t-320 -81.5zM770 778q0 89 -62 130.5t-192 41.5h-246v-344h256q125 0 184.5 45.5t59.5 126.5zM825 301q0 195 -278 195h-277v-385h271q138 0 211 50t73 140
z" />
    <glyph glyph-name="afii10068" unicode="&#x433;" horiz-adv-x="897" 
d="M862 950h-583v-950h-129v1061h712v-111z" />
    <glyph glyph-name="afii10069" unicode="&#x434;" horiz-adv-x="1144" 
d="M1098 111v-336h-129v225h-793v-225h-129v336h125q117 298 117 684v266h653v-950h156zM303 111h510v839h-397v-172q0 -358 -113 -667z" />
    <glyph glyph-name="afii10070" unicode="&#x435;" horiz-adv-x="1148" 
d="M606 88q97 0 179.5 44.5t140.5 125.5l80 -55q-75 -116 -172 -172t-230 -56q-154 0 -272.5 74.5t-181 200t-62.5 280.5q0 242 138 398.5t354 156.5q214 0 351.5 -154.5t137.5 -398.5q0 -37 -2 -53h-846q12 -176 116 -283.5t269 -107.5zM221 588h715q-6 171 -107 277
t-249 106t-247 -105t-112 -278z" />
    <glyph glyph-name="afii10072" unicode="&#x436;" horiz-adv-x="1531" 
d="M829 1061v-592l474 592h153l-346 -424l408 -637h-140l-346 543l-203 -248v-295h-127v295l-204 248l-344 -543h-142l410 637l-348 424h153l475 -592v592h127z" />
    <glyph glyph-name="afii10073" unicode="&#x437;" horiz-adv-x="980" 
d="M887 285q0 -138 -113 -224t-303 -86q-122 0 -219 46.5t-193 140.5l66 69q87 -72 169.5 -107.5t180.5 -35.5q130 0 206.5 54.5t76.5 142.5q0 101 -103 159t-249 58h-115v112h112q141 0 227.5 51t86.5 140q0 77 -69 121.5t-187 44.5q-113 0 -181.5 -49t-89.5 -134h-131
q28 137 134 217t266 80q173 0 281 -73t108 -201q0 -93 -59.5 -159.5t-163.5 -94.5q123 -28 192.5 -98.5t69.5 -173.5z" />
    <glyph glyph-name="afii10074" unicode="&#x438;" horiz-adv-x="1212" 
d="M1061 0h-127v866l-655 -866h-129v1061h129v-866l653 866h129v-1061z" />
    <glyph glyph-name="afii10075" unicode="&#x439;" horiz-adv-x="1212" 
d="M606 1227q-121 0 -203.5 79t-111.5 205h112q28 -89 81 -136.5t122 -47.5q68 0 120.5 47.5t80.5 136.5h113q-27 -125 -110.5 -204.5t-203.5 -79.5zM1061 0h-127v866l-655 -866h-129v1061h129v-866l653 866h129v-1061z" />
    <glyph glyph-name="afii10076" unicode="&#x43a;" horiz-adv-x="1036" 
d="M276 1061v-610l525 610h160l-369 -422l430 -639h-145l-367 549l-234 -266v-283h-126v1061h126z" />
    <glyph glyph-name="afii10077" unicode="&#x43b;" horiz-adv-x="1146" 
d="M145 -25l-73 76q53 51 84.5 90t52 76t29.5 90t11.5 104t2.5 146v504h743v-1061h-127v950h-489v-467q0 -183 -49.5 -291.5t-184.5 -216.5z" />
    <glyph glyph-name="afii10078" unicode="&#x43c;" horiz-adv-x="1409" 
d="M279 0h-129v1061h120l435 -678l432 678h120v-1061h-127v829l-385 -591h-83l-383 593v-831z" />
    <glyph glyph-name="afii10079" unicode="&#x43d;" horiz-adv-x="1175" 
d="M279 633h618v428h127v-1061h-127v522h-618v-522h-129v1061h129v-428z" />
    <glyph glyph-name="afii10080" unicode="&#x43e;" horiz-adv-x="1177" 
d="M1087 530q0 -244 -137 -399.5t-362 -155.5t-362.5 155.5t-137.5 399.5q0 159 61 285t175.5 198t263.5 72q224 0 361.5 -156.5t137.5 -398.5zM958 530q0 200 -101 320.5t-269 120.5t-268.5 -120.5t-100.5 -320.5q0 -201 100 -321.5t269 -120.5t269.5 120.5t100.5 321.5z
" />
    <glyph glyph-name="afii10081" unicode="&#x43f;" horiz-adv-x="1136" 
d="M150 0v1061h837v-1061h-129v950h-582v-950h-126z" />
    <glyph glyph-name="afii10082" unicode="&#x440;" horiz-adv-x="1181" 
d="M276 819v-581q61 -67 152 -108.5t180 -41.5q174 0 260 113.5t86 328.5q0 213 -86 327t-260 114q-89 0 -180.5 -42t-151.5 -110zM250 1061l20 -129q68 71 163.5 112t197.5 41q217 0 335.5 -148t118.5 -407q0 -261 -118 -408t-336 -147q-100 0 -192.5 39t-162.5 105v-553
h-126v1495h100z" />
    <glyph glyph-name="afii10083" unicode="&#x441;" horiz-adv-x="1093" 
d="M88 530q0 247 135.5 401t354.5 154q174 0 298 -96t160 -266h-131q-29 115 -116 182.5t-203 67.5q-167 0 -267 -119.5t-100 -323.5q0 -203 106.5 -322.5t280.5 -119.5q102 0 188.5 55t145.5 156l86 -51q-140 -273 -428 -273q-226 0 -368 154t-142 401z" />
    <glyph glyph-name="afii10084" unicode="&#x442;" horiz-adv-x="991" 
d="M430 0v950h-399v111h930v-111h-402v-950h-129z" />
    <glyph glyph-name="afii10085" unicode="&#x443;" horiz-adv-x="1038" 
d="M160 -504l-39 90q138 57 207 134t123 233l18 53l-432 1055h133l360 -891l340 891h131l-428 -1120q-79 -208 -162.5 -297t-250.5 -148z" />
    <glyph glyph-name="afii10086" unicode="&#x444;" horiz-adv-x="1814" 
d="M844 -434v547q-144 -138 -322 -138q-213 0 -320.5 146t-107.5 409t108 409t322 146q179 0 320 -141v551h127v-551q141 141 317 141q215 0 322.5 -146t107.5 -409q0 -264 -107 -409.5t-321 -145.5q-178 0 -319 138v-547h-127zM1260 971q-81 0 -155.5 -38t-133.5 -102v-598
q56 -67 134.5 -106t162.5 -39q170 0 245.5 114t75.5 328q0 219 -76.5 330t-252.5 111zM545 88q85 0 163 39t136 106v598q-133 140 -289 140q-177 0 -253.5 -111t-76.5 -330q0 -215 75 -328.5t245 -113.5z" />
    <glyph glyph-name="afii10087" unicode="&#x445;" horiz-adv-x="995" 
d="M821 0l-325 455l-324 -455h-145l397 557l-358 504h145l285 -404l286 404h146l-359 -504l398 -557h-146z" />
    <glyph glyph-name="afii10088" unicode="&#x446;" horiz-adv-x="1196" 
d="M987 111h162v-336h-129v225h-870v1061h129v-950h579v950h129v-950z" />
    <glyph glyph-name="afii10089" unicode="&#x447;" horiz-adv-x="1112" 
d="M522 492q87 0 171.5 36.5t142.5 94.5v438h127v-1061h-127v508q-70 -57 -157.5 -93t-174.5 -36q-187 0 -289 98t-102 297v287h127v-275q0 -155 69 -224.5t213 -69.5z" />
    <glyph glyph-name="afii10090" unicode="&#x448;" horiz-adv-x="1425" 
d="M776 111h371v950h127v-1061h-1124v1061h129v-950h368v950h129v-950z" />
    <glyph glyph-name="afii10091" unicode="&#x449;" horiz-adv-x="1484" 
d="M1274 109h162v-334h-127v225h-1159v1061h126v-952h371v952h129v-952h371v952h127v-952z" />
    <glyph glyph-name="afii10092" unicode="&#x44a;" horiz-adv-x="1142" 
d="M655 0h-342v950h-301v111h428v-412h215q205 0 311.5 -86t106.5 -239q0 -152 -106.5 -238t-311.5 -86zM942 324q0 105 -70.5 160t-228.5 55h-201v-430h201q158 0 228.5 55t70.5 160z" />
    <glyph glyph-name="afii10093" unicode="&#x44b;" horiz-adv-x="1374" 
d="M1223 0h-127v1061h127v-1061zM492 0h-342v1061h126v-412h216q205 0 311 -86t106 -239t-106 -238.5t-311 -85.5zM778 324q0 105 -70.5 160t-228.5 55h-200v-430h200q158 0 228.5 55t70.5 160z" />
    <glyph glyph-name="afii10094" unicode="&#x44c;" horiz-adv-x="978" 
d="M492 0h-342v1061h126v-412h216q205 0 311 -86t106 -239t-106 -238.5t-311 -85.5zM778 324q0 105 -70.5 160t-228.5 55h-200v-430h200q158 0 228.5 55t70.5 160z" />
    <glyph glyph-name="afii10095" unicode="&#x44d;" horiz-adv-x="1093" 
d="M1006 530q0 -247 -142.5 -401t-367.5 -154q-284 0 -422 277l84 51q124 -215 329 -215q161 0 266.5 103.5t118.5 283.5h-501v111h501q-13 180 -114 283.5t-256 103.5q-119 0 -208 -72t-118 -199h-133q35 181 162.5 282t304.5 101q220 0 358 -154.5t138 -400.5z" />
    <glyph glyph-name="afii10096" unicode="&#x44e;" horiz-adv-x="1460" 
d="M276 0h-126v1061h126v-477h193q14 225 135 363t316 138q204 0 327 -155t123 -400q0 -246 -122.5 -400.5t-327.5 -154.5q-195 0 -316 137.5t-135 362.5h-193v-475zM598 530q0 -202 88.5 -322t233.5 -120t232 120t87 322q0 201 -87 321t-232 120t-233.5 -120.5
t-88.5 -320.5z" />
    <glyph glyph-name="afii10097" unicode="&#x44f;" horiz-adv-x="1079" 
d="M479 453l-293 -453h-153l309 471q-116 29 -174.5 103.5t-58.5 181.5q0 144 102 224.5t297 80.5h422v-1061h-129v451h-207q-20 0 -58.5 1t-56.5 1zM518 561h283v389h-283q-142 0 -212 -53t-70 -141q0 -89 70 -142t212 -53z" />
    <glyph glyph-name="uni0450" unicode="&#x450;" horiz-adv-x="1148" 
d="M606 88q97 0 179.5 44.5t140.5 125.5l80 -55q-75 -116 -172 -172t-230 -56q-154 0 -272.5 74.5t-181 200t-62.5 280.5q0 242 138 398.5t354 156.5q214 0 351.5 -154.5t137.5 -398.5q0 -37 -2 -53h-846q12 -176 116 -283.5t269 -107.5zM221 588h715q-6 171 -107 277
t-249 106t-247 -105t-112 -278zM352 1470l99 80l280 -299l-59 -49q-108 68 -256 209z" />
    <glyph glyph-name="afii10071" unicode="&#x451;" horiz-adv-x="1148" 
d="M606 88q97 0 179.5 44.5t140.5 125.5l80 -55q-75 -116 -172 -172t-230 -56q-154 0 -272.5 74.5t-181 200t-62.5 280.5q0 242 138 398.5t354 156.5q214 0 351.5 -154.5t137.5 -398.5q0 -37 -2 -53h-846q12 -176 116 -283.5t269 -107.5zM221 588h715q-6 171 -107 277
t-249 106t-247 -105t-112 -278zM322 1475h137v-207h-137v207zM711 1475h137v-207h-137v207z" />
    <glyph glyph-name="afii10099" unicode="&#x452;" horiz-adv-x="1179" 
d="M1038 696v-641q0 -149 -20.5 -241t-68.5 -159t-142 -142l-76 77q110 101 145 187t35 248v639q0 154 -66 231.5t-204 77.5q-102 0 -198 -54t-162 -133v-786h-129v1231h-136v104h136v160h129v-160h421v-104h-421v-316q170 170 385 170q175 0 273.5 -100t98.5 -289z" />
    <glyph glyph-name="afii10100" unicode="&#x453;" horiz-adv-x="897" 
d="M639 1548l98 -80l-78 -77q-114 -114 -229 -197l-61 53zM862 950h-583v-950h-129v1061h712v-111z" />
    <glyph glyph-name="afii10101" unicode="&#x454;" horiz-adv-x="1093" 
d="M88 530q0 246 138 400.5t358 154.5q176 0 304 -101.5t161 -281.5h-131q-29 127 -118 199t-208 72q-155 0 -256.5 -103.5t-114.5 -283.5h502v-111h-502q13 -181 118 -284t267 -103q101 0 185.5 56t142.5 159l86 -51q-142 -277 -422 -277q-226 0 -368 154t-142 401z" />
    <glyph glyph-name="afii10102" unicode="&#x455;" horiz-adv-x="1003" 
d="M510 88q131 0 201.5 51.5t70.5 128.5q0 84 -66 129t-233 90q-193 54 -278.5 131t-85.5 195q0 120 95.5 196t264.5 76q161 0 269.5 -82t136.5 -225h-135q-17 89 -87.5 141t-179.5 52q-105 0 -169 -41.5t-64 -110.5q0 -75 66 -127.5t225 -95.5q196 -55 284 -126.5
t88 -193.5q0 -138 -103 -219.5t-294 -81.5q-249 0 -438 234l59 63q179 -184 373 -184z" />
    <glyph glyph-name="afii10103" unicode="&#x456;" horiz-adv-x="454" 
d="M164 0v1061h127v-1061h-127zM164 1468h127v-188h-127v188z" />
    <glyph glyph-name="afii10104" unicode="&#x457;" horiz-adv-x="454" 
d="M-37 1475h137v-207h-137v207zM352 1475h137v-207h-137v207zM164 0v1061h127v-1061h-127z" />
    <glyph glyph-name="afii10105" unicode="&#x458;" horiz-adv-x="448" 
d="M160 1468h127v-188h-127v188zM55 -487l-73 77q109 103 143.5 190.5t34.5 264.5v1016h127v-985q0 -159 -21 -255.5t-68.5 -164t-142.5 -143.5z" />
    <glyph glyph-name="afii10106" unicode="&#x459;" horiz-adv-x="1662" 
d="M252 1061h717v-412h215q205 0 311.5 -86t106.5 -239q0 -152 -106.5 -238t-311.5 -86h-344v950h-461v-467q0 -184 -48.5 -292.5t-183.5 -215.5l-75 78q110 101 145 178.5t35 221.5v608zM1470 324q0 105 -70.5 160t-228.5 55h-202v-428h202q158 0 228.5 54.5t70.5 158.5z
" />
    <glyph glyph-name="afii10107" unicode="&#x45a;" horiz-adv-x="1656" 
d="M1169 0h-342v532h-551v-532h-126v1061h126v-418h551v418h129v-412h213q206 0 312 -86t106 -239t-106 -238.5t-312 -85.5zM1458 324q0 105 -71 160t-230 55h-201v-430h201q159 0 230 55t71 160z" />
    <glyph glyph-name="afii10108" unicode="&#x45b;" horiz-adv-x="1179" 
d="M16 1335h136v160h129v-160h421v-104h-421v-316q170 170 385 170q175 0 273.5 -100t98.5 -289v-696h-127v664q0 154 -66 231.5t-204 77.5q-102 0 -198 -54t-162 -133v-786h-129v1231h-136v104z" />
    <glyph glyph-name="afii10109" unicode="&#x45c;" horiz-adv-x="1036" 
d="M684 1548l98 -80l-77 -77q-112 -112 -230 -197l-61 53zM276 1061v-610l525 610h160l-369 -422l430 -639h-145l-367 549l-234 -266v-283h-126v1061h126z" />
    <glyph glyph-name="uni045D" unicode="&#x45d;" horiz-adv-x="1212" 
d="M342 1470l98 80l281 -299l-59 -49q-108 68 -256 209zM1061 0h-127v866l-655 -866h-129v1061h129v-866l653 866h129v-1061z" />
    <glyph glyph-name="afii10110" unicode="&#x45e;" horiz-adv-x="1038" 
d="M160 -504l-39 90q138 57 207 134t123 233l18 53l-432 1055h133l360 -891l340 891h131l-428 -1120q-79 -208 -162.5 -297t-250.5 -148zM518 1227q-121 0 -203.5 79t-111.5 205h112q28 -89 81 -136.5t122 -47.5q68 0 120.5 47.5t80.5 136.5h112q-27 -125 -110 -204.5
t-203 -79.5z" />
    <glyph glyph-name="afii10193" unicode="&#x45f;" horiz-adv-x="1136" 
d="M150 0v1061h126v-952h582v952h129v-1061h-356v-225h-127v225h-354z" />
    <glyph glyph-name="afii10050" unicode="&#x490;" horiz-adv-x="1081" 
d="M170 0v1434h735v252h135v-371h-737v-1315h-133z" />
    <glyph glyph-name="afii10098" unicode="&#x491;" horiz-adv-x="897" 
d="M733 1331h129v-381h-586v-950h-126v1061h583v270z" />
    <glyph glyph-name="Wgrave" unicode="&#x1e80;" horiz-adv-x="2023" 
d="M930 1434h164l336 -1278l401 1278h145l-456 -1434h-179l-329 1264l-330 -1264h-178l-457 1434h146l401 -1278zM702 1827l99 80l280 -299l-59 -49q-111 70 -256 208z" />
    <glyph glyph-name="wgrave" unicode="&#x1e81;" horiz-adv-x="1593" 
d="M735 1061h123l275 -903l284 903h139l-360 -1061h-127l-272 889l-273 -889h-127l-360 1061h139l285 -903zM485 1470l99 80l280 -299l-59 -49q-108 68 -256 209z" />
    <glyph glyph-name="Wacute" unicode="&#x1e82;" horiz-adv-x="2023" 
d="M930 1434h164l336 -1278l401 1278h145l-456 -1434h-179l-329 1264l-330 -1264h-178l-457 1434h146l401 -1278zM1204 1905l99 -80l-78 -78q-112 -112 -230 -197l-61 54z" />
    <glyph glyph-name="wacute" unicode="&#x1e83;" horiz-adv-x="1593" 
d="M735 1061h123l275 -903l284 903h139l-360 -1061h-127l-272 889l-273 -889h-127l-360 1061h139l285 -903zM1006 1548l98 -80l-78 -77q-114 -114 -229 -197l-62 53z" />
    <glyph glyph-name="Wdieresis" unicode="&#x1e84;" horiz-adv-x="2023" 
d="M930 1434h164l336 -1278l401 1278h145l-456 -1434h-179l-329 1264l-330 -1264h-178l-457 1434h146l401 -1278zM748 1831h137v-207h-137v207zM1137 1831h137v-207h-137v207z" />
    <glyph glyph-name="wdieresis" unicode="&#x1e85;" horiz-adv-x="1593" 
d="M735 1061h123l275 -903l284 903h139l-360 -1061h-127l-272 889l-273 -889h-127l-360 1061h139l285 -903zM532 1475h138v-207h-138v207zM922 1475h137v-207h-137v207z" />
    <glyph glyph-name="Ygrave" unicode="&#x1ef2;" horiz-adv-x="1212" 
d="M1174 1434l-502 -867v-567h-133v567l-502 867h149l420 -723l420 723h148zM365 1827l98 80l280 -299l-59 -49q-111 70 -256 208z" />
    <glyph glyph-name="ygrave" unicode="&#x1ef3;" horiz-adv-x="1038" 
d="M160 -504l-39 90q138 57 207 134t123 233l18 53l-432 1055h133l360 -891l340 891h131l-428 -1120q-79 -208 -162.5 -297t-250.5 -148zM246 1470l98 80l281 -299l-60 -49q-108 68 -256 209z" />
    <glyph glyph-name="thinspace" unicode="&#x2009;" horiz-adv-x="409" 
 />
    <glyph glyph-name="uni2010" unicode="&#x2010;" horiz-adv-x="831" 
d="M700 614h-571v129h571v-129z" />
    <glyph glyph-name="figuredash" unicode="&#x2012;" horiz-adv-x="1173" 
d="M1092 621h-1010v118h1010v-118z" />
    <glyph glyph-name="endash" unicode="&#x2013;" horiz-adv-x="1024" 
d="M1024 621h-1024v118h1024v-118z" />
    <glyph glyph-name="emdash" unicode="&#x2014;" horiz-adv-x="2048" 
d="M2048 621h-2048v118h2048v-118z" />
    <glyph glyph-name="afii00208" unicode="&#x2015;" horiz-adv-x="2048" 
d="M1843 621h-1638v118h1638v-118z" />
    <glyph glyph-name="uni2016" unicode="&#x2016;" horiz-adv-x="845" 
d="M211 -266v1800h113v-1800h-113zM522 -266v1800h113v-1800h-113z" />
    <glyph glyph-name="underscoredbl" unicode="&#x2017;" horiz-adv-x="1241" 
d="M109 -78h1024v-104h-1024v104zM109 -287h1024v-104h-1024v104z" />
    <glyph glyph-name="quoteleft" unicode="&#x2018;" horiz-adv-x="600" 
d="M369 1049h-136v114q0 120 48.5 215t156.5 193l74 -60q-81 -95 -112 -170.5t-31 -177.5v-114z" />
    <glyph glyph-name="quoteright" unicode="&#x2019;" horiz-adv-x="600" 
d="M231 1548h136v-114q0 -120 -48.5 -215t-156.5 -193l-74 59q81 95 112 171t31 178v114z" />
    <glyph glyph-name="quotesinglbase" unicode="&#x201a;" horiz-adv-x="600" 
d="M231 209h136v-115q0 -119 -48.5 -213.5t-156.5 -193.5l-74 59q81 95 112 170.5t31 177.5v115z" />
    <glyph glyph-name="quotereversed" unicode="&#x201b;" horiz-adv-x="600" 
d="M465 985l-70 -24q-102 187 -162 339l-49 123l135 45z" />
    <glyph glyph-name="quotedblleft" unicode="&#x201c;" horiz-adv-x="917" 
d="M664 1049h-136v114q0 120 48.5 215t156.5 193l74 -60q-81 -95 -112 -170.5t-31 -177.5v-114zM371 1049h-135v114q0 120 48.5 215t155.5 193l74 -60q-81 -95 -112 -170.5t-31 -177.5v-114z" />
    <glyph glyph-name="quotedblright" unicode="&#x201d;" horiz-adv-x="917" 
d="M547 1548h135v-114q0 -120 -48.5 -215t-156.5 -193l-74 59q81 95 112.5 171t31.5 178v114zM231 1548h136v-114q0 -120 -48.5 -215t-156.5 -193l-74 59q81 95 112 171t31 178v114z" />
    <glyph glyph-name="quotedblbase" unicode="&#x201e;" horiz-adv-x="917" 
d="M260 209h135v-115q0 -119 -48.5 -213.5t-156.5 -193.5l-73 59q81 95 112 170.5t31 177.5v115zM559 209h135v-115q0 -119 -48.5 -213.5t-156.5 -193.5l-73 59q81 95 112 170.5t31 177.5v115z" />
    <glyph glyph-name="uni201F" unicode="&#x201f;" horiz-adv-x="917" 
d="M760 985l-70 -24q-102 187 -162 339l-49 123l135 45zM485 985l-69 -24q-102 187 -162 339l-49 123l135 45z" />
    <glyph glyph-name="dagger" unicode="&#x2020;" horiz-adv-x="1179" 
d="M653 1059v-1327h-129v1327h-360v108h360v365h129v-365h363v-108h-363z" />
    <glyph glyph-name="daggerdbl" unicode="&#x2021;" horiz-adv-x="1179" 
d="M1016 205v-111h-363v-362h-129v362h-360v111h360v854h-360v110h360v363h129v-363h363v-110h-363v-854h363z" />
    <glyph glyph-name="bullet" unicode="&#x2022;" horiz-adv-x="882" 
d="M195 678q0 102 71.5 174t173.5 72q103 0 175.5 -71.5t72.5 -174.5t-72.5 -174.5t-175.5 -71.5q-102 0 -173.5 72t-71.5 174z" />
    <glyph glyph-name="onedotenleader" unicode="&#x2024;" horiz-adv-x="600" 
d="M211 209h135v-209h-135v209z" />
    <glyph glyph-name="twodotenleader" unicode="&#x2025;" horiz-adv-x="1200" 
d="M313 209h136v-209h-136v209zM709 209h135v-209h-135v209z" />
    <glyph glyph-name="ellipsis" unicode="&#x2026;" horiz-adv-x="1802" 
d="M1309 209h135v-209h-135v209zM825 209h136v-209h-136v209zM342 209h135v-209h-135v209z" />
    <glyph glyph-name="perthousand" unicode="&#x2030;" horiz-adv-x="2183" 
d="M367 66l-91 69l873 1223l96 -62zM170 1110q0 146 88.5 242t220.5 96t220.5 -96t88.5 -242t-88.5 -242t-220.5 -96t-220.5 96t-88.5 242zM297 1110q0 -100 52 -160.5t130 -60.5q80 0 131.5 60t51.5 161q0 99 -51.5 159t-131.5 60q-78 0 -130 -60t-52 -159zM723 319
q0 146 88.5 242t220.5 96t220.5 -96t88.5 -242t-88 -240.5t-221 -94.5t-221 94.5t-88 240.5zM850 319q0 -99 52 -159t130 -60t130 60t52 159q0 101 -51 161.5t-131 60.5q-78 0 -130 -60.5t-52 -161.5zM1399 319q0 146 88.5 242t220.5 96t220.5 -96t88.5 -242t-88 -240.5
t-221 -94.5t-221 94.5t-88 240.5zM1526 319q0 -99 52 -159t130 -60t130 60t52 159q0 101 -51 161.5t-131 60.5q-78 0 -130 -60.5t-52 -161.5z" />
    <glyph glyph-name="minute" unicode="&#x2032;" horiz-adv-x="651" 
d="M264 961l-80 24l146 483l135 -45q-105 -298 -201 -462z" />
    <glyph glyph-name="second" unicode="&#x2033;" horiz-adv-x="995" 
d="M512 985l145 483l136 -45q-105 -298 -201 -462zM242 985l145 483l135 -45q-107 -302 -200 -462z" />
    <glyph glyph-name="guilsinglleft" unicode="&#x2039;" horiz-adv-x="714" 
d="M102 612v52l107 77q169 123 352 234l49 -70l-366 -266l366 -268l-49 -70q-183 111 -352 234z" />
    <glyph glyph-name="guilsinglright" unicode="&#x203a;" horiz-adv-x="714" 
d="M610 664v-52l-106 -77q-169 -123 -352 -234l-50 70l367 268l-367 266l50 70q183 -111 352 -234z" />
    <glyph glyph-name="exclamdbl" unicode="&#x203c;" horiz-adv-x="929" 
d="M225 1434h150v-392l-33 -696h-86l-31 696v392zM227 203h146v-203h-146v203zM553 1434h149v-392l-32 -696h-86l-31 696v392zM555 203h145v-203h-145v203z" />
    <glyph glyph-name="uni203E" unicode="&#x203e;" horiz-adv-x="819" 
d="M117 1274v104h583v-104h-583z" />
    <glyph glyph-name="fraction" unicode="&#x2044;" horiz-adv-x="385" 
d="M-152 -27l-94 50l785 1441l92 -53z" />
    <glyph glyph-name="zerosuperior" unicode="&#x2070;" 
d="M68 961q0 220 90 354.5t254 134.5t254 -134.5t90 -354.5q0 -221 -89.5 -355.5t-254.5 -134.5t-254.5 134.5t-89.5 355.5zM186 961q0 -182 57.5 -284t168.5 -102t169 102t58 284q0 180 -58 281t-169 101t-168.5 -101t-57.5 -281z" />
    <glyph glyph-name="uni2071" unicode="&#x2071;" 
d="M469 1165v-680h-115v680h115zM354 1434h115v-152h-115v152z" />
    <glyph glyph-name="foursuperior" unicode="&#x2074;" 
d="M520 694h-459v94l467 646h107v-637h115v-103h-115v-209h-115v209zM520 1247l-321 -450h321v450z" />
    <glyph glyph-name="fivesuperior" unicode="&#x2075;" 
d="M401 573q89 0 145 56t56 143q0 96 -60 150.5t-161 54.5q-111 0 -207 -35l-20 12v480h516v-103h-408v-268q55 16 131 16q144 0 235 -84.5t91 -228.5q0 -131 -89 -214t-231 -83q-172 0 -297 141l56 58q100 -95 243 -95z" />
    <glyph glyph-name="sixsuperior" unicode="&#x2076;" 
d="M430 1343q-94 0 -152 -82t-65 -247q45 40 103 64t116 24q140 0 224.5 -90t84.5 -230q0 -139 -87.5 -226t-225.5 -87q-153 0 -245.5 115t-92.5 346q0 258 93 389t251 131q118 0 198.5 -71t98.5 -179h-117q-15 67 -63 105t-121 38zM422 997q-55 0 -111.5 -24.5t-99.5 -69.5
q6 -170 64.5 -250t150.5 -80q93 0 146 58.5t53 152.5q0 96 -53.5 154.5t-149.5 58.5z" />
    <glyph glyph-name="sevensuperior" unicode="&#x2077;" 
d="M711 1434v-103q-245 -404 -328 -846h-127q87 436 330 846h-473v103h598z" />
    <glyph glyph-name="eightsuperior" unicode="&#x2078;" 
d="M696 1194q0 -144 -127 -227q87 -46 125.5 -102t38.5 -130q0 -122 -89 -194t-232 -72t-233.5 77t-90.5 206q0 79 40.5 145t113.5 111q-125 78 -125 198q0 110 80 177t209 67t209.5 -70t80.5 -186zM360 946l-30 12q-125 -77 -125 -208q0 -81 59.5 -129t149.5 -48
q89 0 145.5 43t56.5 117q0 26 -6.5 47.5t-24.5 40.5t-34.5 32.5t-52.5 31t-61 29t-77 32.5zM467 1014q41 13 68 48t36 69t9 67q0 66 -49 107t-130 41q-78 0 -123 -40.5t-45 -99.5t48 -98t186 -94z" />
    <glyph glyph-name="ninesuperior" unicode="&#x2079;" 
d="M137 596l47 63q96 -86 209 -86q104 0 158 78t61 252q-45 -40 -103 -64t-116 -24q-139 0 -224 90.5t-85 231.5q0 138 88 225.5t225 87.5q153 0 245.5 -116t92.5 -347q0 -263 -88.5 -390.5t-249.5 -127.5q-66 0 -134.5 31.5t-125.5 95.5zM403 920q55 0 111.5 24.5
t99.5 69.5q-4 170 -63.5 249.5t-151.5 79.5q-93 0 -145.5 -58t-52.5 -152q0 -96 53 -154.5t149 -58.5z" />
    <glyph glyph-name="uni207A" unicode="&#x207a;" 
d="M356 639v274h-280v101h280v276h113v-276h279v-101h-279v-274h-113z" />
    <glyph glyph-name="uni207B" unicode="&#x207b;" 
d="M748 913h-672v101h672v-101z" />
    <glyph glyph-name="uni207C" unicode="&#x207c;" 
d="M748 788h-672v101h672v-101zM748 1038h-672v101h672v-101z" />
    <glyph glyph-name="uni207D" unicode="&#x207d;" 
d="M285 961q0 322 190 593l80 -36q-166 -259 -166 -557q0 -302 166 -558l-80 -36q-190 268 -190 594z" />
    <glyph glyph-name="uni207E" unicode="&#x207e;" 
d="M541 961q0 -325 -191 -594l-82 36q168 254 168 558q0 300 -168 557l82 36q191 -272 191 -593z" />
    <glyph glyph-name="uni207F" unicode="&#x207f;" 
d="M440 1073q-54 0 -110 -28.5t-90 -65.5v-494h-117v680h96l12 -84q45 45 112 73t128 28q110 0 168.5 -66t58.5 -190v-441h-116v422q0 86 -34 126t-108 40z" />
    <glyph glyph-name="zeroinferior" unicode="&#x2080;" 
d="M68 217q0 220 90 355t254 135t254 -135t90 -355q0 -221 -89.5 -355t-254.5 -134t-254.5 134t-89.5 355zM186 217q0 -182 57.5 -283.5t168.5 -101.5t169 101.5t58 283.5q0 180 -58 281.5t-169 101.5t-168.5 -101.5t-57.5 -281.5z" />
    <glyph glyph-name="oneinferior" unicode="&#x2081;" 
d="M397 547l-161 -121l-74 84l248 182h102v-950h-115v805z" />
    <glyph glyph-name="twoinferior" unicode="&#x2082;" 
d="M694 -258h-581v96q138 114 309 303q80 88 113.5 157.5t33.5 137.5q0 79 -46.5 122.5t-131.5 43.5q-162 0 -186 -188h-107q14 138 92 215.5t209 77.5q133 0 210 -72t77 -195q0 -80 -33.5 -155.5t-109.5 -167.5q-123 -148 -267 -273h418v-102z" />
    <glyph glyph-name="threeinferior" unicode="&#x2083;" 
d="M395 -170q91 0 143 48.5t52 117.5q0 94 -65.5 140t-186.5 46h-86v103h88q105 0 165 45t60 121q0 68 -44.5 108.5t-129.5 40.5q-74 0 -124.5 -38t-59.5 -111h-115q17 123 99.5 189.5t197.5 66.5q133 0 213 -68.5t80 -181.5q0 -79 -47.5 -137.5t-118.5 -83.5
q85 -27 138 -88t53 -152q0 -118 -83 -194t-229 -76q-184 0 -305 165l62 54q104 -115 243 -115z" />
    <glyph glyph-name="fourinferior" unicode="&#x2084;" 
d="M506 -49h-459v94l467 645h107v-637h114v-102h-114v-209h-115v209zM506 504l-322 -451h322v451z" />
    <glyph glyph-name="fiveinferior" unicode="&#x2085;" 
d="M401 -170q89 0 145 56t56 143q0 96 -60 150t-161 54q-114 0 -207 -34l-20 12v479h516v-102h-408v-269q58 17 131 17q144 0 235 -84.5t91 -228.5q0 -131 -89 -214t-231 -83q-172 0 -297 141l56 57q99 -94 243 -94z" />
    <glyph glyph-name="sixinferior" unicode="&#x2086;" 
d="M430 600q-94 0 -152 -82.5t-65 -247.5q45 40 103 64t116 24q140 0 224.5 -89.5t84.5 -229.5q0 -139 -87.5 -226t-225.5 -87q-153 0 -245.5 114.5t-92.5 345.5q0 258 93 389.5t251 131.5q118 0 198.5 -71t98.5 -179h-117q-15 67 -63 105t-121 38zM422 254
q-55 0 -111.5 -24.5t-99.5 -69.5q6 -170 64.5 -250t150.5 -80q93 0 146 58.5t53 152.5q0 96 -53.5 154.5t-149.5 58.5z" />
    <glyph glyph-name="seveninferior" unicode="&#x2087;" 
d="M711 690v-102q-245 -404 -328 -846h-127q87 436 330 846h-473v102h598z" />
    <glyph glyph-name="eightinferior" unicode="&#x2088;" 
d="M696 451q0 -69 -32.5 -128t-94.5 -100q87 -46 125.5 -101.5t38.5 -129.5q0 -122 -89 -194t-232 -72t-233.5 76.5t-90.5 205.5q0 79 40.5 145t113.5 111q-125 78 -125 199q0 110 80 177t209 67t209.5 -70t80.5 -186zM360 203l-30 12q-125 -77 -125 -209q0 -81 59.5 -128.5
t149.5 -47.5q89 0 145.5 43t56.5 117q0 26 -6.5 47.5t-24.5 40.5t-34.5 32.5t-52.5 31t-61 29t-77 32.5zM467 270q41 13 68 48.5t36 69.5t9 67q0 66 -49 106.5t-130 40.5q-78 0 -123 -40.5t-45 -98.5q0 -60 48.5 -99.5t185.5 -93.5z" />
    <glyph glyph-name="nineinferior" unicode="&#x2089;" 
d="M137 -147l47 63q96 -86 209 -86q104 0 158 78t61 252q-45 -40 -103 -64t-116 -24q-139 0 -224 90t-85 231q0 138 88 226t225 88q153 0 245.5 -116t92.5 -347q0 -263 -88.5 -390.5t-249.5 -127.5q-66 0 -134.5 31.5t-125.5 95.5zM403 176q55 0 111.5 24.5t99.5 69.5
q-4 170 -63.5 250t-151.5 80q-93 0 -145.5 -58t-52.5 -153q0 -96 53 -154.5t149 -58.5z" />
    <glyph glyph-name="uni208A" unicode="&#x208a;" 
d="M356 -104v274h-280v100h280v277h113v-277h279v-100h-279v-274h-113z" />
    <glyph glyph-name="uni208B" unicode="&#x208b;" 
d="M748 170h-672v100h672v-100z" />
    <glyph glyph-name="uni208C" unicode="&#x208c;" 
d="M748 45h-672v100h672v-100zM748 295h-672v100h672v-100z" />
    <glyph glyph-name="uni208D" unicode="&#x208d;" 
d="M285 217q0 323 190 594l80 -37q-166 -259 -166 -557q0 -301 166 -557l-80 -37q-190 268 -190 594z" />
    <glyph glyph-name="uni208E" unicode="&#x208e;" 
d="M541 217q0 -325 -191 -594l-82 37q168 254 168 557q0 300 -168 557l82 37q191 -272 191 -594z" />
    <glyph glyph-name="uni2090" unicode="&#x2090;" 
d="M84 -47q0 99 76.5 161t187.5 62q131 0 240 -70v68q0 94 -48 141t-139 47q-152 0 -176 -104h-106q21 97 95.5 150t197.5 53q130 0 206 -69.5t76 -196.5v-334q0 -51 43 -51q38 0 56 4v-78q-27 -6 -66 -6q-57 0 -87.5 16t-43.5 64q-109 -82 -248 -82q-112 0 -188 62.5
t-76 162.5zM371 -176q129 0 217 70v129q-107 57 -217 57q-78 0 -128 -32.5t-50 -94.5q0 -61 47.5 -95t130.5 -34z" />
    <glyph glyph-name="uni2091" unicode="&#x2091;" 
d="M203 141h422q-7 100 -67 160.5t-144 60.5q-88 0 -144.5 -58t-66.5 -163zM641 -82l57 -55q-112 -135 -266 -135q-158 0 -252 101.5t-94 264.5t91.5 265t236.5 102q142 0 233.5 -103.5t91.5 -263.5q0 -27 -4 -45h-532q9 -107 69.5 -165t159.5 -58q123 0 209 92z" />
    <glyph glyph-name="uni2092" unicode="&#x2092;" 
d="M68 94q0 159 93 263t251 104t251 -104t93 -263t-93 -262.5t-251 -103.5t-251 103.5t-93 262.5zM184 94q0 -119 65 -193.5t163 -74.5q99 0 163 74.5t64 193.5t-64 193.5t-163 74.5q-98 0 -163 -74.5t-65 -193.5z" />
    <glyph glyph-name="uni2093" unicode="&#x2093;" 
d="M741 444l-264 -344l279 -356h-135l-209 270l-207 -270h-137l276 356l-262 344h131l199 -258l200 258h129z" />
    <glyph glyph-name="uni2094" unicode="&#x2094;" 
d="M618 45h-419q7 -99 66.5 -159t144.5 -60q88 0 143.5 57.5t64.5 161.5zM180 270l-55 56q108 135 266 135q157 0 250.5 -102.5t93.5 -266.5q0 -161 -90 -262.5t-235 -101.5q-144 0 -235 102.5t-91 261.5q0 27 2 45h535q-9 107 -70.5 166t-159.5 59q-122 0 -211 -92z" />
    <glyph glyph-name="uni20A0" unicode="&#x20a0;" horiz-adv-x="1562" 
d="M813 0v489q-109 -69 -244 -69q-206 0 -341.5 146.5t-135.5 371.5q0 229 130.5 374.5t342.5 145.5q170 0 280.5 -89t149.5 -234h-141q-27 90 -102.5 146t-186.5 56q-156 0 -247 -108.5t-91 -290.5q0 -178 96 -286.5t246 -108.5q159 0 244 88v373h649v-119h-514v-312h479
v-118h-479v-336h529v-119h-664z" />
    <glyph glyph-name="colonmonetary" unicode="&#x20a1;" horiz-adv-x="1392" 
d="M98 717q0 210 78 376.5t222 262t331 100.5l45 156l90 -27l-37 -131q61 -7 138 -29l51 187l92 -27l-55 -199q120 -65 192.5 -179t87.5 -255h-139q-13 96 -60 174.5t-120 128.5l-322 -1157q20 -2 64 -2q298 0 465 275l88 -56q-191 -340 -557 -340q-28 0 -93 9l-34 -123
l-90 26l30 113q-66 18 -129 53l-53 -192l-92 26l63 222q-122 99 -189 256t-67 352zM236 717q0 -147 41 -266.5t116 -198.5l301 1081q-205 -22 -331.5 -187t-126.5 -429zM473 180q54 -39 127 -61l330 1186q-64 24 -135 30z" />
    <glyph glyph-name="uni20A2" unicode="&#x20a2;" horiz-adv-x="1392" 
d="M98 717q0 215 81 383t230.5 263t342.5 95q125 0 230 -39t177 -108t117 -160.5t57 -198.5h-139q-24 171 -143 278t-295 107q-150 0 -267 -74t-185 -215.5t-68 -330.5q0 -225 93 -379t251 -209v719h100l20 -148q64 82 154.5 127t196.5 45q48 0 71 -2v-118q-50 6 -88 6
q-97 0 -184.5 -51t-140.5 -132v-479h47q298 0 465 275l88 -56q-191 -340 -557 -340q-194 0 -343 94.5t-230 263.5t-81 384z" />
    <glyph glyph-name="franc" unicode="&#x20a3;" horiz-adv-x="1089" 
d="M47 561v92h123v185h-123v90h123v506h872v-119h-739v-387h631v-90h-631v-185h629v-92h-629v-561h-133v561h-123z" />
    <glyph glyph-name="lira" unicode="&#x20a4;" horiz-adv-x="1183" 
d="M651 1458q169 0 277 -109.5t123 -283.5h-133q-11 113 -80.5 191.5t-182.5 78.5q-130 0 -200 -73.5t-70 -223.5v-178h442v-90h-442v-186h442v-90h-442q-19 -260 -139 -377h868v-117h-1026v104q164 142 164 379v11h-164v90h164v186h-164v90h164v174q0 211 104.5 317.5
t294.5 106.5z" />
    <glyph glyph-name="uni20A6" unicode="&#x20a6;" horiz-adv-x="1441" 
d="M43 899h131v535h129l363 -535h467v535h129v-535h137v-90h-137v-184h137v-93h-137v-532h-129l-365 532h-467v-532h-127v532h-131v93h131v184h-131v90zM727 809l125 -184h281v184h-406zM301 809v-184h406l-125 184h-281zM301 1221v-322h217zM913 532l220 -321v321h-220z
" />
    <glyph glyph-name="peseta" unicode="&#x20a7;" horiz-adv-x="1193" 
d="M1174 952h-60q-13 -193 -150.5 -294t-375.5 -101h-285v-557h-133v952h-123v90h123v392h418q236 0 373.5 -101t152.5 -291h60v-90zM575 676q376 0 402 276h-674v-276h272zM303 1315v-273h674q-30 273 -402 273h-272z" />
    <glyph glyph-name="uni20A8" unicode="&#x20a8;" horiz-adv-x="2088" 
d="M1087 1024q0 -149 -86.5 -248.5t-238.5 -138.5l385 -637h-154l-370 618q-82 -4 -127 -4h-193v-614h-133v1434h399q232 0 375 -108.5t143 -301.5zM950 1024q0 141 -98.5 216t-290.5 75h-258v-582h258q192 0 290.5 75t98.5 216zM1597 88q133 0 203 51.5t70 128.5
q0 84 -66 129t-233 90q-193 54 -279 131.5t-86 194.5q0 120 96 196t265 76q161 0 269 -82t136 -225h-135q-18 89 -87.5 141t-178.5 52q-105 0 -169.5 -41.5t-64.5 -110.5q0 -75 66 -127.5t225 -95.5q196 -55 284.5 -126.5t88.5 -193.5q0 -138 -103 -219.5t-294 -81.5
q-250 0 -439 234l60 63q179 -184 372 -184z" />
    <glyph glyph-name="uni20A9" unicode="&#x20a9;" horiz-adv-x="2023" 
d="M41 870h184l-178 564h146l176 -564h413l148 564h164l147 -564h412l178 564h145l-178 -564h184v-90h-213l-61 -184h274v-92h-303l-159 -504h-179l-131 504h-397l-131 -504h-178l-162 504h-301v92h272l-59 184h-213v90zM397 780l58 -184h256l49 184h-363zM1264 780l49 -184
h254l59 184h-362zM885 780l-49 -184h352l-49 184h-254zM1012 1264l-105 -394h209zM1335 504l95 -348l108 348h-203zM483 504l111 -348l94 348h-205z" />
    <glyph glyph-name="afii57636" unicode="&#x20aa;" horiz-adv-x="1732" 
d="M170 0v1434h477q240 0 375 -150t135 -436v-311h-133v292q0 260 -96 373t-279 113h-346v-1315h-133zM1561 1434v-1434h-471q-240 0 -378.5 150t-138.5 436v311h136v-295q0 -259 97.5 -371t280.5 -112h340v1315h134z" />
    <glyph glyph-name="dong" unicode="&#x20ab;" horiz-adv-x="1183" 
d="M903 1178h-424v104h424v152h127v-152h133v-104h-133v-1178h-100l-21 127q-71 -71 -165 -111.5t-195 -40.5q-220 0 -337.5 135.5t-117.5 389.5q0 252 117.5 388t337.5 136q99 0 190.5 -40.5t163.5 -109.5v304zM903 240v516q-62 68 -153 110.5t-179 42.5q-346 0 -346 -409
q0 -412 346 -412q88 0 178.5 42.5t153.5 109.5zM993 -188v-105h-712v105h712z" />
    <glyph glyph-name="Euro" unicode="&#x20ac;" horiz-adv-x="1447" 
d="M154 717q0 53 2 80h-115v90h127q45 258 216 414.5t421 156.5q249 0 403.5 -142.5t180.5 -363.5h-140q-25 171 -144 277t-296 106q-191 0 -327 -119.5t-177 -328.5h643l-26 -90h-629q-4 -54 -4 -80q0 -30 4 -84h581l-28 -90h-541q42 -209 178 -328t326 -119q300 0 467 275
l88 -56q-194 -340 -559 -340q-249 0 -420 155t-217 413h-127v90h117q-4 27 -4 84z" />
    <glyph glyph-name="Ruble" unicode="&#x20bd;" horiz-adv-x="1193" 
d="M805 295h-502v-295h-133v295h-123v119h123v143h-123v119h123v758h418q250 0 389 -113t139 -326q0 -214 -138.5 -326t-389.5 -112h-285v-143h502v-119zM979 995q0 320 -404 320h-272v-639h272q404 0 404 319z" />
    <glyph glyph-name="afii61248" unicode="&#x2105;" horiz-adv-x="2078" 
d="M1182 440q0 200 113.5 330.5t299.5 130.5q187 0 300.5 -130.5t113.5 -330.5t-113.5 -330t-300.5 -130q-186 0 -299.5 130t-113.5 330zM1309 440q0 -159 79 -256.5t207 -97.5q129 0 208 97t79 257q0 158 -79 255.5t-208 97.5q-128 0 -207 -97.5t-79 -255.5zM692 -27
l-94 50l786 1441l93 -53zM68 989q0 204 115 334.5t292 130.5q149 0 253.5 -80.5t135.5 -220.5h-123q-22 89 -91.5 141t-166.5 52q-132 0 -210 -94.5t-78 -262.5q0 -169 79.5 -260.5t225.5 -91.5q170 0 268 160l82 -41q-119 -228 -356 -228q-190 0 -308 129t-118 332z" />
    <glyph glyph-name="uni2109" unicode="&#x2109;" horiz-adv-x="1607" 
d="M688 0v1434h873v-119h-740v-541h670v-119h-670v-655h-133zM18 1190q0 112 78 190t189 78q113 0 190.5 -78t77.5 -190q0 -111 -78 -188.5t-190 -77.5q-110 0 -188.5 78t-78.5 188zM123 1190q0 -71 46.5 -119.5t115.5 -48.5q70 0 117 48.5t47 119.5q0 72 -47 121t-117 49
q-69 0 -115.5 -49t-46.5 -121z" />
    <glyph glyph-name="afii61289" unicode="&#x2113;" horiz-adv-x="952" 
d="M778 158l66 -101q-91 -82 -234 -82q-183 0 -295 158q-93 -44 -182 -63l-45 118q89 21 164 58q-96 213 -96 549q0 307 109.5 485t281.5 178q137 0 208.5 -123t71.5 -336q0 -158 -41.5 -304.5t-133.5 -279.5t-226 -222q77 -101 180 -101q100 0 172 66zM690 1001
q0 181 -39 259.5t-114 78.5q-101 0 -172.5 -146.5t-71.5 -389.5q0 -302 74 -494q157 108 240 287.5t83 404.5z" />
    <glyph glyph-name="afii61352" unicode="&#x2116;" horiz-adv-x="1900" 
d="M170 0v1434h133l510 -1151v1151h127v-1434h-131l-510 1149v-1149h-129zM1067 662q0 187 96.5 302t261.5 115q172 0 269.5 -114.5t97.5 -302.5t-97.5 -303t-269.5 -115q-165 0 -261.5 115.5t-96.5 302.5zM1200 662q0 -147 61.5 -226.5t168.5 -79.5t169 79.5t62 226.5
q0 146 -62 225.5t-169 79.5t-168.5 -79.5t-61.5 -225.5zM1815 106v-106h-771v106h771z" />
    <glyph glyph-name="uni2117" unicode="&#x2117;" horiz-adv-x="1701" 
d="M113 717q0 151 58.5 288.5t157.5 236.5t235 157.5t286 58.5t286 -58.5t235 -157.5t157.5 -236.5t58.5 -288.5t-58.5 -288.5t-157.5 -237t-235 -158t-286 -58.5t-286 58.5t-235 158t-157.5 237t-58.5 288.5zM203 717q0 -134 51.5 -256t138 -210t206.5 -140t251 -52t251 52
t207.5 140t139 210t51.5 256q0 178 -87.5 329t-237 238.5t-324.5 87.5t-324 -87.5t-236 -238.5t-87 -329zM1102 854q0 93 -54 146t-167 53h-183v-400h183q113 0 167 53.5t54 147.5zM889 563h-191v-295h-106v875h297q151 0 235 -76.5t84 -212.5q0 -137 -83.5 -214t-235.5 -77
z" />
    <glyph glyph-name="uni2120" unicode="&#x2120;" horiz-adv-x="1382" 
d="M1268 1434v-660h-94v463l-191 -344h-74l-188 344v-463h-94v660h86l233 -435l236 435h86zM68 895l41 45q93 -96 196 -96q57 0 93 29t36 73q0 48 -31.5 70t-123.5 53q-104 34 -148.5 83t-44.5 122t59 120.5t154 47.5q93 0 153 -48.5t80 -138.5h-100q-12 50 -45.5 77.5
t-85.5 27.5q-54 0 -83.5 -23t-29.5 -61q0 -79 131 -127q120 -43 166.5 -83t46.5 -118q0 -84 -62 -133t-167 -49q-140 0 -235 129z" />
    <glyph glyph-name="uni2121" unicode="&#x2121;" horiz-adv-x="1863" 
d="M383 0v1323h-346v111h819v-111h-344v-1323h-129zM805 590h491q-1 170 -69.5 276.5t-175.5 106.5q-106 0 -174.5 -106t-71.5 -277zM1575 0v1495h127v-1495h-127zM1319 236l74 -58q-110 -203 -318 -203q-101 0 -179.5 46t-126 125t-71.5 177t-24 209q0 250 104.5 401.5
t272.5 151.5q172 0 275.5 -152.5t103.5 -397.5q0 -41 -3 -56h-622q2 -108 32 -195t91.5 -141.5t146.5 -54.5q135 0 244 148z" />
    <glyph glyph-name="trademark" unicode="&#x2122;" horiz-adv-x="1347" 
d="M231 776v578h-204v80h505v-80h-204v-578h-97zM1233 1434v-660h-94v463l-191 -344h-74l-188 344v-463h-94v660h86l233 -435l236 435h86z" />
    <glyph glyph-name="Omega" unicode="&#x2126;" horiz-adv-x="1452" 
d="M725 1458q147 0 267 -54.5t198.5 -149t121 -222t42.5 -274.5q0 -207 -88 -368.5t-236 -270.5h301v-119h-479v117q365 243 365 641q0 119 -33.5 223.5t-94.5 184t-155.5 125.5t-208.5 46q-151 0 -263.5 -79.5t-169 -209.5t-56.5 -290q0 -400 362 -641v-117h-477v119h301
q-149 108 -236.5 269.5t-87.5 369.5q0 147 42 274.5t120.5 222t198 149t266.5 54.5z" />
    <glyph glyph-name="estimated" unicode="&#x212e;" horiz-adv-x="1523" 
d="M1229 201l65 -62q-194 -164 -463 -164q-158 0 -283.5 38.5t-208.5 105.5t-138 162t-79 202.5t-24 233.5q0 121 28.5 231t85.5 203t137 161.5t189 107t236 38.5q152 0 276.5 -59t205.5 -161.5t125 -239t44 -293.5v-33h-1022v-492q154 -129 431 -129q112 0 214.5 39
t180.5 111zM768 1378q-220 0 -365 -133v-493h727v497q-141 129 -362 129z" />
    <glyph glyph-name="onethird" unicode="&#x2153;" horiz-adv-x="1986" 
d="M647 -27l-94 50l784 1441l93 -53zM397 1290l-161 -121l-74 84l248 183h102v-951h-115v805zM1548 88q91 0 143 48.5t52 117.5q0 94 -65.5 140t-186.5 46h-86v103h88q105 0 165 45t60 121q0 68 -44.5 108.5t-129.5 40.5q-74 0 -124.5 -38t-59.5 -111h-115
q17 123 99.5 189.5t197.5 66.5q133 0 213 -68.5t80 -181.5q0 -79 -47.5 -137.5t-118.5 -83.5q85 -27 138 -88t53 -152q0 -118 -83 -194t-229 -76q-183 0 -305 166l62 53q104 -115 243 -115z" />
    <glyph glyph-name="twothirds" unicode="&#x2154;" horiz-adv-x="1986" 
d="M647 -27l-94 50l784 1441l93 -53zM684 485h-582v97q142 117 310 303q80 88 113.5 157.5t33.5 137.5q0 79 -46.5 122.5t-131.5 43.5q-161 0 -186 -189h-107q14 138 92 215.5t209 77.5q133 0 210 -71.5t77 -194.5q0 -80 -34 -156t-110 -168q-123 -147 -266 -272h418v-103z
M1548 88q91 0 143 48.5t52 117.5q0 94 -65.5 140t-186.5 46h-86v103h88q105 0 165 45t60 121q0 68 -44.5 108.5t-129.5 40.5q-74 0 -124.5 -38t-59.5 -111h-115q17 123 99.5 189.5t197.5 66.5q133 0 213 -68.5t80 -181.5q0 -79 -47.5 -137.5t-118.5 -83.5q85 -27 138 -88
t53 -152q0 -118 -83 -194t-229 -76q-183 0 -305 166l62 53q104 -115 243 -115z" />
    <glyph glyph-name="onefifth" unicode="&#x2155;" horiz-adv-x="1986" 
d="M647 -27l-94 50l784 1441l93 -53zM397 1290l-161 -121l-74 84l248 183h102v-951h-115v805zM1540 88q89 0 145 56t56 143q0 96 -60 150.5t-161 54.5q-111 0 -207 -35l-21 12v479h516v-102h-407v-268q55 16 131 16q144 0 235 -84.5t91 -228.5q0 -131 -89 -214t-231 -83
q-172 0 -297 141l55 57q99 -94 244 -94z" />
    <glyph glyph-name="twofifths" unicode="&#x2156;" horiz-adv-x="1986" 
d="M647 -27l-94 50l784 1441l93 -53zM684 485h-582v97q142 117 310 303q80 88 113.5 157.5t33.5 137.5q0 79 -46.5 122.5t-131.5 43.5q-161 0 -186 -189h-107q14 138 92 215.5t209 77.5q133 0 210 -71.5t77 -194.5q0 -80 -34 -156t-110 -168q-123 -147 -266 -272h418v-103z
M1540 88q89 0 145 56t56 143q0 96 -60 150.5t-161 54.5q-111 0 -207 -35l-21 12v479h516v-102h-407v-268q55 16 131 16q144 0 235 -84.5t91 -228.5q0 -131 -89 -214t-231 -83q-172 0 -297 141l55 57q99 -94 244 -94z" />
    <glyph glyph-name="threefifths" unicode="&#x2157;" horiz-adv-x="1986" 
d="M647 -27l-94 50l784 1441l93 -53zM1540 88q89 0 145 56t56 143q0 96 -60 150.5t-161 54.5q-111 0 -207 -35l-21 12v479h516v-102h-407v-268q55 16 131 16q144 0 235 -84.5t91 -228.5q0 -131 -89 -214t-231 -83q-172 0 -297 141l55 57q99 -94 244 -94zM395 573
q91 0 143 48.5t52 117.5q0 94 -66 140.5t-186 46.5h-86v102h88q105 0 165 45t60 121q0 68 -44.5 108.5t-129.5 40.5q-74 0 -124.5 -38t-59.5 -111h-115q17 123 99.5 189.5t197.5 66.5q133 0 213 -68.5t80 -181.5q0 -79 -47.5 -137.5t-118.5 -83.5q85 -27 138 -88t53 -152
q0 -118 -83 -194t-229 -76q-183 0 -305 166l62 53q104 -115 243 -115z" />
    <glyph glyph-name="fourfifths" unicode="&#x2158;" horiz-adv-x="1986" 
d="M647 -27l-94 50l784 1441l93 -53zM1540 88q89 0 145 56t56 143q0 96 -60 150.5t-161 54.5q-111 0 -207 -35l-21 12v479h516v-102h-407v-268q55 16 131 16q144 0 235 -84.5t91 -228.5q0 -131 -89 -214t-231 -83q-172 0 -297 141l55 57q99 -94 244 -94zM520 694h-459v94
l467 646h107v-637h115v-103h-115v-209h-115v209zM520 1247l-321 -450h321v450z" />
    <glyph glyph-name="onesixth" unicode="&#x2159;" horiz-adv-x="1986" 
d="M647 -27l-94 50l784 1441l93 -53zM397 1290l-161 -121l-74 84l248 183h102v-951h-115v805zM1561 858q-94 0 -152.5 -82.5t-65.5 -247.5q45 40 103.5 64t116.5 24q140 0 224.5 -89.5t84.5 -229.5q0 -139 -87.5 -226t-225.5 -87q-153 0 -245.5 114.5t-92.5 345.5
q0 258 93 389.5t251 131.5q118 0 198.5 -71t98.5 -179h-117q-15 67 -63 105t-121 38zM1552 512q-55 0 -111.5 -24.5t-99.5 -69.5q6 -170 64.5 -250t150.5 -80q93 0 146 58.5t53 152.5q0 96 -53.5 154.5t-149.5 58.5z" />
    <glyph glyph-name="fivesixths" unicode="&#x215a;" horiz-adv-x="1986" 
d="M647 -27l-94 50l784 1441l93 -53zM1561 858q-94 0 -152.5 -82.5t-65.5 -247.5q45 40 103.5 64t116.5 24q140 0 224.5 -89.5t84.5 -229.5q0 -139 -87.5 -226t-225.5 -87q-153 0 -245.5 114.5t-92.5 345.5q0 258 93 389.5t251 131.5q118 0 198.5 -71t98.5 -179h-117
q-15 67 -63 105t-121 38zM1552 512q-55 0 -111.5 -24.5t-99.5 -69.5q6 -170 64.5 -250t150.5 -80q93 0 146 58.5t53 152.5q0 96 -53.5 154.5t-149.5 58.5zM401 573q89 0 145 56t56 143q0 96 -60 150.5t-161 54.5q-111 0 -207 -35l-20 12v480h516v-103h-408v-268
q55 16 131 16q144 0 235 -84.5t91 -228.5q0 -131 -89 -214t-231 -83q-172 0 -297 141l56 58q100 -95 243 -95z" />
    <glyph glyph-name="oneeighth" unicode="&#x215b;" horiz-adv-x="1986" 
d="M647 -27l-94 50l784 1441l93 -53zM397 1290l-161 -121l-74 84l248 183h102v-951h-115v805zM1825 709q0 -69 -32.5 -128t-94.5 -100q87 -46 125.5 -101.5t38.5 -129.5q0 -121 -89.5 -193.5t-232.5 -72.5t-233 76.5t-90 205.5q0 79 40 145t113 111q-125 78 -125 199
q0 110 80 177t209 67t210 -70t81 -186zM1489 461l-31 12q-125 -77 -125 -209q0 -81 59.5 -128.5t149.5 -47.5t146.5 43t56.5 117q0 26 -6.5 47.5t-24.5 40.5t-34.5 32.5t-52.5 31t-61 29t-77 32.5zM1595 528q41 13 68 48.5t36 69.5t9 67q0 66 -48.5 106.5t-129.5 40.5
q-78 0 -123 -40.5t-45 -98.5q0 -60 48 -99.5t185 -93.5z" />
    <glyph glyph-name="threeeighths" unicode="&#x215c;" horiz-adv-x="1986" 
d="M647 -27l-94 50l784 1441l93 -53zM1825 709q0 -69 -32.5 -128t-94.5 -100q87 -46 125.5 -101.5t38.5 -129.5q0 -121 -89.5 -193.5t-232.5 -72.5t-233 76.5t-90 205.5q0 79 40 145t113 111q-125 78 -125 199q0 110 80 177t209 67t210 -70t81 -186zM1489 461l-31 12
q-125 -77 -125 -209q0 -81 59.5 -128.5t149.5 -47.5t146.5 43t56.5 117q0 26 -6.5 47.5t-24.5 40.5t-34.5 32.5t-52.5 31t-61 29t-77 32.5zM1595 528q41 13 68 48.5t36 69.5t9 67q0 66 -48.5 106.5t-129.5 40.5q-78 0 -123 -40.5t-45 -98.5q0 -60 48 -99.5t185 -93.5z
M395 573q91 0 143 48.5t52 117.5q0 94 -66 140.5t-186 46.5h-86v102h88q105 0 165 45t60 121q0 68 -44.5 108.5t-129.5 40.5q-74 0 -124.5 -38t-59.5 -111h-115q17 123 99.5 189.5t197.5 66.5q133 0 213 -68.5t80 -181.5q0 -79 -47.5 -137.5t-118.5 -83.5q85 -27 138 -88
t53 -152q0 -118 -83 -194t-229 -76q-183 0 -305 166l62 53q104 -115 243 -115z" />
    <glyph glyph-name="fiveeighths" unicode="&#x215d;" horiz-adv-x="1986" 
d="M647 -27l-94 50l784 1441l93 -53zM401 573q89 0 145 56t56 143q0 96 -60 150.5t-161 54.5q-111 0 -207 -35l-20 12v480h516v-103h-408v-268q55 16 131 16q144 0 235 -84.5t91 -228.5q0 -131 -89 -214t-231 -83q-172 0 -297 141l56 58q100 -95 243 -95zM1825 709
q0 -69 -32.5 -128t-94.5 -100q87 -46 125.5 -101.5t38.5 -129.5q0 -121 -89.5 -193.5t-232.5 -72.5t-233 76.5t-90 205.5q0 79 40 145t113 111q-125 78 -125 199q0 110 80 177t209 67t210 -70t81 -186zM1489 461l-31 12q-125 -77 -125 -209q0 -81 59.5 -128.5t149.5 -47.5
t146.5 43t56.5 117q0 26 -6.5 47.5t-24.5 40.5t-34.5 32.5t-52.5 31t-61 29t-77 32.5zM1595 528q41 13 68 48.5t36 69.5t9 67q0 66 -48.5 106.5t-129.5 40.5q-78 0 -123 -40.5t-45 -98.5q0 -60 48 -99.5t185 -93.5z" />
    <glyph glyph-name="seveneighths" unicode="&#x215e;" horiz-adv-x="1986" 
d="M647 -27l-94 50l784 1441l93 -53zM1825 709q0 -69 -32.5 -128t-94.5 -100q87 -46 125.5 -101.5t38.5 -129.5q0 -121 -89.5 -193.5t-232.5 -72.5t-233 76.5t-90 205.5q0 79 40 145t113 111q-125 78 -125 199q0 110 80 177t209 67t210 -70t81 -186zM1489 461l-31 12
q-125 -77 -125 -209q0 -81 59.5 -128.5t149.5 -47.5t146.5 43t56.5 117q0 26 -6.5 47.5t-24.5 40.5t-34.5 32.5t-52.5 31t-61 29t-77 32.5zM1595 528q41 13 68 48.5t36 69.5t9 67q0 66 -48.5 106.5t-129.5 40.5q-78 0 -123 -40.5t-45 -98.5q0 -60 48 -99.5t185 -93.5z
M711 1434v-103q-245 -404 -328 -846h-127q87 436 330 846h-473v103h598z" />
    <glyph glyph-name="uni215F" unicode="&#x215f;" horiz-adv-x="1986" 
d="M647 -27l-94 50l784 1441l93 -53zM397 1290l-161 -121l-74 84l248 183h102v-951h-115v805z" />
    <glyph glyph-name="arrowleft" unicode="&#x2190;" horiz-adv-x="1761" 
d="M1688 731v-104h-1264l98 -328l-448 381l448 375l-98 -324h1264z" />
    <glyph glyph-name="arrowup" unicode="&#x2191;" horiz-adv-x="1761" 
d="M930 -78h-105v1262l-321 -99l375 451l378 -451l-327 99v-1262z" />
    <glyph glyph-name="arrowright" unicode="&#x2192;" horiz-adv-x="1761" 
d="M74 627v104h1261l-98 324l451 -375l-451 -381l98 328h-1261z" />
    <glyph glyph-name="arrowdown" unicode="&#x2193;" horiz-adv-x="1761" 
d="M827 1536h105v-1264l328 99l-379 -449l-375 449l321 -99v1264z" />
    <glyph glyph-name="arrowboth" unicode="&#x2194;" horiz-adv-x="1761" 
d="M424 731h911l-98 322l451 -373l-451 -381l98 328h-911l98 -328l-448 381l448 373z" />
    <glyph glyph-name="arrowupdn" unicode="&#x2195;" horiz-adv-x="1761" 
d="M1257 371l-380 -449l-373 449l321 -99v912l-321 -99l373 449l380 -449l-327 99v-912z" />
    <glyph glyph-name="arrowupdnbse" unicode="&#x21a8;" horiz-adv-x="1761" 
d="M485 -59h377l-358 430l321 -99v912l-321 -99l373 449l380 -449l-327 99v-912l327 99l-366 -430h385v-103h-791v103z" />
    <glyph glyph-name="partialdiff" unicode="&#x2202;" horiz-adv-x="1187" 
d="M549 915q106 0 205 -43t172 -116q-6 156 -34.5 269.5t-77 180.5t-111 98t-142.5 31q-259 0 -282 -272h-134q5 79 32 148.5t76 125.5t127 88.5t177 32.5q244 0 379 -189.5t135 -588.5q0 -184 -37.5 -321.5t-106.5 -220t-160 -123t-204 -40.5q-206 0 -337.5 128t-131.5 337
q0 210 124 342.5t331 132.5zM565 96q73 0 134 27t112.5 86t81.5 165t33 251q-72 84 -166 127t-197 43q-155 0 -243.5 -95t-88.5 -256q0 -159 90 -253.5t244 -94.5z" />
    <glyph glyph-name="Delta" unicode="&#x2206;" horiz-adv-x="1355" 
d="M227 123h901l-450 1067zM1296 0h-1237l-18 27l621 1431h32l621 -1431z" />
    <glyph glyph-name="product" unicode="&#x220f;" horiz-adv-x="1394" 
d="M170 -227v1743h1053v-1743h-133v1624h-787v-1624h-133z" />
    <glyph glyph-name="summation" unicode="&#x2211;" horiz-adv-x="1241" 
d="M88 -115l494 793l-494 719v119h1092v-119h-936l469 -692v-60l-469 -754h936v-118h-1092v112z" />
    <glyph glyph-name="minus" unicode="&#x2212;" horiz-adv-x="1265" 
d="M1135 621h-1006v118h1006v-118z" />
    <glyph glyph-name="uni2215" unicode="&#x2215;" horiz-adv-x="385" 
d="M-152 -27l-94 50l785 1441l92 -53z" />
    <glyph glyph-name="uni2219" unicode="&#x2219;" horiz-adv-x="585" 
d="M203 793h135v-209h-135v209z" />
    <glyph glyph-name="radical" unicode="&#x221a;" horiz-adv-x="1234" 
d="M211 766h219l283 -573l329 1384h111l-385 -1577h-68l-333 670h-156v96z" />
    <glyph glyph-name="infinity" unicode="&#x221e;" horiz-adv-x="1576" 
d="M1155 393q-95 0 -183 46t-184 159q-98 -113 -185.5 -159t-182.5 -46q-129 0 -210 79t-81 208t81 208t210 79q94 0 182 -46.5t186 -160.5q97 113 184.5 160t182.5 47q129 0 211 -79t82 -208t-82 -208t-211 -79zM1153 864q-75 0 -141 -38t-156 -146q90 -110 156 -148
t141 -38q82 0 128 50t46 136q0 84 -46 134t-128 50zM422 494q75 0 141 38t156 148q-90 109 -156 146.5t-141 37.5q-81 0 -127.5 -50t-46.5 -134q0 -85 46.5 -135.5t127.5 -50.5z" />
    <glyph glyph-name="orthogonal" unicode="&#x221f;" horiz-adv-x="1302" 
d="M1255 111v-111h-1044v1178h127v-1067h917z" />
    <glyph glyph-name="intersection" unicode="&#x2229;" horiz-adv-x="1564" 
d="M782 1264q189 0 318.5 -90t190.5 -249t61 -380v-545h-127v545q0 301 -118 455.5t-325 154.5t-324.5 -154.5t-117.5 -455.5v-545h-129v545q0 165 35 296t104.5 226t179 146t252.5 51z" />
    <glyph glyph-name="integral" unicode="&#x222b;" horiz-adv-x="806" 
d="M338 -131v1356q0 164 79.5 237.5t244.5 73.5q64 0 110 -6v-113q-52 6 -110 6q-102 0 -148.5 -48t-46.5 -161v-1353q0 -165 -79 -238.5t-243 -73.5q-54 0 -112 7v112q55 -6 110 -6q103 0 149 47.5t46 159.5z" />
    <glyph glyph-name="approxequal" unicode="&#x2248;" horiz-adv-x="1265" 
d="M600 817q-63 47 -112.5 69.5t-108.5 22.5t-102.5 -46.5t-65.5 -127.5l-113 21q22 121 97 196.5t182 75.5q128 0 287 -117q64 -48 112.5 -70t108.5 -22t103 45t65 127l112 -18q-22 -121 -97 -197t-181 -76q-135 0 -287 117zM600 451q-63 47 -112.5 69.5t-108.5 22.5
t-102.5 -46.5t-65.5 -127.5l-113 20q22 121 97 197t182 76q128 0 287 -117q64 -48 112.5 -70t108.5 -22t103 45t65 127l112 -19q-22 -121 -96.5 -196.5t-181.5 -75.5q-135 0 -287 117z" />
    <glyph glyph-name="notequal" unicode="&#x2260;" horiz-adv-x="1265" 
d="M293 25l-92 53l186 309h-258v117h332l211 350h-543v117h616l203 334l88 -56l-168 -278h267v-117h-338l-213 -350h551v-117h-623z" />
    <glyph glyph-name="equivalence" unicode="&#x2261;" horiz-adv-x="1265" 
d="M1135 977h-1006v119h1006v-119zM1135 264h-1006v119h1006v-119zM1135 621h-1006v118h1006v-118z" />
    <glyph glyph-name="lessequal" unicode="&#x2264;" horiz-adv-x="1265" 
d="M319 741l809 -381l-36 -86q-396 166 -799 351l-164 75v82l164 76q377 173 799 350l36 -86zM1135 0h-1006v117h1006v-117z" />
    <glyph glyph-name="greaterequal" unicode="&#x2265;" horiz-adv-x="1265" 
d="M135 360l809 381l-809 381l37 86q422 -177 799 -350l164 -76v-82l-164 -75q-403 -185 -799 -351zM1135 0h-1006v117h1006v-117z" />
    <glyph glyph-name="house" unicode="&#x2302;" horiz-adv-x="1449" 
d="M1239 672v-672h-1028v672l514 590zM338 106h772v521l-385 444l-387 -444v-521z" />
    <glyph glyph-name="revlogicalnot" unicode="&#x2310;" horiz-adv-x="1265" 
d="M1145 895v-119h-869v-436h-135v555h1004z" />
    <glyph glyph-name="uni2318" unicode="&#x2318;" horiz-adv-x="1853" 
d="M1065 524v273h-279v-273h279zM1065 899v131q0 138 75 221.5t212 83.5q133 0 210.5 -75.5t77.5 -196.5q0 -131 -88.5 -198.5t-230.5 -67.5h-133v-273h133q142 0 230.5 -67.5t88.5 -198.5q0 -120 -77.5 -195t-210.5 -75q-137 0 -212 82.5t-75 220.5v131h-279v-131
q0 -138 -75.5 -220.5t-210.5 -82.5q-133 0 -211 75t-78 195q0 131 88.5 198.5t230.5 67.5h134v273h-134q-142 0 -230.5 67.5t-88.5 198.5q0 121 78 196.5t211 75.5q135 0 210.5 -83.5t75.5 -221.5v-131h279zM664 899v129q0 96 -41 148.5t-123 52.5q-74 0 -119 -46t-45 -120
q0 -83 54 -123.5t149 -40.5h125zM664 293v129h-125q-95 0 -149 -40.5t-54 -123.5q0 -74 45 -120t119 -46q82 0 123 52.5t41 148.5zM1188 1028v-129h125q95 0 149 40.5t54 123.5q0 74 -45 120t-121 46q-80 0 -121 -52.5t-41 -148.5zM1188 422v-129q0 -96 41 -148.5t121 -52.5
q75 0 120.5 46.5t45.5 119.5q0 83 -54 123.5t-149 40.5h-125z" />
    <glyph glyph-name="lozenge" unicode="&#x25ca;" horiz-adv-x="1175" 
d="M588 -322l-500 940l500 941l499 -941zM588 1292l-357 -674l357 -673l354 673z" />
    <glyph glyph-name="H18533" unicode="&#x25cf;" horiz-adv-x="2048" 
d="M332 668q0 188 92.5 347t252 252t347.5 93q187 0 346.5 -93t252.5 -252.5t93 -346.5q0 -141 -55 -269.5t-147.5 -221t-221 -147.5t-268.5 -55q-141 0 -269 55t-221 147.5t-147.5 221t-54.5 269.5z" />
    <glyph glyph-name="fi" horiz-adv-x="1140" 
d="M371 1174v-113h606v-1061h-127v950h-479v-950h-129v950h-209v111h209v123q0 163 82.5 237t240.5 74q65 0 111 -6v-115q-53 6 -111 6q-102 0 -148 -47t-46 -159zM850 1468h127v-188h-127v188z" />
    <glyph glyph-name="fl" horiz-adv-x="1112" 
d="M371 1171v-110h284v-111h-284v-950h-129v950h-209v111h209v119q0 315 323 315q91 0 256 -33v33h127v-1495h-127v1356q-147 24 -256 24q-101 0 -147.5 -48.5t-46.5 -160.5z" />
    <glyph glyph-name="commaaccent" horiz-adv-x="819" 
d="M287 -494l121 396q58 -18 114 -39l-39 -111q-51 -143 -123 -272z" />
    <glyph glyph-name="zero.tnum" horiz-adv-x="1226" 
d="M109 717q0 129 19.5 241t60.5 204t100 158t141 102t182 36q164 0 279.5 -97.5t170 -262t54.5 -381.5q0 -162 -31.5 -296.5t-93 -234.5t-158.5 -155.5t-221 -55.5q-164 0 -279.5 97.5t-169.5 262t-54 382.5zM248 717q0 -292 92.5 -456.5t271.5 -164.5t272 164.5t93 456.5
t-93 456t-272 164t-271.5 -164t-92.5 -456z" />
    <glyph glyph-name="one.tnum" horiz-adv-x="808" 
d="M414 1274l-305 -213l-84 92l403 281h121v-1434h-135v1274z" />
    <glyph glyph-name="two.tnum" horiz-adv-x="1095" 
d="M823 1067q0 119 -81 193.5t-220 74.5q-148 0 -228 -95.5t-91 -256.5h-135q16 219 130.5 347t327.5 128q196 0 315.5 -106.5t119.5 -290.5q0 -125 -61.5 -247.5t-194.5 -276.5q-183 -211 -422 -420h698v-117h-895v104q277 243 492 486q128 143 186.5 254t58.5 223z" />
    <glyph glyph-name="three.tnum" horiz-adv-x="1136" 
d="M870 377q0 152 -107.5 232.5t-289.5 80.5h-135v119h137q158 0 257 75t99 206q0 107 -81 176t-215 69q-132 0 -216.5 -74.5t-99.5 -211.5h-137q23 198 146.5 303.5t308.5 105.5q197 0 315.5 -98t118.5 -260q0 -135 -81.5 -229.5t-201.5 -120.5q153 -34 237.5 -130
t84.5 -245q0 -178 -124.5 -289t-346.5 -111q-294 0 -478 248l72 62q169 -193 399 -193q158 0 248 79t90 206z" />
    <glyph glyph-name="four.tnum" horiz-adv-x="1146" 
d="M772 330h-717v112l725 992h125v-985h193v-119h-193v-330h-133v330zM772 1208l-557 -759h557v759z" />
    <glyph glyph-name="five.tnum" horiz-adv-x="1146" 
d="M567 92q153 0 243.5 94.5t90.5 229.5q0 154 -100 243t-262 89q-178 0 -332 -52l-19 11v727h777v-119h-643v-481q98 34 237 34q214 0 345.5 -124.5t131.5 -337.5q0 -119 -54 -216t-161.5 -156t-251.5 -59q-263 0 -458 230l71 71q167 -184 385 -184z" />
    <glyph glyph-name="six.tnum" horiz-adv-x="1167" 
d="M625 915q206 0 329 -132.5t123 -342.5q0 -209 -131.5 -337t-337.5 -128q-233 0 -366 172t-133 533q0 398 130 588t369 190q174 0 294 -101.5t151 -271.5h-138q-23 112 -102.5 181t-202.5 69q-345 0 -364 -579q72 73 172.5 116t206.5 43zM606 96q156 0 246 94.5t90 253.5
q0 161 -89 256t-247 95q-214 0 -362 -170q4 -143 35 -248.5t82 -165t112 -87.5t133 -28z" />
    <glyph glyph-name="seven.tnum" horiz-adv-x="1062" 
d="M985 1434v-119q-193 -324 -322.5 -645t-197.5 -670h-152q80 362 210.5 683t316.5 632h-779v119h924z" />
    <glyph glyph-name="eight.tnum" horiz-adv-x="1208" 
d="M1098 365q0 -177 -139.5 -283.5t-356.5 -106.5q-222 0 -359 109t-137 301q0 128 67.5 233.5t191.5 172.5q-199 113 -199 303q0 159 119 261.5t317 102.5t317 -105t119 -263q0 -108 -58 -199t-165 -156q151 -73 217 -162t66 -208zM246 381q0 -133 98 -209t258 -76t258 71
t98 193q0 116 -90 190t-338 167l-49 18q-115 -60 -175 -154t-60 -200zM899 1081q0 112 -80 183t-217 71q-132 0 -214.5 -67t-82.5 -174q0 -84 66 -148t213 -119l114 -43q98 58 149.5 135t51.5 162z" />
    <glyph glyph-name="nine.tnum" horiz-adv-x="1167" 
d="M539 516q-206 0 -329.5 132.5t-123.5 342.5q0 209 132 338t339 129q228 0 363 -171.5t135 -520.5q0 -166 -25.5 -298.5t-71 -224t-112 -152.5t-146 -88.5t-174.5 -27.5q-199 0 -362 166l59 72q138 -117 307 -117q79 0 144 30.5t118 96t86 180t40 271.5
q-73 -73 -173 -115.5t-206 -42.5zM918 807q-4 145 -34.5 251t-81.5 164.5t-111.5 85.5t-133.5 27q-154 0 -244 -94.5t-90 -253.5q0 -161 88.5 -255.5t245.5 -94.5q213 0 361 170z" />
    <glyph glyph-name="parenleft.case" horiz-adv-x="706" 
d="M229 717q0 508 303 901l93 -47q-265 -387 -265 -854q0 -469 265 -856l-93 -45q-303 390 -303 901z" />
    <glyph glyph-name="parenright.case" horiz-adv-x="706" 
d="M477 717q0 -511 -303 -901l-92 45q264 385 264 856q0 469 -264 854l92 47q303 -393 303 -901z" />
    <glyph glyph-name="hyphen.case" horiz-adv-x="831" 
d="M700 651h-571v129h571v-129z" />
    <glyph glyph-name="at.case" horiz-adv-x="1957" 
d="M1247 510v217q0 342 -262 342q-132 0 -219.5 -106.5t-87.5 -266.5q0 -165 65.5 -251.5t214.5 -86.5q83 0 157.5 41.5t131.5 110.5zM1266 401q-63 -67 -147 -108t-173 -41q-192 0 -291.5 120t-99.5 324q0 135 51 245t151 176.5t230 66.5q187 0 285 -114t98 -322v-218
q0 -75 36 -115t97 -40q55 0 94.5 28.5t61.5 82.5t31.5 121.5t9.5 156.5q0 211 -91.5 383t-257.5 271.5t-374 99.5t-372 -104t-254.5 -287t-90.5 -410q0 -168 53 -316t147 -256t230.5 -170.5t296.5 -62.5q127 0 251 43t222 119l49 -86q-107 -82 -242 -126t-280 -44
q-153 0 -286.5 46.5t-232 129.5t-169.5 195t-107 246.5t-36 281.5t35.5 281.5t106 246t168 194t229 128t282.5 45.5q186 0 343.5 -68t262 -184t163 -270t58.5 -326q0 -102 -15.5 -186t-49.5 -156t-96 -112t-148 -40q-81 0 -141.5 34t-87.5 97z" />
    <glyph glyph-name="bracketleft.case" horiz-adv-x="815" 
d="M252 -184v1802h516v-109h-385v-1587h385v-106h-516z" />
    <glyph glyph-name="bracketright.case" horiz-adv-x="815" 
d="M563 1618v-1802h-516v106h385v1587h-385v109h516z" />
    <glyph glyph-name="braceleft.case" horiz-adv-x="768" 
d="M152 662v110q97 3 148.5 62.5t51.5 150.5v305q0 109 34.5 173t100.5 96q25 12 78 24t82 12l29 -88l-113 -34q-42 -12 -61 -49.5t-19 -114.5v-308q0 -126 -41 -191t-139 -93q98 -29 139 -94t41 -191v-307q0 -77 19 -114.5t61 -49.5l113 -37l-29 -86q-30 0 -83 12t-77 25
q-66 35 -100.5 97.5t-34.5 170.5v303q0 91 -51.5 152t-148.5 64z" />
    <glyph glyph-name="braceright.case" horiz-adv-x="768" 
d="M614 772v-110q-97 -3 -148.5 -64t-51.5 -152v-303q0 -108 -34.5 -170.5t-100.5 -97.5q-24 -13 -77 -25t-83 -12l-29 86l113 37q42 12 61 49.5t19 114.5v307q0 126 41 191t139 94q-98 28 -139 93t-41 191v308q0 77 -19 114.5t-61 49.5l-113 34l29 88q29 0 82 -12t78 -24
q66 -32 100.5 -96t34.5 -173v-305q0 -91 51.5 -150.5t148.5 -62.5z" />
    <glyph glyph-name="exclamdown.case" horiz-adv-x="542" 
d="M346 0h-149v350l30 735h86l33 -735v-350zM344 1237h-145v195h145v-195z" />
    <glyph glyph-name="guillemotleft.case" horiz-adv-x="1130" 
d="M102 690v51l107 78q169 123 352 234l49 -70l-366 -266l366 -268l-49 -70q-191 116 -352 233zM518 690v51l107 78q169 123 352 234l49 -70l-367 -266l367 -268l-49 -70q-191 116 -352 233z" />
    <glyph glyph-name="periodcentered.case" horiz-adv-x="600" 
d="M211 821h135v-209h-135v209z" />
    <glyph glyph-name="guillemotright.case" horiz-adv-x="1130" 
d="M1028 741v-51q-227 -175 -459 -311h-2l-49 70l117 86l250 182l-367 266l49 70v-2l2 2q247 -148 459 -312zM612 741v-51l-108 -78q-48 -37 -150 -104q-121 -85 -200 -129h-2l-31 41l-2 4l-17 25q33 25 97 70.5t86 62.5l184 135l-367 266l15 18l24 37l11 15v-2l2 2
q47 -29 98 -64q122 -75 252 -170z" />
    <glyph glyph-name="questiondown.case" horiz-adv-x="1062" 
d="M547 -27q-188 0 -297 97.5t-109 255.5q0 88 31 157.5t81 119.5t138 112q92 63 125 136t33 187v47h92q21 -86 21 -155q0 -60 -12.5 -105t-42.5 -83.5t-61.5 -65.5t-88.5 -68q-92 -66 -136.5 -128.5t-44.5 -141.5q0 -111 76 -176.5t207 -65.5q115 0 190 69.5t93 180.5h135
q-20 -164 -133 -268.5t-297 -104.5zM664 1237h-146v195h146v-195z" />
    <glyph glyph-name="endash.case" horiz-adv-x="1024" 
d="M1024 657h-1024v119h1024v-119z" />
    <glyph glyph-name="emdash.case" horiz-adv-x="2048" 
d="M2048 657h-2048v119h2048v-119z" />
    <glyph glyph-name="bullet.case" horiz-adv-x="882" 
d="M195 715q0 103 71.5 174.5t173.5 71.5q103 0 175.5 -71.5t72.5 -174.5t-72.5 -174.5t-175.5 -71.5q-102 0 -173.5 71.5t-71.5 174.5z" />
    <glyph glyph-name="guilsinglleft.case" horiz-adv-x="714" 
d="M102 690v51l107 78q169 123 352 234l49 -70l-366 -266l366 -268l-49 -70q-191 116 -352 233z" />
    <glyph glyph-name="guilsinglright.case" horiz-adv-x="714" 
d="M610 741v-51l-106 -78q-161 -117 -352 -233l-50 70l367 268l-367 266l50 70q183 -111 352 -234z" />
    <glyph glyph-name="zero.numerator" 
d="M68 961q0 220 90 354.5t254 134.5t254 -134.5t90 -354.5q0 -221 -89.5 -355.5t-254.5 -134.5t-254.5 134.5t-89.5 355.5zM186 961q0 -182 57.5 -284t168.5 -102t169 102t58 284q0 180 -58 281t-169 101t-168.5 -101t-57.5 -281z" />
    <glyph glyph-name="one.numerator" 
d="M397 1290l-161 -121l-74 84l248 183h102v-951h-115v805z" />
    <glyph glyph-name="two.numerator" 
d="M684 485h-582v97q142 117 310 303q80 88 113.5 157.5t33.5 137.5q0 79 -46.5 122.5t-131.5 43.5q-161 0 -186 -189h-107q14 138 92 215.5t209 77.5q133 0 210 -71.5t77 -194.5q0 -80 -34 -156t-110 -168q-123 -147 -266 -272h418v-103z" />
    <glyph glyph-name="three.numerator" 
d="M395 573q91 0 143 48.5t52 117.5q0 94 -66 140.5t-186 46.5h-86v102h88q105 0 165 45t60 121q0 68 -44.5 108.5t-129.5 40.5q-74 0 -124.5 -38t-59.5 -111h-115q17 123 99.5 189.5t197.5 66.5q133 0 213 -68.5t80 -181.5q0 -79 -47.5 -137.5t-118.5 -83.5q85 -27 138 -88
t53 -152q0 -118 -83 -194t-229 -76q-183 0 -305 166l62 53q104 -115 243 -115z" />
    <glyph glyph-name="four.numerator" 
d="M506 694h-459v94l467 646h107v-637h114v-103h-114v-209h-115v209zM506 1247l-322 -450h322v450z" />
    <glyph glyph-name="five.numerator" 
d="M401 573q89 0 145 56t56 143q0 96 -60 150.5t-161 54.5q-111 0 -207 -35l-20 12v480h516v-103h-408v-268q55 16 131 16q144 0 235 -84.5t91 -228.5q0 -131 -89 -214t-231 -83q-172 0 -297 141l56 58q100 -95 243 -95z" />
    <glyph glyph-name="six.numerator" 
d="M430 1343q-94 0 -152 -82t-65 -247q45 40 103 64t116 24q140 0 224.5 -90t84.5 -230q0 -139 -87.5 -226t-225.5 -87q-153 0 -245.5 115t-92.5 346q0 258 93 389t251 131q118 0 198.5 -71t98.5 -179h-117q-15 67 -63 105t-121 38zM422 997q-55 0 -111.5 -24.5t-99.5 -69.5
q6 -170 64.5 -250t150.5 -80q93 0 146 58.5t53 152.5q0 96 -53.5 154.5t-149.5 58.5z" />
    <glyph glyph-name="seven.numerator" 
d="M711 1434v-103q-245 -404 -328 -846h-127q87 436 330 846h-473v103h598z" />
    <glyph glyph-name="eight.numerator" 
d="M696 1194q0 -144 -127 -227q87 -46 125.5 -102t38.5 -130q0 -122 -89 -194t-232 -72t-233.5 77t-90.5 206q0 79 40.5 145t113.5 111q-125 78 -125 198q0 110 80 177t209 67t209.5 -70t80.5 -186zM360 946l-30 12q-125 -77 -125 -208q0 -81 59.5 -129t149.5 -48
q89 0 145.5 43t56.5 117q0 26 -6.5 47.5t-24.5 40.5t-34.5 32.5t-52.5 31t-61 29t-77 32.5zM467 1014q41 13 68 48t36 69t9 67q0 66 -49 107t-130 41q-78 0 -123 -40.5t-45 -99.5t48 -98t186 -94z" />
    <glyph glyph-name="nine.numerator" 
d="M137 596l47 63q96 -86 209 -86q104 0 158 78t61 252q-45 -40 -103 -64t-116 -24q-139 0 -224 90.5t-85 231.5q0 138 88 225.5t225 87.5q153 0 245.5 -116t92.5 -347q0 -263 -88.5 -390.5t-249.5 -127.5q-66 0 -134.5 31.5t-125.5 95.5zM403 920q55 0 111.5 24.5
t99.5 69.5q-4 170 -63.5 249.5t-151.5 79.5q-93 0 -145.5 -58t-52.5 -152q0 -96 53 -154.5t149 -58.5z" />
    <glyph glyph-name="zero.denominator" 
d="M68 475q0 220 90 355t254 135t254 -135t90 -355q0 -221 -89.5 -355t-254.5 -134t-254.5 134t-89.5 355zM186 475q0 -182 57.5 -283.5t168.5 -101.5t169 101.5t58 283.5q0 180 -58 281.5t-169 101.5t-168.5 -101.5t-57.5 -281.5z" />
    <glyph glyph-name="one.denominator" 
d="M397 805l-161 -121l-74 84l248 182h102v-950h-115v805z" />
    <glyph glyph-name="two.denominator" 
d="M684 0h-582v96q142 117 310 303q80 88 113.5 157.5t33.5 137.5q0 79 -46.5 122.5t-131.5 43.5q-162 0 -186 -188h-107q14 138 92 215.5t209 77.5q133 0 210 -72t77 -195q0 -79 -33.5 -155t-110.5 -168q-126 -151 -266 -273h418v-102z" />
    <glyph glyph-name="three.denominator" 
d="M395 88q91 0 143 48.5t52 117.5q0 94 -65.5 140t-186.5 46h-86v103h88q105 0 165 45t60 121q0 68 -44.5 108.5t-129.5 40.5q-74 0 -124.5 -38t-59.5 -111h-115q17 123 99.5 189.5t197.5 66.5q133 0 213 -68.5t80 -181.5q0 -79 -47.5 -137.5t-118.5 -83.5q85 -27 138 -88
t53 -152q0 -118 -83 -194t-229 -76q-183 0 -305 166l62 53q104 -115 243 -115z" />
    <glyph glyph-name="four.denominator" 
d="M506 209h-459v94l467 645h107v-637h114v-102h-114v-209h-115v209zM506 762l-322 -451h322v451z" />
    <glyph glyph-name="five.denominator" 
d="M401 88q89 0 145 56t56 143q0 96 -60 150.5t-161 54.5q-111 0 -207 -35l-20 12v479h516v-102h-408v-268q55 16 131 16q144 0 235 -84.5t91 -228.5q0 -131 -89 -214t-231 -83q-172 0 -297 141l56 57q99 -94 243 -94z" />
    <glyph glyph-name="six.denominator" 
d="M430 858q-94 0 -152 -82.5t-65 -247.5q45 40 103 64t116 24q140 0 224.5 -89.5t84.5 -229.5q0 -139 -87.5 -226t-225.5 -87q-153 0 -245.5 114.5t-92.5 345.5q0 258 93 389.5t251 131.5q118 0 198.5 -71t98.5 -179h-117q-15 67 -63 105t-121 38zM422 512
q-55 0 -111.5 -24.5t-99.5 -69.5q6 -170 64.5 -250t150.5 -80q93 0 146 58.5t53 152.5q0 96 -53.5 154.5t-149.5 58.5z" />
    <glyph glyph-name="seven.denominator" 
d="M711 948v-102q-245 -404 -328 -846h-127q87 436 330 846h-473v102h598z" />
    <glyph glyph-name="eight.denominator" 
d="M696 709q0 -69 -32.5 -128t-94.5 -100q87 -46 125.5 -101.5t38.5 -129.5q0 -122 -89 -194t-232 -72t-233.5 76.5t-90.5 205.5q0 79 40.5 145t113.5 111q-125 78 -125 199q0 110 80 177t209 67t209.5 -70t80.5 -186zM360 461l-30 12q-125 -77 -125 -209q0 -81 59.5 -128.5
t149.5 -47.5q89 0 145.5 43t56.5 117q0 26 -6.5 47.5t-24.5 40.5t-34.5 32.5t-52.5 31t-61 29t-77 32.5zM467 528q41 13 68 48.5t36 69.5t9 67q0 66 -49 106.5t-130 40.5q-78 0 -123 -40.5t-45 -98.5q0 -60 48.5 -99.5t185.5 -93.5z" />
    <glyph glyph-name="nine.denominator" 
d="M137 111l47 63q96 -86 209 -86q104 0 158 78t61 252q-45 -40 -103 -64t-116 -24q-139 0 -224 90t-85 231q0 138 88 226t225 88q153 0 245.5 -116t92.5 -347q0 -263 -88.5 -390.5t-249.5 -127.5q-66 0 -134.5 31.5t-125.5 95.5zM403 434q55 0 111.5 24.5t99.5 69.5
q-4 170 -63.5 250t-151.5 80q-93 0 -145.5 -58t-52.5 -153q0 -96 53 -154.5t149 -58.5z" />
    </font>
</defs>
</svg>
